<?xml version="1.0" encoding="UTF-8"?>
<svg width="44px" height="46px" viewBox="0 0 44 46" version="1.1" xmlns="http://www.w3.org/2000/svg" xmlns:xlink="http://www.w3.org/1999/xlink">
    <g id="Casy-Study---Restless" stroke="none" stroke-width="1" fill="none" fill-rule="evenodd">
        <g id="Desktop-Copy-9" transform="translate(-192.000000, -2020.000000)">
            <g id="beer" transform="translate(193.092486, 2020.911972)" stroke="#6C6CF5" stroke-width="1.12800001">
                <path d="M32.2902142,10.7452113 C32.2902142,7.84302465 29.9485607,5.49128521 27.0537193,5.49128521 C26.2397213,5.49128521 25.4738266,5.6853169 24.7868514,6.01799648 C23.6846094,2.7122993 20.5740548,0.325144366 16.9058025,0.325144366 C13.890327,0.325144366 11.2502828,1.93391197 9.79365477,4.34367254 C9.40243967,4.28715845 9.00295681,4.25551056 8.59595782,4.25551056 C4.00660257,4.25551056 0.286113139,7.98468662 0.286113139,12.5856866 C0.286113139,13.7299085 0.461615014,14.8198768 0.878009185,15.8126408 C3.03175918,20.9478873 2.30833068,24.7882831 2.30833068,24.7882831 C2.30833068,27.0518606 1.7307153,29.2453606 0.70250731,31.2606528 C0.404492348,31.8442549 0.203811403,32.497181 0.203811403,33.1874063 C0.203811403,35.6683746 2.30833068,37.6795225 4.56317276,37.6795225 L4.56317276,19.9306338 C5.6905938,20.4565915 6.69211949,20.7904014 7.85524219,20.8857218 C8.94357931,21.1166761 10.0646116,21.2391232 11.2299892,21.2391232 C15.2109129,21.2391232 18.902841,19.8243873 21.765363,17.4703873 C23.1370586,16.3419894 24.8969628,15.8514472 26.6681413,15.9595775 C26.7857689,15.9667359 26.9075304,15.9998908 27.0266612,15.9998908 C29.7666701,15.9998908 32.0395509,13.8399225 32.2721755,11.2025986 L32.2669142,11.2025986 C32.2800674,11.2025986 32.2902142,10.9004366 32.2902142,10.7452113 Z" id="Stroke-7"></path>
                <path d="M31.9970847,40.8564806 C31.9970847,40.8564806 32.2800674,11.2029754 32.2669142,11.2029754 L32.2721755,11.2029754 C32.0395509,13.8402993 29.7704282,16.0002676 27.0300434,16.0002676 C26.9109126,16.0002676 26.7925334,15.9818063 26.6752816,15.9746479 C24.9041032,15.8665176 23.1509634,16.3495246 21.7792678,17.4779225 C18.9167458,19.8322993 15.2383468,21.2428908 11.2574231,21.2428908 C10.0920455,21.2428908 8.84962755,21.1185599 7.76129044,20.8879824 C6.6714501,20.7986901 5.6905938,20.4957746 4.56317276,20.0255775 L4.56317276,40.8564806 C4.56317276,42.7922764 6.42642393,44.3577165 8.35732036,44.3577165 L28.798967,44.3577165 C30.7298635,44.3577165 31.9970847,42.7922764 31.9970847,40.8564806 Z" id="Stroke-8"></path>
                <path d="M32.2154286,16.8543838 L39.8232658,16.8543838 C40.8544802,16.8543838 41.3926359,17.4451444 41.3926359,18.4785986 L41.3926359,33.0191074 C41.3926359,34.04205 40.8657544,34.9200151 39.8232658,34.9387025 L32.0508251,34.9387025 L32.0853994,31.1710968 L37.0802504,31.1710968 C37.7292691,31.1710968 38.0099969,30.5848574 38.0099969,29.9341919 L38.0099969,21.5638908 C38.0099969,20.9132254 37.7292691,20.6219894 37.0802504,20.6219894 L32.1812302,20.6219894 L32.2154286,16.8543838 Z" id="Stroke-9"></path>
                <path d="M11.1213809,21.2391232 C10.3412056,21.2391232 9.44903974,21.1795951 8.69742571,21.0741021 L8.69742571,38.2441359 C8.69742571,39.0910937 9.54374311,39.7775514 10.3885573,39.7775514 C11.2329956,39.7775514 12.0796888,39.0910937 12.0796888,38.2441359 L12.0796888,21.2191549 C11.7038818,21.231588 11.3885797,21.2391232 11.1213809,21.2391232 Z" id="Stroke-10"></path>
                <path d="M19.7360051,18.9141338 C19.8145488,18.8741972 19.8930924,18.833507 19.9716361,18.7924401 L19.9716361,38.2442113 C19.9716361,39.091169 19.1253187,39.7776268 18.2805046,39.7776268 C17.4356904,39.7776268 16.589373,39.091169 16.589373,38.2442113 L16.589373,20.3657923 C17.6946214,19.9905387 18.7487601,19.502257 19.7360051,18.9141338 Z" id="Stroke-11"></path>
                <path d="M24.4813203,16.1547394 C25.1915955,15.9878345 25.9319353,15.9290599 26.6752816,15.9746479 C26.7925334,15.9818063 26.9109126,16.0002676 27.0300434,16.0002676 C27.1841243,16.0002676 27.3370778,15.9931092 27.4877764,15.9799225 L27.4877764,38.2442866 C27.4877764,39.0908676 26.8289867,39.7773254 25.9845483,39.7773254 C25.1397342,39.7773254 24.4813203,39.0908676 24.4813203,38.2442866 L24.4813203,16.1547394 Z" id="Stroke-103"></path>
            </g>
        </g>
    </g>
</svg>