<?xml version="1.0" encoding="UTF-8"?>
<svg width="55px" height="44px" viewBox="0 0 55 44" version="1.1" xmlns="http://www.w3.org/2000/svg" xmlns:xlink="http://www.w3.org/1999/xlink">
    <g id="Casy-Study---Restless" stroke="none" stroke-width="1" fill="none" fill-rule="evenodd">
        <g id="Desktop-Copy-9" transform="translate(-552.000000, -2021.000000)">
            <g id="camera-reverse" transform="translate(553.000000, 2021.665493)" stroke="#FFFFFF" stroke-width="1.12800001">
                <path d="M49.5719515,23.7974405 C49.5719515,13.5961585 41.3109617,5.31383099 31.1354232,5.31383099 C20.9600349,5.31383099 12.6988948,13.5961585 12.6988948,23.7974405 C12.6988948,33.9987602 20.9600349,42.280937 31.1354232,42.280937 C41.3109617,42.280937 49.5719515,33.9987602 49.5719515,23.7974405 Z" id="Stroke-1"></path>
                <path d="M46.4275742,23.7974405 C46.4275742,15.3360387 39.575485,8.46656338 31.135348,8.46656338 C22.6953989,8.46656338 15.8431969,15.3360387 15.8431969,23.7974405 C15.8431969,32.2587292 22.6953989,39.1282046 31.135348,39.1282046 C39.575485,39.1282046 46.4275742,32.2587292 46.4275742,23.7974405 Z" id="Stroke-2"></path>
                <path d="M13.9955793,3.82901761 L5.72519436,3.82901761 C5.31030342,3.82901761 4.97358034,4.16621831 4.97358034,4.58253873 L4.97358034,5.83828169 C4.97358034,6.25460211 5.31030342,6.59180282 5.72519436,6.59180282 L13.9955793,6.59180282 C14.4108461,6.59180282 14.7471933,6.25460211 14.7471933,5.83828169 L14.7471933,4.58253873 C14.7471933,4.16621831 14.4108461,3.82901761 13.9955793,3.82901761 Z" id="Stroke-3"></path>
                <path d="M27.8377918,34.09555 L44.5864957,17.3042359" id="Stroke-4" stroke-linecap="round"></path>
                <path d="M26.7509955,28.192993 L36.8076663,18.1108803" id="Stroke-5" stroke-linecap="round"></path>
                <path d="M9.85925941,6.21541901 C9.85925941,8.72690493 8.35603136,8.72690493 8.35603136,11.2380141 C8.35603136,13.7487465 9.85925941,13.7487465 9.85925941,16.2591021 C9.85925941,18.7702113 8.35603136,18.7702113 8.35603136,21.2813204 C8.35603136,23.7934092 9.85925941,23.7934092 9.85925941,26.3052718 C9.85925941,28.816381 8.35603136,28.816381 8.35603136,31.3278669 C8.35603136,33.8408599 9.85925941,33.8408599 9.85925941,36.3534761 C9.85925941,38.866469 8.35603136,38.866469 8.35603136,41.379462" id="Stroke-6"></path>
                <path d="M38.1034489,6.68184859 L51.0086617,6.68184859 C52.2540862,6.68184859 53.3927814,7.35625 53.3927814,8.60483451 L53.3927814,39.247713 C53.3927814,40.4962975 52.2540862,41.7203926 51.0086617,41.7203926 L36.8249534,41.7203926 C36.4664335,41.7145905 36.1184362,41.7038151 35.7805857,41.6882173 C43.7104895,39.6216856 49.5719515,32.390407 49.5719515,23.7974405 C49.5719515,16.067331 44.8285154,9.43935915 38.1034489,6.68184859 Z" id="Stroke-100"></path>
                <path d="M24.1675853,6.68184859 C17.4422182,9.43935915 12.6988948,16.067331 12.6988948,23.7974405 C12.6988948,32.4356183 18.6222898,39.6977158 26.6156298,41.7203926 L2.24274109,41.7203926 C0.997316652,41.7203926 0.0281103646,40.4962975 0.0281103646,39.247713 L0.0281103646,8.60483451 C0.0281103646,7.35625 0.997166329,6.68184859 2.24274109,6.68184859 L24.1675853,6.68184859 Z M35.7805857,41.7203926 L35.6550662,41.7203926 L35.7242147,41.7028356 L35.7805857,41.7203926 Z" id="Stroke-101"></path>
                <path d="M43.5673071,6.68184859 L38.1038247,6.68184859 C35.953457,5.80022887 33.6005293,5.31383099 31.1354232,5.31383099 C28.6702419,5.31383099 26.3174269,5.80022887 24.1672095,6.68184859 L19.2595081,6.68184859 L23.4294628,0.276919014 L39.3973524,0.276919014 L43.5673071,6.68184859 Z" id="Stroke-102"></path>
            </g>
        </g>
    </g>
</svg>