<?xml version="1.0" encoding="UTF-8"?>
<svg width="41px" height="46px" viewBox="0 0 41 46" version="1.1" xmlns="http://www.w3.org/2000/svg" xmlns:xlink="http://www.w3.org/1999/xlink">
    <g id="Casy-Study---Restless" stroke="none" stroke-width="1" fill="none" fill-rule="evenodd">
        <g id="Desktop-Copy-9" transform="translate(-86.000000, -2111.000000)">
            <g id="cocktail" transform="translate(87.138728, 2111.711268)" stroke="#6C6CF5" stroke-width="1.12800001">
                <path d="M37.2568704,24.9314521 C37.2568704,22.7322254 31.1049096,20.946757 23.5323983,20.946757 C15.959887,20.946757 9.81168421,22.7322254 9.81168421,24.9314521 C9.81168421,27.1306412 15.959887,28.9160718 23.5323983,28.9160718 C31.1049096,28.9160718 37.2568704,27.1306412 37.2568704,24.9314521 Z" id="Stroke-46"></path>
                <path d="M8.47756932,16.4504965 C3.97915937,16.4504965 0.333831338,12.7955423 0.333831338,8.28722535 C0.333831338,3.77890845 3.97915937,0.124330986 8.47756932,0.124330986 C12.9722212,0.124330986 16.6213073,3.77890845 16.6213073,8.28722535 C16.6213073,9.61417606 16.3056294,10.8669049 15.7419189,11.9742042" id="Stroke-47"></path>
                <path d="M8.47756932,0.123954225 C3.97915937,0.123954225 0.333831338,3.77890845 0.333831338,8.28722535 C0.333831338,9.79916549 0.747219053,11.2142782 1.46125238,12.4285775 L15.6592413,4.44125352 C14.2875457,1.87212324 11.5854933,0.123954225 8.47756932,0.123954225 Z" id="Stroke-48"></path>
                <path d="M4.09941761,1.32167606 L8.36482721,8.34939085" id="Stroke-49"></path>
                <path d="M27.4858881,34.7378891 C27.4858881,34.5299549 27.3167749,34.3611285 27.110081,34.3611285 C26.9033872,34.3611285 26.734274,34.5299549 26.734274,34.7378891 C26.734274,34.9458609 26.9033872,35.1146496 27.110081,35.1146496 C27.3167749,35.1146496 27.4858881,34.9458609 27.4858881,34.7378891 Z" id="Stroke-50"></path>
                <path d="M29.7407301,24.9314521 C29.7407301,24.723518 29.571617,24.5546915 29.3649231,24.5546915 C29.1582293,24.5546915 28.9891161,24.723518 28.9891161,24.9314521 C28.9891161,25.1394239 29.1582293,25.3082127 29.3649231,25.3082127 C29.571617,25.3082127 29.7407301,25.1394239 29.7407301,24.9314521 Z" id="Stroke-51"></path>
                <path d="M30.4923442,37.4215169 C30.4923442,36.7977144 29.9887628,36.2912352 29.3649231,36.2912352 C28.7410835,36.2912352 28.2375021,36.7977144 28.2375021,37.4215169 C28.2375021,38.045357 28.7410835,38.5517986 29.3649231,38.5517986 C29.9887628,38.5517986 30.4923442,38.045357 30.4923442,37.4215169 Z" id="Stroke-52"></path>
                <path d="M38.5421304,8.28722535 C38.5421304,8.29060935 38.5421304,8.29361735 38.5421304,8.29700135 L38.5421304,8.28722535 Z" id="Stroke-53"></path>
                <path d="M23.5098499,13.206588 C15.2082729,13.206588 8.47756932,11.0096972 8.47756932,8.29890493 C8.47756932,29.5887401 13.3630605,41.7155324 13.3630605,41.7155324 C17.568341,44.5600746 29.7144236,44.9168669 33.6566392,41.7155324 C33.6566392,41.7155324 38.5383723,29.5887401 38.5421304,8.29890493 C38.5383723,11.0096972 31.8114268,13.206588 23.5098499,13.206588 Z" id="Stroke-54"></path>
                <path d="M8.47756932,8.28722535 C8.47756932,8.29060935 8.47756932,8.29361735 8.47756932,8.29700135 C8.47756932,8.29361735 8.47756932,8.29060935 8.47756932,8.28722535 Z" id="Stroke-55"></path>
                <path d="M23.5098499,3.38933803 C20.5597648,3.38933803 17.8126155,3.66738732 15.4938863,4.14625 C16.2079196,5.3605493 16.6213073,6.77528521 16.6213073,8.28722535 C16.6213073,9.6137993 16.3056294,10.8665282 15.7419189,11.9742042 L15.103047,12.367919 C17.5044538,12.8972676 20.3944097,13.206588 23.5098499,13.206588 C31.8114268,13.206588 38.5421304,11.0089437 38.5421304,8.29777465 C38.5421304,5.58698239 31.8114268,3.38933803 23.5098499,3.38933803 Z" id="Stroke-56"></path>
            </g>
        </g>
    </g>
</svg>