<?xml version="1.0" encoding="UTF-8"?>
<svg width="23px" height="57px" viewBox="0 0 23 57" version="1.1" xmlns="http://www.w3.org/2000/svg" xmlns:xlink="http://www.w3.org/1999/xlink">
    <g id="Casy-Study---Restless" stroke="none" stroke-width="1" fill="none" fill-rule="evenodd">
        <g id="Desktop-Copy-9" transform="translate(-202.000000, -2105.000000)">
            <g id="cutlery" transform="translate(203.236994, 2106.059859)" stroke="#23DBC6" stroke-linecap="round" stroke-width="1.12800001">
                <path d="M10.0919244,15.5342148 L8.77659986,4.1605669 C8.77659986,3.71523592 8.17530864,3.60710563 8.07008268,4.04000352 L7.55522707,14.89975 C7.54019479,15.2550352 7.24706532,15.5342148 6.89380672,15.5342148 C6.5443062,15.5342148 6.2549348,15.2637007 6.22862831,14.9151972 L5.40185288,3.19266901 C5.35299797,2.7447007 4.70285184,2.73076056 4.657755,3.17872887 L3.86856027,14.8195 C3.84601185,15.1691338 3.55664045,15.3473415 3.20713992,15.3473415 L3.1470108,15.3473415 C2.79375221,15.3473415 2.50062274,15.1615986 2.48559046,14.8063134 L1.96697678,3.99328521 C1.86175082,3.56038732 1.26045959,3.69187676 1.26045959,4.13720775 L0.133038555,15.4916408 C0.133038555,20.8921268 3.8272215,22.8825528 3.8272215,22.8825528 C3.8272215,22.8825528 2.51565502,44.3579049 2.51565502,53.4001585 C2.51565502,55.2839613 7.52516251,55.6607218 7.52516251,53.4001585 C7.52516251,45.4881866 6.20607989,25.5552923 6.0407248,23.0098979 C6.61946761,22.658757 10.0919244,20.3680528 10.0919244,15.5342148 Z" id="Stroke-40"></path>
                <path d="M19.6937936,32.6252419 L19.6937936,0.275411972 C17.0631445,0.275411972 14.8083024,5.04783803 14.8083024,11.9549894 L14.8083024,14.8436127 C14.8083024,18.4853803 16.4693694,26.2903521 16.6384826,29.5259718 C16.1987884,36.5703018 15.6689005,47.3716504 15.6689005,53.3998194 C15.6689005,55.2836222 20.678408,55.6603827 20.678408,53.3998194 C20.678408,48.501932 20.0696006,39.7433792 19.6937936,32.6252419 Z" id="Stroke-41"></path>
            </g>
        </g>
    </g>
</svg>