<?xml version="1.0" encoding="UTF-8"?>
<svg width="59px" height="35px" viewBox="0 0 59 35" version="1.1" xmlns="http://www.w3.org/2000/svg" xmlns:xlink="http://www.w3.org/1999/xlink">
    <g id="Casy-Study---Restless" stroke="none" stroke-width="1" fill="none" fill-rule="evenodd">
        <g id="Desktop-Copy-9" transform="translate(-768.000000, -2286.000000)">
            <g id="cycling-reverse" transform="translate(769.040462, 2287.281690)" stroke="#FFFFFF" stroke-width="1.12800001">
                <path d="M20.5480108,22.1685915 C20.5480108,16.5541056 16.0007459,11.9960563 10.4012214,11.9960563 C4.80169694,11.9960563 0.254432076,16.5541056 0.254432076,22.1685915 C0.254432076,27.7830021 4.80169694,32.3411268 10.4012214,32.3411268 C16.0007459,32.3411268 20.5480108,27.7830021 20.5480108,22.1685915 Z" id="Stroke-79"></path>
                <polyline id="Stroke-80" stroke-linecap="round" points="10.2772051 21.877657 21.9948678 0.276919014 26.8164718 0.276919014"></polyline>
                <path d="M18.5336852,8.26160563 L37.8238592,8.26160563 L47.0950182,20.9701162 C47.459551,21.4681937 47.1025344,22.1685915 46.4899689,22.1685915 L28.6804746,22.1685915 L18.5336852,8.26160563 Z" id="Stroke-81"></path>
                <path d="M28.6804746,22.0119345 L40.3605565,4.24119366" id="Stroke-82"></path>
                <path d="M31.5591563,22.1685915 C31.5591563,20.575987 30.2701382,19.2829824 28.6804746,19.2829824 C27.094569,19.2829824 25.8055509,20.575987 25.8055509,22.1685915 C25.8055509,23.7612338 27.094569,25.0542007 28.6804746,25.0542007 C30.2701382,25.0542007 31.5591563,23.7612338 31.5591563,22.1685915 Z" id="Stroke-83"></path>
                <path d="M57.1102751,22.1685915 C57.1102751,16.5541056 52.5630103,11.9960563 46.9634858,11.9960563 C41.3639613,11.9960563 36.8166964,16.5541056 36.8166964,22.1685915 C36.8166964,27.7830021 41.3639613,32.3411268 46.9634858,32.3411268 C52.5630103,32.3411268 57.1102751,27.7830021 57.1102751,22.1685915 Z" id="Stroke-84"></path>
                <path d="M35.080468,4.04452465 L42.2208013,4.04452465" id="Stroke-85" stroke-linecap="round"></path>
            </g>
        </g>
    </g>
</svg>