<?xml version="1.0" encoding="UTF-8"?>
<svg width="46px" height="40px" viewBox="0 0 46 40" version="1.1" xmlns="http://www.w3.org/2000/svg" xmlns:xlink="http://www.w3.org/1999/xlink">
    <g id="Casy-Study---Restless" stroke="none" stroke-width="1" fill="none" fill-rule="evenodd">
        <g id="Desktop-Copy-9" transform="translate(-887.000000, -2114.000000)">
            <g id="dinner-reverse" transform="translate(888.144509, 2114.348592)" stroke="#FFFFFF" stroke-width="1.12800001">
                <path d="M41.0014118,20.5594472 C41.0014118,22.4323616 32.4254958,23.9503299 21.8465283,23.9503299 C11.2675609,23.9503299 2.69164488,22.4323616 2.69164488,20.5594472 C2.69164488,14.3500563 11.2675609,9.11534507 21.8465283,9.11534507 C32.4254958,9.11534507 41.0014118,14.0991338 41.0014118,20.5594472 Z" id="Stroke-29"></path>
                <path d="M17.9569258,13.3603063 C17.9569258,13.1523345 17.7878126,12.9835458 17.5811187,12.9835458 C17.3706668,12.9835458 17.2053117,13.1523345 17.2053117,13.3603063 C17.2053117,13.5682782 17.3706668,13.7370669 17.5811187,13.7370669 C17.7878126,13.7370669 17.9569258,13.5682782 17.9569258,13.3603063 Z" id="Stroke-30"></path>
                <path d="M22.2223354,16.9097676 C22.2223354,16.7017958 22.0532222,16.533007 21.8465283,16.533007 C21.6398345,16.533007 21.4707213,16.7017958 21.4707213,16.9097676 C21.4707213,17.1173627 21.6398345,17.2865282 21.8465283,17.2865282 C22.0532222,17.2865282 22.2223354,17.1173627 22.2223354,16.9097676 Z" id="Stroke-31"></path>
                <path d="M29.7384756,14.4050634 C29.7384756,14.1970915 29.5693625,14.0283028 29.3626686,14.0283028 C29.1559748,14.0283028 28.9868616,14.1970915 28.9868616,14.4050634 C28.9868616,14.6130352 29.1559748,14.7818239 29.3626686,14.7818239 C29.5693625,14.7818239 29.7384756,14.6130352 29.7384756,14.4050634 Z" id="Stroke-32"></path>
                <path d="M35.8866784,17.4195246 C35.8866784,17.2115528 35.7175652,17.0427641 35.5108714,17.0427641 C35.3041775,17.0427641 35.1350643,17.2115528 35.1350643,17.4195246 C35.1350643,17.6271197 35.3041775,17.7962852 35.5108714,17.7962852 C35.7175652,17.7962852 35.8866784,17.6271197 35.8866784,17.4195246 Z" id="Stroke-33"></path>
                <path d="M10.3130111,15.7783556 C10.3130111,15.5703838 10.143898,15.4015951 9.9372041,15.4015951 C9.73051024,15.4015951 9.56139708,15.5703838 9.56139708,15.7783556 C9.56139708,15.9859507 9.73051024,16.1551162 9.9372041,16.1551162 C10.143898,16.1551162 10.3130111,15.9859507 10.3130111,15.7783556 Z" id="Stroke-34"></path>
                <path d="M23.3535145,12.9835458 L26.2359543,0.198176056" id="Stroke-35" stroke-linecap="round"></path>
                <polygon id="Stroke-36" points="22.8161104 2.21572887 28.4569737 3.49445423 27.8631986 6.1276338 22.2223354 4.84890845"></polygon>
                <path d="M40.7233146,31.9372018 C37.9911976,32.8282405 32.5720605,33.3700222 21.8465283,33.3700222 C11.3088997,33.3700222 5.91231098,32.7679588 3.15012943,31.7895116 C2.85324189,31.9989905 2.69164488,32.2288144 2.69164488,32.4819975 C2.69164488,37.6311842 11.2675609,38.6360046 21.8465283,38.6360046 C32.4254958,38.6360046 41.0014118,38.133406 41.0014118,32.4819975 C41.0014118,32.2868356 40.903702,32.1059905 40.7233146,31.9372018 Z" id="Stroke-37"></path>
                <path d="M43.4441574,27.7265257 C43.4441574,26.3645363 43.4028186,25.1151982 41.5688804,24.1401419 C41.226896,25.062075 40.3249592,25.6923954 38.1828592,26.4327299 C36.9877929,26.8460363 35.5634843,28.6428074 33.0343031,28.8782827 C31.4972525,29.0218285 29.5693625,27.6248004 27.3896818,27.6899799 C25.7436471,27.7393356 23.917225,29.2716208 21.8465283,29.2716208 C19.8058963,29.2716208 18.0095387,27.7363215 16.3785363,27.6813144 C14.2326783,27.6089764 12.3198206,28.9931947 10.7940441,28.8345785 C8.34002429,28.5791349 6.95705448,26.7620187 5.75447204,26.3197018 C3.66122697,25.5499799 2.56762856,24.9245574 2.14672471,23.9743673 C0.106092626,24.9716525 0.248899291,26.2857933 0.248899291,27.7265257 C0.248899291,30.8434658 0.248899291,33.3700222 21.8465283,33.3700222 C45.0112727,33.3700222 43.4441574,30.8434658 43.4441574,27.7265257 Z" id="Stroke-38"></path>
                <path d="M40.8811536,20.9388451 C39.8138617,22.6329866 31.7001882,23.9501415 21.8465283,23.9501415 C11.8124811,23.9501415 3.58982364,22.5847613 2.76304821,20.8469155 C2.16175699,21.3926908 1.94003085,22.0177366 1.94003085,22.8748669 C1.94003085,24.5171662 2.95095172,25.2883951 5.75447204,26.3195887 C6.95705448,26.7622824 8.34002429,28.5793986 10.7940441,28.8348423 C12.3198206,28.9934585 14.2326783,27.6088634 16.3785363,27.6815782 C18.0095387,27.7365852 19.8058963,29.2715077 21.8465283,29.2715077 C23.917225,29.2715077 25.7436471,27.7392225 27.3896818,27.6902437 C29.5693625,27.6246873 31.4972525,29.0217155 33.0343031,28.8781697 C35.5634843,28.6430711 36.9877929,26.8459232 38.1828592,26.4326169 C41.174283,25.3976556 41.7567839,24.5808387 41.7567839,22.8748669 C41.7567839,22.0603106 41.4899609,21.461638 40.8811536,20.9388451 Z" id="Stroke-39"></path>
            </g>
        </g>
    </g>
</svg>