<?xml version="1.0" encoding="UTF-8"?>
<svg width="45px" height="44px" viewBox="0 0 45 44" version="1.1" xmlns="http://www.w3.org/2000/svg" xmlns:xlink="http://www.w3.org/1999/xlink">
    <g id="Casy-Study---Restless" stroke="none" stroke-width="1" fill="none" fill-rule="evenodd">
        <g id="Desktop-Copy-9" transform="translate(-775.000000, -2196.000000)">
            <g id="football-reverse" transform="translate(776.179191, 2197.235915)" stroke="#FFFFFF" stroke-linecap="round" stroke-linejoin="round" stroke-width="1.12800001">
                <path d="M21.4082347,0.256197183 C33.1221393,0.256197183 42.6300567,9.59646831 42.6300567,21.1012289 C42.6300567,32.6058011 33.1221393,41.9461475 21.4082347,41.9461475 C9.69433005,41.9461475 0.186412611,32.6058011 0.186412611,21.1012289 C0.186412611,9.59646831 9.69433005,0.256197183 21.4082347,0.256197183 Z" id="Stroke-86"></path>
                <path d="M18.5257949,26.743369 C16.2521624,24.3280324 14.5459986,21.1422958 13.8056588,17.9315423 C15.3915644,15.0666549 17.8944391,12.5065669 20.731782,10.8503275 C23.9825127,11.4949648 27.2370014,13.0988345 29.73236,15.2859296 C30.1570219,18.5494296 29.6609567,22.1003979 28.3681805,25.1083789 C25.3767567,26.4806162 21.8216224,27.0717158 18.5257949,26.743369 Z" id="Stroke-87"></path>
                <path d="M41.2658772,28.471532 C39.5221327,32.9885144 36.2300633,36.7584183 32.0247828,39.1512623 C31.8443954,36.5744085 32.1037023,33.9409275 32.787671,31.5317697 C35.2943038,29.9592465 38.2706953,28.8943704 41.2658772,28.471532 Z" id="Stroke-88"></path>
                <path d="M5.22598466,34.5822493 C5.53790448,33.7443338 5.90619535,32.9356549 6.33085728,32.1727901 C9.32228111,31.155612 12.7834637,30.9384849 15.9026619,31.5720454 C17.83431,34.1056849 19.1571506,37.3185106 19.5555061,40.4611081 C19.2473443,40.9059116 18.9128761,41.3394123 18.5558594,41.7590482 C13.2344321,41.0559 8.54060252,38.4140926 5.22598466,34.5822493 Z" id="Stroke-89"></path>
                <path d="M3.72651468,9.57348592 C5.26356536,10.5010704 6.65405131,11.7428732 7.71006902,13.1542183 C7.51464937,15.5982641 6.62022868,18.1251972 5.2335008,20.1457641 C3.62504678,20.5485211 1.87754417,20.6472324 0.193928752,20.446419 C0.321703136,16.4342958 1.60320505,12.70625 3.72651468,9.57348592 Z" id="Stroke-90"></path>
                <path d="M36.2488536,6.20675352 C39.1989387,9.04225352 41.3109741,12.7149155 42.1866044,16.8317782 C39.589778,16.0292782 37.0981775,14.5090493 35.2229005,12.5773979 C35.1514971,10.4667852 35.5122719,8.24917254 36.2488536,6.20675352 Z" id="Stroke-91"></path>
                <path d="M20.1304908,0.293496479 C19.1646668,1.84047535 17.9545682,3.2510669 16.5941468,4.38850704 C14.6136439,4.3316162 12.5730118,3.87912676 10.7052509,3.10073944 C13.5012551,1.49159507 16.7068889,0.493556338 20.1304908,0.293496479 Z" id="Stroke-92"></path>
            </g>
        </g>
    </g>
</svg>