<?xml version="1.0" encoding="UTF-8"?>
<svg width="33px" height="62px" viewBox="0 0 33 62" version="1.1" xmlns="http://www.w3.org/2000/svg" xmlns:xlink="http://www.w3.org/1999/xlink">
    <g id="Casy-Study---Restless" stroke="none" stroke-width="1" fill="none" fill-rule="evenodd">
        <g id="Desktop-Copy-9" transform="translate(-781.000000, -2012.000000)">
            <g id="icecream-reverse" transform="translate(782.190751, 2013.000000)" stroke="#FFFFFF" stroke-width="1.12800001">
                <path d="M25.1717173,25.3119049 C28.4739335,24.2822183 30.8715823,21.1942887 30.8715823,17.5446092 C30.8715823,13.0532465 27.2397833,9.41185563 22.7594121,9.41185563 C22.4332116,9.41185563 22.1115208,9.43144718 21.7954671,9.46874648" id="Stroke-12"></path>
                <path d="M17.996434,7.85658803 L21.7007637,0.582848592 C21.8849091,0.22078169 22.3268582,0.0772359155 22.6880087,0.261848592 L25.2855868,1.59143662 C25.6467374,1.7760493 25.7899198,2.21949648 25.6053986,2.58118662 L22.1133998,9.43860563 L21.203571,11.225581 C21.0194256,11.5876479 20.5771007,11.7311937 20.2159502,11.5462042" id="Stroke-13"></path>
                <path d="M18.3677313,23.6078169 C19.2005197,22.8102148 19.6777946,22.1064261 20.2204599,21.0759859" id="Stroke-14" stroke-linecap="round"></path>
                <path d="M21.4519795,16.0729824 C21.4519795,10.1442782 16.6581852,5.33832042 10.744486,5.33832042 C4.83078688,5.33832042 0.0366168142,10.1442782 0.0366168142,16.0729824 C0.0366168142,19.4668415 1.60786594,22.4929824 4.06113412,24.4604261" id="Stroke-15" stroke-linecap="round"></path>
                <path d="M9.2897371,25.3405387 L17.0854778,53.7951542" id="Stroke-16"></path>
                <path d="M14.9268423,25.3405387 L20.002116,43.8648761" id="Stroke-17"></path>
                <path d="M20.2204599,25.2648099 L22.625249,34.6123901" id="Stroke-18"></path>
                <path d="M19.9945999,25.3405387 L12.1988592,53.7951542" id="Stroke-19"></path>
                <path d="M14.3574947,25.3405387 L9.28222096,43.8648761" id="Stroke-20"></path>
                <path d="M9.2897371,25.2648099 L6.659088,34.6123901" id="Stroke-21"></path>
                <path d="M23.836475,0.84959507 L19.3842893,9.7886162" id="Stroke-22"></path>
                <path d="M25.3577418,25.2648099 L15.6040465,59.0264746 C15.4826609,59.4556049 15.0918216,59.751362 14.6472419,59.751362 C14.2026622,59.751362 13.8118229,59.4556049 13.6904372,59.0264746 L3.936742,24.5870176 L6.659088,23.0027394 L9.2897371,25.3405387 L11.9756298,23.0027394 L14.6472419,25.2648099 L17.4030347,23.0027394 L20.2204599,25.2648099 L22.7229588,23.0027394 L25.3577418,25.2648099 Z" id="Stroke-104"></path>
            </g>
        </g>
    </g>
</svg>