<?xml version="1.0" encoding="UTF-8"?>
<svg width="20px" height="50px" viewBox="0 0 20 50" version="1.1" xmlns="http://www.w3.org/2000/svg" xmlns:xlink="http://www.w3.org/1999/xlink">
    <g id="Casy-Study---Restless" stroke="none" stroke-width="1" fill="none" fill-rule="evenodd">
        <g id="Desktop-Copy-9" transform="translate(-427.000000, -2193.000000)">
            <g id="karaoke" transform="translate(427.919075, 2194.221831)" stroke="#6C6CF5" stroke-width="1.12800001">
                <path d="M9.24460165,41.9087729 L9.24460165,47.9369419" id="Stroke-57" stroke-linecap="round"></path>
                <path d="M15.156046,15.9087148 L3.07009242,15.9087148 C1.39399314,15.9087148 0.0373298254,14.5463486 0.0373298254,12.8656197 C0.0373298254,12.0020845 0.7325728,11.3016866 1.59692893,11.3016866 L16.6329675,11.3016866 C17.4935656,11.3016866 18.1925666,12.0020845 18.1925666,12.8656197 C18.1925666,14.5463486 16.8321453,15.9087148 15.156046,15.9087148 Z" id="Stroke-58"></path>
                <path d="M8.47795535,25.5473803 C8.47795535,25.3537254 8.63203622,25.1966162 8.82745587,25.1966162 L9.52645691,25.1966162 C9.71811849,25.1966162 9.87595743,25.3537254 9.87595743,25.5473803 L9.87595743,26.2490215 C9.87595743,26.4426764 9.71811849,26.5998609 9.52645691,26.5998609 L8.82745587,26.5998609 C8.63203622,26.5998609 8.47795535,26.4426764 8.47795535,26.2490215 L8.47795535,25.5473803 Z" id="Stroke-59" stroke-linecap="round"></path>
                <path d="M15.5994982,15.8759366 C14.1113025,18.1941444 11.781299,19.6891303 9.16192411,19.6891303 C6.55006537,19.6891303 4.22381995,18.2005493 2.73562418,15.8898768 C2.84460822,15.9023099 2.95735032,15.9087148 3.07009242,15.9087148 L15.156046,15.9087148 C15.3063688,15.9087148 15.4566916,15.897412 15.5994982,15.8759366 Z" id="Stroke-60"></path>
                <path d="M11.8790088,19.1292641 L11.8790088,38.5291176 L9.53773112,41.9440754 C9.40619867,42.2375718 9.06421429,42.2375718 8.93268183,41.9440754 L6.61771063,38.5291176 L6.61771063,19.1978345 C7.39938922,19.5090387 8.23368079,19.6808415 9.10179499,19.6887535 C9.14313376,19.689507 9.1882306,19.6898838 9.23332744,19.6898838 C10.0262802,19.6898838 10.7854104,19.552743 11.4430727,19.2976761 C11.5896374,19.2460599 11.7362022,19.1899225 11.8790088,19.1292641 Z" id="Stroke-61"></path>
                <path d="M1.1609928,11.3630986 C1.14220244,11.286993 1.11965402,11.2459261 1.0971056,11.2534613 C1.04825069,10.8137817 1.0219442,10.3273838 1.0219442,9.87112676 C1.0219442,4.44539789 4.66727223,0.0519929577 9.16192411,0.0519929577 C13.6603341,0.0519929577 17.3056621,4.46046831 17.3056621,9.88619718 C17.3056621,10.3530035 17.2755975,10.8318662 17.2267426,11.2809648 C17.2004361,11.271169 17.1741296,11.3103521 17.140307,11.3864577 C16.97871,11.3314507 16.8095968,11.3016866 16.6329675,11.3016866 L1.59692893,11.3016866 C1.44660613,11.3016866 1.30004139,11.323162 1.1609928,11.3630986 Z" id="Stroke-105"></path>
            </g>
        </g>
    </g>
</svg>