<?xml version="1.0" encoding="UTF-8"?>
<svg width="300px" height="300px" viewBox="0 0 300 300" version="1.1" xmlns="http://www.w3.org/2000/svg" xmlns:xlink="http://www.w3.org/1999/xlink">
    <g id="Casy-Study---Restless" stroke="none" stroke-width="1" fill="none" fill-rule="evenodd">
        <g id="Desktop-Copy-9" transform="translate(-630.000000, -1218.000000)">
            <g id="Group-36" transform="translate(630.000000, 1218.000000)" fill="#5D5DF4">
                <path d="M147.467912,255.288106 C147.511648,255.619604 147.413846,255.971586 147.735385,256.121586 C148.027692,256.25815 148.164615,255.920925 148.374286,255.801982 C151.380659,254.096256 154.49033,252.586344 157.574505,251.029736 C159.014066,250.303084 164.903516,246.100441 166.169451,246.993392 C167.274066,247.772247 168.362637,248.575771 169.49033,249.319824 C172.514066,251.315198 175.687912,253.076211 178.636264,255.191189 C178.855824,255.348678 179.093407,255.681498 179.394505,255.420925 C179.745714,255.11696 179.416484,254.809031 179.266813,254.546696 C175.101099,247.247137 170.966154,238.944273 164.826154,233.151322 C164.496044,232.839868 163.977143,232.455727 163.585934,232.960352 C163.003956,233.711013 162.15033,234.086123 161.488352,234.715419 C156.12022,239.818943 152.014725,245.853304 148.524615,252.34185 C148.019341,253.281498 147.694066,254.292731 147.467912,255.288106 M127.314505,272.392731 C126.043516,273.498018 125.182418,274.717621 124.224396,275.842291 C120.521319,280.189075 117.813187,285.111322 115.948352,290.495683 C115.580879,291.556476 115.510989,292.718811 115.276044,293.828502 C114.971209,295.270132 114.296264,295.652952 112.914505,295.271233 C110.385714,294.572115 107.846593,293.91022 105.316484,293.214846 C103.546154,292.728282 103.201758,291.902731 104.064396,290.302511 C105.96044,286.784449 107.54044,283.103172 109.543516,279.640617 C112.260659,274.943612 115.110549,270.329295 118.245934,265.90022 C119.649011,263.918282 120.218462,263.840529 122.325275,265.154185 C124.281099,266.373568 126.22044,267.620705 128.140879,268.895815 C128.756264,269.304626 129.175165,269.298238 129.778681,268.804405 C131.593187,267.319604 132.867253,265.382599 134.267912,263.561454 C143.581538,251.451322 151.858681,238.801982 162.822198,228.068943 C163.494505,227.410573 164.158462,227.197357 164.912747,227.935022 C180.897802,243.564758 191.661758,262.723789 204.253407,280.948106 C205.48,282.723436 206.536264,284.61859 207.63956,286.477401 C208.27978,287.555815 207.862198,288.457577 206.731429,288.904934 C197.695604,292.480264 190.366154,294.447885 181.99033,296.46815 C173.229011,298.581586 164.123736,299.336432 155.142418,299.732687 C143.632747,300.228282 132.13011,299.369031 120.841319,297.021454 C119.39033,296.719692 118.945714,296.04304 119.145055,294.581586 C119.664835,290.775859 120.777363,287.124758 122.289451,283.616167 C123.620659,280.527401 124.605495,277.279956 126.415385,274.399559 C126.759341,273.852423 127.331868,273.365419 127.314505,272.392731" id="Fill-1" fill-opacity="0.9"></path>
                <path d="M89.8821978,76.9339207 C91.3804396,76.9735683 92.5424176,76.215859 92.6859341,75.3348018 C92.8804396,74.1453744 92.2120879,73.2290749 90.8804396,72.8480176 C89.7947253,72.5352423 88.7215385,72.1740088 87.6243956,71.9096916 C86.7483516,71.7004405 85.8459341,71.6277533 85.350989,72.6563877 C84.9065934,73.5792952 85.1076923,74.7555066 85.9989011,75.30837 C87.2912088,76.1079295 88.6549451,76.8215859 89.8821978,76.9339207 M70.9175824,164.002203 C72.6483516,164.131718 74.2881319,163.924229 74.6364835,162.614097 C75.5325275,159.244493 76.2131868,155.826652 77.0536264,152.446035 C78.0083516,148.605947 78.9586813,144.764317 79.9661538,140.938106 C80.1701099,140.163216 80.0046154,139.873789 79.236044,139.793612 C73.7175824,139.217401 69.0593407,138.012996 64.1958242,135.351542 C63.2525275,134.835242 62.5624176,135.039868 62.4074725,135.955286 C62.1059341,137.736344 61.4725275,139.421586 61.0452747,141.165419 C59.7287912,146.538326 58.5512088,151.948678 56.9232967,157.240969 C56.6446154,158.146696 56.7734066,158.890969 57.4751648,159.538546 C60.0773626,161.939427 63.5518681,162.929736 66.9793407,163.402863 C67.8314286,163.520485 69.4092308,163.889427 70.9175824,164.002203 M66.7514286,193.797797 C65.0731868,193.705066 63.4296703,194.067181 61.7257143,193.940529 C56.2945055,193.537004 51.3316484,191.972467 46.6189011,189.155947 C43.2276923,187.129075 41.0048352,184.320485 39.252967,180.955507 C38.9373626,180.349119 38.8632967,179.736344 39.0945055,179.049119 C41.0945055,173.105066 43.0202198,167.129075 44.5413187,161.049339 C46.0013187,155.214317 48.0501099,149.545374 49.5336264,143.720264 C52.1876923,133.300661 54.9764835,123.009251 58.0248352,112.695815 C58.4428571,111.281278 59.0903297,109.965859 59.6287912,108.603304 C60.143956,107.299559 61.3107692,106.853524 62.452967,106.361454 C65.0312088,105.251101 67.7327473,104.614758 70.5208791,104.418502 C72.058022,104.310573 72.8630769,103.514097 73.3821978,102.143172 C74.3193407,99.6682819 75.0593407,97.1334802 75.7296703,94.5814978 C77.5547253,87.6317181 79.3173626,80.6656388 81.110989,73.7070485 C81.4158242,72.5264317 81.2764835,71.2114537 82.2683516,70.2334802 C84.250989,68.2797357 86.6738462,68.2753304 89.1481319,68.6762115 C91.6024176,69.0748899 93.6542857,70.3348018 95.4079121,72.061674 C96.1817582,72.8237885 96.467033,73.8215859 96.22,74.8942731 C95.5786813,77.6806167 94.9793407,80.4797357 94.2261538,83.2361233 C92.1527473,90.8237885 90.1,98.4143172 88.5538462,106.13304 C88.4184615,106.809692 88.5516484,107.240749 88.9958242,107.799119 C90.5292308,109.726211 92.6718681,111.045815 94.0828571,113.090308 C95.3912088,114.986344 96.3094505,116.908811 95.7224176,119.331278 C93.5210989,128.413436 91.6364835,137.850441 89.0635165,146.956828 C87.1512088,153.724449 85.3749451,160.530837 83.7716484,167.378634 C82.2312088,173.957269 81.2971429,180.770925 79.3786813,187.247577 C78.889011,188.900661 77.861978,190.150881 76.6892308,191.324229 C76.5393407,191.474229 76.3345055,191.628414 76.1358242,191.660352 C73.3123077,192.114758 70.7189011,193.490969 67.8448352,193.7337 C67.4810989,193.764317 67.116044,193.776872 66.7514286,193.797797" id="Fill-2"></path>
                <path d="M248.378022,165.396476 C248.395604,165.621145 248.367033,165.772907 248.41978,165.888767 C249.393407,168.035022 250.410989,170.230176 252.430769,171.540749 C254.178022,172.67489 256.147253,173.267841 258.195604,172.582379 C260.786813,171.716079 261.657143,169.502203 262.725275,167.231498 C262.903297,166.852863 263.263736,166.395374 262.942857,166.007489 C262.584615,165.574229 262.063736,165.888987 261.606593,165.978855 C258.989011,166.494273 256.369231,166.913216 253.674725,166.84163 C251.8,166.79163 250.151648,166.070705 248.378022,165.396476 M270.901099,167.809031 C269.586813,170.087225 269.030769,172.373789 269.149451,174.799559 C269.186813,175.58304 269.351648,176.419824 269.859341,177.077533 C273.268132,181.491189 281.208791,180.122247 285.575824,178.072687 C285.786813,177.973568 286.145055,177.961013 286.074725,177.61696 C286.017582,177.3337 285.712088,177.238767 285.454945,177.260132 C282.503297,177.507269 279.492308,176.321145 277.059341,174.727974 C275.87033,173.949339 274.808791,173.04163 273.89011,171.957269 C273.52967,171.532819 270.679121,168.192291 270.901099,167.809031 M255.723077,186.741189 C255.061538,186.814978 254.415385,186.839427 253.771429,187.047797 C251.254945,187.860573 249.386813,189.49141 247.865934,191.588767 C247.696703,191.822026 247.426374,192.029075 247.584615,192.358811 C247.753846,192.707489 248.098901,192.604405 248.364835,192.553524 C254.307692,191.419383 261.804396,195.569163 265.338462,200.15859 C266.028571,201.055286 266.791209,201.897577 267.540659,202.745595 C267.687912,202.912335 267.848352,203.231057 268.162637,203.039207 C268.384615,202.901982 268.298901,202.655066 268.263736,202.437885 C267.479121,197.719163 266.193407,193.252643 262.874725,189.551542 C260.89011,187.337445 258.472527,186.729075 255.723077,186.741189 M298.863736,157.094053 C298.736264,164.811894 297.810989,172.675771 296.057143,180.258811 C294.30989,187.805507 292.043956,195.616079 288.876923,202.692952 C288.101099,204.429515 286.934066,205.785463 285.221978,206.629075 C278.232967,210.071145 270.916484,212.53326 263.296703,214.147137 C260.043956,214.836123 256.76044,214.879956 253.476923,215.034802 C251.250549,215.139868 249.562637,214.282159 248.002198,212.493172 C243.868132,207.754405 241.832967,202.037445 240.07033,196.221806 C238.052747,189.564097 238.254945,182.493612 239.292308,175.681057 C240.215385,169.612115 241.391209,163.582819 242.762637,157.6 C243.969231,152.336564 244.764835,146.643172 247.331868,141.830396 C248.07033,140.442731 248.325275,140.342952 249.683516,141.085242 C252.545055,142.65022 255.175824,144.56696 258.151648,145.914978 C261.296703,147.338106 264.56044,148.489207 267.892308,149.387665 C277.582418,152.001982 287.01978,151.628194 296.920879,151.296035 C298.404396,151.246476 298.848352,151.669824 298.868132,153.135463 C298.887912,154.448899 298.885714,155.769383 298.863736,157.094053" id="Fill-3"></path>
                <path d="M222.358242,160.219163 C221.52967,158.124009 217.930769,156.746035 215.894066,156.524009 C211.237363,156.01652 208.974945,162.518943 209.004396,166.236344 C209.007912,166.684361 208.768791,167.301101 209.317582,167.518943 C209.894286,167.747797 210.459341,167.43326 210.888571,167.010573 C211.460879,166.447357 211.992308,165.842511 212.546374,165.260132 C213.963297,163.770485 215.476484,162.48304 217.452967,161.688546 C218.956044,161.084361 220.87033,160.979295 222.358242,160.219163 M193.223736,179.315419 C193.236703,180.424229 193.358242,181.534361 193.518901,182.596696 C193.699121,183.789207 193.954945,184.972247 194.231429,186.146916 C194.333407,186.579075 194.64044,187.005947 195.116703,187.020044 C195.671868,187.036344 195.511648,186.454185 195.536923,186.171586 C195.993846,181.065639 199.045495,176.327753 203.203956,173.423348 C203.529231,173.196256 204.026374,173.173568 203.898681,172.496256 C203.781319,171.873128 203.472527,171.65022 202.929231,171.507709 C201.641099,171.169824 200.334066,171.123568 199.012967,171.130837 C196.515165,171.144493 194.493187,173.204405 193.75011,175.457489 C193.345055,176.685903 193.208132,177.999559 193.223736,179.315419 M208.176484,193.295815 C207.518242,193.295815 206.85978,193.281938 206.202198,193.300881 C205.800659,193.312335 205.366374,193.326652 205.226813,193.827753 C205.088571,194.323568 205.52044,194.445374 205.808132,194.632819 C206.236703,194.912115 206.681978,195.167621 207.132308,195.410793 C210.296264,197.118282 213.734286,197.756608 217.27011,197.819604 C219.18967,197.853744 221.118681,197.626872 222.912088,196.787004 C226.03956,195.321366 227.204396,192.54185 227.771429,189.406608 C228.367033,186.126432 227.404396,183.00859 226.635165,179.878855 C226.553846,179.550881 226.314286,179.355507 226.004396,179.373128 C225.610989,179.395374 225.654945,179.785683 225.591209,180.047577 C224.969231,182.544934 224.182418,184.98348 222.843956,187.194934 C221.868132,188.804405 220.685714,190.181718 218.929451,191.080396 C215.528132,192.822026 211.84,192.923568 208.176484,193.295815 M236.237363,191.596916 C236.371429,195.615639 235.661538,199.827093 234.641758,204.019604 C234.032967,206.526872 232.652747,208.050881 230.23956,208.960132 C225.857143,210.610352 221.261538,211.621586 216.645055,212.339207 C214.281758,212.706388 211.906813,212.994493 209.528791,213.246256 C207.424835,213.468943 205.247473,214.00815 203.229011,213.212775 C200.846374,212.273789 198.792747,211.068943 197.066374,208.90837 C189.031209,198.853084 182.830769,187.69978 176.179341,176.724449 C175.182418,175.079736 175.64,173.18348 177.286813,172.164978 C179.528132,170.778855 181.812088,169.45815 184.01033,168.007048 C189.205495,164.577093 193.623077,160.10793 197.405714,155.181498 C200.260879,151.462996 202.861538,147.532819 204.941978,143.323348 C207.154725,138.846476 208.66989,133.990088 210.234945,129.255066 C210.521538,128.387885 211.105495,128.155727 211.706154,128.503304 C215.694286,130.811013 217.923956,135.221145 220.153846,139.07489 C227.830769,152.347357 234.848352,166.226432 235.984615,181.853304 C236.059341,182.872247 236.107692,183.893172 236.127473,184.914537 C236.171429,187.037665 236.292308,189.161674 236.237363,191.596916" id="Fill-4" fill-opacity="0.7"></path>
                <path d="M153.470549,99.3334802 C153.502857,97.6352423 152.129011,95.9387665 150.46967,95.6081498 C146.300879,94.7777533 141.374945,99.0867841 140.917802,101.95 C140.667473,103.520485 142.462637,106.190529 144.184176,104.89978 C145.58967,103.846256 146.191648,102.312775 147.995385,101.644493 C148.789011,101.350441 149.350769,102.02511 149.995165,102.324229 C150.382637,102.503965 150.768571,102.495374 151.171209,102.394053 C152.673626,102.015859 153.438681,101.001762 153.470549,99.3334802 M162.251648,122.517401 C160.831209,122.548899 159.92044,122.842511 159.404835,123.406608 C156.150769,126.965639 154.692967,131.151982 154.977143,135.969604 C155.033187,136.922687 155.374725,137.618722 156.314725,137.872247 C157.297802,138.137445 157.962418,137.705066 158.503956,136.853084 C159.323297,135.564317 159.807912,134.163216 160.213846,132.709471 C160.686154,131.018282 161.449451,129.507709 162.988352,128.495595 C163.62989,128.073568 164.163956,127.503304 164.607473,126.866079 C165.262198,125.925771 165.488352,124.86674 164.949451,123.854846 C164.406593,122.835683 163.388352,122.4837 162.251648,122.517401 M168.29011,100.439427 C168.201099,99.8277533 168.234945,98.9777533 167.655165,98.2634361 C166.547253,96.8984581 165.082418,96.4889868 163.452308,97.1372247 C161.818681,97.7867841 160.919341,99.0491189 161.490989,101.021145 C162.091429,103.09163 161.166593,104.261233 159.929451,105.503524 C157.091209,108.353524 161.657582,114.133921 164.687692,111.906167 C165.777363,111.104846 165.641758,109.788546 165.428352,108.561674 C165.05978,106.44141 165.371209,104.557489 167.254725,103.19141 C168.103516,102.575771 168.306813,101.649339 168.29011,100.439427 M131.441319,142.286564 C131.344176,145.684581 133.605055,148.140529 136.951429,148.272026 C140.338242,148.404846 143.618462,145.530837 143.597582,142.327974 C143.58,139.634361 141.32,135.518722 137.713846,135.471366 C134.277363,135.426211 131.553187,138.376432 131.441319,142.286564 M179.832308,113.050441 C179.984176,117.039207 179.559341,120.565419 178.871648,124.05859 C178.049231,128.237225 175.908132,131.928414 173.372527,135.290088 C168.287253,142.031718 162.810989,147.464978 155.76022,152.178414 C152.86044,154.11674 149.710769,155.287225 146.386374,155.872247 C140.482418,156.911454 134.100879,155.918062 129.094725,152.504405 C124.623736,149.455507 119.667033,142.745374 121.92022,136.976652 C122.806813,134.706828 123.715604,132.385242 126.183297,131.249339 C127.590549,130.601542 129.115165,130.694934 130.586154,130.460793 C131.958022,130.242291 133.347253,130.137445 134.724835,129.953084 C136.018901,129.779956 137.048571,129.112555 137.9,128.144493 C138.82967,127.087445 138.672747,126.332599 137.348571,125.819824 C136.775604,125.598018 136.147033,125.49185 135.533407,125.409912 C133.377802,125.122026 131.344615,124.414758 129.324615,123.653304 C127.570549,122.992291 126.871648,121.946916 126.935604,120.062555 C126.995824,118.289427 127.021099,116.707048 127.585934,115.002643 C128.799341,111.34141 129.657363,107.618282 131.437802,104.173789 C133.752967,99.6949339 136.766593,95.7746696 140.441978,92.3422907 C141.358681,91.4861233 142.362857,90.7918502 143.426813,90.1279736 C147.44989,87.6180617 152.228352,86.1090308 156.958022,85.8372247 C161.732967,85.5629956 166.450989,87.1147577 170.251648,89.9975771 C177.947033,95.8348018 179.484615,103.913656 179.832308,113.050441" id="Fill-5" fill-opacity="0.9"></path>
                <path d="M45.3953846,48.5528634 C44.3481319,48.5286344 43.8525275,48.6828194 43.7410989,49.154185 C43.5569231,49.9317181 44.212967,50.2400881 44.6340659,50.592511 C47.4885714,52.9757709 50.8556044,54.4933921 54.2048352,55.7400881 C57.6226374,57.0132159 60.7175824,57.4493392 64.3107692,57.685022 C64.4334066,57.6938326 64.5628571,57.7004405 64.6723077,57.6453744 C65.0028571,57.4757709 64.8608791,56.969163 64.641978,56.6696035 C63.1320879,54.5969163 59.8221978,53.3480176 57.58,52.2863436 C54.890989,51.0110132 52.0830769,50.0154185 49.1883516,49.3281938 C47.9285714,49.0286344 46.7002198,48.6013216 45.3953846,48.5528634 M40.6703297,101.372907 C40.9441758,101.356388 41.0545055,101.355727 41.1630769,101.342511 C45.0584615,100.867621 48.5595604,99.1099119 52.229011,97.9030837 C52.9993407,97.6497797 53.1903297,96.9396476 52.9846154,96.1711454 C52.7061538,95.1306167 51.8584615,95.027533 50.9859341,95.0140969 C47.1248352,94.9555066 43.3184615,95.5030837 39.8406593,93.2596916 C36.1235165,90.861674 32.5178022,88.0125551 29.801978,84.4856828 C29.4815385,84.0696035 29.241978,83.4162996 28.5292308,83.8118943 C27.9153846,84.1528634 28.0496703,84.7522026 28.1997802,85.2845815 C28.3076923,85.6674009 28.4773626,86.0464758 28.6883516,86.384141 C29.2707692,87.315859 30.0210989,88.164978 30.4685714,89.1539648 C31.7367033,91.9577093 33.7608791,94.2345815 35.5221978,96.6918502 C36.3087912,97.7894273 37.2340659,98.7938326 38.1542857,99.7865639 C38.878022,100.567401 39.7775824,101.115419 40.6703297,101.372907 M69.9494505,74.3590308 C70.0312088,78.2995595 70.4707692,82.027533 70.3945055,85.9623348 C70.3672527,87.3627753 70.68,90.3088106 70.3202198,91.6610132 C69.8327473,93.4927313 70.0441758,94.0933921 68.3424176,94.9112335 C64.4494505,96.7819383 58.021978,99.4522026 54.0659341,101.18304 C51.1534066,102.457489 48.1549451,103.536123 45.1865934,104.680396 C44.4437363,104.96674 43.9716484,105.367181 43.5694505,106.143612 C41.0301099,111.044053 39.6646154,116.325991 38.3531868,121.631278 C38.0153846,122.998458 38.0542857,124.402203 38.0947253,125.795154 C38.136044,127.214097 39.372967,127.736784 40.3074725,128.31652 C42.2586813,129.527313 43.8032967,131.200661 45.5681319,132.617621 C45.9659341,132.937004 46.4793407,133.40022 46.123956,134.021806 C45.8035165,134.582159 45.1947253,134.747797 44.5837363,134.640749 C40.1778022,133.869604 35.8125275,132.835903 31.5643956,131.427093 C27.7525275,130.163216 23.5076923,128.95859 20.432989,126.25837 C20.0683736,125.938106 20.0030989,125.510573 20.123978,125.047137 C20.249033,124.568282 20.612989,124.479075 21.0391429,124.4163 C22.4197802,124.213216 23.7782418,124.292731 25.1687912,124.44163 C26.8338462,124.620044 28.5294505,124.525551 30.2118681,124.520705 C30.7021978,124.519163 30.9597802,124.122247 31.2263736,123.761674 C33.1189011,121.202643 33.7795604,118.199339 34.3367033,115.156388 C34.5610989,113.930617 34.721978,112.686564 35.0468132,111.487665 C35.6046154,109.428634 35.4835165,107.340529 35.4753846,105.253965 C35.4703297,103.997577 34.9973626,102.936344 34.2096703,101.938106 C30.2430769,96.9123348 26.303956,91.8647577 22.3912088,86.7969163 C20.7028791,84.6101322 17.6589231,81.1687225 17.763978,78.2687225 C17.8195824,76.746696 19.1567253,75.4515419 19.9630989,74.2599119 C26.2142857,65.0132159 31.7459341,55.19163 39.8595604,47.3942731 C40.6927473,46.5947137 41.0142857,45.8942731 43.7092308,45.8942731 C52.4252747,45.8942731 61.9551648,49.2048458 68.2010989,55.2555066 C68.4118681,55.4603524 68.3589011,55.7290749 68.4054945,55.9757709 C69.4243956,61.3898678 69.9265934,73.2665198 69.9494505,74.3590308" id="Fill-6" fill-opacity="0.9"></path>
                <path d="M30.8749451,187.176211 C30.2358242,186.952203 29.3892308,187.209031 29.2749451,187.869604 C29.2156044,188.211233 29.3635165,188.551101 29.5079121,188.8663 C30.4389011,190.898899 31.3850549,192.956388 32.7975824,194.687885 C33.4613187,195.501542 38.8382418,199.979515 38.9584615,197.120485 C39.0274725,195.478194 36.0217582,194.082379 35.0837363,193.029515 C34.0156044,191.830396 33.1382418,190.468722 32.4116484,189.035903 C32.0738462,188.369604 31.7312088,187.646035 31.0852747,187.272467 C31.0189011,187.233921 30.9483516,187.201982 30.8749451,187.176211 M25.1712088,188.64978 C24.8876923,188.542291 24.5725275,188.535242 24.3147253,188.687004 C23.6683516,189.067401 23.8184615,190.03304 24.0663736,190.74185 C24.5753846,192.197357 25.14,193.63304 25.7584615,195.045154 C26.3617582,196.422247 27.0263736,197.792952 27.9934066,198.942731 C29.187033,200.362115 30.6437363,200.952643 32.3547253,201.501322 C33.0593407,201.726872 33.883956,201.252203 33.4202198,200.43304 C33.221978,200.082819 32.8584615,199.86652 32.5246154,199.642291 C29.3175824,197.486564 27.901978,193.567401 26.3142857,190.039648 C26.1265934,189.622467 25.9243956,189.194493 25.5797802,188.894273 C25.4610989,188.790749 25.3204396,188.706388 25.1712088,188.64978 M59.1949451,214.164317 C60.7061538,214.196916 62.2248352,214.060132 63.4032967,213.446476 C63.8094505,213.235022 64.2004396,212.925551 64.3373626,212.488106 C64.4742857,212.050441 64.2463736,211.48304 63.7967033,211.397797 C63.6698901,211.373568 63.5391209,211.388326 63.4105495,211.402423 C58.5767033,211.930396 53.9441758,210.981057 49.229011,210.043612 C48.001978,209.799559 47.3848352,210.014317 46.8459341,211.14978 C46.4553846,211.972247 46.6252747,212.263656 47.3953846,212.459251 C50.1252747,213.152643 52.9026374,213.682379 55.7116484,213.914317 C56.7430769,213.999339 57.9663736,214.137885 59.1949451,214.164317 M60.6349451,208.198458 C61.4997802,208.170485 62.8116484,208.138546 64.1224176,208.071806 C65.429011,208.005066 65.8501099,207.411674 66.1674725,206.34141 C66.7663736,204.321366 64.663956,205.129295 63.2597802,205.196916 C59.4375824,205.381057 55.267033,205.370264 51.5830769,204.201101 C51.0373626,204.027753 50.7424176,204.138767 50.4742857,204.679295 C49.778022,206.08326 49.9202198,206.459251 51.4292308,206.97489 C54.2718681,207.946035 57.2076923,208.228194 60.6349451,208.198458 M41.6520879,239.965859 C41.3474725,239.557709 41.2162637,239.3337 41.0404396,239.153744 C38.716044,236.771366 36.5894505,234.186784 33.9703297,232.107269 C33.4479121,231.692511 32.7483516,230.848238 32.1013187,231.617181 C31.4373626,232.406388 32.4406593,232.917841 32.9151648,233.371586 C36.1178022,236.434802 38.8978022,239.881498 41.8417582,243.178414 C42.2125275,243.593392 42.4426374,244.145595 43.1232967,243.957489 C43.7914286,243.772907 43.9208791,243.190529 44.070989,242.603304 C44.5881319,240.576652 45.172967,238.578414 46.3386813,236.797577 C46.8167033,236.067401 47.2098901,235.27489 47.5773626,234.480837 C47.8742857,233.838987 48.1202198,233.099119 47.3720879,232.602863 C46.6745055,232.139868 46.0868132,232.597797 45.6514286,233.107269 C44.8681319,234.023568 44.1189011,234.969824 43.5942857,236.076652 C43.0153846,237.298018 42.3885714,238.496696 41.6520879,239.965859 M62.8641758,224.737004 C54.2586813,224.356828 45.327033,225.990969 36.6696703,224.714537 C33.1279121,224.192291 30.0074725,222.946476 28.5635165,219.229295 C28.2556044,218.437004 28.2857143,217.891189 29.0094505,217.330396 C32.0010989,215.011894 34.5659341,212.234802 37.2250549,209.557489 C39.3663736,207.401542 41.9068132,205.663656 43.8474725,203.295815 C44.5918681,202.387665 45.387033,201.557048 46.3615385,200.890308 C46.7885714,200.598238 47.2136264,200.135242 46.7967033,199.60022 C46.3896703,199.078194 45.8472527,199.364317 45.4296703,199.681057 C44.7604396,200.188326 44.1347253,200.752863 43.4791209,201.278634 C40.9287912,203.324229 38.1450549,205.044934 35.46,206.901762 C32.9641758,208.627753 30.8389011,210.731278 28.4914286,212.642952 C27.6312088,213.343612 26.7995604,214.027533 25.6252747,214.117621 C24.010989,214.24163 22.9059341,213.41696 22.0158242,212.212115 C20.1496703,209.686564 19.0298901,206.449559 17.6892308,203.626211 C15.716044,199.470925 13.7531868,195.310793 11.7661538,191.162115 C11.5312088,190.671806 11.187033,190.232159 10.8756044,189.781278 C10.6738462,189.489427 10.3885714,189.284361 10.036044,189.491189 C9.68615385,189.696256 9.8978022,190.027753 9.97802198,190.28326 C10.6914286,192.553304 11.3342857,194.850881 12.1648352,197.077753 C13.8320879,201.546916 14.9652747,206.195374 16.7575824,210.619824 C17.5940659,212.683921 18.5498901,214.673128 19.9632967,216.426211 C20.7896703,217.451322 21.7114286,218.301542 22.9674725,218.727974 C23.5252747,218.917401 23.858022,219.193833 24.012967,219.834581 C24.8753846,223.396476 27.3518681,225.500661 30.5995604,226.768062 C32.8261538,227.637004 35.216044,227.931057 37.5705495,228.210573 C42.4367033,228.787885 47.3301099,228.879956 52.2272527,228.695374 C52.7395604,228.676211 53.2525275,228.661013 53.7648352,228.666079 C55.4901099,228.68348 56.0162637,229.648238 55.121978,231.185242 C51.2,237.927313 48.2496703,245.197137 45.818022,252.599559 C45.2514286,254.324449 43.8382418,256.249559 42.5052747,254.715198 C38.9261538,250.595154 35.3054945,246.436344 31.8810989,242.573348 C28.52,238.781718 25.3628571,232.609471 22.2569231,228.631498 C20.7608791,226.714978 20.3358242,224.860352 21.1035165,222.634141 C21.2830769,222.114097 21.3356044,221.674449 20.5931868,221.485022 C20.0740659,221.352643 19.5841758,221.081498 19.0652747,220.9 C17.9202198,220.499559 17.0995604,219.72489 16.5325275,218.611674 C11.8687912,209.453524 8.81934066,199.464978 5.82615385,189.667181 C5.7832967,189.526872 5.7410989,189.385683 5.68615385,189.25 C4.91098901,187.328194 5.19648352,186.751322 7.24813187,186.151542 C9.39010989,185.52533 11.5986813,185.286123 13.7894505,184.917401 C16.6276923,184.439868 19.4452747,183.743172 22.2848352,183.209692 C26.0931868,182.494273 29.8993407,181.770264 33.667033,180.862115 C34.5156044,180.657709 34.8048352,181.17511 35.1973626,181.754405 C38.1501099,186.114758 40.4646154,190.160352 45.0956044,192.965419 C53.6707692,198.159692 64.6,199.529515 74.198022,196.659251 C75.3446154,196.31652 76.1417582,197.085242 75.8197802,198.278634 C74.5914286,202.831278 73.0815385,207.3 71.7057143,211.80837 C70.4843956,215.810573 69.869011,220.709031 67.1448352,224.035463 C66.6643956,224.622026 66.2125275,224.89978 65.4956044,224.856608 C64.6191209,224.803524 63.7413187,224.775551 62.8641758,224.737004" id="Fill-7" fill-opacity="0.8"></path>
                <path d="M114.998901,16.4096916 C115.045275,10.7202643 115.472088,2.65418502 121.131209,1.59911894 C126.804835,0.54185022 133.517582,-0.742290749 139.131429,0.975770925 C140.096703,1.27092511 140.508791,2.98678414 140.189231,4.36784141 C138.251648,12.746696 130.592088,21.2400881 124.223077,26.6674009 C119.116264,31.0176211 112.802637,33.5132159 106.722637,36.160793 C103.416484,37.5991189 100.219121,38.9008811 96.8145055,40.061674 C87.3158242,43.3017621 78.0881319,45.5484581 68.0312088,45.7819383 C64.2465934,45.8700441 59.7228571,46.2290749 56.1083516,44.938326 C54.1463736,44.2400881 51.6479121,43.7555066 50.3268132,42.0044053 C49.3962637,40.7709251 49.3556044,39.7356828 50.4556044,38.5859031 C53.8778022,35.0066079 57.3672527,31.4801762 61.3426374,28.5176211 C63.1257143,27.1894273 74.0830769,18.2004405 75.8564835,19.9317181 C76.3252747,20.3876652 76.2556044,20.9427313 75.9835165,21.4559471 C74.6448352,23.9823789 74.2951648,26.9317181 74.6701099,29.7444934 C74.8068132,30.7687225 75.9024176,36.5837004 77.4595604,36.215859 C77.9452747,36.0991189 77.8793407,35.6806167 77.8461538,35.314978 C77.5287912,31.8127753 78.0237363,28.2973568 78.6375824,24.8568282 C79.0257143,22.6806167 78.9914286,17.8612335 81.0589011,16.5991189 C84.8281319,14.2951542 89.2698901,11.6453744 93.5241758,10.5132159 C94.3753846,10.2885463 94.9503297,11.0264317 94.5751648,11.8568282 C94.2452747,12.5859031 93.8184615,13.284141 93.3626374,13.9449339 C91.5892308,16.5220264 91.269011,19.7246696 91.8021978,22.7444934 C92.0147253,23.9493392 93.3815385,30.0374449 95.1556044,29.8920705 C95.7527473,29.8414097 95.5731868,28.8436123 95.58,28.2863436 C95.6556044,22.0066079 96.4626374,15.6079295 98.9250549,9.68942731 C99.3810989,8.59251101 100.21033,7.66299559 101.531429,7.4030837 C104.582637,6.8061674 108.468791,4.85462555 111.523516,5.07929515 C112.505275,5.14977974 112.79033,5.74229075 112.293846,6.57929515 C110.860879,8.99559471 110.461538,11.8810573 111.115385,14.6101322 C111.468571,16.0814978 112.122198,17.4339207 112.956264,18.6894273 C113.395604,19.3502203 114.937363,21.4096916 114.977363,19.4933921 C114.995824,18.6145374 114.989451,17.561674 114.998901,16.4096916" id="Fill-8"></path>
                <path d="M255.914286,80.2303965 C254.978022,80.6535242 254.151648,81.5337004 253.646154,82.1579295 C252.69011,83.1343612 252.967033,83.5632159 252.301099,82.7156388 C250.982418,81.0429515 250.804396,81.5433921 250.173626,81.9801762 C249.301099,82.585022 249.01978,82.5101322 250.558242,84.3477974 C251.228571,85.1497797 251.12967,84.5348018 250.307692,85.3209251 C249.657143,85.8740088 248.283516,86.5995595 247.637363,87.1303965 C246.89011,87.5713656 246.723077,87.8213656 246.327473,86.9220264 C246.202198,86.6105727 245.738462,85.9634361 245.538462,85.6625551 C245.096703,85.0044053 245.096703,85.0044053 244.301099,85.6257709 C243.898901,85.9409692 243.637363,85.877533 243.789011,86.3328194 C243.940659,86.7828194 244.272527,87.6861233 244.492308,88.1011013 C245.054945,89.1702643 244.934066,88.819163 243.962637,89.3814978 C243.127473,89.8634361 241.707692,90.1823789 240.876923,90.6484581 C240.250549,90.9997797 240.250549,90.9997797 239.852747,89.9696035 C239.734066,89.3372247 239.538462,89.2286344 239.325275,88.439207 C239,88.1942731 239.087912,87.8189427 238.714286,88.0189427 C238.347253,88.2160793 237.138462,88.5165198 237.178022,88.8955947 C237.232967,89.4052863 237.584615,90.3129956 237.742857,90.7940529 C238.032967,91.6678414 238.16044,91.8418502 237.742857,92.0528634 C236.828571,92.5162996 235.345055,92.7839207 234.454945,93.3070485 C234.206593,93.4526432 233.681319,93.4473568 233.885714,93.9310573 C234.059341,94.3455947 234.472527,94.0980176 234.764835,94.0484581 C235.485714,93.9257709 237.263736,93.5605727 237.98022,93.4044053 C238.496703,93.2431718 238.496703,93.2431718 239.041758,94.8006608 C239.516484,96.3114537 239.668132,95.926652 240.402198,95.8180617 C241.112088,95.7129956 241.769231,95.5374449 241.285714,94.5088106 C240.632967,92.5859031 240.356044,92.8927313 243.241758,91.822467 C243.481319,91.7339207 244.641758,91.0885463 244.876923,90.9856828 C245.604396,90.7812775 245.604396,90.7812775 246.523077,92.2911894 C246.617582,92.4473568 246.938462,93.0861233 247.059341,93.2207048 C247.791209,93.0740088 248.353846,92.8777533 248.991209,92.1936123 C248.786813,91.4894273 248.230769,90.6405286 247.850549,89.934141 C247.547253,89.372467 247.606593,89.5114537 248.134066,89.1405286 C249.059341,88.4896476 250.795604,87.5257709 251.538462,86.6475771 C252.432967,85.8455947 252.182418,85.4151982 253.501099,86.764978 C254.553846,88.0863436 254.327473,87.5220264 255.257143,86.7356828 C256.457143,85.796696 255.914286,86.1198238 255.07033,85.3103524 C254.885714,85.0376652 254.063736,84.3257709 253.821978,84.1240088 C253.821978,84.1240088 254.382418,83.5286344 254.76044,83.038326 C255.320879,82.3092511 255.734066,81.35837 255.914286,80.2303965 M264.894505,65.6696035 C260.676923,64.8634361 256.608791,65.1057269 252.571429,65.8127753 C238.797802,68.2202643 225.723077,77.19163 217.768571,88.6264317 C217.226374,89.4059471 216.612527,90.1352423 216.038242,90.8929515 C215.883077,91.0975771 215.707033,91.3433921 215.91011,91.5845815 C216.137802,91.8555066 216.387473,91.6651982 216.571648,91.4927313 C218.826154,89.3812775 221.56044,87.7374449 224.004396,85.8526432 C226.718681,83.7623348 229.503297,81.7643172 232.351648,79.8632159 C241.6,73.6894273 251.287912,68.2400881 262.492308,66.6101322 C263.305495,66.4911894 264.103297,66.2709251 264.894505,65.6696035 M233.250549,103.624229 C231.773626,103.625771 230.287912,103.546256 228.804396,103.387004 C225.591209,103.042511 222.252747,102.363216 219.13033,101.305507 C215.849011,100.194273 213.558462,98.6475771 210.816484,96.6226872 C210.133407,96.1182819 210.14,95.2288546 210.107912,94.4953744 C209.973407,91.4200441 210.295604,88.3570485 211.281099,85.453304 C215.60022,72.7290749 226.410989,61.339207 239.613187,57.9669604 C249.986813,55.3171806 260.575824,57.6299559 270.081319,62.0594714 C270.887912,62.4361233 271.224176,63.1431718 271.257143,64.0264317 C271.340659,66.2731278 271.243956,68.5396476 270.725275,70.6982379 C267.630769,83.5792952 259.413187,96.2526432 246.685714,101.176652 C242.410989,102.830176 237.828571,103.619383 233.250549,103.624229" id="Fill-9"></path>
                <path d="M20.5188352,134.655947 C20.426967,135.929736 19.8783956,137.053524 19.4148791,138.188987 C17.926967,141.834802 13.3236703,143.240088 10.1625714,140.959471 C8.4696044,139.738106 7.53048352,137.952203 7.16147253,135.88326 C7.09026374,135.485022 7.10520879,135.044493 6.73136264,134.709912 C5.86828571,136.837665 6.92059341,140.987665 8.65158242,142.472026 C10.8192747,144.331057 15.5658681,144.770705 17.844989,143.259912 C19.621033,142.082599 21.8058681,138.075991 20.5188352,134.655947 M6.19883516,159.397577 C6.08608791,161.061013 6.48564835,162.949339 6.51465934,164.857269 C6.52476923,165.514978 6.79773626,165.626652 7.41553846,165.530396 C16.0656484,164.182819 24.5536264,161.819163 33.1949451,160.340088 C34.3538462,160.14163 35.0501099,159.622907 35.1938462,158.302643 C35.436044,156.081278 35.8701099,153.881057 36.2250549,151.672247 C36.4274725,150.412775 35.8026374,149.696035 34.4971429,149.860793 C25.7986813,150.957489 17.5922418,153.791189 9.05861538,155.598678 C6.19817582,156.204405 6.20037363,156.214758 6.19883516,159.397577 M0.0944395604,151.474449 C0.224549451,147.806828 -0.267978022,142.752203 0.222791209,138.329736 C0.530263736,135.560132 0.715318681,132.854626 1.06279121,130.090088 C1.22059341,128.835903 2.68476923,126.672026 3.91268132,126.967841 C5.33312088,127.310132 5.65114286,127.614758 7.1183956,127.789207 C7.67949451,127.855947 8.02169231,127.621586 8.43224176,127.203304 C8.93663736,126.689648 9.57092308,126.303744 10.2812527,126.164317 C10.6271868,126.096256 12.1843297,126.264317 12.143011,125.66652 C12.0896044,124.894273 11.8882857,124.386564 11.0867473,124.184141 C8.8750989,123.625771 6.83927473,124.898899 4.67751648,124.621366 C3.52037363,124.472687 2.81641758,123.689207 2.80257143,122.672687 C2.78938462,121.697577 3.41246154,120.974449 4.5161978,120.684802 C5.27114286,120.486784 6.00389011,120.450661 6.78125275,120.687225 C8.64542857,121.254846 10.7370769,121.193172 12.5263077,121.990088 C13.7361978,122.529075 14.5023516,123.493612 14.6405934,124.814758 C14.7142198,125.517401 14.8988352,125.87533 15.7047692,125.988767 C17.055978,126.178634 18.3981758,126.783921 19.3313626,127.799339 C20.3056484,128.859471 20.4994945,130.245374 20.9063077,131.576872 C28.0424176,134.935683 36.332967,135.398458 43.38,138.850441 C44.1764835,139.240529 44.2945055,139.620705 44.1037363,140.446476 C42.7131868,146.461233 41.4597802,152.507048 40.043956,158.515859 C38.6782418,164.313216 36.8272527,170.004846 35.6745055,175.85 C35.5817582,176.320044 35.3593407,176.46696 34.8854945,176.564758 C25.7371429,178.451542 16.1641099,179.554185 7.0772967,182.140308 C6.25575824,182.374229 5.31817582,182.5163 4.49773626,182.360793 C3.32586813,182.138546 3.12718681,181.005947 2.87971429,179.994934 C1.85114286,175.79185 1.20938462,169.803084 0.632901099,165.560573 C-0.155450549,159.759031 0.0597142857,158.078414 0.0944395604,151.474449" id="Fill-10" fill-opacity="0.9"></path>
                <path d="M204.896264,21.8942731 C204.738462,21.7819383 204.625495,21.7048458 204.514505,21.6255507 C201.541319,19.4735683 202.429451,19.2885463 200.061319,22.3656388 C199.905714,22.5682819 198.285275,23.9603524 198.951209,25.0726872 C199.903077,26.6629956 199.798462,26.7907489 201.221319,25.3854626 C202.295604,24.345815 203.404835,23.3436123 204.497143,22.3237885 C204.624615,22.2048458 204.735824,22.0682819 204.896264,21.8942731 M254.668132,50.8568282 C254.393407,51.1938326 252.076923,51.0066079 251.63956,51.030837 C249.982418,51.1189427 248.325275,51.2114537 246.67033,51.3237885 C246.004396,51.3678414 245.549451,51.2004405 245.224176,50.6035242 C244.41978,49.1211454 243.663736,47.6057269 242.756044,46.19163 C241.101099,43.6101322 239.540659,40.9603524 237.402198,38.7114537 C235.386813,36.5903084 233.507692,34.2973568 231.210989,32.4977974 C227.731868,29.7731278 224.384615,26.8546256 220.498901,24.6718062 C218.745055,23.6872247 217.305934,22.6365639 215.131209,21.938326 C214.649451,21.784141 214.53033,21.9669604 214.545275,22.3612335 C214.559121,22.7268722 214.853407,22.9185022 215.133407,23.1057269 C219.583956,26.0947137 223.784615,29.4405286 227.395604,33.376652 C230.997802,37.2995595 234.474725,41.3700441 237.257143,45.9845815 C238.213187,47.5682819 239.013187,49.1784141 239.707692,50.8700441 C239.934066,51.4207048 239.87033,51.6453744 239.246154,51.7334802 C234.547253,52.3876652 230.210989,54.4229075 226.345055,57.1255507 C224.410989,58.4757709 222.589011,59.9823789 220.830769,61.5528634 C219.688132,62.5726872 218.491648,63.5418502 217.43011,64.6497797 C216.862857,65.2422907 216.258462,65.8832599 215.840659,66.5947137 C215.504396,67.1674009 214.093626,68.80837 213.421538,69.1762115 C212.474286,69.6938326 212.144835,62.1343612 211.954066,61.1277533 C210.992967,56.0484581 209.768352,51.3590308 206.841319,47.0110132 C205.062198,44.3678414 202.864835,42.0044053 200.344835,40.0572687 C199.07978,39.0792952 197.736703,38.2378855 196.338242,37.4669604 C194.941319,36.6982379 193.637802,35.6585903 192.074945,35.2400881 C190.354066,34.7797357 196.475824,30.1035242 196.986593,29.685022 C197.466154,29.2951542 197.466593,29.0264317 197.043956,28.5462555 C196.223516,27.6145374 195.49956,26.5969163 194.741758,25.6101322 C194.333187,25.0770925 194.416484,24.5286344 194.67033,23.9515419 C195.995385,20.9405286 198.259341,18.4030837 199.89033,15.5550661 C200.394725,14.6762115 200.935385,14.4515419 201.941758,14.8898678 C204.152308,15.8480176 206.388352,16.7621145 208.728571,17.3920705 C209.255165,17.5330396 209.591429,17.4713656 210.008571,17.1365639 C214.698242,13.3656388 213.850769,13.8920705 216.981978,15.2312775 C222.314286,17.5110132 227.373626,20.907489 232.224176,24.0572687 C241.10989,29.8259912 248.50989,35.8964758 255.953846,43.4735683 C256.991209,44.5286344 261.567033,48.5991189 262.156044,50.0859031 C262.742857,51.561674 258.468132,50.8634361 256.868132,50.9471366 C256.138462,50.9845815 255.404396,50.9537445 254.672527,50.9537445 C254.67033,50.9207048 254.67033,50.8898678 254.668132,50.8568282" id="Fill-11" fill-opacity="0.9"></path>
                <path d="M141.023956,51.4757709 C141.278242,50.7665198 141.029011,50.1585903 140.932527,49.5660793 C140.208132,45.1211454 139.157363,40.7995595 135.920879,37.3876652 C134.134505,35.5044053 132.375604,33.5947137 130.071648,32.3039648 C129.350769,31.9008811 128.972527,31.9757709 129.006374,32.8700441 C129.035385,33.6387665 128.994725,34.4295154 129.167473,35.1674009 C130.166813,39.4317181 132.007912,43.314978 134.627912,46.8215859 C136.273626,49.0242291 138.490989,50.4405286 141.023956,51.4757709 M145.318462,52.6211454 C145.338022,54.8105727 144.65011,55.6453744 142.663736,55.9603524 C135.953846,57.030837 129.767912,59.2819383 123.888352,62.8656388 C114.571209,68.5462555 108.821099,77.7643172 104.597363,87.5832599 C102.597363,92.2323789 101.389231,97.0632159 100.371429,101.990308 C100.005055,103.764097 99.5942857,105.563656 99.0149451,107.297357 C98.5663736,108.639207 97.738022,108.896035 96.5696703,108.081278 C95.4241758,107.282599 94.4421978,106.288767 93.4608791,105.299119 C93.0013187,104.835683 92.9437363,104.269383 93.0145055,103.664537 C93.3136264,101.105947 94.1995604,98.672467 94.629011,96.1449339 C95.3885714,91.6744493 96.6287912,87.4105727 98.1487912,83.1669604 C99.5208791,79.3370044 100.753846,75.784141 102.531209,72.1211454 C102.996923,71.160793 104.034066,69.4471366 104.313407,68.4162996 C104.451209,67.9096916 104.195824,68.0704846 103.697363,67.8656388 C102.987253,67.5726872 102.271209,67.2907489 101.578901,66.9603524 C101.17978,66.7687225 100.98022,66.9559471 100.748132,67.2246696 C100.386374,67.6431718 100.326154,68.4823789 99.8437363,68.7577093 C98.5608791,69.4845815 97.1531868,69.5022026 96.0538462,68.4669604 C95.3232967,67.7797357 94.9951648,66.6872247 95.2641758,65.3832599 C95.6408791,63.5550661 95.7268132,61.6189427 97.4261538,60.3854626 C98.518022,59.5947137 100.618681,60.1872247 101.238681,61.438326 C101.351429,61.6651982 101.412747,61.9185022 101.493846,62.160793 C101.778022,63.0088106 101.308132,64.2268722 102.061978,64.7004405 C102.720659,65.1123348 103.649011,65.0903084 104.574945,65.339207 C104.981099,65.4471366 105.161538,65.4317181 105.327253,65.0264317 C106.118901,63.092511 106.934945,61.1696035 107.747033,59.2422907 C107.884615,58.9162996 107.997802,58.6101322 107.556703,58.4295154 C106.178242,57.8656388 104.834945,56.6872247 103.647033,55.8370044 C103.15011,55.4801762 103.10044,55.623348 102.640659,56.1299559 C101.597363,57.2819383 100.401099,57.5440529 99.4186813,56.9823789 C98.058022,56.2048458 97.5052747,54.8414097 98.0582418,53.2907489 C98.5964835,51.7797357 98.8698901,50.8964758 100.084176,49.6872247 C101.299121,48.4779736 102.698242,48.3259912 103.926813,49.2312775 C104.661099,49.7731278 105.243516,51.4185022 104.781319,52.4405286 C104.274066,53.5638767 104.147692,53.6828194 105.041538,54.2180617 C105.943736,54.7599119 107.228791,55.9008811 108.288352,56.2180617 C108.761978,56.3590308 108.962418,56.4052863 109.194505,55.8964758 C110.308132,53.4625551 111.445055,51.0396476 112.623077,48.6365639 C112.915385,48.0396476 112.834066,47.6938326 112.279341,47.3898678 C111.991868,47.2312775 110.815165,46.4295154 110.537802,46.253304 C109.618681,45.6629956 109.811209,45.5374449 108.522418,46.5418502 C107.327033,47.4735683 105.770549,47.0044053 104.613187,45.9251101 C103.529451,44.9118943 103.654505,43.6938326 104.081099,42.4625551 C104.543736,41.1277533 105.478022,40.1409692 106.632527,39.3832599 C107.569011,38.7687225 109.536264,38.969163 110.294286,39.5220264 C111.470549,40.3832599 111.472527,41.3414097 110.951429,42.7907489 C110.656923,43.6079295 110.948352,43.8810573 111.579341,44.3259912 C112.478242,44.9625551 113.179121,45.8744493 113.964615,45.6013216 C114.62967,45.3700441 114.966593,44.1585903 115.425714,43.3678414 C118.532527,38.0198238 122.059121,32.9933921 126.581538,28.7268722 C127.78,27.5947137 129.044835,27.376652 130.481099,28.0991189 C138.933407,32.3524229 143.484176,39.3876652 144.98044,48.5748899 C145.203736,49.9449339 145.217363,51.3502203 145.318462,52.6211454" id="Fill-12" fill-opacity="0.7"></path>
                <path d="M261.540659,120.675551 C261.747253,122.105066 261.391209,123.714097 261.523077,125.328634 C261.567033,125.868943 261.395604,126.377533 260.857143,126.609251 C260.314286,126.842952 259.786813,126.747137 259.325275,126.342952 C256.720879,124.064758 253.749451,122.268502 250.905495,120.315198 C247.648352,118.077093 244.008791,114.744714 241.186813,112.658811 C240.351648,112.042291 239.718681,111.769824 238.749451,112.068943 C238.123077,112.262775 236.424176,112.585683 235.78022,112.576652 C233.806593,112.548678 233.942857,113.674229 233.232967,115.245595 C230.712088,120.821806 228.276923,126.419163 225.23956,131.737885 C224.931868,132.278634 224.687912,132.85815 224.364835,133.388546 C224.101099,133.820485 224.186813,134.603084 223.430769,134.575991 C222.727473,134.550661 222.248352,134.09207 221.865934,133.503744 C220.283516,131.071806 219.002637,128.475551 217.797363,125.847357 C215.58,121.012115 213.545055,116.106388 212.511868,110.847137 C212.312527,109.831938 212.257143,108.813436 212.221758,107.785903 C212.200659,107.168062 212.449451,106.977313 213.010549,107.152863 C217.714725,108.623348 223.118681,108.938106 228.017582,108.831938 C235.342857,108.673128 242.353846,107.06674 248.995604,103.997797 C259.63956,99.0911894 268.749451,90.9720264 272.723077,79.6991189 C272.912088,79.1629956 273.096703,78.6255507 273.237363,78.0726872 C273.659341,76.4339207 274.294505,74.8920705 274.786813,73.2907489 C275.010989,72.5550661 275.318681,71.9052863 276.189011,71.7929515 C277.081319,71.6762115 277.58022,72.2004405 278.052747,72.8744493 C281.584615,77.9096916 285.69011,84.5764317 287.947253,91.0449339 C288.817582,93.5337004 289.852747,95.9048458 290.817582,98.3601322 C291.101099,99.0792952 291.151648,101.571806 291.151648,101.571806 C290.261538,101.473348 288.410989,101.515859 287.595604,101.405727 C282.408791,100.703744 277.206593,100.08348 272.024176,99.3354626 C270.415385,99.1030837 268.843956,98.6312775 267.215385,98.5147577 C266.459341,98.4605727 265.861538,98.5594714 265.323077,99.092511 C264.934066,99.4795154 263.749451,100.548018 263.287912,100.826432 C261.575824,101.85859 262.12967,102.935022 262.059341,104.655066 C261.841758,109.932159 261.712088,115.212555 261.540659,120.675551" id="Fill-13" fill-opacity="0.8"></path>
                <path d="M142.093187,217.794714 C141.735385,218.261674 139.473407,219.636564 140.084615,220.227974 C141.241319,221.346696 143.173626,223.012775 144.312967,224.150661 C144.530769,224.368282 144.782857,225.229075 145.230989,224.487445 C145.562198,223.939207 147.62989,222.970485 146.621758,221.973348 C145.393407,220.75837 142.613407,218.007489 142.093187,217.794714 M149.072967,220.076211 C150.231209,219.546476 150.670769,218.885683 151.286813,217.650881 C151.761319,216.69978 149.187692,214.609471 148.450769,213.843833 C147.198901,212.543612 145.62967,213.951762 144.924176,215.196476 C144.846813,215.332599 144.776044,215.482819 144.789011,215.639207 C144.800659,215.780617 149.072967,220.076211 149.072967,220.076211 M128.413187,237.256608 C128.026374,237.256608 127.441758,237.256388 126.857143,237.256608 C126.044176,237.256608 125.657143,237.619383 125.720659,238.475771 C125.772088,239.167841 125.770549,239.869383 125.722857,240.561674 C125.674505,241.261233 125.90022,241.503304 126.635385,241.534141 C128.290549,241.869604 129.767912,241.578414 132.18967,241.36652 C132.288132,241.392511 132.902857,241.284581 132.985495,241.189427 C133.416703,239.973568 133.068132,238.379295 132.957363,237.256608 C132.054945,237.03326 129.521758,237.286784 128.413187,237.256608 M146.22989,234.172247 C146.21978,233.948018 144.552088,231.957048 144.407473,231.923789 C144.172088,231.870044 144.108352,232.063656 144.001538,232.198899 C138.89033,238.668943 133.737363,245.186123 128.85011,251.823789 C127.218242,254.040088 127.218242,254.040088 128.334066,255.221145 C128.359121,255.247797 129.491648,255.926432 129.517363,255.952203 C129.827692,256.26674 130.103736,256.240749 130.276923,255.830396 C131.974725,252.710573 134.247912,249.91696 136.36044,247.076211 C139.442418,242.932379 142.518022,238.835683 145.806154,234.860573 C145.988791,234.639868 146.110769,234.368722 146.22989,234.172247 M134.299121,221.600881 C133.818242,221.219383 133.28967,220.876432 132.858681,220.437225 C132.423297,219.993612 132.17956,219.918943 131.798901,220.512996 C131.798901,220.512996 125.401319,228.496916 123.721758,230.532819 C119.875165,235.195595 116.511868,239.804846 115.636044,240.968943 C114.656923,242.270925 114.637582,242.220705 115.738681,243.55022 C116.201978,244.109471 116.514505,244.18304 116.994725,243.575551 C117.925714,242.397357 118.901538,241.253744 119.878242,240.112775 C124.716923,234.459692 129.343736,228.639648 133.671429,222.58326 C133.838462,222.349339 133.982198,222.098678 134.299121,221.600881 M107.612308,249.619163 C107.684396,248.305507 108.751648,246.870705 109.58,246.045154 C110.250769,245.376872 110.316044,245.022467 109.578242,244.335903 C107.300879,242.217181 107.226374,242.090969 109.203516,239.726652 C116.126374,231.448899 122.361978,222.522687 129.52989,214.460573 C130.00967,213.920705 131.067692,213.107489 131.363956,212.689207 C131.916484,211.90815 133.518242,213.165859 134.078681,213.842511 C135.357802,215.031057 136.118462,215.544493 137.199121,216.656388 C137.596264,217.144493 137.864615,217.175991 138.303736,216.702203 C139.994286,214.879515 141.762857,213.10793 143.769231,211.631718 C145.583736,210.296476 147.557363,208.906388 149.614725,210.722687 C151.158242,212.085683 152.38022,213.765198 153.956703,215.076872 C156.097363,216.857489 153.74967,220.318943 152.415165,221.742291 C150.832527,223.430176 149.259121,225.114097 147.647033,226.769163 C147.209451,227.218502 147.247473,227.496256 147.593187,227.956388 C148.98967,229.814097 150.745714,231.520485 152.162637,233.407269 C152.552308,233.926432 152.078462,234.320044 151.781538,234.645815 C143.872088,243.324009 137.045055,252.90793 130.626374,262.725551 C130.323516,263.188987 130.136703,263.105727 129.806154,262.782819 C129.072527,262.0663 128.27978,261.409471 127.563077,260.677093 C127.081978,260.185683 126.771868,260.063877 126.304835,260.721586 C125.511209,261.839427 124.826593,263.52467 123.245055,263.448899 C122.084615,263.393612 120.716703,262.285022 120.926813,260.846035 C121.106154,259.618062 122.226593,258.471145 123.032308,257.604405 C123.397143,257.211894 123.366374,256.971145 122.986593,256.619163 C120.111429,253.954626 117.245934,251.279736 114.393187,248.59141 C113.86967,248.097797 113.881758,248.197137 113.274725,248.80815 C112.064176,250.026872 110.441319,252.946696 108.493407,251.477093 C107.809011,250.960793 107.574286,250.306608 107.612308,249.619163" id="Fill-14" fill-opacity="0.8"></path>
                <path d="M284.175824,113.434802 C284.142857,115.140529 285.340659,116.329736 287.140659,116.384361 C288.96044,116.439427 290.362637,115.009471 290.353846,113.107489 C290.347253,111.492952 288.854945,110.068282 287.116484,110.014097 C285.485714,109.963216 284.210989,111.446035 284.175824,113.434802 M275.4,124.899559 C275.492308,130.49141 275.668132,136.0837 275.797802,141.659692 C275.813187,142.279736 276.061538,142.387665 276.589011,142.381718 C278.41978,142.361013 280.252747,142.305947 282.076923,142.521145 C282.731868,142.598458 282.903297,142.357709 282.791209,141.705286 C282.584615,140.513877 282.415385,139.311454 282.316484,138.106608 C281.527473,128.39163 280.621978,118.662555 280.169231,108.92489 C280.140659,108.328855 279.934066,108.15837 279.391209,108.171586 C278.516484,108.192952 277.756044,108.044714 276.767033,108.142511 C275.775824,108.240529 275.507692,108.168943 275.474725,109.190969 C275.301099,114.417401 275.312088,119.65837 275.4,124.899559 M270.830769,103.011013 C275.714286,103.352863 280.593407,103.820705 285.481319,104.063877 C287.112088,104.145154 288.742857,104.40859 290.382418,104.523789 C292.397802,104.665419 292.575824,105.009912 293.12967,107.073348 C296.413187,119.285683 298.740659,132.687665 299.876923,145.238326 C300.215385,149.015419 280.232967,147.084361 278.903297,146.953304 C274.298901,146.498899 269.87033,145.063216 265.353846,144.130176 C263.674725,143.78304 263.248352,143.343833 263.29011,141.613656 C263.435165,135.664537 264.221978,129.759692 264.767033,123.840749 C265.314286,117.907709 265.331868,111.934361 266.096703,106.020485 C266.454945,103.248458 266.894505,102.805286 269.734066,102.937885 C270.098901,102.955066 270.465934,102.986344 270.830769,103.011013" id="Fill-15" fill-opacity="0.9"></path>
                <path d="M236.751648,265.703524 C236.764835,264.403084 235.718681,263.346696 234.384615,263.31696 C233.415385,263.295374 232.38022,264.353744 232.353846,265.396035 C232.318681,266.838106 233.375824,267.897137 234.830769,267.87511 C235.81978,267.860132 236.738462,266.819824 236.751648,265.703524 M202.025275,258.199119 C202.038022,259.199339 202.130549,260.201542 202.30044,261.187004 C204.128571,271.79185 220.114286,274.631057 226.38022,266.545595 C229.973626,261.907489 230.36044,254.267401 227.2,249.315639 C224.030769,244.354626 217.335165,243.120044 211.945055,244.365419 C205.391209,245.879956 201.942637,251.647577 202.025275,258.199119 M237.575824,249.862775 C237.296703,250.946256 236.538462,253.263656 236.134066,254.555947 C236.134066,254.555947 236.276923,255.651762 236.815385,256.649559 C238.448352,259.674229 239.81978,262.851762 242.050549,265.526432 C242.861538,266.499339 242.791209,267.526211 241.727473,268.426872 C238.098901,271.502203 234.123077,274.129736 230.081319,276.621806 C227.531868,278.193899 224.997802,279.793678 222.38022,281.254031 C220.158242,282.494119 217.317802,284.466586 214.819341,285.017907 C214.082637,285.180463 213.481099,285.106674 212.994945,284.41196 C210.220879,280.448744 207.361758,276.544053 204.646374,272.541189 C201.995165,268.632599 199.274725,264.764758 196.73011,260.79207 C194.666813,257.570705 192.414066,254.528414 189.979121,251.600661 C189.861978,251.459912 189.755824,251.309471 189.632967,251.174009 C188.501978,249.928634 188.586154,248.581498 190.046374,247.705066 C193.44967,245.662555 196.534725,243.189868 199.677143,240.790969 C203.51978,237.85793 207.642198,235.302203 211.304176,232.123789 C212.466374,231.115198 213.666813,230.150441 215.021538,229.401982 C216.538022,228.564317 217.497802,228.831938 218.454945,230.249559 C219.993407,232.526872 221.503297,234.822467 223.171429,237.011674 C224.017582,238.123348 224.795604,238.691189 224.795604,238.691189 C226.281319,238.695595 229.274725,239.079295 230.734066,239.208811 C231.369231,239.265419 231.648352,239.781938 231.907692,240.264097 C233.448352,243.148899 235.257143,245.861013 237.149451,248.521806 C237.384615,248.853744 237.610989,249.187004 237.575824,249.862775" id="Fill-16" fill-opacity="0.6"></path>
                <path d="M245.487912,256.986784 C244.731868,256.127313 244.389011,255.151542 243.916484,254.249559 C243.657143,253.752203 243.923077,253.411674 244.215385,253.070044 C244.813187,252.373348 245.32967,251.619163 245.850549,250.864978 C246.795604,249.501322 247.043956,247.559912 246.615385,245.969824 C246.092308,244.020044 244.384615,242.988767 242.41978,243.365419 C241.479121,243.545815 240.58022,243.878414 239.821978,244.488106 C239.327473,244.887225 238.978022,244.806828 238.67033,244.279295 C238.413187,243.835683 238.153846,243.39185 237.874725,242.962555 C237.523077,242.426211 238.230769,242.024229 238.705495,241.538546 C239.854945,240.362996 238.613187,238.672907 237.191209,239.74207 C236.907692,239.954846 236.512088,240.512555 235.723077,239.669163 C235.298901,239.217181 234.534066,238.655066 235.292308,237.876872 C236.085714,237.064758 236.905495,236.27533 237.756044,235.52467 C242.494505,231.342511 247.079121,225.953524 250.112088,220.424449 C250.457143,219.794273 251.030769,218.571806 251.498901,218.311674 C251.953846,218.059692 253.351648,218.263436 254.558242,218.328414 C255.098901,218.357489 254.613187,219.211233 254.38022,219.580396 C254.046154,220.113436 253.971429,220.955947 254.630769,221.398899 C255.389011,221.907489 256.349451,221.117401 256.679121,220.443392 C257.030769,219.728414 257.353846,218.390749 258.369231,218.495815 C258.621978,218.522026 258.369231,218.495815 258.621978,218.516079 C259.459341,218.582379 260.450549,218.411013 261.09011,218.806828 C261.8,219.247577 261.145055,220.268722 261.257143,221.042731 C261.558242,223.14163 263.459341,224.070925 265.443956,223.794714 C268.498901,223.369824 270.61978,220.780837 271.043956,217.822687 C271.136264,217.184141 271.331868,216.856608 271.92967,216.637225 C273.164835,216.184141 273.758242,215.963877 274.98022,215.475991 C275.595604,215.230176 275.898901,215.387665 275.703297,216.102863 C275.692308,216.137885 275.692308,216.175551 275.687912,216.212335 C275.61978,216.825771 274.993407,218.067401 275.617582,218.544493 C275.843956,218.715639 276.140659,218.756388 276.421978,218.754185 C278.4,218.738767 278.90989,217.346256 279.226374,215.705727 C279.424176,214.679956 279.030769,214.5837 279.83956,214.462335 C280.340659,214.387665 282.701099,213.771806 283.202198,213.674449 C284.191209,213.481498 284.707692,214.035022 284.356044,214.988546 C284.015385,215.912115 283.705495,216.879736 283.178022,217.695374 C281.758242,219.886564 280.668132,222.239207 279.479121,224.550881 C272.435165,238.236123 260.925275,249.936123 250.228571,260.781278 C248.87033,262.157048 248.582418,262.048238 247.507692,260.451322 C246.934066,259.602423 246.364835,258.886784 247.58022,258.07533 C248.248352,257.629075 249.153846,256.335463 248.459341,255.574009 C247.494505,254.511233 245.956044,256.20815 245.487912,256.986784" id="Fill-17" fill-opacity="0.6"></path>
                <path d="M87.0171429,238.742731 C88.5243956,238.836784 90.0118681,239.000881 91.4991209,238.996916 C92.4643956,238.994273 93.0026374,239.639207 93.2540659,238.549559 C93.3769231,238.017621 94.1705495,235.59185 94.3615385,235.076652 C94.6692308,234.247137 94.9430769,234.64185 95.8294505,234.471806 C97.4852747,234.154405 99.149011,233.939868 100.829451,233.839207 C102.323297,233.749559 102.634286,234.119604 102.261758,235.574229 C101.524615,238.451762 100.446154,242.428414 99.5626374,245.260352 C98.8813187,247.444273 98.3054945,246.718722 96.4978022,246.112335 C90.7848352,244.195595 85.3474725,244.599339 80.4345055,248.422687 C80.0094505,248.753524 79.5791209,248.888106 79.1248352,248.621145 C78.6312088,248.331057 78.5395604,247.862335 78.6237363,247.286344 C78.9107692,245.325771 79.28,243.384581 79.918022,241.507489 C80.1441758,240.842291 80.0764835,240.520705 79.3015385,240.388106 C78.3681319,240.227974 77.4382418,239.981938 76.5472527,239.660573 C75.8114286,239.395154 75.6063736,239.687885 75.4145055,240.324009 C72.5742857,249.735903 70.6175824,259.792731 70.6751648,269.738767 C70.6846154,271.380617 70.6826374,273.037445 70.9725275,274.667181 C71.0672527,275.198899 70.9004396,275.620264 70.490989,275.924449 C70.0002198,276.288987 69.4226374,276.312555 68.9463736,275.962335 C67.5874725,274.963656 65.9694505,274.381938 64.6925275,273.256167 C61.8268132,270.729736 58.4874725,268.838326 55.5525275,266.397797 C53.5593407,264.740529 51.3191209,263.37533 49.712967,261.272687 C49.5413187,261.048018 49.2654945,260.900881 49.0305495,260.727533 C48.3276923,260.209031 48.2186813,259.528194 48.5507692,258.77511 C52.2562637,250.371586 54.6386813,241.274229 57.4006593,232.52467 C57.7527473,231.409912 58.3035165,230.947357 59.4940659,231.270485 C60.3364835,231.499119 61.2191209,231.606828 62.0912088,231.689207 C63.1257143,231.786784 63.4127473,232.168282 63.1731868,233.260352 C61.3940659,241.370264 59.001978,249.261674 57.7065934,257.487885 C57.4973626,258.815639 57.5589011,259.861454 58.8958242,260.653304 C60.0167033,261.31696 60.9663736,262.270705 61.9958242,263.090749 C62.2052747,263.257489 62.3268132,263.662996 62.6881319,263.46696 C62.9443956,263.327974 62.847033,263.005507 62.8723077,262.75793 C63.8758242,252.899119 64.7802198,242.192511 68.3778022,232.882159 C68.658022,232.157048 68.8325275,231.834581 69.0254945,231.080837 C69.3876923,229.66696 69.8272527,229.446696 70.867033,229.867181 C75.4496703,231.720705 81.3705495,233.067401 86.1217582,234.367401 C87.549011,234.75793 88.0595604,235.85022 87.5415385,237.257489 C87.3676923,237.729956 87.036044,238.147797 87.0171429,238.742731" id="Fill-18" fill-opacity="0.6"></path>
                <path d="M79.9030769,275.245595 C80.3632967,274.473568 80.7485714,273.818943 81.141978,273.169383 C83.2843956,269.631498 84.5863736,265.817401 84.8591209,261.676432 C85.0068132,259.434581 84.4156044,257.317401 83.66,255.238546 C83.5714286,254.995154 83.5876923,254.627093 83.1035165,254.797137 C81.6083516,255.322467 80.5472527,257.235242 80.8762637,258.821586 C81.6171429,262.391189 80.4802198,267.045595 78.4758242,270.082159 C78.2672527,270.398238 78.2725275,270.774449 78.2738462,271.146256 C78.2789011,272.696256 79.0868132,273.903965 79.9030769,275.245595 M93.1991209,271.447137 C92.9512088,274.434361 94.3318681,277.529295 95.1340659,280.749956 C95.4263736,281.923965 96.1052747,282.201718 97.0037363,281.92815 C97.9149451,281.650837 99.1775824,281.758987 99.4632967,280.418899 C99.6575824,279.508326 99.0112088,278.846211 98.6681319,278.123965 C97.1050549,274.831938 96.9274725,271.363436 97.7059341,267.927533 C98.4830769,264.496476 100.423956,261.55815 102.51956,258.756828 C102.683077,258.537885 103.181319,258.370705 102.78,257.972026 C102.08044,257.277533 101.35956,256.604846 100.649011,255.921145 C100.288352,255.574009 99.970989,255.586123 99.6404396,255.983921 C95.7059341,260.718502 93.0621978,265.043172 93.1991209,271.447137 M74.3905495,268.048899 C74.4652747,263.840749 75.7096703,259.596916 77.8637363,256.198018 C80.3738462,252.237885 84.0415385,250.0163 88.7507692,249.232599 C95.6584615,248.08304 102.88022,250.886564 106.725275,256.777974 C110.561099,262.654626 111.88,270.85837 108.546593,277.261013 C102.768132,288.359648 85.0241758,289.14489 77.6142857,279.249956 C75.1949451,276.019604 74.32,272.028855 74.3905495,268.048899" id="Fill-19"></path>
                <path d="M93.1373626,222.43326 C96.6604396,222.209031 99.258022,219.943172 101.363297,217.228414 C103.501099,214.471366 105.216703,211.42467 107.047473,208.462775 C109.695385,204.178194 113.511648,200.446696 115.148352,195.606828 C115.280659,195.215198 115.558022,194.76652 115.027253,194.431278 C114.478022,194.084141 114.196264,194.568943 113.943077,194.865198 C112.494066,196.561233 110.927253,198.169163 109.597802,199.964097 C106.274945,204.45022 102.415604,208.250661 98.3210989,212.021806 C96.296044,213.886564 94.0606593,215.478855 91.7881319,217.029075 C90.0747253,218.197797 88.2758242,219.130617 86.2648352,219.640529 C85.921978,219.727313 85.4432967,219.67489 85.3749451,220.127093 C85.2956044,220.651101 85.8325275,220.747797 86.1613187,220.911013 C88.2476923,221.946916 90.7312088,222.586344 93.1373626,222.43326 M109.425055,215.088767 C108.263956,216.672687 107.578462,218.452203 106.768791,220.15793 C105.312527,223.226211 103.435824,226.029295 101.132967,228.485242 C99.2193407,230.526211 96.6021978,231.044934 93.8584615,231.345595 C87.0865934,232.087225 79.5734066,230.280837 73.6261538,227.084361 C72.0362637,226.229956 70.9292308,224.629295 71.4861538,222.472907 C71.5496703,222.226872 71.5496703,221.964537 71.5786813,221.709692 C71.8182418,219.592952 73.0083516,218.414317 75.0621978,218.047137 C77.8632967,217.546256 80.7534066,217.610132 83.4945055,216.825771 C86.072967,216.087885 88.7659341,215.342731 91.1947253,214.100881 C94.3643956,212.480176 96.98,209.957269 99.5663736,207.554626 C102.19956,205.10859 104.53956,202.355727 106.542637,199.369824 C108.182198,196.925991 110.012088,194.570705 111.85978,192.256828 C112.736264,191.159251 115.025275,190.830617 116.375604,191.340969 C118.052967,191.97511 119.758901,192.901322 120.846374,194.412996 C122.221538,196.32489 122.382857,198.77489 122.388791,201.051982 C122.395385,203.634361 121.174286,205.859471 120.392308,208.212555 C118.589451,213.638546 116.423956,218.939868 114.839341,224.440088 C114.638901,225.135683 114.119121,227.153304 113.980879,227.89978 C113.790549,228.928414 111.194286,229.30815 111.194286,229.30815 C109.461538,228.525771 108.607473,227.576432 108.795604,225.632599 C109.070989,222.786344 109.367033,219.94207 109.647473,217.096256 C109.711648,216.444053 109.819121,215.781938 109.425055,215.088767" id="Fill-20"></path>
                <path d="M186.383736,20.7246696 C184.54,22.4977974 182.72022,24.2951542 180.845714,26.0352423 C179.994945,26.8237885 178.678242,27.4977974 177.54,26.7731278 C176.354066,26.0154185 176.097802,24.2246696 174.486154,23.9537445 C173.862857,23.8480176 173.133846,24.0748899 173.181978,24.6035242 C173.577802,28.9559471 176.371868,32.1277533 181.021978,30.2555066 C181.403516,30.1013216 181.748791,29.8744493 181.981538,29.5440529 C183.882198,26.8414097 185.323956,23.8964758 186.383736,20.7246696 M181.124396,34.8612335 C178.979121,34.8325991 176.836044,34.6497797 174.713846,34.3303965 C172.083736,33.9339207 169.918242,33.1431718 169.493626,30.0947137 C169.018022,26.6806167 169.21011,23.1806167 168.987033,19.7422907 C168.685714,15.1013216 168.158462,10.4801762 167.444396,5.88546256 C167.118901,3.79735683 167.520659,3.02422907 169.543297,2.48237885 C173.38044,1.45154185 177.001099,1.91629956 182.095165,2.83480176 C187.648791,3.83700441 191.770769,4.57048458 195.160879,7.66299559 C195.559341,8.02643172 195.569011,8.60792952 195.322418,9.12114537 C193.758901,12.3744493 192.75011,15.8546256 191.767473,19.314978 C190.799341,22.7268722 189.592308,26.0704846 188.755824,29.5198238 C188.509011,30.5374449 188.077582,31.5242291 187.624615,32.4757709 C186.891868,34.0132159 185.562857,34.715859 183.910769,34.8039648 C182.982418,34.8546256 182.053187,34.8722467 181.124396,34.8612335" id="Fill-21"></path>
                <path d="M151.970769,31.8171806 C150.427692,31.2555066 149.08044,30.6828194 147.685934,30.2731278 C144.665275,29.3854626 141.698022,28.3634361 138.828132,27.0660793 C137.851209,26.623348 136.794945,26.4735683 135.773846,26.19163 C134.257363,25.7731278 133.883736,25.0264317 134.445714,23.5881057 C136.346593,18.722467 139.311429,14.4933921 142.424176,10.3656388 C145.038681,6.89867841 147.992088,3.75991189 151.557143,1.22907489 C152.61956,0.475770925 153.781538,0.176211454 155.02022,0.013215859 C155.522198,-0.0528634361 155.782637,0.134361233 156.012088,0.627753304 C158.311868,5.57268722 160.372527,10.6431718 163.337582,15.2511013 C164.824615,17.5638767 164.847033,19.969163 163.421978,22.2026432 C161.888132,24.6101322 159.719341,26.277533 156.667253,26.2599119 C153.963736,26.246696 151.397802,23.715859 151.255385,20.9911894 C151.124176,18.4779736 152.126374,15.0044053 158.018681,15.2202643 C159.116044,15.2599119 158.753187,14.9405286 158.408791,14.4427313 C156.905055,12.2599119 155.967473,9.76211454 154.557802,7.52643172 C154.277802,7.08370044 154.071209,6.81718062 153.588132,7.33259912 C149.935824,11.2268722 146.971429,15.6299559 144.189451,20.1629956 C143.601538,21.1211454 143.205055,22.2026432 142.775385,23.2488987 C142.517802,23.876652 142.482418,24.4361233 143.397363,24.654185 C145.915165,25.253304 148.320879,26.6123348 150.765055,27.5947137 C153.428132,28.6629956 156.26967,29.092511 158.752747,30.6189427 C159.647473,31.1696035 160.202198,32.1453744 160.431429,33.1145374 C161.144615,36.1277533 161.201099,39.1255507 159.116044,41.7026432 C156.998462,44.3193833 154.349011,45.4361233 151.525714,44.1343612 C148.202857,42.6013216 147.55956,37.6894273 149.593846,34.7621145 C150.278901,33.7753304 150.879341,32.7092511 151.970769,31.8171806" id="Fill-22" fill-opacity="0.8"></path>
                <path d="M134.034725,169.594493 C133.504396,169.525771 133.087473,169.582599 132.80967,170.020925 C131.94989,171.382819 135.397363,174.686564 136.135604,175.680396 C136.551648,176.240308 137.111868,176.555286 137.74022,176.132819 C138.405714,175.685242 138.175165,175.062996 137.842418,174.479956 C137.098022,173.176652 136.335385,171.882379 135.638462,170.553965 C135.265055,169.842511 134.748571,169.517401 134.034725,169.594493 M131.538242,163.305947 C131.517582,161.96696 131.818022,160.69141 130.682418,160.046476 C128.398901,158.749339 125.876923,158.149339 123.262637,157.967181 C122.712967,157.929075 122.232527,158.115639 122.064835,158.709692 C121.912747,159.248458 122.19011,159.629075 122.616923,159.913877 C123.141758,160.263877 123.624396,160.651322 123.86022,161.263436 C124.266813,162.318282 124.846593,163.002203 126.094725,162.384802 C126.204396,162.330617 126.380879,162.374449 126.514725,162.412996 C127.680879,162.750441 129.174066,164.601982 129.255604,165.821366 C129.298901,166.470264 129.497802,167.011674 130.239341,167.036564 C130.973846,167.061454 131.244615,166.555727 131.304615,165.898678 C131.390989,164.950881 131.475385,164.002863 131.538242,163.305947 M117.886154,155.695154 C117.886154,155.328414 117.874286,154.961233 117.889231,154.595154 C117.905714,154.187004 118.131648,154.012775 118.539341,154.050881 C122.812747,154.448678 127.017363,155.009251 130.842198,157.253744 C132.847912,158.430837 134.269451,159.937445 134.594505,162.232159 C134.909451,164.454846 134.516923,165.037445 135.403956,167.037445 C136.548132,169.61652 139.114286,173.554185 140.666593,175.936123 C144.648791,182.046476 147.987692,188.542952 151.746593,194.788326 C156.328132,202.400661 161.897582,209.615419 165.463516,217.804405 C165.609451,218.140088 165.757802,218.477974 165.864176,218.827313 C166.34989,220.421586 166.065714,221.164978 164.671648,222.007709 C161.824615,223.728855 160.925275,221.37467 159.263956,219.129295 C149.066593,205.345815 141.491209,189.900881 132.865275,175.137004 C132.115385,173.853965 131.18044,172.674009 130.272527,171.49141 C129.798242,170.873789 129.181758,170.531718 128.299121,170.524449 C126.99033,170.513877 125.681538,170.287885 124.376264,170.12533 C123.711429,170.042511 123.281978,169.568722 122.882198,169.082159 C120.72,166.451542 119.525055,163.342511 118.574286,160.133921 C118.148791,158.698458 117.825495,157.218722 117.886154,155.695154" id="Fill-23"></path>
                <path d="M179.666593,38.4096916 C190.849231,38.1718062 201.842857,45.1035242 205.878901,55.6762115 C209.070769,64.0374449 208.201099,72.3348018 206.356264,80.9198238 C206.287473,81.2394273 206.338681,81.7312775 205.832088,81.7713656 C205.32,81.8118943 204.914945,81.6140969 204.696703,81.0940529 C203.758681,78.8590308 202.552088,76.7753304 201.138462,74.8105727 C200.944835,74.5418502 200.952088,74.2665198 200.989231,73.9735683 C202.042418,65.6674009 199.901099,56.7400881 194.139121,50.4889868 C187.026813,42.7731278 173.969451,42.9867841 166.416703,49.9405286 C165.512088,50.7731278 164.716484,51.722467 164.025934,52.7400881 C163.028352,54.2114537 163.301538,54.4713656 162.475824,54.4889868 C161.421978,54.5110132 156.85978,54.5859031 155.80989,54.7444934 C154.932308,54.876652 153.03011,54.6453744 153.186154,53.3722467 C153.228791,53.0242291 153.413846,52.7136564 153.60044,52.4185022 C156.277802,48.1696035 160.091429,44.6497797 164.505275,42.2753304 C168.851868,39.9339207 174.264396,38.5264317 179.666593,38.4096916" id="Fill-24"></path>
                <path d="M260.153846,134.321586 C259.898901,136.140749 259.659341,137.920705 259.393407,139.696916 C259.043956,142.031718 258.279121,141.52533 257.043956,140.886123 C254.564835,139.603965 249.824176,137.614097 247.27033,136.537225 C246.213187,136.09185 245.797802,135.50837 245.384615,136.5337 C244.531868,138.660573 243.397802,141.897797 242.668132,144.05 C240.947253,149.117621 239.564835,154.331498 238.351648,159.542952 C238.342857,159.578634 238.334066,159.614978 238.325275,159.649339 C237.243956,163.636784 236.793407,162.461674 235.608791,159.948018 C233.575824,155.637885 231.793407,151.209471 229.523077,147.013877 C228.578022,145.271366 227.668132,143.52467 226.964835,141.665419 C226.630769,140.787665 226.63956,140.065198 226.942857,139.151322 C228.27033,135.151101 229.87033,131.099559 231.615385,127.205727 C232.520879,125.188767 234.931868,120.235903 235.887912,118.243612 C236.602198,116.755947 236.951648,116.006608 237.775824,116.387885 C239.002198,116.955507 240.162637,117.267621 241.230769,118.160793 C241.604396,118.471586 241.465934,118.717181 241.318681,119.009692 C238.986813,123.645154 237.512088,128.61674 235.707692,133.457048 C235.07033,135.164097 234.767033,136.995374 234.305495,138.768722 C234.23956,139.024009 234.226374,139.257709 234.336264,139.514537 C234.815385,140.624449 235.252747,141.753084 235.753846,142.851982 C235.925275,143.229956 236.026374,143.835463 236.50989,143.837225 C237.046154,143.838767 237.028571,143.20022 237.167033,142.81674 C238.158242,140.096696 239.127473,137.367841 239.984615,134.601982 C240.764835,132.082379 241.197802,129.335242 242.701099,127.112775 C243.18022,126.401762 243.764835,126.088106 244.657143,126.507048 C248.298901,128.217401 251.967033,129.868943 255.70989,131.340308 C257.03956,131.861894 258.292308,132.559692 259.676923,132.947137 C260.50989,133.179956 259.918681,133.892511 260.153846,134.321586" id="Fill-25"></path>
                <path d="M238.685714,224.41674 C240.76044,222.484361 241.782418,220.375551 242.063736,217.897797 C242.210989,216.60022 241.527473,215.518722 240.279121,214.942952 C239.298901,214.49185 237.676923,214.839427 236.931868,215.661233 C236.468132,216.172907 236.367033,216.767401 236.615385,217.395374 C236.835165,217.955066 237.287912,218.21674 237.89011,218.25793 C239.131868,218.342291 239.347253,218.601101 239.391209,219.875991 C239.43956,221.31652 238.885714,222.664097 238.685714,224.41674 M246.041758,218.012555 C246.046154,219.370485 245.672527,220.77489 244.940659,222.138326 C242.984615,225.785242 240.032967,229.19141 237.035165,232.011013 C235.43956,233.510793 233.50989,235.63304 231.516484,236.551322 C230.652747,236.949559 230.006593,237.002203 229.424176,236.174229 C228.074725,234.259471 226.079121,232.7837 224.531868,231.028855 C220.753846,226.745815 215.434066,219.394934 221.334066,214.423568 C223.494505,212.603965 227.927473,211.618722 230.659341,214.1663 C231.235165,214.705066 231.584615,214.662335 232.050549,214.043612 C233.652747,211.917401 235.916484,210.867181 238.463736,210.699559 C240.167033,210.587665 241.815385,211.167401 243.221978,212.327753 C245.114286,213.887225 246.035165,215.893172 246.041758,218.012555" id="Fill-26"></path>
                <path d="M11.7694725,106.748238 C12.1140879,106.685242 12.2226593,106.441189 12.2833187,106.193833 C12.945956,103.493612 14.0874945,100.921586 14.3387033,98.1068282 C14.472989,96.6017621 15.9844176,95.0856828 17.2868352,94.9319383 C18.6558462,94.7704846 19.4525495,95.5669604 19.0938681,96.9017621 C18.7138681,98.3145374 18.1888132,99.6907489 17.6769451,101.064317 C17.342,101.963216 17.1024396,102.877753 16.9244176,103.817181 C16.8765055,104.069824 16.6987033,104.297577 17.0365055,104.462555 C17.349033,104.615198 17.505956,104.397137 17.6666154,104.19141 C18.4334286,103.209692 19.274967,102.276652 19.9468352,101.2337 C20.7046374,100.057489 21.7193626,99.0953744 22.4824176,97.9317181 C23.1931868,96.8480176 24.2298901,96.4088106 25.4982418,96.5026432 C26.3041758,96.5623348 26.8742857,96.9570485 27.121978,97.7579295 C27.3676923,98.5526432 26.970989,98.9872247 26.389011,99.5103524 C24.0096703,101.64978 22.0797802,104.198238 20.1303516,106.721806 C19.9477143,106.95837 19.8147473,107.248238 20.0723297,107.519163 C20.3591429,107.820705 20.6932088,107.731938 20.9624396,107.509251 C22.3883516,106.329515 24.158022,105.580837 25.2547253,103.98304 C25.9907692,102.910352 27.0369231,102.29141 28.3371429,102.057048 C29.441978,101.85793 30.2204396,102.267621 30.7043956,103.209251 C31.1745055,104.123348 30.8685714,104.968502 30.1285714,105.57467 C28.827033,106.640969 27.4323077,107.593172 26.1334066,108.662555 C24.6931868,109.848018 23.3775824,111.160573 22.3252747,112.728194 C21.2881538,114.272467 21.8833187,116.266079 23.6362637,116.828855 C24.5358242,117.117621 25.5059341,117.218722 26.3679121,117.585022 C27.470989,118.053744 28.3821978,118.859251 29.0986813,119.826652 C29.4184615,120.25859 29.3608791,120.798458 29.0885714,121.290969 C28.78,121.848899 28.2969231,121.720044 27.8327473,121.620925 C25.1461538,121.046035 22.4641758,121.724009 19.7751868,121.680837 C17.6009011,121.645815 15.4681538,121.579295 13.391011,120.937445 C12.2699121,120.590969 11.5209011,119.789648 11.2376044,118.63348 C11.0905714,118.0337 10.7993626,117.709692 10.1826593,117.543833 C7.48002198,116.81652 6.06485714,114.571145 6.48353846,111.750441 C6.71035165,110.221586 7.022,108.724009 7.79672527,107.350881 C8.1652967,106.697797 8.06507692,105.924449 8.12375824,105.19978 C8.28463736,103.213877 8.43892308,101.237445 9.89386813,99.6579295 C10.3299121,99.1843612 10.7281538,98.6055066 11.4365055,98.9845815 C12.1096923,99.3449339 12.3413407,100.013436 12.1903516,100.777313 C11.9347473,102.070485 11.6593626,103.359692 11.4125495,104.654405 C11.2714505,105.394714 11.3918901,106.09978 11.7694725,106.748238" id="Fill-27"></path>
                <path d="M130.778022,195.049559 C130.077802,195.014317 129.662418,195.836564 129.055604,196.322467 C127.469231,197.593392 127.341758,200.779956 128.745495,202.209031 C129.147033,202.617621 129.58,202.801542 130.11956,202.644714 C130.667692,202.485463 131.03033,202.05793 131.017802,201.519824 C130.98044,199.898238 131.441538,198.463216 132.218022,197.044714 C132.777363,196.022467 132.081099,195.017401 130.778022,195.049559 M125.12967,199.948458 C125.123956,199.855507 125.119121,199.762996 125.114945,199.671145 C125.054505,198.303744 125.007473,196.869163 125.611209,195.64141 C126.893626,193.034581 130.377802,193.214978 131.226374,190.405507 C131.563077,189.290308 131.825714,188.142511 131.929231,186.965859 C132.097802,185.052643 133.362637,184.477093 134.957143,185.471145 C136.726813,186.57467 137.743736,188.477093 138.874286,190.172247 C140.510769,192.625991 141.974725,195.193172 143.646593,197.621145 C145.523297,200.352643 145.771648,203.805947 144.214286,206.759031 C143.23956,208.607269 141.509011,210.323128 139.457582,210.884802 C137.042857,211.546035 135.041319,210.246696 132.997582,209.143392 C132.587912,208.922247 132.155824,208.69978 131.68989,208.694273 C128.273407,208.655066 126.695165,213.938987 124.98989,216.070705 C124.515824,216.663436 123.891209,216.943392 123.142418,216.668943 C122.357143,216.381057 122.004835,215.755286 122.067912,214.94141 C122.194066,213.314978 123.077582,211.589868 123.549451,210.03326 C124.165055,208.001982 125.096703,205.754405 125.291429,203.635242 C125.396044,202.45 125.203297,201.153965 125.12967,199.948458" id="Fill-28" fill-opacity="0.7"></path>
                <path d="M73.232967,68.3876652 C73.1756044,66.6387665 73.1476923,64.8854626 73.0832967,63.1387665 C72.9316484,59.0110132 72.1204396,55.0132159 72.1349451,50.9052863 C72.1384615,49.9251101 72.9316484,49.6211454 73.8043956,49.5022026 C78.129011,48.9118943 82.6593407,47.5748899 87.1775824,47.5748899 C88.6545055,47.5748899 89.0483516,47.5396476 88.9213187,49.0330396 C88.6826374,51.8436123 87.5421978,55.0506608 87.4540659,57.2555066 C87.427033,57.9339207 87.278022,59.4625551 88.5923077,59.4625551 C89.3637363,59.4603524 89.4978022,59.0859031 89.5591209,58.4669604 C89.9881319,54.1453744 91.4386813,50.1211454 93.121978,46.1629956 C93.6061538,45.0242291 93.8404396,44.4471366 94.9626374,44.2577093 C95.4714286,44.1696035 98.9786813,44.2202643 98.9786813,44.2202643 C99.387033,44.7334802 96.9997802,49.3876652 96.778022,49.9867841 C95.818022,52.5792952 94.3437363,56.6894273 93.5046154,62.0638767 C93.1393407,64.4030837 92.7193407,64.5792952 90.6235165,64.4911894 C89.5657143,64.4471366 85.8452747,64.4933921 84.7681319,64.3722467 C81.9074725,64.0506608 81.8283516,63.2268722 82.0778022,60.3171806 C82.2131868,58.7400881 82.1927473,57.1674009 82.2446154,55.592511 C82.2738462,54.7114537 82.1327473,54.2356828 81.1307692,54.6387665 C80.9312088,54.7180617 80.7010989,54.722467 80.4850549,54.7621145 C78.4584615,55.1365639 78.5024176,55.1409692 78.3,57.2312775 C77.7483516,62.9229075 77.4492308,68.6365639 77.0164835,74.3370044 C76.9749451,74.8854626 76.8991209,75.4317181 76.7997802,75.9713656 C76.6556044,76.7555066 76.401978,77.5814978 75.4635165,77.5859031 C74.5646154,77.592511 74.0338462,76.9823789 73.8817582,76.0572687 C73.4641758,73.5176211 73.3171429,70.9537445 73.232967,68.3876652" id="Fill-29" fill-opacity="0.9"></path>
                <path d="M190.514066,60.7643172 C191.692747,60.7202643 193.121758,59.6145374 193.086154,58.8590308 C193.052088,58.1365639 192.612967,57.8105727 191.91956,57.8524229 C190.918901,57.9096916 189.642857,59.1453744 189.698022,59.969163 C189.739341,60.5837004 190.122418,60.7687225 190.514066,60.7643172 M175.966374,54.1277533 C177.495604,54.1189427 178.611209,53.3964758 178.585495,52.4779736 C178.562198,51.6387665 178.045495,51.1145374 177.257363,51.19163 C175.729011,51.3370044 174.672967,51.6674009 174.724835,52.8678414 C174.761099,53.7092511 175.287253,54.0881057 175.966374,54.1277533 M185.845275,54.1321586 C185.829451,53.3920705 185.741319,52.6718062 185.278462,52.0572687 C184.945275,51.6145374 184.516484,51.3744493 183.950989,51.5088106 C183.42044,51.6343612 183.216044,52.0462555 183.081538,52.530837 C182.905495,53.1629956 183.10022,53.7665198 183.198462,54.3722467 C183.33033,55.1828194 183.776484,55.7488987 184.664176,55.6740088 C185.562418,55.5969163 185.874725,54.9735683 185.845275,54.1321586 M197.87033,71.0748899 C195.618901,68.5352423 193.319341,65.8259912 190.554286,63.7422907 C187.732308,61.6167401 184.636484,59.8744493 181.381758,58.5044053 C176.689451,56.5330396 171.80044,55.8524229 166.846154,54.8964758 C166.075604,54.746696 165.867692,54.5 166.454505,53.8744493 C167.583956,52.6718062 168.741758,51.4823789 170.138242,50.6057269 C174.047912,48.154185 178.977363,47.0638767 183.544396,47.7268722 C188.436923,48.4339207 192.15011,51.9185022 194.501099,56.1035242 C195.696703,58.2312775 196.58,60.5330396 197.217143,62.8876652 C197.522198,64.0154185 197.801758,65.1718062 197.961978,66.3303965 C198.060659,67.0440529 198.086593,67.7577093 198.067253,68.4779736 C198.056484,68.8854626 197.645495,70.8215859 197.87033,71.0748899" id="Fill-30"></path>
                <path d="M124.142418,186.584361 C125.147473,186.640529 125.72967,186.147137 125.818681,185.149339 C125.873846,184.53304 125.938462,183.915859 125.951648,183.298238 C125.968791,182.488767 125.654505,181.862115 124.805934,181.66696 C123.735604,181.420925 122.001319,182.589868 121.887912,183.605947 C121.74022,184.927974 122.943297,186.517401 124.142418,186.584361 M112.282857,181.488106 C112.341758,178.337445 113.138242,174.97489 114.001978,172.112555 C114.989231,168.84163 118.384176,169.827093 119.92044,171.985242 C120.508132,172.810793 121.229231,175.204846 122.478681,174.402203 C126.011648,172.132599 128.628132,175.244934 129.247473,178.721145 C129.625934,180.844273 129.238901,182.986784 129.075604,185.101762 C128.94022,186.857489 128.611429,188.703965 127.124835,189.836784 C124.974286,191.47533 122.160659,190.703304 120.572308,188.696916 C120.105714,188.107709 119.683077,187.46696 119.087692,187.008811 C117.684835,185.929295 116.426154,187.10859 114.924615,186.849339 C113.457363,186.596256 112.576264,185.320044 112.39978,183.901982 C112.302418,183.120264 112.267473,182.311454 112.282857,181.488106" id="Fill-31" fill-opacity="0.9"></path>
                <path d="M47.7105495,113.676211 C46.8391209,113.774449 46.2606593,113.901322 45.6846154,113.89141 C44.521978,113.871586 43.9901099,113.179515 44.1406593,112.020044 C44.3072527,110.736784 44.8006593,109.545154 45.1441758,108.311233 C45.5037363,107.019163 46.7593407,106.851101 47.6978022,106.530617 C49.4621978,105.927974 51.2468132,105.387665 52.9351648,104.590308 C53.8112088,104.176211 54.7386813,103.989207 55.6668132,103.79978 C57.0707692,103.513436 58.4353846,104.805727 58.1123077,106.224009 C57.596044,108.490749 57.143956,110.732379 55.2432967,112.479075 C53.476044,114.103304 52.0832967,116.13326 50.4967033,117.959251 C49.658022,118.92467 48.7586813,119.837004 47.8846154,120.771366 C47.5189011,121.162335 47.5389011,121.487225 48.0707692,121.6663 C49.3292308,122.090308 49.8771429,123.480176 51.1505495,123.905727 C51.5169231,124.028194 51.5637363,124.522467 51.4883516,124.882819 C51.1815385,126.347357 50.9808791,127.85837 50.1105495,129.132379 C49.250989,130.390529 48.3681319,130.345595 47.2043956,129.367621 C45.2808791,127.751101 43.6043956,125.835903 41.423956,124.525991 C40.8112088,124.15793 40.638022,123.533921 40.8015385,122.892511 C41.2382418,121.178414 41.5351648,119.494934 43.1868132,118.264317 C44.8041758,117.059471 46.0687912,115.378855 47.7105495,113.676211" id="Fill-32" fill-opacity="0.6"></path>
                <path d="M215.784396,219.848018 C215.811209,220.79185 215.723736,221.744053 215.631868,222.505286 C215.323516,225.061013 212.767692,229.324449 209.616044,227.673789 C208.078681,226.868722 207.517582,224.75815 206.508571,223.444493 C205.247253,221.802423 203.40022,220.238546 203.162198,218.042291 C203.034725,216.867401 203.956044,216.030837 205.305934,216.1837 C207.761319,216.461454 210.208571,216.09207 212.661319,215.881057 C215.093407,215.671586 215.724615,217.738546 215.784396,219.848018" id="Fill-33" fill-opacity="0.9"></path>
                <path d="M184.943297,237.760573 C185.456703,237.785242 185.884396,237.814097 186.121758,237.805286 C188.373626,237.723348 190.618022,237.436123 192.818022,236.948018 C193.972527,236.69163 195.152747,236.015859 196.372088,236.172467 C197.935604,236.373128 198.035165,237.864317 197.081758,238.841189 C195.165275,240.804405 192.647033,241.877313 190.370769,243.339648 C188.718681,244.401101 185.960659,245.997797 184.408791,243.919824 C183.576484,242.805507 182.519341,241.914097 181.698681,240.80793 C181.417582,240.428855 181.116264,240.04163 180.940879,239.609251 C180.142198,237.639868 183.097143,237.672247 184.943297,237.760573" id="Fill-34"></path>
                <path d="M204.853407,257.329736 C205.124615,252.128414 208.445714,247.957489 213.857143,246.867401 C218.002857,246.032159 223.171429,248.111894 225.367033,251.798238 C227.534066,255.437004 226.298901,260.146916 224.252747,263.559912 C220.96044,269.051762 214.115824,269.794273 208.95011,266.20837 C206.008352,264.166079 204.66989,260.848899 204.853407,257.329736" id="Fill-35" fill-opacity="0.6"></path>
            </g>
        </g>
    </g>
</svg>