<?xml version="1.0" encoding="UTF-8"?>
<svg width="457px" height="148px" viewBox="0 0 457 148" version="1.1" xmlns="http://www.w3.org/2000/svg" xmlns:xlink="http://www.w3.org/1999/xlink">
    <g id="Casy-Study---Restless" stroke="none" stroke-width="1" fill="none" fill-rule="evenodd">
        <g id="Desktop-Copy-9" transform="translate(-252.000000, -2779.000000)">
            <g id="Group-22" transform="translate(252.000000, 2779.000000)" fill="#5D5DF4">
                <g id="Group-36">
                    <path d="M72.7508366,125.942132 C72.7724132,126.105671 72.7241641,126.279316 72.8827897,126.353316 C73.0269949,126.420687 73.0945436,126.254323 73.197981,126.195645 C74.6811253,125.354153 76.2152293,124.609263 77.736756,123.841336 C78.4469392,123.482855 81.3524015,121.409551 81.9769289,121.850073 C82.5218725,122.234308 83.0589011,122.630714 83.6152293,122.99778 C85.1069392,123.982164 86.6727033,124.850931 88.1272234,125.89432 C88.2355399,125.972015 88.3527473,126.136206 88.5012894,126.007656 C88.6745524,125.8577 88.5121319,125.705789 88.4382945,125.57637 C86.3832088,121.975254 84.3433026,117.879175 81.3142359,115.021319 C81.1513817,114.867668 80.8953905,114.678159 80.7023941,114.927107 C80.415285,115.297433 79.9941626,115.482488 79.6675868,115.79294 C77.0193084,118.310678 74.9939311,121.28763 73.2721436,124.488646 C73.0228747,124.952206 72.8624059,125.451081 72.7508366,125.942132 M62.8084894,134.380414 C62.1814681,134.925689 61.7566593,135.52736 61.2840352,136.082197 C59.4571839,138.22661 58.1211722,140.654919 57.2011868,143.311204 C57.0199004,143.834528 56.9854212,144.407947 56.869515,144.955394 C56.7191297,145.666599 56.3861568,145.855456 55.7044894,145.667142 C54.4569524,145.322243 53.2043194,144.995709 51.9561319,144.652657 C51.0827692,144.412619 50.9128674,144.005347 51.3384352,143.215905 C52.2738168,141.480328 53.0532835,139.664231 54.0414681,137.956038 C55.3819253,135.638849 56.7878711,133.362452 58.3346608,131.177442 C59.0268454,130.199686 59.3077744,130.161327 60.3471355,130.809398 C61.3120088,131.41096 62.2687502,132.026214 63.216167,132.655269 C63.5197568,132.856949 63.7264147,132.853797 64.0241495,132.610173 C64.9193055,131.877671 65.5478447,130.922082 66.2388366,130.023651 C70.833559,124.049319 74.9169495,117.808978 80.3256176,112.514012 C80.6572894,112.189216 80.984841,112.084029 81.3569553,112.447944 C89.2429158,120.158614 94.5531341,129.610402 100.765014,138.601065 C101.370133,139.476895 101.891223,140.411838 102.435516,141.328851 C102.751358,141.860869 102.545351,142.305738 101.987505,142.526434 C97.5298315,144.290264 93.9139692,145.260957 89.781896,146.257621 C85.4596454,147.300249 80.9677099,147.67264 76.536926,147.868126 C70.858822,148.112619 65.1841875,147.688722 59.6150505,146.530584 C58.8992293,146.381715 58.6798857,146.0479 58.7782271,145.326916 C59.034652,143.449424 59.5834989,141.648214 60.3294623,139.917309 C60.9861919,138.393518 61.472044,136.791445 62.3649231,135.370449 C62.5346081,135.100529 62.8170549,134.860273 62.8084894,134.380414" id="Fill-1" fill-opacity="0.9"></path>
                    <path d="M44.3418842,37.9540675 C45.0810168,37.973627 45.6542593,37.5998238 45.7250608,37.1651689 C45.8210168,36.5783847 45.4912967,36.1263436 44.8343502,35.9383554 C44.2987311,35.7840529 43.7692923,35.6058443 43.2280352,35.4754479 C42.7958535,35.3722173 42.3506608,35.3363583 42.1064879,35.8438179 C41.8872527,36.2991189 41.9864615,36.8793833 42.4261245,37.1521292 C43.063663,37.5465786 43.7364396,37.898649 44.3418842,37.9540675 M34.9860073,80.9077533 C35.8398535,80.9716476 36.6488117,80.8692863 36.8206652,80.2229545 C37.2627136,78.5606167 37.5985055,76.8744816 38.0131223,75.2067107 C38.4841201,73.3122673 38.9529495,71.4170631 39.4499692,69.5294655 C39.5505875,69.1471865 39.4689436,69.0044023 39.0897817,68.9648488 C36.3673407,68.6805844 34.0692747,68.0864112 31.6699399,66.7734273 C31.2045802,66.5187195 30.864126,66.6196681 30.7876864,67.0712746 C30.6389275,67.9499295 30.3264469,68.7813157 30.1156689,69.6416065 C29.4662037,72.2922408 28.885263,74.961348 28.0821597,77.5722115 C27.9446769,78.0190367 28.0082139,78.3862115 28.3544147,78.7056828 C29.6381656,79.8901175 31.3522549,80.3786696 33.0431414,80.6120793 C33.4635048,80.6701057 34.2418872,80.8521175 34.9860073,80.9077533 M32.9307048,95.6069134 C32.1027722,95.5611659 31.2919707,95.7398091 30.4513524,95.6773275 C27.771956,95.4782555 25.3236132,94.706417 22.9986579,93.3169339 C21.3256615,92.3170103 20.229052,90.9314391 19.3647971,89.2713833 C19.2090989,88.972232 19.1725597,88.6699295 19.2866227,88.3308987 C20.2732894,85.3984993 21.2233084,82.4503436 21.9737172,79.4510073 C22.6939839,76.5723965 23.7047209,73.7757181 24.436589,70.9019971 C25.7459282,65.7616593 27.1217319,60.6845639 28.6255853,55.5966021 C28.8318095,54.8987636 29.1512293,54.2498238 29.4168703,53.57763 C29.6710183,52.9344493 30.2466462,52.7144053 30.8101304,52.4716505 C32.082063,51.9238767 33.414822,51.6099471 34.7903004,51.5131278 C35.5486242,51.4598825 35.9457846,51.0669545 36.2018842,50.3906314 C36.6642081,49.1696858 37.0292747,47.9191836 37.3599707,46.6602056 C38.2603311,43.2316476 39.1298989,39.7950485 40.0147546,36.3621439 C40.1651399,35.7797063 40.0963985,35.1309838 40.5857201,34.6485169 C41.5638212,33.6846696 42.7590974,33.6824963 43.9797451,33.8802643 C45.190526,34.0769457 46.202781,34.6985022 47.0679033,35.5504258 C47.4496674,35.9264023 47.5904029,36.418649 47.4685333,36.9478414 C47.1521495,38.3224376 46.8564747,39.7033363 46.4849026,41.0631542 C45.462022,44.8064023 44.4493333,48.5510631 43.6865641,52.3589662 C43.6197744,52.6927812 43.6854799,52.9054361 43.9046066,53.1808987 C44.6610872,54.1315977 45.7181216,54.7826021 46.4142095,55.7912188 C47.059663,56.7265962 47.5126623,57.6750132 47.2230593,58.8700969 C46.1370755,63.3506285 45.2073319,68.0062173 43.9380015,72.4987019 C42.9945963,75.837395 42.1183062,79.1952129 41.3273465,82.5734596 C40.5673963,85.8189192 40.1065905,89.1803231 39.1601495,92.3754714 C38.9185788,93.1909927 38.4119092,93.807768 37.8333538,94.3866197 C37.7594081,94.4606197 37.658356,94.5366843 37.5603399,94.5524405 C36.1674051,94.7766138 34.8879912,95.4555448 33.4701187,95.5752922 C33.2906755,95.5903965 33.1105817,95.5965903 32.9307048,95.6069134" id="Fill-2"></path>
                    <path d="M122.533158,81.5955947 C122.541832,81.7064317 122.527736,81.781301 122.553758,81.8384581 C123.034081,82.8972775 123.536088,83.9802203 124.532513,84.6267695 C125.394491,85.186279 126.365978,85.4788018 127.376498,85.1406402 C128.654828,84.7132658 129.08419,83.6210866 129.611136,82.5008722 C129.69896,82.3140793 129.876777,82.0883847 129.718476,81.8970279 C129.541744,81.6832863 129.284777,81.8385668 129.059253,81.8829016 C127.767912,82.1371747 126.475487,82.3438532 125.146198,82.3085374 C124.221333,82.2838708 123.408147,81.9282144 122.533158,81.5955947 M133.644542,82.7857885 C132.996161,83.9096975 132.721846,85.0377357 132.780396,86.2344493 C132.798828,86.6209662 132.880147,87.0337797 133.130608,87.3582496 C134.812278,89.5356535 138.72967,88.8603084 140.884073,87.8491924 C140.988161,87.8002937 141.164894,87.7940999 141.130198,87.6243671 C141.102007,87.4846256 140.951297,87.4377915 140.82444,87.4483319 C139.368293,87.5702526 137.882872,86.9850984 136.682608,86.1991336 C136.096029,85.8150073 135.572337,85.3672041 135.119121,84.8322526 C134.941304,84.6228576 133.535033,82.9748634 133.644542,82.7857885 M126.156718,92.1256535 C125.830359,92.1620558 125.51159,92.1741175 125.193905,92.2769134 C123.95244,92.6778825 123.030828,93.4824288 122.280527,94.5171248 C122.19704,94.6321997 122.063678,94.7343436 122.141744,94.8970132 C122.225231,95.0690279 122.395458,95.0181733 122.526652,94.993072 C125.458462,94.4335624 129.156835,96.4807871 130.900308,98.7449046 C131.240762,99.1872746 131.616996,99.6028047 131.986725,100.02116 C132.05937,100.103419 132.13852,100.260655 132.293568,100.166009 C132.403077,100.098311 132.360791,99.9764993 132.343443,99.8693568 C131.956366,97.5414537 131.322081,95.3379706 129.684864,93.512094 C128.705788,92.4198062 127.513114,92.1196769 126.156718,92.1256535 M147.439443,77.4997327 C147.376557,81.3072012 146.920088,85.1867137 146.054857,88.9276799 C145.192879,92.6507166 144.075018,96.5039325 142.512615,99.9951894 C142.129875,100.851894 141.554139,101.520828 140.709509,101.93701 C137.261597,103.635098 133.652132,104.849742 129.89304,105.645921 C128.288352,105.985821 126.668484,106.007445 125.048615,106.083836 C123.950271,106.135668 123.117568,105.712532 122.347751,104.829965 C120.308278,102.492173 119.304264,99.6718062 118.434696,96.8027577 C117.439355,93.5182878 117.539106,90.0301821 118.050872,86.6693216 C118.506256,83.6753098 119.08633,80.7008576 119.762901,77.7493333 C120.358154,75.1527048 120.750652,72.3439648 122.017055,69.9696623 C122.381363,69.2850808 122.507136,69.2358561 123.177201,69.6020529 C124.588894,70.3741087 125.88674,71.3197004 127.354813,71.9847225 C128.906374,72.6867988 130.516484,73.2546755 132.160205,73.6979148 C136.940659,74.9876446 141.596425,74.8032423 146.480967,74.6393774 C147.212835,74.614928 147.431853,74.8237797 147.441612,75.5468282 C147.45137,76.19479 147.450286,76.8462291 147.439443,77.4997327" id="Fill-3"></path>
                    <path d="M109.696733,79.0414537 C109.287971,78.0078443 107.512513,77.3280441 106.507739,77.218511 C104.210432,76.9681498 103.094306,80.1760117 103.108835,82.0099295 C103.11057,82.2309515 102.992604,82.53521 103.263341,82.6426784 C103.547848,82.75558 103.826608,82.6004082 104.038362,82.3918825 C104.3207,82.1140294 104.582872,81.8156388 104.856211,81.5283319 C105.555226,80.7934391 106.301732,80.1582996 107.276797,79.7663495 C108.018315,79.4682849 108.962696,79.4164523 109.696733,79.0414537 M95.3237099,88.4622731 C95.330107,89.0092863 95.3900659,89.5569515 95.4693245,90.0810367 C95.558233,90.6693421 95.6844396,91.252975 95.8208381,91.8324787 C95.8711473,92.0456769 96.0226168,92.2562673 96.2575736,92.2632217 C96.5314549,92.2712628 96.4524132,91.9840646 96.4648821,91.844649 C96.6902974,89.3257151 98.1957773,86.9883583 100.247285,85.5555184 C100.407754,85.443486 100.653011,85.4322937 100.590016,85.0981527 C100.532117,84.790743 100.37978,84.6807753 100.111754,84.6104699 C99.4762755,84.4437797 98.8314725,84.4209604 98.1797304,84.4245463 C96.9474813,84.4312834 95.9499722,85.4475066 95.5833875,86.5590279 C95.3835604,87.1650455 95.3160117,87.813116 95.3237099,88.4622731 M102.700399,95.3592687 C102.375666,95.3592687 102.050825,95.3524229 101.726418,95.361768 C101.528325,95.3674185 101.314078,95.3744816 101.245228,95.6216916 C101.177029,95.8662937 101.390084,95.9263847 101.532012,96.0188576 C101.74344,96.1566432 101.963109,96.2826931 102.185272,96.4026579 C103.746157,97.2450191 105.442248,97.5599266 107.186588,97.5910044 C108.133571,97.6078473 109.085216,97.4959236 109.969963,97.0815888 C111.51285,96.3585404 112.087502,94.9873128 112.367238,93.4405932 C112.66107,91.822373 112.186168,90.2842379 111.806681,88.7402349 C111.766564,88.5784347 111.648381,88.4820499 111.495502,88.490743 C111.301421,88.5017181 111.323106,88.6942702 111.291663,88.8234714 C110.984821,90.0555007 110.596659,91.2585169 109.936352,92.3495007 C109.454945,93.1435066 108.871619,93.8229809 108.005196,94.2663289 C106.327212,95.125533 104.507733,95.175627 102.700399,95.3592687 M116.543766,94.5211454 C116.609905,96.5037151 116.259692,98.5813656 115.756601,100.649671 C115.456264,101.88659 114.775355,102.638435 113.58485,103.086999 C111.422857,103.901107 109.155692,104.399982 106.878227,104.754009 C105.712334,104.935151 104.540695,105.077283 103.367537,105.201486 C102.329585,105.311345 101.25542,105.577354 100.259645,105.184969 C99.084211,104.721736 98.0710886,104.127345 97.219411,103.061463 C93.2553963,98.1008546 90.1965128,92.598558 86.9151414,87.1840617 C86.423326,86.3726696 86.6490667,85.4371836 87.4614945,84.9347225 C88.5672117,84.2509016 89.6939634,83.5993539 90.7784293,82.8834772 C93.3413773,81.1913656 95.5207179,78.9865786 97.386819,76.5562056 C98.795367,74.7217445 100.078359,72.7828576 101.104709,70.706185 C102.196331,68.4975947 102.943812,66.1017768 103.715906,63.7658326 C103.857292,63.3380235 104.145377,63.2234919 104.441703,63.3949633 C106.409181,64.5334332 107.509152,66.7090984 108.609231,68.610279 C112.396513,75.1580294 115.85852,82.0050396 116.419077,89.7142966 C116.455941,90.216975 116.479795,90.7206314 116.489553,91.2245051 C116.511238,92.2719148 116.570872,93.3197592 116.543766,94.5211454" id="Fill-4" fill-opacity="0.7"></path>
                    <path d="M75.7121377,49.0045169 C75.7280762,48.1667195 75.0503121,47.3297915 74.231704,47.1666872 C72.1751004,46.757025 69.7449729,48.8828135 69.5194491,50.2953333 C69.3959531,51.0701057 70.2815678,52.3873275 71.1308601,51.750558 C71.8242374,51.2308194 72.1212132,50.4743025 73.0110564,50.1446167 C73.4025788,49.9995507 73.6797128,50.3323877 73.9976147,50.479953 C74.1887678,50.5686226 74.3791619,50.5643847 74.5777963,50.5143994 C75.318989,50.3278238 75.6964161,49.827536 75.7121377,49.0045169 M80.0441465,60.4419178 C79.3433963,60.4574567 78.8940835,60.6023054 78.6397187,60.8805932 C77.0343795,62.6363818 76.3151971,64.7016446 76.4553905,67.0783377 C76.4830388,67.5485257 76.6515311,67.8919031 77.1152645,68.016975 C77.6002491,68.1478062 77.928126,67.9344993 78.195285,67.514188 C78.599493,66.8783965 78.83857,66.1871865 79.0388308,65.4700059 C79.2718359,64.6356858 79.6483956,63.8904699 80.4075868,63.3911601 C80.7240791,63.1829604 80.9875516,62.90163 81.2063531,62.5872658 C81.5293509,62.1233803 81.6409201,61.6009251 81.3750623,61.1017239 C81.1072527,60.5989369 80.6049201,60.4252922 80.0441465,60.4419178 M83.0231209,49.5501175 C82.9792088,49.2483583 82.9959062,48.829025 82.7098813,48.4766285 C82.1633114,47.8032394 81.4406593,47.6012335 80.6364718,47.9210308 C79.8305495,48.2414802 79.3868747,48.864232 79.6688879,49.8370984 C79.9651048,50.8585374 79.5088527,51.4355419 78.8985289,52.0484053 C77.4983297,53.4544053 79.751074,56.3060675 81.2459282,55.2070426 C81.7834989,54.8117239 81.7166007,54.1623495 81.6113201,53.5570925 C81.4294916,52.5110954 81.5831297,51.5816946 82.5123311,50.9077621 C82.9310681,50.604047 83.0313612,50.1470073 83.0231209,49.5501175 M64.8443839,70.1947048 C64.7964601,71.8710602 65.9118271,73.0826608 67.5627048,73.147533 C69.2335326,73.2130573 70.8517744,71.7952129 70.841474,70.2151336 C70.8328,68.8862849 69.7178667,66.8559031 67.9388308,66.8325404 C66.2434989,66.8102643 64.8995722,68.2657063 64.8443839,70.1947048 M88.7172718,55.7715507 C88.7921934,57.7393421 88.5826081,59.4789398 88.2433465,61.2022379 C87.8376205,63.2636975 86.7813451,65.0846843 85.5304469,66.7431101 C83.0217114,70.0689809 80.3200879,72.7493891 76.8417084,75.0746843 C75.4111502,76.0309251 73.8573128,76.6083642 72.2172777,76.896975 C69.3046593,77.4096505 66.1564337,76.9195771 63.6867311,75.2355066 C61.4810432,73.7313833 59.0357363,70.4210514 60.1473084,67.5751483 C60.5846945,66.4553686 61.0330315,65.3100529 62.2504264,64.749674 C62.9446711,64.430094 63.6968147,64.4761674 64.4225026,64.3606579 C65.0992908,64.2528634 65.7846447,64.2011395 66.464252,64.110188 C67.1026579,64.0247783 67.6106286,63.6955272 68.0306667,63.2179501 C68.489304,62.6964728 68.4118886,62.3240822 67.7586286,62.0711131 C67.4759648,61.9616887 67.1658696,61.9093128 66.8631473,61.8688899 C65.7997158,61.7268664 64.7966769,61.3779471 63.8001436,61.0022966 C62.9348044,60.6761968 62.5900132,60.1604787 62.6215648,59.2308605 C62.6512733,58.3561175 62.6637421,57.5754772 62.9423941,56.7346373 C63.5410081,54.9284288 63.9642989,53.0916858 64.8426491,51.3924023 C65.9847971,49.1828341 67.4715194,47.248837 69.2847092,45.5555301 C69.7369495,45.1331542 70.2323429,44.7906461 70.7572278,44.4631336 C72.7419458,43.2249104 75.0993201,42.4804552 77.4326242,42.3463642 C79.7882637,42.2110778 82.1158212,42.9766138 83.9908132,44.3988047 C87.7872029,47.2785022 88.5457436,51.2640705 88.7172718,55.7715507" id="Fill-5" fill-opacity="0.9"></path>
                    <path d="M22.3950564,23.952746 C21.8784117,23.940793 21.6339136,24.0168576 21.5789421,24.2493979 C21.4880821,24.6329809 21.8117304,24.7851101 22.0194725,24.9589721 C23.4276952,26.1347137 25.0887648,26.8834068 26.741052,27.4984435 C28.4271678,28.1265198 29.9540073,28.341674 31.7266462,28.4579442 C31.7871473,28.4622907 31.8510095,28.4655507 31.9050051,28.4383847 C32.0680762,28.3547137 31.9980337,28.1047871 31.8900425,27.9570044 C31.1451634,26.9344787 29.5122842,26.3183554 28.4061333,25.7945962 C27.0795546,25.1654332 25.6943179,24.6742731 24.2662535,24.3352423 C23.6447619,24.1874596 23.0387751,23.976652 22.3950564,23.952746 M20.0640293,50.0106344 C20.1991267,50.0024846 20.253556,50.0021586 20.3071179,49.9956388 C22.228841,49.7613598 23.9560498,48.8942232 25.7663121,48.2988546 C26.1463414,48.1738913 26.2405626,47.8235595 26.1390769,47.4444317 C26.0017026,46.9311043 25.5835077,46.8802496 25.1530608,46.8736211 C23.248252,46.8447166 21.370441,47.1148546 19.6547253,46.0081145 C17.8209348,44.8250925 16.0421158,43.4195272 14.7023092,41.6796035 C14.5442256,41.4743377 14.4260425,41.1520411 14.0744205,41.3472012 C13.7715897,41.5154126 13.8378374,41.8110866 13.9118916,42.0737269 C13.9651282,42.2625844 14.0488322,42.4495947 14.1529201,42.6161762 C14.4402462,43.0758238 14.8104088,43.4947225 15.0311619,43.9826226 C15.6567736,45.3658032 16.655367,46.4890602 17.5242842,47.7013128 C17.912337,48.2427841 18.3688059,48.7382907 18.822781,49.2280382 C19.1798242,49.6132511 19.6236073,49.8836065 20.0640293,50.0106344 M34.5083956,36.6837885 C34.5487297,38.6277827 34.7655795,40.4669163 34.727956,42.4080852 C34.7145114,43.0989692 34.8688,44.5523465 34.6913084,45.2194332 C34.450822,46.1230808 34.5551267,46.4194068 33.7155927,46.8228752 C31.7950623,47.7457562 28.6241758,49.0630866 26.6725275,49.9169662 C25.2356806,50.5456946 23.7564396,51.0778209 22.2920527,51.6423289 C21.9255766,51.7835918 21.6926799,51.9811424 21.4942623,52.3641821 C20.2415209,54.7817327 19.5678769,57.387489 18.9209055,60.0047636 C18.7542564,60.6792394 18.7734476,61.3717533 18.7933978,62.0589427 C18.8137817,62.7589545 19.4239971,63.0168135 19.8850198,63.3028164 C20.8476161,63.900141 21.6096264,64.7256593 22.4802784,65.4246931 C22.6765275,65.5822555 22.9298081,65.8107753 22.754485,66.1174244 C22.5964015,66.3938649 22.2960645,66.47558 21.9946432,66.4227695 C19.8210491,66.0423377 17.6675136,65.5323789 15.5717685,64.8373656 C13.6912469,64.2138532 11.5971282,63.6195712 10.0802746,62.2874626 C9.90039766,62.1294655 9.86819546,61.9185492 9.92782916,61.6899207 C9.98952293,61.4536858 10.1690746,61.4096769 10.3793105,61.3787078 C11.0604249,61.2785198 11.7305993,61.3177474 12.4166037,61.3912041 C13.2380308,61.4792217 14.0745289,61.432605 14.9045216,61.4302144 C15.1464176,61.4294537 15.2734916,61.2336417 15.405011,61.0557592 C16.3386579,59.793304 16.6645832,58.311674 16.9394403,56.8104846 C17.0501421,56.2057709 17.1295092,55.5920382 17.2897612,55.0005815 C17.5649436,53.984793 17.5052015,52.9546608 17.5011897,51.9252893 C17.498696,51.3054714 17.2653656,50.7819295 16.8767707,50.2894655 C14.9199179,47.8100852 12.9766183,45.3199471 11.0463297,42.819812 C10.2134204,41.7409985 8.71173538,40.0432364 8.76356249,38.6125698 C8.79099399,37.8617034 9.45065114,37.2227606 9.84846212,36.6348899 C12.932381,32.0731865 15.6613275,27.2278708 19.6640498,23.3811747 C20.0750886,22.9867254 20.2337143,22.6411747 21.5632205,22.6411747 C25.8631355,22.6411747 30.564548,24.2743906 33.6458755,27.2593833 C33.7498549,27.3604405 33.7237245,27.4930103 33.7467106,27.6147137 C34.2493685,30.2856681 34.4971194,36.1448164 34.5083956,36.6837885" id="Fill-6" fill-opacity="0.9"></path>
                    <path d="M15.2316396,92.3402643 C14.9163399,92.2297533 14.4986872,92.3564552 14.4423062,92.6823377 C14.4130315,92.8508752 14.4860015,93.0185433 14.5572366,93.1740411 C15.0165245,94.17679 15.4832938,95.1918179 16.1801407,96.0460235 C16.5075839,96.4474273 19.1601993,98.6565609 19.2195077,97.2461057 C19.2535531,96.435909 17.7707341,95.7473069 17.3079766,95.2278943 C16.7810315,94.6363289 16.3481993,93.9645698 15.9897465,93.2577122 C15.8230974,92.9290044 15.654063,92.5720441 15.3354022,92.3877504 C15.3026579,92.3687342 15.2678535,92.352978 15.2316396,92.3402643 M12.4177963,93.0672247 C12.2779282,93.0141968 12.1224469,93.0107195 11.9952645,93.0855888 C11.6763868,93.2732511 11.750441,93.7496329 11.8727443,94.0993128 C12.1238564,94.8173627 12.4024,95.5256329 12.7075077,96.2222761 C13.0051341,96.9016417 13.333011,97.5778561 13.8100806,98.1450808 C14.3989363,98.8453098 15.1175766,99.1366373 15.9616645,99.4073186 C16.3092747,99.5185903 16.716085,99.28442 16.4873084,98.8802996 C16.3895092,98.7075242 16.2101744,98.6008164 16.0454769,98.4901968 C14.4633407,97.4267048 13.7649758,95.4932511 12.9817143,93.7528928 C12.8891194,93.5470837 12.7893685,93.3359501 12.6193582,93.1878414 C12.5608088,93.1367695 12.4914168,93.0951512 12.4177963,93.0672247 M29.2028396,105.654396 C29.9483692,105.670479 30.6975853,105.602999 31.2789597,105.300261 C31.4793289,105.195944 31.6722168,105.043272 31.7397656,104.827465 C31.8073143,104.611551 31.6948777,104.331633 31.4730403,104.28958 C31.4104791,104.277627 31.3459663,104.284907 31.2825377,104.291862 C28.8978403,104.552329 26.6124601,104.083988 24.2863121,103.621515 C23.6809758,103.501116 23.3765187,103.607063 23.1106608,104.167225 C22.9179897,104.572975 23.0018022,104.716737 23.3817231,104.813231 C24.7284689,105.155304 26.0986344,105.41664 27.4844132,105.531063 C27.9932513,105.573007 28.5967443,105.641357 29.2028396,105.654396 M29.9132396,102.711239 C30.3398916,102.697439 30.9870799,102.681683 31.633726,102.648758 C32.2783121,102.615833 32.4860542,102.323093 32.6426198,101.795095 C32.9380777,100.79854 31.900885,101.197119 31.2081582,101.230479 C29.3225407,101.321322 27.2650696,101.315997 25.4476513,100.73921 C25.1784322,100.653692 25.032926,100.708458 24.9006476,100.975119 C24.5571575,101.667742 24.6273084,101.853231 25.3717538,102.107612 C26.7741216,102.586711 28.2224615,102.725909 29.9132396,102.711239 M20.5483634,118.383157 C20.3980864,118.181803 20.3333568,118.071292 20.2466168,117.982514 C19.099915,116.807207 18.0507956,115.532147 16.758696,114.506253 C16.50097,114.301639 16.1558535,113.885131 15.8366505,114.264476 C15.5090989,114.653818 16.0040586,114.906135 16.238148,115.129982 C17.8181158,116.641169 19.1895824,118.341539 20.6419341,119.968018 C20.8248469,120.17274 20.9383678,120.44516 21.2741597,120.352361 C21.6037714,120.261301 21.6676337,119.973994 21.7416879,119.684297 C21.9968117,118.684482 22.2853304,117.698684 22.8604161,116.820138 C23.0962403,116.459918 23.2902125,116.068946 23.4714989,115.677213 C23.617981,115.360567 23.7393084,114.995565 23.37023,114.750746 C23.0260894,114.522335 22.7361612,114.748247 22.5213714,114.999586 C22.1349451,115.451627 21.7653245,115.918446 21.5065143,116.464482 C21.2209231,117.067022 20.9116952,117.65837 20.5483634,118.383157 M31.0129934,110.870256 C26.7676161,110.682702 22.3613363,111.488878 18.0903707,110.859172 C16.3431033,110.60153 14.8036864,109.986928 14.0913348,108.153119 C13.9394315,107.762256 13.9542857,107.492987 14.3113289,107.216329 C15.7872088,106.072535 17.0525275,104.702502 18.3643604,103.381695 C19.4207443,102.318094 20.6740278,101.460737 21.6314198,100.292602 C21.9986549,99.8445815 22.3909363,99.4348106 22.8716923,99.1058855 C23.0823619,98.9617974 23.2920557,98.7333862 23.0863736,98.469442 C22.8855707,98.211909 22.617978,98.3530631 22.4119707,98.5093216 C22.0818168,98.7595742 21.7731311,99.0380793 21.4496996,99.2974596 C20.191537,100.30662 18.8182271,101.155501 17.4936,102.071536 C16.2623267,102.923025 15.2138579,103.960764 14.0557714,104.903856 C13.6313963,105.249515 13.2211165,105.586916 12.6418022,105.63136 C11.8454212,105.692537 11.3002608,105.2857 10.8611399,104.69131 C9.94050403,103.445372 9.38807912,101.848449 8.72668718,100.455598 C7.75324835,98.4056564 6.78490549,96.3533245 5.8046359,94.3066432 C5.68872967,94.0647577 5.51893626,93.8478649 5.36529817,93.6254302 C5.2657641,93.4814508 5.12502857,93.3802849 4.95111502,93.4823201 C4.77850256,93.583486 4.88291575,93.747025 4.92249084,93.8730749 C5.2744381,94.9929633 5.59158095,96.1264347 6.00131868,97.225025 C6.82383004,99.429812 7.38286886,101.723051 8.26707399,103.90578 C8.67973919,104.924068 9.15127912,105.90541 9.84855971,106.770264 C10.2562374,107.275985 10.7109714,107.695427 11.3306198,107.9058 C11.6058022,107.999251 11.7699575,108.135624 11.8463971,108.451727 C12.2718564,110.208928 13.4935883,111.246993 15.0957832,111.872244 C16.1942359,112.300922 17.3732484,112.445988 18.5348044,112.583883 C20.9354403,112.86869 23.3495209,112.914112 25.7654447,112.823051 C26.0181832,112.813598 26.2712469,112.8061 26.5239853,112.808599 C27.3751209,112.817184 27.6346901,113.293131 27.1935092,114.051386 C25.2586667,117.377474 23.8031707,120.963921 22.6035575,124.615783 C22.3240381,125.466728 21.6268659,126.416449 20.9692689,125.659498 C19.2035692,123.626943 17.4173773,121.575263 15.7280088,119.669518 C14.0698667,117.798981 12.5123429,114.754006 10.9800821,112.791539 C10.2420337,111.846056 10.0323399,110.931107 10.4110681,109.832843 C10.4996513,109.576288 10.5255648,109.359395 10.1593055,109.265944 C9.90320586,109.200637 9.66152674,109.066872 9.40553553,108.977333 C8.84064176,108.779783 8.43578315,108.397612 8.15604689,107.848426 C5.85527033,103.330405 4.35087473,98.4027225 2.8742359,93.5691424 C2.85309304,93.4999236 2.83227546,93.4302702 2.80516923,93.3633333 C2.42275458,92.4152423 2.56359853,92.130652 3.57574505,91.8347606 C4.63245421,91.5258297 5.72201612,91.4078209 6.8027956,91.2259178 C8.20299487,90.9903348 9.5930022,90.6466314 10.993852,90.3834479 C12.8726388,90.0305081 14.7503414,89.6733304 16.6090696,89.2253098 C17.0276982,89.1244699 17.1703853,89.379721 17.3640322,89.6655066 C18.8207209,91.8166138 19.9625436,93.8124405 22.2471648,95.1962731 C26.4775795,97.7587812 31.8693333,98.4345609 36.6043575,97.0185639 C37.1700103,96.8494831 37.5632674,97.2287195 37.4044249,97.8174596 C36.7984381,100.06343 36.053559,102.268 35.374819,104.492129 C34.7723018,106.466549 34.4687121,108.883122 33.1247853,110.524162 C32.8877685,110.813533 32.6648469,110.950558 32.3111648,110.92926 C31.8787663,110.903072 31.4457172,110.889272 31.0129934,110.870256" id="Fill-7" fill-opacity="0.8"></path>
                    <path d="M56.7327912,8.09544787 C56.7556689,5.28866373 56.96623,1.30939794 59.758063,0.788898678 C62.557052,0.267312775 65.868674,-0.366196769 68.6381714,0.481380323 C69.1143736,0.626989721 69.3176703,1.47348018 69.1600205,2.15480176 C68.2041465,6.28837004 64.42543,10.4784435 61.2833846,13.1559178 C58.7640234,15.3020264 55.6493011,16.5331865 52.6498344,17.8393245 C51.0187985,18.5488987 49.441433,19.1911013 47.7618227,19.7637592 C43.0758066,21.3622026 38.5234784,22.4705727 33.562063,22.5857562 C31.6949861,22.6292217 29.4632762,22.8063436 27.6801201,22.1695742 C26.712211,21.8251101 25.4796366,21.5860499 24.8278945,20.7221733 C24.3688234,20.1136564 24.3487648,19.6029369 24.8914315,19.0357122 C26.5797158,17.2699266 28.301178,15.5302203 30.2623678,14.0686931 C31.142019,13.4134508 36.5476513,8.97888399 37.4225319,9.83298091 C37.6538022,10.0579148 37.6194315,10.3317474 37.4852015,10.5849339 C36.8247853,11.8313069 36.6522813,13.2863142 36.8372542,14.6739501 C36.9046945,15.1792364 37.4451927,18.0479589 38.2133832,17.8664905 C38.4530022,17.8088987 38.4204747,17.6024376 38.4041026,17.4220558 C38.247537,15.6943025 38.4917099,13.9600294 38.7945407,12.2627019 C38.986019,11.1891043 38.9691048,8.81154185 39.9890579,8.18889868 C41.8485451,7.05227606 44.0398125,5.7450514 46.1385934,5.18651982 C46.5585231,5.07568282 46.8421626,5.43970631 46.6570813,5.84936858 C46.4943355,6.20904552 46.2837744,6.55350954 46.0589011,6.87950073 C45.1840205,8.15086637 45.0260454,9.730837 45.2890842,11.2206167 C45.3939311,11.8150073 46.0682256,14.8184728 46.9434315,14.7467548 C47.238022,14.7217621 47.1494388,14.2295154 47.1528,13.9545962 C47.1900982,10.8565932 47.5882344,7.69991189 48.8030271,4.78011747 C49.0280088,4.2389721 49.437096,3.78041116 50.0888381,3.65218796 C51.5941011,3.35770925 53.5112703,2.3949486 55.0182681,2.50578561 C55.5026022,2.540558 55.6432293,2.83286344 55.3982974,3.24578561 C54.691367,4.43782673 54.494359,5.86132159 54.8169231,7.2076652 C54.9911619,7.93353891 55.3136176,8.60073421 55.7250901,9.22011747 C55.9418315,9.54610866 56.7024322,10.5621145 56.7221656,9.61674009 C56.7312733,9.18317181 56.7281289,8.66375918 56.7327912,8.09544787" id="Fill-8"></path>
                    <path d="M126.251048,39.5803289 C125.789158,39.789072 125.38148,40.2232922 125.132103,40.5312452 C124.660454,41.0129515 124.79707,41.2245198 124.468542,40.8063818 C123.817993,39.9811894 123.730168,40.2280734 123.418989,40.4435536 C122.988542,40.7419442 122.849758,40.7049985 123.608733,41.61158 C123.939429,42.0072247 123.890637,41.7038355 123.485128,42.0916564 C123.16419,42.364511 122.486535,42.7224493 122.167766,42.9843289 C121.799121,43.2018737 121.716718,43.325207 121.521553,42.881533 C121.459751,42.7278825 121.230974,42.4086285 121.132308,42.2601938 C120.914374,41.9355066 120.914374,41.9355066 120.521875,42.242047 C120.323458,42.3975448 120.194432,42.3662496 120.269245,42.5908576 C120.344059,42.8128576 120.50778,43.2584875 120.616205,43.46321 C120.893773,43.9906637 120.834139,43.8174537 120.354901,44.0948722 C119.942886,44.3326285 119.242462,44.4899736 118.832615,44.719906 C118.523604,44.8932247 118.523604,44.8932247 118.327355,44.3850044 C118.268806,44.0730308 118.172308,44.0194596 118.067136,43.6300088 C117.906667,43.5091747 117.950037,43.3240117 117.765714,43.4226784 C117.584645,43.5199325 116.988308,43.6681498 117.007824,43.8551601 C117.03493,44.1066079 117.20841,44.5544112 117.286476,44.7917327 C117.429597,45.2228018 117.492484,45.3086461 117.286476,45.412746 C116.835429,45.6413744 116.10356,45.7734009 115.66444,46.0314772 C115.541919,46.103304 115.282784,46.100696 115.383619,46.3393216 C115.469275,46.5438267 115.673114,46.4216887 115.817319,46.3972394 C116.172952,46.3367137 117.05011,46.1565492 117.403575,46.0795066 C117.658374,45.9999648 117.658374,45.9999648 117.927267,46.768326 C118.161465,47.5136505 118.236278,47.323815 118.598418,47.2702438 C118.94863,47.2184112 119.272821,47.1318062 119.034286,46.6243465 C118.712264,45.6757122 118.575648,45.8270808 119.999267,45.2990837 C120.117451,45.2554009 120.689934,44.9370162 120.805949,44.8862702 C121.164835,44.7854302 121.164835,44.7854302 121.618051,45.5303201 C121.664674,45.6073627 121.822974,45.9224875 121.882608,45.9888811 C122.243663,45.916511 122.521231,45.8196916 122.835663,45.4821821 C122.734828,45.1347841 122.460513,44.7159941 122.272938,44.3675095 C122.123311,44.090417 122.152586,44.1589838 122.412806,43.9759941 C122.869275,43.6548928 123.725832,43.1793803 124.092308,42.746138 C124.533597,42.3504934 124.409993,42.1381645 125.060542,42.8040558 C125.579897,43.4559295 125.46822,43.177533 125.926857,42.7896035 C126.518857,42.32637 126.251048,42.4857797 125.834696,42.0864405 C125.743619,41.9519148 125.33811,41.6007137 125.218842,41.5011777 C125.218842,41.5011777 125.495326,41.2074596 125.681817,40.9655742 C125.9583,40.6058972 126.162139,40.1367959 126.251048,39.5803289 M130.681289,32.3970044 C128.600615,31.9992952 126.59367,32.1188253 124.601905,32.4676358 C117.806916,33.6553304 111.356718,38.0812041 107.432495,43.722373 C107.165011,44.1069339 106.86218,44.4667195 106.578866,44.8405228 C106.502318,44.9414714 106.41547,45.0627401 106.515654,45.1817269 C106.627982,45.3153833 106.751153,45.2214978 106.842013,45.1364141 C107.954236,44.0947636 109.30315,43.2838062 110.508835,42.3539706 C111.847883,41.3227518 113.221626,40.3370631 114.626813,39.3991865 C119.189333,36.3534508 123.968703,33.6651101 129.496205,32.8609985 C129.897377,32.8023201 130.29096,32.6936564 130.681289,32.3970044 M115.070271,51.1212863 C114.341656,51.122047 113.608703,51.0828194 112.876835,51.0042555 C111.291663,50.8343054 109.644689,50.4991865 108.104296,49.9773833 C106.485512,49.4291747 105.355508,48.666138 104.002799,47.6671924 C103.665814,47.4183524 103.669067,46.9795683 103.653237,46.6177181 C103.586881,45.1005551 103.745832,43.5894772 104.232009,42.1569633 C106.362775,35.8796769 111.696088,30.2606755 118.209172,28.5970338 C123.326828,27.2898091 128.55074,28.4307783 133.240117,30.6160059 C133.638037,30.8018209 133.803927,31.1506314 133.82019,31.586373 C133.861392,32.694743 133.813685,33.8128928 133.557802,34.8777974 C132.031179,41.2324523 127.977172,47.4846373 121.698286,49.913815 C119.589421,50.7295536 117.328762,51.1188957 115.070271,51.1212863" id="Fill-9"></path>
                    <path d="M10.1226253,66.4302673 C10.0773037,67.0586696 9.80667516,67.613072 9.57800703,68.1732335 C8.8439704,69.9718355 6.5730107,70.6651101 5.01353524,69.5400059 C4.17833817,68.9374655 3.71503853,68.05642 3.53299311,67.0357416 C3.49786344,66.8392775 3.50523634,66.6219501 3.32080557,66.4568899 C2.89502095,67.5065815 3.41415941,69.5539148 4.26811399,70.2861997 C5.33750886,71.2033216 7.67916161,71.4202144 8.80352791,70.6748899 C9.6797096,70.0940822 10.7575616,68.117489 10.1226253,66.4302673 M3.05809201,78.636138 C3.00247004,79.4567665 3.19958652,80.3883407 3.21389861,81.3295859 C3.21888615,81.6540558 3.35354989,81.7091483 3.65833231,81.6616623 C7.92571985,80.9968576 12.1131223,79.8307871 16.3761729,79.1011101 C16.9478974,79.0032041 17.2913875,78.747301 17.3622974,78.0959706 C17.4817817,77.0000969 17.6959209,75.9146549 17.8710271,74.824975 C17.9708864,74.2036358 17.6626344,73.8500441 17.0185905,73.9313245 C12.7273495,74.4723612 8.67883927,75.8703201 4.46891692,76.7620147 C3.05776674,77.0608399 3.05885099,77.0659471 3.05809201,78.636138 M0.0465901832,74.727395 C0.110777729,72.9180352 -0.132202491,70.42442 0.10991033,68.2426696 C0.261596777,66.8763319 0.352890549,65.5416153 0.52431033,64.1777768 C0.602159414,63.5590455 1.32448615,62.491533 1.93025612,62.6374684 C2.6310063,62.8063319 2.78789714,62.9566138 3.51174183,63.0426755 C3.78855062,63.0756006 3.95736821,62.9599824 4.15990593,62.75363 C4.4087411,62.5002261 4.72165538,62.3098473 5.07208469,62.2410631 C5.24274549,62.207486 6.01093597,62.2903965 5.99055209,61.9954831 C5.96420484,61.6145081 5.86488762,61.3640382 5.46946198,61.2641762 C4.37838212,60.9887137 3.3740422,61.61679 2.3075748,61.4798737 C1.73671766,61.4065257 1.38943267,61.0200088 1.3826019,60.5185257 C1.37609641,60.0374714 1.68348103,59.6807283 2.22799092,59.5378355 C2.60043048,59.4401468 2.96191912,59.422326 3.34541802,59.5390308 C4.2650781,59.8190573 5.29695795,59.7886314 6.17964513,60.1817768 C6.77652425,60.4476769 7.15449348,60.9235154 7.22269275,61.5752805 C7.25901509,61.9219178 7.35009201,62.0984963 7.74768615,62.1544581 C8.41428249,62.2481263 9.07643341,62.5467342 9.53680557,63.047674 C10.0174532,63.5706725 10.113084,64.2543847 10.3137785,64.911257 C13.8342593,66.5682702 17.9242637,66.7965727 21.4008,68.4995507 C21.7937319,68.6919941 21.851956,68.8795477 21.7578432,69.286928 C21.0718388,72.2542085 20.4534916,75.2368106 19.7550183,78.2011571 C19.0812659,81.0611865 18.1681114,83.8690573 17.5994227,86.7526667 C17.5536674,86.9845551 17.4439414,87.0570338 17.2101773,87.1052805 C12.6969905,88.036094 7.97429421,88.5800646 3.49146637,89.8558855 C3.08617407,89.9712863 2.62363341,90.0413744 2.21888322,89.9646579 C1.64076161,89.8550162 1.54274549,89.2962673 1.42065905,88.7975007 C0.913230476,86.7239794 0.596629744,83.7695213 0.312231209,81.6765492 C-0.0766889377,78.8144552 0.0294590476,77.985351 0.0465901832,74.727395" id="Fill-10" fill-opacity="0.9"></path>
                    <path d="M101.082157,10.8011747 C101.004308,10.7457562 100.948577,10.7077239 100.893823,10.668605 C99.4270505,9.60696035 99.8651956,9.51568282 98.6969172,11.0337151 C98.6201524,11.1336858 97.8207355,11.8204405 98.149263,12.3691924 C98.6188513,13.1537445 98.567241,13.2167695 99.2691839,12.5234949 C99.7991648,12.0106021 100.346385,11.5161821 100.885257,11.013069 C100.948144,10.9543906 101.003007,10.8870191 101.082157,10.8011747 M125.636278,25.0893686 C125.500747,25.2556241 124.357949,25.1632599 124.142183,25.1752129 C123.324659,25.2186784 122.507136,25.2643172 121.690696,25.3197357 C121.362168,25.3414684 121.137729,25.258884 120.97726,24.9644053 C120.580425,24.2330984 120.207443,23.4854919 119.759648,22.7878708 C118.943209,21.5143319 118.173392,20.2071072 117.118418,19.0976505 C116.124161,18.0512188 115.197128,16.9200294 114.064088,16.0322467 C112.347722,14.6880764 110.69641,13.2482819 108.779458,12.1714244 C107.914227,11.6856975 107.204261,11.1673715 106.131396,10.8229075 C105.893729,10.7468429 105.834963,10.8370338 105.842336,11.0315419 C105.849166,11.2119236 105.994347,11.3064611 106.132481,11.3988253 C108.328085,12.8733921 110.40041,14.5239941 112.181832,16.465815 C113.958916,18.401116 115.674198,20.4092217 117.046857,22.6857269 C117.518505,23.4670191 117.913172,24.261351 118.255795,25.0958884 C118.367473,25.3675477 118.336029,25.4783847 118.028103,25.5218502 C115.709978,25.8445815 113.570755,26.8486344 111.66356,28.1819383 C110.709421,28.848047 109.810579,29.5913069 108.943179,30.3660793 C108.379478,30.8691924 107.789213,31.3473128 107.265521,31.8938913 C106.985676,32.1861968 106.687508,32.5024082 106.481392,32.8533921 C106.315502,33.1359178 105.619522,33.9454626 105.287959,34.126931 C104.820648,34.3822907 104.658119,30.6529515 104.564006,30.1563583 C104.089864,27.6505727 103.48572,25.3371219 102.041717,23.1920999 C101.164018,21.8881351 100.079985,20.7221733 98.8367853,19.7615859 C98.2126916,19.2791189 97.550107,18.8640235 96.8601993,18.4837004 C96.1710505,18.104464 95.5279824,17.5915712 94.7569729,17.3851101 C93.9080059,17.1580029 96.9280733,14.851072 97.1800527,14.6446109 C97.4166359,14.4522761 97.4168527,14.3197063 97.2083516,14.0828194 C96.8036015,13.6231718 96.4464498,13.1211454 96.0726007,12.6343319 C95.8710388,12.3713656 95.9121319,12.100793 96.0373626,11.816094 C96.6910564,10.3306608 97.8079414,9.07885463 98.6125626,7.6738326 C98.8613978,7.24026432 99.1281231,7.12942731 99.6246007,7.34566814 C100.715138,7.81835536 101.818253,8.26930984 102.972762,8.58008811 C103.232548,8.64963289 103.398438,8.61920705 103.604229,8.45403818 C105.917799,6.59371512 105.499713,6.85342144 107.044442,7.51409692 C109.675048,8.63876652 112.170989,10.3143612 114.563927,11.8682526 C118.947546,14.7141557 122.598212,17.708928 126.270564,21.4469604 C126.78233,21.9674596 129.039736,23.9755653 129.330315,24.7090455 C129.61981,25.4370925 127.510945,25.0926285 126.721612,25.1339207 C126.361641,25.1523935 125.999502,25.1371806 125.638447,25.1371806 C125.637363,25.1208811 125.637363,25.1056681 125.636278,25.0893686" id="Fill-11" fill-opacity="0.9"></path>
                    <path d="M69.5718183,25.3947137 C69.6972659,25.0448164 69.5743121,24.7449046 69.5267136,24.4525991 C69.1693451,22.2597651 68.6509656,20.1277827 67.0543004,18.4445815 C66.1730227,17.5155066 65.3052982,16.5733921 64.1686799,15.9366226 C63.8130462,15.737768 63.6264469,15.7747137 63.6431443,16.2158884 C63.6574564,16.5951248 63.6373978,16.9852276 63.7226198,17.3492511 C64.2156278,19.4529809 65.1239033,21.3687225 66.4164366,23.098649 C67.2283223,24.1852863 68.3222212,24.8839941 69.5718183,25.3947137 M71.690441,25.9597651 C71.7000908,27.0398825 71.3607209,27.4517181 70.3807766,27.6071072 C67.0705641,28.1352129 64.0188366,29.2457562 61.1182535,31.0137151 C56.5217963,33.8161527 53.6850755,38.3637298 51.6013656,43.2077416 C50.6146989,45.5013069 50.0186872,47.8845198 49.5165714,50.3152188 C49.3358271,51.1902878 49.133181,52.0780705 48.8473729,52.9333627 C48.6260777,53.5953421 48.2174242,53.7220441 47.6410374,53.3200969 C47.0759267,52.9260822 46.5914842,52.4357915 46.107367,51.9475653 C45.8806505,51.7189369 45.8522432,51.4395624 45.887156,51.1411718 C46.0347223,49.8789339 46.4717832,48.678417 46.6836454,47.4315007 C47.0583619,45.2260617 47.6702037,43.1225492 48.4200703,41.0290338 C49.096967,39.1395888 49.7052308,37.3868429 50.582063,35.5797651 C50.8118154,35.1059912 51.3234725,34.2605874 51.4612806,33.7520411 C51.529263,33.5021145 51.4032733,33.5814391 51.1573656,33.4803818 C50.8070447,33.335859 50.4537963,33.1967695 50.1122579,33.0337739 C49.9153582,32.9392364 49.8169084,33.0316006 49.7024117,33.1641703 C49.5239443,33.3706314 49.4942359,33.7846402 49.2562432,33.9204699 C48.623367,34.2790602 47.9289055,34.2877533 47.3865641,33.7770338 C47.0261597,33.4380029 46.8642813,32.8990308 46.9969934,32.2557416 C47.1828337,31.3538326 47.2252278,30.3986784 48.0635692,29.7901615 C48.6022242,29.4000587 49.6385495,29.6923642 49.9444161,30.3095742 C50.0000381,30.4214978 50.0302886,30.5464611 50.0702974,30.6659912 C50.2104908,31.0843465 49.9786784,31.685257 50.3505758,31.918884 C50.6755253,32.1220852 51.1335121,32.1112188 51.5903062,32.2340088 C51.7906755,32.287254 51.8796923,32.2796476 51.9614447,32.0797063 C52.3519912,31.1256388 52.7545729,30.1770044 53.1552029,29.2261968 C53.2230769,29.0653744 53.2789158,28.9143319 53.061307,28.8252276 C52.3812659,28.5470485 51.7185729,27.9656975 51.1325363,27.5462555 C50.8873875,27.3702203 50.8628835,27.4408517 50.6360586,27.6907783 C50.1213656,28.2590896 49.5312088,28.3883994 49.0465495,28.1113069 C48.3752908,27.7277239 48.1026022,27.0550954 48.3753993,26.2901028 C48.6409319,25.5446696 48.7758125,25.108928 49.3748601,24.5123642 C49.974233,23.9158003 50.6644659,23.8408223 51.2705612,24.2874302 C51.6328088,24.554743 51.9201348,25.3664611 51.6921172,25.8706608 C51.4418725,26.4248458 51.3795282,26.4835242 51.8204923,26.7475771 C52.2655766,27.0148899 52.899537,27.577768 53.4222535,27.7342438 C53.6559092,27.8037885 53.7547927,27.8266079 53.8692894,27.5755947 C54.4186784,26.3748605 54.9795604,25.1795595 55.5607179,23.9940382 C55.7049231,23.6995595 55.6648059,23.5289574 55.3911414,23.3790015 C55.2493216,23.3007636 54.6688147,22.9052276 54.5319824,22.8182966 C54.0785495,22.5270778 54.1735297,22.4651395 53.537726,22.9606461 C52.9480029,23.4202937 52.1801377,23.1888399 51.6091722,22.6563877 C51.0745289,22.1565345 51.1362227,21.5556241 51.3466755,20.9481938 C51.5749099,20.2896916 52.0358242,19.8028781 52.6053802,19.4290749 C53.0673788,19.1259031 54.0378901,19.2247871 54.4118476,19.497533 C54.9921377,19.9224082 54.9931136,20.3950954 54.7360381,21.1101028 C54.5907487,21.5132452 54.7345201,21.6479883 55.0458081,21.867489 C55.4892659,22.1815272 55.835033,22.631395 56.2225436,22.496652 C56.5506374,22.3825551 56.7168527,21.7849046 56.9433524,21.3948018 C58.4760469,18.7564464 60.215833,16.2767401 62.4468923,14.1719236 C63.0381333,13.6133921 63.6621187,13.505815 64.3706755,13.862232 C68.5404806,15.9605286 70.7855267,19.4312482 71.5236835,23.9636123 C71.6338432,24.6395007 71.6405656,25.3327753 71.690441,25.9597651" id="Fill-12" fill-opacity="0.7"></path>
                    <path d="M129.026725,59.5332717 C129.128645,60.2384993 128.952996,61.0322878 129.018051,61.828793 C129.039736,62.0953451 128.955165,62.3462496 128.689524,62.4605639 C128.421714,62.5758561 128.161495,62.5285874 127.933802,62.3291894 C126.648967,61.2052805 125.183062,60.3191278 123.780044,59.3554978 C122.173187,58.2513656 120.37767,56.6073921 118.985495,55.5783465 C118.57348,55.2741968 118.261216,55.1397797 117.783062,55.2873451 C117.474051,55.3829692 116.635927,55.5422702 116.318242,55.537815 C115.344586,55.5240147 115.41181,56.0792863 115.061597,56.8544934 C113.817963,59.6054244 112.616615,62.3667871 111.118183,64.9906902 C110.966388,65.2574596 110.846037,65.5433539 110.686652,65.8050162 C110.556542,66.0181057 110.598828,66.404188 110.225846,66.3908223 C109.878886,66.378326 109.64252,66.1520881 109.453861,65.8618473 C108.673201,64.662091 108.041301,63.3812717 107.446699,62.084696 C106.3528,59.6993098 105.348894,57.2791512 104.839188,54.6845874 C104.740847,54.1837562 104.713524,53.6812952 104.696067,53.1743789 C104.685659,52.8695771 104.808396,52.7754743 105.085204,52.8620793 C107.405931,53.5875184 110.071883,53.7427988 112.488674,53.6904229 C116.102476,53.6120764 119.561231,52.8195918 122.837832,51.30558 C128.08885,48.8849868 132.583062,44.879533 134.543385,39.318232 C134.63663,39.0537445 134.727707,38.788605 134.797099,38.515859 C135.005275,37.7074009 135.318623,36.9467548 135.561495,36.1567695 C135.672088,35.7938326 135.823883,35.4732746 136.253245,35.4178561 C136.693451,35.3602643 136.939575,35.618884 137.172689,35.951395 C138.915077,38.4354479 140.940454,41.724373 142.053978,44.9155007 C142.483341,46.1432922 142.994022,47.3130573 143.470007,48.5243319 C143.609875,48.8791189 143.634813,50.1087577 143.634813,50.1087577 C143.195692,50.060185 142.282755,50.0811571 141.880498,50.0268253 C139.32167,49.680514 136.755253,49.3745169 134.198593,49.0054949 C133.404923,48.8908546 132.629685,48.6580969 131.826256,48.6006138 C131.453275,48.5738825 131.158359,48.6226725 130.892718,48.8856388 C130.700806,49.0765609 130.116396,49.6036887 129.888703,49.7410396 C129.044073,50.2502379 129.317304,50.7812775 129.282608,51.6298326 C129.175267,54.2331982 129.111297,56.8381938 129.026725,59.5332717" id="Fill-13" fill-opacity="0.8"></path>
                    <path d="M70.0993055,107.445392 C69.9227897,107.675759 68.8068806,108.354038 69.1084103,108.6458 C69.6790505,109.197703 70.6323223,110.019636 71.1943971,110.580993 C71.3018462,110.688352 71.4262095,111.11301 71.6472879,110.74714 C71.8106842,110.476675 72.8307458,109.998772 72.3334007,109.506852 C71.7274139,108.907463 70.3559473,107.550361 70.0993055,107.445392 M73.5426637,108.570931 C74.114063,108.309595 74.3309128,107.983604 74.6348278,107.374435 C74.8689172,106.905225 73.5992615,105.874006 73.2357128,105.496291 C72.6181245,104.854849 71.8439707,105.549536 71.4959267,106.163595 C71.4577612,106.230749 71.4228484,106.304858 71.4292454,106.382009 C71.4349919,106.451771 73.5426637,108.570931 73.5426637,108.570931 M63.3505055,117.046593 C63.1596777,117.046593 62.8712674,117.046485 62.5828571,117.046593 C62.1817934,117.046593 61.9908571,117.225562 62.0221919,117.648047 C62.0475634,117.989468 62.0468044,118.335562 62.0232762,118.677093 C61.9994227,119.022209 62.1107751,119.14163 62.4734564,119.156843 C63.2900044,119.322338 64.0188366,119.178684 65.2135707,119.07415 C65.2621451,119.086972 65.5654095,119.033727 65.6061773,118.986784 C65.818907,118.38696 65.6469451,117.600452 65.5922989,117.046593 C65.1471062,116.936408 63.8974007,117.06148 63.3505055,117.046593 M72.1400791,115.524975 C72.1350916,115.414355 71.3123634,114.432144 71.2410198,114.415736 C71.1248967,114.389222 71.0934535,114.484737 71.040759,114.551457 C68.5192293,117.743345 65.9770989,120.958488 63.5660542,124.233069 C62.7609993,125.326443 62.7609993,125.326443 63.3114725,125.909098 C63.323833,125.922247 63.8825465,126.25704 63.8952322,126.269753 C64.0483282,126.424925 64.1845099,126.412103 64.2699487,126.209662 C65.1075311,124.670549 66.22897,123.292367 67.2711502,121.890931 C68.7915927,119.84664 70.3088908,117.825604 71.9310359,115.864549 C72.021137,115.755668 72.0813128,115.621903 72.1400791,115.524975 M66.254233,109.323101 C66.0169993,109.134896 65.7562374,108.965706 65.5436161,108.749031 C65.3288264,108.530182 65.2085832,108.493345 65.0207912,108.786411 C65.0207912,108.786411 61.8646505,112.725145 61.0360674,113.729524 C59.1384147,116.029827 57.4791883,118.303724 57.047115,118.878012 C56.5640821,119.520323 56.5545407,119.495548 57.0977495,120.151442 C57.3263092,120.427339 57.4804894,120.463633 57.7173978,120.163938 C58.1766857,119.582696 58.6580923,119.018514 59.1399326,118.455636 C61.5270154,115.666781 63.8095766,112.795559 65.9445714,109.807742 C66.0269744,109.692341 66.0978842,109.568681 66.254233,109.323101 M53.0887385,123.145454 C53.1243018,122.497383 53.6508132,121.789548 54.0594667,121.382276 C54.3903795,121.05259 54.4225817,120.87775 54.0585993,120.539046 C52.9351004,119.493809 52.8983443,119.431545 53.8737348,118.265148 C57.289011,114.181457 60.3652425,109.777859 63.9014125,105.800549 C64.138104,105.534214 64.6600615,105.133028 64.8062183,104.926675 C65.0787985,104.541354 65.8689993,105.161824 66.1454828,105.495639 C66.7765158,106.081988 67.1517744,106.335283 67.6848996,106.883818 C67.8808234,107.124617 68.0132103,107.140156 68.2298432,106.90642 C69.0638476,106.007228 69.9363429,105.133245 70.9261538,104.404981 C71.8213099,103.746261 72.7949656,103.060485 73.8099311,103.956526 C74.5713993,104.628937 75.1742418,105.457498 75.9519736,106.10459 C77.0080322,106.983028 75.8498374,108.690678 75.1914813,109.392863 C74.4107136,110.225554 73.6344996,111.056288 72.8392029,111.872787 C72.6233289,112.094461 72.6420864,112.231486 72.8126388,112.458485 C73.5015707,113.374954 74.3678857,114.216772 75.0669011,115.147586 C75.2591385,115.403706 75.0253744,115.597888 74.8788923,115.758602 C70.9768967,120.039844 67.6088938,124.767912 64.4423443,129.611272 C64.2929348,129.8399 64.2007736,129.798825 64.0377026,129.639524 C63.6757802,129.286041 63.2846916,128.962006 62.9311179,128.600699 C62.6937758,128.35827 62.5407883,128.298179 62.3103853,128.622649 C61.918863,129.174117 61.5811194,130.005504 60.8008938,129.968123 C60.2284103,129.940849 59.5535736,129.393944 59.6572278,128.684044 C59.7457026,128.078244 60.2984527,127.512432 60.6959385,127.08484 C60.8759238,126.891201 60.8607443,126.772432 60.6733861,126.598787 C59.2549714,125.284282 57.8413275,123.96467 56.4339722,122.638429 C56.175704,122.394913 56.1816674,122.443921 55.8821978,122.745354 C55.2849934,123.34659 54.4843839,124.787037 53.5234139,124.062032 C53.1857788,123.807325 53.069981,123.484593 53.0887385,123.145454" id="Fill-14" fill-opacity="0.8"></path>
                    <path d="M140.193407,55.9611689 C140.177143,56.8026608 140.768059,57.3893363 141.656059,57.4162849 C142.553817,57.4434508 143.245568,56.7380059 143.241231,55.7996946 C143.237978,55.0031894 142.501773,54.3003524 141.644132,54.2736211 C140.839619,54.2485198 140.210755,54.9800441 140.193407,55.9611689 M135.864,61.617116 C135.909538,64.3757621 135.996278,67.1346256 136.060249,69.8854479 C136.067839,70.1913363 136.190359,70.2445815 136.450579,70.2416476 C137.353758,70.2314332 138.258022,70.2042673 139.157949,70.3104317 C139.481055,70.3485727 139.565626,70.2298032 139.51033,69.9079413 C139.40841,69.3201791 139.324923,68.7269838 139.276132,68.1325932 C138.886886,63.3398708 138.440176,58.5401938 138.216821,53.736279 C138.202725,53.4422349 138.100806,53.3581292 137.832996,53.364649 C137.401465,53.3751894 137.026315,53.3020587 136.538403,53.3503054 C136.049407,53.3986608 135.917128,53.3633451 135.900864,53.8675448 C135.815209,56.4459178 135.82063,59.0314626 135.864,61.617116 M133.609846,50.8187665 C136.019048,50.9874126 138.426081,51.2182144 140.837451,51.3381791 C141.641963,51.3782761 142.446476,51.5082379 143.255326,51.565069 C144.249582,51.6349398 144.337407,51.8048899 144.610637,52.8228517 C146.230505,58.8476035 147.378725,65.4592482 147.939282,71.6509075 C148.106256,73.5142731 138.248264,72.5616182 137.592293,72.4969633 C135.320791,72.27279 133.136029,71.5645198 130.907897,71.1042203 C130.079531,70.9329662 129.869187,70.7162907 129.889788,69.8627372 C129.961348,66.9278385 130.349509,64.0147812 130.618403,61.0947695 C130.888381,58.1678032 130.897055,55.2209515 131.274374,52.3034391 C131.451106,50.935906 131.667956,50.7172746 133.068806,50.7826902 C133.248791,50.7911659 133.429861,50.8065962 133.609846,50.8187665" id="Fill-15" fill-opacity="0.9"></path>
                    <path d="M116.79748,131.080405 C116.803985,130.438855 116.287883,129.917703 115.629744,129.903034 C115.15159,129.892385 114.640908,130.414514 114.627897,130.928711 C114.610549,131.640132 115.132073,132.162587 115.849846,132.151721 C116.337758,132.144332 116.790974,131.631113 116.79748,131.080405 M99.6658022,127.378232 C99.6720908,127.871674 99.7177377,128.366094 99.8015502,128.852256 C100.703429,134.083979 108.589714,135.484655 111.680908,131.495827 C113.453656,129.207695 113.644484,125.438584 112.085333,122.995715 C110.521846,120.548282 107.218681,119.939222 104.55956,120.553606 C101.32633,121.300778 99.6250344,124.146138 99.6658022,127.378232 M117.204073,123.265636 C117.066374,123.800153 116.692308,124.943404 116.492806,125.580934 C116.492806,125.580934 116.563282,126.121536 116.828923,126.613783 C117.63452,128.105953 118.311092,129.673536 119.411604,130.99304 C119.811692,131.473007 119.776996,131.979598 119.25222,132.423924 C117.462125,133.941087 115.500718,135.237336 113.506784,136.466758 C112.249055,137.242323 110.998916,138.031548 109.707575,138.751989 C108.611399,139.363765 107.210116,140.336849 105.977541,140.608834 C105.614101,140.689028 105.317342,140.652626 105.077506,140.3099 C103.708967,138.354714 102.298467,136.428399 100.958878,134.453653 C99.650948,132.525416 98.3088645,130.61728 97.0535209,128.657421 C96.0356278,127.068214 94.9242725,125.567351 93.723033,124.122993 C93.6652425,124.053557 93.6128733,123.979339 93.5522637,123.912511 C92.9943092,123.298126 93.0358359,122.633539 93.756211,122.201166 C95.4351707,121.193527 96.9571311,119.973668 98.5073905,118.790211 C100.403092,117.343245 102.436818,116.08242 104.243393,114.514402 C104.816744,114.016831 105.408961,113.540884 106.077292,113.171645 C106.825424,112.758396 107.298916,112.890423 107.771106,113.589783 C108.530081,114.713257 109.27496,115.84575 110.097905,116.925759 C110.515341,117.474185 110.899165,117.75432 110.899165,117.75432 C111.632117,117.756493 113.108864,117.945786 113.828806,118.00968 C114.142154,118.037606 114.279853,118.292423 114.407795,118.530288 C115.167853,119.953457 116.06019,121.291433 116.993729,122.604091 C117.109744,122.767847 117.221421,122.932256 117.204073,123.265636" id="Fill-16" fill-opacity="0.6"></path>
                    <path d="M121.10737,126.780147 C120.734388,126.356141 120.565245,125.874761 120.332132,125.429783 C120.20419,125.18442 120.335385,125.016426 120.47959,124.847888 C120.774505,124.504185 121.029304,124.13212 121.286271,123.760056 C121.752498,123.087319 121.875018,122.129557 121.66359,121.345113 C121.405538,120.383222 120.563077,119.874458 119.593758,120.060273 C119.1297,120.149269 118.686242,120.313351 118.312176,120.614132 C118.06822,120.811031 117.895824,120.771369 117.744029,120.511119 C117.617172,120.29227 117.489231,120.073313 117.351531,119.861527 C117.178051,119.596931 117.527179,119.39862 117.761377,119.159016 C118.32844,118.579078 117.715839,117.745301 117.01433,118.272755 C116.874462,118.377724 116.679297,118.65286 116.290051,118.236787 C116.080791,118.013809 115.703473,117.736499 116.077538,117.35259 C116.468952,116.951947 116.873377,116.562496 117.292982,116.19217 C119.630623,114.128972 121.892366,111.470405 123.38863,108.742728 C123.558857,108.431841 123.841846,107.828758 124.072791,107.700426 C124.297231,107.576115 124.986813,107.676628 125.582066,107.708684 C125.848791,107.723028 125.609172,108.144209 125.494242,108.326329 C125.329436,108.589295 125.292571,109.004934 125.617846,109.223457 C125.991912,109.474361 126.465729,109.084584 126.628366,108.752073 C126.801846,108.399351 126.961231,107.739436 127.462154,107.791269 C127.586842,107.8042 127.462154,107.791269 127.586842,107.801266 C127.999941,107.833974 128.488938,107.749433 128.804454,107.944702 C129.154667,108.162138 128.83156,108.665903 128.886857,109.047747 C129.035399,110.083204 129.973275,110.541656 130.952352,110.405392 C132.459458,110.19578 133.505758,108.918546 133.715018,107.459192 C133.760557,107.144176 133.857055,106.982593 134.151971,106.874364 C134.761319,106.650843 135.054066,106.542179 135.656908,106.301489 C135.960498,106.18022 136.110125,106.257915 136.013626,106.610746 C136.008205,106.628023 136.008205,106.646605 136.006037,106.664752 C135.972425,106.96738 135.663414,107.579918 135.971341,107.815283 C136.083018,107.899715 136.229392,107.919818 136.368176,107.918731 C137.344,107.911125 137.595546,107.224153 137.751678,106.414825 C137.84926,105.908778 137.655179,105.861292 138.054183,105.801419 C138.301392,105.764581 139.465875,105.460758 139.713084,105.412728 C140.200996,105.317539 140.455795,105.590611 140.282315,106.061016 C140.114256,106.516643 139.961377,106.994003 139.701158,107.396385 C139.000733,108.477372 138.462945,109.638009 137.876366,110.778435 C134.401348,117.529821 128.723136,123.301821 123.446095,128.652097 C122.776029,129.330811 122.633993,129.277131 122.103795,128.489319 C121.820806,128.070529 121.539985,127.71748 122.139575,127.317163 C122.469187,127.09701 122.915897,126.458828 122.573275,126.083178 C122.097289,125.558875 121.338315,126.396021 121.10737,126.780147" id="Fill-17" fill-opacity="0.6"></path>
                    <path d="M42.9284571,117.779747 C43.6720352,117.826147 44.4058549,117.907101 45.1395663,117.905145 C45.6157685,117.903841 45.8813011,118.222009 46.0053392,117.684449 C46.0659487,117.422026 46.4574711,116.225313 46.5516923,115.971148 C46.7034872,115.561921 46.8385846,115.756646 47.2758623,115.672758 C48.0927355,115.516173 48.9135121,115.410335 49.7425289,115.360675 C50.479493,115.316449 50.6329143,115.499004 50.4491341,116.21662 C50.0854769,117.636203 49.5534359,119.598018 49.1175678,120.995107 C48.7814505,122.072508 48.4973773,121.71457 47.6055824,121.415419 C44.7871853,120.469827 42.1047531,120.669007 39.6810227,122.555192 C39.4713289,122.718405 39.259033,122.784799 39.0349187,122.653098 C38.7913963,122.509988 38.7461832,122.278752 38.7877099,121.994596 C38.9293128,121.02738 39.1114667,120.069727 39.4262242,119.143695 C39.5377934,118.81553 39.5043985,118.656881 39.1220923,118.591465 C38.6616117,118.512467 38.2028659,118.39109 37.7633114,118.232549 C37.4003048,118.101609 37.2991443,118.246023 37.2044894,118.559844 C35.8033143,123.203046 34.8380073,128.164414 34.8664147,133.071125 C34.8710769,133.881104 34.8701011,134.698473 35.0131136,135.502476 C35.0598447,135.76479 34.9775502,135.972664 34.7755546,136.122728 C34.5334418,136.302567 34.2485011,136.314194 34.0135443,136.141419 C33.3431531,135.648737 32.5449289,135.361756 31.9149802,134.806376 C30.5012278,133.560003 28.8538198,132.626907 27.4059136,131.422913 C26.4226081,130.605327 25.317433,129.93183 24.5250637,128.894526 C24.4403839,128.783689 24.3043106,128.711101 24.1884044,128.625583 C23.8416615,128.369789 23.7878828,128.033909 23.9517128,127.662388 C25.7797568,123.516649 26.9550828,119.02862 28.3176586,114.71217 C28.4913553,114.162223 28.7630681,113.934029 29.3504059,114.093439 C29.7659985,114.206232 30.201433,114.259369 30.631663,114.300009 C31.142019,114.348147 31.283622,114.536352 31.1654388,115.075107 C30.2877392,119.075997 29.1076425,122.969093 28.4685861,127.027357 C28.3653656,127.682382 28.3957245,128.198317 29.0552733,128.588963 C29.6082403,128.916367 30.0767443,129.386881 30.5846066,129.791436 C30.6879355,129.873695 30.7478945,130.073744 30.9261451,129.977034 C31.0525685,129.908467 31.0045363,129.749383 31.0170051,129.627245 C31.5120733,124.763565 31.9582418,119.481639 33.7330491,114.888532 C33.8712908,114.530811 33.9573802,114.371727 34.0525773,113.99988 C34.2312615,113.302367 34.4481114,113.193703 34.9610696,113.401142 C37.2218374,114.315548 40.1428044,114.979918 42.4867341,115.621251 C43.1908454,115.813912 43.4427165,116.352775 43.187159,117.047028 C43.1013949,117.280112 42.9377817,117.486247 42.9284571,117.779747" id="Fill-18" fill-opacity="0.6"></path>
                    <path d="M39.4188513,135.787827 C39.645893,135.40696 39.8359619,135.084012 40.0300425,134.763562 C41.0869685,133.018206 41.7292777,131.136584 41.863833,129.093706 C41.9366945,127.987727 41.6450315,126.943251 41.2722667,125.917683 C41.2285714,125.797609 41.2365949,125.616032 40.9977348,125.699921 C40.2601201,125.959084 39.7366447,126.90272 39.8989568,127.685316 C40.2644571,129.44632 39.7035751,131.742493 38.7147399,133.240532 C38.6118447,133.396464 38.6144469,133.582062 38.6150974,133.765486 C38.6175912,134.530153 39.0161612,135.125956 39.4188513,135.787827 M45.978233,133.913921 C45.8559297,135.387618 46.5370549,136.914452 46.9328059,138.503312 C47.077011,139.082489 47.4119355,139.219514 47.8551766,139.084554 C48.3047062,138.947746 48.9276073,139.0011 49.0685597,138.33999 C49.1644073,137.890774 48.8455297,137.564131 48.6762784,137.207823 C47.9051604,135.583756 47.8175531,133.872628 48.2015941,132.177583 C48.5849846,130.484928 49.542485,129.035354 50.5763165,127.653369 C50.6569846,127.545357 50.9027839,127.462881 50.7048,127.2662 C50.3596835,126.923583 50.0040498,126.591724 49.6535121,126.254432 C49.4755868,126.083178 49.3190212,126.089154 49.1559502,126.285401 C47.2149275,128.621128 45.9106842,130.754631 45.978233,133.913921 M36.6993377,132.237457 C36.7362022,130.161436 37.350104,128.067812 38.4127766,126.391022 C39.6510974,124.437357 41.4604923,123.341374 43.7837128,122.954749 C47.1915077,122.387633 50.7542418,123.770705 52.6511355,126.677134 C54.5434755,129.576282 55.1941333,133.623463 53.5496527,136.7821 C50.6989451,142.257426 41.9452601,142.644812 38.2897143,137.763312 C37.0961729,136.169671 36.6645333,134.200902 36.6993377,132.237457" id="Fill-19"></path>
                    <path d="M45.9477656,109.733742 C47.6858168,109.623122 48.9672908,108.505298 50.005893,107.166018 C51.0605421,105.805874 51.906907,104.302837 52.8100864,102.841636 C54.1163897,100.727909 55.9990799,98.8870367 56.8065201,96.4993686 C56.8717919,96.3061645 57.0086242,96.0848164 56.746778,95.9194302 C56.4758242,95.7481762 56.3368234,95.9873451 56.2119179,96.1334978 C55.4970725,96.9702085 54.7241114,97.7634537 54.0682491,98.6489545 C52.4289729,100.862109 50.5250315,102.736993 48.5050755,104.597424 C47.5060484,105.517372 46.4032586,106.302902 45.2821451,107.067677 C44.4368645,107.644247 43.5494066,108.104438 42.5573187,108.355994 C42.3881758,108.398808 42.1520264,108.372946 42.1183062,108.596032 C42.0791648,108.854543 42.3440469,108.902247 42.5062505,108.982767 C43.5355282,109.493812 44.7607297,109.809263 45.9477656,109.733742 M53.9830271,106.110458 C53.4102183,106.891859 53.072041,107.769753 52.6726037,108.611245 C51.9541802,110.124931 51.0283399,111.507786 49.8922637,112.719386 C48.9482081,113.726264 47.6570842,113.982167 46.3035077,114.130493 C42.9627194,114.496364 39.2562139,113.605213 36.3222359,112.028285 C35.5378901,111.606778 34.9917538,110.817119 35.2665026,109.753301 C35.2978374,109.631924 35.2978374,109.502505 35.3121495,109.376781 C35.4303326,108.332523 36.0174535,107.751063 37.0306842,107.569921 C38.4125597,107.322819 39.8383473,107.354332 41.1906227,106.96738 C42.4626637,106.603357 43.7911941,106.235747 44.9893978,105.623101 C46.5531018,104.823554 47.8434667,103.578919 49.119411,102.393615 C50.4184498,101.186905 51.5728498,99.8288253 52.5610344,98.3557797 C53.3698842,97.1501557 54.27263,95.9882144 55.1841582,94.8467019 C55.6165568,94.3052305 56.7458022,94.1431043 57.4119648,94.3948781 C58.2394637,94.707721 59.0810579,95.164652 59.6175443,95.9104112 C60.295959,96.8536123 60.3755429,98.062279 60.3784703,99.1856446 C60.3817231,100.459618 59.7793143,101.557339 59.3935385,102.718194 C58.5041289,105.395016 57.4358183,108.010335 56.6540747,110.723777 C56.5551912,111.066937 56.2987663,112.062297 56.230567,112.430558 C56.1366711,112.938018 54.8558476,113.125354 54.8558476,113.125354 C54.0010256,112.73938 53.5796864,112.27104 53.6724982,111.312082 C53.8083546,109.90793 53.9544029,108.504755 54.0927531,107.100819 C54.1244132,106.779066 54.177433,106.452423 53.9830271,106.110458" id="Fill-20"></path>
                    <path d="M91.9493099,10.2241703 C91.0397333,11.0989134 90.1419751,11.9856094 89.217219,12.8440529 C88.7975062,13.233069 88.1479326,13.56558 87.5864,13.2080764 C87.0013392,12.8342731 86.8749158,11.950837 86.0798359,11.8171806 C85.7723429,11.765022 85.4126974,11.8769457 85.4364425,12.1377386 C85.6317158,14.2849339 87.0101216,15.8496916 89.3041758,14.9260499 C89.4924015,14.8499853 89.662737,14.7380617 89.777559,14.5750661 C90.7152176,13.2417621 91.426485,11.788928 91.9493099,10.2241703 M89.3547018,17.1982085 C88.2963663,17.1840822 87.239115,17.0938913 86.1921641,16.9363289 C84.8946432,16.7407342 83.8263326,16.3506314 83.6168557,14.8467254 C83.3822242,13.1624376 83.4769875,11.4357709 83.3669363,9.7395301 C83.2182857,7.44998532 82.9581744,5.17022026 82.6059018,2.90349486 C82.4453245,1.8733627 82.6435253,1.49195301 83.6413597,1.22464023 C85.5343502,0.716093979 87.3205421,0.945374449 89.8336147,1.3985022 C92.5734037,1.89292217 94.6069128,2.25477239 96.279367,3.78041116 C96.4759414,3.95970631 96.4807121,4.24657856 96.3590593,4.49976505 C95.5877245,6.10472834 95.0900542,7.82161527 94.6052864,9.52872247 C94.1276747,11.2119236 93.5322051,12.8614391 93.1195399,14.5631131 C92.9977788,15.0651395 92.7849407,15.551953 92.5614769,16.0213803 C92.1999883,16.7798532 91.5443429,17.1264905 90.7293128,17.1699559 C90.271326,17.1949486 89.8129055,17.2036417 89.3547018,17.1982085" id="Fill-21"></path>
                    <path d="M74.9722462,15.6964758 C74.2109949,15.4193833 73.5463502,15.1368576 72.8583941,14.934743 C71.3682022,14.4968282 69.9043575,13.9926285 68.4885451,13.3525991 C68.0065963,13.134185 67.4855062,13.0602937 66.9817641,12.9212041 C66.2336322,12.714743 66.0493099,12.346373 66.3265524,11.6367988 C67.2643194,9.23641703 68.7269714,7.15007342 70.2625934,5.11371512 C71.5524161,3.40334802 73.00943,1.85488987 74.7681905,0.606343612 C75.2923165,0.234713656 75.865559,0.0869309838 76.4766418,0.00651982379 C76.7242842,-0.0260792952 76.8527678,0.0662848752 76.9659634,0.30969163 C78.1005216,2.74919236 79.1171136,5.25063142 80.579874,7.52387665 C81.3134769,8.66484581 81.3245363,9.85145374 80.6215092,10.953304 C79.8648117,12.1409985 78.7948747,12.963583 77.289178,12.9548899 C75.9554432,12.94837 74.6895824,11.6998238 74.6193231,10.3556535 C74.5545934,9.11580029 75.049011,7.40217327 77.9558828,7.50866373 C78.4972484,7.5282232 78.3182388,7.37066079 78.148337,7.12508076 C77.4064938,6.0482232 76.9439531,4.81597651 76.2485158,3.71303965 C76.1103824,3.49462555 76.008463,3.36314244 75.7701451,3.61741557 C73.9683399,5.53859031 72.5059048,7.71077827 71.1334623,9.94707783 C70.8434256,10.4197651 70.6478271,10.953304 70.4358564,11.4694567 C70.3087824,11.7791483 70.291326,12.0551542 70.7426989,12.1627313 C71.9848147,12.4582966 73.1716337,13.1287518 74.3774271,13.6133921 C75.6912117,14.1404112 77.0930374,14.3523054 78.318022,15.1053451 C78.7594198,15.3770044 79.0330842,15.8583847 79.1461714,16.3365051 C79.4980103,17.823025 79.5258755,19.3019383 78.4972484,20.573304 C77.4525744,21.8642291 76.1455121,22.4151542 74.7526857,21.7729515 C73.1134095,21.016652 72.7960498,18.5934508 73.7996308,17.1493098 C74.1375912,16.6624963 74.4338081,16.1365639 74.9722462,15.6964758" id="Fill-22" fill-opacity="0.8"></path>
                    <path d="M66.1237978,83.6666167 C65.8621685,83.6327137 65.6564864,83.6607489 65.5194374,83.8769897 C65.0952791,84.5488576 66.7960322,86.1787048 67.1602315,86.6689956 C67.3654799,86.9452188 67.6418549,87.1006079 67.9518418,86.8921909 C68.2801524,86.6713862 68.1664147,86.3644112 68.0022593,86.0767783 C67.6350242,85.433815 67.2587897,84.7953069 66.9149744,84.1399559 C66.7307604,83.7889721 66.4759619,83.6285844 66.1237978,83.6666167 M64.8921993,80.5642673 C64.8820073,79.9037004 65.0302242,79.2744288 64.4699927,78.9562614 C63.3434579,78.3163407 62.0992821,78.0203407 60.8095678,77.9304758 C60.5383971,77.9116769 60.3013802,78.0037151 60.218652,78.2967812 C60.143622,78.5625727 60.2804542,78.7503436 60.4910154,78.8908458 C60.7499341,79.0635125 60.9880352,79.254652 61.1043751,79.5566285 C61.3049612,80.0770191 61.5909861,80.41442 62.2067311,80.1098355 C62.2608352,80.0831043 62.3479004,80.1047283 62.4139311,80.1237445 C62.9892337,80.2902173 63.7258725,81.2036446 63.7660982,81.805207 C63.7874579,82.1253304 63.8855824,82.3924258 64.2514081,82.4047048 C64.6137641,82.4169838 64.7473436,82.1674919 64.7769436,81.843348 C64.8195546,81.375768 64.8611897,80.9080793 64.8921993,80.5642673 M58.1571692,76.8096094 C58.1571692,76.6286843 58.1513143,76.4475419 58.1586872,76.2669427 C58.166819,76.0655888 58.2782799,75.9796358 58.4794081,75.9984347 C60.587622,76.1946814 62.6618989,76.4712305 64.5488176,77.578514 C65.5383033,78.1592129 66.2395956,78.9024728 66.399956,80.0345316 C66.5553289,81.1310573 66.3616821,81.4184728 66.799285,82.4051395 C67.3637451,83.6774831 68.6297143,85.6200646 69.3955194,86.7951542 C71.3600703,89.8095947 73.0072615,93.0145228 74.8616527,96.0955742 C77.1218784,99.8509927 79.869474,103.410273 81.6286681,107.450173 C81.7006623,107.615777 81.7738491,107.782467 81.8263267,107.954808 C82.0659458,108.741316 81.9257524,109.108056 81.2380132,109.523803 C79.8334769,110.372902 79.3898022,109.211504 78.5702183,108.103786 C73.5395194,101.303935 69.8023297,93.6844347 65.5468689,86.4009222 C65.1769231,85.7679559 64.7156835,85.1858443 64.2677802,84.6024288 C64.0337993,84.2977357 63.7296674,84.1289809 63.294233,84.125395 C62.6485626,84.1201791 62.0028923,84.0086902 61.3589568,83.9284963 C61.0309714,83.8876388 60.8191092,83.6539031 60.6218842,83.4138649 C59.5552,82.116094 58.9656938,80.5823054 58.4966476,78.9994009 C58.286737,78.2912394 58.127244,77.5612364 58.1571692,76.8096094" id="Fill-23"></path>
                    <path d="M88.6355194,18.9487812 C94.1522872,18.8314244 99.5758095,22.251072 101.566925,27.466931 C103.141579,31.5918062 102.712542,35.6851689 101.802423,39.9204464 C101.768486,40.0781175 101.793749,40.3207636 101.54383,40.3405404 C101.2912,40.3605345 101.091373,40.2629545 100.983707,40.0063994 C100.520949,38.9037885 99.9256967,37.8758297 99.2283077,36.9065492 C99.1327853,36.7739794 99.1363634,36.6381498 99.1546872,36.493627 C99.6742593,32.3959178 98.6178755,27.9917768 95.7752996,24.9079001 C92.2665612,21.1014097 85.8249289,21.2068135 82.098907,24.6373275 C81.65263,25.0480764 81.2601319,25.516417 80.9194608,26.0184435 C80.4273201,26.7443172 80.5620923,26.8725404 80.1547399,26.8812335 C79.6348425,26.8920999 77.3841582,26.9290455 76.8662125,27.0072834 C76.4332718,27.0724816 75.4948542,26.9583847 75.5718359,26.3303084 C75.5928703,26.1586197 75.6841641,26.0054038 75.7762168,25.8597944 C77.0970491,23.7636711 78.9784381,22.0272247 81.1559355,20.8558297 C83.3002549,19.7007342 85.9704352,19.006373 88.6355194,18.9487812" id="Fill-24"></path>
                    <path d="M128.342564,66.2653157 C128.216791,67.1627695 128.098608,68.0408811 127.967414,68.9171454 C127.795018,70.0689809 127.4177,69.819163 126.808352,69.5038209 C125.585319,68.8712893 123.246593,67.8896211 121.986696,67.3583642 C121.465172,67.1386461 121.260249,66.8507959 121.05641,67.3566256 C120.635722,68.4058825 120.076249,70.0029134 119.716278,71.0646667 C118.867311,73.5646931 118.185319,76.1368722 117.586813,78.7078561 C117.582476,78.7254596 117.578139,78.7433891 117.573802,78.7603407 C117.040352,80.7274802 116.818081,80.1477592 116.23367,78.9076887 C115.23074,76.7813568 114.351414,74.5966725 113.231385,72.5268458 C112.765158,71.667207 112.316278,70.8055037 111.969319,69.8882731 C111.804513,69.4552482 111.80885,69.0988311 111.958476,68.6479853 C112.613363,66.6745433 113.402696,64.6757827 114.26359,62.7548253 C114.7103,61.7597915 115.899722,59.3163789 116.37137,58.3335154 C116.723751,57.5996006 116.896147,57.2299266 117.30274,57.4180235 C117.907751,57.6980499 118.480234,57.8520264 119.007179,58.2926579 C119.191502,58.4459824 119.123194,58.5671424 119.050549,58.7114479 C117.900161,60.9982761 117.17263,63.4509251 116.282462,65.8388106 C115.968029,66.6809545 115.818403,67.5843847 115.590711,68.4592364 C115.558183,68.5851777 115.551678,68.7004699 115.60589,68.8271718 C115.842256,69.3747283 116.058022,69.9315213 116.305231,70.4736446 C116.389802,70.6601116 116.439678,70.9588282 116.678212,70.9596975 C116.942769,70.9604581 116.934095,70.645442 117.002403,70.4562584 C117.491399,69.11437 117.969553,67.7681351 118.39241,66.4036446 C118.777319,65.1606402 118.990916,63.8053862 119.732542,62.7089692 C119.968908,62.3582026 120.257319,62.2034655 120.697524,62.4101439 C122.494125,63.2539178 124.303736,64.0686784 126.150212,64.7945521 C126.806183,65.0518678 127.424205,65.3961145 128.107282,65.587254 C128.518212,65.7021116 128.226549,66.0536388 128.342564,66.2653157" id="Fill-25"></path>
                    <path d="M117.751619,110.712258 C118.77515,109.758952 119.279326,108.718605 119.41811,107.496247 C119.490755,106.856109 119.153553,106.32257 118.5377,106.038523 C118.054125,105.815979 117.253949,105.987451 116.886388,106.392875 C116.657612,106.645301 116.607736,106.938584 116.730256,107.248385 C116.838681,107.524499 117.062037,107.653592 117.359121,107.673912 C117.971722,107.71553 118.077978,107.84321 118.099663,108.472156 C118.123516,109.182816 117.850286,109.847621 117.751619,110.712258 M121.380601,107.55286 C121.382769,108.222772 121.198447,108.915612 120.837392,109.588241 C119.87241,111.387386 118.416264,113.067762 116.937348,114.458767 C116.150183,115.198658 115.198212,116.245633 114.214799,116.698652 C113.788689,116.895116 113.469919,116.921087 113.182593,116.51262 C112.516864,115.568006 111.532366,114.839959 110.769055,113.974235 C108.905231,111.861269 106.280806,108.234834 109.191473,105.782294 C110.257289,104.884623 112.44422,104.39857 113.791941,105.655374 C114.076015,105.921166 114.24841,105.900085 114.478271,105.594849 C115.268689,104.545918 116.385465,104.027809 117.64211,103.945116 C118.482403,103.889915 119.29559,104.175918 119.989509,104.748358 C120.923048,105.517698 121.377348,106.507298 121.380601,107.55286" id="Fill-26"></path>
                    <path d="M5.80627311,52.662464 C5.97628337,52.6313862 6.02984527,52.5109868 6.05977055,52.3889574 C6.38667165,51.0568488 6.94983062,49.7879824 7.07376029,48.3993686 C7.14000791,47.6568693 7.88564601,46.9089369 8.52817201,46.8330896 C9.20355077,46.7534391 9.59659106,47.1463671 9.41964161,47.8048693 C9.23217495,48.5018385 8.97314784,49.1807695 8.72062623,49.8583965 C8.55538667,50.3018532 8.43720352,50.753025 8.34937934,51.2164758 C8.32574271,51.3411131 8.23802696,51.4534714 8.40467604,51.5348605 C8.55885626,51.6101645 8.63627165,51.5025874 8.71553026,51.4010954 C9.09382476,50.9167812 9.50898374,50.4564816 9.84043868,49.9419589 C10.2142878,49.3616946 10.7148856,48.8870514 11.091326,48.3129809 C11.4419722,47.7783554 11.9534125,47.5616799 12.5791326,47.6079706 C12.9767267,47.6374185 13.257981,47.8321439 13.3801758,48.2272452 C13.5013949,48.619304 13.3056879,48.8336975 13.0185788,49.0917739 C11.8447707,50.1472247 10.8926916,51.404464 9.93097348,52.6494244 C9.84087238,52.7661292 9.77527531,52.9091307 9.9023493,53.0427871 C10.0438438,53.1915477 10.2086497,53.1477562 10.3414702,53.0378972 C11.0449201,52.4558943 11.9179575,52.0865463 12.4589978,51.2982996 C12.8221128,50.7691072 13.3382154,50.4637621 13.9796571,50.3481439 C14.5247092,50.2499119 14.9087502,50.4520264 15.1475018,50.9165639 C15.3794227,51.3675184 15.2284952,51.7844611 14.8634286,52.0835037 C14.2213363,52.6095448 13.5332718,53.0792981 12.8924806,53.6068605 C12.1819722,54.1916887 11.5329407,54.8392159 11.0138022,55.6125756 C10.5021559,56.374417 10.7957705,57.3579325 11.6605568,57.6355683 C12.1043399,57.7780264 12.5829275,57.8279031 13.00817,58.0086109 C13.5523546,58.2398473 14.0018842,58.6372305 14.3553495,59.1144816 C14.5131077,59.3275712 14.4847004,59.593906 14.3503619,59.8368781 C14.1981333,60.1121233 13.9598154,60.0485551 13.730822,59.9996564 C12.4054359,59.7160441 11.0823267,60.050511 9.75575883,60.0292129 C8.68311121,60.0119354 7.6309559,59.9791189 6.60623209,59.6624728 C6.05315663,59.4915448 5.68364454,59.0962261 5.54388484,58.5258502 C5.47134857,58.2299589 5.32768557,58.0701145 5.02344527,57.9882907 C3.69014418,57.6294831 2.99199619,56.5217651 3.19854564,55.1302173 C3.31044015,54.3759824 3.46418667,53.6371777 3.84638447,52.959768 C4.02821304,52.63758 3.97877128,52.2560617 4.00772073,51.898558 C4.08708777,50.9188458 4.16320205,49.9438062 4.88097495,49.1645786 C5.09608996,48.9309515 5.2925559,48.6453833 5.64200938,48.8323935 C5.97411487,49.0101674 6.08839473,49.3399618 6.01390681,49.7168076 C5.88780864,50.3547724 5.75195223,50.9907812 5.63019106,51.6295066 C5.56058227,51.9947254 5.61999912,52.342558 5.80627311,52.662464" id="Fill-27"></path>
                    <path d="M64.5171575,96.2244493 C64.1717158,96.2070631 63.9667927,96.6127048 63.6674315,96.852417 C62.8848205,97.4794068 62.8219341,99.0514449 63.514444,99.7564552 C63.7125363,99.9580264 63.9261333,100.048761 64.1923165,99.9713921 C64.4627282,99.8928282 64.6416293,99.6819119 64.6354491,99.4164464 C64.6170168,98.616464 64.8444923,97.9085198 65.2275575,97.2087254 C65.5034989,96.704417 65.1600088,96.2085844 64.5171575,96.2244493 M61.7306374,98.6412394 C61.7278183,98.5953833 61.725433,98.5497445 61.7233729,98.5044317 C61.693556,97.8298473 61.6703531,97.1221204 61.9681963,96.5164288 C62.6008557,95.2303935 64.3197158,95.3193891 64.7383443,93.9333833 C64.9044513,93.3832188 65.034019,92.8169721 65.0850872,92.2364905 C65.1682491,91.2926373 65.7922344,91.008699 66.5788571,91.4990984 C67.4518945,92.0435037 67.9535766,92.9820323 68.5113143,93.8183084 C69.3186462,95.0288223 70.0408645,96.2952981 70.8656527,97.4930984 C71.791493,98.8406373 71.9140132,100.544267 71.1457143,102.001122 C70.6648498,102.912919 69.8111121,103.75941 68.799074,104.036502 C67.6078095,104.362711 66.6203839,103.721703 65.6121407,103.177407 C65.4100366,103.068308 65.1968733,102.958558 64.9670125,102.955841 C63.2815473,102.936499 62.502948,105.543233 61.6616791,106.594881 C61.4278066,106.887295 61.119663,107.025407 60.7502593,106.890012 C60.3628571,106.747988 60.189052,106.439275 60.22017,106.037762 C60.2824059,105.235389 60.718274,104.384335 60.9510623,103.616408 C61.2547604,102.614311 61.7143736,101.505507 61.8104381,100.460053 C61.8620484,99.8753333 61.7669597,99.2359559 61.7306374,98.6412394" id="Fill-28" fill-opacity="0.7"></path>
                    <path d="M36.1282637,33.7379148 C36.0999648,32.8751248 36.0861949,32.0101615 36.0544264,31.1484581 C35.9796132,29.1120999 35.5794168,27.1398532 35.5865729,25.1132746 C35.5883077,24.629721 35.9796132,24.4797651 36.4101685,24.4210866 C38.5436454,24.1298678 40.7786081,23.470279 43.0076073,23.470279 C43.7362227,23.470279 43.9305201,23.4528928 43.8678505,24.1896329 C43.7501011,25.5761821 43.1874842,27.158326 43.1440059,28.2460499 C43.1306696,28.5807342 43.0571575,29.3348605 43.7055385,29.3348605 C44.0861099,29.3337739 44.1522491,29.1490455 44.1824996,28.8437004 C44.3941451,26.7117181 45.1097495,24.7264317 45.9401758,22.7737445 C46.1790359,22.211953 46.2946168,21.927254 46.8482344,21.8338032 C47.0992381,21.7903377 48.8294828,21.8153304 48.8294828,21.8153304 C49.0309363,22.0685169 47.8532249,24.3645815 47.7438242,24.6601468 C47.2702242,25.9391189 46.5429099,27.9667841 46.1289436,30.6181791 C45.9487414,31.772188 45.7415414,31.8591189 44.7076015,31.8156535 C44.1857524,31.7939207 42.3503355,31.8167401 41.8189451,31.756975 C40.4076864,31.598326 40.3686535,31.1919236 40.4917158,29.7564758 C40.5585055,28.9784435 40.548422,28.2025844 40.5740103,27.4256388 C40.5884308,26.9909838 40.518822,26.7562702 40.0245128,26.9551248 C39.926063,26.9942438 39.8125421,26.996417 39.7059604,27.0159765 C38.7061744,27.2007048 38.7278593,27.2028781 38.628,28.2340969 C38.3558535,31.0419677 38.2082872,33.8607048 37.9947985,36.6729222 C37.9743062,36.9434949 37.9368996,37.2129809 37.8878916,37.479207 C37.8167648,37.8660499 37.6916425,38.2735389 37.2286681,38.2757122 C36.7852103,38.2789721 36.5233641,37.9779736 36.4483341,37.5215859 C36.2423267,36.2686931 36.1697905,35.0038473 36.1282637,33.7379148" id="Fill-29" fill-opacity="0.9"></path>
                    <path d="M93.9869392,29.9770631 C94.568422,29.9553304 95.2734007,29.4098385 95.2558359,29.0371219 C95.23903,28.6807048 95.0223971,28.5198825 94.6803165,28.5405286 C94.1866579,28.5687812 93.5571429,29.1783847 93.5843575,29.5847871 C93.6047414,29.8879589 93.793726,29.9792364 93.9869392,29.9770631 M86.8100777,26.703025 C87.5644982,26.6986784 88.114863,26.3422614 88.1021773,25.8891336 C88.0906842,25.4751248 87.8357773,25.2165051 87.4469656,25.2545374 C86.6929788,25.3262555 86.1719971,25.4892511 86.1975853,26.0814684 C86.2154755,26.4965639 86.4750447,26.6834655 86.8100777,26.703025 M91.6836689,26.7051982 C91.6758623,26.3400881 91.6323839,25.9847577 91.404041,25.6815859 C91.2396689,25.4631718 91.0281319,25.3447283 90.7491546,25.4110132 C90.4874168,25.4729515 90.3865817,25.6761527 90.3202256,25.9152129 C90.2333773,26.2270778 90.3294418,26.5248164 90.3779077,26.8236417 C90.4429626,27.2235242 90.6630652,27.50279 91.1009934,27.4658443 C91.544126,27.427812 91.6981978,27.1202937 91.6836689,26.7051982 M97.6160293,35.0636123 C96.5053245,33.8107195 95.3708747,32.4741557 94.006781,31.4461968 C92.6146051,30.3975918 91.0873319,29.5380617 89.4816674,28.8621733 C87.1667956,27.8896329 84.7548835,27.553862 82.3107692,27.0822614 C81.9306315,27.00837 81.8280615,26.8866667 82.117556,26.5780617 C82.6747516,25.9847577 83.2459341,25.3979736 83.9348659,24.9654919 C85.8636366,23.7560646 88.2954989,23.2181791 90.5485685,23.545257 C92.9622154,23.8940675 94.7940542,25.6131278 95.9538755,27.6777386 C96.543707,28.7274302 96.9794667,29.8629662 97.2937905,31.0245815 C97.4442842,31.5809398 97.5822007,32.1514244 97.6612425,32.7229956 C97.7099253,33.0750661 97.7227194,33.4271366 97.713178,33.782467 C97.7078652,33.9834949 97.5051106,34.938649 97.6160293,35.0636123" id="Fill-30"></path>
                    <path d="M61.2435927,92.0482849 C61.7394198,92.0759941 62.0266374,91.8325874 62.0705495,91.3403407 C62.0977641,91.0362996 62.129641,90.7318238 62.1361465,90.4271307 C62.1446037,90.0277915 61.989556,89.7186432 61.5709275,89.6223671 C61.0428982,89.5009897 60.1873172,90.0776681 60.13137,90.5789339 C60.0585084,91.2311336 60.6520264,92.0152511 61.2435927,92.0482849 M55.3928762,89.5341322 C55.4219341,87.9798062 55.8148659,86.3209457 56.2409758,84.9088605 C56.7280205,83.2952041 58.4028601,83.7813656 59.1607502,84.8460529 C59.4506784,85.2533245 59.8064205,86.4343906 60.4228161,86.03842 C62.1657465,84.9187489 63.4565451,86.4541674 63.7620864,88.1690984 C63.9487941,89.2165081 63.7578579,90.2734802 63.6772982,91.3168693 C63.6105084,92.1830279 63.4483048,93.0939559 62.7149187,93.6528135 C61.653981,94.461163 60.2659253,94.0802966 59.4823385,93.0904787 C59.2521524,92.7998032 59.0436513,92.4837004 58.7499282,92.2576799 C58.057852,91.7251189 57.4369026,92.3069046 56.6961436,92.1790073 C55.9722989,92.0541527 55.5376234,91.4245551 55.4505582,90.724978 C55.402526,90.3393304 55.3852864,89.9403172 55.3928762,89.5341322" id="Fill-31" fill-opacity="0.9"></path>
                    <path d="M23.5372044,56.0802643 C23.1072996,56.1287283 22.8219253,56.1913186 22.5377436,56.1864288 C21.9641758,56.176649 21.7017875,55.8352276 21.7760586,55.2632217 C21.8582447,54.6301468 22.1016586,54.0422761 22.2711267,53.4335419 C22.4485099,52.7961204 23.0679414,52.71321 23.5309158,52.5551043 C24.4013509,52.2578003 25.2817612,51.9912482 26.1146813,51.5978855 C26.546863,51.3935977 27.0044161,51.3013421 27.4622945,51.2078913 C28.1549128,51.0666285 28.8281231,51.7041586 28.6687385,52.4038443 C28.4140484,53.5221028 28.1910183,54.6279736 27.2533597,55.4896769 C26.381515,56.2909633 25.6944264,57.2924082 24.911707,58.1932305 C24.4979575,58.6695037 24.0542828,59.1195888 23.6230769,59.5805404 C23.4426579,59.7734185 23.4525245,59.9336975 23.7149128,60.0220411 C24.3357538,60.2312188 24.6060571,60.9168869 25.2342711,61.1268253 C25.4150154,61.1872423 25.4381099,61.4310837 25.4009201,61.6088576 C25.249559,62.3313627 25.150567,63.0767959 24.7212044,63.7053069 C24.2971546,64.3259941 23.8616117,64.3038267 23.2875018,63.8213598 C22.338567,63.0238767 21.5115018,62.0790455 20.4358183,61.4328223 C20.1335297,61.2512452 20.0480908,60.9434009 20.128759,60.6269721 C20.3441993,59.781351 20.4906813,58.9508341 21.3054945,58.3437298 C22.1033934,57.7493392 22.7272703,56.9202349 23.5372044,56.0802643" id="Fill-32" fill-opacity="0.6"></path>
                    <path d="M106.453635,108.458355 C106.466863,108.923979 106.42371,109.393733 106.378388,109.769275 C106.226268,111.0301 104.965395,113.133395 103.410582,112.319069 C102.652149,111.921903 102.375341,110.880687 101.877562,110.232617 C101.255311,109.422529 100.344108,108.651016 100.226684,107.56753 C100.163798,106.987918 100.618315,106.575213 101.284261,106.650626 C102.495584,106.787651 103.702895,106.605421 104.912917,106.501322 C106.112747,106.397982 106.424144,107.417683 106.453635,108.458355" id="Fill-33" fill-opacity="0.9"></path>
                    <path d="M91.238693,117.295216 C91.4919736,117.307386 91.7029685,117.321621 91.8200674,117.317275 C92.930989,117.276852 94.0382242,117.135154 95.1235575,116.894355 C95.6931136,116.767871 96.2753553,116.43449 96.8768967,116.51175 C97.6482315,116.610743 97.697348,117.346396 97.2270007,117.82832 C96.2815355,118.79684 95.0392029,119.326141 93.9162462,120.047559 C93.1012161,120.57121 91.7405919,121.358913 90.9750037,120.33378 C90.5643985,119.78405 90.0428747,119.344288 89.6380161,118.798579 C89.4993407,118.611568 89.3506901,118.420537 89.264167,118.207231 C88.8701509,117.235668 90.3279238,117.251642 91.238693,117.295216" id="Fill-34"></path>
                    <path d="M101.061014,126.949336 C101.19481,124.383351 102.833219,122.325695 105.502857,121.787918 C107.548076,121.375865 110.097905,122.401868 111.18107,124.220464 C112.250139,126.015589 111.640791,128.339145 110.631355,130.02289 C109.00715,132.732203 105.630473,133.098508 103.082054,131.329463 C101.630787,130.321932 100.970479,128.685457 101.061014,126.949336" id="Fill-35" fill-opacity="0.6"></path>
                </g>
                <path d="M172.859788,66.6152344 L192.386155,66.6152344 C194.317805,66.5592445 195.255621,67.4970607 195.199631,69.4287109 L195.199631,77.6591797 C195.255621,79.59083 194.317805,80.5286461 192.386155,80.4726562 L172.859788,80.4726562 L172.859788,91.9785156 L192.386155,91.9785156 C194.317805,91.9225258 195.255621,92.8603419 195.199631,94.7919922 L195.199631,103.022461 C195.255621,104.954111 194.317805,105.891927 192.386155,105.835938 L161.815842,105.835938 C159.884192,105.891927 158.946376,104.954111 159.002366,103.022461 L159.002366,44.3173828 C158.946376,42.3857325 159.884192,41.4479164 161.815842,41.5039062 L192.386155,41.5039062 C194.317805,41.4479164 195.255621,42.3857325 195.199631,44.3173828 L195.199631,52.5478516 C195.255621,54.4795018 194.317805,55.417318 192.386155,55.3613281 L172.859788,55.3613281 L172.859788,66.6152344 Z M203.481221,90.7607422 L209.822041,88.03125 C210.465925,87.7513007 210.969826,87.6113281 211.33376,87.6113281 C212.033633,87.6113281 212.733496,88.0872348 213.433369,89.0390625 C215.19705,91.4746216 217.324633,92.6923828 219.816182,92.6923828 C221.271918,92.6923828 222.48968,92.2024789 223.469502,91.2226562 C224.53331,90.1868438 225.065205,88.8151127 225.065205,87.1074219 C225.065205,84.6438679 224.085397,82.7962301 222.125752,81.5644531 C221.341894,81.0605444 219.662223,80.3606816 217.08669,79.4648438 C206.58859,75.7415178 201.339619,69.3027801 201.339619,60.1484375 C201.339619,54.4374714 203.103274,49.8043798 206.630635,46.2490234 C210.102007,42.749657 214.595126,41 220.110127,41 C225.513149,41 230.04826,42.9596158 233.715596,46.8789062 C235.591256,48.8945413 236.529072,50.5462175 236.529072,51.8339844 C236.529072,52.7298222 235.941188,53.4576795 234.765401,54.0175781 L227.122822,57.6708984 C226.506934,57.9788427 226.01703,58.1328125 225.653096,58.1328125 C224.925228,58.1328125 224.295351,57.7828811 223.763447,57.0830078 C222.615655,55.6552663 221.299913,54.9414062 219.816182,54.9414062 C218.38844,54.9414062 217.184676,55.5992773 216.204854,56.9150391 C215.532975,57.8388718 215.197041,58.8606715 215.197041,59.9804688 C215.197041,62.5280075 217.576575,64.7115794 222.335713,66.53125 L223.42751,66.9511719 C233.75764,70.9264522 238.922627,77.5751487 238.922627,86.8974609 C238.922627,92.6644169 237.046995,97.4234838 233.295674,101.174805 C229.740318,104.730161 225.429163,106.507812 220.36208,106.507812 L219.648213,106.507812 C213.041409,106.507812 207.848427,103.750353 204.069112,98.2353516 C202.445406,95.8277874 201.633565,94.0921277 201.633565,93.0283203 C201.633565,92.0484977 202.249444,91.2926459 203.481221,90.7607422 Z M272.441521,55.2773438 L272.441521,103.022461 C272.497511,104.954111 271.559695,105.891927 269.628045,105.835938 L261.397576,105.835938 C259.465926,105.891927 258.52811,104.954111 258.584099,103.022461 L258.584099,55.3613281 L247.540154,55.3613281 C245.608504,55.417318 244.670688,54.4795018 244.726678,52.5478516 L244.726678,44.3173828 C244.670688,42.3857325 245.608504,41.4479164 247.540154,41.5039062 L283.611443,41.5039062 C285.543094,41.4479164 286.48091,42.3857325 286.42492,44.3173828 L286.42492,52.4638672 C286.48091,54.3955175 285.543094,55.3333336 283.611443,55.2773438 L272.441521,55.2773438 Z M306.254361,91.9785156 L324.311001,91.9785156 C326.242652,91.9225258 327.180468,92.8603419 327.124478,94.7919922 L327.124478,103.022461 C327.180468,104.954111 326.242652,105.891927 324.311001,105.835938 L295.210416,105.835938 C293.278765,105.891927 292.340949,104.954111 292.396939,103.022461 L292.396939,44.2333984 C292.340949,42.3017482 293.278765,41.363932 295.210416,41.4199219 L303.440884,41.4199219 C305.372535,41.363932 306.310351,42.3017482 306.254361,44.2333984 L306.254361,91.9785156 Z M346.450013,66.6152344 L365.97638,66.6152344 C367.90803,66.5592445 368.845846,67.4970607 368.789857,69.4287109 L368.789857,77.6591797 C368.845846,79.59083 367.90803,80.5286461 365.97638,80.4726562 L346.450013,80.4726562 L346.450013,91.9785156 L365.97638,91.9785156 C367.90803,91.9225258 368.845846,92.8603419 368.789857,94.7919922 L368.789857,103.022461 C368.845846,104.954111 367.90803,105.891927 365.97638,105.835938 L335.406068,105.835938 C333.474417,105.891927 332.536601,104.954111 332.592591,103.022461 L332.592591,44.3173828 C332.536601,42.3857325 333.474417,41.4479164 335.406068,41.5039062 L365.97638,41.5039062 C367.90803,41.4479164 368.845846,42.3857325 368.789857,44.3173828 L368.789857,52.5478516 C368.845846,54.4795018 367.90803,55.417318 365.97638,55.3613281 L346.450013,55.3613281 L346.450013,66.6152344 Z M377.071446,90.7607422 L383.412266,88.03125 C384.05615,87.7513007 384.560051,87.6113281 384.923985,87.6113281 C385.623858,87.6113281 386.323721,88.0872348 387.023595,89.0390625 C388.787275,91.4746216 390.914858,92.6923828 393.406407,92.6923828 C394.862143,92.6923828 396.079905,92.2024789 397.059727,91.2226562 C398.123535,90.1868438 398.65543,88.8151127 398.65543,87.1074219 C398.65543,84.6438679 397.675623,82.7962301 395.715977,81.5644531 C394.932119,81.0605444 393.252449,80.3606816 390.676915,79.4648438 C380.178815,75.7415178 374.929845,69.3027801 374.929845,60.1484375 C374.929845,54.4374714 376.693499,49.8043798 380.22086,46.2490234 C383.692232,42.749657 388.185351,41 393.700352,41 C399.103374,41 403.638485,42.9596158 407.305821,46.8789062 C409.181482,48.8945413 410.119298,50.5462175 410.119298,51.8339844 C410.119298,52.7298222 409.531413,53.4576795 408.355626,54.0175781 L400.713048,57.6708984 C400.097159,57.9788427 399.607255,58.1328125 399.243321,58.1328125 C398.515453,58.1328125 397.885576,57.7828811 397.353673,57.0830078 C396.20588,55.6552663 394.890138,54.9414062 393.406407,54.9414062 C391.978666,54.9414062 390.774902,55.5992773 389.795079,56.9150391 C389.123201,57.8388718 388.787266,58.8606715 388.787266,59.9804688 C388.787266,62.5280075 391.1668,64.7115794 395.925938,66.53125 L397.017735,66.9511719 C407.347865,70.9264522 412.512852,77.5751487 412.512852,86.8974609 C412.512852,92.6644169 410.63722,97.4234838 406.885899,101.174805 C403.330543,104.730161 399.019388,106.507812 393.952305,106.507812 L393.238438,106.507812 C386.631634,106.507812 381.438653,103.750353 377.659337,98.2353516 C376.035631,95.8277874 375.22379,94.0921277 375.22379,93.0283203 C375.22379,92.0484977 375.839669,91.2926459 377.071446,90.7607422 Z M420.626473,90.7607422 L426.967293,88.03125 C427.611177,87.7513007 428.115078,87.6113281 428.479012,87.6113281 C429.178885,87.6113281 429.878748,88.0872348 430.578622,89.0390625 C432.342302,91.4746216 434.469885,92.6923828 436.961434,92.6923828 C438.41717,92.6923828 439.634932,92.2024789 440.614754,91.2226562 C441.678562,90.1868438 442.210457,88.8151127 442.210457,87.1074219 C442.210457,84.6438679 441.23065,82.7962301 439.271004,81.5644531 C438.487146,81.0605444 436.807476,80.3606816 434.231942,79.4648438 C423.733842,75.7415178 418.484872,69.3027801 418.484872,60.1484375 C418.484872,54.4374714 420.248526,49.8043798 423.775887,46.2490234 C427.247259,42.749657 431.740378,41 437.255379,41 C442.658401,41 447.193512,42.9596158 450.860848,46.8789062 C452.736509,48.8945413 453.674325,50.5462175 453.674325,51.8339844 C453.674325,52.7298222 453.08644,53.4576795 451.910653,54.0175781 L444.268075,57.6708984 C443.652186,57.9788427 443.162282,58.1328125 442.798348,58.1328125 C442.07048,58.1328125 441.440603,57.7828811 440.9087,57.0830078 C439.760907,55.6552663 438.445165,54.9414062 436.961434,54.9414062 C435.533693,54.9414062 434.329929,55.5992773 433.350106,56.9150391 C432.678228,57.8388718 432.342293,58.8606715 432.342293,59.9804688 C432.342293,62.5280075 434.721827,64.7115794 439.480965,66.53125 L440.572762,66.9511719 C450.902892,70.9264522 456.067879,77.5751487 456.067879,86.8974609 C456.067879,92.6644169 454.192247,97.4234838 450.440926,101.174805 C446.88557,104.730161 442.574415,106.507812 437.507332,106.507812 L436.793465,106.507812 C430.186661,106.507812 424.99368,103.750353 421.214364,98.2353516 C419.590658,95.8277874 418.778817,94.0921277 418.778817,93.0283203 C418.778817,92.0484977 419.394696,91.2926459 420.626473,90.7607422 Z" id="ESTLESS"></path>
            </g>
        </g>
    </g>
</svg>