<?xml version="1.0" encoding="UTF-8"?>
<svg width="299px" height="152px" viewBox="0 0 299 152" version="1.1" xmlns="http://www.w3.org/2000/svg" xmlns:xlink="http://www.w3.org/1999/xlink">
    <g id="Casy-Study---Restless" stroke="none" stroke-width="1" fill="none" fill-rule="evenodd">
        <g id="Desktop-Copy-9" transform="translate(-553.000000, -3145.000000)">
            <g id="Group-21" transform="translate(553.000000, 3145.000000)" fill="#37383D">
                <path d="M9.91210938,41.0712891 L6.35742188,51.3251953 C6.08398301,52.1227253 5.86751382,52.5898431 5.70800781,52.7265625 C5.50292866,52.9088551 5.19531455,53 4.78515625,53 L2.39257812,53 C1.80012725,53 1.50390625,52.7721377 1.50390625,52.3164062 C1.50390625,52.2024734 1.5380856,52.0543629 1.60644531,51.8720703 L19.140625,1.42285156 C19.3684907,0.807614111 19.8014291,0.5 20.4394531,0.5 L21.7041016,0.5 C22.3649122,0.5 22.7978505,0.807614111 23.0029297,1.42285156 L40.5712891,51.8720703 C40.6396488,52.0771495 40.6738281,52.22526 40.6738281,52.3164062 C40.6738281,52.7721377 40.3776071,53 39.7851562,53 L37.4609375,53 C36.8001269,53 36.3671885,52.6923859 36.1621094,52.0771484 L32.3339844,41.0712891 C32.1516918,40.5016248 31.7643259,40.22819 31.171875,40.2509766 L11.0742188,40.2509766 C10.4817679,40.22819 10.094402,40.5016248 9.91210938,41.0712891 Z M30.3173828,35.2607422 L21.6015625,9.89941406 C21.5104162,9.6259752 21.3509126,9.48925781 21.1230469,9.48925781 C20.8951812,9.48925781 20.7356775,9.6259752 20.6445312,9.89941406 L11.9287109,35.2607422 C11.8831378,35.3974616 11.8603516,35.4999997 11.8603516,35.5683594 C11.8603516,35.8417982 12.0540345,35.9785156 12.4414062,35.9785156 L29.8046875,35.9785156 C30.1920592,35.9785156 30.3857422,35.8417982 30.3857422,35.5683594 C30.3857422,35.4999997 30.362956,35.3974616 30.3173828,35.2607422 Z M76.7333984,24.4257812 L76.7333984,19.1279297 C76.7106119,18.3531862 77.0865847,17.9772134 77.8613281,18 L79.7412109,18 C80.5159544,17.9772134 80.8919272,18.3531862 80.8691406,19.1279297 L80.8691406,51.8720703 C80.8919272,52.6468138 80.5159544,53.0227866 79.7412109,53 L77.8613281,53 C77.0865847,53.0227866 76.7106119,52.6468138 76.7333984,51.8720703 L76.7333984,46.6425781 C73.0419737,51.2454657 68.4163689,53.546875 62.8564453,53.546875 C57.8206128,53.546875 53.5481946,51.7809421 50.0390625,48.2490234 C46.5071438,44.7398913 44.7412109,40.4674731 44.7412109,35.4316406 C44.7412109,30.4869544 46.4843576,26.2601087 49.9707031,22.7509766 C53.5026218,19.2190579 57.7978263,17.453125 62.8564453,17.453125 C68.4391555,17.453125 73.0647603,19.7773205 76.7333984,24.4257812 Z M62.7197266,21.5888672 C58.8687958,21.5888672 55.5875787,22.956041 52.8759766,25.6904297 C50.2099476,28.3792452 48.8769531,31.6262831 48.8769531,35.4316406 C48.8769531,39.3509311 50.2327338,42.6549345 52.9443359,45.34375 C55.6331515,48.0553521 58.9371549,49.4111328 62.8564453,49.4111328 C66.6845895,49.4111328 69.9430204,48.0781383 72.6318359,45.4121094 C75.3662246,42.7005073 76.7333984,39.3851107 76.7333984,35.4658203 C76.7333984,31.6148896 75.3890108,28.3336724 72.7001953,25.6220703 C70.0341664,22.9332548 66.7073767,21.5888672 62.7197266,21.5888672 Z" id="Aa"></path>
                <path d="M2.54882812,95.9326172 L1.63476562,98.5693359 C1.56445277,98.7744151 1.50878927,98.8945311 1.46777344,98.9296875 C1.4150388,98.9765627 1.33593803,99 1.23046875,99 L0.615234375,99 C0.462889863,99 0.38671875,98.9414068 0.38671875,98.8242188 C0.38671875,98.7949217 0.395507725,98.7568362 0.413085938,98.7099609 L4.921875,85.7373047 C4.98046904,85.5791008 5.09179605,85.5 5.25585938,85.5 L5.58105469,85.5 C5.75097741,85.5 5.86230442,85.5791008 5.91503906,85.7373047 L10.4326172,98.7099609 C10.4501954,98.7626956 10.4589844,98.8007811 10.4589844,98.8242188 C10.4589844,98.9414068 10.3828133,99 10.2304688,99 L9.6328125,99 C9.46288978,99 9.35156276,98.9208992 9.29882812,98.7626953 L8.31445312,95.9326172 C8.26757789,95.7861321 8.16796951,95.7158203 8.015625,95.7216797 L2.84765625,95.7216797 C2.69531174,95.7158203 2.59570336,95.7861321 2.54882812,95.9326172 Z M7.79589844,94.4384766 L5.5546875,87.9169922 C5.53124988,87.8466793 5.49023467,87.8115234 5.43164062,87.8115234 C5.37304658,87.8115234 5.33203137,87.8466793 5.30859375,87.9169922 L3.06738281,94.4384766 C3.055664,94.473633 3.04980469,94.4999999 3.04980469,94.5175781 C3.04980469,94.587891 3.09960888,94.6230469 3.19921875,94.6230469 L7.6640625,94.6230469 C7.76367237,94.6230469 7.81347656,94.587891 7.81347656,94.5175781 C7.81347656,94.4999999 7.80761725,94.473633 7.79589844,94.4384766 Z M18.1651508,92.0214844 C18.8096853,92.2675794 19.3194458,92.6103494 19.6944477,93.0498047 C20.2628099,93.706058 20.5469867,94.494136 20.5469867,95.4140625 C20.5469867,96.4335988 20.2100761,97.2802701 19.5362446,97.9541016 C18.8389755,98.6513707 17.9454297,99 16.8555805,99 L13.4542133,99 C13.2549936,99.0058594 13.1583148,98.9091807 13.1641742,98.7099609 L13.1641742,85.7900391 C13.1583148,85.5908193 13.2549936,85.4941406 13.4542133,85.5 L15.8272602,85.5 C16.9171094,85.5 17.8194441,85.8544886 18.5342914,86.5634766 C19.2257011,87.2490269 19.5714008,88.1162057 19.5714008,89.1650391 C19.5714008,90.3076229 19.1026555,91.2597618 18.1651508,92.0214844 Z M14.2628071,93.1376953 L14.2628071,97.6289062 C14.2569477,97.828126 14.3536264,97.9248047 14.5528461,97.9189453 L16.8731586,97.9189453 C17.6231624,97.9189453 18.2383906,97.6787133 18.7188617,97.1982422 C19.2051923,96.7060522 19.4483539,96.108402 19.4483539,95.4052734 C19.4483539,94.6669885 19.1934737,94.0488306 18.6837055,93.5507812 C18.2090938,93.0820289 17.6055842,92.8476562 16.8731586,92.8476562 L14.5528461,92.8476562 C14.3536264,92.8417968 14.2569477,92.9384756 14.2628071,93.1376953 Z M14.4122211,91.7490234 L15.8448383,91.7490234 C16.6065609,91.7490234 17.2305781,91.5058618 17.7169086,91.0195312 C18.2208174,90.5156225 18.472768,89.8945349 18.472768,89.15625 C18.472768,88.4296839 18.2266767,87.820315 17.7344867,87.328125 C17.2481562,86.8417944 16.6182797,86.5986328 15.8448383,86.5986328 L14.4122211,86.5986328 C14.3126113,86.5986328 14.2628071,86.648437 14.2628071,86.7480469 L14.2628071,91.5996094 C14.2628071,91.6992192 14.3126113,91.7490234 14.4122211,91.7490234 Z M34.4406532,87.3017578 L34.0978797,87.7324219 C34.0334263,87.8144535 33.9601848,87.8554688 33.8781532,87.8554688 C33.8195591,87.8554688 33.6994432,87.7822273 33.5178016,87.6357422 C32.5744375,86.850582 31.4055039,86.4580078 30.0109657,86.4580078 C28.4054889,86.4580078 27.0402682,87.0205022 25.9152626,88.1455078 C24.7785381,89.2822322 24.2101844,90.647453 24.2101844,92.2412109 C24.2101844,93.7939531 24.7843974,95.1445255 25.9328407,96.2929688 C27.0988621,97.4589902 28.4699422,98.0419922 30.0461219,98.0419922 C31.3996443,98.0419922 32.5568593,97.6552773 33.5178016,96.8818359 C33.6994432,96.7353508 33.8224888,96.6621094 33.8869422,96.6621094 C33.9631145,96.6621094 34.0334263,96.7060542 34.0978797,96.7939453 L34.4230751,97.2158203 C34.4816691,97.2861332 34.5109657,97.347656 34.5109657,97.4003906 C34.5109657,97.5468757 34.2267888,97.7958967 33.6584266,98.1474609 C32.5861556,98.8095736 31.3820661,99.140625 30.0461219,99.140625 C28.1300967,99.140625 26.4953475,98.4668036 25.1418251,97.1191406 C23.7883027,95.7714776 23.1115516,94.1543063 23.1115516,92.2675781 C23.1115516,90.3691311 23.785373,88.7431708 25.133036,87.3896484 C26.4865584,86.036126 28.1242373,85.359375 30.0461219,85.359375 C31.5578482,85.359375 32.8937724,85.7812458 34.0539344,86.625 C34.3644829,86.8476574 34.5197547,87.0117182 34.5197547,87.1171875 C34.5197547,87.1757815 34.4933878,87.2373044 34.4406532,87.3017578 Z M37.9104915,85.5 L41.1712337,85.5 C43.0286648,85.5 44.6106803,86.1533138 45.9173274,87.4599609 C47.2356934,88.7783269 47.8948665,90.3749906 47.8948665,92.25 C47.8948665,94.1308688 47.2356934,95.7275325 45.9173274,97.0400391 C44.6106803,98.3466862 43.0286648,99 41.1712337,99 L37.9104915,99 C37.7112718,99.0058594 37.614593,98.9091807 37.6204524,98.7099609 L37.6204524,85.7900391 C37.614593,85.5908193 37.7112718,85.4941406 37.9104915,85.5 Z M38.8684993,97.9013672 L41.1712337,97.9013672 C42.712257,97.9013672 44.0364625,97.3447321 45.1438899,96.2314453 C46.2454579,95.1181585 46.7962337,93.7910233 46.7962337,92.25 C46.7962337,90.7031173 46.2425283,89.3730524 45.1351009,88.2597656 C44.0276735,87.1523382 42.7005383,86.5986328 41.1536556,86.5986328 L38.8684993,86.5986328 C38.7688894,86.5986328 38.7190853,86.648437 38.7190853,86.7480469 L38.7190853,97.7519531 C38.7190853,97.851563 38.7688894,97.9013672 38.8684993,97.9013672 Z M56.9984939,92.5400391 L52.1293533,92.5400391 C52.0297434,92.5400391 51.9799392,92.5898433 51.9799392,92.6894531 L51.9799392,97.7519531 C51.9799392,97.851563 52.0297434,97.9013672 52.1293533,97.9013672 L56.9984939,97.9013672 C57.1977136,97.8955078 57.2943923,97.9921865 57.2885329,98.1914062 L57.2885329,98.7099609 C57.2943923,98.9091807 57.1977136,99.0058594 56.9984939,99 L51.1713454,99 C50.9721257,99.0058594 50.875447,98.9091807 50.8813064,98.7099609 L50.8813064,85.7900391 C50.875447,85.5908193 50.9721257,85.4941406 51.1713454,85.5 L56.9984939,85.5 C57.1977136,85.4941406 57.2943923,85.5908193 57.2885329,85.7900391 L57.2885329,86.3085938 C57.2943923,86.5078135 57.1977136,86.6044922 56.9984939,86.5986328 L52.1293533,86.5986328 C52.0297434,86.5986328 51.9799392,86.648437 51.9799392,86.7480469 L51.9799392,91.2919922 C51.9799392,91.3916021 52.0297434,91.4414062 52.1293533,91.4414062 L56.9984939,91.4414062 C57.1977136,91.4355468 57.2943923,91.5322256 57.2885329,91.7314453 L57.2885329,92.25 C57.2943923,92.4492197 57.1977136,92.5458985 56.9984939,92.5400391 Z M61.42634,92.6894531 L61.42634,98.7099609 C61.4321994,98.9091807 61.3355207,99.0058594 61.1363009,99 L60.6177462,99 C60.4185265,99.0058594 60.3218478,98.9091807 60.3277072,98.7099609 L60.3277072,85.7900391 C60.3218478,85.5908193 60.4185265,85.4941406 60.6177462,85.5 L66.4976291,85.5 C66.6968488,85.4941406 66.7935275,85.5908193 66.7876681,85.7900391 L66.7876681,86.3085938 C66.7993869,86.5078135 66.7027082,86.6044922 66.4976291,86.5986328 L61.5757541,86.5986328 C61.4761442,86.5986328 61.42634,86.648437 61.42634,86.7480469 L61.42634,91.2919922 C61.42634,91.3916021 61.4761442,91.4414062 61.5757541,91.4414062 L66.4976291,91.4414062 C66.6968488,91.4355468 66.7935275,91.5322256 66.7876681,91.7314453 L66.7876681,92.25 C66.7935275,92.4492197 66.6968488,92.5458985 66.4976291,92.5400391 L61.5757541,92.5400391 C61.4761442,92.5400391 61.42634,92.5898433 61.42634,92.6894531 Z M81.0680533,93.3662109 L76.3219596,93.3662109 C76.1168804,93.3720703 76.0202017,93.2753916 76.0319205,93.0761719 L76.0319205,92.5576172 C76.0202017,92.3583974 76.1168804,92.2617187 76.3219596,92.2675781 L81.9118033,92.2675781 C82.1110231,92.2617187 82.2077018,92.3583974 82.2018424,92.5576172 L82.2018424,95.7128906 C82.2018424,96.0175796 82.111023,96.3046862 81.9293814,96.5742188 C81.5250825,97.1601592 80.9860254,97.6728494 80.3121939,98.1123047 C79.239923,98.797855 78.0182555,99.140625 76.6471549,99.140625 C74.7135515,99.140625 73.0729429,98.4697333 71.7252799,97.1279297 C70.3834763,95.7802667 69.7125846,94.1543064 69.7125846,92.25 C69.7125846,90.3456936 70.3834763,88.7197333 71.7252799,87.3720703 C73.0729429,86.0302667 74.7047625,85.359375 76.6207877,85.359375 C78.0797794,85.359375 79.3864069,85.7695271 80.5407096,86.5898438 C80.9801649,86.9062516 81.1998892,87.1230463 81.1998892,87.2402344 C81.1998892,87.3046878 81.1647334,87.37207 81.0944205,87.4423828 L80.7340689,87.8115234 C80.6578967,87.8876957 80.5875849,87.9257812 80.5231314,87.9257812 C80.458678,87.9257812 80.3356323,87.8466805 80.1539908,87.6884766 C79.1930485,86.86816 78.0123963,86.4580078 76.6119986,86.4580078 C75.0123813,86.4580078 73.6471605,87.0234318 72.5162955,88.1542969 C71.3795711,89.2851619 70.8112174,90.6503826 70.8112174,92.25 C70.8112174,93.843758 71.3795711,95.206049 72.5162955,96.3369141 C73.6471605,97.4736385 75.0182406,98.0419922 76.6295767,98.0419922 C77.8600517,98.0419922 78.9440252,97.7197298 79.8815299,97.0751953 C80.332704,96.7646469 80.7282079,96.3574244 81.0680533,95.8535156 L81.0680533,93.3662109 Z M92.9138682,91.5644531 L92.9138682,85.7900391 C92.9080088,85.5908193 93.0046875,85.4941406 93.2039073,85.5 L93.7224619,85.5 C93.9216817,85.4941406 94.0183604,85.5908193 94.012501,85.7900391 L94.012501,98.7099609 C94.0183604,98.9091807 93.9216817,99.0058594 93.7224619,99 L93.2039073,99 C93.0046875,99.0058594 92.9080088,98.9091807 92.9138682,98.7099609 L92.9138682,92.9619141 C92.9138682,92.8623042 92.864064,92.8125 92.7644541,92.8125 L86.8933604,92.8125 C86.7937505,92.8125 86.7439463,92.8623042 86.7439463,92.9619141 L86.7439463,98.7099609 C86.7498057,98.9091807 86.653127,99.0058594 86.4539073,99 L85.9353526,99 C85.7361328,99.0058594 85.6394541,98.9091807 85.6453135,98.7099609 L85.6453135,85.7900391 C85.6394541,85.5908193 85.7361328,85.4941406 85.9353526,85.5 L86.4539073,85.5 C86.653127,85.4941406 86.7498057,85.5908193 86.7439463,85.7900391 L86.7439463,91.5644531 C86.7439463,91.664063 86.7937505,91.7138672 86.8933604,91.7138672 L92.7644541,91.7138672 C92.864064,91.7138672 92.9138682,91.664063 92.9138682,91.5644531 Z M97.9217924,99 L97.4032378,99 C97.204018,99.0058594 97.1073393,98.9091807 97.1131987,98.7099609 L97.1131987,85.8076172 C97.1073393,85.6083974 97.204018,85.5117187 97.4032378,85.5175781 L97.9217924,85.5175781 C98.1210122,85.5117187 98.2176909,85.6083974 98.2118315,85.8076172 L98.2118315,98.7099609 C98.2176909,98.9091807 98.1210122,99.0058594 97.9217924,99 Z M105.856474,96.0117188 L105.856474,85.7724609 C105.850615,85.5732412 105.947294,85.4765625 106.146514,85.4824219 L106.665068,85.4824219 C106.864288,85.4765625 106.960967,85.5732412 106.955107,85.7724609 L106.955107,95.9941406 C106.955107,96.8613325 106.647493,97.602536 106.032256,98.2177734 C105.411159,98.8330109 104.661166,99.140625 103.782256,99.140625 C102.903345,99.140625 102.162142,98.8271516 101.558623,98.2001953 C101.242215,97.8779281 101.016631,97.5263691 100.881865,97.1455078 C100.846709,97.0400385 100.829131,96.9638674 100.829131,96.9169922 C100.829131,96.8056635 100.902372,96.7265627 101.048857,96.6796875 L101.523467,96.5478516 C101.576201,96.5302733 101.620146,96.5214844 101.655303,96.5214844 C101.754912,96.5214844 101.836943,96.6035148 101.901396,96.7675781 C102.0596,97.1835958 102.343777,97.5117175 102.753935,97.7519531 C103.076203,97.9453135 103.421902,98.0419922 103.791045,98.0419922 C104.359407,98.0419922 104.84866,97.8369161 105.258818,97.4267578 C105.657258,97.0283183 105.856474,96.5566433 105.856474,96.0117188 Z M110.917133,93.0058594 L110.917133,98.7099609 C110.922993,98.9091807 110.826314,99.0058594 110.627094,99 L110.108539,99 C109.90932,99.0058594 109.812641,98.9091807 109.8185,98.7099609 L109.8185,85.7900391 C109.812641,85.5908193 109.90932,85.4941406 110.108539,85.5 L110.627094,85.5 C110.826314,85.4941406 110.922993,85.5908193 110.917133,85.7900391 L110.917133,91.5996094 L114.79311,85.7285156 C114.88686,85.5761711 115.024554,85.5 115.206196,85.5 L115.874164,85.5 C115.997212,85.5 116.058735,85.5498042 116.058735,85.6494141 C116.058735,85.6787111 116.049946,85.7080077 116.032367,85.7373047 C115.510881,86.6455124 114.467922,88.2421761 112.903461,90.5273438 C112.639788,90.9140644 112.253073,91.5058554 111.743305,92.3027344 L115.962055,98.7363281 C115.991352,98.777344 116.006,98.8154295 116.006,98.8505859 C116.006,98.9501958 115.944477,99 115.82143,99 L115.083149,99 C114.965961,99 114.872212,98.9765627 114.801899,98.9296875 C114.766742,98.9003905 113.940579,97.6377078 112.323383,95.1416016 L110.917133,93.0058594 Z M120.240487,97.9013672 L125.144784,97.9013672 C125.344004,97.8955078 125.440682,97.9921865 125.434823,98.1914062 L125.434823,98.7099609 C125.440682,98.9091807 125.344004,99.0058594 125.144784,99 L119.282479,99 C119.08326,99.0058594 118.986581,98.9091807 118.99244,98.7099609 L118.99244,85.7900391 C118.986581,85.5908193 119.08326,85.4941406 119.282479,85.5 L119.801034,85.5 C120.000254,85.4941406 120.096932,85.5908193 120.091073,85.7900391 L120.091073,97.7519531 C120.091073,97.851563 120.140877,97.9013672 120.240487,97.9013672 Z M129.29138,87.5478516 L129.29138,98.7099609 C129.297239,98.9091807 129.200561,99.0058594 129.001341,99 L128.482786,99 C128.283567,99.0058594 128.186888,98.9091807 128.192747,98.7099609 L128.192747,85.8076172 C128.186888,85.6083974 128.283567,85.5117187 128.482786,85.5175781 L129.361693,85.5175781 C129.531615,85.5117187 129.645872,85.5908195 129.704466,85.7548828 L133.501341,95.9941406 L133.932005,97.0576172 L134.389036,95.9941406 L138.185911,85.7548828 C138.244505,85.5908195 138.358762,85.5117187 138.528685,85.5175781 L139.407591,85.5175781 C139.606811,85.5117187 139.703489,85.6083974 139.69763,85.8076172 L139.69763,98.7099609 C139.703489,98.9091807 139.606811,99.0058594 139.407591,99 L138.889036,99 C138.689817,99.0058594 138.593138,98.9091807 138.598997,98.7099609 L138.598997,87.5742188 L134.564818,98.4990234 L134.432982,98.8242188 C134.374388,98.9472662 134.26892,99.0058594 134.116575,99 L133.79138,99 C133.633176,99.0058594 133.527708,98.9472662 133.474974,98.8242188 L133.351927,98.5166016 L129.29138,87.5478516 Z M143.958484,87.3105469 L143.958484,98.7099609 C143.964343,98.9091807 143.867665,99.0058594 143.668445,99 L143.14989,99 C142.950671,99.0058594 142.853992,98.9091807 142.859851,98.7099609 L142.859851,85.8076172 C142.853992,85.6083974 142.950671,85.5117187 143.14989,85.5175781 L143.844226,85.5175781 C144.020008,85.5175781 144.151843,85.5908196 144.239734,85.7373047 L151.376453,97.2158203 L151.376453,85.7900391 C151.370593,85.5908193 151.467272,85.4941406 151.666492,85.5 L152.185046,85.5 C152.384266,85.4941406 152.480945,85.5908193 152.475086,85.7900391 L152.475086,98.7099609 C152.480945,98.9091807 152.384266,99.0058594 152.185046,99 L151.473132,99 C151.29735,99 151.145008,98.8945323 151.016101,98.6835938 L143.958484,87.3105469 Z M162.334572,85.359375 C164.203722,85.359375 165.812105,86.0302667 167.159768,87.3720703 C168.501571,88.7197333 169.172463,90.3456936 169.172463,92.25 C169.172463,94.1543064 168.501571,95.7802667 167.159768,97.1279297 C165.812105,98.4697333 164.186144,99.140625 162.281838,99.140625 C160.371672,99.140625 158.742782,98.4697333 157.395119,97.1279297 C156.053316,95.7802667 155.382424,94.1572361 155.382424,92.2587891 C155.382424,90.3603421 156.053316,88.7314521 157.395119,87.3720703 C158.731063,86.0302667 160.377531,85.359375 162.334572,85.359375 Z M162.237893,86.4580078 C160.667572,86.4580078 159.317,87.0234318 158.186135,88.1542969 C157.04941,89.2851619 156.481057,90.647453 156.481057,92.2412109 C156.481057,93.8408283 157.04941,95.206049 158.186135,96.3369141 C159.322859,97.4736385 160.68808,98.0419922 162.281838,98.0419922 C163.887315,98.0419922 165.255465,97.4736385 166.38633,96.3369141 C167.511336,95.2119084 168.07383,93.8496174 168.07383,92.25 C168.07383,90.656242 167.511336,89.2910213 166.38633,88.1542969 C165.267184,87.0234318 163.884385,86.4580078 162.237893,86.4580078 Z M173.116911,93.3222656 L173.116911,98.7099609 C173.12277,98.9091807 173.026091,99.0058594 172.826872,99 L172.308317,99 C172.109097,99.0058594 172.012418,98.9091807 172.018278,98.7099609 L172.018278,85.7900391 C172.012418,85.5908193 172.109097,85.4941406 172.308317,85.5 L174.646207,85.5 C175.695041,85.5 176.576868,85.860348 177.291715,86.5810547 C178.024141,87.3193396 178.390348,88.233393 178.390348,89.3232422 C178.390348,90.4189508 178.018282,91.3417931 177.274137,92.0917969 C176.55929,92.8125036 175.683322,93.1728516 174.646207,93.1728516 L173.266325,93.1728516 C173.166715,93.1728516 173.116911,93.2226558 173.116911,93.3222656 Z M173.116911,86.7480469 L173.116911,91.9423828 C173.116911,92.0419927 173.166715,92.0917969 173.266325,92.0917969 L174.663786,92.0917969 C175.536837,92.0917969 176.225307,91.7402379 176.729215,91.0371094 C177.104217,90.5156224 177.291715,89.9414094 177.291715,89.3144531 C177.291715,88.6406216 177.08078,88.0429714 176.658903,87.5214844 C176.154994,86.9062469 175.489962,86.5986328 174.663786,86.5986328 L173.266325,86.5986328 C173.166715,86.5986328 173.116911,86.648437 173.116911,86.7480469 Z M192.547686,97.3037109 L193.347491,98.1386719 C193.417804,98.2089847 193.45296,98.2792965 193.45296,98.3496094 C193.45296,98.4140628 193.414874,98.481445 193.338702,98.5517578 L192.960772,98.9208984 C192.8846,98.9912113 192.814288,99.0263672 192.749835,99.0263672 C192.685381,99.0263672 192.617999,98.9882816 192.547686,98.9121094 L191.703936,98.0068359 C190.496899,98.7626991 189.228357,99.140625 187.898272,99.140625 C185.982247,99.140625 184.350428,98.4697333 183.002765,97.1279297 C181.660961,95.7802667 180.990069,94.1543064 180.990069,92.25 C180.990069,90.3456936 181.660961,88.7197333 183.002765,87.3720703 C184.350428,86.0302667 185.979318,85.359375 187.889483,85.359375 C189.79379,85.359375 191.41975,86.0302667 192.767413,87.3720703 C194.109217,88.7138739 194.780108,90.3398342 194.780108,92.25 C194.780108,94.1718846 194.035975,95.8564381 192.547686,97.3037109 Z M191.791827,96.5126953 C193.051599,95.3173768 193.681476,93.8994223 193.681476,92.2587891 C193.681476,90.6533123 193.118981,89.2851619 191.993976,88.1542969 C190.86311,87.0234318 189.49496,86.4580078 187.889483,86.4580078 C186.289866,86.4580078 184.924645,87.0234318 183.79378,88.1542969 C182.657056,89.2851619 182.088702,90.647453 182.088702,92.2412109 C182.088702,93.8408283 182.657056,95.206049 183.79378,96.3369141 C184.924645,97.4736385 186.289866,98.0419922 187.889483,98.0419922 C188.932457,98.0419922 189.93733,97.760745 190.904132,97.1982422 L189.040851,95.2294922 C188.970538,95.1591793 188.935382,95.0917972 188.935382,95.0273438 C188.935382,94.9628903 188.973467,94.8925785 189.04964,94.8164062 L189.41878,94.4560547 C189.489093,94.3857418 189.556475,94.3505859 189.620929,94.3505859 C189.691241,94.3505859 189.761553,94.3857418 189.831866,94.4560547 L191.791827,96.5126953 Z M202.090767,93.1289062 L205.369087,98.7275391 C205.398384,98.7802737 205.413033,98.8212889 205.413033,98.8505859 C205.413033,98.9501958 205.34565,99 205.210884,99 L204.490181,99 C204.320258,99 204.191353,98.9267585 204.103462,98.7802734 L201.211861,93.8935547 C201.047797,93.6357409 200.913033,93.4482428 200.807564,93.3310547 L198.891548,93.3310547 C198.791938,93.3310547 198.742134,93.3808589 198.742134,93.4804688 L198.742134,98.7099609 C198.747994,98.9091807 198.651315,99.0058594 198.452095,99 L197.915962,99 C197.716743,99.0058594 197.620064,98.9091807 197.625923,98.7099609 L197.625923,85.7900391 C197.620064,85.5908193 197.716743,85.4941406 197.915962,85.5 L200.666939,85.5 C201.815382,85.5 202.758732,85.8691369 203.497017,86.6074219 C204.229442,87.3457068 204.59565,88.2744085 204.59565,89.3935547 C204.59565,91.0576255 203.760697,92.3027302 202.090767,93.1289062 Z M198.742134,86.7480469 L198.742134,92.0830078 C198.742134,92.1826177 198.791938,92.2324219 198.891548,92.2324219 L200.649361,92.2324219 C201.481396,92.2324219 202.158147,91.9716823 202.679634,91.4501953 C203.224559,90.9111301 203.497017,90.2255901 203.497017,89.3935547 C203.497017,88.5790975 203.230418,87.9052761 202.697212,87.3720703 C202.175725,86.8564427 201.498974,86.5986328 200.666939,86.5986328 L198.891548,86.5986328 C198.791938,86.5986328 198.742134,86.648437 198.742134,86.7480469 Z M208.179746,96.8466797 L208.680722,96.7675781 C208.733457,96.7617187 208.771543,96.7587891 208.79498,96.7587891 C208.882871,96.7587891 208.97955,96.8437492 209.085019,97.0136719 C209.518615,97.710941 210.218804,98.0595703 211.185605,98.0595703 C211.888734,98.0595703 212.498103,97.80469 213.01373,97.2949219 C213.535217,96.7734349 213.795957,96.1611363 213.795957,95.4580078 C213.795957,94.6728476 213.450257,94.0136745 212.758847,93.4804688 C212.389705,93.1933579 211.841859,92.8974625 211.115293,92.5927734 C210.119194,92.1708963 209.419006,91.7959001 209.014707,91.4677734 C208.217828,90.8290984 207.819394,89.9882865 207.819394,88.9453125 C207.819394,87.9609326 208.168024,87.117191 208.865293,86.4140625 C209.568421,85.710934 210.403374,85.359375 211.370176,85.359375 C212.419009,85.359375 213.297906,85.7519492 214.006894,86.5371094 C214.217833,86.777345 214.323301,86.9414058 214.323301,87.0292969 C214.323301,87.1230473 214.264707,87.1992185 214.147519,87.2578125 L213.681699,87.4863281 C213.617246,87.5156251 213.561582,87.5302734 213.514707,87.5302734 C213.438535,87.5302734 213.362363,87.4746099 213.286191,87.3632812 C212.858455,86.7597626 212.228578,86.4580078 211.396543,86.4580078 C210.722711,86.4580078 210.13385,86.7099584 209.629941,87.2138672 C209.155329,87.6826195 208.918027,88.2363249 208.918027,88.875 C208.918027,89.7714889 209.31939,90.4599585 210.122129,90.9404297 C210.374083,91.0869148 210.921929,91.3476544 211.765683,91.7226562 C212.709047,92.138674 213.312557,92.455077 213.57623,92.671875 C214.431703,93.3750035 214.859433,94.3007755 214.859433,95.4492188 C214.859433,96.4804739 214.496156,97.3535121 213.76959,98.0683594 C213.054742,98.7832067 212.187563,99.140625 211.168027,99.140625 C210.043022,99.140625 209.143616,98.7714881 208.469785,98.0332031 C208.112361,97.640623 207.933652,97.3212903 207.933652,97.0751953 C207.933652,96.9462884 208.015683,96.8701173 208.179746,96.8466797 Z M221.836108,86.7480469 L221.836108,98.7099609 C221.841967,98.9091807 221.745288,99.0058594 221.546069,99 L221.027514,99 C220.828294,99.0058594 220.731615,98.9091807 220.737475,98.7099609 L220.737475,86.7480469 C220.737475,86.648437 220.687671,86.5986328 220.588061,86.5986328 L217.300951,86.5986328 C217.101732,86.6044922 217.005053,86.5078135 217.010912,86.3085938 L217.010912,85.7900391 C217.005053,85.5908193 217.101732,85.4941406 217.300951,85.5 L225.307787,85.5 C225.507007,85.4941406 225.603686,85.5908193 225.597826,85.7900391 L225.597826,86.3085938 C225.603686,86.5078135 225.507007,86.6044922 225.307787,86.5986328 L221.985522,86.5986328 C221.885912,86.5986328 221.836108,86.648437 221.836108,86.7480469 Z M235.729774,85.7900391 L235.729774,95.4140625 C235.729774,96.4335988 235.366496,97.306637 234.63993,98.0332031 C233.901645,98.7714881 233.0081,99.140625 231.959266,99.140625 C230.922152,99.140625 230.037395,98.7744177 229.304969,98.0419922 C228.572544,97.3154261 228.206337,96.4335989 228.206337,95.3964844 L228.206337,85.7900391 C228.200477,85.5908193 228.297156,85.4941406 228.496376,85.5 L229.01493,85.5 C229.21415,85.4941406 229.310829,85.5908193 229.304969,85.7900391 L229.304969,95.3261719 C229.304969,96.0937538 229.571568,96.744138 230.104774,97.2773438 C230.620402,97.7988307 231.241489,98.0595703 231.968055,98.0595703 C232.70634,98.0595703 233.333287,97.7988307 233.848915,97.2773438 C234.370402,96.7558568 234.631141,96.1171913 234.631141,95.3613281 L234.631141,85.7900391 C234.625282,85.5908193 234.721961,85.4941406 234.92118,85.5 L235.439735,85.5 C235.638955,85.4941406 235.735633,85.5908193 235.729774,85.7900391 Z M243.312894,97.0576172 L247.153714,85.7548828 C247.200589,85.6025383 247.291409,85.5234375 247.426175,85.5175781 L248.120511,85.5 C248.261137,85.5 248.331448,85.5585932 248.331448,85.6757812 C248.331448,85.7050783 248.322659,85.7431638 248.305081,85.7900391 L243.805081,98.7626953 C243.752346,98.9267586 243.641019,99.0058594 243.471097,99 L243.145901,99 C242.981838,99 242.870511,98.9208992 242.811917,98.7626953 L238.391019,86.0449219 C238.326565,85.8632803 238.294339,85.7402347 238.294339,85.6757812 C238.294339,85.5585932 238.37051,85.5 238.522855,85.5 L239.155667,85.5 C239.32559,85.5 239.436917,85.5791008 239.489651,85.7373047 L243.312894,97.0576172 Z M261.319841,96.8554688 L264.132341,85.7636719 C264.173357,85.5996086 264.278825,85.5175781 264.448748,85.5175781 L265.063982,85.5175781 C265.222186,85.5175781 265.301287,85.5849603 265.301287,85.7197266 C265.301287,85.7490236 265.295427,85.7812498 265.283708,85.8164062 L261.829607,98.7539062 C261.788591,98.923829 261.683123,99.0058594 261.513201,99 L261.117693,99 C260.94777,99.0058594 260.842302,98.923829 260.801287,98.7539062 L257.962419,87.9345703 L255.149919,98.7539062 C255.108904,98.923829 255.003436,99.0058594 254.833513,99 L254.464373,99 C254.28859,99.0058594 254.180193,98.923829 254.139177,98.7539062 L250.667498,85.7988281 C250.655779,85.7519529 250.649919,85.7138673 250.649919,85.6845703 C250.649919,85.5615228 250.73195,85.5 250.896013,85.5 L251.48488,85.5 C251.660663,85.4941406 251.76613,85.576171 251.801287,85.7460938 L254.640154,96.8554688 L257.452654,85.7460938 C257.49367,85.5820304 257.602067,85.5 257.777849,85.5 L258.14699,85.5 C258.316912,85.4941406 258.42238,85.576171 258.463396,85.7460938 L261.319841,96.8554688 Z M272.462531,93.3486328 L269.316047,98.3759766 C269.105108,98.715822 268.979133,98.9033201 268.938117,98.9384766 C268.879523,98.9794924 268.791633,99 268.674445,99 L267.936164,99 C267.807257,99 267.742805,98.9501958 267.742805,98.8505859 C267.742805,98.8212889 267.757453,98.7832034 267.78675,98.7363281 L271.776984,92.2675781 L267.804328,85.7636719 C267.775031,85.7167966 267.760383,85.6787111 267.760383,85.6494141 C267.760383,85.5498042 267.824835,85.5 267.953742,85.5 L268.656867,85.5 C268.832649,85.5 268.964484,85.5732415 269.052375,85.7197266 L272.480109,91.1689453 L275.609016,86.1855469 C275.855111,85.7988262 275.998664,85.5908205 276.03968,85.5615234 C276.098274,85.5205076 276.186163,85.5 276.303351,85.5 L277.006476,85.5 C277.135383,85.5 277.199836,85.5498042 277.199836,85.6494141 C277.199836,85.6787111 277.185188,85.7167966 277.155891,85.7636719 L273.1305,92.2675781 L277.138312,98.7363281 C277.167609,98.7832034 277.182258,98.8212889 277.182258,98.8505859 C277.182258,98.9501958 277.117805,99 276.988898,99 L276.268195,99 C276.092413,99 275.960579,98.9267585 275.872687,98.7802734 L272.462531,93.3486328 Z M284.194088,94.1044922 L284.194088,98.7099609 C284.199948,98.9091807 284.103269,99.0058594 283.904049,99 L283.385495,99 C283.186275,99.0058594 283.089596,98.9091807 283.095455,98.7099609 L283.095455,94.1044922 L279.562252,85.78125 C279.544674,85.7402342 279.535885,85.7021486 279.535885,85.6669922 C279.535885,85.5556635 279.606197,85.5 279.746823,85.5 L280.379635,85.5 C280.549558,85.5 280.663815,85.5761711 280.722409,85.7285156 L283.640377,92.6103516 L286.540768,85.7285156 C286.605221,85.5761711 286.722408,85.5 286.89233,85.5 L287.516354,85.5 C287.662839,85.5 287.73608,85.5615228 287.73608,85.6845703 C287.73608,85.7138673 287.733151,85.7343749 287.727291,85.7460938 L284.194088,94.1044922 Z M297.208848,86.5986328 L290.309434,86.5986328 C290.110215,86.6044922 290.013536,86.5078135 290.019395,86.3085938 L290.019395,85.7900391 C290.013536,85.5908193 290.110215,85.4941406 290.309434,85.5 L298.369005,85.5 C298.568224,85.4941406 298.664903,85.5908193 298.659044,85.7900391 L298.659044,86.0449219 C298.659044,86.250001 298.582873,86.4755847 298.430528,86.7216797 L291.469591,97.9013672 L298.421739,97.9013672 C298.620959,97.8955078 298.717638,97.9921865 298.711778,98.1914062 L298.711778,98.7099609 C298.717638,98.9091807 298.620959,99.0058594 298.421739,99 L290.379747,99 C290.180527,99.0058594 290.080919,98.91504 290.080919,98.7275391 C290.080919,98.668945 290.077989,98.557618 290.07213,98.3935547 L290.07213,98.3408203 C290.07213,98.2470698 290.089708,98.1533208 290.124864,98.0595703 C290.148302,98.0068357 290.716655,97.0752044 291.829942,95.2646484 L297.208848,86.5986328 Z" id="abcdefghijklmnopqrst"></path>
                <path d="M8.859375,117.652344 L8.859375,116.290039 C8.8535156,116.090819 8.95019432,115.994141 9.14941406,116 L9.6328125,116 C9.83203225,115.994141 9.92871097,116.090819 9.92285156,116.290039 L9.92285156,124.709961 C9.92871097,124.909181 9.83203225,125.005859 9.6328125,125 L9.14941406,125 C8.95019432,125.005859 8.8535156,124.909181 8.859375,124.709961 L8.859375,123.365234 C7.9101515,124.548834 6.72071027,125.140625 5.29101562,125.140625 C3.99608728,125.140625 2.89746545,124.686528 1.99511719,123.77832 C1.08690952,122.875972 0.6328125,121.77735 0.6328125,120.482422 C0.6328125,119.210931 1.08105021,118.124028 1.97753906,117.22168 C2.88574673,116.313472 3.99022787,115.859375 5.29101562,115.859375 C6.72656968,115.859375 7.91601091,116.457025 8.859375,117.652344 Z M5.25585938,116.922852 C4.26562005,116.922852 3.42187849,117.274411 2.72460938,117.977539 C2.03905907,118.668949 1.69628906,119.503901 1.69628906,120.482422 C1.69628906,121.490239 2.04491839,122.33984 2.7421875,123.03125 C3.43359721,123.728519 4.28319809,124.077148 5.29101562,124.077148 C6.27539555,124.077148 7.11327779,123.734378 7.8046875,123.048828 C8.50781602,122.351559 8.859375,121.499028 8.859375,120.491211 C8.859375,119.500972 8.51367533,118.65723 7.82226562,117.959961 C7.13671532,117.268551 6.28125513,116.922852 5.25585938,116.922852 Z M13.9376117,123.365234 L13.9376117,124.709961 C13.9434712,124.909181 13.8467924,125.005859 13.6475727,125 L13.1641742,125 C12.9649545,125.005859 12.8682758,124.909181 12.8741352,124.709961 L12.8741352,112.695312 C12.8682758,112.490233 12.9649545,112.390625 13.1641742,112.396484 L13.6475727,112.396484 C13.8467924,112.390625 13.9434712,112.490233 13.9376117,112.695312 L13.9376117,117.652344 C14.8633976,116.457025 16.0528389,115.859375 17.5059711,115.859375 C18.8067589,115.859375 19.91124,116.313472 20.8194477,117.22168 C21.7159365,118.124028 22.1641742,119.210931 22.1641742,120.482422 C22.1641742,121.77735 21.7100772,122.875972 20.8018696,123.77832 C19.8995213,124.686528 18.8008995,125.140625 17.5059711,125.140625 C16.0586983,125.140625 14.869257,124.548834 13.9376117,123.365234 Z M17.4796039,116.922852 C16.5010834,116.922852 15.6661308,117.268551 14.9747211,117.959961 C14.2833114,118.651371 13.9376117,119.492183 13.9376117,120.482422 C13.9376117,121.496099 14.2891707,122.351559 14.9922992,123.048828 C15.683709,123.734378 16.5215912,124.077148 17.5059711,124.077148 C18.5137887,124.077148 19.3633895,123.728519 20.0547992,123.03125 C20.7520684,122.33984 21.1006977,121.493169 21.1006977,120.491211 C21.1006977,119.506831 20.7579277,118.668949 20.0723774,117.977539 C19.3809677,117.274411 18.5167185,116.922852 17.4796039,116.922852 Z M32.8146766,122.407227 L33.2453407,122.583008 C33.3683882,122.629883 33.429911,122.700195 33.429911,122.793945 C33.429911,123.034181 33.1603824,123.409177 32.6213172,123.918945 C31.7658442,124.733403 30.7140969,125.140625 29.4660438,125.140625 C28.1652561,125.140625 27.0637046,124.686528 26.1613563,123.77832 C25.2531486,122.875972 24.7990516,121.77735 24.7990516,120.482422 C24.7990516,119.210931 25.2472893,118.124028 26.1437782,117.22168 C27.0519859,116.313472 28.1535373,115.859375 29.4484657,115.859375 C30.7316752,115.859375 31.8361564,116.336909 32.7619422,117.291992 C33.0724907,117.614259 33.2277626,117.828124 33.2277626,117.933594 C33.2277626,118.015625 33.180888,118.088867 33.0871376,118.15332 L32.726786,118.416992 C32.6623326,118.463867 32.6037394,118.487305 32.5510047,118.487305 C32.4689731,118.487305 32.3664351,118.405274 32.2433876,118.241211 C31.5929937,117.3623 30.6672217,116.922852 29.4660438,116.922852 C28.4465075,116.922852 27.5881176,117.274411 26.8908485,117.977539 C26.2052982,118.663089 25.8625282,119.498042 25.8625282,120.482422 C25.8625282,121.490239 26.2111575,122.33984 26.9084266,123.03125 C27.5998363,123.728519 28.4523669,124.077148 29.4660438,124.077148 C30.1281565,124.077148 30.7375254,123.916017 31.2941688,123.59375 C31.7277647,123.341796 32.0705347,123.034182 32.3224891,122.670898 C32.4689742,122.465819 32.5803012,122.363281 32.6564735,122.363281 C32.6974893,122.363281 32.7502232,122.37793 32.8146766,122.407227 Z M44.2913509,117.652344 L44.2913509,112.695312 C44.2854915,112.490233 44.3821702,112.390625 44.5813899,112.396484 L45.0647884,112.396484 C45.2640081,112.390625 45.3606868,112.490233 45.3548274,112.695312 L45.3548274,124.709961 C45.3606868,124.909181 45.2640081,125.005859 45.0647884,125 L44.5813899,125 C44.3821702,125.005859 44.2854915,124.909181 44.2913509,124.709961 L44.2913509,123.365234 C43.3538462,124.548834 42.164405,125.140625 40.7229915,125.140625 C39.4280632,125.140625 38.3294413,124.686528 37.4270931,123.77832 C36.5188854,122.875972 36.0647884,121.77735 36.0647884,120.482422 C36.0647884,119.210931 36.5130261,118.124028 37.4095149,117.22168 C38.3177226,116.313472 39.4222037,115.859375 40.7229915,115.859375 C42.1761238,115.859375 43.365565,116.457025 44.2913509,117.652344 Z M40.6878353,116.922852 C39.6975959,116.922852 38.8538544,117.274411 38.1565853,117.977539 C37.4710349,118.668949 37.1282649,119.503901 37.1282649,120.482422 C37.1282649,121.490239 37.4768943,122.33984 38.1741634,123.03125 C38.8655731,123.728519 39.715174,124.077148 40.7229915,124.077148 C41.7073714,124.077148 42.5452537,123.734378 43.2366634,123.048828 C43.9397919,122.351559 44.2913509,121.499028 44.2913509,120.491211 C44.2913509,119.500972 43.9456512,118.65723 43.2542415,117.959961 C42.5686912,117.268551 41.713231,116.922852 40.6878353,116.922852 Z M49.1938064,120.974609 C49.3578697,121.912114 49.7445846,122.650388 50.3539626,123.189453 C51.0336535,123.781253 51.8451688,124.077148 52.7885329,124.077148 C53.8256475,124.077148 54.7191932,123.81055 55.469197,123.277344 C55.5805257,123.195312 55.6625561,123.154297 55.7152908,123.154297 C55.7973224,123.154297 55.8647045,123.207031 55.9174392,123.3125 L56.1107986,123.672852 C56.145955,123.743164 56.1635329,123.795898 56.1635329,123.831055 C56.1635329,123.930665 56.0668542,124.044921 55.8734939,124.173828 C54.947708,124.818363 53.9252573,125.140625 52.8061111,125.140625 C51.4877451,125.140625 50.3774046,124.689458 49.4750564,123.787109 C48.5668487,122.878902 48.1127517,121.774421 48.1127517,120.473633 C48.1127517,119.155267 48.5609894,118.047856 49.4574783,117.151367 C50.3188107,116.290035 51.3734876,115.859375 52.6215408,115.859375 C53.769984,115.859375 54.7279822,116.24609 55.4955642,117.019531 C56.3686154,117.886723 56.8051345,118.988275 56.8051345,120.324219 C56.8051345,120.587892 56.7992752,120.746093 56.7875564,120.798828 C56.7523999,120.916016 56.6586509,120.974609 56.5063064,120.974609 L49.1938064,120.974609 Z M55.7065017,120.016602 C55.6186106,119.061519 55.2846296,118.305667 54.7045486,117.749023 C54.1303269,117.198239 53.4301386,116.922852 52.6039626,116.922852 C51.7367708,116.922852 50.9838486,117.207028 50.3451736,117.775391 C49.7475143,118.314456 49.3695884,119.061519 49.2113845,120.016602 L55.7065017,120.016602 Z M60.6089572,116.070312 L60.6089572,114.268555 C60.6089572,113.694333 60.7759477,113.234377 61.1099337,112.888672 C61.4380604,112.560545 61.8657905,112.396484 62.3931369,112.396484 L63.3775119,112.396484 C63.5767316,112.390625 63.6734103,112.487304 63.6675509,112.686523 L63.6675509,113.099609 C63.6734103,113.298829 63.5767316,113.395508 63.3775119,113.389648 L62.5864962,113.389648 C61.9653994,113.389648 61.6548556,113.711911 61.6548556,114.356445 L61.6548556,116.070312 L63.8433322,116.070312 C64.0484113,116.064453 64.1450901,116.161132 64.1333712,116.360352 L64.1333712,116.773438 C64.1450901,116.972657 64.0484113,117.069336 63.8433322,117.063477 L61.6548556,117.063477 L61.6548556,124.709961 C61.660715,124.909181 61.5611067,125.005859 61.3560275,125 L60.8989962,125 C60.6997765,125.005859 60.6030978,124.909181 60.6089572,124.709961 L60.6089572,117.063477 L59.5103244,117.063477 C59.3111046,117.069336 59.2144259,116.972657 59.2202853,116.773438 L59.2202853,116.360352 C59.2144259,116.161132 59.3111046,116.064453 59.5103244,116.070312 L60.6089572,116.070312 Z M74.8717642,117.634766 L74.8717642,116.290039 C74.8659048,116.090819 74.9625836,115.994141 75.1618033,116 L75.6452017,116 C75.8444215,115.994141 75.9411002,116.090819 75.9352408,116.290039 L75.9352408,124.859375 C75.9352408,126.060553 75.4928624,127.103511 74.6080924,127.988281 C73.6823065,128.914067 72.5778254,129.376953 71.2946158,129.376953 C70.0992973,129.376953 69.0621983,128.97559 68.1832877,128.172852 C67.8903175,127.903319 67.7438346,127.715821 67.7438346,127.610352 C67.7438346,127.52832 67.7877794,127.455078 67.8756705,127.390625 L68.227233,127.118164 C68.3034053,127.065429 68.3678577,127.039062 68.4205924,127.039062 C68.4967646,127.039062 68.5934434,127.106445 68.7106314,127.241211 C69.3434471,127.967777 70.201837,128.331055 71.2858267,128.331055 C72.2819255,128.331055 73.1285967,127.982425 73.8258658,127.285156 C74.5231349,126.587887 74.8717642,125.747075 74.8717642,124.762695 L74.8717642,123.347656 C73.9518378,124.531256 72.7623965,125.123047 71.3034049,125.123047 C69.9967577,125.123047 68.8893469,124.66895 67.9811392,123.760742 C67.0905098,122.864253 66.6452017,121.783209 66.6452017,120.517578 C66.6452017,119.22265 67.0992988,118.121098 68.0075064,117.212891 C68.9098547,116.310542 70.0084765,115.859375 71.3034049,115.859375 C72.7448183,115.859375 73.9342596,116.451166 74.8717642,117.634766 Z M71.3473502,116.922852 C70.3688297,116.922852 69.5338771,117.268551 68.8424674,117.959961 C68.1451983,118.65723 67.7965689,119.506831 67.7965689,120.508789 C67.7965689,121.499028 68.1422686,122.33984 68.8336783,123.03125 C69.525088,123.728519 70.3717592,124.077148 71.3737174,124.077148 C72.3756755,124.077148 73.2252764,123.728519 73.9225455,123.03125 C74.6139552,122.33984 74.9596549,121.501958 74.9596549,120.517578 C74.9596549,119.51562 74.6110255,118.663089 73.9137564,117.959961 C73.2282061,117.268551 72.3727459,116.922852 71.3473502,116.922852 Z M79.9148448,117.02832 C80.6589891,116.24902 81.5349569,115.859375 82.5427744,115.859375 C83.579889,115.859375 84.4675754,116.225582 85.2058604,116.958008 C85.9031295,117.649418 86.2517588,118.469722 86.2517588,119.418945 L86.2517588,124.709961 C86.2576182,124.909181 86.1609395,125.005859 85.9617198,125 L85.4958994,125 C85.2966797,125.005859 85.200001,124.909181 85.2058604,124.709961 L85.2058604,119.506836 C85.2058604,118.803707 84.9451208,118.197268 84.4236338,117.6875 C83.9021468,117.166013 83.2693407,116.905273 82.5251963,116.905273 C81.7341767,116.905273 81.0925816,117.151365 80.6003916,117.643555 C80.1433581,118.100588 79.9148448,118.704098 79.9148448,119.454102 L79.9148448,124.709961 C79.9207042,124.909181 79.8240254,125.005859 79.6248057,125 L79.1414073,125 C78.9421875,125.005859 78.8455088,124.909181 78.8513682,124.709961 L78.8513682,112.695312 C78.8455088,112.490233 78.9421875,112.390625 79.1414073,112.396484 L79.6248057,112.396484 C79.8240254,112.390625 79.9207042,112.490233 79.9148448,112.695312 L79.9148448,117.02832 Z M88.9393706,124.709961 L88.9393706,116.290039 C88.9335112,116.090819 89.0301899,115.994141 89.2294096,116 L89.7128081,116 C89.9120278,115.994141 90.0087065,116.090819 90.0028471,116.290039 L90.0028471,124.709961 C90.0087065,124.909181 89.9120278,125.005859 89.7128081,125 L89.2294096,125 C89.0301899,125.005859 88.9335112,124.909181 88.9393706,124.709961 Z M89.4755034,113.697266 C89.6278479,113.697266 89.7626122,113.755859 89.8798003,113.873047 C89.9969883,113.990235 90.0555815,114.124999 90.0555815,114.277344 C90.0555815,114.435548 89.9969883,114.573242 89.8798003,114.69043 C89.7684716,114.807618 89.6337073,114.866211 89.4755034,114.866211 C89.3114401,114.866211 89.1737461,114.807618 89.0624174,114.69043 C88.9452294,114.579101 88.8866362,114.441407 88.8866362,114.277344 C88.8866362,114.11914 88.9422997,113.984376 89.0536284,113.873047 C89.1708165,113.755859 89.3114401,113.697266 89.4755034,113.697266 Z M94.4219042,113.697266 C94.5742487,113.697266 94.7060833,113.755859 94.817412,113.873047 C94.9346001,113.984376 94.9931932,114.11914 94.9931932,114.277344 C94.9931932,114.441407 94.9346001,114.582031 94.817412,114.699219 C94.7060833,114.810547 94.5742487,114.866211 94.4219042,114.866211 C94.2578409,114.866211 94.1172173,114.807618 94.0000292,114.69043 C93.8828411,114.573242 93.8242479,114.435548 93.8242479,114.277344 C93.8242479,114.11914 93.8799114,113.984376 93.9912401,113.873047 C94.1084282,113.755859 94.2519815,113.697266 94.4219042,113.697266 Z M94.9404589,116.290039 L94.9404589,127.830078 C94.9404589,128.251955 94.7471014,128.603514 94.3603807,128.884766 C93.9912383,129.148439 93.5722972,129.280273 93.1035448,129.280273 C92.787137,129.280273 92.6289354,129.201173 92.6289354,129.042969 C92.6289354,129.013672 92.6347948,128.975586 92.6465136,128.928711 L92.7871386,128.295898 C92.792998,128.266601 92.8076463,128.249023 92.8310839,128.243164 L92.848662,128.243164 L92.9365526,128.251953 L92.9804979,128.251953 C93.1211236,128.251953 93.2676066,128.216797 93.4199511,128.146484 C93.7363589,127.999999 93.8945604,127.753908 93.8945604,127.408203 L93.8945604,116.290039 C93.888701,116.090819 93.9853798,115.994141 94.1845995,116 L94.6504198,116 C94.8496396,115.994141 94.9463183,116.090819 94.9404589,116.290039 Z M98.8585394,119.84082 L101.442524,116.219727 C101.542134,116.067382 101.682757,115.994141 101.864399,116 L102.576313,116 C102.693501,116 102.752094,116.049804 102.752094,116.149414 C102.752094,116.178711 102.737446,116.213867 102.708149,116.254883 L99.8165472,120.324219 C100.923975,122.046884 101.673967,123.154294 102.066547,123.646484 C102.588034,124.349613 102.848774,124.750976 102.848774,124.850586 C102.848774,124.950196 102.787251,125 102.664203,125 L101.969867,125 C101.788226,125 101.650532,124.926759 101.556782,124.780273 L98.8585394,120.772461 L98.8585394,124.709961 C98.8643988,124.909181 98.7677201,125.005859 98.5685003,125 L98.10268,125 C97.9034603,125.005859 97.8067815,124.909181 97.8126409,124.709961 L97.8126409,112.695312 C97.8067815,112.490233 97.9034603,112.390625 98.10268,112.396484 L98.5685003,112.396484 C98.7677201,112.390625 98.8643988,112.490233 98.8585394,112.695312 L98.8585394,119.84082 Z M105.299081,124.709961 L105.299081,112.712891 C105.293221,112.507811 105.3899,112.408203 105.58912,112.414062 L106.072518,112.414062 C106.271738,112.408203 106.368417,112.507811 106.362557,112.712891 L106.362557,124.709961 C106.368417,124.909181 106.271738,125.005859 106.072518,125 L105.58912,125 C105.3899,125.005859 105.293221,124.909181 105.299081,124.709961 Z M116.186888,117.652344 C116.95447,116.457025 118.012076,115.859375 119.359739,115.859375 C120.385135,115.859375 121.266962,116.222653 122.005247,116.949219 C122.714235,117.652347 123.068724,118.4873 123.068724,119.454102 L123.068724,124.709961 C123.074583,124.909181 122.977904,125.005859 122.778685,125 L122.312864,125 C122.113645,125.005859 122.016966,124.909181 122.022825,124.709961 L122.022825,119.568359 C122.022825,118.853512 121.762086,118.235354 121.240599,117.713867 C120.713252,117.186521 120.086306,116.922852 119.359739,116.922852 C118.639033,116.922852 118.015016,117.177732 117.487669,117.6875 C116.960323,118.191409 116.696654,118.768551 116.696654,119.418945 L116.696654,124.709961 C116.702513,124.909181 116.605834,125.005859 116.406614,125 L115.958372,125 C115.759153,125.005859 115.662474,124.909181 115.668333,124.709961 L115.668333,119.506836 C115.668333,118.803707 115.407594,118.197268 114.886107,117.6875 C114.36462,117.166013 113.731813,116.905273 112.987669,116.905273 C112.19079,116.905273 111.546265,117.151365 111.054075,117.643555 C110.602901,118.094729 110.377318,118.692379 110.377318,119.436523 L110.377318,124.709961 C110.383177,124.909181 110.286498,125.005859 110.087279,125 L109.60388,125 C109.40466,125.005859 109.307982,124.909181 109.313841,124.709961 L109.313841,116.290039 C109.307982,116.090819 109.40466,115.994141 109.60388,116 L110.087279,116 C110.286498,115.994141 110.383177,116.090819 110.377318,116.290039 L110.377318,117.02832 C111.121462,116.24902 111.99743,115.859375 113.005247,115.859375 C114.347051,115.859375 115.407587,116.457025 116.186888,117.652344 Z M127.136218,117.02832 C127.880363,116.24902 128.756331,115.859375 129.764148,115.859375 C130.801263,115.859375 131.688949,116.225582 132.427234,116.958008 C133.124503,117.649418 133.473132,118.469722 133.473132,119.418945 L133.473132,124.709961 C133.478992,124.909181 133.382313,125.005859 133.183093,125 L132.717273,125 C132.518053,125.005859 132.421375,124.909181 132.427234,124.709961 L132.427234,119.506836 C132.427234,118.803707 132.166494,118.197268 131.645007,117.6875 C131.12352,117.166013 130.490714,116.905273 129.74657,116.905273 C128.95555,116.905273 128.313955,117.151365 127.821765,117.643555 C127.364732,118.100588 127.136218,118.704098 127.136218,119.454102 L127.136218,124.709961 C127.142078,124.909181 127.045399,125.005859 126.846179,125 L126.362781,125 C126.163561,125.005859 126.066882,124.909181 126.072742,124.709961 L126.072742,116.290039 C126.066882,116.090819 126.163561,115.99707 126.362781,116.008789 L126.846179,116.017578 C127.045399,116.011719 127.142078,116.108397 127.136218,116.307617 L127.136218,117.02832 Z M141.012307,115.859375 C142.266219,115.859375 143.344333,116.310542 144.246682,117.212891 C145.14903,118.115239 145.600197,119.205072 145.600197,120.482422 C145.600197,121.78321 145.1461,122.887691 144.237893,123.795898 C143.335544,124.692387 142.245712,125.140625 140.968361,125.140625 C139.673433,125.140625 138.574811,124.686528 137.672463,123.77832 C136.764255,122.875972 136.310158,121.78028 136.310158,120.491211 C136.310158,119.21972 136.758396,118.129887 137.654885,117.22168 C138.557233,116.313472 139.676363,115.859375 141.012307,115.859375 Z M140.933205,116.922852 C139.942966,116.922852 139.099224,117.274411 138.401955,117.977539 C137.716405,118.668949 137.373635,119.503901 137.373635,120.482422 C137.373635,121.490239 137.722264,122.33984 138.419533,123.03125 C139.110943,123.728519 139.960544,124.077148 140.968361,124.077148 C141.952741,124.077148 142.790624,123.734378 143.482033,123.048828 C144.185162,122.351559 144.536721,121.499028 144.536721,120.491211 C144.536721,119.500972 144.191021,118.65723 143.499611,117.959961 C142.814061,117.268551 141.958601,116.922852 140.933205,116.922852 Z M149.527067,123.347656 L149.527067,128.401367 C149.532926,128.600587 149.436248,128.697266 149.237028,128.691406 L148.753629,128.691406 C148.55441,128.697266 148.457731,128.600587 148.46359,128.401367 L148.46359,116.290039 C148.457731,116.090819 148.55441,115.994141 148.753629,116 L149.237028,116 C149.436248,115.994141 149.532926,116.090819 149.527067,116.290039 L149.527067,117.634766 C150.458712,116.451166 151.648153,115.859375 153.095426,115.859375 C154.390355,115.859375 155.488976,116.310542 156.391325,117.212891 C157.299532,118.121098 157.753629,119.22265 157.753629,120.517578 C157.753629,121.789069 157.305392,122.875972 156.408903,123.77832 C155.500695,124.686528 154.396214,125.140625 153.095426,125.140625 C151.642294,125.140625 150.452853,124.542975 149.527067,123.347656 Z M153.06027,116.922852 C152.099328,116.922852 151.273164,117.265622 150.581754,117.951172 C149.878626,118.648441 149.527067,119.503901 149.527067,120.517578 C149.527067,121.507817 149.872767,122.348629 150.564176,123.040039 C151.261445,123.731449 152.105187,124.077148 153.095426,124.077148 C154.109103,124.077148 154.964563,123.725589 155.661832,123.022461 C156.347383,122.336911 156.690153,121.501958 156.690153,120.517578 C156.690153,119.51562 156.341523,118.666019 155.644254,117.96875 C154.958704,117.271481 154.097385,116.922852 153.06027,116.922852 Z M168.632647,117.634766 L168.632647,116.290039 C168.626788,116.090819 168.723467,115.994141 168.922686,116 L169.406085,116 C169.605305,115.994141 169.701983,116.090819 169.696124,116.290039 L169.696124,128.375 C169.701983,128.580079 169.605305,128.679688 169.406085,128.673828 L168.922686,128.673828 C168.723467,128.679688 168.626788,128.580079 168.632647,128.375 L168.632647,123.347656 C167.712721,124.531256 166.52328,125.123047 165.064288,125.123047 C163.757641,125.123047 162.65023,124.66895 161.742022,123.760742 C160.851393,122.864253 160.406085,121.783209 160.406085,120.517578 C160.406085,119.22265 160.860182,118.121098 161.76839,117.212891 C162.670738,116.310542 163.76936,115.859375 165.064288,115.859375 C166.505701,115.859375 167.695143,116.451166 168.632647,117.634766 Z M165.037921,116.922852 C164.047681,116.922852 163.20687,117.271481 162.51546,117.96875 C161.818191,118.66016 161.469561,119.506831 161.469561,120.508789 C161.469561,121.499028 161.812331,122.336911 162.497882,123.022461 C163.195151,123.725589 164.050611,124.077148 165.064288,124.077148 C166.054527,124.077148 166.898269,123.731449 167.595538,123.040039 C168.286948,122.348629 168.632647,121.507817 168.632647,120.517578 C168.632647,119.509761 168.281088,118.6543 167.57796,117.951172 C166.89241,117.265622 166.045738,116.922852 165.037921,116.922852 Z M173.429634,117.02832 C174.068309,116.284176 174.997011,115.900391 176.215767,115.876953 L176.365181,115.876953 C176.552682,115.876953 176.661079,115.879883 176.690376,115.885742 C176.807564,115.915039 176.866158,116.002929 176.866158,116.149414 C176.866158,116.354493 176.860298,116.544921 176.848579,116.720703 C176.836861,116.873048 176.75776,116.949219 176.611275,116.949219 L176.567329,116.949219 C176.438423,116.9375 176.327096,116.931641 176.233345,116.931641 C175.629826,116.931641 175.070262,117.081053 174.554634,117.379883 C173.80463,117.807619 173.429634,118.499019 173.429634,119.454102 L173.429634,124.709961 C173.435494,124.909181 173.338815,125.005859 173.139595,125 L172.656197,125 C172.456977,125.005859 172.360298,124.909181 172.366158,124.709961 L172.366158,116.298828 C172.366158,116.105468 172.442329,116.008789 172.594673,116.008789 C172.62397,116.008789 172.659126,116.011719 172.700142,116.017578 C172.741158,116.017578 172.872992,116.020508 173.09565,116.026367 C173.318307,116.020508 173.429634,116.120116 173.429634,116.325195 L173.429634,117.02832 Z M179.711972,123.734375 L180.125058,123.488281 C180.195371,123.447265 180.253964,123.426758 180.30084,123.426758 C180.371152,123.426758 180.467831,123.49414 180.590879,123.628906 C180.883849,123.939455 181.250056,124.094727 181.689511,124.094727 C182.087951,124.094727 182.421932,123.959962 182.691465,123.69043 C182.960997,123.415038 183.095761,123.089846 183.095761,122.714844 C183.095761,122.25781 182.887756,121.83301 182.471738,121.44043 C182.208065,121.194335 181.780335,120.898439 181.188535,120.552734 C180.637751,120.230467 180.251036,119.94922 180.028379,119.708984 C179.676814,119.339842 179.501035,118.876956 179.501035,118.320312 C179.501035,117.640622 179.741267,117.05762 180.221738,116.571289 C180.69635,116.096677 181.255915,115.859375 181.900449,115.859375 C182.609437,115.859375 183.212947,116.108396 183.710996,116.606445 C183.828184,116.729493 183.886777,116.829101 183.886777,116.905273 C183.886777,116.987305 183.842832,117.060547 183.754941,117.125 L183.341855,117.432617 C183.265683,117.491211 183.201231,117.520508 183.148496,117.520508 C183.084042,117.520508 182.999082,117.470704 182.893613,117.371094 C182.594783,117.072264 182.254943,116.922852 181.874082,116.922852 C181.458064,116.922852 181.127013,117.092772 180.880918,117.432617 C180.693417,117.69629 180.599668,117.989256 180.599668,118.311523 C180.599668,118.627931 180.74908,118.915038 181.04791,119.172852 C181.24713,119.342774 181.575251,119.568358 182.032285,119.849609 C182.794007,120.318362 183.315487,120.725584 183.596738,121.071289 C183.97174,121.540041 184.159238,122.093747 184.159238,122.732422 C184.159238,123.417972 183.933654,123.986326 183.48248,124.4375 C183.002009,124.906252 182.404359,125.140625 181.689511,125.140625 C180.869195,125.140625 180.204162,124.83887 179.694394,124.235352 C179.600644,124.124023 179.553769,124.036133 179.553769,123.97168 C179.553769,123.877929 179.606503,123.798828 179.711972,123.734375 Z M189.19353,116.070312 L189.19353,113.714844 C189.18767,113.515624 189.284349,113.418945 189.483569,113.424805 L189.9406,113.424805 C190.145679,113.418945 190.245287,113.515624 190.239428,113.714844 L190.239428,116.070312 L192.498217,116.070312 C192.703296,116.064453 192.802905,116.161132 192.797045,116.360352 L192.797045,116.773438 C192.802905,116.972657 192.703296,117.069336 192.498217,117.063477 L190.239428,117.063477 L190.239428,124.709961 C190.245287,124.909181 190.145679,125.005859 189.9406,125 L189.483569,125 C189.284349,125.005859 189.18767,124.909181 189.19353,124.709961 L189.19353,117.063477 L186.908373,117.063477 C186.709154,117.069336 186.612475,116.972657 186.618334,116.773438 L186.618334,116.360352 C186.612475,116.161132 186.709154,116.064453 186.908373,116.070312 L189.19353,116.070312 Z M201.698524,123.954102 C200.960239,124.745121 200.072553,125.140625 199.035438,125.140625 C197.998324,125.140625 197.113567,124.774418 196.381141,124.041992 C195.678013,123.338864 195.326454,122.5127 195.326454,121.563477 L195.326454,116.307617 C195.320594,116.108397 195.417273,116.011719 195.616493,116.017578 L196.099891,116.017578 C196.299111,116.011719 196.39579,116.108397 196.38993,116.307617 L196.38993,121.475586 C196.38993,122.178714 196.644811,122.785154 197.154579,123.294922 C197.676066,123.816409 198.311802,124.077148 199.061805,124.077148 C199.858684,124.077148 200.503209,123.828127 200.995399,123.330078 C201.452433,122.873045 201.680946,122.278324 201.680946,121.545898 L201.680946,116.307617 C201.675087,116.108397 201.771765,116.011719 201.970985,116.017578 L202.436805,116.017578 C202.636025,116.011719 202.732704,116.108397 202.726844,116.307617 L202.726844,124.709961 C202.732704,124.909181 202.636025,125.005859 202.436805,125 L201.988563,125 C201.789343,125.005859 201.692665,124.909181 201.698524,124.709961 L201.698524,123.954102 Z M208.807034,123.268555 L211.153714,116.237305 C211.206449,116.079101 211.317776,116 211.487698,116 L212.058987,116 C212.211332,116 212.287503,116.061523 212.287503,116.18457 C212.287503,116.219727 212.281644,116.254883 212.269925,116.290039 L209.3168,124.762695 C209.264065,124.920899 209.152738,125 208.982816,125 L208.622464,125 C208.452541,125 208.341214,124.920899 208.28848,124.762695 L205.361722,116.290039 C205.344144,116.243164 205.335355,116.205078 205.335355,116.175781 C205.335355,116.058593 205.411526,116 205.56387,116 L206.143948,116 C206.313871,116 206.422268,116.079101 206.469144,116.237305 L208.807034,123.268555 Z M220.811052,117.977539 L218.552263,124.762695 C218.499529,124.920899 218.388202,125 218.218279,125 L217.857927,125 C217.688005,125 217.576678,124.920899 217.523943,124.762695 L214.685076,116.290039 C214.667497,116.243164 214.658708,116.205078 214.658708,116.175781 C214.658708,116.058593 214.73488,116 214.887224,116 L215.467302,116 C215.637225,116 215.745622,116.079101 215.792498,116.237305 L218.051287,123.224609 L220.336443,116.237305 C220.389178,116.073241 220.500505,115.994141 220.670427,116 L220.978044,116 C221.147967,116 221.256365,116.079101 221.30324,116.237305 L223.570818,123.259766 L225.829607,116.237305 C225.876482,116.079101 225.98488,116 226.154802,116 L226.73488,116 C226.887225,116 226.963396,116.061523 226.963396,116.18457 C226.963396,116.213867 226.957537,116.249023 226.945818,116.290039 L224.098162,124.762695 C224.045427,124.920899 223.9341,125 223.764177,125 L223.368669,125 C223.198747,125 223.08742,124.920899 223.034685,124.762695 L220.811052,117.977539 Z M232.72718,121.510742 L231.118781,124.050781 C230.761358,124.613284 230.562141,124.90918 230.521125,124.938477 C230.456671,124.979492 230.368782,125 230.257453,125 L229.589484,125 C229.460577,125 229.396125,124.950196 229.396125,124.850586 C229.396125,124.821289 229.410773,124.783203 229.44007,124.736328 L232.094367,120.517578 L229.404914,116.263672 C229.375617,116.216797 229.360969,116.178711 229.360969,116.149414 C229.360969,116.049804 229.422492,116 229.545539,116 L230.257453,116 C230.444954,116 230.603156,116.114257 230.732062,116.342773 C231.921522,118.475597 232.586554,119.541992 232.72718,119.541992 L234.801398,116.237305 C234.895149,116.09082 235.029913,116.017578 235.205695,116.017578 L235.873664,116.017578 C235.996711,116.017578 236.058234,116.067382 236.058234,116.166992 C236.058234,116.202149 236.043586,116.240234 236.014289,116.28125 L233.359992,120.517578 L236.049445,124.762695 C236.067023,124.786133 236.075812,124.81543 236.075812,124.850586 C236.075812,124.950196 236.01429,125 235.891242,125 L235.214484,125 C235.091437,125 234.997688,124.976563 234.933234,124.929688 C234.903937,124.929688 234.596323,124.466802 234.010383,123.541016 L232.72718,121.510742 Z M241.874752,123.400391 L244.397213,116.219727 C244.455807,116.061523 244.567134,115.982422 244.731198,115.982422 L245.311276,115.982422 C245.46362,115.982422 245.539791,116.041015 245.539791,116.158203 C245.539791,116.1875 245.531002,116.225586 245.513424,116.272461 L241.162838,128.47168 C241.110104,128.629884 240.998777,128.708984 240.828854,128.708984 L240.283932,128.708984 C240.131587,128.708984 240.055416,128.650391 240.055416,128.533203 C240.055416,128.503906 240.204829,128.076176 240.503659,127.25 L241.312252,124.964844 L238.499752,117.001953 C238.318111,116.480466 238.227291,116.205078 238.227291,116.175781 C238.227291,116.058593 238.303462,116 238.455807,116 L239.053463,116 C239.217527,116 239.325924,116.079101 239.378659,116.237305 L241.874752,123.400391 Z M249.115098,124.006836 L253.659044,124.006836 C253.864123,124.000977 253.963731,124.097655 253.957872,124.296875 L253.957872,124.709961 C253.963731,124.909181 253.864123,125.005859 253.659044,125 L248.016466,125 C247.817246,125.005859 247.720567,124.91211 247.726427,124.71875 L247.726427,124.595703 C247.726427,124.42578 247.767442,124.276368 247.849473,124.147461 L252.586778,117.010742 L248.051622,117.010742 C247.852402,117.016602 247.755723,116.919923 247.761583,116.720703 L247.761583,116.290039 C247.755723,116.090819 247.852402,115.994141 248.051622,116 L253.623888,116 C253.828967,115.994141 253.928575,116.090819 253.922716,116.290039 L253.922716,116.536133 C253.916856,116.735353 253.840685,116.946288 253.6942,117.168945 L249.115098,124.006836 Z" id="abcdefghijklmnopqrst"></path>
                <path d="M1.22167969,146.983398 L1.22167969,141.53418 C1.22167969,140.420893 1.63183184,139.454106 2.45214844,138.633789 C3.27832444,137.807613 4.25390063,137.394531 5.37890625,137.394531 C6.52149009,137.394531 7.5087849,137.813472 8.34082031,138.651367 C9.14941811,139.454106 9.55371094,140.415033 9.55371094,141.53418 L9.55371094,146.983398 C9.55371094,148.090826 9.14648845,149.054683 8.33203125,149.875 C7.49999584,150.707035 6.52149,151.123047 5.39648438,151.123047 C4.26561935,151.123047 3.28418385,150.709965 2.45214844,149.883789 C1.63183184,149.069332 1.22167969,148.102545 1.22167969,146.983398 Z M2.30273438,141.551758 L2.30273438,146.983398 C2.30273438,147.786137 2.61034849,148.495114 3.22558594,149.110352 C3.84082339,149.731448 4.56737862,150.041992 5.40527344,150.041992 C6.23144944,150.041992 6.94335639,149.743167 7.54101562,149.145508 C8.13867486,148.541989 8.4375,147.821293 8.4375,146.983398 L8.4375,141.551758 C8.4375,140.725582 8.13867486,140.010745 7.54101562,139.407227 C6.93749698,138.809567 6.22266038,138.510742 5.39648438,138.510742 C4.54687075,138.510742 3.81738586,138.818356 3.20800781,139.433594 C2.60448917,140.037112 2.30273438,140.74316 2.30273438,141.551758 Z M16.5673828,138.510742 L14.8447266,138.510742 C14.6455068,138.516602 14.5488281,138.419923 14.5546875,138.220703 L14.5546875,137.790039 C14.5488281,137.590819 14.6455068,137.494141 14.8447266,137.5 L17.5341797,137.5 C17.7392588,137.494141 17.8388672,137.590819 17.8330078,137.790039 L17.8330078,150.709961 C17.8388672,150.909181 17.7392588,151.005859 17.5341797,151 L17.0068359,151 C16.8076162,151.005859 16.7109375,150.909181 16.7167969,150.709961 L16.7167969,138.660156 C16.7167969,138.560546 16.6669927,138.510742 16.5673828,138.510742 Z M24.6972656,149.883789 C24.8320319,149.895508 25.0898418,149.901367 25.4707031,149.901367 L30.9550781,149.901367 C31.1601573,149.895508 31.2597657,149.992187 31.2539062,150.191406 L31.2539062,150.709961 C31.2597657,150.909181 31.1601573,151.005859 30.9550781,151 L23.4140625,151 C23.2148428,151.005859 23.1152344,150.909181 23.1152344,150.709961 L23.0800781,150.349609 C23.0683593,150.273437 23.0625,150.226563 23.0625,150.208984 C23.0625,150.097656 23.1210932,149.983399 23.2382812,149.866211 L27.6855469,145.418945 C28.4355506,144.674801 28.9804671,144.065432 29.3203125,143.59082 C29.8886747,142.81152 30.1728516,142.055668 30.1728516,141.323242 C30.1728516,140.56152 29.8974637,139.902347 29.3466797,139.345703 C28.7900363,138.78906 28.1074259,138.510742 27.2988281,138.510742 C26.5781214,138.510742 25.9365263,138.727537 25.3740234,139.161133 C24.9345681,139.500978 24.6035167,139.899412 24.3808594,140.356445 C24.2812495,140.567384 24.1962894,140.672852 24.1259766,140.672852 C24.0673825,140.672852 24.0146487,140.643555 23.9677734,140.584961 L23.6777344,140.250977 C23.6015621,140.163085 23.5634766,140.081055 23.5634766,140.004883 C23.5634766,139.829101 23.7187484,139.527346 24.0292969,139.099609 C24.8378947,137.986323 25.9365165,137.429688 27.3251953,137.429688 C28.4677792,137.429688 29.4140587,137.804684 30.1640625,138.554688 C30.8906286,139.281254 31.2539062,140.186518 31.2539062,141.270508 C31.2539062,142.641608 30.5390696,144.041985 29.109375,145.47168 L25.7080078,148.873047 C25.3505842,149.224611 25.0136735,149.561522 24.6972656,149.883789 Z M34.8398438,139.46875 L34.6201172,139.029297 C34.5849608,138.953125 34.5673828,138.894531 34.5673828,138.853516 C34.5673828,138.765625 34.6582022,138.645509 34.8398438,138.493164 C35.7363326,137.737301 36.7089791,137.359375 37.7578125,137.359375 C38.8535211,137.359375 39.7441372,137.699215 40.4296875,138.378906 C41.044925,138.994144 41.3525391,139.738277 41.3525391,140.611328 C41.3525391,141.414067 41.0625029,142.117184 40.4824219,142.720703 C40.2773427,142.937501 40.0371108,143.11621 39.7617188,143.256836 C39.6445307,143.31543 39.5742189,143.356445 39.5507812,143.379883 C39.5566407,143.397461 39.6386711,143.441406 39.796875,143.511719 C39.9785165,143.59375 40.2128892,143.725585 40.5,143.907227 C40.9335959,144.188478 41.3056625,144.572263 41.6162109,145.058594 C41.9677752,145.621097 42.1435547,146.259762 42.1435547,146.974609 C42.1435547,148.14649 41.7509805,149.124996 40.9658203,149.910156 C40.1630819,150.707035 39.1377016,151.105469 37.8896484,151.105469 C36.6826112,151.105469 35.5722707,150.701176 34.5585938,149.892578 C34.3769522,149.751952 34.2861328,149.634766 34.2861328,149.541016 C34.2861328,149.5 34.3066404,149.441407 34.3476562,149.365234 L34.59375,148.908203 C34.6464846,148.814453 34.7109371,148.767578 34.7871094,148.767578 C34.8457034,148.767578 34.9365228,148.826171 35.0595703,148.943359 C35.8330117,149.664066 36.755854,150.024414 37.828125,150.024414 C38.7656297,150.024414 39.5302705,149.728519 40.1220703,149.136719 C40.725589,148.53906 41.0273438,147.800786 41.0273438,146.921875 C41.0273438,146.18359 40.7636745,145.541995 40.2363281,144.99707 C39.5742154,144.323239 38.7158256,143.977539 37.6611328,143.959961 L36.7119141,143.951172 C36.5068349,143.951172 36.4072265,143.851563 36.4130859,143.652344 L36.4130859,143.300781 C36.4072265,143.101562 36.5039053,143.001953 36.703125,143.001953 L37.5908203,142.993164 C38.4404339,142.975586 39.1201146,142.703128 39.6298828,142.175781 C40.0459005,141.748045 40.2539062,141.229495 40.2539062,140.620117 C40.2539062,140.028317 40.0517598,139.530275 39.6474609,139.125977 C39.1669898,138.645505 38.5195353,138.405273 37.7050781,138.405273 C36.7851517,138.405273 35.9648474,138.759762 35.2441406,139.46875 C35.1503902,139.5625 35.0771487,139.609375 35.0244141,139.609375 C34.9482418,139.609375 34.886719,139.5625 34.8398438,139.46875 Z M53.0068359,147.493164 L53.0068359,148.011719 C53.0185547,148.210938 52.921876,148.307617 52.7167969,148.301758 L51.5039063,148.301758 C51.4042964,148.301758 51.3544922,148.351562 51.3544922,148.451172 L51.3544922,150.709961 C51.3603516,150.909181 51.2636729,151.005859 51.0644531,151 L50.5458984,151 C50.3466787,151.005859 50.25,150.909181 50.2558594,150.709961 L50.2558594,148.451172 C50.2558594,148.351562 50.2060552,148.301758 50.1064453,148.301758 L44.5166016,148.301758 C44.3173818,148.307617 44.2207031,148.210938 44.2265625,148.011719 L44.2265625,147.642578 C44.2265625,147.419921 44.3027336,147.188478 44.4550781,146.948242 L50.3349609,137.719727 C50.422852,137.573241 50.5546866,137.5 50.7304688,137.5 L51.0644531,137.5 C51.2636729,137.494141 51.3603516,137.590819 51.3544922,137.790039 L51.3544922,147.053711 C51.3544922,147.153321 51.4042964,147.203125 51.5039063,147.203125 L52.7167969,147.203125 C52.921876,147.197266 53.0185547,147.293944 53.0068359,147.493164 Z M45.5009766,147.176758 C45.5126954,147.194336 45.524414,147.203125 45.5361328,147.203125 L50.1064453,147.203125 C50.2060552,147.203125 50.2558594,147.153321 50.2558594,147.053711 L50.2558594,140.21582 C50.2558594,139.999022 50.2500001,139.84375 50.2382812,139.75 L45.5009766,147.176758 Z M56.9794922,142.615234 C57.7412147,142.240232 58.4853479,142.052734 59.2119141,142.052734 C60.4834048,142.052734 61.561519,142.498042 62.4462891,143.388672 C63.3369185,144.273442 63.7822266,145.345697 63.7822266,146.605469 C63.7822266,147.859381 63.3427778,148.925777 62.4638672,149.804688 C61.5732377,150.695317 60.4951235,151.140625 59.2294922,151.140625 C57.9169856,151.140625 56.8271528,150.657231 55.9599609,149.69043 C55.6376937,149.333006 55.3828134,148.969728 55.1953125,148.600586 C55.1367185,148.483398 55.1074219,148.398438 55.1074219,148.345703 C55.1074219,148.246093 55.174804,148.175781 55.3095703,148.134766 L55.7490234,147.994141 C55.8017581,147.976562 55.8457029,147.967773 55.8808594,147.967773 C55.9746098,147.967773 56.0888665,148.093749 56.2236328,148.345703 C56.4521496,148.779299 56.7890603,149.151366 57.234375,149.461914 C57.8203154,149.860354 58.4824182,150.05957 59.2207031,150.05957 C60.1875048,150.05957 61.0048795,149.728519 61.6728516,149.066406 C62.3466831,148.398434 62.6835938,147.57813 62.6835938,146.605469 C62.6835938,145.632808 62.3466831,144.812503 61.6728516,144.144531 C61.0048795,143.482419 60.1904345,143.151367 59.2294922,143.151367 L59.1679688,143.151367 C58.142573,143.151367 57.3339873,143.356443 56.7421875,143.766602 C56.6542964,143.831055 56.581055,143.863281 56.5224609,143.863281 C56.4580075,143.863281 56.3876957,143.828125 56.3115234,143.757812 L55.9599609,143.423828 C55.8544917,143.324218 55.8017578,143.22754 55.8017578,143.133789 C55.8017578,143.092773 55.8076171,143.042969 55.8193359,142.984375 L56.8037109,137.754883 C56.833008,137.579101 56.935546,137.494141 57.1113281,137.5 L62.4814453,137.5 C62.6806651,137.494141 62.7773438,137.590819 62.7714844,137.790039 L62.7714844,138.291016 C62.7773438,138.490235 62.6806651,138.586914 62.4814453,138.581055 L57.8320312,138.581055 C57.7441402,138.581055 57.694336,138.62207 57.6826172,138.704102 L56.9794922,142.615234 Z M68.8447266,142.175781 C69.3076195,141.999999 69.7705055,141.912109 70.2333984,141.912109 C71.516608,141.912109 72.6035112,142.354488 73.4941406,143.239258 C74.3789107,144.124028 74.8212891,145.21972 74.8212891,146.526367 C74.8212891,147.833014 74.3789107,148.928707 73.4941406,149.813477 C72.6093706,150.698247 71.5166081,151.140625 70.2158203,151.140625 C68.8974543,151.140625 67.7959029,150.701176 66.9111328,149.822266 C66.0263628,148.949214 65.5839844,147.853522 65.5839844,146.535156 C65.5839844,145.580073 65.8476536,144.704106 66.375,143.907227 L70.5410156,137.631836 C70.6054691,137.526367 70.6816402,137.473633 70.7695312,137.473633 C70.8105471,137.473633 70.8662106,137.49414 70.9365234,137.535156 L71.3935547,137.816406 C71.499024,137.88086 71.5517578,137.957031 71.5517578,138.044922 C71.5517578,138.091797 71.5283205,138.147461 71.4814453,138.211914 L68.8447266,142.175781 Z M70.171875,143.010742 C69.1933545,143.010742 68.3671909,143.347653 67.6933594,144.021484 C67.0195279,144.701175 66.6826172,145.539058 66.6826172,146.535156 C66.6826172,147.537114 67.0195279,148.372067 67.6933594,149.040039 C68.3613315,149.708011 69.1992137,150.041992 70.2070312,150.041992 C71.20313,150.041992 72.0380826,149.705081 72.7119141,149.03125 C73.3857456,148.363278 73.7226562,147.534185 73.7226562,146.543945 C73.7226562,145.571284 73.3798862,144.736332 72.6943359,144.039062 C72.0205044,143.353512 71.1796925,143.010742 70.171875,143.010742 Z M83.3994141,138.598633 C83.3935547,138.586914 83.3759767,138.581055 83.3466797,138.581055 L77.6425781,138.581055 C77.4433584,138.586914 77.3466797,138.490235 77.3525391,138.291016 L77.3525391,137.790039 C77.3466797,137.590819 77.4433584,137.494141 77.6425781,137.5 L84.4101562,137.5 C84.5742196,137.494141 84.6826169,137.567382 84.7353516,137.719727 L84.7792969,137.869141 C84.8085939,137.945313 84.8232422,138.006836 84.8232422,138.053711 C84.8232422,138.135743 84.782227,138.270507 84.7001953,138.458008 L79.2158203,150.71875 C79.1220698,150.91797 79.0253911,151.017578 78.9257812,151.017578 C78.8847654,151.017578 78.7529308,150.970704 78.5302734,150.876953 C78.2431626,150.753906 78.0996094,150.642579 78.0996094,150.542969 C78.0996094,150.472656 78.1582025,150.305665 78.2753906,150.041992 L83.3994141,138.598633 Z M93.5419922,143.529297 C95.0830155,144.355473 95.8535156,145.547844 95.8535156,147.106445 C95.8535156,148.219732 95.4550821,149.171871 94.6582031,149.962891 C93.8613241,150.748051 92.9091852,151.140625 91.8017578,151.140625 C90.6826116,151.140625 89.727543,150.742191 88.9365234,149.945312 C88.1455039,149.154293 87.75,148.208013 87.75,147.106445 C87.75,145.629875 88.5058518,144.437505 90.0175781,143.529297 C88.9511665,142.779293 88.4179688,141.853521 88.4179688,140.751953 C88.4179688,139.820308 88.7519498,139.020511 89.4199219,138.352539 C90.0820346,137.690426 90.8730423,137.359375 91.7929688,137.359375 C92.7128952,137.359375 93.5126919,137.696286 94.1923828,138.370117 C94.8427767,139.020511 95.1679688,139.785152 95.1679688,140.664062 C95.1679688,141.748052 94.625982,142.703121 93.5419922,143.529297 Z M91.7753906,144.109375 C90.9785116,144.109375 90.2929716,144.399411 89.71875,144.979492 C89.1269502,145.565433 88.8310547,146.268551 88.8310547,147.088867 C88.8310547,147.909184 89.1210908,148.609372 89.7011719,149.189453 C90.2812529,149.769534 90.9814412,150.05957 91.8017578,150.05957 C92.616215,150.05957 93.3134737,149.766604 93.8935547,149.180664 C94.4794951,148.594724 94.7724609,147.894535 94.7724609,147.080078 C94.7724609,146.259762 94.4824248,145.556644 93.9023438,144.970703 C93.3281221,144.396482 92.6191448,144.109375 91.7753906,144.109375 Z M91.7841797,138.458008 C91.1630828,138.458008 90.6269554,138.686521 90.1757812,139.143555 C89.7246071,139.594729 89.4990234,140.136716 89.4990234,140.769531 C89.4990234,141.419925 89.7275368,141.973631 90.1845703,142.430664 C90.629885,142.875979 91.1689421,143.098633 91.8017578,143.098633 C92.4287141,143.098633 92.9619119,142.875979 93.4013672,142.430664 C93.8584007,141.967771 94.0869141,141.414066 94.0869141,140.769531 C94.0869141,140.136716 93.86426,139.591799 93.4189453,139.134766 C92.9736306,138.683591 92.4287142,138.458008 91.7841797,138.458008 Z M103.96582,146.394531 C103.508787,146.558595 103.05176,146.640625 102.594727,146.640625 C101.299798,146.640625 100.207036,146.198247 99.3164062,145.313477 C98.4316362,144.434566 97.9892578,143.338874 97.9892578,142.026367 C97.9892578,140.71972 98.4345659,139.621098 99.3251953,138.730469 C100.209965,137.851558 101.296869,137.412109 102.585938,137.412109 C103.910163,137.412109 105.014644,137.854488 105.899414,138.739258 C106.784184,139.624028 107.226562,140.71679 107.226562,142.017578 C107.226562,142.943364 106.954104,143.819332 106.40918,144.645508 L102.287109,150.920898 C102.216797,151.026368 102.140625,151.079102 102.058594,151.079102 C102.017578,151.079102 101.958985,151.055664 101.882812,151.008789 L101.443359,150.745117 C101.33789,150.674804 101.285156,150.595704 101.285156,150.507812 C101.285156,150.466797 101.308594,150.411133 101.355469,150.34082 L103.96582,146.394531 Z M102.568359,138.510742 C101.595698,138.510742 100.772464,138.844723 100.098633,139.512695 C99.4248013,140.186527 99.0878906,141.01855 99.0878906,142.008789 C99.0878906,142.993169 99.4306606,143.828122 100.116211,144.513672 C100.795902,145.199222 101.627925,145.541992 102.612305,145.541992 C103.602544,145.541992 104.434567,145.205081 105.108398,144.53125 C105.788089,143.857419 106.12793,143.019536 106.12793,142.017578 C106.12793,141.027339 105.788089,140.192386 105.108398,139.512695 C104.440426,138.844723 103.593755,138.510742 102.568359,138.510742 Z" id="0123456789"></path>
            </g>
        </g>
    </g>
</svg>