<?xml version="1.0" encoding="UTF-8"?>
<svg width="337px" height="160px" viewBox="0 0 337 160" version="1.1" xmlns="http://www.w3.org/2000/svg" xmlns:xlink="http://www.w3.org/1999/xlink">
    <g id="Casy-Study---Restless" stroke="none" stroke-width="1" fill="none" fill-rule="evenodd">
        <g id="Desktop-Copy-9" transform="translate(-89.000000, -3145.000000)">
            <g id="Group-9" transform="translate(89.000000, 3145.000000)" fill="#37383D">
                <path d="M16.7138672,43.5664062 L13.5351562,51.2226562 C13.0566382,52.4303446 12.1679752,53.0227866 10.8691406,53 L3.11035156,53 C1.94823638,53 1.3671875,52.5670616 1.3671875,51.7011719 C1.3671875,51.4505196 1.43554619,51.1429055 1.57226562,50.7783203 L20.8496094,2.44824219 C21.3053408,1.21776729 22.1940038,0.613932178 23.515625,0.63671875 L28.0957031,0.63671875 C29.3945377,0.613932178 30.2832007,1.21776729 30.7617188,2.44824219 L50.0732422,50.7783203 C50.2099616,51.1429055 50.2783203,51.4505196 50.2783203,51.7011719 C50.2783203,52.5670616 49.6972714,53 48.5351562,53 L40.8789062,53 C39.5572851,53.0227866 38.6458358,52.4303446 38.1445312,51.2226562 L34.7949219,43.5664062 L16.7138672,43.5664062 Z M25.8398438,20.5976562 L20.8496094,32.9365234 L30.5908203,32.9365234 L25.8398438,20.5976562 Z M80.9375,51.1201172 C78.0663919,52.7379638 75.0586095,53.546875 71.9140625,53.546875 C66.9465897,53.546875 62.7083509,51.769549 59.1992188,48.2148438 C55.6900866,44.682925 53.9355469,40.4446862 53.9355469,35.5 C53.9355469,30.5553138 55.6900866,26.317075 59.1992188,22.7851562 C62.7083509,19.230451 66.9579829,17.453125 71.9482422,17.453125 C74.8193503,17.453125 77.5650911,18.1253188 80.1855469,19.4697266 C80.2539066,18.4671174 80.8463486,17.9772134 81.9628906,18 L87.7392578,18 C89.3115313,17.9544269 90.07487,18.7177656 90.0292969,20.2900391 L90.0292969,51.0517578 C90.0520834,52.6240313 89.2887447,53.38737 87.7392578,53.3417969 L83.2275391,53.3417969 C81.7236253,53.4101566 80.9602866,52.7493559 80.9375,51.359375 L80.9375,51.1201172 Z M71.8798828,28.0146484 C69.8518779,28.0146484 68.1315175,28.7324147 66.71875,30.1679688 C65.2831959,31.6035228 64.5654297,33.3808488 64.5654297,35.5 C64.5654297,37.6191512 65.2831959,39.3964772 66.71875,40.8320312 C68.1315175,42.2675853 69.863271,42.9853516 71.9140625,42.9853516 C74.0104271,42.9853516 75.7649669,42.2789784 77.1777344,40.8662109 C78.6132884,39.4306569 79.3310547,37.6419378 79.3310547,35.5 C79.3310547,33.3808488 78.6132884,31.5921297 77.1777344,30.1337891 C75.7649669,28.7210216 73.999034,28.0146484 71.8798828,28.0146484 Z" id="Aa"></path>
                <path d="M4.29785156,96.5742188 L3.48046875,98.5429688 C3.35742126,98.8535172 3.12890792,99.0058594 2.79492188,99 L0.799804688,99 C0.500975068,99 0.3515625,98.888673 0.3515625,98.6660156 C0.3515625,98.6015622 0.369140449,98.5224614 0.404296875,98.4287109 L5.36132812,86.0009766 C5.47851621,85.6845687 5.70702955,85.5292968 6.046875,85.5351562 L7.22460938,85.5351562 C7.55859542,85.5292968 7.78710876,85.6845687 7.91015625,86.0009766 L12.8759766,98.4287109 C12.911133,98.5224614 12.9287109,98.6015622 12.9287109,98.6660156 C12.9287109,98.888673 12.7792984,99 12.4804688,99 L10.5117188,99 C10.1718733,99.0058594 9.93750064,98.8535172 9.80859375,98.5429688 L8.94726562,96.5742188 L4.29785156,96.5742188 Z M6.64453125,90.6679688 L5.36132812,93.8408203 L7.86621094,93.8408203 L6.64453125,90.6679688 Z M22.8233539,91.5292969 C23.7842962,92.4668016 24.2647602,93.5331971 24.2647602,94.7285156 C24.2647602,95.8886777 23.8604674,96.8847615 23.0518696,97.7167969 C22.2198342,98.5722699 21.2325393,99 20.0899555,99 L16.4249164,99 C16.0206175,99.0117188 15.8243304,98.8154317 15.8360493,98.4111328 L15.8360493,86.1240234 C15.8243304,85.7197245 16.0206175,85.5234374 16.4249164,85.5351562 L19.8702289,85.5351562 C20.5030446,85.5351562 21.168077,85.7636696 21.8653461,86.2207031 C22.9610547,86.9472693 23.5089008,87.9785089 23.5089008,89.3144531 C23.5089008,90.1054727 23.2803875,90.8437466 22.8233539,91.5292969 Z M18.754018,96.0996094 L19.9932758,96.0996094 C20.3506995,96.0996094 20.6612432,95.9707044 20.9249164,95.7128906 C21.2178867,95.4199204 21.3643696,95.0595725 21.3643696,94.6318359 C21.3643696,94.2158182 21.2208163,93.8642592 20.9337055,93.5771484 C20.6700323,93.3193346 20.3565589,93.1904297 19.9932758,93.1904297 L18.754018,93.1904297 L18.754018,96.0996094 Z M18.754018,90.6328125 L19.7120258,90.6328125 C19.9639802,90.6328125 20.1954232,90.5185558 20.4063618,90.2900391 C20.6055815,90.0732411 20.7051899,89.8125015 20.7051899,89.5078125 C20.7051899,89.2031235 20.6026518,88.9482432 20.3975727,88.7431641 C20.1866341,88.5380849 19.9258946,88.4355469 19.6153461,88.4355469 L18.754018,88.4355469 L18.754018,90.6328125 Z M38.492411,87.4599609 L37.4289344,88.8398438 C37.2883087,89.0214853 37.1388962,89.1123047 36.9806923,89.1123047 C36.8869418,89.1123047 36.7433885,89.0507819 36.5500282,88.9277344 C35.8586185,88.5058573 35.1467115,88.2949219 34.414286,88.2949219 C33.6935793,88.2949219 32.9875316,88.5058573 32.2961219,88.9277344 C31.7160409,89.285158 31.2619439,89.756833 30.9338173,90.3427734 C30.5998312,90.9287139 30.4328407,91.570309 30.4328407,92.2675781 C30.4328407,93.3457085 30.8078369,94.2656212 31.5578407,95.0273438 C32.3371415,95.8242227 33.2863507,96.2226562 34.4054969,96.2226562 C35.1672195,96.2226562 35.8849858,96.0087912 36.5588173,95.5810547 C36.7463182,95.4638666 36.8869418,95.4052734 36.9806923,95.4052734 C37.1388962,95.4052734 37.2883087,95.4960928 37.4289344,95.6777344 L38.492411,97.0751953 C38.6037397,97.2216804 38.6594032,97.3447261 38.6594032,97.4443359 C38.6594032,97.6259775 38.5451465,97.792968 38.3166298,97.9453125 C37.1330301,98.7421915 35.8293322,99.140625 34.4054969,99.140625 C32.5011905,99.140625 30.8781599,98.4726629 29.5363563,97.1367188 C28.2004121,95.7949152 27.5324501,94.1718845 27.5324501,92.2675781 C27.5324501,90.3574123 28.2004121,88.7343817 29.5363563,87.3984375 C30.8781599,86.0624933 32.5070499,85.3945312 34.4230751,85.3945312 C36.0402706,85.3945312 37.3908431,85.8310503 38.4748329,86.7041016 C38.5978804,86.8037114 38.6594032,86.9326164 38.6594032,87.0908203 C38.6594032,87.1904302 38.6037397,87.3134758 38.492411,87.4599609 Z M41.8919368,98.4111328 L41.8919368,86.1240234 C41.880218,85.7197245 42.0765051,85.5234374 42.480804,85.5351562 L46.3743587,85.5351562 C48.2435087,85.5351562 49.8401724,86.197259 51.1643978,87.5214844 C52.4827637,88.8398503 53.1419368,90.4218658 53.1419368,92.2675781 C53.1419368,94.1132905 52.4827637,95.6953059 51.1643978,97.0136719 C49.8401724,98.3378972 48.2435087,99 46.3743587,99 L42.480804,99 C42.0765051,99.0117188 41.880218,98.8154317 41.8919368,98.4111328 Z M44.7923274,96.0996094 L46.3743587,96.0996094 C47.5110831,96.0996094 48.4427144,95.7392614 49.1692806,95.0185547 C49.8841279,94.3037074 50.2415462,93.3837947 50.2415462,92.2587891 C50.2415462,91.1103458 49.8870575,90.1816442 49.1780696,89.4726562 C48.4808005,88.7812465 47.5843251,88.4355469 46.4886165,88.4355469 L44.7923274,88.4355469 L44.7923274,96.0996094 Z M59.4242751,90.7910156 L63.5111892,90.7910156 C63.9154881,90.7792968 64.1117752,90.9755839 64.1000564,91.3798828 L64.1000564,93.1025391 C64.1117752,93.506838 63.9154881,93.7031251 63.5111892,93.6914062 L59.4242751,93.6914062 L59.4242751,96.0996094 L63.5111892,96.0996094 C63.9154881,96.0878906 64.1117752,96.2841777 64.1000564,96.6884766 L64.1000564,98.4111328 C64.1117752,98.8154317 63.9154881,99.0117188 63.5111892,99 L57.1127517,99 C56.7084528,99.0117188 56.5121657,98.8154317 56.5238845,98.4111328 L56.5238845,86.1240234 C56.5121657,85.7197245 56.7084528,85.5234374 57.1127517,85.5351562 L63.5111892,85.5351562 C63.9154881,85.5234374 64.1117752,85.7197245 64.1000564,86.1240234 L64.1000564,87.8466797 C64.1117752,88.2509786 63.9154881,88.4472657 63.5111892,88.4355469 L59.4242751,88.4355469 L59.4242751,90.7910156 Z M70.3648166,93.6914062 L70.3648166,98.4111328 C70.3765354,98.8154317 70.1802483,99.0117188 69.7759494,99 L68.0532931,99 C67.6489942,99.0117188 67.4527071,98.8154317 67.4644259,98.4111328 L67.4644259,86.1240234 C67.4527071,85.7197245 67.6489942,85.5234374 68.0532931,85.5351562 L74.4693087,85.5351562 C74.8736076,85.5234374 75.0698947,85.7197245 75.0581759,86.1240234 L75.0581759,87.8466797 C75.0698947,88.2509786 74.8736076,88.4472657 74.4693087,88.4355469 L70.3648166,88.4355469 L70.3648166,90.7910156 L74.4693087,90.7910156 C74.8736076,90.7792968 75.0698947,90.9755839 75.0581759,91.3798828 L75.0581759,93.1025391 C75.0698947,93.506838 74.8736076,93.7031251 74.4693087,93.6914062 L70.3648166,93.6914062 Z M87.7125846,94.3681641 L85.3307486,94.3681641 C84.9264497,94.3798829 84.7301626,94.1835958 84.7418814,93.7792969 L84.7418814,92.2236328 C84.7301626,91.8193339 84.9264497,91.6230468 85.3307486,91.6347656 L90.1207877,91.6347656 C90.5192272,91.6230468 90.7155143,91.8164043 90.7096549,92.2148438 L90.7096549,95.34375 L90.7184439,95.4052734 C90.7828974,95.8681664 90.6774297,96.2929668 90.4020377,96.6796875 C90.0035982,97.2539091 89.4791894,97.7460917 88.8287955,98.15625 C87.7975403,98.8125033 86.5905212,99.140625 85.2077018,99.140625 C83.2565201,99.140625 81.6100522,98.4697333 80.2682486,97.1279297 C78.9323044,95.7919855 78.2643424,94.1718845 78.2643424,92.2675781 C78.2643424,90.3574123 78.9323044,88.7343817 80.2682486,87.3984375 C81.6100522,86.0624933 83.2389422,85.3945312 85.1549674,85.3945312 C86.7311471,85.3945312 88.0729306,85.8222613 89.180358,86.6777344 C89.3268431,86.7949225 89.4000846,86.9326164 89.4000846,87.0908203 C89.4000846,87.1962896 89.3444211,87.3222649 89.2330924,87.46875 L88.1608268,88.8398438 C88.020201,89.0214853 87.8707885,89.1123047 87.7125846,89.1123047 C87.6188341,89.1123047 87.4782105,89.0537115 87.2907096,88.9365234 C86.6110187,88.5087869 85.8903227,88.2949219 85.1286002,88.2949219 C84.0504698,88.2949219 83.1246978,88.6816368 82.3512564,89.4550781 C81.5719557,90.2343789 81.1823111,91.1689399 81.1823111,92.2587891 C81.1823111,93.3427789 81.5719557,94.2744102 82.3512564,95.0537109 C83.1364166,95.8330117 84.0826962,96.2226562 85.1901236,96.2226562 C86.3561451,96.2226562 87.196957,95.8974642 87.7125846,95.2470703 L87.7125846,94.3681641 Z M97.0535166,93.6914062 L97.0535166,98.4111328 C97.0652354,98.8154317 96.8689483,99.0117188 96.4646494,99 L94.7419932,99 C94.3376943,99.0117188 94.1414072,98.8154317 94.153126,98.4111328 L94.153126,86.1240234 C94.1414072,85.7197245 94.3376943,85.5234374 94.7419932,85.5351562 L96.4646494,85.5351562 C96.8689483,85.5234374 97.0652354,85.7197245 97.0535166,86.1240234 L97.0535166,90.7910156 L101.096485,90.7910156 L101.096485,86.1240234 C101.084767,85.7197245 101.281054,85.5234374 101.685353,85.5351562 L103.408009,85.5351562 C103.812308,85.5234374 104.008595,85.7197245 103.996876,86.1240234 L103.996876,98.4111328 C104.008595,98.8154317 103.812308,99.0117188 103.408009,99 L101.685353,99 C101.281054,99.0117188 101.084767,98.8154317 101.096485,98.4111328 L101.096485,93.6914062 L97.0535166,93.6914062 Z M107.950113,85.5351562 L109.672769,85.5351562 C110.077068,85.5234374 110.273355,85.7197245 110.261636,86.1240234 L110.261636,98.4111328 C110.273355,98.8154317 110.077068,99.0117188 109.672769,99 L107.950113,99 C107.545814,99.0117188 107.349527,98.8154317 107.361246,98.4111328 L107.361246,86.1240234 C107.349527,85.7197245 107.545814,85.5234374 107.950113,85.5351562 Z M113.529326,96.7675781 L115.137724,95.8271484 C115.249053,95.7568356 115.339873,95.7216797 115.410185,95.7216797 C115.539092,95.7216797 115.673857,95.8037101 115.814482,95.9677734 C115.966827,96.149415 116.163114,96.2402344 116.403349,96.2402344 C116.637726,96.2402344 116.839872,96.1552743 117.009795,95.9853516 C117.191436,95.80371 117.282256,95.5839857 117.282256,95.3261719 L117.282256,86.1240234 C117.270537,85.7197245 117.466824,85.5234374 117.871123,85.5351562 L119.593779,85.5351562 C119.998078,85.5234374 120.194365,85.7197245 120.182646,86.1240234 L120.182646,95.3261719 C120.182646,96.3867241 119.81058,97.2919884 119.066435,98.0419922 C118.33401,98.7744177 117.446323,99.140625 116.403349,99.140625 C115.237328,99.140625 114.264682,98.6835983 113.485381,97.7695312 C113.29788,97.5468739 113.204131,97.3681647 113.204131,97.2333984 C113.204131,97.0517569 113.312528,96.896485 113.529326,96.7675781 Z M126.333149,93.2255859 L126.333149,98.4111328 C126.344868,98.8154317 126.14858,99.0117188 125.744282,99 L124.021625,99 C123.617326,99.0117188 123.421039,98.8154317 123.432758,98.4111328 L123.432758,86.1240234 C123.421039,85.7197245 123.617326,85.5234374 124.021625,85.5351562 L125.744282,85.5351562 C126.14858,85.5234374 126.344868,85.7197245 126.333149,86.1240234 L126.333149,90.7470703 L129.312641,85.9746094 C129.494282,85.6757798 129.760881,85.5292968 130.112446,85.5351562 L132.274555,85.5351562 C132.532369,85.5351562 132.661274,85.6376943 132.661274,85.8427734 C132.661274,85.9013675 132.631977,85.9775386 132.573383,86.0712891 L128.785297,92.2851562 L132.643696,98.4726562 C132.70229,98.5664067 132.731586,98.6396482 132.731586,98.6923828 C132.731586,98.897462 132.602681,99 132.344868,99 L130.086078,99 C129.740374,99.0058594 129.485493,98.8564468 129.32143,98.5517578 L126.333149,93.2255859 Z M138.266854,96.0996094 L142.046151,96.0996094 C142.45045,96.0878906 142.646737,96.2841777 142.635018,96.6884766 L142.635018,98.4111328 C142.646737,98.8154317 142.45045,99.0117188 142.046151,99 L135.955331,99 C135.551032,99.0117188 135.354745,98.8154317 135.366464,98.4111328 L135.366464,86.1064453 C135.354745,85.7021464 135.551032,85.5058593 135.955331,85.5175781 L137.677987,85.5175781 C138.082286,85.5058593 138.278573,85.7021464 138.266854,86.1064453 L138.266854,96.0996094 Z M152.679075,94.2451172 L155.684935,86.0009766 C155.796263,85.6845687 156.021847,85.5292968 156.361693,85.5351562 L158.945677,85.5351562 C159.349976,85.5234374 159.546263,85.7197245 159.534544,86.1240234 L159.534544,98.4111328 C159.546263,98.8154317 159.349976,99.0117188 158.945677,99 L157.240599,99 C156.8363,99.0117188 156.640013,98.8154317 156.651732,98.4111328 L156.651732,90.3603516 L153.918333,98.5253906 C153.812864,98.8476579 153.59021,99.0058594 153.250364,99 L152.081419,99 C151.741574,99.0058594 151.51892,98.8476579 151.41345,98.5253906 L148.847044,91.3183594 L148.847044,98.4111328 C148.858763,98.8154317 148.662476,99.0117188 148.258177,99 L146.465208,99 C146.060909,99.0117188 145.864622,98.8154317 145.876341,98.4111328 L145.876341,86.1240234 C145.864622,85.7197245 146.060909,85.5234374 146.465208,85.5351562 L148.996458,85.5351562 C149.330444,85.5292968 149.553098,85.6845687 149.664427,86.0009766 L152.679075,94.2451172 Z M165.781726,91.2041016 L165.781726,98.4111328 C165.793445,98.8154317 165.597158,99.0117188 165.192859,99 L163.619617,99 C163.215318,99.0117188 163.019031,98.8154317 163.03075,98.4111328 L163.03075,86.1240234 C163.019031,85.7197245 163.215318,85.5234374 163.619617,85.5351562 L165.157703,85.5351562 C165.515126,85.5292968 165.793444,85.6757798 165.992664,85.9746094 L171.099109,93.3134766 L171.099109,86.1416016 C171.08739,85.7373027 171.283677,85.5410156 171.687976,85.5527344 L173.261218,85.5527344 C173.665517,85.5410156 173.861804,85.7373027 173.850086,86.1416016 L173.850086,98.4111328 C173.861804,98.8154317 173.665517,99.0117188 173.261218,99 L171.740711,99 C171.383287,99.0058594 171.104969,98.8593765 170.90575,98.5605469 L165.781726,91.2041016 Z M184.20176,85.3945312 C186.06505,85.3945312 187.667573,86.0624933 189.009377,87.3984375 C190.351181,88.7402411 191.022072,90.3632717 191.022072,92.2675781 C191.022072,94.1718845 190.351181,95.7949152 189.009377,97.1367188 C187.667573,98.4726629 186.044543,99.140625 184.140236,99.140625 C182.23593,99.140625 180.612899,98.4726629 179.271096,97.1367188 C177.935152,95.7949152 177.267189,94.1718845 177.267189,92.2675781 C177.267189,90.3691311 177.935152,88.7461005 179.271096,87.3984375 C180.601181,86.0624933 182.244719,85.3945312 184.20176,85.3945312 Z M184.113869,88.2949219 C183.041598,88.2949219 182.115826,88.6816368 181.336525,89.4550781 C180.557225,90.2343789 180.16758,91.1689399 180.16758,92.2587891 C180.16758,93.3427789 180.557225,94.2744102 181.336525,95.0537109 C182.121686,95.8330117 183.059176,96.2226562 184.149025,96.2226562 C185.238875,96.2226562 186.170506,95.8359414 186.943947,95.0625 C187.717389,94.2890586 188.104104,93.3574273 188.104104,92.2675781 C188.104104,91.1660101 187.714459,90.2255898 186.935158,89.4462891 C186.179295,88.6787071 185.238875,88.2949219 184.113869,88.2949219 Z M197.409879,93.8759766 L197.409879,98.4111328 C197.421598,98.8154317 197.225311,99.0117188 196.821012,99 L195.098356,99 C194.694057,99.0117188 194.49777,98.8154317 194.509489,98.4111328 L194.509489,86.1240234 C194.49777,85.7197245 194.694057,85.5234374 195.098356,85.5351562 L198.728239,85.5351562 C199.864963,85.5351562 200.808313,85.9130822 201.558317,86.6689453 C202.331758,87.4482461 202.718473,88.4443299 202.718473,89.6572266 C202.718473,90.9169985 202.305391,91.9540975 201.479215,92.7685547 C200.735071,93.5068396 199.818088,93.8759766 198.728239,93.8759766 L197.409879,93.8759766 Z M197.409879,90.9580078 L198.728239,90.9580078 C199.126678,90.9580078 199.422574,90.785158 199.615934,90.4394531 C199.7507,90.205077 199.818083,89.947267 199.818083,89.6660156 C199.818083,89.2617167 199.689178,88.9394543 199.431364,88.6992188 C199.243863,88.5234366 199.00949,88.4355469 198.728239,88.4355469 L197.409879,88.4355469 L197.409879,90.9580078 Z M216.199054,98.2441406 C215.085767,98.8417999 213.960778,99.140625 212.824054,99.140625 C210.925607,99.140625 209.305506,98.4726629 207.963702,97.1367188 C206.627758,95.7949152 205.959796,94.1718845 205.959796,92.2675781 C205.959796,90.3574123 206.627758,88.7343817 207.963702,87.3984375 C209.305506,86.0624933 210.928536,85.3945312 212.832843,85.3945312 C214.737149,85.3945312 216.36018,86.0624933 217.701983,87.3984375 C219.043787,88.7402411 219.714679,90.3603421 219.714679,92.2587891 C219.714679,93.7002025 219.263511,95.0595639 218.361163,96.3369141 L218.967608,96.8994141 C219.114093,97.0341804 219.187335,97.1689446 219.187335,97.3037109 C219.187335,97.4384772 219.114093,97.5732415 218.967608,97.7080078 L217.860186,98.7011719 C217.649248,98.8945322 217.452961,98.9912109 217.271319,98.9912109 C217.0721,98.9912109 216.861164,98.8828136 216.638507,98.6660156 L216.199054,98.2441406 Z M216.251788,94.2275391 C216.615071,93.6357392 216.79671,92.9912144 216.79671,92.2939453 C216.79671,91.1689397 216.407065,90.2197304 215.627765,89.4462891 C214.860183,88.6787071 213.931481,88.2949219 212.841632,88.2949219 C211.745923,88.2949219 210.808433,88.6816368 210.029132,89.4550781 C209.249831,90.2343789 208.860186,91.1689399 208.860186,92.2587891 C208.860186,93.3427789 209.249831,94.2744102 210.029132,95.0537109 C210.814292,95.8330117 211.748853,96.2226562 212.832843,96.2226562 C213.24886,96.2226562 213.664872,96.1582038 214.08089,96.0292969 L213.764483,95.7128906 C213.576982,95.5312491 213.459796,95.4140628 213.412921,95.3613281 L213.316241,95.2646484 C213.204912,95.1533198 213.149249,95.056641 213.149249,94.9746094 C213.149249,94.8984371 213.190264,94.8193363 213.272296,94.7373047 L214.64339,93.4101562 C214.789875,93.27539 214.927569,93.2080078 215.056476,93.2080078 C215.197101,93.2080078 215.337725,93.2812493 215.478351,93.4277344 L216.251788,94.2275391 Z M229.591743,93.4189453 L232.492134,98.4550781 C232.544869,98.554688 232.571236,98.6367184 232.571236,98.7011719 C232.571236,98.9003916 232.439401,99 232.175728,99 L229.99604,99 C229.656195,99.0058594 229.401315,98.8593765 229.231392,98.5605469 L226.462837,93.7441406 L226.102486,93.7441406 L226.102486,98.4111328 C226.114204,98.8154317 225.917917,99.0117188 225.513618,99 L223.773384,99 C223.369085,99.0117188 223.172798,98.8154317 223.184517,98.4111328 L223.184517,86.1240234 C223.172798,85.7197245 223.369085,85.5234374 223.773384,85.5351562 L227.596626,85.5351562 C228.768507,85.5351562 229.749943,85.9335898 230.540962,86.7304688 C231.34956,87.5390665 231.753853,88.5615173 231.753853,89.7978516 C231.753853,91.4033283 231.033157,92.6103475 229.591743,93.4189453 Z M226.102486,91.0810547 L227.596626,91.0810547 C228.018503,91.0810547 228.343695,90.9257828 228.572212,90.6152344 C228.747994,90.3749988 228.835884,90.0878923 228.835884,89.7539062 C228.835884,89.3496074 228.709909,89.0214856 228.457954,88.7695312 C228.235297,88.5468739 227.948191,88.4355469 227.596626,88.4355469 L226.102486,88.4355469 L226.102486,91.0810547 Z M235.627988,95.8447266 L236.955136,95.2734375 C237.089903,95.2148435 237.19537,95.1855469 237.271543,95.1855469 C237.418028,95.1855469 237.564511,95.2851553 237.710996,95.484375 C238.080138,95.9941432 238.525446,96.2490234 239.046933,96.2490234 C239.351622,96.2490234 239.606503,96.1464854 239.811582,95.9414062 C240.034239,95.7246083 240.145566,95.4375018 240.145566,95.0800781 C240.145566,94.5644505 239.94049,94.1777357 239.530332,93.9199219 C239.366268,93.8144526 239.01471,93.6679697 238.475644,93.4804688 C236.278368,92.701168 235.179746,91.3535252 235.179746,89.4375 C235.179746,88.2421815 235.548883,87.2724647 236.287168,86.5283203 C237.013734,85.7958948 237.954154,85.4296875 239.108457,85.4296875 C240.239322,85.4296875 241.188531,85.8398396 241.956113,86.6601562 C242.348693,87.0820334 242.54498,87.427733 242.54498,87.6972656 C242.54498,87.8847666 242.421935,88.0371088 242.17584,88.1542969 L240.57623,88.9189453 C240.447323,88.9833988 240.344785,89.015625 240.268613,89.015625 C240.116269,89.015625 239.984434,88.9423835 239.873105,88.7958984 C239.63287,88.4970688 239.357482,88.3476562 239.046933,88.3476562 C238.748104,88.3476562 238.496153,88.4853502 238.291074,88.7607422 C238.150448,88.9541025 238.080136,89.1679676 238.080136,89.4023438 C238.080136,89.9355495 238.578178,90.3925762 239.574277,90.7734375 L239.802793,90.8613281 C241.964913,91.6933635 243.045957,93.0849512 243.045957,95.0361328 C243.045957,96.2431701 242.653383,97.2392539 241.868222,98.0244141 C241.124078,98.7685584 240.221743,99.140625 239.161191,99.140625 L239.011777,99.140625 C237.628958,99.140625 236.542055,98.5634823 235.751035,97.4091797 C235.411189,96.9052709 235.241269,96.5419933 235.241269,96.3193359 C235.241269,96.1142568 235.370174,95.9560552 235.627988,95.8447266 Z M252.105639,88.4179688 L252.105639,98.4111328 C252.117358,98.8154317 251.921071,99.0117188 251.516772,99 L249.794115,99 C249.389817,99.0117188 249.193529,98.8154317 249.205248,98.4111328 L249.205248,88.4355469 L246.893725,88.4355469 C246.489426,88.4472657 246.293139,88.2509786 246.304858,87.8466797 L246.304858,86.1240234 C246.293139,85.7197245 246.489426,85.5234374 246.893725,85.5351562 L254.44353,85.5351562 C254.847828,85.5234374 255.044115,85.7197245 255.032397,86.1240234 L255.032397,87.8291016 C255.044115,88.2334005 254.847828,88.4296876 254.44353,88.4179688 L252.105639,88.4179688 Z M267.344032,86.1416016 L267.344032,95.0800781 C267.344032,96.3515689 266.793256,97.3857382 265.691688,98.1826172 C264.853793,98.7861358 263.916303,99.0878906 262.879188,99.0878906 C261.508088,99.0878906 260.359662,98.622075 259.433876,97.6904297 C258.695591,96.9462853 258.326454,96.0761769 258.326454,95.0800781 L258.326454,86.1416016 C258.314735,85.7373027 258.511022,85.5410156 258.915321,85.5527344 L260.637977,85.5527344 C261.042276,85.5410156 261.238563,85.7373027 261.226844,86.1416016 L261.226844,94.7373047 C261.226844,95.17676 261.426061,95.5400376 261.824501,95.8271484 C262.152627,96.0556652 262.507116,96.1699219 262.887977,96.1699219 C263.292276,96.1699219 263.643835,96.0468762 263.942665,95.8007812 C264.276651,95.5371081 264.443641,95.2060567 264.443641,94.8076172 L264.443641,86.1416016 C264.431922,85.7373027 264.62821,85.5410156 265.032508,85.5527344 L266.755165,85.5527344 C267.159464,85.5410156 267.355751,85.7373027 267.344032,86.1416016 Z M275.911526,93.8320312 L278.521878,86.0097656 C278.621488,85.6874984 278.841212,85.5292968 279.181058,85.5351562 L281.193753,85.5351562 C281.504301,85.5351562 281.659573,85.6494129 281.659573,85.8779297 C281.659573,85.9365237 281.641995,86.0156245 281.606839,86.1152344 L277.177151,98.5253906 C277.065823,98.8476579 276.843169,99.0058594 276.509183,99 L275.331448,99 C274.991603,99.0058594 274.768949,98.8476579 274.66348,98.5253906 L270.295315,86.1152344 C270.266018,86.0273433 270.25137,85.9511722 270.25137,85.8867188 C270.25137,85.6523426 270.403712,85.5351562 270.708401,85.5351562 L272.703519,85.5351562 C273.043364,85.5292968 273.263088,85.6874984 273.362698,86.0097656 L275.911526,93.8320312 Z M294.885271,92.3730469 L296.493669,86.0273438 C296.569842,85.6933577 296.780777,85.5292968 297.126482,85.5351562 L299.060076,85.5351562 C299.388202,85.5351562 299.552263,85.6582019 299.552263,85.9042969 C299.552263,85.9570315 299.540545,86.030273 299.517107,86.1240234 L296.168474,98.5078125 C296.086442,98.8417985 295.872577,99.0058594 295.526873,99 L294.217302,99 C293.865738,99.0058594 293.657732,98.8359392 293.593279,98.4902344 L292.151873,91.4589844 L290.350115,98.5078125 C290.268083,98.8417985 290.057148,99.0058594 289.717302,99 L288.42531,99 C288.079605,99.0058594 287.86867,98.8417985 287.792498,98.5078125 L284.461443,86.1240234 C284.438005,86.0361324 284.426287,85.9658206 284.426287,85.9130859 C284.426287,85.6611316 284.587418,85.5351562 284.909685,85.5351562 L286.83449,85.5351562 C287.180195,85.5292968 287.39113,85.6933577 287.467302,86.0273438 L289.075701,92.390625 L290.728044,86.0273438 C290.810076,85.6933577 291.021011,85.5292968 291.360857,85.5351562 L292.64406,85.5351562 C292.989765,85.5292968 293.20363,85.6933577 293.285662,86.0273438 L294.885271,92.3730469 Z M307.812141,89.5341797 L310.000617,85.9746094 C310.182259,85.6757798 310.445928,85.5292968 310.791633,85.5351562 L313.068,85.5351562 C313.319954,85.5351562 313.44593,85.6376943 313.44593,85.8427734 C313.44593,85.9072269 313.419563,85.983398 313.366828,86.0712891 L309.499641,92.2851562 L313.366828,98.4726562 C313.419563,98.5605473 313.44593,98.6337888 313.44593,98.6923828 C313.44593,98.897462 313.319954,99 313.068,99 L310.791633,99 C310.445928,99.0058594 310.182259,98.8593765 310.000617,98.5605469 L307.812141,95.0009766 L305.57093,98.5605469 C305.389288,98.8593765 305.122689,99.0058594 304.771125,99 L302.547492,99 C302.295538,99 302.169562,98.897462 302.169562,98.6923828 C302.169562,98.6337888 302.198859,98.5576177 302.257453,98.4638672 L306.089484,92.2675781 L302.266242,86.0537109 C302.213507,85.9658199 302.187141,85.8896488 302.187141,85.8251953 C302.187141,85.6201162 302.313116,85.5175781 302.56507,85.5175781 L304.806281,85.5175781 C305.157845,85.5117187 305.421515,85.6582016 305.597297,85.9570312 L307.812141,89.5341797 Z M319.095455,94.1396484 L315.57983,86.1064453 C315.538815,86.0068354 315.518307,85.924805 315.518307,85.8603516 C315.518307,85.6435536 315.66479,85.5351562 315.95776,85.5351562 L318.040768,85.5351562 C318.374754,85.5292968 318.603267,85.6845687 318.726315,86.0009766 L320.536862,90.5361328 L322.364987,86.0185547 C322.488034,85.7021469 322.716548,85.546875 323.050534,85.5527344 L325.098385,85.5527344 C325.391355,85.5527344 325.537838,85.6611317 325.537838,85.8779297 C325.537838,85.9423831 325.517331,86.0244136 325.476315,86.1240234 L321.995846,94.1396484 L321.995846,98.4111328 C322.007565,98.8154317 321.811278,99.0117188 321.406979,99 L319.684323,99 C319.280024,99.0117188 319.083737,98.8154317 319.095455,98.4111328 L319.095455,94.1396484 Z M331.78502,96.0996094 L336.346544,96.0996094 C336.750843,96.0878906 336.94713,96.2841777 336.935411,96.6884766 L336.935411,98.4111328 C336.94713,98.8154317 336.750843,99.0117188 336.346544,99 L328.88463,99 C328.480331,99.0117188 328.284044,98.8154317 328.295762,98.4111328 L328.295762,97.5146484 C328.295762,97.2158188 328.3192,96.9902351 328.366075,96.8378906 C328.407091,96.6855461 328.538925,96.4306658 328.761583,96.0732422 L333.481309,88.4355469 L328.88463,88.4355469 C328.480331,88.4472657 328.284044,88.2509786 328.295762,87.8466797 L328.295762,86.1240234 C328.284044,85.7197245 328.480331,85.5234374 328.88463,85.5351562 L336.346544,85.5351562 C336.750843,85.5234374 336.94713,85.7197245 336.935411,86.1240234 L336.935411,86.9941406 C336.935411,87.2929702 336.914903,87.5156243 336.873887,87.6621094 C336.827012,87.8085945 336.692248,88.0664044 336.469591,88.4355469 L331.78502,96.0996094 Z" id="abcdefghijklmnopqrst"></path>
                <path d="M7.3125,128.516602 C6.57421506,128.932619 5.80078529,129.140625 4.9921875,129.140625 C3.71483736,129.140625 2.62500451,128.683598 1.72265625,127.769531 C0.820307988,126.861324 0.369140625,125.771491 0.369140625,124.5 C0.369140625,123.228509 0.820307988,122.138676 1.72265625,121.230469 C2.62500451,120.316402 3.71776702,119.859375 5.00097656,119.859375 C5.7392615,119.859375 6.44530913,120.032225 7.11914062,120.37793 C7.13671884,120.120116 7.28906106,119.994141 7.57617188,120 L9.06152344,120 C9.46582233,119.988281 9.66210943,120.184568 9.65039062,120.588867 L9.65039062,128.499023 C9.65625003,128.903322 9.45996293,129.099609 9.06152344,129.087891 L7.90136719,129.087891 C7.5146465,129.105469 7.3183594,128.935549 7.3125,128.578125 L7.3125,128.516602 Z M4.98339844,122.575195 C4.46191146,122.575195 4.01953307,122.759764 3.65625,123.128906 C3.28710753,123.498049 3.10253906,123.955075 3.10253906,124.5 C3.10253906,125.044925 3.28710753,125.501951 3.65625,125.871094 C4.01953307,126.240236 4.46484111,126.424805 4.9921875,126.424805 C5.5312527,126.424805 5.98242006,126.243166 6.34570312,125.879883 C6.7148456,125.51074 6.89941406,125.050784 6.89941406,124.5 C6.89941406,123.955075 6.7148456,123.495119 6.34570312,123.120117 C5.98242006,122.756834 5.52832304,122.575195 4.98339844,122.575195 Z M15.1065571,128.53418 L15.1065571,128.560547 C15.0948383,128.906252 14.8985512,129.070313 14.5176899,129.052734 L13.3575336,129.052734 C12.9532347,129.064453 12.7569476,128.868166 12.7686664,128.463867 L12.7686664,117.134766 C12.7569476,116.730467 12.9532347,116.53418 13.3575336,116.545898 L14.9307758,116.545898 C15.3350747,116.53418 15.5313618,116.730467 15.519643,117.134766 L15.519643,120.290039 C16.1641775,120.002928 16.8087023,119.859375 17.4532367,119.859375 C18.7188681,119.859375 19.8087009,120.316402 20.722768,121.230469 C21.6368351,122.144536 22.0938618,123.234369 22.0938618,124.5 C22.0938618,125.765631 21.6368351,126.855464 20.722768,127.769531 C19.8087009,128.683598 18.7217977,129.140625 17.4620258,129.140625 C16.682725,129.140625 15.8975766,128.938479 15.1065571,128.53418 Z M17.4268696,122.575195 C16.9053826,122.575195 16.4600745,122.759764 16.0909321,123.128906 C15.7217896,123.498049 15.5372211,123.955075 15.5372211,124.5 C15.5372211,125.044925 15.7217896,125.501951 16.0909321,125.871094 C16.4600745,126.240236 16.9112419,126.424805 17.4444477,126.424805 C17.9717941,126.424805 18.4229614,126.240236 18.7979633,125.871094 C19.1729652,125.501951 19.3604633,125.044925 19.3604633,124.5 C19.3604633,123.960935 19.1729652,123.503908 18.7979633,123.128906 C18.4288208,122.759764 17.9717942,122.575195 17.4268696,122.575195 Z M32.9728798,122.425781 L31.8478798,123.260742 C31.6955352,123.372071 31.5637006,123.427734 31.4523719,123.427734 C31.3351839,123.427734 31.2179975,123.37793 31.1008094,123.27832 L31.0568641,123.243164 C30.5588148,122.821287 30.0607729,122.610352 29.5627235,122.610352 C29.0295177,122.610352 28.5783503,122.79492 28.2092079,123.164062 C27.8459248,123.527346 27.664286,123.969724 27.664286,124.491211 C27.664286,125.012698 27.8459248,125.458006 28.2092079,125.827148 C28.5783503,126.190432 29.0236584,126.37207 29.5451454,126.37207 C30.060773,126.37207 30.5295183,126.143557 30.9513954,125.686523 C31.1681933,125.452147 31.3469025,125.334961 31.4875282,125.334961 C31.5695598,125.334961 31.6779572,125.370117 31.8127235,125.44043 L33.2101844,126.134766 C33.4445606,126.251954 33.5617469,126.404296 33.5617469,126.591797 C33.5617469,126.767579 33.3830378,127.057615 33.0256141,127.461914 C32.052953,128.58106 30.8781601,129.140625 29.5012001,129.140625 C28.2179905,129.140625 27.125228,128.686528 26.2228798,127.77832 C25.3146721,126.875972 24.8605751,125.77735 24.8605751,124.482422 C24.8605751,123.210931 25.3088128,122.124028 26.2053016,121.22168 C27.1135093,120.313472 28.2062718,119.859375 29.4836219,119.859375 C30.7668315,119.859375 31.9035389,120.369136 32.8937782,121.388672 C33.1340138,121.628907 33.2541298,121.825195 33.2541298,121.977539 C33.2541298,122.135743 33.1603807,122.285156 32.9728798,122.425781 Z M42.8851009,120.290039 L42.8851009,117.152344 C42.8733821,116.748045 43.0696692,116.551758 43.4739681,116.563477 L45.0472103,116.563477 C45.4515091,116.551758 45.6477962,116.748045 45.6360774,117.152344 L45.6360774,128.463867 C45.6477962,128.868166 45.4515091,129.064453 45.0472103,129.052734 L43.8694759,129.052734 C43.4886146,129.070313 43.2923275,128.906252 43.2806087,128.560547 L43.2806087,128.53418 C42.5130267,128.938479 41.7366673,129.140625 40.9515071,129.140625 C39.6858758,129.140625 38.5960429,128.683598 37.6819759,127.769531 C36.7679088,126.855464 36.3108821,125.765631 36.3108821,124.5 C36.3108821,123.234369 36.7679088,122.144536 37.6819759,121.230469 C38.5960429,120.316402 39.6858758,119.859375 40.9515071,119.859375 C41.5960416,119.859375 42.2405664,120.002928 42.8851009,120.290039 Z M40.9427181,122.575195 C40.4212311,122.575195 39.975923,122.759764 39.6067806,123.128906 C39.2317787,123.498049 39.0442806,123.955075 39.0442806,124.5 C39.0442806,125.044925 39.2317787,125.501951 39.6067806,125.871094 C39.975923,126.240236 40.4270904,126.424805 40.9602962,126.424805 C41.493502,126.424805 41.9446693,126.240236 42.3138118,125.871094 C42.6829543,125.501951 42.8675228,125.044925 42.8675228,124.5 C42.8675228,123.955075 42.6829543,123.498049 42.3138118,123.128906 C41.9446693,122.759764 41.4876427,122.575195 40.9427181,122.575195 Z M51.4965408,125.431641 C51.7543545,126.181644 52.3695828,126.556641 53.3422439,126.556641 C53.9281843,126.556641 54.5404829,126.430665 55.1791579,126.178711 C55.296346,126.131836 55.3871654,126.108398 55.4516189,126.108398 C55.656698,126.108398 55.8119699,126.237303 55.9174392,126.495117 L56.3832595,127.628906 C56.4418535,127.763673 56.4711501,127.87207 56.4711501,127.954102 C56.4711501,128.124024 56.3598231,128.273437 56.1371658,128.402344 C55.2758333,128.900393 54.3090461,129.149414 53.2367751,129.149414 C51.8656745,129.149414 50.7260375,128.695317 49.8178298,127.787109 C48.9096221,126.878902 48.4555251,125.77735 48.4555251,124.482422 C48.4555251,123.205072 48.9066925,122.118169 49.8090408,121.22168 C50.711389,120.325191 51.7982922,119.876953 53.0697829,119.876953 C54.4115865,119.876953 55.4545448,120.386714 56.1986892,121.40625 C56.7963484,122.232426 57.0951736,123.22265 57.0951736,124.376953 C57.0951736,124.640626 57.0834549,124.848632 57.0600173,125.000977 C57.0190015,125.288087 56.8197847,125.431641 56.4623611,125.431641 L51.4965408,125.431641 Z M54.3266189,123.357422 C54.2094308,122.7832 53.7553338,122.496094 52.9643142,122.496094 C52.2787639,122.496094 51.7953703,122.7832 51.5141189,123.357422 L54.3266189,123.357422 Z M60.4068088,120 L60.4068088,119.208984 C60.4185276,118.277339 60.6763375,117.58008 61.1802463,117.117188 C61.6021234,116.730467 62.188055,116.53418 62.9380588,116.52832 L64.2652072,116.52832 C64.6695061,116.516602 64.8657932,116.712889 64.8540744,117.117188 L64.8540744,118.391602 C64.8657932,118.790041 64.6695061,118.983398 64.2652072,118.97168 L63.8960666,118.97168 C63.409736,118.97168 63.1636447,119.170896 63.1577853,119.569336 L63.1577853,120 L64.8804416,120 C65.2847405,119.988281 65.4810276,120.184568 65.4693088,120.588867 L65.4693088,121.916016 C65.4810276,122.320315 65.2847405,122.516602 64.8804416,122.504883 L63.1577853,122.504883 L63.1577853,128.411133 C63.1695041,128.815432 62.973217,129.011719 62.5689181,129 L60.9956759,129 C60.591377,129.011719 60.3950899,128.815432 60.4068088,128.411133 L60.4068088,122.504883 L59.8267306,122.504883 C59.4224317,122.516602 59.2261446,122.320315 59.2378634,121.916016 L59.2378634,120.588867 C59.2261446,120.184568 59.4224317,119.988281 59.8267306,120 L60.4068088,120 Z M74.8278189,120.46582 L74.8278189,120.439453 C74.8395377,120.093748 75.0358248,119.929687 75.4166861,119.947266 L76.5944205,119.947266 C76.9987194,119.935547 77.1950065,120.131834 77.1832877,120.536133 L77.1832877,127.883789 C77.1832877,129.25489 76.6998941,130.429683 75.7330924,131.408203 C74.7604313,132.380864 73.6002866,132.867188 72.2526236,132.867188 C71.3268377,132.867188 70.442081,132.594729 69.5983268,132.049805 C69.2467625,131.821288 69.070983,131.610353 69.070983,131.416992 C69.070983,131.293945 69.1354355,131.15918 69.2643424,131.012695 L70.195983,130.010742 C70.3424681,129.852538 70.4860214,129.773438 70.6266471,129.773438 C70.7203975,129.773438 70.8668804,129.83496 71.0661002,129.958008 C71.4762585,130.215822 71.89227,130.344727 72.3141471,130.344727 C72.9118063,130.344727 73.4215668,130.122073 73.8434439,129.676758 C74.0661013,129.442382 74.2448105,129.131838 74.3795768,128.745117 C73.7116047,129.00879 73.0846578,129.140625 72.4987174,129.140625 C71.2389455,129.140625 70.1520423,128.683598 69.2379752,127.769531 C68.3239081,126.855464 67.8668814,125.765631 67.8668814,124.5 C67.8668814,123.234369 68.3239081,122.144536 69.2379752,121.230469 C70.1461829,120.316402 71.2360157,119.859375 72.5075064,119.859375 C73.2868072,119.859375 74.060237,120.061521 74.8278189,120.46582 Z M72.4899283,122.575195 C71.9743007,122.575195 71.5319223,122.759764 71.1627799,123.128906 C70.787778,123.498049 70.6002799,123.955075 70.6002799,124.5 C70.6002799,125.044925 70.787778,125.501951 71.1627799,125.871094 C71.5319223,126.240236 71.9801601,126.424805 72.5075064,126.424805 C73.0407122,126.424805 73.4918796,126.240236 73.8610221,125.871094 C74.2301645,125.501951 74.414733,125.044925 74.414733,124.5 C74.414733,123.955075 74.2301645,123.498049 73.8610221,123.128906 C73.497739,122.759764 73.0407123,122.575195 72.4899283,122.575195 Z M83.0525401,120.070312 C83.4802766,119.929687 83.9167956,119.859375 84.3621104,119.859375 C85.6980546,119.859375 86.7205053,120.254879 87.4294932,121.045898 C88.05059,121.737308 88.3611338,122.677728 88.3611338,123.867188 L88.3611338,128.411133 C88.3728526,128.815432 88.1765655,129.011719 87.7722666,129 L86.1990244,129 C85.7947255,129.011719 85.5984384,128.815432 85.6101572,128.411133 L85.6101572,123.902344 C85.6101572,123.54492 85.4841819,123.240236 85.2322276,122.988281 C84.9802732,122.736327 84.6785184,122.610352 84.3269541,122.610352 C83.9753899,122.610352 83.6736351,122.736327 83.4216807,122.988281 C83.1638669,123.240236 83.0349619,123.54492 83.0349619,123.902344 L83.0349619,128.411133 C83.0466807,128.815432 82.8503936,129.011719 82.4460947,129 L80.9080088,129 C80.5037099,129.011719 80.3074228,128.815432 80.3191416,128.411133 L80.3191416,117.134766 C80.3074228,116.730467 80.5037099,116.53418 80.9080088,116.545898 L82.4636729,116.545898 C82.8679718,116.53418 83.0642589,116.730467 83.0525401,117.134766 L83.0525401,120.070312 Z M92.7714018,116.941406 C93.1288255,116.941406 93.4510879,117.08496 93.7381987,117.37207 C94.0135907,117.647462 94.1512846,117.963865 94.1512846,118.321289 C94.1512846,118.696291 94.0135907,119.021483 93.7381987,119.296875 C93.4628067,119.572267 93.1376146,119.709961 92.7626128,119.709961 C92.3817515,119.709961 92.0594891,119.575197 91.7958159,119.305664 C91.5204239,119.030272 91.3827299,118.699221 91.3827299,118.3125 C91.3827299,117.949217 91.5174942,117.629884 91.7870268,117.354492 C92.0565594,117.0791 92.3846811,116.941406 92.7714018,116.941406 Z M91.3827299,128.411133 L91.3827299,120.588867 C91.3710111,120.184568 91.5672982,119.988281 91.9715971,120 L93.5448393,120 C93.9491382,119.988281 94.1454253,120.184568 94.1337065,120.588867 L94.1337065,128.411133 C94.1454253,128.815432 93.9491382,129.011719 93.5448393,129 L91.9715971,129 C91.5672982,129.011719 91.3710111,128.815432 91.3827299,128.411133 Z M96.9443651,129.615234 L96.9443651,120.588867 C96.9326463,120.184568 97.1289334,119.988281 97.5332323,120 L99.1064745,120 C99.5107734,119.988281 99.7070605,120.184568 99.6953417,120.588867 L99.6953417,130.151367 C99.6953417,130.831058 99.4990546,131.370115 99.1064745,131.768555 C98.7256132,132.155275 98.2334306,132.348633 97.629912,132.348633 L96.645537,132.348633 C96.2470975,132.360352 96.0537401,132.164065 96.0654589,131.759766 L96.0654589,130.195312 C96.0537401,129.796873 96.2470975,129.603516 96.645537,129.615234 L96.9443651,129.615234 Z M98.333037,116.950195 C98.6846013,116.950195 99.0010043,117.090819 99.2822557,117.37207 C99.5635072,117.647462 99.7041307,117.963865 99.7041307,118.321289 C99.7041307,118.696291 99.5664368,119.024413 99.2910448,119.305664 C99.0156528,119.575197 98.6933904,119.709961 98.3242479,119.709961 C97.9492461,119.709961 97.6269837,119.575197 97.3574511,119.305664 C97.0820591,119.030272 96.9443651,118.70215 96.9443651,118.321289 C96.9443651,117.952147 97.0791294,117.632814 97.348662,117.363281 C97.624054,117.087889 97.9521757,116.950195 98.333037,116.950195 Z M105.371235,125.923828 L105.371235,128.411133 C105.382953,128.815432 105.186666,129.011719 104.782368,129 L103.209125,129 C102.804826,129.011719 102.608539,128.815432 102.620258,128.411133 L102.620258,116.264648 C102.608539,115.86035 102.804826,115.664062 103.209125,115.675781 L104.782368,115.675781 C105.186666,115.664062 105.382953,115.86035 105.371235,116.264648 L105.371235,123.09375 L107.041157,120.439453 C107.222798,120.140624 107.486467,119.994141 107.832172,120 L109.713032,120 C109.964986,120 110.090961,120.102538 110.090961,120.307617 C110.090961,120.366211 110.061665,120.439453 110.003071,120.527344 L107.533344,124.482422 L110.055805,128.472656 C110.114399,128.566407 110.143696,128.639648 110.143696,128.692383 C110.143696,128.897462 110.01772,129 109.765766,129 L107.814594,129 C107.486467,129.005859 107.249165,128.900392 107.10268,128.683594 L105.371235,125.923828 Z M112.444589,128.411133 L112.444589,117.152344 C112.43287,116.748045 112.629157,116.551758 113.033456,116.563477 L114.606698,116.563477 C115.010997,116.551758 115.207284,116.748045 115.195565,117.152344 L115.195565,128.411133 C115.207284,128.815432 115.010997,129.011719 114.606698,129 L113.033456,129 C112.629157,129.011719 112.43287,128.815432 112.444589,128.411133 Z M124.852904,120.650391 C125.649782,120.123044 126.549188,119.859375 127.551146,119.859375 C128.892949,119.859375 129.91833,120.254879 130.627318,121.045898 C131.248414,121.731449 131.558958,122.671869 131.558958,123.867188 L131.558958,128.411133 C131.570677,128.815432 131.37439,129.011719 130.970091,129 L129.414427,129 C129.010128,129.011719 128.813841,128.815432 128.82556,128.411133 L128.82556,123.902344 C128.82556,123.54492 128.696655,123.240236 128.438841,122.988281 C128.181027,122.736327 127.876343,122.610352 127.524779,122.610352 C127.190792,122.610352 126.900756,122.721679 126.654661,122.944336 C126.379269,123.19629 126.241575,123.486326 126.241575,123.814453 L126.241575,128.411133 C126.253294,128.815432 126.057007,129.011719 125.652708,129 L124.079466,129 C123.675167,129.011719 123.47888,128.815432 123.490599,128.411133 L123.490599,123.902344 C123.490599,123.54492 123.364624,123.240236 123.112669,122.988281 C122.860715,122.736327 122.55603,122.610352 122.198607,122.610352 C121.864621,122.610352 121.574584,122.721679 121.328489,122.944336 C121.053097,123.20215 120.915404,123.492186 120.915404,123.814453 L120.915404,128.411133 C120.927122,128.815432 120.730835,129.011719 120.326536,129 L118.753294,129 C118.348995,129.011719 118.152708,128.815432 118.164427,128.411133 L118.164427,120.553711 C118.152708,120.149412 118.348995,119.953125 118.753294,119.964844 L119.974974,119.964844 C120.232788,119.958984 120.373411,120.073241 120.396849,120.307617 C120.894898,120.008788 121.501337,119.859375 122.216185,119.859375 C123.212283,119.859375 124.091181,120.123044 124.852904,120.650391 Z M136.997546,120.307617 C137.478018,120.008788 138.090316,119.859375 138.834461,119.859375 C140.170405,119.859375 141.192855,120.254879 141.901843,121.045898 C142.52294,121.737308 142.833484,122.677728 142.833484,123.867188 L142.833484,128.411133 C142.845203,128.815432 142.648916,129.011719 142.244617,129 L140.671375,129 C140.267076,129.011719 140.070789,128.815432 140.082507,128.411133 L140.082507,123.902344 C140.082507,123.54492 139.956532,123.240236 139.704578,122.988281 C139.452623,122.736327 139.150869,122.610352 138.799304,122.610352 C138.459459,122.610352 138.163563,122.724608 137.911609,122.953125 C137.636217,123.205079 137.498523,123.492186 137.498523,123.814453 L137.498523,128.411133 C137.510242,128.815432 137.313955,129.011719 136.909656,129 L135.353992,129 C134.949693,129.011719 134.753406,128.815432 134.765125,128.411133 L134.765125,120.553711 C134.753406,120.149412 134.949693,119.953125 135.353992,119.964844 L136.575671,119.964844 C136.833485,119.958984 136.974109,120.073241 136.997546,120.307617 Z M150.328713,119.859375 C151.588485,119.859375 152.669529,120.310542 153.571877,121.212891 C154.474225,122.115239 154.925393,123.205072 154.925393,124.482422 C154.925393,125.78321 154.471296,126.887691 153.563088,127.795898 C152.66074,128.692387 151.570907,129.140625 150.293557,129.140625 C149.010347,129.140625 147.917585,128.692387 147.015236,127.795898 C146.107029,126.887691 145.652932,125.786139 145.652932,124.491211 C145.652932,123.213861 146.104099,122.121098 147.006447,121.212891 C147.897077,120.310542 149.004488,119.859375 150.328713,119.859375 Z M150.275979,122.610352 C149.760351,122.610352 149.317973,122.79492 148.94883,123.164062 C148.585547,123.527346 148.403908,123.966794 148.403908,124.482422 C148.403908,125.009768 148.585547,125.458006 148.94883,125.827148 C149.317973,126.190432 149.76621,126.37207 150.293557,126.37207 C150.815044,126.37207 151.257422,126.190432 151.620705,125.827148 C151.989848,125.458006 152.174416,125.012698 152.174416,124.491211 C152.174416,123.975583 151.989848,123.533205 151.620705,123.164062 C151.257422,122.79492 150.809184,122.610352 150.275979,122.610352 Z M160.478239,128.709961 L160.478239,131.935547 C160.489958,132.339846 160.29367,132.536133 159.889372,132.524414 L158.316129,132.524414 C157.91183,132.536133 157.715543,132.339846 157.727262,131.935547 L157.727262,120.536133 C157.715543,120.131834 157.91183,119.935547 158.316129,119.947266 L159.476286,119.947266 C159.857147,119.929687 160.053434,120.093748 160.065153,120.439453 L160.065153,120.46582 C160.856172,120.061521 161.641321,119.859375 162.420622,119.859375 C163.680393,119.859375 164.767297,120.316402 165.681364,121.230469 C166.595431,122.144536 167.052457,123.234369 167.052457,124.5 C167.052457,125.765631 166.595431,126.855464 165.681364,127.769531 C164.767297,128.683598 163.677464,129.140625 162.411832,129.140625 C161.767298,129.140625 161.122773,128.997072 160.478239,128.709961 Z M162.385465,122.575195 C161.863978,122.575195 161.41867,122.759764 161.049528,123.128906 C160.680385,123.498049 160.495817,123.955075 160.495817,124.5 C160.495817,125.044925 160.680385,125.501951 161.049528,125.871094 C161.41867,126.240236 161.869838,126.424805 162.403043,126.424805 C162.93039,126.424805 163.381557,126.240236 163.756559,125.871094 C164.131561,125.501951 164.319059,125.044925 164.319059,124.5 C164.319059,123.960935 164.131561,123.503908 163.756559,123.128906 C163.387417,122.759764 162.93039,122.575195 162.385465,122.575195 Z M176.867999,120.46582 L176.867999,120.439453 C176.879718,120.093748 177.076005,119.929687 177.456866,119.947266 L178.634601,119.947266 C179.038899,119.935547 179.235186,120.131834 179.223468,120.536133 L179.223468,131.935547 C179.235186,132.339846 179.038899,132.536133 178.634601,132.524414 L177.061358,132.524414 C176.657059,132.536133 176.460772,132.339846 176.472491,131.935547 L176.472491,128.709961 C175.827957,128.997072 175.183432,129.140625 174.538897,129.140625 C173.273266,129.140625 172.183433,128.683598 171.269366,127.769531 C170.355299,126.855464 169.898272,125.765631 169.898272,124.5 C169.898272,123.234369 170.355299,122.144536 171.269366,121.230469 C172.183433,120.316402 173.273266,119.859375 174.538897,119.859375 C175.324058,119.859375 176.100417,120.061521 176.867999,120.46582 Z M174.530108,122.575195 C174.008621,122.575195 173.563313,122.759764 173.194171,123.128906 C172.819169,123.498049 172.631671,123.955075 172.631671,124.5 C172.631671,125.044925 172.819169,125.501951 173.194171,125.871094 C173.563313,126.240236 174.014481,126.424805 174.547686,126.424805 C175.080892,126.424805 175.53206,126.240236 175.901202,125.871094 C176.270345,125.501951 176.454913,125.044925 176.454913,124.5 C176.454913,123.955075 176.270345,123.498049 175.901202,123.128906 C175.53206,122.759764 175.075033,122.575195 174.530108,122.575195 Z M184.503853,120.307617 C184.955027,120.014647 185.555607,119.865234 186.305611,119.859375 L187.140572,119.859375 C187.544871,119.847656 187.741158,120.041014 187.729439,120.439453 L187.729439,122.039062 C187.741158,122.443361 187.544871,122.639648 187.140572,122.62793 L186.305611,122.62793 C185.924749,122.62793 185.608346,122.753905 185.356392,123.005859 C185.133735,123.222657 185.022408,123.486327 185.022408,123.796875 L185.022408,128.411133 C185.034126,128.815432 184.837839,129.011719 184.43354,129 L182.860298,129 C182.455999,129.011719 182.259712,128.815432 182.271431,128.411133 L182.271431,120.553711 C182.259712,120.149412 182.455999,119.953125 182.860298,119.964844 L184.081978,119.964844 C184.339792,119.958984 184.480415,120.073241 184.503853,120.307617 Z M190.408261,126.697266 L191.506894,126.029297 C191.594785,125.976562 191.665097,125.950195 191.717832,125.950195 C191.811582,125.950195 191.902402,126 191.990293,126.099609 C192.224669,126.363283 192.441464,126.495117 192.640683,126.495117 C192.828184,126.495117 192.921933,126.392579 192.921933,126.1875 C192.921933,125.871092 192.596741,125.557619 191.946347,125.24707 C191.401423,124.983397 190.988341,124.70215 190.70709,124.40332 C190.285213,123.958006 190.074277,123.372074 190.074277,122.645508 C190.074277,121.784175 190.329157,121.101565 190.838926,120.597656 C191.336975,120.099607 191.9815,119.850586 192.772519,119.850586 C193.610414,119.850586 194.307673,120.234371 194.864316,121.001953 C195.151427,121.388674 195.29498,121.687499 195.29498,121.898438 C195.29498,122.07422 195.174864,122.226562 194.934629,122.355469 L193.976621,122.865234 C193.859433,122.929688 193.762754,122.961914 193.686582,122.961914 C193.540097,122.961914 193.408262,122.874024 193.291074,122.698242 C193.191464,122.551757 193.065489,122.478516 192.913144,122.478516 C192.737362,122.478516 192.649472,122.566405 192.649472,122.742188 C192.649472,122.964845 192.919001,123.213866 193.458066,123.489258 C194.817448,124.174808 195.497129,125.132806 195.497129,126.363281 C195.497129,127.16016 195.23053,127.825193 194.697324,128.358398 C194.175837,128.879885 193.543031,129.140625 192.798886,129.140625 C191.890679,129.140625 191.11139,128.733403 190.460996,127.918945 C190.203182,127.596678 190.074277,127.344727 190.074277,127.163086 C190.074277,126.987304 190.185604,126.832032 190.408261,126.697266 Z M199.845873,120 L199.845873,118.119141 C199.834154,117.714842 200.030442,117.518555 200.43474,117.530273 L201.990405,117.530273 C202.394703,117.518555 202.59099,117.714842 202.579272,118.119141 L202.579272,120 L203.976733,120 C204.381032,119.988281 204.577319,120.184568 204.5656,120.588867 L204.5656,121.916016 C204.577319,122.320315 204.381032,122.516602 203.976733,122.504883 L202.579272,122.504883 L202.579272,128.411133 C202.59099,128.815432 202.394703,129.011719 201.990405,129 L200.43474,129 C200.030442,129.011719 199.834154,128.815432 199.845873,128.411133 L199.845873,122.504883 L198.404467,122.504883 C198.000168,122.516602 197.803881,122.320315 197.8156,121.916016 L197.8156,120.588867 C197.803881,120.184568 198.000168,119.988281 198.404467,120 L199.845873,120 Z M213.062782,128.692383 C212.570592,128.991212 211.958293,129.140625 211.225868,129.140625 C209.889924,129.140625 208.867473,128.745121 208.158485,127.954102 C207.537388,127.262692 207.226844,126.322272 207.226844,125.132812 L207.226844,120.588867 C207.215126,120.184568 207.411413,119.988281 207.815712,120 L209.371376,120 C209.775675,119.988281 209.971962,120.184568 209.960243,120.588867 L209.960243,125.097656 C209.960243,125.45508 210.089148,125.759764 210.346962,126.011719 C210.604775,126.263673 210.90946,126.389648 211.261024,126.389648 C211.59501,126.389648 211.885046,126.278321 212.131141,126.055664 C212.406533,125.80371 212.544227,125.513674 212.544227,125.185547 L212.544227,120.588867 C212.532508,120.184568 212.728795,119.988281 213.133094,120 L214.706337,120 C215.110635,119.988281 215.306923,120.184568 215.295204,120.588867 L215.295204,128.463867 C215.306923,128.868166 215.110635,129.064453 214.706337,129.052734 L213.502235,129.052734 C213.232702,129.058594 213.086219,128.938478 213.062782,128.692383 Z M221.850003,124.209961 L222.931058,120.483398 C223.018949,120.155272 223.235743,119.994141 223.581448,120 L225.409573,120 C225.714262,120 225.866605,120.117186 225.866605,120.351562 C225.866605,120.416016 225.851956,120.492187 225.822659,120.580078 L223.054105,128.525391 C222.948635,128.847658 222.725981,129.005859 222.386136,129 L221.305081,129 C220.965236,129.005859 220.742582,128.847658 220.637112,128.525391 L217.877347,120.580078 C217.84219,120.486328 217.824612,120.410157 217.824612,120.351562 C217.824612,120.117186 217.979884,120 218.290433,120 L220.10098,120 C220.440825,119.994141 220.65762,120.155272 220.75137,120.483398 L221.850003,124.209961 Z M236.323748,124.359375 L237.193865,120.500977 C237.264178,120.161131 237.475113,119.994141 237.826677,120 L239.58449,120 C239.906757,120 240.067888,120.123046 240.067888,120.369141 C240.067888,120.427735 240.05617,120.500976 240.032732,120.588867 L237.914568,128.507812 C237.832536,128.841799 237.618671,129.005859 237.272966,129 L235.998552,129 C235.658707,129.005859 235.433123,128.847658 235.321794,128.525391 L233.941912,124.640625 L232.614763,128.525391 C232.509294,128.847658 232.28664,129.005859 231.946794,129 L230.654802,129 C230.309097,129.005859 230.095232,128.841799 230.013201,128.507812 L227.877458,120.588867 C227.854021,120.500976 227.842302,120.427735 227.842302,120.369141 C227.842302,120.123046 228.003433,120 228.325701,120 L230.101091,120 C230.446796,119.994141 230.657732,120.161131 230.733904,120.500977 L231.674333,124.464844 L232.764177,120.509766 C232.852068,120.17578 233.065933,120.011719 233.405779,120.017578 L234.539568,120.017578 C234.879413,120.011719 235.096208,120.17285 235.189958,120.500977 L236.323748,124.359375 Z M246.613898,122.214844 L247.527961,120.448242 C247.680305,120.143553 247.926397,119.994141 248.266242,120 L250.393195,120 C250.64515,120 250.771125,120.102538 250.771125,120.307617 C250.771125,120.372071 250.744758,120.448242 250.692023,120.536133 L248.231086,124.5 L250.771125,128.472656 C250.829719,128.566407 250.859016,128.642578 250.859016,128.701172 C250.859016,128.900392 250.73304,129 250.481086,129 L248.28382,129 C247.943975,129.005859 247.697884,128.856447 247.545539,128.551758 L246.613898,126.767578 L245.691047,128.551758 C245.538702,128.856447 245.292611,129.005859 244.952766,129 L242.773078,129 C242.521124,129 242.395148,128.903321 242.395148,128.709961 C242.395148,128.639648 242.424445,128.560547 242.483039,128.472656 L245.0055,124.5 L242.535773,120.527344 C242.477179,120.439453 242.447883,120.366211 242.447883,120.307617 C242.447883,120.102538 242.573858,120 242.825812,120 L244.952766,120 C245.292611,119.994141 245.538702,120.143553 245.691047,120.448242 L246.613898,122.214844 Z M257.035885,124.209961 L258.11694,120.483398 C258.204831,120.155272 258.421626,119.994141 258.76733,120 L260.542721,120 C260.84741,120 260.999752,120.120116 260.999752,120.360352 C260.999752,120.424805 260.985104,120.498046 260.955807,120.580078 L257.053463,132.09375 C256.947994,132.416017 256.72534,132.574219 256.385495,132.568359 L254.592526,132.568359 C254.281977,132.568359 254.126705,132.451173 254.126705,132.216797 C254.126705,132.158203 254.144283,132.082032 254.17944,131.988281 L255.576901,127.998047 L255.576901,127.831055 L253.05444,120.580078 C253.025143,120.486328 253.010495,120.410157 253.010495,120.351562 C253.010495,120.117186 253.165766,120 253.476315,120 L255.30444,120 C255.644285,119.994141 255.86108,120.155272 255.95483,120.483398 L257.035885,124.209961 Z M266.368028,122.71582 L264.021348,122.71582 C263.61705,122.727539 263.420762,122.531252 263.432481,122.126953 L263.432481,120.588867 C263.420762,120.184568 263.61705,119.988281 264.021348,120 L269.250841,120 C269.65514,119.988281 269.851427,120.184568 269.839708,120.588867 L269.839708,121.327148 C269.839708,121.625978 269.801622,121.872069 269.72545,122.06543 C269.684434,122.16504 269.573107,122.346678 269.391466,122.610352 L266.851427,126.266602 L269.250841,126.266602 C269.65514,126.254883 269.851427,126.45117 269.839708,126.855469 L269.839708,128.411133 C269.851427,128.815432 269.65514,129.011719 269.250841,129 L264.021348,129 C263.61705,129.011719 263.420762,128.815432 263.432481,128.411133 L263.432481,127.549805 C263.432481,127.233397 263.470567,126.981446 263.546739,126.793945 C263.593614,126.682617 263.704941,126.503907 263.880723,126.257812 L266.368028,122.71582 Z" id="abcdefghijklmnopqrst"></path>
                <path d="M9.86132812,150.158203 L9.86132812,154.552734 C9.86132812,155.789069 9.4072311,156.864253 8.49902344,157.77832 C7.59081577,158.686528 6.51563121,159.140625 5.2734375,159.140625 C4.03124379,159.140625 2.95605923,158.686528 2.04785156,157.77832 C1.1396439,156.864253 0.685546875,155.789069 0.685546875,154.552734 L0.685546875,150.158203 C0.685546875,148.916009 1.1396439,147.837895 2.04785156,146.923828 C2.95019982,146.02148 4.02538438,145.570312 5.2734375,145.570312 C6.51563121,145.570312 7.59081577,146.02148 8.49902344,146.923828 C9.4072311,147.837895 9.86132812,148.916009 9.86132812,150.158203 Z M3.55078125,150.175781 L3.55078125,154.517578 C3.55078125,154.980471 3.72363108,155.384764 4.06933594,155.730469 C4.40918139,156.070314 4.81054456,156.240234 5.2734375,156.240234 C5.74218984,156.240234 6.14648268,156.070314 6.48632812,155.730469 C6.82617357,155.384764 6.99609375,154.980471 6.99609375,154.517578 L6.99609375,150.175781 C6.99609375,149.718748 6.82617357,149.317385 6.48632812,148.97168 C6.14062327,148.625975 5.73633044,148.453125 5.2734375,148.453125 C4.81640396,148.453125 4.41504079,148.625975 4.06933594,148.97168 C3.72363108,149.317385 3.55078125,149.718748 3.55078125,150.175781 Z M15.3720703,148.40918 L13.9130859,148.40918 C13.508787,148.420898 13.3124999,148.224611 13.3242188,147.820312 L13.3242188,146.264648 C13.3124999,145.86035 13.508787,145.664062 13.9130859,145.675781 L17.6484375,145.675781 C18.0527364,145.664062 18.2490235,145.86035 18.2373047,146.264648 L18.2373047,158.411133 C18.2490235,158.815432 18.0527364,159.011719 17.6484375,159 L15.9609375,159 C15.5566386,159.011719 15.3603515,158.815432 15.3720703,158.411133 L15.3720703,148.40918 Z M26.8857422,156.196289 L30.8671875,156.196289 C31.2714864,156.18457 31.4677735,156.380857 31.4560547,156.785156 L31.4560547,158.411133 C31.4677735,158.815432 31.2714864,159.011719 30.8671875,159 L23.4492188,159 C23.0449199,159.005859 22.8515624,158.809572 22.8691406,158.411133 L22.8691406,157.268555 C22.8691406,156.987303 22.8955075,156.782227 22.9482422,156.65332 C22.9951174,156.541992 23.1181631,156.377931 23.3173828,156.161133 L27.0527344,152.162109 C27.6093778,151.56445 27.9697257,151.145509 28.1337891,150.905273 C28.3974623,150.512693 28.5292969,150.123049 28.5292969,149.736328 C28.5292969,148.869136 28.0810592,148.435547 27.1845703,148.435547 C26.5400358,148.435547 25.9453152,148.702146 25.4003906,149.235352 C25.2949213,149.340821 25.1806647,149.393555 25.0576172,149.393555 C24.9345697,149.393555 24.8056647,149.323243 24.6708984,149.182617 L23.5810547,148.040039 C23.4462884,147.899413 23.3789062,147.761719 23.3789062,147.626953 C23.3789062,147.439452 23.5898416,147.169924 24.0117188,146.818359 C24.9960987,145.986324 26.0976502,145.570312 27.3164062,145.570312 C28.4941465,145.570312 29.475582,145.965816 30.2607422,146.756836 C31.0459024,147.541996 31.4384766,148.499994 31.4384766,149.630859 C31.4384766,150.949225 30.7441476,152.308587 29.3554688,153.708984 L26.8857422,156.196289 Z M40.0253906,151.318359 C41.3671942,152.220708 42.0380859,153.413079 42.0380859,154.895508 C42.0380859,156.079107 41.6455117,157.063473 40.8603516,157.848633 C40.0165973,158.698246 38.9443424,159.123047 37.6435547,159.123047 C36.2724541,159.123047 35.0712942,158.613286 34.0400391,157.59375 C33.8759757,157.429687 33.7939453,157.271485 33.7939453,157.119141 C33.7939453,157.03125 33.8408198,156.911134 33.9345703,156.758789 L34.7958984,155.317383 C34.9013677,155.135741 35.0302727,155.044922 35.1826172,155.044922 C35.2822271,155.044922 35.4521472,155.153319 35.6923828,155.370117 C36.3193391,155.926761 36.919919,156.205078 37.4941406,156.205078 C38.021487,156.205078 38.4462875,156.046877 38.7685547,155.730469 C39.0556655,155.443358 39.1992188,155.100588 39.1992188,154.702148 C39.1992188,154.245115 38.9619164,153.834963 38.4873047,153.47168 C38.0771464,153.161131 37.61719,152.994141 37.1074219,152.970703 L36.5888672,152.944336 C36.2080059,152.932617 36.0205078,152.7334 36.0263672,152.34668 L36.0263672,151.248047 C36.0146484,150.890623 36.1640609,150.691406 36.4746094,150.650391 L36.5097656,150.650391 C36.9902368,150.603515 37.4033186,150.465821 37.7490234,150.237305 C38.1298847,149.98535 38.3203125,149.657229 38.3203125,149.25293 C38.3203125,148.971678 38.2265634,148.740235 38.0390625,148.558594 C37.8398428,148.359374 37.5732439,148.259766 37.2392578,148.259766 C36.8232401,148.259766 36.3632838,148.453123 35.859375,148.839844 C35.7656245,148.916016 35.6718755,148.954102 35.578125,148.954102 C35.4199211,148.954102 35.2880865,148.860352 35.1826172,148.672852 L34.4443359,147.336914 C34.3623043,147.190429 34.3212891,147.076172 34.3212891,146.994141 C34.3212891,146.841796 34.3857415,146.709961 34.5146484,146.598633 C35.3994185,145.831051 36.4101506,145.447266 37.546875,145.447266 C38.589849,145.447266 39.4482388,145.784176 40.1220703,146.458008 C40.7783236,147.114261 41.1064453,147.919917 41.1064453,148.875 C41.1064453,149.789067 40.7460974,150.603512 40.0253906,151.318359 Z M47.1269531,154.227539 L49.21875,154.227539 L49.21875,150.606445 L47.1269531,154.227539 Z M49.21875,156.925781 L44.5166016,156.925781 C44.1123027,156.9375 43.9160156,156.741213 43.9277344,156.336914 L43.9277344,155.018555 C43.9277344,154.690428 43.9511716,154.441407 43.9980469,154.271484 C44.0507815,154.095702 44.1796865,153.843752 44.3847656,153.515625 L48.9990234,146.15918 C49.180665,145.86035 49.4443342,145.713867 49.7900391,145.719727 L51.5126953,145.719727 C51.9169942,145.708008 52.1132813,145.904295 52.1015625,146.308594 L52.1015625,154.104492 L52.6992188,154.104492 C53.1035176,154.092773 53.2998047,154.28906 53.2880859,154.693359 L53.2880859,156.407227 C53.2998047,156.817385 53.1035176,157.016602 52.6992188,157.004883 L52.1015625,157.004883 L52.1015625,158.411133 C52.1132813,158.815432 51.9169942,159.011719 51.5126953,159 L49.8076172,159 C49.4033183,159.011719 49.2070312,158.815432 49.21875,158.411133 L49.21875,156.925781 Z M58.0693359,149.806641 C58.403322,149.730468 58.7607403,149.692383 59.1416016,149.692383 C60.4423893,149.692383 61.5527298,150.152339 62.4726562,151.072266 C63.3925827,151.992192 63.8525391,153.102533 63.8525391,154.40332 C63.8525391,155.709967 63.3925827,156.826167 62.4726562,157.751953 C61.5527298,158.677739 60.4423893,159.140625 59.1416016,159.140625 C57.8466732,159.140625 56.7304734,158.67188 55.7929688,157.734375 C55.2656224,157.201169 55.0019531,156.802736 55.0019531,156.539062 C55.0019531,156.345702 55.1220691,156.19336 55.3623047,156.082031 L56.9003906,155.378906 C57.0292975,155.314453 57.1289059,155.282227 57.1992188,155.282227 C57.3515633,155.282227 57.5009758,155.373046 57.6474609,155.554688 C58.040041,156.035159 58.5380829,156.275391 59.1416016,156.275391 C59.6630885,156.275391 60.0996076,156.099611 60.4511719,155.748047 C60.8085955,155.390623 60.9873047,154.945315 60.9873047,154.412109 C60.9873047,153.873044 60.8115252,153.427736 60.4599609,153.076172 C60.1083967,152.724608 59.6630886,152.548828 59.1240234,152.548828 C58.5439424,152.548828 57.9023473,152.762693 57.1992188,153.19043 C57.1113277,153.243164 57.0234379,153.269531 56.9355469,153.269531 C56.8007806,153.269531 56.6572273,153.19629 56.5048828,153.049805 L55.546875,152.109375 C55.3359364,151.904296 55.2304688,151.719727 55.2304688,151.555664 C55.2304688,151.491211 55.245117,151.382813 55.2744141,151.230469 L56.2763672,146.211914 C56.3408206,145.866209 56.5488264,145.696289 56.9003906,145.702148 L62.2529297,145.702148 C62.6572286,145.69043 62.8535157,145.886717 62.8417969,146.291016 L62.8417969,147.960938 C62.8535157,148.365236 62.6572286,148.561523 62.2529297,148.549805 L58.3242188,148.549805 L58.0693359,149.806641 Z M70.6376953,149.824219 C71.9853583,150.046876 73.025387,150.577144 73.7578125,151.415039 C74.4843786,152.241215 74.8476562,153.222651 74.8476562,154.359375 C74.8476562,155.68946 74.3818406,156.820308 73.4501953,157.751953 C72.5244094,158.677739 71.3994207,159.140625 70.0751953,159.140625 C68.7568293,159.140625 67.6347703,158.677739 66.7089844,157.751953 C65.7773391,156.820308 65.3115234,155.68946 65.3115234,154.359375 C65.3115234,153.451167 65.5283181,152.651371 65.9619141,151.959961 L69.75,145.904297 C69.8847663,145.693358 70.0400382,145.587891 70.2158203,145.587891 C70.3037114,145.587891 70.417968,145.631835 70.5585938,145.719727 L72,146.625 C72.2050792,146.753907 72.3076172,146.909179 72.3076172,147.09082 C72.3076172,147.184571 72.2636723,147.298827 72.1757812,147.433594 L70.6376953,149.824219 Z M70.0576172,152.443359 C69.5244114,152.443359 69.0761737,152.624998 68.7128906,152.988281 C68.355467,153.351564 68.1767578,153.805661 68.1767578,154.350586 C68.1767578,154.90137 68.355467,155.355467 68.7128906,155.712891 C69.0761737,156.076174 69.5302707,156.257812 70.0751953,156.257812 C70.6201199,156.257812 71.0742169,156.076174 71.4375,155.712891 C71.8007831,155.349608 71.9824219,154.895511 71.9824219,154.350586 C71.9824219,153.811521 71.8007831,153.357424 71.4375,152.988281 C71.0742169,152.624998 70.6142606,152.443359 70.0576172,152.443359 Z M81.4306641,148.532227 L77.5722656,148.532227 C77.1679667,148.543945 76.9716796,148.347658 76.9833984,147.943359 L76.9833984,146.291016 C76.9716796,145.886717 77.1679667,145.69043 77.5722656,145.702148 L84.3134766,145.702148 C84.7177755,145.69043 84.9140626,145.886717 84.9023438,146.291016 L84.9023438,146.897461 C84.9023438,147.231447 84.8671879,147.539061 84.796875,147.820312 C84.7499998,147.996095 84.6093762,148.356443 84.375,148.901367 L80.2529297,158.727539 C80.1474604,158.985353 79.9980478,159.114258 79.8046875,159.114258 C79.7167964,159.114258 79.6113287,159.087891 79.4882812,159.035156 L77.9238281,158.349609 C77.6660143,158.238281 77.5371094,158.088868 77.5371094,157.901367 C77.5371094,157.825195 77.566406,157.719727 77.625,157.584961 L81.4306641,148.532227 Z M88.7695312,151.582031 C88.1601532,150.80273 87.8554688,150.076175 87.8554688,149.402344 C87.8554688,148.35937 88.2333947,147.459965 88.9892578,146.704102 C89.7392616,145.959957 90.6386666,145.587891 91.6875,145.587891 C92.7363334,145.587891 93.6357384,145.959957 94.3857422,146.704102 C95.1416053,147.459965 95.5195312,148.350581 95.5195312,149.375977 C95.5195312,150.055667 95.2089875,150.791012 94.5878906,151.582031 C95.6191458,152.548833 96.1347656,153.60058 96.1347656,154.737305 C96.1347656,155.944342 95.7011762,156.981441 94.8339844,157.848633 C93.9609331,158.721684 92.9121155,159.158203 91.6875,159.158203 C90.4628845,159.158203 89.4169965,158.721684 88.5498047,157.848633 C87.6767534,156.981441 87.2402344,155.953131 87.2402344,154.763672 C87.2402344,153.70312 87.7499949,152.642583 88.7695312,151.582031 Z M91.6699219,153.128906 C91.236326,153.128906 90.8613297,153.287108 90.5449219,153.603516 C90.2402329,153.908205 90.0878906,154.271482 90.0878906,154.693359 C90.0878906,155.132815 90.2460922,155.510741 90.5625,155.827148 C90.8730484,156.137697 91.2480447,156.292969 91.6875,156.292969 C92.1210959,156.292969 92.4931625,156.137697 92.8037109,155.827148 C93.1142594,155.5166 93.2695312,155.138674 93.2695312,154.693359 C93.2695312,154.265623 93.117189,153.899416 92.8125,153.594727 C92.507811,153.284178 92.1269554,153.128906 91.6699219,153.128906 Z M91.6875,148.435547 C91.4179674,148.435547 91.1865244,148.532226 90.9931641,148.725586 C90.7998037,148.918946 90.703125,149.150389 90.703125,149.419922 C90.703125,149.683595 90.8027334,149.915038 91.0019531,150.114258 C91.2011729,150.313478 91.4296862,150.413086 91.6875,150.413086 C91.9570326,150.413086 92.1884756,150.316407 92.3818359,150.123047 C92.5751963,149.929687 92.671875,149.695314 92.671875,149.419922 C92.671875,149.14453 92.5781259,148.910157 92.390625,148.716797 C92.2031241,148.529296 91.9687514,148.435547 91.6875,148.435547 Z M101.926758,154.96582 C100.555657,154.708007 99.5097692,154.16309 98.7890625,153.331055 C98.0742152,152.516597 97.7167969,151.538092 97.7167969,150.395508 C97.7167969,149.065423 98.1796829,147.937505 99.1054688,147.011719 C100.025395,146.085933 101.150384,145.623047 102.480469,145.623047 C103.816413,145.623047 104.944331,146.085933 105.864258,147.011719 C106.790044,147.931645 107.25293,149.059564 107.25293,150.395508 C107.25293,151.327153 107.039065,152.129879 106.611328,152.803711 L102.823242,158.771484 C102.688476,158.982423 102.533204,159.087891 102.357422,159.087891 C102.263671,159.087891 102.149415,159.043946 102.014648,158.956055 L100.573242,158.041992 C100.368163,157.907226 100.265625,157.751954 100.265625,157.576172 C100.265625,157.482421 100.3125,157.368165 100.40625,157.233398 L101.926758,154.96582 Z M102.47168,148.488281 C101.938474,148.488281 101.490236,148.66992 101.126953,149.033203 C100.76367,149.396486 100.582031,149.850583 100.582031,150.395508 C100.582031,150.934573 100.76367,151.38574 101.126953,151.749023 C101.496096,152.118166 101.950193,152.302734 102.489258,152.302734 C103.028323,152.302734 103.47949,152.118166 103.842773,151.749023 C104.206057,151.38574 104.387695,150.934573 104.387695,150.395508 C104.387695,149.850583 104.206057,149.396486 103.842773,149.033203 C103.48535,148.66992 103.028323,148.488281 102.47168,148.488281 Z" id="0123456789"></path>
            </g>
        </g>
    </g>
</svg>