<?xml version="1.0" encoding="UTF-8"?>
<svg width="68px" height="38px" viewBox="0 0 68 38" version="1.1" xmlns="http://www.w3.org/2000/svg" xmlns:xlink="http://www.w3.org/1999/xlink">
    <g id="Casy-Study---Restless" stroke="none" stroke-width="1" fill="none" fill-rule="evenodd">
        <g id="Desktop-Copy-9" transform="translate(-403.000000, -2024.000000)">
            <g id="rugby" transform="translate(404.248555, 2025.056338)" stroke="#6C6CF5" stroke-width="1.12800001">
                <path d="M65.6274904,17.5333063 C65.6274904,21.3524151 50.9901831,35.6915454 32.9330319,35.6915454 C14.8758807,35.6915454 0.237821727,22.8594574 0.237821727,17.5333063 C0.237821727,13.5053592 14.8758807,0.128475352 32.9330319,0.128475352 C50.9901831,0.128475352 65.6274904,13.0637958 65.6274904,17.5333063 Z" id="Stroke-23"></path>
                <path d="M0.237821727,17.5333063 C0.237821727,17.5333063 6.25073394,21.917556 32.9330319,21.917556 C59.6145782,21.917556 65.6274904,17.5333063 65.6274904,17.5333063" id="Stroke-24"></path>
                <path d="M12.9017665,11.2911373 C18.4355247,8.89380986 25.3856996,7.03562676 32.9330319,7.03562676 C39.7046985,7.03562676 45.9953321,8.48201056 51.2115334,10.4777113" id="Stroke-25" stroke-linecap="round"></path>
                <path d="M32.7951107,4.60966549 L32.7951107,10.2610739" id="Stroke-26" stroke-linecap="round"></path>
                <path d="M20.9211123,6.05416549 L23.0590784,11.2832254" id="Stroke-27" stroke-linecap="round"></path>
                <path d="M44.7923738,5.99086972 L42.6194577,11.2056127" id="Stroke-28" stroke-linecap="round"></path>
            </g>
        </g>
    </g>
</svg>