<?xml version="1.0" encoding="UTF-8"?>
<svg width="44px" height="37px" viewBox="0 0 44 37" version="1.1" xmlns="http://www.w3.org/2000/svg" xmlns:xlink="http://www.w3.org/1999/xlink">
    <g id="Casy-Study---Restless" stroke="none" stroke-width="1" fill="none" fill-rule="evenodd">
        <g id="Desktop-Copy-9" transform="translate(-558.000000, -2200.000000)">
            <g id="shoe-reverse" transform="translate(558.635838, 2200.626761)" stroke="#FFFFFF" stroke-linecap="round" stroke-width="1.12800001">
                <path d="M9.2340353,0.0199683099 C15.0703182,3.09546479 17.6934512,12.3336338 25.8935602,20.5222609 C26.6564484,21.2829405 27.4869819,21.9938877 28.3550961,22.6588701 C34.4356536,27.3126165 39.7833874,29.7909475 39.7833874,29.7909475 C47.9271254,33.5585532 32.8159254,34.9194123 30.5310187,35.004937 C26.0664314,35.1718419 24.9127039,34.8542327 22.2632645,33.6840144 C17.0808857,31.3955708 16.8854661,20.6552574 12.6162984,16.9293592 C10.1209399,14.7539437 1.97720187,14.0132324 0.842264693,10.9011901 C-2.14164299,2.71870423 6.02464341,0.583225352 8.52751812,0.128098592 C8.78306688,0.0817570423 9.0198253,0.30103169 8.96721232,0.554591549 C8.1892918,4.41638732 19.3507601,22.0293032 25.5177532,25.7720426 C26.3933835,26.301768 27.6373047,26.696613 29.0653714,26.9901095 C30.0800503,27.1984581 30.812874,26.0173137 30.1552117,25.2148137 C29.6178077,24.5596271 29.0127584,23.7235954 28.3550961,22.6588701" id="Stroke-93"></path>
                <path d="M0.842264693,10.9011901 C3.51049449,18.2736408 4.07420501,28.5957123 4.19446325,32.0366665 C4.21701167,32.6892158 4.75065763,33.2038708 5.40080376,33.2038708 C6.06222411,33.2038708 6.60338621,32.6666102 6.61090235,32.0027581 C6.73116059,20.1965891 8.62898601,16.0970951 9.11753513,15.2328063 C5.80667534,14.0825563 1.63145942,13.0649261 0.842264693,10.9011901 Z" id="Stroke-94"></path>
            </g>
        </g>
    </g>
</svg>