<?xml version="1.0" encoding="UTF-8"?>
<svg width="39px" height="41px" viewBox="0 0 39 41" version="1.1" xmlns="http://www.w3.org/2000/svg" xmlns:xlink="http://www.w3.org/1999/xlink">
    <g id="Casy-Study---Restless" stroke="none" stroke-width="1" fill="none" fill-rule="evenodd">
        <g id="Desktop-Copy-9" transform="translate(-194.000000, -2283.000000)">
            <g id="shopping" transform="translate(194.971098, 2283.890845)" stroke="#23DBC6" stroke-width="1.12800001">
                <polyline id="Stroke-95" points="12.1639422 13.8474577 13.3627665 11.5838803 32.5477146 11.423757"></polyline>
                <polygon id="Stroke-96" points="37.2903991 35.1925637 28.015482 38.5852926 0.205762998 38.5852926 5.46706118 14.0931056 24.103331 14.0931056 29.142903 17.1614437 32.247069 12.1795387"></polygon>
                <path d="M13.9678158,2.91612676 C10.1796811,2.91612676 7.10933783,5.99463732 7.10933783,9.79200704 L7.10933783,14.0934824 L20.8262938,14.0934824 L20.8262938,9.79200704 C20.8262938,5.99463732 17.7559505,2.91612676 13.9678158,2.91612676 Z" id="Stroke-97"></path>
                <path d="M24.103331,14.0931056 L28.0192401,38.5852173" id="Stroke-98"></path>
                <path d="M22.6001029,0.248661972 C18.8119682,0.248661972 15.7416249,3.32717254 15.7416249,7.12454225 L15.7416249,11.4260176 L29.4585809,11.4260176 L29.4585809,7.12454225 C29.4585809,3.32717254 26.3882376,0.248661972 22.6001029,0.248661972 Z" id="Stroke-99"></path>
            </g>
        </g>
    </g>
</svg>