<?xml version="1.0" encoding="UTF-8"?>
<svg width="77px" height="27px" viewBox="0 0 77 27" version="1.1" xmlns="http://www.w3.org/2000/svg" xmlns:xlink="http://www.w3.org/1999/xlink">
    <g id="Casy-Study---Restless" stroke="none" stroke-width="1" fill="none" fill-rule="evenodd">
        <g id="Desktop-Copy-9" transform="translate(-175.000000, -2205.000000)">
            <g id="trumpet" transform="translate(176.184971, 2205.901408)" stroke="#6C6CF5" stroke-width="1.12800001">
                <path d="M56.6819227,11.9561197 C57.2982462,13.1866197 57.6477467,14.5771299 57.6477467,16.0491335 C57.6477467,21.0815243 53.5777568,25.1610877 48.5569751,25.1610877 L20.1384487,25.1610877 C15.117667,25.1610877 11.0476771,21.0815243 11.0476771,16.0491335 C11.0476771,11.0164789 15.117667,6.93691549 20.1384487,6.93691549 L33.2879361,6.93691549" id="Stroke-62"></path>
                <path d="M32.3859993,10.6909577 L44.8364856,10.7700775 C46.5651979,10.7700775 48.2939102,10.8450528 50.0113482,10.9946268 C52.089561,11.7293099 53.5777568,13.714838 53.5777568,16.0490958 C53.5777568,19.00855 51.1838661,21.4073468 48.233781,21.4073845 L20.4052717,21.4073845 C17.4514286,21.4073845 15.0575379,19.00855 15.0575379,16.0490958 C15.0575379,13.0897923 17.4514286,10.6909577 20.4052717,10.6909577 L32.3859993,10.6909577 Z" id="Stroke-63"></path>
                <path d="M74.9874823,8.80376408 C74.9874823,4.00534155 73.9803195,0.109637324 72.7439145,0.109637324 C71.5037513,0.109637324 70.4965885,4.00534155 70.4965885,8.80376408 C70.4965885,13.6021866 71.5037513,17.4977025 72.7439145,17.4977025 C73.9803195,17.4977025 74.9874823,13.6021866 74.9874823,8.80376408 Z" id="Stroke-64"></path>
                <path d="M32.3596928,10.690581 L44.8364856,10.7700775 C54.2917901,10.7700775 63.6343525,13.0091655 72.0298811,17.3747278 C72.1088006,17.4157947 72.2065104,17.3792489 72.2666395,17.3317771 C71.2519606,16.5051644 70.4928304,12.9903275 70.4928304,8.80338732 C70.4928304,4.0019507 71.5864289,0.109260563 72.826592,0.109260563 L72.5372206,0.119809859 C63.8936593,4.5904507 54.4609033,7.00247183 44.8853406,7.00247183 L32.9534679,6.93653873" id="Stroke-65"></path>
                <path d="M1.27669473,5.77046479 C1.94938928,5.77046479 2.49806752,7.08385211 2.49806752,8.70166197 C2.49806752,10.3198486 1.94938928,11.6332359 1.27669473,11.6332359 C0.604000174,11.6332359 0.0590800048,10.3198486 0.0590800048,8.70166197 C0.0590800048,7.08385211 0.604000174,5.77046479 1.27669473,5.77046479 Z" id="Stroke-106" stroke-linecap="round" stroke-linejoin="round"></path>
                <path d="M1.47211437,5.80701056 C1.80658262,5.46641901 7.70299466,6.93691549 8.84544798,6.93691549 L19.8565935,6.94105986 C16.9741537,7.02846831 14.4299402,8.46053521 12.8252442,10.6329366 L12.4569534,10.8262148 L9.50686832,10.8262148 C8.19154377,10.8262148 1.46459823,12.0130106 1.41198525,11.6159049 C1.70511472,11.5390458 2.48303524,10.9675 2.49806752,8.75101761 C2.5130998,6.53453521 1.75396963,5.91589437 1.47211437,5.80701056 Z" id="Stroke-107"></path>
            </g>
        </g>
    </g>
</svg>