<?xml version="1.0" encoding="UTF-8"?>
<svg width="25px" height="63px" viewBox="0 0 25 63" version="1.1" xmlns="http://www.w3.org/2000/svg" xmlns:xlink="http://www.w3.org/1999/xlink">
    <g id="Casy-Study---Restless" stroke="none" stroke-width="1" fill="none" fill-rule="evenodd">
        <g id="Desktop-Copy-9" transform="translate(-567.000000, -2272.000000)">
            <g id="wine-reverse" transform="translate(568.404624, 2272.588028)" stroke="#FFFFFF" stroke-width="1.12800001">
                <path d="M16.9859653,19.3963873 L14.5759682,18.0479613 L8.09700867,18.0479613 L5.68701156,19.3963873 C1.95597399,21.4840176 -0.202026012,25.1924718 0.0476416185,29.0862923 L1.98201156,59.2637961 C5.38154913,62.1004641 17.2917283,62.1004641 20.6912659,59.2637961 L22.6256358,29.0862923 C22.8749653,25.1924718 20.7170029,21.4840176 16.9859653,19.3963873 Z" id="Stroke-1"></path>
                <path d="M14.4298121,1.05417606 C14.4298121,0.48790493 12.9782832,0.0282570423 11.1903324,0.0282570423 C9.40241908,0.0282570423 7.9508526,0.48790493 7.9508526,1.05417606 C7.9508526,1.62044718 9.40241908,2.08009507 11.1903324,2.08009507 C12.9782832,2.08009507 14.4298121,1.62044718 14.4298121,1.05417606 Z" id="Stroke-2"></path>
                <path d="M1.16838439,44.5625236 L1.98193642,58.9753482 C5.38147399,62.1966511 17.2916908,62.1966511 20.6911908,58.9753482 L21.5047803,44.5625236 L17.9655116,44.9113662 C13.5568208,45.3461102 9.11630636,45.3461102 4.70765318,44.9113662 L1.16838439,44.5625236 Z" id="Stroke-3"></path>
                <path d="M15.4801069,30.1853405 C15.4801069,27.8919613 13.6233613,26.0303873 11.3364133,26.0303873 C9.04946532,26.0303873 7.19275723,27.8919613 7.19275723,30.1853405 C7.19275723,32.4784937 9.04946532,34.3402937 11.3364133,34.3402937 C13.6233613,34.3402937 15.4801069,32.4784937 15.4801069,30.1853405 Z" id="Stroke-4"></path>
                <path d="M8.01912139,1.26440845 C8.32574855,1.73008451 9.62995665,2.08009507 11.1903324,2.08009507 C12.7507457,2.08009507 14.0549538,1.73008451 14.3615809,1.26440845 L14.3890087,1.26440845 L14.3890087,18.0479613 L7.95772832,18.0479613 L7.95772832,1.26440845 L8.01912139,1.26440845 Z" id="Stroke-5"></path>
                <path d="M14.5759682,18.0479613 L16.9859653,19.3963873 C20.7170029,21.4840176 22.8749653,25.1924718 22.6256358,29.0862923 L22.5547746,30.1917454 L15.4612081,30.5584842 C15.4723295,30.4353588 15.4802197,30.3113669 15.4802197,30.1853405 C15.4802197,27.8904542 13.625052,26.0303873 11.3364133,26.0303873 C9.04803757,26.0303873 7.19286994,27.8904542 7.19286994,30.1853405 C7.19286994,30.3113669 7.20076012,30.4201377 7.21158092,30.543263 L0.116549133,30.1613408 L0.0476416185,29.0862923 C-0.202026012,25.1924718 1.95597399,21.4840176 5.68701156,19.3963873 L8.09700867,18.0479613 L14.5759682,18.0479613 Z" id="Stroke-6"></path>
                <path d="M5.87246821,22.0205246 C3.48215896,24.0591761 2.1806185,26.8803592 2.37757225,29.811707" id="Stroke-7" stroke-linecap="round"></path>
                <path d="M3.3923237,44.9179218 L4.16161561,56.3701996" id="Stroke-8" stroke-linecap="round"></path>
            </g>
        </g>
    </g>
</svg>