<?xml version="1.0" encoding="UTF-8"?>
<svg width="86px" height="76px" viewBox="0 0 86 76" version="1.1" xmlns="http://www.w3.org/2000/svg" xmlns:xlink="http://www.w3.org/1999/xlink">
    <g id="Casy-Study---Marketplace-Strategy-Solutions" stroke="none" stroke-width="1" fill="none" fill-rule="evenodd">
        <g id="Desktop-Copy-10" transform="translate(-580.000000, -2125.000000)">
            <g id="icon_07" transform="translate(581.000000, 2126.000000)" stroke="#E6232C" stroke-linecap="round" stroke-linejoin="round" stroke-width="2.10000014">
                <path d="M83.4309,7.65355472 C83.4309,3.62181132 80.1493,0.349056604 76.1068,0.349056604 L7.67438,0.349056604 C3.63195,0.349056604 0.35,3.62181132 0.35,7.65355472 L0.35,66.0907962 C0.35,70.1223302 3.63195,73.395434 7.67438,73.395434 L76.1068,73.395434 C80.1493,73.395434 83.4309,70.1223302 83.4309,66.0907962 L83.4309,7.65355472 Z" id="Stroke-1"></path>
                <path d="M10.02603,7.08473208 C10.96767,7.08473208 11.73214,7.84714151 11.73214,8.7862434 C11.73214,9.72534528 10.96767,10.4877547 10.02603,10.4877547 C9.08439,10.4877547 8.31992,9.72534528 8.31992,8.7862434 C8.31992,7.84714151 9.08439,7.08473208 10.02603,7.08473208 Z" id="Stroke-2"></path>
                <path d="M17.02603,7.08473208 C17.96767,7.08473208 18.73214,7.84714151 18.73214,8.7862434 C18.73214,9.72534528 17.96767,10.4877547 17.02603,10.4877547 C16.08439,10.4877547 15.31992,9.72534528 15.31992,8.7862434 C15.31992,7.84714151 16.08439,7.08473208 17.02603,7.08473208 Z" id="Stroke-3"></path>
                <path d="M24.02603,7.08473208 C24.96767,7.08473208 25.73214,7.84714151 25.73214,8.7862434 C25.73214,9.72534528 24.96767,10.4877547 24.02603,10.4877547 C23.08439,10.4877547 22.31992,9.72534528 22.31992,8.7862434 C22.31992,7.84714151 23.08439,7.08473208 24.02603,7.08473208 Z" id="Stroke-4"></path>
                <path d="M0.35,16.4628358 L83.4309,16.4628358" id="Stroke-5"></path>
                <polygon id="Stroke-6" points="12.93593 63.5951811 41.89045 63.5951811 41.89045 29.0672 12.93593 29.0672"></polygon>
                <path d="M49.21735,38.9665151 L69.3469,38.9665151" id="Stroke-7"></path>
                <path d="M49.21735,45.9476472 L69.3469,45.9476472" id="Stroke-8"></path>
                <path d="M49.21735,52.9287792 L69.3469,52.9287792" id="Stroke-9"></path>
            </g>
        </g>
    </g>
</svg>