<?xml version="1.0" encoding="UTF-8"?>
<svg width="103px" height="99px" viewBox="0 0 103 99" version="1.1" xmlns="http://www.w3.org/2000/svg" xmlns:xlink="http://www.w3.org/1999/xlink">
    <g id="Casy-Study---Marketplace-Strategy-Solutions" stroke="none" stroke-width="1" fill="none" fill-rule="evenodd">
        <g id="Desktop-Copy-10" transform="translate(-350.000000, -1951.000000)">
            <g id="icon_02" transform="translate(351.000000, 1952.000000)" stroke="#E6232C" stroke-linecap="round" stroke-linejoin="round" stroke-width="2.10000014">
                <path d="M25.5806347,75.1702203 C25.5806347,73.5280384 24.2502403,72.1947804 22.6115854,72.1947804 L17.2639861,72.1947804 L13.2908986,76.0541855 L8.90216806,72.1947804 L3.31974375,72.1947804 C1.68108889,72.1947804 0.350694444,73.5280384 0.350694444,75.1702203 L0.350694444,81.1210297 C0.350694444,82.7632116 1.68108889,84.0964696 3.31974375,84.0964696 L22.6115854,84.0964696 C24.2502403,84.0964696 25.5806347,82.7632116 25.5806347,81.1210297 L25.5806347,75.1702203 Z" id="Stroke-1"></path>
                <path d="M13.2908986,54.8947601 C16.4518479,54.8947601 19.0181597,57.4665957 19.0181597,60.6343486 C19.0181597,63.8021014 16.4518479,69.1855312 13.2908986,69.1855312 C10.1299493,69.1855312 7.56370764,63.8021014 7.56370764,60.6343486 C7.56370764,57.4665957 10.1299493,54.8947601 13.2908986,54.8947601 Z" id="Stroke-2"></path>
                <path d="M100.299313,75.1702203 C100.299313,73.5280384 98.9687778,72.1947804 97.3303333,72.1947804 L91.9822431,72.1947804 L88.0095764,76.0541855 L83.6202847,72.1947804 L78.0379306,72.1947804 C76.3994861,72.1947804 75.0689514,73.5280384 75.0689514,75.1702203 L75.0689514,81.1210297 C75.0689514,82.7632116 76.3994861,84.0964696 78.0379306,84.0964696 L97.3303333,84.0964696 C98.9687778,84.0964696 100.299313,82.7632116 100.299313,81.1210297 L100.299313,75.1702203 Z" id="Stroke-3"></path>
                <path d="M88.0095764,54.8947601 C91.1700347,54.8947601 93.7364167,57.4665957 93.7364167,60.6343486 C93.7364167,63.8021014 91.1700347,69.1855312 88.0095764,69.1855312 C84.8484167,69.1855312 82.2820347,63.8021014 82.2820347,60.6343486 C82.2820347,57.4665957 84.8484167,54.8947601 88.0095764,54.8947601 Z" id="Stroke-4"></path>
                <path d="M70.1746597,18.0897971 C81.7237292,24.0046884 90.1593333,35.1689667 92.3385486,48.4345601" id="Stroke-5"></path>
                <path d="M74.3247778,89.9683435 C67.7251993,94.3785399 59.7999257,96.9500942 51.2800146,96.9500942 C42.8905618,96.9500942 35.0775806,94.4566319 28.5393736,90.169513" id="Stroke-6"></path>
                <path d="M10.5621451,46.615529 C13.0174972,34.9450232 20.348975,25.0667681 30.3173243,19.2242754" id="Stroke-7"></path>
                <path d="M62.8391139,20.6272609 C62.8391139,18.984587 61.5087896,17.6511884 59.8701347,17.6511884 L54.5225354,17.6511884 L50.5494479,21.5108043 L46.1607174,17.6511884 L40.5782931,17.6511884 C38.9396382,17.6511884 37.6092437,18.984587 37.6092437,20.6272609 L37.6092437,26.578 C37.6092437,28.219971 38.9396382,29.553229 40.5782931,29.553229 L59.8701347,29.553229 C61.5087896,29.553229 62.8391139,28.219971 62.8391139,26.578 L62.8391139,20.6272609 Z" id="Stroke-8"></path>
                <path d="M50.5494479,0.351449275 C53.7103972,0.351449275 56.276709,2.92335507 56.276709,6.09131884 C56.276709,9.25857971 53.7103972,14.6420797 50.5494479,14.6420797 C47.3884986,14.6420797 44.8221868,9.25857971 44.8221868,6.09131884 C44.8221868,2.92335507 47.3884986,0.351449275 50.5494479,0.351449275 Z" id="Stroke-9"></path>
                <path d="M38.7039014,62.6553928 L47.5368424,55.2052304" id="Stroke-10"></path>
                <path d="M50.618184,52.5812399 L53.0858104,50.4799949" id="Stroke-11"></path>
                <path d="M60.9495021,43.7048261 L64.6028264,38.7128406" id="Stroke-12"></path>
                <path d="M67.3601965,54.7314768 L73.5357153,54.5922326" id="Stroke-13"></path>
                <path d="M64.9507153,48.5761239 L70.3436944,45.5572449" id="Stroke-14"></path>
                <polygon id="Stroke-15" points="35.3441083 69.2888572 32.4536146 64.5072493 53.2425708 41.1215333 65.5770556 62.3993971"></polygon>
                <path d="M51.9379875,38.7128406 L67.0383292,64.9784022" id="Stroke-16"></path>
                <path d="M36.4389063,59.889487 L40.9688965,67.7689094" id="Stroke-17"></path>
                <polygon id="Stroke-18" points="38.2292014 68.8006942 42.3358333 75.9116377 45.6193854 73.096037 42.1614681 67.7689094"></polygon>
            </g>
        </g>
    </g>
</svg>