<?xml version="1.0" encoding="UTF-8"?>
<svg width="82px" height="85px" viewBox="0 0 82 85" version="1.1" xmlns="http://www.w3.org/2000/svg" xmlns:xlink="http://www.w3.org/1999/xlink">
    <g id="Casy-Study---Marketplace-Strategy-Solutions" stroke="none" stroke-width="1" fill="none" fill-rule="evenodd">
        <g id="Desktop-Copy-10" transform="translate(-141.000000, -2123.000000)">
            <g id="icon_05" transform="translate(142.000000, 2124.000000)" stroke="#E6232C" stroke-linecap="round" stroke-linejoin="round" stroke-width="2.10000014">
                <path d="M29.3844912,15.0912288 C29.3844912,15.0912288 39.1130526,24.4799356 36.0164211,47.5252373" id="Stroke-1"></path>
                <path d="M34.2752281,25.0174661 C34.2752281,25.0174661 30.0253333,25.517928 25.8452632,24.0803398 C21.6651228,22.6427517 19.2142456,18.1452068 19.6896842,11.3667797 C20.1651228,4.58891525 16.9547368,0.351694915 17.2807018,0.351694915 C17.6065965,0.351694915 25.6927719,0.728711864 31.3888421,5.40766102 C37.0849123,10.0873136 36.8527018,17.2801076 34.2752281,25.0174661" id="Stroke-2"></path>
                <path d="M44.8721404,23.5947195 C44.8721404,23.5947195 46.5277895,26.2227246 49.2409123,27.9279525 C51.9541053,29.6332508 55.5990175,28.967422 59.1922105,25.60965 C62.7853333,22.2519483 66.6298947,22.1337788 66.4813333,21.949772 C66.3327719,21.7656949 62.4357193,17.3711966 57.209614,16.2873432 C51.9834386,15.2034898 48.046386,18.6128907 44.8721404,23.5947195" id="Stroke-3"></path>
                <path d="M36.6249825,38.1245025 C36.6249825,38.1245025 35.5781053,27.6276051 44.8721404,23.5947195" id="Stroke-4"></path>
                <path d="M30.6124211,64.9040305 L56.0735439,64.9040305 C56.0735439,64.9040305 67.9284211,57.5612034 72.5698246,54.7270347 C77.2119298,51.8927958 82.3649123,57.0340127 78.682807,61.5740424 C75.0014035,66.114072 59.4127719,79.2129492 59.4127719,79.2129492 L17.2807018,78.9081" id="Stroke-5"></path>
                <polygon id="Stroke-6" points="0.350877193 82.4147797 17.2807018 82.4147797 17.2807018 51.6671483 0.350877193 51.6671483"></polygon>
                <path d="M17.2807018,55.4304246 C17.2807018,55.4304246 46.1597895,55.4304246 51.5100351,55.4304246 C56.8602807,55.4304246 58.2875088,64.9040305 51.5100351,64.9040305 C44.7325614,64.9040305 30.2635789,64.9040305 30.2635789,64.9040305" id="Stroke-7"></path>
                <path d="M4.3074386,52.3286161 L4.3074386,73.6203669" id="Stroke-8"></path>
            </g>
        </g>
    </g>
</svg>