<?xml version="1.0" encoding="UTF-8"?>
<svg width="80px" height="80px" viewBox="0 0 80 80" version="1.1" xmlns="http://www.w3.org/2000/svg" xmlns:xlink="http://www.w3.org/1999/xlink">
    <g id="Casy-Study---Marketplace-Strategy-Solutions" stroke="none" stroke-width="1" fill="none" fill-rule="evenodd">
        <g id="Desktop-Copy-10" transform="translate(-362.000000, -2123.000000)">
            <g id="icon_06" transform="translate(363.000000, 2124.000000)" stroke="#E6232C" stroke-linecap="round" stroke-linejoin="round" stroke-width="2.10000014">
                <path d="M49.4933679,23.4016162 L33.1238839,6.88437838" id="Stroke-1"></path>
                <path d="M30.2933893,0.351351351 C32.2767482,0.351351351 33.8869607,1.976 33.8869607,3.9772973 C33.8869607,5.97859459 32.2767482,7.60324324 30.2933893,7.60324324 C28.3100304,7.60324324 26.6998179,5.97859459 26.6998179,3.9772973 C26.6998179,1.976 28.3100304,0.351351351 30.2933893,0.351351351 Z" id="Stroke-2"></path>
                <path d="M55.0808839,29.8065405 L71.4500893,46.323427" id="Stroke-3"></path>
                <path d="M74.2810714,52.8565946 C72.2976429,52.8565946 70.6875,51.2318757 70.6875,49.2306486 C70.6875,47.2294216 72.2976429,45.6047027 74.2810714,45.6047027 C76.2645,45.6047027 77.8746429,47.2294216 77.8746429,49.2306486 C77.8746429,51.2318757 76.2645,52.8565946 74.2810714,52.8565946 Z" id="Stroke-4"></path>
                <polygon id="Stroke-5" points="11.2610411 24.8245892 5.67275893 19.1859622 0.0844767857 24.8245892 5.67275893 30.4632162"></polygon>
                <polygon id="Stroke-6" points="59.0643161 71.7477027 53.4760339 66.1090757 47.8877518 71.7477027 53.4760339 77.3863297"></polygon>
                <polygon id="Stroke-7" points="57.4425429 26.7470432 51.8542607 21.1084162 46.2659786 26.7470432 51.8542607 32.3856703"></polygon>
                <path d="M8.7715875,21.7312919 C14.2448196,17.914 20.8819929,15.677227 28.0327821,15.677227 C36.1712464,15.677227 43.6442732,18.5744703 49.4933679,23.4016162" id="Stroke-8"></path>
                <path d="M55.5261804,29.855027 C59.5760518,35.4938649 61.9646625,42.4251135 61.9646625,49.9148 C61.9646625,56.4126919 60.1667625,62.490227 57.0459964,67.6680919" id="Stroke-9"></path>
            </g>
        </g>
    </g>
</svg>