<?xml version="1.0" encoding="UTF-8"?>
<svg width="311px" height="228px" viewBox="0 0 311 228" version="1.1" xmlns="http://www.w3.org/2000/svg" xmlns:xlink="http://www.w3.org/1999/xlink">

    <g id="Casy-Study---Marketplace-Strategy-Solutions" stroke="none" stroke-width="1" fill="none" fill-rule="evenodd">
        <g id="Desktop-Copy-10" transform="translate(-341.000000, -2676.000000)">
            <g id="Logo-Primary-Alt-WO-Small-Text" transform="translate(341.000000, 2676.000000)" fill="#E6232C">
                <g id="Page-1">
                    <path d="M155.620232,194.451198 L213.322173,85.4986852 L279.23972,224.373113 C280.049647,226.078468 279.319661,227.463032 277.609347,227.463242 L268.321482,227.463242 C266.611168,227.463242 264.566365,226.078678 263.758542,224.373113 L212.874084,117.150729 L155.856689,225.703723 L98.3672228,117.150729 L47.4827645,224.373113 C46.6734685,226.078468 44.6292967,227.463032 42.9198246,227.463242 L33.6304868,227.463242 C31.9214355,227.463242 31.1910285,226.078678 32.0005349,224.373113 L97.8903125,85.4443104 L155.620232,194.451198 Z" id="Fill-1"></path>
                    <path d="M96.5300557,0 L155.620232,111.575312 L214.71062,0 L310.307261,201.330981 C311.117188,203.036336 310.387201,204.420691 308.678992,204.421111 L299.389023,204.421111 C297.678709,204.421111 295.63601,203.036336 294.826083,201.330981 L214.283567,31.6129945 L155.768123,142.660513 L155.620232,142.381081 L155.472342,142.660513 L96.9575289,31.6129945 L15.8125116,202.600078 C15.0032156,204.305433 12.9588334,205.689997 11.2495717,205.690207 L1.96002356,205.690207 C0.251182583,205.690207 -0.479224392,204.305643 0.330071585,202.600078 L96.5300557,0 Z" id="Fill-2"></path>
                </g>
            </g>
        </g>
    </g>
</svg>