<?xml version="1.0" encoding="UTF-8"?>
<svg width="309px" height="49px" viewBox="0 0 309 49" version="1.1" xmlns="http://www.w3.org/2000/svg" xmlns:xlink="http://www.w3.org/1999/xlink">
    <defs></defs>
    <g id="Casy-Study---Marketplace-Strategy-Solutions" stroke="none" stroke-width="1" fill="none" fill-rule="evenodd">
        <g id="Desktop-Copy-10" transform="translate(-122.000000, -3095.000000)">
            <g id="Logo-Primary-Alt-WO-Small-Text-Copy-2" transform="translate(122.000000, 3095.000000)">
                <text id="Marketplace" font-family="HiraMaruPro-W4, Hiragino Maru Gothic Pro" font-size="24.4799979" font-weight="normal" letter-spacing="3.09599972">
                    <tspan x="84.7999949" y="23.5999999" fill="#E6232C">M</tspan>
                    <tspan x="111.249913" y="23.5999999" fill="#161617">ARKETPLAC</tspan>
                    <tspan x="293.974377" y="23.5999999" fill="#161617">E</tspan>
                </text>
                <text id="Strategy-Solutions" font-family="HiraMaruPro-W4, Hiragino Maru Gothic Pro" font-size="12.2399989" font-weight="normal" letter-spacing="1.23999989" fill="#161617" fill-opacity="0.75">
                    <tspan x="84.7999949" y="44.599998">STRATEGY SOLUTION</tspan>
                    <tspan x="242.919021" y="44.599998">S</tspan>
                </text>
                <g id="Page-1" fill="#E6232C">
                    <path d="M33.1884678,41.4672827 L45.4943162,18.2328429 L59.5522721,47.8482181 C59.7250018,48.21189 59.5693208,48.5071523 59.2045694,48.5071971 L57.2237858,48.5071971 C56.8590344,48.5071971 56.422948,48.2119347 56.2506669,47.8482181 L45.3987541,24.9827332 L33.2388959,48.1319744 L20.9783609,24.9827332 L10.126448,47.8482181 C9.95385292,48.21189 9.51790105,48.5071523 9.15332918,48.5071971 L7.17223146,48.5071971 C6.80774932,48.5071971 6.65197852,48.2119347 6.82461851,47.8482181 L20.8766523,18.2212474 L33.1884678,41.4672827 Z" id="Fill-1"></path>
                    <path d="M20.5865561,0 L33.1884678,23.7937593 L45.7904243,0 L66.177915,42.9344165 C66.3506447,43.2980884 66.1949636,43.593306 65.8306609,43.5933956 L63.8494286,43.5933956 C63.4846773,43.5933956 63.0490395,43.2980884 62.8763098,42.9344165 L45.6993486,6.7415629 L33.2200077,30.4227688 L33.1884678,30.3631791 L33.1569278,30.4227688 L20.6777215,6.7415629 L3.37226737,43.205055 C3.19967224,43.5687269 2.76367551,43.8639893 2.39914851,43.8640341 L0.418005921,43.8640341 C0.0535686455,43.8640341 -0.102202156,43.5687717 0.0703929688,43.205055 L20.5865561,0 Z" id="Fill-2"></path>
                </g>
            </g>
        </g>
    </g>
</svg>