<?xml version="1.0" encoding="UTF-8"?>
<svg width="35px" height="35px" viewBox="0 0 35 35" version="1.1" xmlns="http://www.w3.org/2000/svg" xmlns:xlink="http://www.w3.org/1999/xlink">
    <g id="About" stroke="none" stroke-width="1" fill="none" fill-rule="evenodd">
        <g id="Desktop-Copy-7" transform="translate(-701.000000, -1091.000000)">
            <path d="M718.5,1091 C708.835023,1091 701,1098.83499 701,1108.5 C701,1118.16504 708.835054,1126 718.5,1126 C728.165038,1126 736,1118.16501 736,1108.5 C736,1098.83499 728.165038,1091 718.5,1091 Z M704.760309,1108.68243 L718.317544,1122.23969 C710.87307,1122.14266 704.857311,1116.1269 704.760309,1108.68243 Z M721.575661,1121.89616 L705.103842,1105.42434 C706.500581,1099.31568 711.967899,1094.75801 718.5,1094.75801 C723.066063,1094.75801 727.11122,1096.98556 729.61014,1100.41259 L727.707473,1102.09143 C725.680423,1099.1845 722.312623,1097.28205 718.5,1097.28205 C713.64578,1097.28205 709.512044,1100.3654 707.949573,1104.6803 L722.319729,1119.05046 C725.809523,1117.78671 728.493472,1114.84082 729.392368,1111.19231 L723.435907,1111.19231 L723.435907,1108.50003 L729.717953,1108.50003 L729.717953,1108.49997 L732.241988,1108.49997 L732.241988,1108.5 C732.241988,1115.0321 727.684348,1120.49942 721.575661,1121.89616 Z" id="gatsby" fill="#FFFFFF" fill-rule="nonzero"></path>
        </g>
    </g>
</svg>