<?xml version="1.0" encoding="UTF-8"?>
<svg width="35px" height="35px" viewBox="0 0 35 35" version="1.1" xmlns="http://www.w3.org/2000/svg" xmlns:xlink="http://www.w3.org/1999/xlink">
    <g id="About" stroke="none" stroke-width="1" fill="none" fill-rule="evenodd">
        <g id="Desktop-Copy-7" transform="translate(-701.000000, -1170.000000)">
            <path d="M735.206337,1185.94052 L719.984266,1170.66014 C719.108269,1169.77995 717.6864,1169.77995 716.809256,1170.66014 L713.648399,1173.83334 L717.658093,1177.8587 C718.589939,1177.54265 719.658349,1177.75463 720.401225,1178.50041 C721.147544,1179.25079 721.357171,1180.33259 721.034697,1181.27115 L724.899029,1185.15058 C725.833936,1184.82723 726.912674,1185.03652 727.659375,1185.78729 C728.702921,1186.83453 728.702921,1188.53192 727.659375,1189.57993 C726.615447,1190.62794 724.924659,1190.62794 723.880348,1189.57993 C723.095394,1188.79114 722.90145,1187.63369 723.2989,1186.66287 L719.695072,1183.04497 L719.69469,1192.56573 C719.949073,1192.69246 720.189303,1192.86105 720.401225,1193.07303 C721.444771,1194.12027 721.444771,1195.81766 720.401225,1196.86643 C719.357297,1197.91406 717.665743,1197.91406 716.623345,1196.86643 C715.5798,1195.81766 715.5798,1194.12027 716.623345,1193.07303 C716.881172,1192.81458 717.179546,1192.61911 717.497812,1192.48777 L717.497812,1182.8783 C717.179546,1182.74773 716.881554,1182.55341 716.623345,1182.29304 C715.832653,1181.50042 715.642535,1180.33567 716.047636,1179.36101 L712.095322,1175.39249 L701.657953,1185.86986 C700.780809,1186.75081 700.780809,1188.17824 701.657953,1189.05842 L716.880024,1204.33919 C717.756403,1205.21937 719.17789,1205.21937 720.055417,1204.33919 L735.206337,1189.12947 C736.083098,1188.2489 736.083098,1186.82071 735.206337,1185.94052" id="git" fill="#FFFFFF" fill-rule="nonzero"></path>
        </g>
    </g>
</svg>