<?xml version="1.0" encoding="UTF-8"?>
<svg width="31px" height="35px" viewBox="0 0 31 35" version="1.1" xmlns="http://www.w3.org/2000/svg" xmlns:xlink="http://www.w3.org/1999/xlink">
    <g id="About" stroke="none" stroke-width="1" fill="none" fill-rule="evenodd">
        <g id="Desktop-Copy-7" transform="translate(-161.000000, -1170.000000)">
            <path d="M179.475999,1174.01094 L186.638218,1178.16613 C186.839893,1177.95148 187.075463,1177.76195 187.342702,1177.60598 C188.828126,1176.74796 190.722708,1177.25741 191.585499,1178.75 C192.439395,1180.24259 191.932394,1182.14632 190.44697,1183.01328 C190.181774,1183.16646 189.903253,1183.27606 189.619758,1183.34426 L189.619758,1191.65789 C189.900184,1191.72624 190.175654,1191.83514 190.438076,1191.98672 C191.932394,1192.85368 192.439395,1194.75741 191.576604,1196.25 C190.722708,1197.74259 188.819231,1198.25204 187.333807,1197.39402 C187.038075,1197.2232 186.781124,1197.01058 186.565973,1196.76779 L179.447442,1200.89763 C179.549203,1201.20661 179.604268,1201.53712 179.604268,1201.88075 C179.604268,1203.59678 178.216687,1205 176.5,1205 C174.783313,1205 173.395732,1203.60572 173.395732,1201.88075 C173.395732,1201.57413 173.439574,1201.27796 173.521313,1200.99821 L166.361001,1196.84412 C166.161479,1197.05456 165.929169,1197.24054 165.666193,1197.39402 C164.171874,1198.25204 162.277292,1197.74259 161.423396,1196.25 C160.5695,1194.75741 161.076501,1192.85368 162.561924,1191.98672 C162.824561,1191.83502 163.099988,1191.72606 163.380241,1191.65773 L163.380241,1183.34426 C163.096747,1183.27606 162.818226,1183.16646 162.55303,1183.01328 C161.067606,1182.15526 160.560605,1180.24259 161.414501,1178.75 C162.268398,1177.25741 164.171874,1176.74796 165.657298,1177.60598 C165.923083,1177.7611 166.157543,1177.94942 166.358488,1178.16263 L173.522639,1174.00632 C173.440048,1173.72524 173.395732,1173.42753 173.395732,1173.11925 C173.395732,1171.39428 174.783313,1170 176.5,1170 C178.216687,1170 179.604268,1171.39428 179.604268,1173.11925 C179.604268,1173.42922 179.559465,1173.7285 179.475999,1174.01094 Z M178.729776,1175.29117 C178.702515,1175.31942 178.674725,1175.34716 178.646422,1175.37436 L188.023063,1191.69311 C188.062901,1191.68158 188.102965,1191.67085 188.14323,1191.66092 L188.14323,1183.33688 C187.353122,1183.13953 186.64119,1182.63315 186.204174,1181.86925 C185.768578,1181.10784 185.687128,1180.23944 185.909052,1179.45626 L178.729776,1175.29117 Z M174.355542,1175.37625 C174.325402,1175.34733 174.295841,1175.31781 174.26688,1175.2877 L167.089628,1179.45161 C167.313192,1180.236 167.232283,1181.10633 166.795826,1181.86925 C166.35881,1182.63315 165.646878,1183.13953 164.85677,1183.33688 L164.85677,1191.66172 C164.897749,1191.67189 164.938521,1191.68289 164.979059,1191.69472 L174.355542,1175.37625 Z M177.367364,1176.11552 C177.092181,1176.1956 176.801154,1176.23851 176.5,1176.23851 C176.199798,1176.23851 175.909661,1176.19587 175.635248,1176.11628 L166.259105,1192.43416 C166.467858,1192.63429 166.652374,1192.86719 166.804721,1193.13075 C166.955697,1193.39465 167.06413,1193.67141 167.132134,1193.95301 L185.868033,1193.95301 C185.936047,1193.67123 186.044426,1193.39443 186.195279,1193.13075 C186.347026,1192.8655 186.53192,1192.63129 186.741724,1192.4303 L177.367364,1176.11552 Z M178.795705,1199.77931 L185.928372,1195.64126 C185.906974,1195.57374 185.887851,1195.50549 185.871038,1195.43667 L167.128163,1195.43667 C167.118224,1195.47711 167.107485,1195.51734 167.095954,1195.55735 L174.263614,1199.7157 C174.827974,1199.12718 175.620828,1198.76149 176.5,1198.76149 C177.410429,1198.76149 178.228293,1199.15365 178.795705,1199.77931 Z" id="graphql" fill="#FFFFFF" fill-rule="nonzero"></path>
        </g>
    </g>
</svg>