<?xml version="1.0" encoding="UTF-8"?>
<svg width="37px" height="23px" viewBox="0 0 37 23" version="1.1" xmlns="http://www.w3.org/2000/svg" xmlns:xlink="http://www.w3.org/1999/xlink">
    <g id="About" stroke="none" stroke-width="1" fill="none" fill-rule="evenodd">
        <g id="Desktop-Copy-7" transform="translate(-156.000000, -1255.000000)">
            <path d="M166.342095,1266.78909 C166.318577,1266.82455 166.272925,1266.93636 166.210672,1267.12318 C166.147036,1267.31136 166.069565,1267.54591 165.978261,1267.83227 C165.886957,1268.11455 165.787352,1268.43227 165.682213,1268.78273 L165.354348,1269.85727 C165.229842,1270.22273 165.133004,1270.58 165.022332,1270.93182 L164.745652,1271.88364 L164.538142,1272.59545 L164.441304,1272.93636 C164.399802,1273.04955 164.3583,1273.175 164.28913,1273.31409 C164.21996,1273.45045 164.136957,1273.58273 164.053953,1273.70682 C163.957115,1273.82955 163.860277,1273.93455 163.749605,1274.01636 C163.638933,1274.09818 163.528261,1274.13909 163.403755,1274.13909 C163.210079,1274.13909 163.071739,1274.07364 162.974901,1273.94818 C162.878063,1273.81864 162.836561,1273.58545 162.836561,1273.24455 L162.836561,1272.93636 C162.836561,1272.82318 162.891897,1272.60909 162.974901,1272.29818 C163.057905,1271.98455 163.154743,1271.63273 163.279249,1271.24 C163.389921,1270.84455 163.528261,1270.43818 163.652767,1270.01682 L164.026285,1268.87136 C163.694269,1269.22591 163.348419,1269.58045 162.974901,1269.92136 C162.601383,1270.27591 162.214032,1270.58955 161.82668,1270.86227 C161.425494,1271.135 161.024308,1271.36682 160.623123,1271.54409 C160.221937,1271.72136 159.834585,1271.80318 159.461067,1271.80318 C159.032213,1271.80318 158.67253,1271.70773 158.368182,1271.51682 C158.063834,1271.32591 157.800988,1271.09409 157.607312,1270.79409 C157.413636,1270.49409 157.261462,1270.15318 157.164625,1269.785 C157.110672,1269.43182 157.055336,1269.05 157.055336,1268.68182 L157.055336,1268.54545 C157.055336,1268.50455 157.06087,1268.45955 157.06917,1268.41727 C157.102372,1267.73545 157.200593,1267.04 157.359684,1266.32545 C157.525692,1265.60545 157.733202,1264.89364 157.996047,1264.18455 C158.258893,1263.47545 158.563241,1262.78 158.909091,1262.10364 C159.268775,1261.45455 159.642292,1260.81364 160.043478,1260.21364 C160.444664,1259.61364 160.876285,1259.05455 161.33004,1258.55 C161.786561,1258.04273 162.252767,1257.60636 162.732806,1257.24091 C163.211462,1256.87273 163.695652,1256.58636 164.185375,1256.38182 C164.669565,1256.17727 165.153755,1256.06818 165.632411,1256.06818 C166.185771,1256.06818 166.719763,1256.21818 167.237154,1256.51409 C167.749012,1256.81818 168.233202,1257.29545 168.686957,1257.96364 C168.789328,1258.11364 168.852964,1258.26364 168.880632,1258.41636 C168.9083,1258.56636 168.922134,1258.71227 168.922134,1258.84591 C168.922134,1259.165 168.846047,1259.41864 168.691107,1259.60136 C168.538933,1259.79227 168.359091,1259.87409 168.137747,1259.87409 C167.944071,1259.87409 167.764229,1259.77864 167.598221,1259.57409 C167.432213,1259.36955 167.238538,1259.08318 167.044862,1258.715 C166.851186,1258.37409 166.643676,1258.12864 166.408498,1257.97864 C166.17332,1257.82864 165.924308,1257.76045 165.647628,1257.76045 C165.218775,1257.76045 164.776087,1257.93773 164.291897,1258.29227 C163.807708,1258.64682 163.337352,1259.09682 162.866996,1259.66955 C162.39664,1260.24227 161.940119,1260.89682 161.511265,1261.63318 C161.082411,1262.36955 160.695059,1263.11955 160.363043,1263.89682 C160.031028,1264.67409 159.768182,1265.42409 159.574506,1266.17409 C159.38083,1266.92409 159.283992,1267.59227 159.283992,1268.19227 C159.283992,1268.39682 159.297826,1268.60136 159.325494,1268.80591 C159.353162,1269.02409 159.408498,1269.20136 159.477668,1269.37864 C159.546838,1269.55591 159.65751,1269.69227 159.79585,1269.80136 C159.93419,1269.91045 160.100198,1269.965 160.293874,1269.965 C160.515217,1269.965 160.778063,1269.89682 161.054743,1269.74682 C161.345257,1269.59682 161.635771,1269.40591 161.940119,1269.16045 C162.244466,1268.915 162.562648,1268.64227 162.866996,1268.34227 C163.171344,1268.04227 163.475692,1267.72864 163.738538,1267.415 C164.001383,1267.10136 164.250395,1266.80136 164.444071,1266.515 C164.651581,1266.22864 164.803755,1265.98318 164.914427,1265.765 L165.715415,1263.22727 C165.817787,1262.95864 165.950593,1262.76636 166.120751,1262.65455 C166.286759,1262.54 166.456917,1262.48273 166.632609,1262.48273 C166.715613,1262.48273 166.802767,1262.49636 166.888538,1262.52364 C166.971542,1262.55091 167.051779,1262.59455 167.119565,1262.65455 C167.188735,1262.70909 167.239921,1262.79091 167.28004,1262.88636 C167.321542,1262.98182 167.349209,1263.09091 167.349209,1263.22727 C167.349209,1263.56818 167.321542,1263.89 167.266206,1264.18727 C167.21087,1264.48727 167.127866,1264.77364 167.031028,1265.06 C166.948024,1265.33955 166.837352,1265.62455 166.72668,1265.91227 C166.616008,1266.19864 166.505336,1266.49864 166.394664,1266.81227 L166.342095,1266.78909 Z M182.111672,1266.95927 C182.193405,1266.71213 182.268961,1266.46883 182.33834,1266.23 L182.532016,1265.69 C182.61502,1265.45818 182.711858,1265.22636 182.82253,1265.00818 C182.933202,1264.79 183.057708,1264.58545 183.196047,1264.42182 C183.334387,1264.25818 183.486561,1264.17227 183.638735,1264.17227 C183.887747,1264.17227 184.063439,1264.22682 184.172727,1264.33591 C184.283399,1264.45591 184.338735,1264.60864 184.338735,1264.82682 C184.338735,1264.86773 184.333202,1264.93591 184.320751,1265.03136 C184.306917,1265.12682 184.293083,1265.22227 184.270949,1265.32455 L184.211462,1265.61091 C184.197628,1265.70636 184.16996,1265.77455 184.156126,1265.81545 C184.37747,1265.57545 184.626482,1265.33818 184.886561,1265.09955 C185.149407,1264.86364 185.426087,1264.64955 185.702767,1264.45864 C185.979447,1264.26773 186.26996,1264.10409 186.560474,1263.98818 C186.850988,1263.86545 187.141502,1263.80409 187.432016,1263.80409 C187.639526,1263.80409 187.833202,1263.83136 188.035178,1263.88591 C188.228854,1263.94318 188.408696,1264.02636 188.56087,1264.13682 C188.722727,1264.24591 188.848617,1264.38227 188.945455,1264.54591 C189.042292,1264.70955 189.090711,1264.90455 189.090711,1265.12409 C189.090711,1265.41455 189.013241,1265.72409 188.869368,1266.05136 C188.717194,1266.38409 188.537352,1266.71955 188.307708,1267.04682 C188.086364,1267.38227 187.841502,1267.70682 187.58004,1268.02182 C187.317194,1268.33545 187.082016,1268.62182 186.846838,1268.88091 L186.26581,1269.54909 C186.113636,1269.72636 186.030632,1269.84909 186.027866,1269.91727 C186.027866,1269.99909 186.055534,1270.06727 186.11087,1270.12182 C186.166206,1270.17636 186.263043,1270.20364 186.387549,1270.20364 C186.495455,1270.20364 186.647628,1270.14227 186.844071,1270.02636 C187.048814,1269.90364 187.328261,1269.71273 187.687945,1269.43182 C188.047628,1269.14545 188.512451,1268.77727 189.067194,1268.3 C189.620553,1267.82818 190.312253,1267.23636 191.124308,1266.51773 L191.017787,1266.41818 C191.104941,1266.35955 191.183794,1266.31318 191.257115,1266.27773 C191.329051,1266.24227 191.399605,1266.22318 191.464625,1266.22318 C191.598814,1266.22318 191.699802,1266.28318 191.766206,1266.40045 C191.835375,1266.51773 191.876877,1266.65955 191.876877,1266.83136 C191.876877,1267.01545 191.835375,1267.20364 191.752372,1267.39455 C191.669368,1267.58545 191.558696,1267.74636 191.392688,1267.87182 C190.74249,1268.44045 190.161462,1268.95864 189.663439,1269.42636 C189.151581,1269.89409 188.681225,1270.29636 188.224704,1270.63318 C187.768182,1270.97409 187.325494,1271.23318 186.89664,1271.42409 C186.467787,1271.615 186.011265,1271.71045 185.513241,1271.71045 C185.056719,1271.71045 184.697036,1271.615 184.448024,1271.41045 C184.199012,1271.21955 184.074506,1270.94682 184.074506,1270.59227 L184.074506,1270.51045 C184.074506,1270.49682 184.08834,1270.45591 184.08834,1270.42864 C184.116008,1270.22409 184.212846,1269.97864 184.378854,1269.69227 C184.544862,1269.41955 184.738538,1269.13318 184.973715,1268.83318 C185.208893,1268.53318 185.457905,1268.23318 185.720751,1267.93318 C185.983597,1267.63318 186.218775,1267.34682 186.453953,1267.07409 C186.675296,1266.80136 186.855138,1266.55591 187.007312,1266.32409 C187.159486,1266.10591 187.228656,1265.915 187.228656,1265.77864 C187.228656,1265.69682 187.200988,1265.62864 187.142885,1265.57409 C187.077866,1265.53318 186.976877,1265.50591 186.838538,1265.50591 C186.589526,1265.50591 186.340514,1265.57409 186.083202,1265.69682 C185.820356,1265.81955 185.563043,1265.99682 185.308498,1266.20136 C185.059486,1266.41955 184.810474,1266.65136 184.57253,1266.92409 C184.334585,1267.19682 184.116008,1267.48318 183.894664,1267.76955 C183.687154,1268.06955 183.493478,1268.35591 183.313636,1268.65591 C183.147628,1268.95591 182.995455,1269.22864 182.870949,1269.47409 L182.718775,1269.80136 L182.511265,1270.29227 L182.262253,1270.83773 L182.027075,1271.36955 L181.833399,1271.81955 C181.778063,1271.95591 181.736561,1272.03773 181.708893,1272.09227 C181.681225,1272.16045 181.639723,1272.28318 181.570553,1272.46045 L181.321542,1273.085 L181.031028,1273.835 L180.754348,1274.57136 L180.51917,1275.19591 C180.45,1275.37318 180.408498,1275.49318 180.394664,1275.55727 C180.325494,1275.73455 180.256324,1275.91182 180.17332,1276.07545 C180.090316,1276.23909 180.000395,1276.37955 179.893874,1276.50364 C179.788735,1276.62636 179.666996,1276.72864 179.53004,1276.80364 C179.3917,1276.87182 179.239526,1276.91273 179.073518,1276.91273 C178.852174,1276.91273 178.672332,1276.85818 178.533992,1276.76 C178.395652,1276.66455 178.312648,1276.46 178.312648,1276.17364 C178.312648,1276.03727 178.326482,1275.88727 178.367984,1275.73727 C178.395652,1275.58727 178.450988,1275.44818 178.506324,1275.30091 C178.547826,1275.15091 178.616996,1275.01455 178.672332,1274.87818 C178.727668,1274.74182 178.783004,1274.60545 178.824506,1274.47455 C179.142688,1273.76545 179.481621,1273.05636 179.820553,1272.33909 C180.159486,1271.62182 180.484585,1270.92091 180.802767,1270.22545 C180.920497,1269.96358 181.034893,1269.70363 181.146175,1269.44489 C181.057657,1269.53167 180.968602,1269.61777 180.878854,1269.70318 C180.491502,1270.07136 180.090316,1270.41227 179.702964,1270.69864 C179.315613,1270.985 178.928261,1271.20318 178.540909,1271.38045 C178.153557,1271.54409 177.78004,1271.62591 177.420356,1271.62591 C177.171344,1271.62591 176.963834,1271.585 176.797826,1271.50318 C176.631818,1271.42136 176.507312,1271.31227 176.39664,1271.17591 C176.299802,1271.03955 176.230632,1270.87591 176.18913,1270.69864 C176.177799,1270.64651 176.168531,1270.59439 176.161043,1270.54199 C176.040957,1270.63505 175.919803,1270.72408 175.797628,1270.80909 C175.421344,1271.07091 175.050593,1271.28227 174.686759,1271.44182 C174.321542,1271.60136 173.995059,1271.68045 173.704545,1271.68045 C173.414032,1271.68045 173.174704,1271.585 172.992095,1271.39409 C172.809486,1271.20318 172.718182,1270.87591 172.718182,1270.41227 C172.718182,1270.085 172.767984,1269.70318 172.864822,1269.26682 C172.707115,1269.53955 172.509289,1269.82591 172.272727,1270.09864 C172.037549,1270.385 171.76502,1270.64409 171.462055,1270.87591 C171.157708,1271.10773 170.817391,1271.29864 170.441107,1271.435 C170.064822,1271.57136 169.655336,1271.65318 169.209881,1271.65318 C169.012055,1271.65318 168.818379,1271.62591 168.633004,1271.57136 C168.439328,1271.51682 168.27332,1271.435 168.13498,1271.31227 C167.99664,1271.18955 167.885968,1271.02591 167.78913,1270.82136 C167.706126,1270.61682 167.664625,1270.35773 167.664625,1270.05773 L167.692292,1269.73045 C167.71996,1269.52591 167.78913,1269.185 167.92747,1268.735 C168.06581,1268.285 168.259486,1267.69864 168.536166,1266.97591 C168.812846,1266.25318 169.186364,1265.39409 169.684387,1264.37136 C169.808893,1264.09864 169.947233,1263.90773 170.127075,1263.785 C170.293083,1263.66227 170.472925,1263.60773 170.666601,1263.60773 C170.749605,1263.60773 170.832609,1263.62136 170.929447,1263.64864 C171.012451,1263.66227 171.095455,1263.70318 171.178458,1263.75773 C171.261462,1263.81227 171.316798,1263.88045 171.372134,1263.96227 C171.413636,1264.03045 171.441304,1264.12591 171.441304,1264.235 C171.441304,1264.30318 171.42747,1264.37136 171.413636,1264.42591 C171.372134,1264.54864 171.316798,1264.69864 171.21996,1264.88955 L170.860277,1265.56318 C170.721937,1265.80864 170.583597,1266.08136 170.431423,1266.37045 C170.279249,1266.66091 170.140909,1266.97045 170.016403,1267.27318 C169.891897,1267.58682 169.781225,1267.90727 169.684387,1268.22773 C169.587549,1268.555 169.532213,1268.86864 169.518379,1269.16864 C169.518379,1269.305 169.546047,1269.41409 169.601383,1269.52318 C169.656719,1269.63227 169.767391,1269.68682 169.905731,1269.68682 C170.293083,1269.68682 170.680435,1269.56409 171.040119,1269.305 C171.399802,1269.05 171.731818,1268.73227 172.036166,1268.35318 C172.340514,1267.97136 172.617194,1267.56227 172.866206,1267.12591 C173.115217,1266.68955 173.308893,1266.29409 173.474901,1265.93409 C173.585573,1265.69273 173.696245,1265.43364 173.779249,1265.15682 C173.862253,1264.88409 173.959091,1264.625 174.069763,1264.39318 C174.166601,1264.16136 174.291107,1263.96227 174.429447,1263.80682 C174.553953,1263.65136 174.71996,1263.575 174.92747,1263.575 C175.13498,1263.575 175.314822,1263.65682 175.439328,1263.82045 C175.563834,1263.98409 175.633004,1264.175 175.633004,1264.40682 C175.633004,1264.52955 175.591502,1264.70682 175.508498,1264.925 C175.425494,1265.14318 175.328656,1265.40227 175.20415,1265.68864 L174.802964,1266.61182 C174.650791,1266.93909 174.526285,1267.26636 174.401779,1267.60727 C174.277273,1267.94136 174.166601,1268.27545 174.083597,1268.59455 C174.000593,1268.92182 173.959091,1269.22182 173.959091,1269.49455 C173.959091,1269.75364 174.097431,1269.87636 174.360277,1269.87636 C174.553953,1269.87636 174.78913,1269.82182 175.06581,1269.68545 C175.34249,1269.56273 175.633004,1269.38545 175.937352,1269.15364 C176.066706,1269.05511 176.196061,1268.94919 176.325416,1268.83588 C176.405305,1268.54353 176.488573,1268.27106 176.590316,1268.02591 C176.81166,1267.46682 177.01917,1266.92136 177.240514,1266.37591 L177.849209,1264.87591 L180.600791,1258.04545 C180.704545,1257.77273 180.849802,1257.57909 181.036561,1257.45909 C181.224704,1257.35 181.410079,1257.29545 181.599605,1257.29545 C181.793281,1257.29545 181.959289,1257.35 182.116996,1257.47273 C182.26917,1257.59 182.352174,1257.78636 182.352174,1258.055 C182.352174,1258.18182 182.324506,1258.31682 182.276087,1258.45864 C182.220751,1258.595 182.165415,1258.75045 182.082411,1258.91273 C181.930237,1259.24273 181.750395,1259.64909 181.542885,1260.13182 L180.851186,1261.71364 C180.616008,1262.27955 180.366996,1262.87273 180.117984,1263.48636 L179.370949,1265.28636 C179.121937,1265.87 178.900593,1266.41818 178.693083,1266.94182 L178.153557,1268.29591 L178.110672,1268.34091 C178.044269,1268.50455 177.979249,1268.69545 177.916996,1268.91091 C177.851976,1269.12636 177.820158,1269.32 177.820158,1269.49045 C177.820158,1269.59682 177.838142,1269.68136 177.875494,1269.74545 C177.911462,1269.80955 177.980632,1269.84091 178.083004,1269.84091 C178.21166,1269.84091 178.370751,1269.79727 178.563043,1269.70864 C178.753953,1269.62 178.960079,1269.50409 179.181423,1269.35682 C179.402767,1269.21227 179.635178,1269.04591 179.873123,1268.85773 C180.113834,1268.66682 180.353162,1268.46227 180.589723,1268.27136 C180.824901,1268.06682 181.051779,1267.86227 181.267589,1267.65773 C181.483399,1267.45318 181.677075,1267.26227 181.848617,1267.09864 C181.895652,1267.04409 181.952372,1267.01682 182.020158,1266.98955 C182.052712,1266.97618 182.083271,1266.96608 182.111672,1266.95927 Z" id="gulp" stroke="#FFFFFF" stroke-width="0.5" fill="#FFFFFF" fill-rule="nonzero"></path>
        </g>
    </g>
</svg>