<?xml version="1.0" encoding="UTF-8"?>
<svg width="35px" height="35px" viewBox="0 0 35 35" version="1.1" xmlns="http://www.w3.org/2000/svg" xmlns:xlink="http://www.w3.org/1999/xlink">
    <g id="About" stroke="none" stroke-width="1" fill="none" fill-rule="evenodd">
        <g id="Desktop-Copy-7" transform="translate(-701.000000, -1326.000000)">
            <path d="M732.827197,1326 C734.579451,1326 736,1327.42055 736,1329.1728 L736,1357.8272 C736,1359.57945 734.579451,1361 732.827197,1361 L704.172803,1361 C702.420549,1361 701,1359.57945 701,1357.8272 L701,1329.1728 C701,1327.42055 702.420549,1326 704.172803,1326 L732.827197,1326 Z M712.697027,1337.01201 C713.860511,1337.01201 714.835076,1336.10002 714.835076,1334.90485 C714.835076,1333.71047 713.860511,1332.79875 712.697027,1332.79875 C711.533542,1332.79875 710.55911,1333.71047 710.55911,1334.90485 C710.55911,1336.10002 711.533542,1337.01201 712.697027,1337.01201 Z M708.263693,1348.29407 C708.138144,1348.82862 708.075038,1349.40585 708.075038,1349.87676 C708.075038,1351.73216 709.081155,1352.96392 711.219337,1352.96392 C712.99267,1352.96392 714.430189,1351.91074 715.465208,1350.21045 L714.83322,1352.74703 L718.354432,1352.74703 L720.366932,1344.67528 C720.869924,1342.6315 721.844621,1341.57076 723.322576,1341.57076 C724.485928,1341.57076 725.209129,1342.29422 725.209129,1343.4886 C725.209129,1343.83475 725.177576,1344.21167 725.051894,1344.62053 L724.014091,1348.33066 C723.856856,1348.86521 723.79428,1349.40015 723.79428,1349.90275 C723.79428,1351.66415 724.831553,1352.95252 727.001155,1352.95252 C728.856288,1352.95252 730.333977,1351.75828 731.151572,1348.89689 L729.768277,1348.36275 C729.076364,1350.27979 728.478977,1350.62634 728.007405,1350.62634 C727.535701,1350.62634 727.284072,1350.31214 727.284072,1349.6836 C727.284072,1349.40068 727.347178,1349.08661 727.441307,1348.7085 L728.447689,1345.09383 C728.699053,1344.24508 728.79358,1343.49244 728.79358,1342.80093 C728.79358,1340.09691 727.15839,1338.68578 725.177576,1338.68578 C723.322576,1338.68578 721.43589,1340.35902 720.492879,1342.12002 L721.184394,1338.95915 L715.807917,1338.95915 L715.053163,1341.74324 L717.568655,1341.74324 L716.019773,1347.94487 C714.803258,1350.64888 712.568826,1350.69277 712.288428,1350.62992 C711.827992,1350.52612 711.533542,1350.35125 711.533542,1349.75294 C711.533542,1349.40771 711.596383,1348.91188 711.753617,1348.31396 L714.112008,1338.95915 L708.138144,1338.95915 L707.38339,1341.74324 L709.867197,1341.74324 L708.263693,1348.29407 Z" id="invision" fill="#FFFFFF" fill-rule="nonzero"></path>
        </g>
    </g>
</svg>