<?xml version="1.0" encoding="UTF-8"?>
<svg width="35px" height="35px" viewBox="0 0 35 35" version="1.1" xmlns="http://www.w3.org/2000/svg" xmlns:xlink="http://www.w3.org/1999/xlink">
    <g id="About" stroke="none" stroke-width="1" fill="none" fill-rule="evenodd">
        <g id="Desktop-Copy-7" transform="translate(-157.000000, -1091.000000)">
            <path d="M157,1091 L192,1091 L192,1126 L157,1126 L157,1091 Z M180.511111,1118.34389 L177.838333,1119.89667 C178.803889,1121.80444 180.777222,1123.26 183.831667,1123.26 C186.955556,1123.26 189.281667,1121.63778 189.281667,1118.67667 C189.281667,1115.93 187.703889,1114.70833 184.909444,1113.51 L184.087222,1113.15778 C182.676111,1112.54667 182.065,1112.14722 182.065,1111.16056 C182.065,1110.36222 182.675556,1109.75111 183.638889,1109.75111 C184.583333,1109.75111 185.191667,1110.14944 185.755556,1111.16056 L188.316667,1109.51611 C187.233333,1107.61056 185.73,1106.88278 183.638889,1106.88278 C180.701667,1106.88278 178.822222,1108.76056 178.822222,1111.22722 C178.822222,1113.905 180.398889,1115.17167 182.772222,1116.18278 L183.594444,1116.53556 C185.094444,1117.19167 185.988889,1117.59111 185.988889,1118.71889 C185.988889,1119.66 185.118333,1120.34111 183.755556,1120.34111 C182.133333,1120.34111 181.216111,1119.495 180.511111,1118.34389 Z M168.892778,1118.62889 L166.215556,1120.24972 C166.991111,1121.89111 168.516111,1123.25389 171.149444,1123.25389 C174.063889,1123.25389 176.060556,1121.70389 176.060556,1118.29833 L176.060556,1107.07056 L172.771667,1107.07056 L172.771667,1118.25389 C172.771667,1119.89778 172.09,1120.32056 171.009444,1120.32056 C169.879444,1120.32056 169.409444,1119.54556 168.892778,1118.62889 Z" id="js" fill="#FFFFFF" fill-rule="nonzero"></path>
        </g>
    </g>
</svg>