<?xml version="1.0" encoding="UTF-8"?>
<svg width="36px" height="35px" viewBox="0 0 36 35" version="1.1" xmlns="http://www.w3.org/2000/svg" xmlns:xlink="http://www.w3.org/1999/xlink">
    <g id="About" stroke="none" stroke-width="1" fill="none" fill-rule="evenodd">
        <g id="Desktop-Copy-7" transform="translate(-701.000000, -1405.000000)">
            <path d="M701,1439.99102 L736.953992,1439.99102 L736.953992,1405 L701,1405 L701,1439.99102 Z M702.497888,1438.49593 L702.497888,1406.4953 L735.455816,1406.4953 L735.455816,1438.49593 L702.497888,1438.49593 Z M710.032688,1413.05381 L710.032688,1429.45156 L719.167544,1429.45156 L719.786744,1426.62447 L713.360888,1426.62447 L713.360888,1413.05381 L710.032688,1413.05381 Z M721.36268,1416.83525 L721.36268,1429.45156 L724.690736,1429.45156 L724.690736,1421.13787 C726.470072,1419.45924 728.399024,1419.86566 728.399024,1419.86566 L728.399024,1416.86608 C728.399024,1416.55273 728.279936,1416.50199 728.076104,1416.50702 C727.635968,1416.51752 727.18676,1416.57055 726.77132,1416.71911 C725.405696,1417.20709 724.690736,1418.45186 724.690736,1418.45186 C724.58864,1417.81898 724.445288,1417.21967 724.035392,1416.83525 L721.36268,1416.83525 Z" id="lightroom" fill="#FFFFFF"></path>
        </g>
    </g>
</svg>