<?xml version="1.0" encoding="UTF-8"?>
<svg width="35px" height="35px" viewBox="0 0 35 35" version="1.1" xmlns="http://www.w3.org/2000/svg" xmlns:xlink="http://www.w3.org/1999/xlink">
    <g id="About" stroke="none" stroke-width="1" fill="none" fill-rule="evenodd">
        <g id="Desktop-Copy-7" transform="translate(-420.000000, -1170.000000)">
            <path d="M440.930874,1192.56323 L432.34699,1190.77643 C432.310349,1190.84616 432.270973,1190.91371 432.227222,1190.97745 L440.041641,1202.33233 L440.513055,1201.8633 L441.842529,1193.62823 C441.390256,1193.4392 441.050095,1193.04425 440.930874,1192.56323 Z M437.799419,1181.38594 C437.477851,1181.87731 436.922764,1182.20253 436.290567,1182.20253 C436.193222,1182.20253 436.098611,1182.19272 436.005641,1182.17801 L432.091048,1188.27927 L442.549649,1183.79594 C442.546368,1183.75399 442.537071,1183.71477 442.537071,1183.67173 C442.537071,1183.58403 442.549102,1183.49904 442.563321,1183.41515 L437.799419,1181.38594 Z M438.083798,1180.27409 L443.151221,1182.43241 C443.311458,1182.30766 443.494117,1182.21505 443.694823,1182.15894 L444.527727,1177.00011 L441.354709,1173.83944 L437.783012,1179.40629 C437.954187,1179.65797 438.060282,1179.95432 438.083798,1180.27409 Z M448.702089,1181.15823 L445.521961,1177.98993 L444.830701,1182.26735 C445.006797,1182.35615 445.163753,1182.47436 445.295005,1182.61926 L448.702089,1181.15823 Z M441.082907,1191.43668 C441.330646,1190.99052 441.78784,1190.68219 442.325427,1190.64079 L443.238722,1184.98241 C443.167081,1184.93502 443.103095,1184.87836 443.040204,1184.82008 L432.521446,1189.32956 C432.548243,1189.43906 432.566837,1189.55073 432.575587,1189.66677 L441.082907,1191.43668 Z M449.568353,1182.02167 L445.88892,1183.59873 L454.967187,1187.46486 L455,1187.43218 L449.568353,1182.02167 Z M442.993172,1193.64512 L441.887373,1200.49324 L448.308333,1194.09726 L443.683339,1193.13523 C443.506695,1193.36457 443.269895,1193.54216 442.993172,1193.64512 Z M430.512742,1191.88447 C430.280317,1191.88447 430.057735,1191.8447 429.849373,1191.77443 L427.716527,1195.09907 L426.892373,1194.27867 L428.912561,1191.12998 C428.862248,1191.06842 428.81631,1191.0036 428.773106,1190.93714 L425.113361,1192.50658 L424.246004,1191.64259 L428.251926,1189.92498 L421.009547,1188.41928 L420.019141,1187.43218 L420.332505,1187.12003 L428.683964,1188.85671 C428.780762,1188.67477 428.903811,1188.50753 429.048735,1188.36426 L424.995234,1182.4749 L425.813919,1181.6594 L430.048985,1187.81296 C430.198284,1187.77919 430.353052,1187.75903 430.512742,1187.75903 C430.691573,1187.75903 430.864935,1187.78409 431.030641,1187.82658 L434.993359,1181.65014 C434.682729,1181.32765 434.490773,1180.89075 434.490773,1180.40865 C434.490773,1180.26701 434.50882,1180.12973 434.539993,1179.9979 L429.596166,1177.89242 L430.463523,1177.02844 L435.14758,1179.02388 C435.458757,1178.76893 435.856888,1178.61585 436.291114,1178.61585 C436.496195,1178.61585 436.693073,1178.65181 436.877373,1178.715 L440.531102,1173.01904 L437.500273,1170 L420,1187.43218 L437.500273,1204.86436 L439.22241,1203.14892 L431.349474,1191.70797 C431.092986,1191.82073 430.810247,1191.88447 430.512742,1191.88447 Z M444.352724,1185.22646 L443.423569,1190.97854 C443.743496,1191.23566 443.956781,1191.61209 443.99725,1192.04245 L449.270848,1193.13904 L454.09983,1188.32885 L445.3836,1184.61688 C445.139143,1184.94047 444.773825,1185.16491 444.352724,1185.22646 Z" id="netlify" fill="#FFFFFF" fill-rule="nonzero"></path>
        </g>
    </g>
</svg>