<?xml version="1.0" encoding="UTF-8"?>
<svg width="31px" height="35px" viewBox="0 0 31 35" version="1.1" xmlns="http://www.w3.org/2000/svg" xmlns:xlink="http://www.w3.org/1999/xlink">
    <g id="About" stroke="none" stroke-width="1" fill="none" fill-rule="evenodd">
        <g id="Desktop-Copy-7" transform="translate(-703.000000, -1249.000000)">
            <path d="M718.5,1283.93506 C718.018633,1283.93506 717.569358,1283.80668 717.152174,1283.58202 L712.884058,1281.04654 C712.242236,1280.6935 712.563147,1280.56512 712.755693,1280.50093 C713.622153,1280.21208 713.782609,1280.14789 714.68116,1279.63437 C714.777433,1279.57018 714.905797,1279.60228 715.00207,1279.66647 L718.275362,1281.62424 C718.403727,1281.68843 718.564182,1281.68843 718.660456,1281.62424 L731.464803,1274.21037 C731.593168,1274.14618 731.65735,1274.0178 731.65735,1273.85733 L731.65735,1259.06168 C731.65735,1258.90121 731.593168,1258.77283 731.464803,1258.70864 L718.660456,1251.32686 C718.532091,1251.26267 718.371636,1251.26267 718.275362,1251.32686 L705.471014,1258.70864 C705.34265,1258.77283 705.278468,1258.9333 705.278468,1259.06168 L705.278468,1273.85733 C705.278468,1273.98571 705.34265,1274.14618 705.471014,1274.21037 L708.968944,1276.23234 C710.862319,1277.19518 712.049689,1276.07186 712.049689,1274.94855 L712.049689,1260.34547 C712.049689,1260.1529 712.210145,1259.96033 712.434783,1259.96033 L714.071429,1259.96033 C714.263975,1259.96033 714.456522,1260.12081 714.456522,1260.34547 L714.456522,1274.94855 C714.456522,1277.48403 713.076605,1278.96038 710.669772,1278.96038 C709.931677,1278.96038 709.354037,1278.96038 707.717391,1278.15802 L704.347826,1276.23234 C703.513458,1275.75092 703,1274.85226 703,1273.88942 L703,1259.09378 C703,1258.13094 703.513458,1257.23229 704.347826,1256.75087 L717.152174,1249.33699 C717.954451,1248.88767 719.045549,1248.88767 719.847826,1249.33699 L732.652174,1256.75087 C733.486542,1257.23229 734,1258.13094 734,1259.09378 L734,1273.88942 C734,1274.85226 733.486542,1275.75092 732.652174,1276.23234 L719.847826,1283.64621 C719.430642,1283.83877 718.949275,1283.93506 718.5,1283.93506 Z M722.447205,1273.76105 C716.831263,1273.76105 715.675983,1271.19347 715.675983,1269.01103 C715.675983,1268.81846 715.836439,1268.6259 716.061076,1268.6259 L717.729814,1268.6259 C717.92236,1268.6259 718.082816,1268.75428 718.082816,1268.94684 C718.339544,1270.64786 719.07764,1271.48232 722.479296,1271.48232 C725.174948,1271.48232 726.330228,1270.87252 726.330228,1269.42826 C726.330228,1268.5938 726.009317,1267.984 721.805383,1267.56677 C718.307453,1267.21373 716.125259,1266.44346 716.125259,1263.65122 C716.125259,1261.05155 718.307453,1259.51101 721.965839,1259.51101 C726.073499,1259.51101 728.095238,1260.92317 728.351967,1264.00426 C728.351967,1264.10055 728.319876,1264.19683 728.255694,1264.29311 C728.191511,1264.3573 728.095238,1264.42149 727.998965,1264.42149 L726.330228,1264.42149 C726.169772,1264.42149 726.009317,1264.29311 725.977226,1264.13264 C725.592133,1262.36743 724.597308,1261.78973 721.965839,1261.78973 C719.013457,1261.78973 718.660456,1262.81676 718.660456,1263.58703 C718.660456,1264.51778 719.07764,1264.80663 723.056936,1265.32014 C727.004141,1265.83366 728.865424,1266.57184 728.865424,1269.33198 C728.833333,1272.15631 726.522774,1273.76105 722.447205,1273.76105 Z" id="node" fill="#FFFFFF" fill-rule="nonzero"></path>
        </g>
    </g>
</svg>