<?xml version="1.0" encoding="UTF-8"?>
<svg width="36px" height="35px" viewBox="0 0 36 35" version="1.1" xmlns="http://www.w3.org/2000/svg" xmlns:xlink="http://www.w3.org/1999/xlink">
    <g id="About" stroke="none" stroke-width="1" fill="none" fill-rule="evenodd">
        <g id="Desktop-Copy-7" transform="translate(-423.000000, -1405.000000)">
            <path d="M424.5408,1406.52766 L457.4808,1406.52766 L457.4808,1438.44365 L424.5408,1438.44365 L424.5408,1406.52766 Z M423.0432,1439.93545 L458.9712,1439.93545 L458.9712,1405.03586 L423.0432,1405.03586 L423.0432,1439.93545 Z M447.2712,1419.35861 C446.0904,1419.35861 445.6872,1419.95389 445.6872,1420.44877 C445.6872,1420.98668 445.9536,1421.35963 447.5448,1422.17725 C449.892,1423.31045 450.6264,1424.40061 450.6264,1425.99283 C450.6264,1428.38115 448.7976,1429.66496 446.328,1429.66496 C445.0248,1429.66496 443.9016,1429.39959 443.2608,1429.02664 C443.1528,1428.98361 443.1384,1428.90471 443.1384,1428.78996 L443.1384,1426.58811 C443.1384,1426.4375 443.2104,1426.39447 443.3184,1426.46619 C444.2616,1427.07582 445.3416,1427.34836 446.328,1427.34836 C447.5088,1427.34836 448.0056,1426.85348 448.0056,1426.18648 C448.0056,1425.64857 447.66,1425.1752 446.148,1424.39344 C444.024,1423.38217 443.1384,1422.35656 443.1384,1420.63525 C443.1384,1418.71311 444.6504,1417.11373 447.2712,1417.11373 C448.56,1417.11373 449.46,1417.30738 449.9496,1417.52971 C450.072,1417.60143 450.1008,1417.72336 450.1008,1417.83094 L450.1008,1419.875 C450.1008,1419.99693 450.0288,1420.06865 449.8776,1420.02561 C449.2152,1419.60963 448.2432,1419.35861 447.2712,1419.35861 Z M434.3976,1421.13012 C434.7432,1421.15881 435.0096,1421.15881 435.6072,1421.15881 C437.3568,1421.15881 439.0056,1420.54918 439.0056,1418.1752 C439.0056,1416.28176 437.8248,1415.32787 435.8304,1415.32787 C435.2328,1415.32787 434.664,1415.35656 434.3904,1415.3709 L434.3976,1421.13012 Z M431.7264,1413.21209 C431.7264,1413.10451 431.9352,1413.03279 432.0576,1413.03279 C433.0152,1412.98975 434.4408,1412.96107 435.9168,1412.96107 C440.064,1412.96107 441.684,1415.22746 441.684,1418.11783 C441.684,1421.90471 438.9264,1423.53279 435.5424,1423.53279 C434.9736,1423.53279 434.7792,1423.5041 434.376,1423.5041 L434.376,1429.22746 C434.376,1429.34939 434.3328,1429.40676 434.196,1429.40676 L431.9064,1429.40676 C431.784,1429.40676 431.7264,1429.36373 431.7264,1429.22746 L431.7264,1413.21209 Z" id="photoshop" fill="#FFFFFF" fill-rule="nonzero"></path>
        </g>
    </g>
</svg>