<?xml version="1.0" encoding="UTF-8"?>
<svg width="35px" height="35px" viewBox="0 0 35 35" version="1.1" xmlns="http://www.w3.org/2000/svg" xmlns:xlink="http://www.w3.org/1999/xlink">
    <g id="About" stroke="none" stroke-width="1" fill="none" fill-rule="evenodd">
        <g id="Desktop-Copy-7" transform="translate(-420.000000, -1326.000000)">
            <path d="M454.986545,1342.55628 C454.974787,1342.10729 454.951135,1341.64655 454.927482,1341.19757 C454.90383,1340.73669 454.892072,1340.27595 454.844768,1339.8152 C454.762053,1339.18889 454.679338,1338.55096 454.537561,1337.93655 C454.431193,1337.4285 454.254006,1336.94411 454.076818,1336.45971 C453.852326,1335.89247 453.627834,1335.3136 453.344279,1334.77014 C452.8834,1333.89583 452.280881,1333.11598 451.725529,1332.30073 C451.35926,1331.78079 450.88676,1331.35546 450.532248,1330.82389 C450.331408,1330.51669 450.035959,1330.25665 449.740647,1330.0204 C449.26801,1329.64237 448.771721,1329.29962 448.275568,1328.96889 C447.897404,1328.70886 447.519377,1328.46085 447.117697,1328.23636 C446.798596,1328.05903 446.455979,1327.91725 446.125119,1327.76372 C445.747092,1327.58639 445.380822,1327.3738 444.95549,1327.29108 C444.849123,1327.26743 444.75465,1327.23202 444.648283,1327.19661 C444.376486,1327.102 444.116584,1326.99577 443.844787,1326.91305 C443.43135,1326.78304 443.02967,1326.62936 442.604201,1326.52313 C442.190764,1326.41677 441.765432,1326.34581 441.3401,1326.28675 C440.867463,1326.21593 440.383068,1326.19227 439.910432,1326.14497 C439.603225,1326.10956 439.296018,1326.07415 439.000568,1326.06225 C438.551721,1326.03874 438.090842,1326.03874 437.641857,1326.02684 C437.417365,1326.01509 437.181115,1325.99143 436.956623,1326.00319 C436.614006,1326.01509 436.271389,1326.0505 435.928635,1326.0978 C435.597912,1326.13321 435.267053,1326.19227 434.947951,1326.23958 C434.558166,1326.28675 434.168244,1326.3104 433.778322,1326.3577 C433.412053,1326.40501 433.034025,1326.47583 432.667756,1326.53489 C432.537736,1326.55854 432.407717,1326.60585 432.277834,1326.62936 C431.994279,1326.68856 431.69883,1326.71221 431.415275,1326.80669 C430.907229,1326.96022 430.399182,1327.13755 429.902893,1327.32649 C429.44215,1327.51557 428.993166,1327.71641 428.556076,1327.9528 C428.107092,1328.20081 427.68176,1328.49626 427.256291,1328.77981 C426.854611,1329.05147 426.452932,1329.33516 426.06301,1329.64237 C425.684982,1329.93768 425.330471,1330.26854 424.987854,1330.5994 C424.798772,1330.78835 424.645236,1331.01284 424.467912,1331.22557 C424.1726,1331.56819 423.87715,1331.89905 423.593596,1332.25343 C423.357346,1332.54888 423.144611,1332.85608 422.920256,1333.16329 C422.51844,1333.70675 422.175822,1334.28561 421.856857,1334.86462 C421.726838,1335.10087 421.608713,1335.33725 421.490588,1335.5735 C421.313264,1335.92802 421.124318,1336.27063 420.958889,1336.6369 C420.840764,1336.88505 420.746154,1337.15671 420.675334,1337.4285 C420.509904,1338.00737 420.344475,1338.59813 420.19094,1339.17714 C420.049162,1339.69694 420.013615,1340.24054 420.001857,1340.77223 C419.989963,1341.24473 420.037268,1341.70561 420.084572,1342.17825 C420.09633,1342.29638 420.02551,1342.43815 420.167287,1342.53263 C420.179045,1342.53263 420.167287,1342.57993 420.155393,1342.59169 C420.119982,1342.66264 420.155393,1342.73346 420.22635,1342.75712 C420.22635,1342.75712 420.238107,1342.76901 420.238107,1342.78077 L420.179045,1342.78077 C420.143635,1342.88714 420.26176,1342.96985 420.214455,1343.08798 C420.202697,1343.11163 420.250002,1343.1588 420.273518,1343.19434 C420.273518,1343.22975 420.26176,1343.27706 420.273518,1343.31247 C420.285412,1343.41884 420.332717,1343.52507 420.332717,1343.64333 C420.332717,1343.72604 420.403537,1343.82052 420.42719,1343.90323 C420.438947,1343.93864 420.42719,1343.9977 420.403537,1344.02136 C420.332717,1344.10407 420.344475,1344.17503 420.450842,1344.2222 C420.474494,1344.23409 420.509904,1344.28126 420.509904,1344.30491 C420.509904,1344.37587 420.486252,1344.44669 420.474494,1344.51764 C420.49801,1344.5413 420.509904,1344.56481 420.49801,1344.58846 C420.49801,1344.62388 420.4626,1344.65942 420.474494,1344.68307 C420.568967,1344.87202 420.604377,1345.08475 420.616272,1345.29735 C420.616272,1345.34466 420.639924,1345.39196 420.66344,1345.45102 C420.675334,1345.45102 420.710744,1345.45102 420.734397,1345.46278 L420.66344,1345.67552 C420.722502,1345.63997 420.769807,1345.62821 420.828869,1345.60456 C420.864279,1345.75823 420.899826,1345.90001 420.946994,1346.02989 C420.958889,1346.05354 420.982541,1346.0772 421.017951,1346.10085 C421.006057,1346.1245 421.006057,1346.17167 420.982541,1346.18356 C421.029709,1346.39616 421.053361,1346.59714 421.136076,1346.79798 C421.147971,1346.79798 421.159729,1346.78608 421.171486,1346.78608 C421.136076,1346.57348 421.112424,1346.34899 421.077014,1346.13626 L421.077014,1346.06544 C421.077014,1346.06544 421.100666,1346.05354 421.112424,1346.05354 C421.124318,1346.10085 421.147971,1346.15991 421.147971,1346.19532 C421.242443,1346.19532 421.384221,1346.25438 421.478693,1346.25438 C421.490588,1346.21897 421.502346,1346.17167 421.51424,1346.14815 C421.443283,1346.0772 421.384221,1345.97083 421.313264,1345.90001 C421.336916,1345.99448 421.313264,1346.02989 421.313264,1346.06544 C421.266096,1346.04179 421.207033,1346.01813 421.147971,1345.99448 C421.195139,1345.93542 421.242443,1345.87636 421.313264,1345.8054 C421.313264,1345.69917 421.254201,1345.60456 421.088772,1345.61645 C421.159729,1345.5928 421.230686,1345.55739 421.313264,1345.53374 C421.325158,1345.56915 421.336916,1345.60456 421.348811,1345.62821 C421.443283,1345.46278 421.301506,1345.3329 421.301506,1345.16747 C421.313264,1344.96663 421.195139,1344.76579 421.159729,1344.55305 C421.100666,1344.2222 421.112424,1343.72604 421.077014,1343.39518 C421.077014,1343.37153 421.041604,1343.34788 421.017951,1343.32423 C421.006057,1343.33612 420.946994,1343.48966 420.935236,1343.50155 C420.970647,1343.78511 421.006057,1344.06866 421.029709,1344.35221 C421.017951,1344.35221 421.006057,1344.35221 421.006057,1344.36397 C420.958889,1344.11583 420.911584,1343.85593 420.852522,1343.57237 C420.840764,1343.65509 420.828869,1343.6905 420.828869,1343.7378 C420.793459,1343.72604 420.781701,1343.71415 420.722502,1343.6905 C420.769807,1343.79686 420.817111,1343.86782 420.852522,1343.95054 C420.769807,1343.91499 420.675334,1343.92688 420.675334,1343.92688 L420.675334,1344.25761 C420.557209,1344.13948 420.521662,1344.04501 420.4626,1343.96229 C420.438947,1343.86782 420.42719,1343.77321 420.403537,1343.67874 L420.438947,1343.66684 C420.42719,1343.61968 420.403537,1343.58413 420.403537,1343.54872 C420.391779,1343.466 420.379885,1343.37153 420.368127,1343.26516 C420.379885,1343.25341 420.42719,1343.24151 420.450842,1343.218 L420.356232,1343.07622 C420.450842,1343.08798 420.509904,1343.09973 420.568967,1343.09973 C420.568967,1343.07622 420.580725,1343.06432 420.568967,1343.05257 C420.450842,1342.9462 420.533557,1342.85159 420.580725,1342.75712 C420.604377,1342.70981 420.687092,1342.69805 420.710744,1342.65075 C420.805217,1342.47356 420.958889,1342.33179 420.958889,1342.10729 C420.958889,1342.00093 420.994299,1341.8828 421.006057,1341.77643 C421.029709,1341.57559 421.053361,1341.37475 421.065256,1341.17391 C421.088772,1340.91401 421.065256,1340.65397 421.124318,1340.40596 C421.218791,1339.99239 421.336916,1339.57882 421.466936,1339.16538 C421.561408,1338.86993 421.667775,1338.58638 421.7859,1338.29106 C421.963225,1337.83018 422.128518,1337.36944 422.35301,1336.93221 C422.672111,1336.29429 423.038381,1335.67987 423.392756,1335.0537 C423.617248,1334.66378 423.853635,1334.29751 424.101643,1333.91934 C424.338029,1333.55307 424.574279,1333.17505 424.846076,1332.83243 C425.224104,1332.34804 425.637678,1331.89905 426.09842,1331.49723 C426.571057,1331.0719 427.020041,1330.63481 427.528088,1330.24489 C428.189807,1329.73684 428.886799,1329.28786 429.631232,1328.89794 C430.233752,1328.57897 430.859924,1328.33083 431.486232,1328.09444 C431.887912,1327.94091 432.325002,1327.87009 432.738576,1327.74007 C433.211213,1327.58639 433.68385,1327.51557 434.180002,1327.50368 C434.499104,1327.49192 434.806311,1327.45651 435.125275,1327.4211 C435.40883,1327.39745 435.692385,1327.3738 435.999592,1327.33839 C435.964182,1327.38555 435.952287,1327.40921 435.940529,1327.43286 C435.81051,1327.62194 435.668732,1327.81089 435.53885,1327.99997 C435.432482,1328.15364 435.314357,1328.31893 435.20799,1328.47261 C435.018908,1328.72075 434.818068,1328.96889 434.640881,1329.2288 C434.369084,1329.61872 434.120939,1330.0204 433.837385,1330.41032 C433.55383,1330.78835 433.246623,1331.14286 432.951311,1331.50913 C432.561389,1332.01718 432.195119,1332.53698 431.805197,1333.04503 C431.450686,1333.52956 431.072658,1333.9903 430.730041,1334.4747 C430.422834,1334.90003 430.151037,1335.34901 429.855725,1335.78624 C429.418498,1336.43606 428.981408,1337.07399 428.544182,1337.72382 C428.201565,1338.22011 427.858947,1338.7045 427.504436,1339.20079 C427.480783,1339.2362 427.445373,1339.24809 427.409963,1339.27161 C427.386311,1339.29526 427.339006,1339.31891 427.339006,1339.34257 C427.31549,1339.42528 427.31549,1339.508 427.279943,1339.57882 C427.185471,1339.75614 427.090998,1339.93333 426.984631,1340.09876 C426.925568,1340.19323 426.842854,1340.27595 426.771897,1340.37042 C426.748244,1340.35866 426.736486,1340.3469 426.712834,1340.3469 C426.760139,1340.22864 426.960979,1340.15782 426.866506,1339.98063 C426.807443,1340.07511 426.748244,1340.15782 426.689182,1340.25229 L426.547404,1340.53585 C426.594709,1340.57139 426.677424,1340.59491 426.594709,1340.66587 C426.559299,1340.72493 426.523752,1340.79575 426.488342,1340.85495 C426.500236,1340.85495 426.500236,1340.86671 426.511994,1340.86671 C426.547404,1340.8194 426.582951,1340.78399 426.618361,1340.73669 C426.630119,1340.73669 426.642014,1340.74858 426.653772,1340.74858 C426.618361,1340.86671 426.547404,1340.97307 426.488342,1341.07944 C426.441037,1341.17391 426.322912,1341.24473 426.240197,1341.31569 C426.252092,1341.32745 426.334807,1341.363 426.346565,1341.37475 C426.381975,1341.32745 426.393869,1341.3511 426.429279,1341.30393 C426.452932,1341.33934 426.488342,1341.28028 426.500236,1341.31569 C426.535647,1341.26839 426.571057,1341.23298 426.582951,1341.19757 C426.630119,1341.07944 426.701076,1340.98483 426.819201,1340.93766 C426.866506,1340.91401 426.901916,1340.87846 426.937326,1340.84305 C427.291838,1340.47679 427.658107,1340.12241 427.977072,1339.73249 C428.473361,1339.12983 428.922346,1338.50366 429.394846,1337.88925 C429.595822,1337.62934 429.832072,1337.36944 430.04467,1337.1213 C430.068322,1337.13319 430.091975,1337.13319 430.103869,1337.14495 C430.080217,1337.39309 430.056565,1337.653 430.04467,1337.90114 C430.00926,1338.33823 429.985607,1338.77546 429.950197,1339.22444 C429.93844,1339.40163 429.950197,1339.57882 429.93844,1339.75614 C429.93844,1339.80331 429.902893,1339.83872 429.902893,1339.88602 C429.902893,1340.00415 429.93844,1340.13417 429.93844,1340.25229 C429.902893,1340.68952 429.855725,1341.11485 429.820178,1341.55194 C429.80842,1341.64655 429.855725,1341.74102 429.879377,1341.82374 C429.867482,1341.81198 429.855725,1341.80009 429.820178,1341.77643 C429.820178,1342.4618 429.950197,1343.13528 429.84383,1343.80876 C429.891135,1343.79686 429.914787,1343.78511 429.914787,1343.76145 C429.926545,1343.67874 429.950197,1343.59602 429.950197,1343.51331 C429.962092,1343.44249 429.950197,1343.37153 429.950197,1343.28882 L429.950197,1343.17069 C429.962092,1342.95796 430.00926,1342.73346 429.985607,1342.52087 C429.962092,1342.28448 429.962092,1342.05999 430.00926,1341.8355 C430.032912,1341.74102 429.997502,1341.6229 430.056565,1341.50477 L430.056565,1341.68196 C430.04467,1342.35544 430.068322,1343.02891 429.97385,1343.70239 C429.962092,1343.76145 430.00926,1343.86782 429.879377,1343.85593 C429.867482,1343.85593 429.855725,1343.91499 429.832072,1343.95054 C429.77301,1344.06866 429.902893,1344.2222 429.784768,1344.34032 C429.761115,1344.36397 429.80842,1344.47034 429.820178,1344.5413 C429.820178,1344.56481 429.832072,1344.58846 429.820178,1344.60036 C429.77301,1344.68307 429.77301,1344.68307 429.84383,1344.69483 C429.855725,1344.95473 429.879377,1345.19112 429.891135,1345.43913 L429.926545,1345.43913 C430.080217,1344.99014 429.985607,1344.5294 430.068322,1344.06866 C430.080217,1344.25761 430.091975,1344.44669 430.080217,1344.64753 C430.080217,1344.95473 430.068322,1345.25018 430.056565,1345.55739 C430.056565,1345.61645 430.04467,1345.67552 430.032912,1345.73458 C429.997502,1345.90001 429.985607,1346.06544 429.926545,1346.21897 C429.879377,1346.3371 429.902893,1346.51442 429.902893,1346.6562 L429.902893,1347.10505 C429.902893,1347.11694 429.93844,1347.15235 429.93844,1347.19966 C429.950197,1347.30602 429.891135,1347.41239 429.926545,1347.53052 C429.93844,1347.55417 429.914787,1347.58958 429.902893,1347.61323 C429.891135,1347.64864 429.879377,1347.68405 429.891135,1347.71946 L429.926545,1347.89679 C429.926545,1347.90854 429.93844,1347.92044 429.950197,1347.94395 C429.962092,1347.89679 429.962092,1347.86124 429.962092,1347.84948 C430.162932,1347.87313 430.056565,1348.05032 430.151037,1348.14493 C430.103869,1348.16845 430.068322,1348.18034 430.068322,1348.1921 C430.080217,1348.2394 430.103869,1348.27481 430.103869,1348.32212 C430.103869,1348.42835 430.091975,1348.52296 430.080217,1348.62932 C430.080217,1348.90098 430.068322,1349.17278 430.068322,1349.43268 C430.068322,1349.46809 430.080217,1349.50364 430.080217,1349.53905 C430.080217,1349.5627 430.068322,1349.58636 430.068322,1349.62177 L430.068322,1349.86991 L430.115627,1349.86991 C430.091975,1349.90532 430.068322,1349.94073 430.032912,1349.97614 C430.021154,1349.97614 429.985607,1349.97614 429.985607,1349.96438 L429.985607,1348.47565 L429.80842,1348.47565 C429.784768,1349.18454 429.84383,1349.82261 429.713947,1350.48419 C429.57217,1350.49608 429.524865,1350.51973 429.37133,1350.51973 C429.005061,1350.51973 428.638791,1350.51973 428.272522,1350.53149 C427.835295,1350.53149 427.409963,1350.54339 426.972736,1350.54339 C426.760139,1350.54339 426.535647,1350.5669 426.322912,1350.5669 C426.039357,1350.5669 425.744045,1350.53149 425.46049,1350.53149 C425.023264,1350.53149 424.597932,1350.5669 424.160842,1350.5788 C423.84174,1350.59055 423.522775,1350.59055 423.203811,1350.60245 C422.991076,1350.61421 422.778342,1350.6261 422.565744,1350.64962 C422.471272,1350.66151 422.388557,1350.69692 422.270295,1350.73233 C422.234885,1350.73233 422.15217,1350.72057 422.08135,1350.73233 C421.963225,1350.75598 421.856857,1350.82694 421.738732,1350.85046 C421.561408,1350.886 421.51424,1350.93317 421.537756,1351.1105 L421.537756,1351.22862 C421.51424,1351.20497 421.478693,1351.18132 421.455041,1351.16956 C421.443283,1351.16956 421.431525,1351.18132 421.431525,1351.18132 C421.443283,1351.21673 421.466936,1351.24038 421.478693,1351.27593 C421.525998,1351.25227 421.585061,1351.19321 421.632365,1351.19321 L421.797795,1351.19321 C421.774143,1351.19321 421.762248,1351.26403 421.726838,1351.32309 C421.821311,1351.28768 421.88051,1351.26403 421.939572,1351.24038 C421.95133,1351.27593 421.95133,1351.32309 421.95133,1351.33499 C422.11676,1351.32309 422.270295,1351.27593 422.412072,1351.31134 C422.872951,1351.42946 423.345588,1351.47677 423.818088,1351.52393 C424.125295,1351.54759 424.420744,1351.55948 424.727951,1351.57124 C425.165041,1351.59489 425.602268,1351.61854 426.039357,1351.61854 C426.405627,1351.61854 426.760139,1351.58313 427.126408,1351.58313 C427.634455,1351.58313 428.142502,1351.60665 428.650549,1351.61854 C428.756916,1351.61854 428.875041,1351.60665 428.993166,1351.60665 L429.855725,1351.60665 C430.623674,1351.58313 431.391623,1351.57124 432.159709,1351.54759 C432.596799,1351.53583 433.045783,1351.51218 433.48301,1351.50042 L434.829826,1351.46487 C435.349768,1351.45311 435.869572,1351.45311 436.377619,1351.44122 C436.767541,1351.44122 437.145705,1351.42946 437.53549,1351.4177 C437.972717,1351.40581 438.421701,1351.3704 438.858791,1351.34675 C439.095178,1351.33499 439.331428,1351.31134 439.567814,1351.28768 C439.851369,1351.26403 440.146682,1351.22862 440.430236,1351.21673 C440.855568,1351.19321 441.292795,1351.18132 441.718127,1351.15766 C442.249826,1351.12225 442.781525,1351.07495 443.324982,1351.06319 C443.821272,1351.03954 444.329318,1351.05143 444.825471,1351.03954 C445.262697,1351.02778 445.699787,1351.00413 446.148772,1350.99237 L446.893205,1350.95682 C446.893205,1350.95682 447.389357,1350.94507 447.637502,1350.92141 C448.062834,1350.89776 448.488166,1350.85046 448.913498,1350.8387 C449.185295,1350.82694 449.457092,1350.8387 449.728752,1350.82694 C450.165979,1350.81505 450.614963,1350.79139 451.052053,1350.79139 C451.217482,1350.79139 451.394807,1350.81505 451.607404,1350.82694 C451.512932,1350.90966 451.453869,1350.95682 451.382912,1351.01589 C451.430217,1351.02778 451.477385,1351.05143 451.524689,1351.07495 C451.524689,1351.08684 451.512932,1351.0986 451.512932,1351.12225 C451.453869,1351.12225 451.394807,1351.13415 451.335607,1351.13415 C451.312092,1351.19321 451.288439,1351.21673 451.264787,1351.33499 L451.477385,1351.33499 C451.394807,1351.33499 451.32385,1351.44122 451.241135,1351.51218 C451.253029,1351.52393 451.264787,1351.52393 451.276545,1351.53583 C451.146662,1351.48852 451.063947,1351.51218 451.016643,1351.6422 C451.052053,1351.65395 451.075705,1351.65395 451.111115,1351.65395 C451.099357,1351.68936 451.0876,1351.72491 451.075705,1351.77208 C451.063947,1351.79573 451.052053,1351.81938 451.052053,1351.85479 L451.016643,1351.81938 C451.016643,1351.79573 451.016643,1351.77208 451.004885,1351.74843 C450.933928,1351.81938 450.827561,1351.86669 450.886623,1352.02022 C450.839455,1352.04388 450.780393,1352.06753 450.72133,1352.10294 C450.733088,1352.12659 450.75674,1352.15024 450.768498,1352.18565 C450.662268,1352.19741 450.5559,1352.22106 450.579553,1352.35108 C450.626721,1352.36284 450.674025,1352.38649 450.709436,1352.39825 C450.650373,1352.4219 450.591311,1352.45731 450.532248,1352.48096 C450.520354,1352.50462 450.508596,1352.56368 450.484943,1352.57557 C450.319514,1352.61098 450.414123,1352.67005 450.461291,1352.72911 C450.425881,1352.75276 450.390471,1352.77641 450.355061,1352.78817 C450.390471,1352.80007 450.414123,1352.81182 450.437775,1352.83548 C450.402229,1352.85913 450.378576,1352.87089 450.355061,1352.88278 C450.378576,1352.89454 450.414123,1352.91819 450.425881,1352.91819 C450.378576,1352.9536 450.319514,1353.00091 450.248693,1353.05997 C450.248693,1353.08362 450.248693,1353.09538 450.260451,1353.11903 C450.213283,1353.16634 450.165979,1353.2135 450.118674,1353.28446 C450.071506,1353.35528 450.047854,1353.44989 449.988791,1353.52071 C449.740647,1353.79251 449.563322,1354.11147 449.244357,1354.32421 C449.126232,1354.40692 449.019865,1354.51315 448.913498,1354.61952 C448.7009,1354.82036 448.511818,1355.04485 448.287326,1355.23393 C447.992014,1355.48208 447.684807,1355.70657 447.365705,1355.93106 C446.97592,1356.20272 446.585998,1356.47452 446.196076,1356.73442 C445.983342,1356.8762 445.747092,1356.98257 445.5226,1357.11259 C445.298107,1357.24247 445.08551,1357.36073 444.860881,1357.49061 C444.719104,1357.58522 444.589221,1357.71511 444.435549,1357.78606 C444.045627,1357.95149 443.632189,1358.09327 443.23051,1358.2468 C443.194963,1358.25856 443.171447,1358.27046 443.1359,1358.28221 C442.840588,1358.41223 442.557033,1358.55401 442.261584,1358.66038 C441.989787,1358.75485 441.706369,1358.82581 441.422678,1358.88487 C441.328205,1358.90852 441.221838,1358.88487 441.115607,1358.89663 C440.914631,1358.93204 440.713791,1358.97934 440.512951,1359.003 C439.993147,1359.07395 439.473205,1359.12112 438.9534,1359.19208 C438.646193,1359.22749 438.350744,1359.28655 438.043537,1359.32196 C437.830939,1359.33386 437.606447,1359.3102 437.393713,1359.3102 C437.240178,1359.3102 437.074748,1359.34561 436.921076,1359.32196 C436.673068,1359.28655 436.424924,1359.22749 436.176779,1359.18018 C436.117717,1359.16843 436.035002,1359.14477 435.987697,1359.16843 C435.893225,1359.21559 435.81051,1359.14477 435.716037,1359.16843 C435.656975,1359.18018 435.597912,1359.13302 435.538713,1359.13302 C435.491545,1359.12112 435.432482,1359.14477 435.37342,1359.13302 C435.2434,1359.09747 435.125275,1359.0503 434.983498,1359.06206 C434.841721,1359.07395 434.699943,1359.003 434.546272,1358.96759 C434.333674,1358.92028 434.132834,1358.87298 433.9201,1358.82581 C433.837385,1358.80216 433.766564,1358.76675 433.68385,1358.71944 C433.660197,1358.7312 433.62465,1358.75485 433.577482,1358.75485 C433.376643,1358.71944 433.175803,1358.70768 432.986721,1358.63673 C432.821291,1358.57766 432.667756,1358.49495 432.490432,1358.5186 C432.443264,1358.53036 432.407717,1358.50671 432.360549,1358.50671 C432.325002,1358.45954 432.289592,1358.36493 432.254182,1358.36493 C432.017795,1358.37682 431.876018,1358.17598 431.675178,1358.11692 C431.568811,1358.08138 431.486232,1357.96325 431.379865,1357.92784 C431.119963,1357.82147 430.907229,1357.59698 430.611916,1357.56157 C430.517307,1357.54968 430.422834,1357.50251 430.316467,1357.46696 C430.351877,1357.51427 430.375529,1357.54968 430.41094,1357.58522 L430.387287,1357.60874 C430.068322,1357.41979 429.749357,1357.23071 429.430393,1357.05352 C429.383088,1357.04163 429.347678,1356.99446 429.312131,1356.97081 L428.993166,1356.75807 C428.957756,1356.73442 428.886799,1356.69901 428.886799,1356.71077 C428.815979,1356.79362 428.745022,1356.72266 428.697854,1356.69901 C428.378752,1356.47452 428.012482,1356.33274 427.705275,1356.0846 C427.575393,1355.97837 427.421721,1355.90741 427.327248,1355.77739 C427.161818,1355.57655 426.960979,1355.43477 426.736486,1355.31665 C426.559299,1355.22218 426.393869,1355.11581 426.22844,1355.00944 C426.145725,1354.95038 426.06301,1354.87956 426.06301,1354.74954 C426.06301,1354.66682 426.0276,1354.58411 425.921232,1354.63141 C425.873928,1354.56046 425.82676,1354.47774 425.767697,1354.45409 C425.62592,1354.39503 425.531311,1354.2888 425.424943,1354.19419 C425.318713,1354.09971 425.235998,1353.9697 425.105979,1353.92253 C424.869729,1353.82792 424.727951,1353.62708 424.586174,1353.46165 C424.255315,1353.07173 423.959865,1352.64639 423.652658,1352.23282 C423.629143,1352.19741 423.581838,1352.17376 423.546428,1352.13835 L423.534533,1352.15024 C423.593596,1352.26837 423.652658,1352.37473 423.711857,1352.49286 C423.699963,1352.50462 423.676311,1352.51651 423.664553,1352.52827 C423.593596,1352.44555 423.510881,1352.36284 423.440061,1352.28013 C423.428166,1352.29202 423.416408,1352.30378 423.40465,1352.30378 L424.255315,1353.65073 C424.326135,1353.7571 424.385197,1353.86333 424.456154,1353.9697 C424.444397,1353.98159 424.432502,1353.99335 424.40885,1354.00511 C424.278967,1353.98159 424.160842,1353.88698 424.101643,1353.78061 C423.995412,1353.59167 423.87715,1353.47354 423.6409,1353.49706 C423.617248,1353.41434 423.593596,1353.31987 423.581838,1353.23716 C423.534533,1353.23716 423.499123,1353.23716 423.416408,1353.2254 C423.581838,1353.4853 423.723615,1353.70979 423.87715,1353.9697 C423.818088,1353.93429 423.782678,1353.91063 423.759025,1353.89888 C423.97176,1354.12337 424.125295,1354.40692 424.397092,1354.5487 C424.456154,1354.82036 424.763361,1354.95038 424.834182,1355.21028 C424.775119,1355.19852 424.727951,1355.18663 424.668889,1355.17487 C424.574279,1355.05675 424.467912,1354.93862 424.361682,1354.8086 C424.385197,1354.89132 424.420744,1354.96214 424.467912,1355.02134 C424.60969,1355.19852 424.739709,1355.37571 424.905139,1355.52938 C424.964201,1355.58845 425.046916,1355.6121 425.046916,1355.71833 C425.070568,1355.69468 425.094221,1355.68292 425.141389,1355.65927 C425.117736,1355.70657 425.105979,1355.73022 425.094221,1355.76563 C425.141389,1355.76563 425.176936,1355.77739 425.212346,1355.77739 C425.235998,1355.84835 425.200451,1355.95471 425.342229,1355.93106 C425.354123,1355.93106 425.365881,1355.94282 425.377775,1355.95471 C425.436838,1356.10825 425.531311,1356.10825 425.66133,1356.04919 C425.684982,1356.03743 425.744045,1356.04919 425.755803,1356.07284 C425.814865,1356.20272 425.89758,1356.21462 426.003947,1356.12014 C426.003947,1356.17921 426.015705,1356.23827 426.015705,1356.28544 L426.06301,1356.28544 C426.06301,1356.26192 426.051252,1356.22638 426.051252,1356.16731 C426.110315,1356.21462 426.145725,1356.23827 426.169377,1356.26192 C426.287502,1356.42721 426.393869,1356.58089 426.559299,1356.71077 C426.783791,1356.89985 426.984631,1357.10069 427.197229,1357.27802 C427.610803,1357.62063 428.071545,1357.90419 428.532424,1358.16409 C429.099533,1358.48305 429.64299,1358.82581 430.221994,1359.13288 C430.918986,1359.49929 431.66342,1359.74729 432.431369,1359.92462 C432.714924,1359.98368 432.986721,1360.04274 433.270275,1360.11356 C433.51842,1360.18452 433.766564,1360.29089 434.014572,1360.34995 C434.392736,1360.43266 434.782658,1360.50348 435.160686,1360.57444 C435.2434,1360.5862 435.326115,1360.59809 435.420588,1360.60985 L435.420588,1360.6335 C435.526955,1360.6335 435.656975,1360.5862 435.680627,1360.62161 C435.739689,1360.71622 435.786857,1360.66891 435.857814,1360.65716 C435.940529,1360.6335 436.035002,1360.6335 436.129475,1360.6335 C436.460334,1360.64526 436.779299,1360.71622 437.110158,1360.69257 C437.181115,1360.69257 437.287482,1360.6335 437.346545,1360.75163 C437.370197,1360.73973 437.381955,1360.72798 437.405607,1360.71622 C437.452775,1360.70432 437.511975,1360.70432 437.559143,1360.69257 L437.559143,1360.71622 C437.53549,1360.72798 437.511975,1360.72798 437.46467,1360.73987 C437.523732,1360.75163 437.559143,1360.76339 437.594689,1360.77528 C437.571037,1360.79893 437.559143,1360.79893 437.53549,1360.81069 C437.511975,1360.82245 437.476428,1360.83434 437.42926,1360.86975 C437.854592,1360.95247 438.256272,1360.96436 438.610783,1360.86975 L438.610783,1360.79893 L438.657951,1360.79893 C438.657951,1360.82245 438.669846,1360.8461 438.681604,1360.86975 C439.225061,1360.91706 439.75676,1360.8461 440.264807,1360.66891 C440.312111,1360.72798 440.347522,1360.81069 440.418479,1360.69257 C440.442131,1360.65716 440.501193,1360.64526 440.548361,1360.6335 C440.654729,1360.60985 440.784748,1360.56255 440.879221,1360.59809 C440.985588,1360.6335 441.020998,1360.53889 441.103713,1360.53889 C441.24549,1360.53889 441.37551,1360.52714 441.505393,1360.50348 C441.57635,1360.49173 441.64717,1360.45618 441.729885,1360.43266 C441.729885,1360.42077 441.729885,1360.40901 441.718127,1360.39712 C441.635412,1360.38536 441.540939,1360.3736 441.469982,1360.3736 C441.61176,1360.30264 441.741779,1360.24358 441.871662,1360.18452 C441.871662,1360.19628 441.883557,1360.19628 441.883557,1360.20817 C441.84801,1360.21993 441.824494,1360.26723 441.777189,1360.26723 L441.942619,1360.26723 C441.907209,1360.26723 441.859904,1360.3736 441.800842,1360.44442 C442.226174,1360.33805 442.616096,1360.24358 442.994123,1360.14911 L442.994123,1360.12546 C442.946955,1360.13721 442.911408,1360.13721 442.875998,1360.14911 C442.86424,1359.90096 443.1359,1359.98368 443.23051,1359.8419 C443.112248,1359.87731 442.994123,1359.91272 442.875998,1359.93638 L442.875998,1359.91272 C443.277678,1359.73554 443.691252,1359.55835 444.092932,1359.38102 C444.092932,1359.39292 444.104826,1359.39292 444.104826,1359.40468 C444.033869,1359.45198 443.963049,1359.48739 443.856682,1359.54645 C443.927502,1359.55835 443.974807,1359.55835 444.010217,1359.57011 C444.010217,1359.60552 444.010217,1359.62917 443.998459,1359.64106 C444.199299,1359.62917 444.151994,1359.45198 444.211057,1359.34561 C444.246604,1359.35737 444.293772,1359.38102 444.329318,1359.36927 C444.435549,1359.34561 444.530158,1359.3102 444.636389,1359.27479 C444.75465,1359.23925 444.872775,1359.20384 444.9909,1359.15653 C445.179982,1359.07382 445.35717,1358.96759 445.546252,1358.87298 C445.581662,1358.86122 445.640725,1358.87298 445.688029,1358.87298 C445.723439,1358.87298 445.747092,1358.84932 445.770744,1358.82581 C445.817912,1358.79026 445.865217,1358.71944 445.900627,1358.7312 C446.066057,1358.75485 446.184182,1358.69579 446.231486,1358.54225 C446.243381,1358.54225 446.243381,1358.53036 446.255139,1358.53036 C446.314201,1358.48319 446.373264,1358.43589 446.432326,1358.40034 C446.692365,1358.25856 446.940373,1358.11692 447.200412,1357.97501 C447.21217,1357.96325 447.235822,1357.97501 447.259475,1357.97501 C447.294885,1357.97501 447.342189,1357.97501 447.365705,1357.96325 C447.519377,1357.89229 447.661154,1357.80971 447.802932,1357.727 C447.767522,1357.71511 447.802932,1357.70335 447.684807,1357.69145 L447.684807,1357.6678 C447.802932,1357.64429 447.838342,1357.63239 447.909299,1357.60874 L447.885647,1357.58522 C448.192854,1357.27802 448.582775,1357.05352 448.878088,1356.79362 C448.93715,1356.80538 448.960803,1356.81714 448.996213,1356.81714 C449.008107,1356.78173 449.008107,1356.74632 449.008107,1356.72266 C449.055275,1356.6636 449.10258,1356.59264 449.161643,1356.54548 C449.421545,1356.30909 449.705236,1356.10825 449.941486,1355.86011 C450.284104,1355.51749 450.614963,1355.16311 450.92217,1354.79684 C451.205725,1354.46598 451.489279,1354.13513 451.725529,1353.76886 C452.056389,1353.26081 452.339943,1352.741 452.635256,1352.2093 C452.84799,1351.83114 453.037072,1351.45311 453.24967,1351.07495 C453.273322,1351.03954 453.320627,1350.99237 453.356037,1350.99237 C453.675002,1350.95682 453.994104,1350.93317 454.301311,1350.89776 C454.372131,1350.886 454.454846,1350.8387 454.525803,1350.80329 C454.490256,1350.74423 454.466604,1350.67327 454.431193,1350.61421 C454.384025,1350.54325 454.313068,1350.48419 454.265764,1350.41337 C454.218596,1350.3543 454.183186,1350.28335 454.147639,1350.21253 C454.112229,1350.15346 454.076818,1350.10616 454.041272,1350.0471 C453.970451,1349.91708 453.899494,1349.7872 453.840432,1349.64542 C453.828674,1349.60987 453.805022,1349.55081 453.816779,1349.5154 C454.029514,1349.05466 454.112229,1348.55837 454.313068,1348.09763 C454.513908,1347.62499 454.572971,1347.09329 454.66758,1346.58524 C454.750295,1346.10085 454.797463,1345.61645 454.856525,1345.13192 C454.892072,1344.7893 454.93924,1344.45845 454.951135,1344.11583 C455.021955,1343.57237 454.998303,1343.06432 454.986545,1342.55628 Z M425.283166,1355.74198 C425.200588,1355.64751 425.129631,1355.54114 425.046916,1355.44667 L425.082326,1355.41112 C425.212346,1355.55304 425.342365,1355.69468 425.472248,1355.84835 C425.401428,1355.81294 425.318713,1355.78929 425.283166,1355.74198 Z M425.472248,1355.84835 C425.507658,1355.83659 425.543205,1355.83659 425.578615,1355.8247 C425.614025,1355.88376 425.637678,1355.95471 425.673088,1356.02554 C425.507658,1356.01378 425.424943,1355.94282 425.472248,1355.84835 Z M437.759982,1360.72798 L437.759982,1360.69257 C437.984475,1360.66891 438.197209,1360.64526 438.421701,1360.62175 L438.421701,1360.65716 C438.197209,1360.69257 437.984475,1360.71622 437.759982,1360.72798 Z M440.737443,1360.42077 C440.572014,1360.45632 440.394826,1360.47983 440.229397,1360.50348 C440.170334,1360.51538 440.099514,1360.57444 440.075861,1360.46807 C440.052209,1360.47983 440.028557,1360.47983 440.004904,1360.49173 C440.063967,1360.66891 440.205744,1360.52714 440.323869,1360.59809 C440.063967,1360.6335 439.815822,1360.65716 439.567814,1360.69257 L439.567814,1360.66891 C439.638635,1360.65716 439.72135,1360.64526 439.792307,1360.6335 L439.792307,1360.59809 C439.674045,1360.5862 439.55592,1360.57444 439.437795,1360.57444 C439.402385,1360.57444 439.35508,1360.62175 439.31967,1360.6335 C439.272365,1360.64526 439.225061,1360.65716 439.165998,1360.65716 C438.965158,1360.66891 438.764318,1360.66891 438.575236,1360.68081 C438.563479,1360.68081 438.539826,1360.66891 438.528068,1360.66891 L438.528068,1360.6335 C439.31967,1360.52714 440.099514,1360.42077 440.891115,1360.31454 C440.902873,1360.33805 440.902873,1360.36171 440.914631,1360.38536 C440.843811,1360.38536 440.796506,1360.40901 440.737443,1360.42077 Z M440.914631,1360.30264 C441.186428,1360.26723 441.434572,1360.24358 441.694475,1360.20817 C441.151018,1360.36171 440.97383,1360.38536 440.914631,1360.30264 Z M430.623674,1336.44782 C431.001838,1335.92802 431.391623,1335.40807 431.769787,1334.87638 C431.887912,1334.72284 431.982385,1334.55741 432.100647,1334.40388 C432.136057,1334.35657 432.183225,1334.33292 432.242424,1334.28561 L432.230529,1334.2621 C432.277834,1334.2029 432.325002,1334.15573 432.348654,1334.10843 C432.407717,1334.01395 432.443264,1333.90759 432.490432,1333.80122 C432.502326,1333.77757 432.537736,1333.75405 432.537736,1333.75405 C432.703166,1333.83663 432.703166,1333.65944 432.762229,1333.60038 C432.868596,1333.48225 432.974963,1333.35223 433.069436,1333.23411 C433.140256,1333.13964 433.211213,1333.05692 433.270275,1332.95055 C433.282033,1332.91514 433.246623,1332.85608 433.234865,1332.80878 L433.199455,1332.80878 C433.234865,1332.78513 433.270275,1332.74971 433.305686,1332.72606 C433.31758,1332.72606 433.31758,1332.72606 433.329338,1332.7143 C433.400295,1332.60794 433.471115,1332.50157 433.542072,1332.4071 C433.68385,1332.21802 433.837385,1332.02893 434.002814,1331.8635 C433.979162,1331.92257 433.95551,1331.98177 433.931994,1332.02893 C433.943752,1332.02893 433.943752,1332.04083 433.95551,1332.04083 C434.097287,1331.85175 434.250959,1331.67456 434.392736,1331.48548 C434.380842,1331.47372 434.369084,1331.46182 434.357326,1331.46182 C434.298264,1331.52089 434.250959,1331.57995 434.191897,1331.63901 C434.180002,1331.62725 434.168244,1331.6155 434.15635,1331.6155 C434.274611,1331.46182 434.392736,1331.30829 434.510861,1331.13096 C434.534514,1331.16651 434.558166,1331.21368 434.605334,1331.30829 C434.652639,1331.19003 434.699943,1331.10731 434.735354,1331.02473 C434.699943,1331.06014 434.652639,1331.09555 434.617229,1331.13096 L434.581682,1331.09555 L434.794416,1330.77659 C435.018908,1330.45749 435.2434,1330.12677 435.467893,1329.80766 C435.550607,1329.68954 435.656975,1329.59507 435.727795,1329.47694 C435.952287,1329.02796 436.306799,1328.67345 436.578459,1328.25987 C436.637658,1328.17729 436.720236,1328.10634 436.791193,1328.03538 C436.850256,1327.96456 436.897561,1327.98821 436.944865,1328.04727 C437.26383,1328.44895 437.582795,1328.86253 437.90176,1329.26421 C438.138147,1329.55966 438.374397,1329.84321 438.598889,1330.15028 C438.870686,1330.52845 439.130588,1330.90647 439.402385,1331.28464 C439.709592,1331.72173 440.016799,1332.15895 440.312111,1332.60794 C440.761096,1333.26952 441.186428,1333.93124 441.635412,1334.59282 C441.966272,1335.07735 442.297131,1335.54985 442.616096,1336.03438 L442.013439,1336.03438 C441.458225,1336.02249 440.891115,1335.97518 440.335764,1335.99884 C439.579572,1336.03438 438.811623,1336.11696 438.055432,1336.17602 C437.0984,1336.25874 436.129475,1336.27063 435.17258,1336.27063 C434.829826,1336.27063 434.487209,1336.3178 434.144592,1336.34145 C433.731018,1336.36511 433.329338,1336.38876 432.915764,1336.40065 C432.431369,1336.42417 431.958732,1336.43606 431.474338,1336.44782 C431.202678,1336.45971 430.918986,1336.44782 430.623674,1336.44782 Z M444.175647,1341.8828 L444.175647,1341.98917 C444.163889,1341.98917 444.151994,1342.00093 444.128342,1342.00093 C444.081174,1341.8355 444.033869,1341.65831 443.974807,1341.49288 C443.856682,1341.15026 443.726662,1340.80764 443.514064,1340.50044 C443.277678,1340.16958 443.06508,1339.82696 442.828693,1339.48434 C442.769631,1339.40163 442.686916,1339.33067 442.616096,1339.25985 C442.367951,1338.98805 442.119807,1338.7045 441.800842,1338.50366 C441.328205,1338.20835 440.843811,1337.9602 440.323869,1337.74747 C440.182092,1337.68841 440.052209,1337.61759 439.910432,1337.53487 L440.193986,1337.53487 L442.214416,1337.49946 C442.651506,1337.48757 443.076838,1337.48757 443.514064,1337.46391 C443.620432,1337.46391 443.679494,1337.49946 443.738557,1337.59393 C443.844924,1337.77112 443.951154,1337.94831 444.069279,1338.12563 C444.081174,1338.14915 444.104826,1338.1847 444.104826,1338.22011 C444.104826,1338.48001 444.104826,1338.7518 444.116584,1339.01171 C444.128479,1339.2835 444.151994,1339.54341 444.163889,1339.8152 C444.163889,1340.08686 444.140236,1340.37042 444.151994,1340.65397 C444.163889,1341.05579 444.175647,1341.46923 444.175647,1341.8828 Z M431.46258,1337.92479 C432.017932,1337.90114 432.549494,1337.86559 433.093088,1337.84208 C433.51842,1337.81843 433.95551,1337.80653 434.380842,1337.78302 C434.558166,1337.77112 434.723596,1337.75936 434.900783,1337.78302 C434.711701,1337.87749 434.522756,1337.97196 434.357326,1338.09022 C434.144592,1338.23186 433.943752,1338.42095 433.731018,1338.57462 C433.51842,1338.72815 433.329338,1338.91723 433.15215,1339.11807 C432.927658,1339.38987 432.679514,1339.62612 432.443264,1339.88602 C432.277834,1340.07511 432.088752,1340.25229 431.946975,1340.45313 C431.746135,1340.71317 431.568947,1340.99673 431.379865,1341.29204 C431.438928,1340.16958 431.509885,1339.05901 431.46258,1337.92479 Z M439.177893,1349.29091 C438.799729,1349.38538 438.409943,1349.49175 438.020022,1349.53905 C437.689162,1349.58636 437.346545,1349.57446 437.003928,1349.57446 C436.696721,1349.57446 436.401272,1349.5627 436.094064,1349.53905 C435.751447,1349.50364 435.40883,1349.46809 435.077971,1349.31456 C434.794416,1349.18454 434.499104,1349.06641 434.215549,1348.92464 C433.931994,1348.78286 433.648303,1348.61743 433.435705,1348.35753 C433.282033,1348.16845 433.069436,1348.01491 432.880354,1347.84948 C432.915764,1347.99126 432.998479,1348.10938 433.128498,1348.1921 C433.069436,1348.26305 432.986721,1348.22751 432.868596,1348.03856 C432.833186,1348.06208 432.797639,1348.07397 432.773986,1348.08573 C432.809533,1348.00302 432.844943,1347.92044 432.880354,1347.84948 C432.833186,1347.75501 432.773986,1347.64864 432.726818,1347.55417 C432.632209,1347.4005 432.537736,1347.23507 432.455022,1347.08153 C432.431369,1347.04598 432.431369,1347.01057 432.407717,1346.97516 C432.348654,1346.90421 432.289592,1346.83339 432.242424,1346.76243 C432.147815,1346.62065 432.0651,1346.46712 431.946975,1346.32534 C431.946975,1346.36075 431.958732,1346.39616 431.958732,1346.44346 C431.946975,1346.44346 431.935217,1346.45522 431.935217,1346.45522 L431.687072,1345.8527 C431.675178,1345.8527 431.675178,1345.8527 431.66342,1345.8646 L431.876154,1346.6443 C431.86426,1346.6443 431.852502,1346.6562 431.840607,1346.6562 C431.805197,1346.60889 431.769787,1346.56159 431.746135,1346.50253 C431.722482,1346.40805 431.651662,1346.40805 431.592463,1346.44346 C431.557053,1346.46712 431.5334,1346.54983 431.545295,1346.58524 C431.62801,1346.78608 431.722482,1346.98692 431.816955,1347.1879 C431.840607,1347.25872 431.86426,1347.31778 431.89967,1347.38874 C431.911565,1347.41239 431.946975,1347.43591 431.946975,1347.47145 C431.994279,1347.56593 432.02969,1347.6604 432.088752,1347.74311 C432.195119,1347.88489 432.313244,1348.02667 432.419611,1348.16845 C432.525979,1348.31022 432.620451,1348.46389 432.714924,1348.60567 C432.726818,1348.62932 432.762229,1348.62932 432.773986,1348.64108 C432.833186,1348.81827 433.034025,1348.94829 433.175803,1348.87747 C433.211213,1349.14913 433.506525,1349.24374 433.624787,1349.50364 C433.48301,1349.44458 433.376643,1349.39727 433.282033,1349.34997 C433.270275,1349.36186 433.270275,1349.37362 433.258518,1349.39727 C433.400295,1349.46809 433.542072,1349.53905 433.671955,1349.62177 C433.79008,1349.69259 433.908342,1349.76354 434.014572,1349.84626 C434.156486,1349.97614 434.321779,1350.0471 434.522756,1350.0944 C434.510861,1350.05886 434.499104,1350.0471 434.499104,1350.0471 C434.829826,1350.20077 435.17258,1350.36606 435.432482,1350.49608 C434.203654,1350.51973 432.892248,1350.54339 431.5334,1350.5669 C431.5334,1350.34241 431.521643,1350.12981 431.521643,1349.90532 C431.521643,1349.81085 431.545295,1349.72813 431.5334,1349.63352 C431.49799,1349.09007 431.49799,1348.54661 431.42717,1348.01491 C431.356213,1347.4478 431.356213,1346.89245 431.368107,1346.32534 C431.379865,1346.01813 431.356213,1345.69917 431.344455,1345.39196 C431.344455,1344.97839 431.344455,1344.57671 431.356213,1344.16313 C431.356213,1344.10407 431.379865,1344.05677 431.403518,1343.9977 L431.438928,1343.9977 C431.450686,1344.02136 431.438928,1344.05677 431.46258,1344.06866 C431.49799,1344.10407 431.557053,1344.16313 431.580705,1344.15138 C431.651662,1344.10407 431.757893,1344.05677 431.781545,1343.98595 C431.840607,1343.84417 431.86426,1343.6905 431.86426,1343.54872 C431.86426,1343.44249 431.911565,1343.37153 431.958732,1343.30057 C431.982385,1343.26516 431.994279,1343.22975 432.017932,1343.18245 C431.970627,1343.14704 431.923322,1343.12339 431.86426,1343.07622 C431.911565,1342.9462 431.89967,1342.79253 432.076994,1342.72171 C432.100647,1342.70981 432.100647,1342.65075 432.112404,1342.61534 C432.124162,1342.52087 432.136057,1342.4145 432.147815,1342.32003 C432.171467,1342.35544 432.183225,1342.3672 432.206877,1342.39085 C432.218772,1342.3672 432.230529,1342.35544 432.230529,1342.35544 C432.230529,1342.30813 432.218772,1342.21366 432.230529,1342.21366 C432.372307,1342.19001 432.313244,1342.03647 432.384201,1341.96552 C432.395959,1341.95376 432.372307,1341.91821 432.372307,1341.8947 C432.372307,1341.87104 432.372307,1341.8355 432.384201,1341.8355 C432.549494,1341.80009 432.525979,1341.6229 432.632209,1341.54018 C432.667756,1341.51653 432.679514,1341.48112 432.726818,1341.42206 C432.821291,1341.58749 432.655861,1341.6702 432.644104,1341.78833 C432.844943,1341.6702 432.904006,1341.38665 432.785881,1341.30393 C432.833186,1341.26839 432.880354,1341.22122 432.915764,1341.17391 C433.045783,1341.03214 433.187561,1340.90212 433.305686,1340.76034 C433.3884,1340.65397 433.435705,1340.52409 433.51842,1340.41772 C433.565725,1340.35866 433.660197,1340.31136 433.731018,1340.27595 C433.943752,1340.15782 434.144592,1340.0278 434.274611,1339.82696 C434.298264,1339.80331 434.333674,1339.77966 434.369084,1339.75614 C434.404494,1339.73249 434.475451,1339.73249 434.487209,1339.69694 C434.499104,1339.67343 434.463557,1339.61436 434.439904,1339.57882 C434.487209,1339.55516 434.534514,1339.508 434.628986,1339.46069 C434.593576,1339.53165 434.581818,1339.57882 434.558166,1339.62612 L434.617229,1339.68518 C434.723596,1339.60247 434.889025,1339.508 434.995256,1339.43704 C434.995256,1339.42528 434.936193,1339.37798 434.936193,1339.37798 C434.865373,1339.41352 434.759006,1339.47259 434.652639,1339.51975 C434.676291,1339.48434 434.676291,1339.46069 434.688049,1339.44893 C434.853479,1339.34257 435.018908,1339.2362 435.196096,1339.15348 C435.60967,1338.9644 436.023244,1338.77546 436.436682,1338.59813 C436.507639,1338.56272 436.602111,1338.58638 436.684826,1338.58638 C436.720236,1338.58638 436.743889,1338.58638 436.779436,1338.57462 C436.968381,1338.51555 437.157463,1338.45649 437.346545,1338.40919 C437.42926,1338.38554 437.523732,1338.37378 437.606447,1338.37378 C437.960959,1338.38554 438.315334,1338.38554 438.669846,1338.40919 C438.823381,1338.42095 438.965158,1338.45649 439.106936,1338.50366 C439.28426,1338.56272 439.473205,1338.64544 439.638635,1338.72815 C439.839475,1338.83452 440.028557,1338.95264 440.217639,1339.08266 C440.560256,1339.30716 440.879221,1339.55516 441.221838,1339.75614 C441.552697,1339.95698 441.8126,1340.22864 442.025334,1340.53585 C442.285236,1340.90212 442.580686,1341.23298 442.698811,1341.68196 L442.875998,1342.4618 C442.911408,1342.60358 442.994123,1342.74536 442.958713,1342.91079 C442.89965,1343.2061 442.852346,1343.51331 442.805178,1343.80876 C442.781525,1343.92688 442.757873,1344.04501 442.769631,1344.16313 C442.793283,1344.5294 442.651506,1344.84837 442.509729,1345.17923 C442.462424,1345.28559 442.391604,1345.39196 442.332541,1345.51009 C442.344299,1345.52184 442.415256,1345.55739 442.427014,1345.55739 L442.533381,1345.34466 C442.545139,1345.34466 442.545139,1345.34466 442.557033,1345.35655 C442.497971,1345.52184 442.450666,1345.69917 442.391604,1345.8646 C442.249826,1346.23087 442.108049,1346.60889 441.930861,1346.96341 C441.836252,1347.16425 441.670822,1347.32968 441.552697,1347.51862 C441.434572,1347.68405 441.3401,1347.86124 441.221838,1348.01491 C441.115607,1348.14493 441.00924,1348.27481 440.867463,1348.36942 C440.548361,1348.60567 440.217639,1348.84192 439.875022,1349.031 C439.662287,1349.16102 439.414143,1349.23184 439.177893,1349.29091 Z M432.880354,1348.66473 L432.868596,1348.67649 C432.844943,1348.66473 432.809533,1348.65284 432.785881,1348.62932 L432.502326,1348.20399 C432.478674,1348.16845 432.466916,1348.13304 432.478674,1348.08573 C432.608557,1348.28657 432.738576,1348.47565 432.880354,1348.66473 Z M440.229397,1350.28335 C440.761096,1350.05886 441.198322,1349.73989 441.600002,1349.37362 C441.659064,1349.31456 441.718127,1349.2555 441.789084,1349.20819 C442.285236,1348.90098 442.651506,1348.47565 442.982365,1348.00302 C443.360393,1347.45956 443.608537,1346.84514 443.915744,1346.26628 C443.939397,1346.21897 443.963049,1346.17167 443.986701,1346.13626 C443.963049,1347.48321 444.116584,1348.80651 444.293772,1350.14157 C442.958713,1350.18888 441.600002,1350.23618 440.229397,1350.28335 Z M452.210061,1349.92897 C452.198166,1349.95263 452.174514,1349.97614 452.162756,1349.99979 C452.150861,1349.97614 452.150861,1349.94073 452.139104,1349.89356 C452.068147,1350.08251 451.914611,1349.98804 451.808244,1349.98804 C451.170314,1349.99979 450.52049,1349.99979 449.882424,1349.99979 C449.26801,1349.99979 448.641838,1349.99979 448.027424,1350.01169 C447.826584,1350.01169 447.61385,1350.05886 447.41301,1350.07075 C446.928615,1350.0944 446.444221,1350.10616 445.959826,1350.11792 C445.924279,1350.11792 445.888869,1350.05886 445.829807,1350.01169 C445.818049,1350.03534 445.794397,1350.07075 445.75885,1350.11792 C445.747092,1350.0944 445.723439,1350.07075 445.699787,1350.03534 C445.688029,1350.07075 445.676135,1350.10616 445.664377,1350.12981 L445.628967,1350.12981 C445.605314,1349.96438 445.55801,1349.81085 445.55801,1349.64542 C445.55801,1349.29091 445.59342,1348.93653 445.605314,1348.58202 C445.617072,1348.41659 445.605314,1348.26305 445.605314,1348.10938 C445.652619,1348.14493 445.688029,1348.16845 445.735334,1348.20399 C445.75885,1348.15669 445.782502,1348.12128 445.806154,1348.08573 C445.806154,1348.08573 445.782502,1348.07397 445.75885,1348.05032 C445.782502,1348.03856 445.806154,1348.01491 445.806154,1348.00315 C445.818049,1347.96761 445.841564,1347.9322 445.841564,1347.90854 C445.841564,1347.82583 445.818049,1347.75501 445.806154,1347.68405 C445.818049,1347.68405 445.829807,1347.68405 445.841564,1347.67229 L445.912522,1348.02667 L445.947932,1348.02667 C445.900764,1347.94395 446.054299,1347.87313 445.924279,1347.77852 C445.912522,1347.76677 445.936174,1347.69581 445.936174,1347.6604 C445.900764,1347.58958 445.877111,1347.51862 445.841564,1347.42415 C445.853459,1347.41239 445.888869,1347.4005 445.924279,1347.38874 C445.877111,1347.36509 445.841564,1347.34143 445.806154,1347.32954 C445.924279,1347.22331 445.924279,1347.16425 445.818049,1347.04598 C445.841564,1347.03423 445.865217,1347.03423 445.865217,1347.02247 C445.865217,1346.9161 445.865217,1346.80973 445.841564,1346.70337 C445.818049,1346.58524 445.877111,1346.44346 445.699787,1346.37264 C445.711682,1346.40805 445.723439,1346.43171 445.747092,1346.46712 C445.747092,1346.46712 445.711682,1346.47888 445.676135,1346.50253 C445.5226,1346.36075 445.617072,1346.17167 445.581662,1345.95907 C445.664377,1345.98272 445.723439,1346.00638 445.782502,1346.02989 C445.75885,1345.94731 445.699787,1345.8527 445.664377,1345.74634 L445.617072,1345.74634 L445.617072,1344.96663 C445.617072,1344.97839 445.699787,1344.97839 445.747092,1344.99014 C445.747092,1344.97839 445.75885,1344.96663 445.75885,1344.95473 C445.723439,1344.90743 445.676135,1344.86026 445.628967,1344.8012 L445.652619,1344.77755 C445.55801,1344.65942 445.605314,1344.49399 445.605314,1344.45858 L445.605314,1343.63143 C445.723439,1343.74956 445.546252,1343.90323 445.723439,1343.97405 L445.723439,1343.85593 L445.711682,1343.85593 C445.699787,1343.67874 445.699787,1343.50155 445.688029,1343.32423 L445.664377,1343.32423 C445.652619,1343.34788 445.652619,1343.35977 445.640725,1343.38329 L445.617072,1343.38329 C445.640725,1342.44991 445.664377,1341.51653 445.688029,1340.5595 C445.806154,1340.71317 445.936174,1340.85495 446.018889,1341.00848 C446.290549,1341.50477 446.645061,1341.93011 446.97592,1342.37909 C447.259475,1342.76901 447.519377,1343.19434 447.779279,1343.59602 C448.098244,1344.08042 448.405451,1344.56481 448.724553,1345.04934 C448.960803,1345.41561 449.208947,1345.78188 449.457092,1346.13626 C449.681584,1346.45522 449.917834,1346.76243 450.154221,1347.06964 C450.355061,1347.34143 450.567658,1347.61323 450.768498,1347.88489 C451.004885,1348.21575 451.241135,1348.54661 451.477522,1348.86557 C451.595647,1349.031 451.725529,1349.19643 451.855549,1349.36186 C451.926369,1349.45634 452.032736,1349.52729 452.103693,1349.58636 C452.091799,1349.58636 452.080041,1349.58636 452.056389,1349.57446 C452.091799,1349.62177 452.115451,1349.65718 452.139104,1349.68083 C452.269123,1349.75165 452.280881,1349.82261 452.210061,1349.92897 Z M452.81258,1346.97516 L452.81258,1346.89245 C452.81258,1346.9161 452.824338,1346.95151 452.81258,1346.97516 Z M453.21426,1341.76468 C453.202502,1341.76468 453.131545,1341.69372 453.119787,1341.68196 C453.107893,1341.71737 453.119787,1341.75278 453.096135,1341.80009 C453.084377,1341.76468 453.001662,1341.77643 453.001662,1341.74102 C452.989768,1341.90645 453.072482,1342.07188 453.060725,1342.23731 C453.096135,1342.21366 453.237912,1342.20177 453.273322,1342.16636 C453.285217,1342.17825 453.308732,1342.19001 453.320627,1342.19001 C453.084377,1342.3672 453.143439,1342.54452 453.24967,1342.74536 C453.273322,1342.79253 453.344279,1342.88714 453.273322,1342.98161 C453.24967,1343.00526 453.285217,1343.07622 453.296975,1343.13528 L453.332385,1343.13528 L453.332385,1343.1588 L453.226154,1343.19434 C453.202502,1343.1588 453.060725,1343.08798 453.060725,1343.02891 L453.060725,1343.63143 C453.17885,1343.66684 453.17885,1343.83227 453.226154,1343.91499 C453.24967,1343.87958 453.261564,1343.85593 453.273322,1343.82052 L453.285217,1343.83227 C453.273322,1343.90323 453.261564,1343.97405 453.237912,1344.04501 C453.21426,1344.15138 453.190607,1344.24585 453.17885,1344.35221 C453.17885,1344.36397 453.202502,1344.38763 453.202502,1344.39938 C453.072482,1344.69483 453.143439,1345.02569 453.096135,1345.3329 C453.060725,1345.55739 453.096135,1345.79364 453.072482,1346.02989 C453.04883,1346.23087 453.001662,1346.44346 452.954357,1346.6443 C452.9426,1346.67971 452.918947,1346.69161 452.859885,1346.71526 C452.8834,1346.57348 452.871643,1346.47888 452.84799,1346.34899 C452.836232,1346.34899 452.682561,1346.26628 452.670803,1346.26628 C452.670803,1346.43171 452.765275,1346.6562 452.800822,1346.84514 C452.765275,1346.83339 452.623498,1346.75067 452.61174,1346.75067 C452.588088,1346.89245 452.588088,1347.08153 452.57633,1347.23507 C452.564436,1347.35319 452.458068,1347.45956 452.446311,1347.58958 C452.446311,1347.6604 452.529025,1347.7077 452.517131,1347.82583 L452.61174,1347.82583 C452.61174,1347.58958 452.718107,1347.37684 452.718107,1347.1287 L452.753518,1347.1287 C452.765275,1347.15235 452.800822,1347.176 452.788928,1347.1879 C452.765275,1347.31778 452.718107,1347.45956 452.729865,1347.58958 C452.729865,1347.6604 452.788928,1347.73136 452.765275,1347.81407 C452.741623,1347.88489 452.729865,1347.95585 452.718107,1348.06208 C452.706213,1348.00302 452.694455,1347.9795 452.694455,1347.94395 C452.682561,1347.94395 452.57633,1347.9322 452.564436,1347.9322 C452.552678,1348.00302 452.64715,1348.07397 452.635393,1348.13304 C452.623498,1348.14493 452.61174,1348.14493 452.588088,1348.15669 L452.198166,1347.58958 C451.890959,1347.14059 451.583752,1346.69161 451.276545,1346.23087 C451.19383,1346.11261 451.12301,1345.99448 451.063947,1345.87636 C450.697678,1345.25018 450.295998,1344.64753 449.847014,1344.06866 C449.50426,1343.63143 449.2326,1343.1588 448.913498,1342.69805 C448.618186,1342.26096 448.322736,1341.8355 448.027424,1341.39841 C447.921057,1341.25663 447.791174,1341.12661 447.696564,1340.97307 C447.389357,1340.48868 447.117697,1339.99239 446.81049,1339.508 C446.550588,1339.10618 446.266897,1338.71639 445.995236,1338.32647 C445.900764,1338.19645 445.806154,1338.05468 445.711682,1337.9129 C445.699787,1337.88925 445.688029,1337.86559 445.688029,1337.83018 C445.664377,1337.57028 445.640725,1337.31038 445.628967,1337.06223 C445.628967,1336.82585 445.652619,1336.5896 445.652619,1336.34145 L445.652619,1336.12886 C445.652619,1336.06979 445.664377,1336.02249 445.664377,1335.96343 C445.676135,1335.95153 445.688029,1335.92802 445.699787,1335.91612 C445.35717,1335.91612 445.002795,1335.90436 444.660041,1335.91612 C444.435686,1335.92802 444.317424,1335.83341 444.163889,1335.66811 C443.714904,1335.15993 443.384045,1334.58106 442.994123,1334.03761 C442.627854,1333.51766 442.249826,1333.00962 441.871662,1332.50157 C441.564592,1332.088 441.257385,1331.68632 440.950178,1331.27274 C440.607561,1330.80024 440.276701,1330.32761 439.922189,1329.85497 C439.496857,1329.28786 439.059768,1328.72075 438.622541,1328.15364 C438.421701,1327.8936 438.197209,1327.64559 437.972717,1327.3738 C438.126252,1327.39745 438.268029,1327.4211 438.409943,1327.43286 L438.977053,1327.46827 C439.402385,1327.50382 439.827717,1327.52733 440.253049,1327.58639 C440.607561,1327.6337 440.961936,1327.70466 441.328205,1327.76372 C442.108049,1327.8936 442.875998,1328.10634 443.620432,1328.35448 C444.057522,1328.49626 444.482854,1328.68534 444.908186,1328.86253 C445.865217,1329.25245 446.77508,1329.72495 447.672912,1330.22124 C447.956604,1330.37477 448.121897,1330.62292 448.334631,1330.84741 C448.641838,1331.16651 448.949045,1331.48548 449.244357,1331.81634 C449.586975,1332.20626 449.906076,1332.60794 450.236799,1333.00962 C450.532248,1333.36413 450.839455,1333.7185 451.134768,1334.07302 C451.229377,1334.17938 451.300197,1334.30927 451.382912,1334.42739 C451.571994,1334.71095 451.784592,1334.98274 451.950022,1335.28995 C452.068283,1335.51444 452.139104,1335.77434 452.221818,1336.02249 C452.339943,1336.38876 452.458068,1336.74327 452.57633,1337.10954 C452.658908,1337.3812 452.729865,1337.66475 452.788928,1337.94831 C452.836232,1338.13739 452.824338,1338.33823 452.8834,1338.52731 C452.954357,1338.77546 452.8834,1339.04712 452.954357,1339.29526 C452.966115,1339.31891 452.97801,1339.35432 452.989768,1339.37798 C453.037072,1339.42528 453.072482,1339.47245 453.001662,1339.54341 C452.989768,1339.55516 452.989768,1339.60247 453.001662,1339.63788 C453.025178,1339.61436 453.037072,1339.59071 453.060725,1339.55516 C453.060725,1339.57882 453.072482,1339.59071 453.072482,1339.60247 C453.072482,1339.64977 453.060725,1339.69694 453.072482,1339.74425 C453.072482,1339.7679 453.096135,1339.80331 453.107893,1339.82696 C453.131545,1339.80331 453.155197,1339.79155 453.202502,1339.75614 C453.308732,1340.15782 453.320627,1340.5595 453.320627,1340.97307 C453.320627,1341.363 453.391447,1341.75278 453.226154,1342.13095 C453.261564,1342.00093 453.17885,1341.8828 453.21426,1341.76468 Z" id="postcss" fill="#FFFFFF" fill-rule="nonzero"></path>
        </g>
    </g>
</svg>