<?xml version="1.0" encoding="UTF-8"?>
<svg width="39px" height="35px" viewBox="0 0 39 35" version="1.1" xmlns="http://www.w3.org/2000/svg" xmlns:xlink="http://www.w3.org/1999/xlink">
    <g id="About" stroke="none" stroke-width="1" fill="none" fill-rule="evenodd">
        <g id="Desktop-Copy-7" transform="translate(-415.000000, -1091.000000)">
            <path d="M453.944512,1108.5 C453.944512,1105.89703 450.718293,1103.43021 445.771951,1101.90046 C446.913415,1096.80664 446.406098,1092.754 444.170732,1091.45652 C443.655488,1091.15217 443.053049,1091.00801 442.395122,1091.00801 L442.395122,1092.79405 C442.759756,1092.79405 443.053049,1092.86613 443.29878,1093.00229 C444.376829,1093.627 444.844512,1096.00572 444.479878,1099.06522 C444.392683,1099.81808 444.25,1100.61098 444.07561,1101.41991 C442.521951,1101.03547 440.82561,1100.73913 439.042073,1100.54691 C437.971951,1099.06522 436.862195,1097.71968 435.744512,1096.54233 C438.328659,1094.11556 440.754268,1092.78604 442.403049,1092.78604 L442.403049,1091 C442.403049,1091 442.403049,1091 442.403049,1091 C440.223171,1091 437.369512,1092.56979 434.484146,1095.29291 C431.59878,1092.58581 428.745122,1091.03204 426.565244,1091.03204 L426.565244,1092.81808 C428.206098,1092.81808 430.639634,1094.13959 433.22378,1096.55034 C432.114024,1097.72769 431.004268,1099.06522 429.95,1100.54691 C428.158537,1100.73913 426.462195,1101.03547 424.908537,1101.42792 C424.72622,1100.627 424.591463,1099.85011 424.496341,1099.10526 C424.12378,1096.04577 424.583537,1093.66705 425.653659,1093.03432 C425.891463,1092.89016 426.20061,1092.82609 426.565244,1092.82609 L426.565244,1091.04005 C426.565244,1091.04005 426.565244,1091.04005 426.565244,1091.04005 C425.89939,1091.04005 425.296951,1091.18421 424.77378,1091.48856 C422.546341,1092.78604 422.046951,1096.83066 423.196341,1101.90847 C418.265854,1103.44622 415.055488,1105.90503 415.055488,1108.5 C415.055488,1111.10297 418.281707,1113.56979 423.228049,1115.09954 C422.086585,1120.19336 422.593902,1124.246 424.829268,1125.54348 C425.344512,1125.84783 425.946951,1125.99199 426.612805,1125.99199 C428.792683,1125.99199 431.646341,1124.4222 434.531707,1121.69908 C437.417073,1124.40618 440.270732,1125.95995 442.45061,1125.95995 C443.116463,1125.95995 443.718902,1125.81579 444.242073,1125.51144 C446.469512,1124.21396 446.968902,1120.16934 445.819512,1115.09153 C450.734146,1113.56178 453.944512,1111.09497 453.944512,1108.5 Z M443.62378,1103.15789 C443.330488,1104.19108 442.965854,1105.25629 442.553659,1106.32151 C442.228659,1105.68078 441.887805,1105.04005 441.515244,1104.39931 C441.15061,1103.75858 440.762195,1103.13387 440.37378,1102.52517 C441.49939,1102.69336 442.585366,1102.9016 443.62378,1103.15789 Z M439.993293,1111.68764 C439.375,1112.76888 438.740854,1113.79405 438.082927,1114.74714 C436.901829,1114.85126 435.704878,1114.90732 434.5,1114.90732 C433.303049,1114.90732 432.106098,1114.85126 430.932927,1114.75515 C430.275,1113.80206 429.632927,1112.7849 429.014634,1111.71167 C428.412195,1110.66247 427.865244,1109.59725 427.365854,1108.52403 C427.857317,1107.4508 428.412195,1106.37757 429.006707,1105.32838 C429.625,1104.24714 430.259146,1103.22197 430.917073,1102.26888 C432.098171,1102.16476 433.295122,1102.1087 434.5,1102.1087 C435.696951,1102.1087 436.893902,1102.16476 438.067073,1102.26087 C438.725,1103.21396 439.367073,1104.23112 439.985366,1105.30435 C440.587805,1106.35355 441.134756,1107.41876 441.634146,1108.49199 C441.134756,1109.56522 440.587805,1110.63844 439.993293,1111.68764 Z M442.553659,1110.64645 C442.981707,1111.71968 443.346341,1112.79291 443.647561,1113.8341 C442.609146,1114.09039 441.515244,1114.30664 440.381707,1114.47483 C440.770122,1113.85812 441.158537,1113.2254 441.523171,1112.57666 C441.887805,1111.93593 442.228659,1111.28719 442.553659,1110.64645 Z M434.515854,1119.19222 C433.778659,1118.42334 433.041463,1117.56636 432.312195,1116.62929 C433.02561,1116.66133 433.754878,1116.68535 434.492073,1116.68535 C435.237195,1116.68535 435.97439,1116.66934 436.695732,1116.62929 C435.982317,1117.56636 435.245122,1118.42334 434.515854,1119.19222 Z M428.618293,1114.47483 C427.492683,1114.30664 426.406707,1114.0984 425.368293,1113.84211 C425.661585,1112.80892 426.02622,1111.74371 426.438415,1110.67849 C426.763415,1111.31922 427.104268,1111.95995 427.476829,1112.60069 C427.84939,1113.24142 428.229878,1113.86613 428.618293,1114.47483 Z M434.47622,1097.80778 C435.213415,1098.57666 435.95061,1099.43364 436.679878,1100.37071 C435.966463,1100.33867 435.237195,1100.31465 434.5,1100.31465 C433.754878,1100.31465 433.017683,1100.33066 432.296341,1100.37071 C433.009756,1099.43364 433.746951,1098.57666 434.47622,1097.80778 Z M428.610366,1102.52517 C428.221951,1103.14188 427.833537,1103.7746 427.468902,1104.42334 C427.104268,1105.06407 426.763415,1105.70481 426.438415,1106.34554 C426.010366,1105.27231 425.645732,1104.19908 425.344512,1103.15789 C426.382927,1102.90961 427.476829,1102.69336 428.610366,1102.52517 Z M421.436585,1112.55263 C418.630488,1111.34325 416.815244,1109.75744 416.815244,1108.5 C416.815244,1107.24256 418.630488,1105.64874 421.436585,1104.44737 C422.118293,1104.15103 422.863415,1103.88673 423.632317,1103.63844 C424.084146,1105.20824 424.678659,1106.84211 425.415854,1108.51602 C424.686585,1110.18192 424.1,1111.80778 423.656098,1113.36957 C422.871341,1113.12128 422.12622,1112.84897 421.436585,1112.55263 Z M425.70122,1123.99771 C424.623171,1123.373 424.155488,1120.99428 424.520122,1117.93478 C424.607317,1117.18192 424.75,1116.38902 424.92439,1115.58009 C426.478049,1115.96453 428.17439,1116.26087 429.957927,1116.45309 C431.028049,1117.93478 432.137805,1119.28032 433.255488,1120.45767 C430.671341,1122.88444 428.245732,1124.21396 426.596951,1124.21396 C426.240244,1124.20595 425.939024,1124.13387 425.70122,1123.99771 Z M444.503659,1117.89474 C444.87622,1120.95423 444.416463,1123.33295 443.346341,1123.96568 C443.108537,1124.10984 442.79939,1124.17391 442.434756,1124.17391 C440.793902,1124.17391 438.360366,1122.8524 435.77622,1120.44165 C436.885976,1119.2643 437.995732,1117.92677 439.05,1116.44508 C440.841463,1116.25286 442.537805,1115.95652 444.091463,1115.56407 C444.27378,1116.373 444.416463,1117.14989 444.503659,1117.89474 Z M447.555488,1112.55263 C446.87378,1112.84897 446.128659,1113.11327 445.359756,1113.36156 C444.907927,1111.79176 444.313415,1110.15789 443.57622,1108.48398 C444.305488,1106.81808 444.892073,1105.19222 445.335976,1103.63043 C446.120732,1103.87872 446.865854,1104.15103 447.563415,1104.44737 C450.369512,1105.65675 452.184756,1107.24256 452.184756,1108.5 C452.176829,1109.75744 450.361585,1111.35126 447.555488,1112.55263 Z M434.492073,1112.16018 C432.491388,1112.16018 430.869512,1110.52146 430.869512,1108.5 C430.869512,1106.47854 432.491388,1104.83982 434.492073,1104.83982 C436.492758,1104.83982 438.114634,1106.47854 438.114634,1108.5 C438.114634,1110.52146 436.492758,1112.16018 434.492073,1112.16018 Z" id="react" fill="#FFFFFF" fill-rule="nonzero"></path>
        </g>
    </g>
</svg>