<?xml version="1.0" encoding="UTF-8"?>
<svg width="35px" height="26px" viewBox="0 0 35 26" version="1.1" xmlns="http://www.w3.org/2000/svg" xmlns:xlink="http://www.w3.org/1999/xlink">
    <g id="About" stroke="none" stroke-width="1" fill="none" fill-rule="evenodd">
        <g id="Desktop-Copy-7" transform="translate(-157.000000, -1331.000000)">
            <path d="M187.128655,1345.93646 C185.907407,1345.94323 184.849903,1346.23437 183.962963,1346.66771 C183.635478,1346.02448 183.307992,1345.4625 183.253411,1345.04271 C183.192008,1344.55521 183.116959,1344.25729 183.192008,1343.675 C183.267057,1343.09271 183.608187,1342.26667 183.608187,1342.19896 C183.601365,1342.13802 183.533138,1341.8401 182.830409,1341.83333 C182.12768,1341.82656 181.520468,1341.96875 181.452242,1342.15156 C181.384016,1342.33437 181.247563,1342.75417 181.158869,1343.1875 C181.036062,1343.82396 179.753411,1346.07865 179.023392,1347.26354 C178.7846,1346.80312 178.579922,1346.39687 178.538986,1346.07187 C178.477583,1345.58437 178.402534,1345.28646 178.477583,1344.70417 C178.552632,1344.12187 178.893762,1343.29583 178.893762,1343.22812 C178.88694,1343.16719 178.818713,1342.86927 178.115984,1342.8625 C177.413255,1342.85573 176.806043,1342.99792 176.737817,1343.18073 C176.669591,1343.36354 176.594542,1343.79687 176.444444,1344.21667 C176.30117,1344.63646 174.595517,1348.40104 174.152047,1349.38281 C173.926901,1349.88385 173.729045,1350.28333 173.58577,1350.55417 C173.442495,1350.825 173.578947,1350.57448 173.565302,1350.60156 C173.442495,1350.83177 173.374269,1350.96042 173.374269,1350.96042 L173.374269,1350.96719 C173.278752,1351.13646 173.176413,1351.29896 173.128655,1351.29896 C173.094542,1351.29896 173.026316,1350.84531 173.1423,1350.2224 C173.394737,1348.91562 174.008772,1346.8776 174.001949,1346.80312 C174.001949,1346.76927 174.117934,1346.41042 173.606238,1346.2276 C173.108187,1346.04479 172.930799,1346.34948 172.889864,1346.34948 C172.848928,1346.34948 172.814815,1346.45781 172.814815,1346.45781 C172.814815,1346.45781 173.367446,1344.1625 171.75731,1344.1625 C170.747563,1344.1625 169.35575,1345.2526 168.666667,1346.24792 C168.230019,1346.4849 167.302144,1346.98594 166.319688,1347.52083 C165.944444,1347.72396 165.555556,1347.94062 165.187135,1348.13698 L165.112086,1348.05573 C163.160819,1345.99062 159.551657,1344.52812 159.701754,1341.75208 C159.756335,1340.74323 160.111111,1338.08229 166.633528,1334.85937 C171.975634,1332.21875 176.253411,1332.94323 176.997076,1334.55469 C178.054581,1336.85677 174.711501,1341.13594 169.157895,1341.75208 C167.042885,1341.98906 165.930799,1341.17656 165.651072,1340.87187 C165.3577,1340.55365 165.316764,1340.5401 165.207602,1340.60104 C165.030214,1340.69583 165.139376,1340.98021 165.207602,1341.14948 C165.371345,1341.57604 166.053606,1342.33437 167.21345,1342.71354 C168.230019,1343.04531 170.71345,1343.22812 173.7154,1342.07708 C177.078947,1340.78385 179.705653,1337.19531 178.934698,1334.19583 C178.150097,1331.14219 173.046784,1330.1401 168.223197,1331.83958 C165.350877,1332.85521 162.239766,1334.43958 160.001949,1336.51823 C157.341131,1338.98281 156.918129,1341.13594 157.095517,1342.02969 C157.716374,1345.21875 162.14425,1347.2974 163.918129,1348.83437 C163.829435,1348.88177 163.747563,1348.92917 163.672515,1348.96979 C162.785575,1349.40312 159.408382,1351.15677 158.562378,1353.01198 C157.607212,1355.11094 158.712476,1356.62083 159.449318,1356.82396 C161.72807,1357.45365 164.061404,1356.32292 165.323587,1354.46094 C166.578947,1352.59896 166.42885,1350.18177 165.848928,1349.07812 L165.82846,1349.0375 L166.524366,1348.63125 C166.974659,1348.36719 167.418129,1348.12344 167.807018,1347.91354 C167.588694,1348.5026 167.431774,1349.2 167.349903,1350.21562 C167.254386,1351.40729 167.745614,1352.95104 168.393762,1353.56042 C168.680312,1353.82448 169.021442,1353.83125 169.232943,1353.83125 C169.983431,1353.83125 170.324561,1353.2151 170.699805,1352.47708 C171.163743,1351.57656 171.573099,1350.53385 171.573099,1350.53385 C171.573099,1350.53385 171.061404,1353.35729 172.460039,1353.35729 C172.971735,1353.35729 173.483431,1352.70052 173.7154,1352.36198 L173.7154,1352.36875 C173.7154,1352.36875 173.729045,1352.34844 173.756335,1352.30104 C173.810916,1352.21979 173.838207,1352.1724 173.838207,1352.1724 L173.838207,1352.15885 C174.042885,1351.80677 174.5,1351.00104 175.182261,1349.66719 C176.062378,1347.9474 176.908382,1345.79427 176.908382,1345.79427 C176.908382,1345.79427 176.990253,1346.3224 177.24269,1347.18906 C177.392788,1347.70365 177.720273,1348.26562 177.97271,1348.81406 C177.768031,1349.09844 177.645224,1349.26094 177.645224,1349.26094 L177.652047,1349.26771 C177.488304,1349.48437 177.304094,1349.71458 177.11306,1349.94479 C176.417154,1350.77083 175.584795,1351.71198 175.475634,1351.98281 C175.346004,1352.30104 175.373294,1352.53802 175.625731,1352.7276 C175.809942,1352.86302 176.137427,1352.8901 176.48538,1352.86302 C177.11306,1352.8224 177.549708,1352.66667 177.768031,1352.57187 C178.109162,1352.45 178.498051,1352.26719 178.873294,1351.99635 C179.555556,1351.49531 179.971735,1350.78437 179.930799,1349.83646 C179.910331,1349.3151 179.739766,1348.80052 179.528265,1348.31302 C179.589669,1348.225 179.651072,1348.13698 179.712476,1348.04219 C180.790448,1346.47812 181.622807,1344.75833 181.622807,1344.75833 C181.622807,1344.75833 181.704678,1345.28646 181.957115,1346.15312 C182.086745,1346.59323 182.346004,1347.07396 182.577973,1347.54792 C181.568226,1348.36719 180.933723,1349.3151 180.7154,1349.93802 C180.312865,1351.08906 180.626706,1351.61042 181.220273,1351.73229 C181.486355,1351.78646 181.868421,1351.66458 182.154971,1351.54271 C182.509747,1351.4276 182.939571,1351.23125 183.335283,1350.9401 C184.017544,1350.43906 184.672515,1349.74167 184.638402,1348.80052 C184.617934,1348.36719 184.501949,1347.94062 184.345029,1347.53437 C185.204678,1347.18229 186.316764,1346.97917 187.729045,1347.14844 C190.765107,1347.50052 191.365497,1349.38281 191.249513,1350.16823 C191.133528,1350.95365 190.499025,1351.38698 190.287524,1351.5224 C190.076023,1351.65104 190.007797,1351.69844 190.028265,1351.79323 C190.055556,1351.93542 190.151072,1351.92865 190.335283,1351.90156 C190.587719,1351.86094 191.931774,1351.25833 191.986355,1349.80937 C192.068226,1347.9474 190.287524,1345.91615 187.128655,1345.93646 Z M163.71345,1353.77031 C162.710526,1354.86042 161.298246,1355.27344 160.697856,1354.92135 C160.049708,1354.54896 160.302144,1352.94427 161.537037,1351.78646 C162.287524,1351.08229 163.263158,1350.43229 163.904483,1350.03281 C164.047758,1349.94479 164.266082,1349.81615 164.525341,1349.66042 C164.566277,1349.63333 164.593567,1349.61979 164.593567,1349.61979 C164.641326,1349.59271 164.695906,1349.55885 164.750487,1349.525 C165.207602,1351.17708 164.770955,1352.62604 163.71345,1353.77031 Z M171.047758,1348.82083 C170.699805,1349.66719 169.962963,1351.84062 169.519493,1351.71875 C169.137427,1351.61719 168.905458,1349.97187 169.444444,1348.34687 C169.717349,1347.5276 170.297271,1346.5526 170.638402,1346.17344 C171.191033,1345.56406 171.791423,1345.36094 171.94152,1345.61146 C172.118908,1345.93646 171.266082,1348.29271 171.047758,1348.82083 Z M177.099415,1351.69167 C176.949318,1351.76615 176.812865,1351.82031 176.751462,1351.77969 C176.703704,1351.7526 176.812865,1351.65104 176.812865,1351.65104 C176.812865,1351.65104 177.570175,1350.84531 177.87037,1350.47292 C178.040936,1350.25625 178.245614,1350.00573 178.463938,1349.72135 L178.463938,1349.8026 C178.463938,1350.7776 177.522417,1351.4276 177.099415,1351.69167 Z M181.766082,1350.63542 C181.65692,1350.55417 181.670565,1350.30365 182.038986,1349.51823 C182.182261,1349.20677 182.509747,1348.68542 183.076023,1348.19115 C183.14425,1348.39427 183.185185,1348.59062 183.178363,1348.77344 C183.17154,1349.99219 182.298246,1350.44583 181.766082,1350.63542 Z" id="sass" fill="#FFFFFF" fill-rule="nonzero"></path>
        </g>
    </g>
</svg>