<?xml version="1.0" encoding="UTF-8"?>
<svg width="41px" height="38px" viewBox="0 0 41 38" version="1.1" xmlns="http://www.w3.org/2000/svg" xmlns:xlink="http://www.w3.org/1999/xlink">
    <g id="About" stroke="none" stroke-width="1" fill="none" fill-rule="evenodd">
        <g id="Desktop-Copy-7" transform="translate(-152.000000, -1404.000000)">
            <path d="M161.44062,1415.43721 L170.467616,1406.03408 L162.192869,1407.16246 L161.44062,1415.43721 Z M174.532384,1406.03408 L183.44291,1415.31588 L182.700366,1407.1479 L174.532384,1406.03408 Z M182.740337,1416.75 L172.5,1406.08298 L162.259663,1416.75 L182.740337,1416.75 Z M161.75,1418.25 L172.44728,1438.3074 L183.144559,1418.25 L161.75,1418.25 Z M190.472629,1416.75 L184.360382,1408.84003 L185.07947,1416.75 L190.472629,1416.75 Z M190.357528,1418.25 L184.844559,1418.25 L176.023809,1434.78891 L190.357528,1418.25 Z M154.527371,1416.75 L159.815089,1416.75 L160.520118,1408.99468 L154.527371,1416.75 Z M154.642472,1418.25 L168.702045,1434.47259 L160.05,1418.25 L154.642472,1418.25 Z M161.094338,1405.79838 L172.398665,1404.25688 L172.601335,1404.25688 L183.905662,1405.79838 L192.968869,1417.52723 L172.5,1441.14516 L152.031131,1417.52723 L161.094338,1405.79838 Z" id="sketch" fill="#FFFFFF" fill-rule="nonzero"></path>
        </g>
    </g>
</svg>