<?xml version="1.0" encoding="UTF-8"?>
<svg width="32px" height="35px" viewBox="0 0 32 35" version="1.1" xmlns="http://www.w3.org/2000/svg" xmlns:xlink="http://www.w3.org/1999/xlink">
    <g id="About" stroke="none" stroke-width="1" fill="none" fill-rule="evenodd">
        <g id="Desktop-Copy-7" transform="translate(-423.000000, -1249.000000)">
            <path d="M438.715392,1249 L454.430784,1257.746 L454.430784,1275.24201 L438.715392,1283.98801 L423,1275.24201 L423,1257.746 L438.715392,1249 Z M451.624754,1274.6387 L446.954806,1271.98573 L439.235178,1276.16495 L439.235178,1281.53482 L451.624754,1274.6387 Z M452.473467,1273.88356 L452.473467,1259.46404 L447.941586,1262.0411 L447.941586,1271.3105 L452.473467,1273.88356 Z M425.7573,1274.6387 L438.146877,1281.53482 L438.146877,1276.16495 L430.423188,1271.98573 L425.7573,1274.6387 Z M424.908588,1273.88356 L429.440468,1271.3105 L429.440468,1262.0411 L424.908588,1259.46404 L424.908588,1273.88356 Z M425.440556,1258.52911 L429.93995,1261.09018 L430.004923,1261.05422 L438.146877,1256.64726 L438.146877,1251.45719 L425.440556,1258.52911 Z M451.941499,1258.52911 L439.235178,1251.45719 L439.235178,1256.64726 L447.377132,1261.05023 L447.442105,1261.08619 L451.941499,1258.52911 Z M438.146877,1274.94235 L438.146877,1266.98345 L430.528769,1262.65639 L430.528769,1270.81906 L438.146877,1274.94235 Z M439.235178,1274.94235 L446.853285,1270.82306 L446.853285,1262.65639 L439.235178,1266.98345 L439.235178,1274.94235 Z M431.044494,1261.71347 L438.691027,1266.05651 L446.33756,1261.71347 L438.691027,1257.5782 L431.044494,1261.71347 Z" id="webpack" fill="#FFFFFF" fill-rule="nonzero"></path>
        </g>
    </g>
</svg>