<?xml version="1.0" encoding="UTF-8"?>
<svg width="252px" height="252px" viewBox="0 0 252 252" version="1.1" xmlns="http://www.w3.org/2000/svg" xmlns:xlink="http://www.w3.org/1999/xlink">
    <g id="Casy-Study---Two-New-Natives" stroke="none" stroke-width="1" fill="none" fill-rule="evenodd">
        <g id="Desktop-Copy-10" transform="translate(-386.000000, -3071.000000)">
            <g id="logo" transform="translate(386.000000, 3071.000000)">
                <rect id="Rectangle-2" fill="#FFFFFF" opacity="0.00999999978" x="0" y="0" width="252" height="252"></rect>
                <g id="Logo" transform="translate(0.000000, 42.000000)" fill="#16161D">
                    <path d="M57.6661114,29.51811 C53.6414628,35.4581027 49.3977431,63.7387205 55.738286,66.0459388 C58.1856229,66.9369377 62.0631809,61.378355 68.4569268,55.7634988 C68.1690048,69.316061 77.8456873,78.6512285 82.3460331,77.6226719 C92.4827648,75.3092011 86.3769409,31.9097386 86.3769409,31.9097386 C86.3769409,31.9097386 82.3898473,30.5779297 82.4211432,31.412655 C83.0752268,48.5792339 82.612048,68.4469463 79.7735128,68.303136 C77.6860783,68.2062203 77.2260291,54.6411528 76.2339501,51.9744087 C74.6691566,47.7413823 70.2032363,46.9723096 69.5366343,47.538172 C66.6198593,50.0798636 61.146212,57.1453286 60.2730573,56.3356138 C59.6815654,55.7885093 62.3855284,40.5946332 64.8203469,34.8484718 C65.524504,33.2009054 58.2732513,28.6083532 57.6661114,29.51811 Z" id="Fill-1"></path>
                    <path d="M114.307968,40.1069712 C116.657204,38.9804107 109.390316,33.9731374 104.688757,36.3173551 C92.7017887,42.2993613 90.7970862,62.8689605 101.623329,68.5047999 C103.426159,69.4400577 105.698219,69.4157653 107.710968,69.1121101 C117.981543,67.5938344 122.30957,50.5071597 118.105025,43.6232977 C117.592576,42.7852095 113.758475,42.2143379 114.162877,43.107084 C118.367423,52.3290906 111.156102,61.4691103 108.874781,63.7040121 C106.973165,65.5654181 104.997461,64.8244996 103.981826,64.1473486 C98.6011183,60.5551083 106.358845,43.9148067 114.307968,40.1069712 Z" id="Fill-2"></path>
                    <path d="M13.2867455,36.5651473 C21.1851963,31.9949154 30.5135123,28.4622327 40.4448583,25.9388879 C38.1228816,36.1263047 35.847531,47.2540984 35.6703521,57.5982447 C35.6423764,59.2094238 45.6452157,64.2999977 45.701167,62.6888185 C46.3228475,44.7620995 48.9245804,32.5027189 51.4050856,23.5942147 C76.1883789,19.2559425 102.771437,20.7448726 119.57857,27.6691815 C133.013085,33.204867 134.477143,43.5333403 142.179764,40.1542526 C145.599007,38.652784 145.440479,33.3553273 143.650039,28.612693 C138.443465,14.8079596 91.5159117,10.7925501 53.5374497,16.463023 C55.0450249,11.6326201 56.2137843,8.02470728 56.381638,4.92459799 C56.4624565,3.46387915 45.8752375,-3.31310396 45.3188335,2.0062949 C44.8370311,6.62041106 43.5967785,12.2814802 42.1575881,18.5193139 C29.0618883,21.3404447 17.8840728,25.4624302 11.1388394,30.8915397 C9.94521281,31.8538588 10.2964623,38.2954408 13.2867455,36.5651473 Z" id="Fill-3"></path>
                    <path d="M56.841815,151.468646 C55.976161,150.819229 52.1691452,154.369579 52.0202155,153.340315 C47.2451565,120.798914 47.2389511,106.043056 44.5737298,76.7978458 C44.2851785,73.6058997 33.4288229,66.949375 33.6304985,70.1474476 C30.8380664,76.9326305 22.2342727,110.558343 19.6093865,129.982652 C18.3683055,124.091949 17.0248354,118.669929 16.0009436,115.710793 C15.256295,113.566491 -0.443378967,117.181171 0.00961557918,119.999396 C0.121312865,120.719269 1.05212358,121.803673 1.50511812,121.959901 C2.48867478,122.306052 5.59137715,121.494281 5.82097713,122.661393 C6.90382025,128.037464 9.56283619,141.470074 10.7108361,148.307332 C12.3707818,158.183373 22.9789213,156.495501 23.0533861,153.095251 C23.0937212,151.217456 22.7772456,148.114345 22.2404781,144.44759 C24.7009211,117.527323 31.1452339,93.9828914 34.4868444,84.6061669 C35.876855,109.4188 37.1427576,135.478282 40.3199248,158.12517 C41.0180329,163.103013 48.386951,166.794275 50.9963237,165.709871 C54.3131125,164.331392 55.8706691,160.502282 57.8905284,157.711626 C58.8151337,156.437299 59.739739,153.649707 56.841815,151.468646 Z" id="Fill-4"></path>
                    <path d="M113.119796,105.596427 C133.067347,106.184313 152.952978,104.30808 162.572261,101.284216 C164.024287,100.827666 164.395808,96.6874438 162.541301,96.97826 C140.97454,100.37737 126.609084,100.837047 113.701845,99.0733877 C114.268414,93.357129 114.940246,88.3069333 115.658519,84.4606542 C116.110536,82.0496939 107.559374,77.9344879 106.865869,80.2860342 C105.289074,85.8134187 104.103305,91.4468104 103.317849,97.143994 C96.5902332,95.5804659 89.8316574,93.413416 82.1535685,90.7804347 C68.4661366,86.0898504 67.3144233,74.9544034 59.6425264,78.3253699 C56.2369225,79.8232299 55.840634,85.3612463 58.1781168,89.8391908 C62.9057142,98.9076537 81.6303439,103.45752 102.351896,105.039811 C101.556533,112.961582 101.191514,120.921504 101.259007,128.883614 C97.6057223,137.46435 91.1938989,148.090087 88.4848958,149.834984 C88.3632229,149.917382 88.2483611,150.00938 88.1412394,150.110165 C88.9245283,140.694599 89.9771695,131.66044 91.255819,122.423116 C90.5932742,121.075355 87.2805504,118.411103 86.1288371,119.361728 C83.9028105,121.203564 82.0328243,125.61584 80.6860628,130.731704 C77.9306196,136.566885 74.4104635,142.301906 70.0791545,141.892262 C69.4104177,141.826593 69.0543773,141.188674 69.0450893,140.510103 C68.9584012,133.161427 71.4228201,123.952247 82.0204403,114.395963 C84.0359387,111.05314 78.6148364,109.930527 73.0172619,111.384608 C65.8407256,114.108274 57.0480754,132.357774 58.9954617,139.840913 C59.5867984,142.111156 63.9273954,145.91991 66.4258703,146.532813 C66.4689047,146.564115 66.5172024,146.587411 66.5682865,146.601608 C71.2618279,147.852431 78.6024524,142.408226 78.6024524,142.408226 L78.6272204,142.376955 C78.292852,145.904275 78.258796,149.131397 78.5807803,151.476689 C79.110197,155.338603 82.3826727,156.645713 85.0452358,156.717635 C91.0236187,157.586957 96.410665,148.199534 101.454055,135.903949 C101.763655,142.630247 102.438584,148.668592 103.454073,153.362304 C104.005162,155.910854 110.240513,159.341235 112.810196,159.597654 C114.048597,159.719609 112.732796,155.050914 112.639916,154.112797 C111.367458,141.423203 111.831859,121.8665 113.119796,105.596427 Z" id="Fill-5"></path>
                    <path d="M186.168537,99.8725443 C185.472819,97.9490237 178.051829,98.5360722 178.085842,100.587619 C178.518733,127.554379 174.582517,127.516908 163.141825,147.835749 C161.339143,140.563217 159.607578,131.844829 160.111587,120.981309 C160.216718,118.739284 151.515608,115.716608 150.96831,117.889937 C150.740424,118.820783 150.567886,119.764433 150.451933,120.715888 C147.721627,130.623893 135.133773,155.245675 136.475736,144.866158 C136.97356,138.817685 136.450999,134.143061 135.47081,128.250718 C134.827658,124.363083 119.840351,127.092234 119.701207,130.002496 C119.667194,130.742552 120.35982,132.013449 120.771067,132.260134 C121.661585,132.794099 125.328791,132.260134 125.325699,133.471703 C125.310239,139.058125 125.607078,138.211901 125.365896,145.272096 C125.146358,151.685913 128.906326,154.44629 131.918011,154.77104 C131.964083,154.792398 132.013247,154.807106 132.063339,154.814756 C138.748414,155.845214 144.691389,144.026179 150.226211,129.640274 C150.73022,139.38912 153.231712,150.561777 156.045503,155.014602 C156.914378,156.388546 158.828374,156.99433 160.303296,157.31908 C161.521575,157.584501 164.165303,157.575133 164.873389,157.17544 C165.389766,156.885039 166.419428,154.61491 166.784294,154.052842 C167.313967,153.22017 167.82416,152.380191 168.314873,151.532905 C169.344535,149.753024 170.303079,147.929427 171.227611,146.090216 C173.339501,141.905935 175.315339,137.659201 177.427229,133.46858 C183.800004,120.86265 188.840093,107.298083 186.168537,99.8725443 Z" id="Fill-6"></path>
                    <path d="M177.637146,83.9757206 C177.6751,84.0821692 177.741283,84.1764076 177.828482,84.2481039 C187.552103,97.804656 201.933652,82.3883829 207.33183,75.6320228 C206.052076,82.0752986 205.001298,89.2637151 204.995024,95.6694208 C204.995024,100.78835 210.678638,101.129612 210.703731,101.135873 C216.233648,101.996855 225.010001,87.0752556 229.235071,80.4128207 C229.921997,89.107173 232.685388,103.058211 238.714033,106.445784 C240.545838,107.475831 244.334913,108.076953 247.687994,101.946762 C247.748845,101.864108 247.798404,101.773626 247.835417,101.677509 C251.204181,92.9111477 250.159676,63.4154717 246.797185,49.2577977 C246.618396,48.5032644 242.685034,47.8833574 242.794817,48.6535449 C246.147898,72.0002444 243.801682,80.1404374 241.860095,93.9161485 L241.860095,94.1102608 C239.062201,90.1153045 237.751081,86.6244141 236.960644,79.6019323 C236.709712,77.3759026 230.223116,74.6645922 229.119015,75.2625833 C223.956085,81.2299709 217.874117,86.3144606 214.549266,90.76652 C215.672188,81.5774945 217.152687,73.1367406 217.770608,65.1186506 C217.92744,63.0616864 211.512987,58.4186456 210.979756,60.4223854 C210.2646,63.0867332 209.238915,66.9971566 208.238323,71.4930478 L207.984254,71.2394495 C207.984254,71.2394495 184.713433,95.9418042 186.253529,78.6626793 C196.074386,73.4560866 217.067998,50.4256023 196.500971,51.3053693 C194.192395,51.4055563 189.61602,52.9271462 187.759122,54.2984556 C177.408171,61.9314519 174.509904,75.3220693 177.533637,83.5906268 C177.53646,83.7255662 177.571904,83.8576878 177.637146,83.9757206 Z M189.496827,64.7053792 C190.804811,61.8876201 191.912049,58.850702 193.97283,56.4806535 C194.47438,55.8391437 195.102024,55.3062741 195.817181,54.9152318 C196.439493,54.6174886 197.144298,54.5360867 197.818365,54.6835494 C198.98614,54.9005168 199.909571,55.8097138 200.142624,56.9721959 C201.152626,61.6214984 192.36059,69.0415974 189.016919,72.4323008 C188.555832,72.8987965 186.655021,74.0759936 186.582878,73.4247782 C186.272349,70.6758977 188.389589,67.0816894 189.496827,64.7053792 Z" id="Fill-7"></path>
                    <path d="M140.831313,66.0561395 C140.984906,59.6125685 140.887735,54.745748 140.633836,51.5984546 C140.473974,49.5902704 126.25565,49.307821 126.004886,51.8250349 C125.942195,52.4675297 126.497011,53.5973273 126.851215,53.8301153 C127.616046,54.3329373 130.440276,54.3050027 130.38072,55.3572044 C130.117417,60.202298 129.167648,71.0440097 128.634775,77.1585737 C127.869944,85.9889974 138.386363,89.3845979 139.204481,86.4700926 C139.260903,86.4018081 139.383151,82.2395592 140.458302,79.5361149 C147.040859,62.8995346 155.356823,35.3250236 159.055594,28.4996803 C158.218668,46.4553924 156.027617,63.5265102 156.322265,81.5101569 C156.400629,86.3086929 162.444043,90.5888877 164.575538,90.2847114 C166.707033,89.9805351 169.672318,86.4359503 171.355572,84.4122469 C172.126672,83.481095 172.97927,81.4046263 170.888524,79.591984 C170.261614,79.0519159 166.967201,80.5231359 166.907644,79.7254491 C164.992434,54.6495289 167.816664,45.4528522 167.340212,23.0027803 C167.302598,21.2429033 164.904666,19.507857 163.650846,18.5767051 C162.830847,17.9280026 161.924648,17.393211 160.958266,16.9875392 C160.017901,16.6305976 159.632351,16.7454397 159.28755,17.6610724 C158.585411,19.5233762 157.660718,21.286357 156.892753,23.1207263 C155.952388,25.3958407 155.012023,27.6864743 154.128079,29.9833156 C151.869008,35.762665 149.698018,41.5742942 147.614482,47.4175827 C145.486122,53.3459163 143.417318,59.2990807 141.480165,65.2894911 C141.257612,66.0095819 140.909677,66.5061962 140.831313,66.0561395 Z" id="Fill-8"></path>
                    <path d="M124.786415,114.893003 C122.919412,115.835575 124.345718,121.125519 125.906021,121.543218 C127.990394,122.092823 132.525395,121.81802 133.996367,120.152719 C134.577014,119.498689 134.639545,114.947964 133.45443,114.24447 C130.843008,112.694585 127.558631,113.497008 124.786415,114.893003 Z" id="Fill-9"></path>
                    <path d="M228.525454,137.342515 C228.840998,135.958931 229.31447,134.616941 229.936526,133.343331 C233.406577,129.752953 236.443651,126.31034 238.786092,123.534242 C241.950879,121.113409 244.321354,119.547727 243.249812,117.988334 C242.056787,116.252879 236.396927,116.466667 234.403361,117.095455 C228.709236,118.893788 220.171165,129.300226 218.442369,135.066209 C217.819379,137.141303 218.320886,138.55922 219.53883,139.552704 C208.948008,147.126453 192.575843,156.891527 193.37327,144.076832 C204.559047,139.584144 229.914721,117.02 207.673994,115.517198 C205.182036,115.347425 200.067292,116.460379 197.905518,117.717955 C191.971855,121.253943 187.384783,126.702074 184.885037,133.18299 C182.025515,140.543045 180.904134,149.289483 188.330169,154.005391 C197.329253,159.721072 210.798287,151.150695 222.211455,140.844863 C229.410099,143.04562 243.704594,140.844863 243.037996,146.529105 C243.037996,146.566832 243.037996,146.607703 243.016191,146.64543 C240.947866,156.243876 230.497216,161.855806 215.386605,154.266338 C214.586063,153.863914 213.100233,155.894898 213.720108,156.548838 C226.802888,170.284706 250.984227,169.979744 251.99347,148.292854 C252.457597,137.993311 228.023948,139.543273 228.525454,137.342515 Z M206.499659,119.289924 C209.636411,118.78375 211.075517,119.7175 210.941575,122.119469 C210.63008,127.926324 201.129489,134.330528 197.123667,137.622326 C196.572321,138.075053 194.385628,139.128273 194.385628,138.411455 C194.382513,135.081929 203.985896,119.695492 206.499659,119.289924 Z" id="Fill-10"></path>
                </g>
            </g>
        </g>
    </g>
</svg>