<?xml version="1.0" encoding="UTF-8"?>
<svg width="151px" height="100px" viewBox="0 0 151 100" version="1.1" xmlns="http://www.w3.org/2000/svg" xmlns:xlink="http://www.w3.org/1999/xlink">
    <g id="Casy-Study---Two-New-Natives" stroke="none" stroke-width="1" fill="none" fill-rule="evenodd">
        <g id="Desktop-Copy-10" transform="translate(-202.000000, -3508.000000)">
            <g id="Logo" transform="translate(202.000000, 3508.000000)" fill="#FFFFFF">
                <path d="M34.5326133,17.7631104 C32.1225039,21.3376193 29.5812066,38.3560442 33.3781596,39.7444587 C34.843716,40.2806351 37.1657421,36.9356473 40.994555,33.5567957 C40.8221366,41.7123199 46.6168941,47.3299428 49.3118687,46.7109884 C55.3821208,45.3188113 51.7257263,19.2023206 51.7257263,19.2023206 C51.7257263,19.2023206 49.3381063,18.4008781 49.3568474,18.9031906 C49.748537,29.2335213 49.4711683,41.1893128 47.7713478,41.1027721 C46.5213144,41.0444512 46.2458197,32.8814017 45.6517259,31.2766353 C44.7146694,28.7293274 42.0403101,28.2665226 41.641124,28.6070416 C39.8944507,30.1365551 36.6166269,34.3883394 36.0937494,33.9010774 C35.739542,33.5718463 37.3587757,24.4286288 38.8168357,20.9707618 C39.2385111,19.9793059 34.8961912,17.2156462 34.5326133,17.7631104 Z" id="Fill-1"></path>
                <path d="M68.4518644,24.1351685 C69.8586743,23.4572383 65.5069917,20.4440119 62.6915233,21.8546916 C55.5132804,25.4544829 54.3726737,37.8326488 60.8558305,41.2241274 C61.9354323,41.7869374 63.2960263,41.7723189 64.5013352,41.5895884 C70.651738,40.6759358 73.2435218,30.3936891 70.7256833,26.251188 C70.4188102,25.7468518 68.1228077,25.4033184 68.3649787,25.9405461 C70.8828171,31.4900722 66.5644099,36.9902611 65.1982699,38.3351577 C64.0595119,39.4552959 62.8763866,39.0094334 62.2681863,38.6019443 C59.0460185,36.4402422 63.6916339,26.4266093 68.4518644,24.1351685 Z" id="Fill-2"></path>
                <path d="M7.95659761,22.0038054 C12.6864838,19.2535774 18.2726265,17.1277152 24.2198861,15.6092423 C22.8294001,21.7397232 21.4668354,28.4360946 21.3607341,34.6608906 C21.3439812,35.6304497 27.3340536,38.6938039 27.3675593,37.7242448 C27.7398447,26.9364847 29.2978592,19.5591583 30.783278,14.1982885 C45.6244362,11.5876468 61.5433607,12.4836402 71.6080969,16.6504809 C79.6531848,19.9816899 80.529917,26.1970544 85.1425333,24.163621 C87.1901031,23.2600824 87.0951703,20.0722324 86.0229883,17.2182577 C82.9050979,8.91098452 54.8031332,6.49463189 32.060217,9.90695188 C32.9630091,7.00016078 33.6629057,4.82902739 33.7634228,2.96347489 C33.8118199,2.08445825 27.4717992,-1.99372628 27.1386038,1.2073279 C26.8500826,3.98396418 26.1073732,7.39062526 25.2455324,11.1443659 C17.4033401,12.8420375 10.7096483,15.3225244 6.67035149,18.5895991 C5.95556349,19.1686938 6.16590475,23.045044 7.95659761,22.0038054 Z" id="Fill-3"></path>
                <path d="M34.0389938,91.1492734 C33.520608,90.7584738 31.2408253,92.8949681 31.1516407,92.2755875 C28.2921577,72.693152 28.2884417,63.8135205 26.6924079,46.2146329 C26.5196127,44.2938158 20.018423,40.2881194 20.1391939,42.2126233 C18.4669816,46.2957422 13.3147098,66.5306841 11.7428303,78.2196489 C10.9996248,74.6748012 10.1951049,71.4119928 9.58196042,69.6312737 C9.13603715,68.3408975 -0.265511824,70.5161031 0.0057581666,72.2120261 C0.0726466573,72.6452238 0.630050747,73.2977854 0.901320737,73.3917986 C1.49031106,73.6001021 3.34832469,73.1116026 3.4858177,73.8139359 C4.13426445,77.0490933 5.72658214,85.1324337 6.41404718,89.2468903 C7.40808447,95.1899943 13.7606331,94.1742839 13.8052254,92.1281159 C13.8293796,90.9981151 13.6398622,89.1307564 13.3184258,86.9242132 C14.7918306,70.7244067 18.650925,56.5560762 20.6520056,50.9134456 C21.4843957,65.8449413 22.2424653,81.526754 24.1450713,95.1549698 C24.5631243,98.1504859 28.9759067,100.371776 30.5384962,99.7192146 C32.5247127,98.8896871 33.4574356,96.5854439 34.6670025,94.9061115 C35.2206905,94.1392594 35.7743786,92.4617704 34.0389938,91.1492734 Z" id="Fill-4"></path>
                <path d="M67.7403431,63.5447524 C79.6856789,63.8985249 91.5939347,62.7694639 97.3543194,60.9497939 C98.2238464,60.6750557 98.4463266,58.1835945 97.3357793,58.3585989 C84.4208004,60.4040811 75.8182305,60.680701 68.0888955,59.6193837 C68.4281779,56.1795112 68.8304964,53.1404554 69.2606249,50.8258804 C69.5313092,49.375037 64.4105553,46.8986299 63.9952588,48.3137197 C63.0510155,51.6399334 62.3409327,55.029939 61.8705723,58.4583327 C57.8418257,57.5174485 53.794539,56.2133831 49.1966137,54.6289341 C41.0000702,51.8062817 40.3103814,45.1053047 35.7161641,47.1338509 C33.6767617,48.035218 33.4394495,51.3678297 34.8392211,54.0625219 C37.6702824,59.51965 48.8832873,62.2576229 61.2921237,63.2097977 C60.8158305,67.9768813 60.5972437,72.7669226 60.6376609,77.5582811 C58.4499384,82.7219098 54.6102999,89.1161585 52.9880481,90.1661852 C52.9151858,90.2157698 52.8464023,90.2711315 52.7822538,90.3317809 C53.2513164,84.6657765 53.8816771,79.2292913 54.64738,73.6705477 C54.2506235,72.8595056 52.2668412,71.256239 51.5771524,71.8282966 C50.2441249,72.9366581 49.1243076,75.5918332 48.3178167,78.6704061 C46.6677548,82.1818423 44.5597543,85.6330054 41.9660053,85.3864937 C41.5655409,85.3469766 41.3523306,84.9630958 41.3467686,84.5547521 C41.2948565,80.1325401 42.7706422,74.5907324 49.1168916,68.8400485 C50.323847,66.8284381 47.0774892,66.1528833 43.7254534,67.0279056 C39.4278764,68.6669258 34.1625103,79.6489257 35.3286776,84.1520537 C35.6827921,85.5182175 38.2821031,87.8102113 39.7782828,88.1790379 C39.8040534,88.1978744 39.8329759,88.2118936 39.8635669,88.2204368 C42.6742341,88.9731441 47.0700732,85.6969855 47.0700732,85.6969855 L47.0849052,85.6781678 C46.884673,87.8008025 46.864279,89.7427874 47.0570952,91.1541136 C47.3741296,93.4780975 49.3338098,94.2646766 50.9282517,94.3079573 C54.5083298,94.8310889 57.7342936,89.1820204 60.754463,81.7829074 C60.9398633,85.830591 61.3440357,89.4642857 61.9521484,92.2888199 C62.2821608,93.8224611 66.0161211,95.8867609 67.5549429,96.0410659 C68.2965438,96.1144549 67.5085929,93.3049748 67.4529728,92.7404443 C66.6909779,85.1042285 66.9690782,73.335593 67.7403431,63.5447524 Z" id="Fill-5"></path>
                <path d="M111.484647,60.1002921 C111.068025,58.9427753 106.624061,59.2960435 106.644429,60.5306028 C106.90366,76.7583872 104.546507,76.7358382 97.695395,88.9631055 C96.6158819,84.5867148 95.5789568,79.340251 95.8807761,72.8029117 C95.9437322,71.4537282 90.7331837,69.6347732 90.4054413,70.9426169 C90.2689745,71.5027723 90.1656524,72.070632 90.0962154,72.6431895 C88.4612068,78.6055285 80.9231317,93.4221759 81.7267487,87.1760949 C82.0248646,83.5363059 81.7119355,80.7232581 81.1249618,77.1774233 C80.7398182,74.8379616 71.7648613,76.4802825 71.6815369,78.2315904 C71.6611688,78.6769338 72.0759388,79.4417217 72.3222085,79.5901694 C72.8554843,79.9114931 75.0515435,79.5901694 75.0496918,80.3192547 C75.0404335,83.6809955 75.2181921,83.1717632 75.0737633,87.4203761 C74.942296,91.2800182 77.1939047,92.94113 78.9974137,93.1365549 C79.0250033,93.1494078 79.0544446,93.1582583 79.0844414,93.1628621 C83.0877129,93.7829604 86.6465879,86.6706209 89.9610448,78.0136165 C90.2628641,83.8801785 91.7608505,90.6035473 93.4458538,93.2831236 C93.966168,94.1099213 95.1123405,94.4744639 95.9955785,94.6698889 C96.7251293,94.8296111 98.3082917,94.8239739 98.73232,94.5834509 C99.0415459,94.4086959 99.658146,93.0426006 99.8766409,92.7043652 C100.193829,92.2032882 100.499351,91.6978141 100.793209,91.187943 C101.409809,90.1168641 101.983821,89.019478 102.537465,87.9126965 C103.802143,85.3947216 104.985349,82.839165 106.250027,80.3173756 C110.066282,72.7315065 113.084474,64.568758 111.484647,60.1002921 Z" id="Fill-6"></path>
                <path d="M106.375733,50.5340619 C106.398461,50.5981195 106.438094,50.6548294 106.490312,50.6979741 C112.313178,58.8558992 120.925385,49.5788499 124.158015,45.5130757 C123.39165,49.3904452 122.762405,53.716218 122.758648,57.5709789 C122.758648,60.6513963 126.162207,60.8567575 126.177234,60.8605256 C129.488755,61.3786386 134.744361,52.3992688 137.27449,48.390016 C137.685847,53.6220156 139.340668,62.0173307 142.950845,64.05587 C144.047798,64.6757215 146.316838,65.0374586 148.324787,61.3484939 C148.361227,61.298755 148.390905,61.2443061 148.413069,61.1864658 C150.430411,55.9111331 149.804922,38.1615228 147.791337,29.6418606 C147.684272,29.1878051 145.328829,28.8147638 145.394571,29.2782394 C147.40252,43.3275807 145.997519,48.2261039 144.834824,56.5159124 L144.834824,56.6327233 C143.159341,54.2286788 142.374194,52.127966 141.900851,47.9020477 C141.750584,46.5624901 137.866168,44.930905 137.204991,45.2907581 C134.113237,48.8817524 130.471128,51.9414453 128.480084,54.6205607 C129.152531,49.0908816 130.039109,44.0114899 130.409143,39.1864446 C130.50306,37.9486255 126.661847,35.1545832 126.342529,36.3603735 C125.914266,37.9636978 125.300048,40.316873 124.700856,43.022365 L124.54871,42.8697572 C124.54871,42.8697572 110.613277,57.734891 111.535544,47.3368335 C117.416638,44.2036627 129.988394,30.3446102 117.672093,30.8740276 C116.289632,30.9343171 113.549128,31.8499641 112.437149,32.6751768 C106.238614,37.2684844 104.503024,45.326555 106.313748,50.3023241 C106.315438,50.3835265 106.336663,50.4630333 106.375733,50.5340619 Z M113.477751,38.9377503 C114.261021,37.2421077 114.924076,35.4145817 116.158148,33.9883579 C116.458495,33.6023166 116.834352,33.2816517 117.262614,33.0463342 C117.635278,32.8671613 118.057341,32.818176 118.460998,32.9069147 C119.160305,33.0374792 119.713289,33.5846065 119.85285,34.2841533 C120.457677,37.0819637 115.192679,41.5471559 113.190365,43.5875793 C112.914248,43.8683023 111.775972,44.5767041 111.73277,44.1848223 C111.546814,42.5306287 112.814696,40.3677423 113.477751,38.9377503 Z" id="Fill-7"></path>
                <path d="M84.3350306,39.7505972 C84.4270078,35.8730501 84.3688181,32.9443439 84.2167742,31.0503975 C84.1210428,29.8419326 75.6065813,29.6719631 75.4564144,31.1867467 C75.4188727,31.5733807 75.7511169,32.2532589 75.9632276,32.3933437 C76.4212366,32.6959269 78.1124909,32.6791167 78.0768263,33.3123 C77.9191511,36.2279315 77.3503941,42.7521474 77.0312895,46.4317081 C76.5732805,51.7455914 82.8709036,53.7889616 83.360823,52.0350999 C83.3946106,51.9940084 83.4678169,49.4892922 84.1116574,47.8624408 C88.0535377,37.8510474 93.0334465,21.2575363 95.2484078,17.1502501 C94.7472259,27.9554574 93.4351429,38.2283424 93.6115889,49.0503599 C93.6585161,51.9379745 97.2775376,54.5136669 98.553956,54.3306228 C99.8303744,54.1475787 101.606098,52.0145542 102.614093,50.7967503 C103.075856,50.2364112 103.586423,48.9868548 102.334407,47.8960612 C101.95899,47.5710644 99.9861726,48.4564003 99.9505079,47.9763764 C98.8036085,32.8864422 100.494863,27.3521588 100.209546,13.8423811 C100.187021,12.78334 98.7510501,11.7392414 98.0002157,11.1789022 C97.50917,10.7885325 96.9665045,10.4667111 96.3877989,10.22259 C95.8246732,10.0077933 95.5937916,10.0769018 95.3873122,10.627902 C94.9668449,11.7485803 94.4131046,12.8094892 93.9532186,13.9133574 C93.3900928,15.2824528 92.8269671,16.6608872 92.2976288,18.0430572 C90.9448131,21.5208957 89.6447434,25.0181594 88.3970444,28.5344745 C87.1225031,32.1019673 85.8836264,35.6844025 84.7235874,39.2892513 C84.5903143,39.7225803 84.3819577,40.0214278 84.3350306,39.7505972 Z" id="Fill-8"></path>
                <path d="M74.7267482,69.1391524 C73.6087174,69.7063637 74.462843,72.8896927 75.3972101,73.1410516 C76.6454104,73.4717871 79.3611377,73.3064193 80.2420105,72.3042909 C80.5897235,71.9107157 80.6271695,69.1722259 79.9174784,68.7488845 C78.3536617,67.8162105 76.3868547,68.2990843 74.7267482,69.1391524 Z" id="Fill-9"></path>
                <path d="M136.849545,82.6485933 C137.038505,81.8159938 137.322038,81.0084244 137.694547,80.2420044 C139.772543,78.0814229 141.591256,76.009762 142.993997,74.3391897 C144.889189,72.8824053 146.308718,71.9402253 145.667039,71.0018291 C144.952611,69.9574849 141.563276,70.086136 140.369454,70.4645216 C136.959601,71.5467043 131.846686,77.8089853 130.811418,81.2787809 C130.438349,82.52751 130.73867,83.3807694 131.46802,83.9786186 C125.125842,88.5362726 115.32158,94.4126004 115.799109,86.7011027 C122.497569,83.9975379 137.68149,70.4191153 124.362915,69.5147738 C122.870638,69.4126097 119.807739,70.0823522 118.513188,70.8391233 C114.95989,72.9669745 112.21298,76.2454962 110.71604,80.1455161 C109.003651,84.5745758 108.332127,89.837919 112.779113,92.6758106 C118.168099,96.1153354 126.233858,90.9579402 133.068488,84.7562009 C137.379304,86.0805504 145.939379,84.7562009 145.540195,88.1768063 C145.540195,88.1995095 145.540195,88.2241045 145.527138,88.2468077 C144.288547,94.0228632 138.03031,97.3999543 128.981513,92.8328406 C128.502119,92.5906739 127.612349,93.8128592 127.983553,94.2063802 C135.818009,102.472213 150.298694,102.288696 150.903066,89.2381778 C151.181003,83.0402224 136.549224,83.9729428 136.849545,82.6485933 Z M123.65968,71.7850872 C125.538084,71.4804868 126.399874,72.0423894 126.319664,73.4878222 C126.133129,76.9822128 120.443822,80.8360698 118.044986,82.8169749 C117.71482,83.0894125 116.405347,83.7232083 116.405347,83.2918488 C116.403481,81.2882405 122.154345,72.0291459 123.65968,71.7850872 Z" id="Fill-10"></path>
            </g>
        </g>
    </g>
</svg>