<?xml version="1.0" encoding="UTF-8"?>
<svg width="224px" height="197px" viewBox="0 0 224 197" version="1.1" xmlns="http://www.w3.org/2000/svg" xmlns:xlink="http://www.w3.org/1999/xlink">
    <!-- Generator: Sketch 51 (57462) - http://www.bohemiancoding.com/sketch -->
    <title>beeatrix</title>
    <desc>Created with Sketch.</desc>
    <defs>
        <path d="M7.93772816,0.119540435 C12.8542947,-0.373563859 17.3463278,4.21028444 17.9626796,10.3499163 C18.5790314,16.4895482 15.0877784,21.8741417 10.1711239,22.367246 C5.2545574,22.8603503 0.762524272,18.275623 0.146172473,12.1359911 C-0.470179326,5.99723815 3.02107367,0.611765756 7.93772816,0.119540435 Z" id="path-1"></path>
        <path d="M7.92415373,0.0720758505 C12.8348486,-0.421028444 17.3214369,4.16369883 17.9370416,10.3024518 C18.5525584,16.4420837 15.0655373,21.8266771 10.1549302,22.3197814 C5.24423529,22.8128857 0.757647059,18.2290374 0.142042353,12.0894055 C-0.473562353,5.94977356 3.01354667,0.565180145 7.92415373,0.0720758505 Z" id="path-3"></path>
    </defs>
    <g id="Casy-Study---Marketplace-Strategy-Solutions" stroke="none" stroke-width="1" fill="none" fill-rule="evenodd">
        <g id="beeatrix">
            <path d="M95.6876051,10.3682403 C117.740741,-12.2438023 71.177807,6.35007003 41.4347566,25.9934695 C11.6917061,45.6361849 25.5341192,52.9705599 47.8017424,49.6468291 C70.0694409,46.3224142 61.9116334,58.9379498 41.745523,91.3775076 C21.5793784,123.817065 12.6127235,135.153122 45.7611452,133.225043 C78.9094986,131.296896 75.6771856,136.185271 55.3124445,165.278384 C34.947635,194.371434 51.532239,206.28144 91.0828599,183.740415 C130.633618,161.19939 119.014576,180.191932 117.265532,187.902741 C115.515804,195.613564 113.718897,204.367798 139.329608,186.227876 C164.939636,168.087955 162.340001,176.536033 158.87063,185.477813 C155.40126,194.419518 159.051825,208.475595 196.659694,169.009542 C234.267563,129.543488 227.760955,130.76317 208.171386,135.850298 C188.581818,140.937426 188.410195,134.451088 201.320849,116.197389 C214.230819,97.9435522 219.981195,77.6447113 173.28486,107.105363 C126.589209,136.565126 123.091121,109.605345 162.380342,62.0071668 C201.669564,14.4083041 187.960285,18.4346845 165.644587,30.2230504 C143.328889,42.0107321 119.930807,47.2091073 139.58123,25.7334824 C159.230969,4.25854162 150.131563,1.12501197 113.643684,26.8315861 C77.1555998,52.5381602 73.6349475,32.9795986 95.6876051,10.3682403 Z" id="Fill-1" fill="#FFD8DF"></path>
            <path d="M14.7569167,165.029171 C14.9747218,165.047681 15.179324,165.143758 15.3346992,165.298892 L21.2866978,171.559238 C21.4148801,171.701502 21.4408489,171.763644 21.4802829,171.876733 C21.6863714,172.467562 21.0878665,173.207356 20.4187125,173.01767 C20.3140507,172.988053 20.2151597,172.938516 20.1284223,172.872496 C20.0912617,172.844202 20.0573362,172.812118 20.0241977,172.779064 L14.0721991,166.518806 C13.9440167,166.376013 13.9181354,166.314312 13.878614,166.200606 C13.7012047,165.692896 14.0895115,165.053851 14.663884,165.028289 C14.6948366,165.026527 14.7258767,165.027408 14.7569167,165.029171 Z" id="Fill-54" fill="#C72027"></path>
            <path d="M14.0647622,161.29169 C14.5318116,161.298688 14.9894514,161.498136 15.3120153,161.836672 C15.7035242,162.258312 16.089405,162.684326 16.4780118,163.10859 C17.0767074,163.770791 17.0609661,164.8835 16.3797829,165.524708 C15.6351069,166.209653 14.8813731,166.884627 14.1321243,167.564499 C13.4680893,168.158906 12.3485251,168.145172 11.7026058,167.466875 C11.2766244,167.008407 10.8166982,166.571809 10.4397873,166.080187 C9.93052675,165.414486 9.99824055,164.378757 10.6347503,163.778664 C11.3794263,163.093719 12.13316,162.41927 12.8824968,161.739573 C13.1948597,161.459646 13.6032531,161.299563 14.0237822,161.29169 C14.0442722,161.29169 14.0442722,161.29169 14.0647622,161.29169 Z M11.856237,165.038335 L12.9688539,166.251642 L15.1582962,164.265037 L14.0456793,163.051729 C13.3158652,163.713931 12.5860511,164.376133 11.856237,165.038335 Z" id="Fill-55" fill="#C72027"></path>
            <path d="M24.7933571,121.367207 C24.7933571,121.367207 1.69444109,108.672939 0.0894738573,130.345093 C-1.51542311,152.018127 18.7209354,166.849008 40.6044009,154.761883 C62.4877787,142.674407 24.7933571,121.367207 24.7933571,121.367207 Z" id="Fill-56" fill-opacity="0.5016" fill="#E6232C"></path>
            <path d="M68.4115383,102.967878 C68.4115383,102.967878 82.6871023,80.7945013 94.4088186,99.083273 C106.129656,117.372045 95.3873851,140.058914 70.3920375,139.865475 C45.3964263,139.672036 68.4115383,102.967878 68.4115383,102.967878 Z" id="Fill-57" fill-opacity="0.5016" fill="#E6232C"></path>
            <polygon id="Fill-58" fill="#B31A21" points="123.134159 172.278862 127.921569 179.68536 119.576471 180.848857"></polygon>
            <path d="M56.9211789,52.7384272 C59.3603614,52.7586681 61.6421176,54.2635304 62.8335184,56.497063 C64.0513477,58.7807576 64.242074,61.4789495 64.0721382,64.0319353 C63.9128619,66.4229944 63.3724854,68.7762119 62.5728444,71.0396657 C62.3362204,71.7084934 62.0582798,72.3720409 61.7702963,73.0276681 C61.7599891,73.0514291 61.7599891,73.050549 61.7493296,73.07431 C61.4675128,73.6859354 61.1685173,74.2905204 60.8547219,74.8889452 L60.8256504,74.9435075 C60.2323286,76.0224322 59.5868544,77.0740758 58.8995349,78.093158 C58.8798016,78.1221992 58.8327587,78.1926021 58.8124087,78.2216434 C58.2473655,79.0224765 57.6568627,79.804829 57.0357909,80.5607803 C56.7098383,80.9576767 56.3661786,81.349293 56.0067498,81.7241885 C56.0067498,81.7241885 55.7399972,81.8544339 55.7399972,81.8544339 C55.7399972,81.8544339 55.4695447,81.7796308 55.4695447,81.7796308 L55.3437446,81.5332206 C55.3744018,81.4073754 55.4025923,81.2621694 55.4184494,81.2375283 C55.4290208,81.2216877 55.4395042,81.205847 55.4500756,81.1900064 C56.9117527,78.9635141 58.1303749,76.5706949 59.1247946,74.1637952 C59.1247946,74.1637952 59.3193971,73.7096964 59.4787615,73.3136799 C60.3552216,71.1364697 61.0974244,68.8906166 61.5053937,66.5734806 C61.9769678,63.8955296 62.1668132,61.1357352 61.2377602,58.5501881 C60.7672433,57.2398138 59.8962451,56.0077627 58.5887347,55.4216584 C57.5535269,54.9578792 56.3327024,54.8645953 55.2962612,55.5413434 C54.2045844,56.255053 53.3682957,57.5126251 53.6730174,58.7781175 C53.8920223,59.6880752 54.6085013,60.4361062 55.3873518,60.9817289 C55.7692449,61.25014 56.2370309,61.4648689 56.6664073,61.2906217 C57.3532863,61.0134102 57.6498151,60.0172089 57.3134673,59.3791824 L57.3130268,59.3783024 C57.2700363,59.2313363 57.1978862,59.0896504 57.1838791,58.9374041 C57.1471434,58.5352275 57.2629887,58.4357833 57.4420864,58.1004894 C57.4420864,58.1004894 57.7987842,57.8074373 57.7987842,57.8074373 L58.2399655,57.6780719 C58.6809705,57.7264739 58.6864324,57.728234 59.0778398,57.9368027 L59.37014,58.2914574 C60.3301144,60.1008123 59.4664282,62.7382817 57.4538031,63.4863127 C56.1505213,63.9694527 54.650787,63.4176698 53.5628101,62.5173925 C52.4206547,61.5713533 51.4609445,60.2865 51.3006992,58.7103547 C51.0436371,56.18377 53.0491265,53.6299042 55.4089351,52.9390755 C55.8698497,52.80443 56.3503214,52.7445875 56.8329955,52.7384272 C56.8771313,52.7384272 56.8770432,52.7384272 56.9211789,52.7384272 Z" id="Fill-59" fill="#C72027"></path>
            <path d="M19.4352941,115.293471 C20.2544608,81.2670692 34.5042548,75.3027369 46.9648441,75.0487299 C59.4254334,74.7947228 74.0786634,82.1152243 77.3937944,106.859381 C80.708574,131.602659 83.4370805,133.691845 93.1198974,134.748303 C102.803593,135.803883 134.957289,148.173764 122.243872,176.82752 C109.531332,205.48154 76.4305183,197.767723 58.1904483,188.268474 C41.6500086,179.654469 20.1144788,150.656705 19.4352941,115.293471" id="Fill-60" fill="#E6232C"></path>
            <path d="M101.161913,136.790296 C105.70759,138.444089 110.968001,141.092268 115.403922,144.846493 C114.918359,148.491695 114.222063,152.108764 113.333474,155.674837 C111.400881,163.427707 108.42165,170.94407 104.384365,177.898002 C100.444544,184.684357 95.8005258,191.034623 90.5734804,196.889983 C84.4771633,196.904842 78.2592359,195.778311 72.4705882,194.050488 C74.6984703,191.957442 76.8293277,189.762935 78.8787018,187.4973 C83.8958926,181.949575 88.3581545,175.942552 92.0512425,169.386726 C97.4863862,159.739423 100.334788,148.776559 101.099571,137.744238 C101.121523,137.425964 101.142596,137.108569 101.161913,136.790296 Z" id="Fill-61" fill="#C72027"></path>
            <path d="M102.430484,111.748332 C103.161701,111.900391 103.165221,111.899512 103.846283,112.206267 C103.847163,112.206267 103.847163,112.207146 103.848043,112.207146 C104.400636,112.630802 104.548463,112.676508 104.950589,113.260133 C105.723163,114.3808 105.920266,115.88469 105.582375,117.206637 C105.510221,117.487903 105.391431,117.755105 105.296399,118.029338 C105.296399,118.029338 105.149452,118.348399 105.035062,118.581322 C102.653105,123.452485 98.8025526,127.551928 94.6009104,131.018523 C91.9021803,133.245792 89.1136978,135.234866 86.0154817,136.951463 C85.7928606,137.075396 85.4875267,137.232728 85.4875267,137.232728 C85.4312114,137.259976 85.4144929,137.267887 85.4144929,137.267887 C84.7017536,137.506083 83.9749355,137.708243 83.2269992,137.761859 C80.3241264,137.967534 77.3691621,136.320374 76.0367796,133.730975 C75.9207175,133.505084 75.8277094,133.268645 75.7230863,133.03748 L75.7224704,133.035722 C75.6419572,132.794889 75.5493011,132.557571 75.4810189,132.313222 C74.9588714,130.443687 75.2187133,128.372871 76.1604971,126.679126 C76.8708606,125.402006 77.9602958,124.337592 79.2638168,123.668708 C79.4890776,123.552686 79.7266573,123.459517 79.9580776,123.354922 C79.9580776,123.354922 79.894723,123.368106 79.9915148,123.354922 C79.9915148,123.354922 80.5889839,123.223078 81.0315862,123.10442 C83.3545883,122.483878 85.6230351,121.647114 87.8070091,120.671475 C91.6153247,118.96894 95.239736,116.845387 97.9182279,113.785748 C97.9182279,113.785748 97.9472654,113.754106 98.0202992,113.665331 C98.2244418,113.45614 98.4127458,113.230249 98.632727,113.037758 C99.2733125,112.478743 100.046767,112.073545 100.859817,111.870507 C101.119395,111.805464 101.387772,111.782611 101.65263,111.739543 C101.911328,111.74218 102.170906,111.744816 102.430484,111.748332 Z" id="Fill-62" fill="#E6232C"></path>
            <path d="M81.1022572,125.58338 C83.5849938,132.913958 86.9374789,134.023612 93.1812189,134.705056 C93.5642597,134.746382 93.9824418,134.806174 94.4313725,134.88355 C93.4113948,139.005627 92.1146788,143.059119 90.5684593,147.007097 C87.8819028,153.861983 84.3589821,160.331743 79.9540135,166.320536 C73.8764043,174.582626 66.6104023,182.002451 58.5905305,188.430006 C58.4722799,188.369247 58.354732,188.308401 58.2377113,188.247467 C54.395795,186.246659 50.2844324,183.146485 46.227451,179.122449 C48.7891678,177.203415 51.2585507,175.159787 53.6459664,173.02867 C59.740707,167.588461 65.3135107,161.519654 69.8500837,154.727197 C75.6537661,146.036369 79.2907204,135.949241 81.0811724,125.699445 L81.1022572,125.58338 Z" id="Fill-63" fill="#C72027"></path>
            <path d="M43.2385644,95.3293903 C49.8165511,93.5803462 48.4975302,93.6366251 49.8186579,100.710185 C52.0881006,112.862041 47.4333422,120.129939 40.7135866,121.210671 C33.9939188,122.291402 26.9498066,113.259511 24.9931331,101.054014 C24.7253085,99.3832331 24.5665976,97.7388327 24.5093634,96.1419176 C24.1486648,86.0767798 27.9088311,99.4060964 43.2385644,95.3293903 Z" id="Fill-64" fill="#C72027"></path>
            <path d="M38.3615149,95.2950912 C43.261778,94.8023494 47.7389155,99.3828283 48.3532235,105.517947 C48.9675315,111.653066 45.4878555,117.033701 40.5875047,117.526443 C35.6872416,118.019185 31.2101041,113.437828 30.5957961,107.302709 C29.9814881,101.168468 33.4611641,95.7869547 38.3615149,95.2950912 Z" id="Fill-65" fill="#FFFFFF"></path>
            <g id="Group-69" transform="translate(30.415686, 95.258784)">
                <mask id="mask-2" fill="white">
                    <use xlink:href="#path-1"></use>
                </mask>
                <g id="Clip-67"></g>
                <path d="M13.5372244,8.41617401 C16.0186385,8.41617401 18.0332153,11.1963681 18.0332153,14.62085 C18.0332153,18.0453318 16.0186385,20.8255259 13.5372244,20.8255259 C11.0558983,20.8255259 9.04132153,18.0453318 9.04132153,14.62085 C9.04132153,11.1963681 11.0558983,8.41617401 13.5372244,8.41617401 Z" id="Fill-66" fill="#1C1C1C" mask="url(#mask-2)"></path>
                <path d="M13.2733752,5.71772448 C14.8076585,5.71772448 16.0532907,7.43699721 16.0532907,9.55444506 C16.0532907,11.6718929 14.8076585,13.3902867 13.2733752,13.3902867 C11.7390919,13.3902867 10.4934597,11.6718929 10.4934597,9.55444506 C10.4934597,7.43699721 11.7390919,5.71772448 13.2733752,5.71772448 Z" id="Fill-68" fill="#FFFFFF" mask="url(#mask-2)"></path>
            </g>
            <path d="M40.928722,114.921233 C47.6692646,114.005915 53.5234386,116.095553 53.9934254,119.585037 C54.4634999,123.07364 49.3726049,126.649458 42.6320623,127.565657 C35.8915197,128.480975 30.0373457,126.391337 29.5673589,122.902734 C29.0972844,119.41325 34.1881794,115.837432 40.928722,114.921233 Z" id="Fill-70" fill="#E6232C"></path>
            <path d="M69.8061238,93.3407806 C77.6888118,89.4576185 77.5251437,81.5583939 79.7292602,90.002423 C80.2967835,92.1754799 80.270428,92.7396474 80.4180192,95.1917075 C81.1375263,107.173005 76.0864809,117.240006 69.1448625,117.658951 C62.2032441,118.077015 55.1292329,108.871668 55.0117749,94.2807663 C55.0009691,92.9359178 63.5654758,96.4150972 69.8061238,93.3407806 Z" id="Fill-71" fill="#C72027"></path>
            <path d="M67.569327,92.548292 C72.4696593,92.0555502 76.9467799,96.6369074 77.5610856,102.771148 C78.1753036,108.906267 74.6956407,114.286902 69.7953961,114.779644 C64.8950638,115.272386 60.4179432,110.691907 59.8036376,104.556788 C59.1893319,98.4216692 62.6690824,93.0410339 67.569327,92.548292 Z" id="Fill-72" fill="#FFFFFF"></path>
            <g id="Group-76" transform="translate(59.623529, 92.511991)">
                <mask id="mask-4" fill="white">
                    <use xlink:href="#path-3"></use>
                </mask>
                <g id="Clip-74"></g>
                <path d="M13.5169506,7.4238126 C15.9953569,7.4238126 18.0074918,10.2040067 18.0074918,13.6284886 C18.0074918,17.0529704 15.9953569,19.8331645 13.5169506,19.8331645 C11.0385443,19.8331645 9.02640941,17.0529704 9.02640941,13.6284886 C9.02640941,10.2040067 11.0385443,7.4238126 13.5169506,7.4238126 Z" id="Fill-73" fill="#1C1C1C" mask="url(#mask-4)"></path>
                <path d="M13.2534212,4.72536308 C14.7858447,4.72536308 16.0299671,6.44375683 16.0299671,8.56120468 C16.0299671,10.6786525 14.7858447,12.3979253 13.2534212,12.3979253 C11.7209976,12.3979253 10.4768753,10.6786525 10.4768753,8.56120468 C10.4768753,6.44375683 11.7209976,4.72536308 13.2534212,4.72536308 Z" id="Fill-75" fill="#FFFFFF" mask="url(#mask-4)"></path>
            </g>
            <path d="M80.0470588,120.696811 C78.3190772,123.068022 74.2327424,125.023324 69.3138563,125.554666 C62.5348989,126.287794 56.7254194,124.039065 56.3486739,120.538202 C55.9718404,117.036457 61.1695921,113.599038 67.9484615,112.866791 C72.3919307,112.386557 76.4188164,113.187535 78.771893,114.78156 C79.1834638,117.035576 79.6038288,118.993522 80.0470588,120.696811 Z" id="Fill-77" fill="#E6232C"></path>
            <path d="M61.6253932,122.50689 C61.6253932,122.50689 58.1421225,128.09427 52.9359778,127.94172 C47.7298331,127.789169 44.6484783,124.757448 43.7136694,125.824424 C42.7788605,126.891401 43.4126949,135.572751 50.1485509,137.470865 C56.884495,139.369855 62.617367,136.48367 62.5881239,135.863824 C62.5588809,135.243978 54.7015713,132.150886 61.6843197,124.459361 C62.6543612,123.365205 62.338501,121.997512 61.6253932,122.50689 Z" id="Fill-78" fill="#C72027"></path>
            <path d="M52.9803654,129.206439 C49.0070644,129.332287 44.7897879,127.121584 44.7897879,127.121584 C44.7897879,127.121584 44.2067669,129.559342 45.8619933,132.834914 L55.9491292,131.381059 L57.3176471,128.028043 C57.3176471,128.028043 56.0273705,129.109633 52.9803654,129.206439 Z" id="Fill-79" fill="#FFFFFF"></path>
            <path d="M35.9292855,59.4904586 L35.9303355,59.4922194 L36.1184542,59.9104006 L36.1322787,60.3567541 L35.9798588,60.7758157 L35.6704692,61.1138822 C35.4182152,61.2978819 34.9589431,61.7125416 34.7583123,62.2354883 C34.4069241,63.1519655 34.7497376,64.4566909 35.7283048,64.6952743 C36.467305,64.8757526 37.2871525,64.4725378 37.7752112,63.8738784 C38.9518717,62.4291722 38.749841,60.1683524 38.4134148,58.7526989 C38.1408614,57.6046813 37.4739588,56.5130082 36.4429808,55.9257937 C35.3127812,55.2813544 33.8999661,54.9855462 32.8294395,55.6352678 C31.7396635,56.2973147 31.1764449,57.5571407 30.7966201,58.7342109 C29.7023818,62.126321 29.7666922,65.8653014 30.0536825,69.4026745 C30.2411012,71.7127957 30.72426,73.9982662 31.4612478,76.1331914 C32.1829236,78.3130162 33.1821401,80.4329749 34.4519851,82.3671732 C35.4077155,83.8682237 36.5079911,85.2962026 37.7437122,86.4380575 L37.7632241,86.4556651 L37.899982,86.7180188 C37.899982,86.7180188 37.8343592,86.9900567 37.8343592,86.9900567 L37.5901549,87.1282766 L37.3047394,87.062248 C35.7647036,86.0286801 34.4441978,84.6385576 33.2922989,83.2193825 C32.306207,82.0053364 31.4574855,80.6944483 30.7024733,79.2999239 C30.2782875,78.5163843 29.9170121,77.7073137 29.5817234,76.8823961 L29.5643114,76.8392575 C28.4923849,74.0907062 27.9148167,71.1291027 27.7622219,68.2088771 C27.5743657,64.6125185 27.5708658,60.9342844 28.7912749,57.5580211 C29.3826675,55.9213918 30.3200236,54.3534323 31.9075704,53.5117875 C34.2354298,52.2792533 37.4564593,53.2168597 39.1917012,55.2170866 C40.7229873,56.983132 41.1142742,59.5873006 40.9045437,61.8023406 C40.7402242,63.5375726 40.0046364,65.2974553 38.5490352,66.2922865 C36.914415,67.4094907 34.5434195,67.3998065 33.1955272,65.6302395 C32.0511531,64.1265479 32.0482657,61.8604457 33.1940397,60.3232996 C33.5077167,59.9015968 33.8918288,59.5379992 34.3162771,59.2298657 C34.3162771,59.2298657 34.7336381,59.0397033 34.7336381,59.0397033 L35.1769858,59.0256172 L35.5932968,59.1796839 C35.705293,59.2826886 35.8172893,59.3865736 35.9292855,59.4904586 Z" id="Fill-80" fill="#C72027"></path>
            <path d="M30.854902,158.16898 L37.8038059,152.721695 C37.8038059,152.721695 42.9336672,163.212633 44.7810613,170.790308 C45.1532177,172.316828 44.9372567,175.708922 41.1154996,173.566598 C37.4425875,169.124183 33.9352339,163.944436 30.854902,158.16898 Z" id="Fill-81" fill="#C72027"></path>
            <path d="M31.7340736,141.872519 C31.9725306,141.904158 32.2128347,141.92525 32.4494445,141.968315 C33.1693893,142.101902 33.8696312,142.340074 34.5194726,142.676679 C35.1174181,142.986918 35.2370424,143.106444 35.7815089,143.502811 L35.7828283,143.504569 C35.9716764,143.67419 36.1692324,143.834143 36.3492845,144.013431 C37.7266351,145.381823 38.5233681,147.310929 38.540872,149.247946 C38.5541538,150.708618 38.1326541,152.171927 37.3299399,153.395305 C37.1907887,153.60799 37.0306152,153.805735 36.880909,154.01051 C36.880909,154.01051 36.4428729,154.398968 36.1061657,154.732936 C34.4060934,156.418598 32.8432371,158.276516 31.430527,160.186288 C28.8131298,163.723716 26.6575176,167.389809 25.7215454,171.573818 C25.694542,171.694749 25.6686821,171.815857 25.6441415,171.937316 C25.6226795,172.04401 25.593565,172.204139 25.593565,172.204139 C25.5211747,172.486518 25.471214,172.775664 25.3762182,173.051276 C24.9229653,174.366145 23.9518975,175.510953 22.7146656,176.045126 C22.0727405,176.322232 21.9315663,176.281365 21.2490921,176.344116 L21.2473329,176.344116 C20.555623,176.248056 20.4025743,176.281717 19.7630241,175.972269 C18.5402175,175.380617 17.6235084,174.173849 17.2673622,172.851159 C17.1919813,172.571065 17.1642742,172.280249 17.1127302,171.994794 C17.1127302,171.994794 17.083176,171.632877 17.0676072,171.365878 C16.7295807,165.563178 18.2138895,159.782889 20.3550764,154.38227 C21.504789,151.482018 22.8389518,148.688109 24.3913409,146.018999 C24.6442231,145.58484 24.8977211,145.150681 25.1761994,144.732342 L25.2192114,144.667306 C25.2552746,144.615453 25.2665333,144.600513 25.2665333,144.600513 C25.7171475,144.09956 25.8095045,143.958063 26.3303979,143.530935 C27.2677774,142.762808 28.3981391,142.232853 29.5872573,141.993802 C30.2138775,141.867245 30.3788887,141.880428 31.0150085,141.844395 C31.2546969,141.854062 31.4943853,141.862851 31.7340736,141.872519 Z" id="Fill-82" fill="#E6232C"></path>
            <path d="M22.2345765,172.610025 C22.4532283,172.630339 22.6571623,172.725018 22.8143871,172.880284 L29.8477304,180.234674 C29.9860071,180.38782 30.0125344,180.455827 30.0514881,180.578768 C30.2300405,181.142778 29.6945595,181.830524 29.0550846,181.715002 C28.8732713,181.682147 28.7064403,181.586585 28.5751258,181.456931 L21.5418707,174.102453 C21.403594,173.949395 21.3769785,173.8813 21.3380249,173.758448 C21.1770104,173.249637 21.5751841,172.637404 22.1339315,172.609319 C22.1674211,172.607641 22.2009988,172.608789 22.2345765,172.610025 Z" id="Fill-83" fill="#C72027"></path>
            <path d="M25.6266836,176.234399 C26.2733674,176.265308 26.7615802,177.127769 26.2482907,177.704034 C26.2413249,177.711871 26.2340108,177.719533 26.2268709,177.727282 L23.4570233,180.620056 C22.9769082,181.10377 21.9796725,180.779885 21.9610391,180.029613 C21.9552923,179.796782 22.0470662,179.567033 22.2059726,179.394876 L24.9758203,176.502102 C25.0483513,176.429012 25.0725573,176.412633 25.1207081,176.380403 C25.2168356,176.316031 25.3255886,176.271296 25.4389563,176.249545 C25.4864977,176.240387 25.5061759,176.233078 25.6266836,176.234399 Z" id="Fill-84" fill="#C72027"></path>
            <path d="M28.1634197,178.981224 C28.8361077,179.020979 29.2679316,179.932877 28.7773711,180.463742 C28.7695102,180.472223 28.7612959,180.480351 28.7533466,180.488743 L25.3304638,183.912378 C24.9188664,184.308164 24.1459288,184.183067 23.90374,183.657503 C23.7538514,183.332216 23.8309597,182.923444 24.0812745,182.663003 L27.5042456,179.239368 C27.5810889,179.165423 27.5975175,179.156589 27.6380589,179.129467 C27.7917455,179.026722 27.9770527,178.977602 28.1634197,178.981224 Z" id="Fill-85" fill="#C72027"></path>
            <path d="M102.007843,115.761764 L103.731603,103.599585 L112.752116,109.523959 L123.146538,98.6648076 L127.558344,112.3061 L138.682353,110.195723 L134.530737,123.053437 C123.748667,126.316289 112.70289,124.047436 102.007843,115.761764 Z" id="Fill-86" fill="#B31A21"></path>
            <polyline id="Fill-87" fill="#F27D85" points="122.067614 103.718907 118.368627 106.056672 120.444053 112.398773 124.298039 107.219845 122.067614 103.718907"></polyline>
            <polyline id="Fill-88" fill="#F27D85" points="103.454873 105.916341 104.752941 108.275738 102.588912 111.519799 101.678431 107.959976 103.454873 105.916341"></polyline>
            <polyline id="Fill-89" fill="#F27D85" points="137.972254 112.398773 135.717647 113.92331 136.243513 117.782487 138.682353 115.013394 137.972254 112.398773"></polyline>
        </g>
    </g>
</svg>