<?xml version="1.0" encoding="UTF-8"?>
<svg width="100px" height="98px" viewBox="0 0 100 98" version="1.1" xmlns="http://www.w3.org/2000/svg" xmlns:xlink="http://www.w3.org/1999/xlink">
    <g id="Casy-Study---Marketplace-Strategy-Solutions" stroke="none" stroke-width="1" fill="none" fill-rule="evenodd">
        <g id="Desktop-Copy-10" transform="translate(-785.000000, -1952.000000)">
            <g id="icon_04" transform="translate(786.000000, 1953.000000)" stroke="#E6232C" stroke-linecap="round" stroke-linejoin="round" stroke-width="2.10000014">
                <path d="M88.536,50.9678015 L97.8404,50.9678015" id="Stroke-1"></path>
                <path d="M85.036,61.4787504 L94.3404,61.4787504" id="Stroke-2"></path>
                <path d="M93.1882,7.5160292 C93.1882,3.56110949 89.9808,0.350364964 86.03,0.350364964 L57.55645,0.350364964 C53.60565,0.350364964 50.39804,3.56110949 50.39804,7.5160292 L50.39804,21.8473577 C50.39804,25.8022774 53.60565,29.0134423 57.55645,29.0134423 L60.501,29.0134423 L60.54671,34.5358949 L68.08648,29.0134423 L86.03,29.0134423 C89.9808,29.0134423 93.1882,25.8022774 93.1882,21.8473577 L93.1882,7.5160292 Z" id="Stroke-3"></path>
                <path d="M74.3512,8.9819562 C75.1954,7.93366423 76.489,7.26236496 77.938,7.26236496 C80.4804,7.26236496 82.5447,9.32881752 82.5447,11.8738686 C82.5447,13.5731387 81.6242,15.0586861 80.2564,15.858219 L77.924,18.1930511 L77.938,18.2077664 L71.4238,24.7287591 L71.4098,24.7147445 L71.3951,24.7287591 L64.88097,18.2077664 L64.89518,18.1930511 L62.08097,15.3761168 L62.20459,15.2520876 C61.29886,14.4098102 60.73179,13.2073577 60.73179,11.8738686 C60.73179,9.32881752 62.79581,7.26236496 65.33814,7.26236496 C67.06049,7.26236496 68.56339,8.21115328 69.3539,9.6140146 L71.4098,11.6720584 L74.2238,8.85512409 L74.3512,8.9819562 Z" id="Stroke-4"></path>
                <path d="M88.536,70.5882394 L97.8404,70.5882394" id="Stroke-5"></path>
                <polygon id="Stroke-6" points="59.11444 61.3251504 66.92294 70.968946 82.5657 70.968946 77.329 61.3251504 83.2237 50.9901547 67.45753 50.9678015"></polygon>
                <path d="M43.77065,35.0212905 C43.77065,30.2233927 39.87942,26.3278248 35.08652,26.3278248 L9.03413,26.3278248 C4.24123,26.3278248 0.35,30.2233927 0.35,35.0212905 L0.35,87.1134131 C0.35,91.9113109 4.24123,95.8065985 9.03413,95.8065985 L35.08652,95.8065985 C39.87942,95.8065985 43.77065,91.9113109 43.77065,87.1134131 L43.77065,35.0212905 Z" id="Stroke-7"></path>
                <path d="M0.35,36.6625401 L43.77065,36.6625401" id="Stroke-8"></path>
                <path d="M0.35,85.713635 L43.77065,85.713635" id="Stroke-9"></path>
                <path d="M21.93457,46.7660146 C29.96161,46.7660146 36.47847,53.2897401 36.47847,61.3251504 C36.47847,69.3604905 29.96161,75.8842161 21.93457,75.8842161 C13.9076,75.8842161 7.39067,69.3604905 7.39067,61.3251504 C7.39067,53.2897401 13.9076,46.7660146 21.93457,46.7660146 Z" id="Stroke-10"></path>
                <path d="M21.93457,54.7319124 C25.56967,54.7319124 28.52094,57.6861898 28.52094,61.3251504 C28.52094,64.9640409 25.56967,67.9183182 21.93457,67.9183182 C18.29947,67.9183182 15.3482,64.9640409 15.3482,61.3251504 C15.3482,57.6861898 18.29947,54.7319124 21.93457,54.7319124 Z" id="Stroke-11"></path>
                <path d="M22.06036,61.3251504 L59.11444,61.3251504" id="Stroke-12"></path>
            </g>
        </g>
    </g>
</svg>