<?xml version="1.0" encoding="UTF-8"?>
<svg width="85px" height="92px" viewBox="0 0 85 92" version="1.1" xmlns="http://www.w3.org/2000/svg" xmlns:xlink="http://www.w3.org/1999/xlink">
    <g id="Casy-Study---Marketplace-Strategy-Solutions" stroke="none" stroke-width="1" fill="none" fill-rule="evenodd">
        <g id="Desktop-Copy-10" transform="translate(-139.000000, -1955.000000)">
            <g id="icon_01" transform="translate(140.000000, 1956.000000)" stroke="#E6232C" stroke-linecap="round" stroke-linejoin="round" stroke-width="2.10000014">
                <path d="M9.37717119,34.8379453 L22.1320203,24.1069922" id="Stroke-1"></path>
                <path d="M26.5815237,20.3275547 L30.1447559,17.3010937" id="Stroke-2"></path>
                <path d="M41.5,7.54242187 L46.7754237,0.3515625" id="Stroke-3"></path>
                <path d="M50.7571729,23.4246094 L59.6750305,23.2240781" id="Stroke-4"></path>
                <path d="M47.2777847,14.5589062 L55.0654356,10.2100781" id="Stroke-5"></path>
                <polygon id="Stroke-6" points="4.52561017 44.3925703 0.351694915 37.5053203 30.3711771 3.82148437 48.1822034 34.4692266"></polygon>
                <path d="M28.4872881,0.3515625 L50.2923729,38.1839062" id="Stroke-7"></path>
                <path d="M6.10647881,30.8539687 L12.6477932,42.2033203" id="Stroke-8"></path>
                <polygon id="Stroke-9" points="8.69164746 43.6894453 14.6217161 53.9317969 19.3631966 49.8762422 14.3699025 42.2033203"></polygon>
                <polyline id="Stroke-10" points="69.1999839 29.1213281 78.9048644 29.1213281 80.7892458 39.3911016"></polyline>
                <path d="M11.856761,77.7727266 C11.856761,77.1767578 11.3727585,76.6929375 10.7765653,76.6929375 L2.13528051,76.6929375 C1.53908729,76.6929375 1.05508475,77.1767578 1.05508475,77.7727266 L1.05508475,88.3204453 C1.05508475,88.9164141 1.53908729,89.4002344 2.13528051,89.4002344 L10.7765653,89.4002344 C11.3727585,89.4002344 11.856761,88.9164141 11.856761,88.3204453 L11.856761,77.7727266 Z" id="Stroke-11"></path>
                <path d="M35.0686254,71.5074609 C35.0686254,70.9115625 34.5846229,70.4277422 33.9884297,70.4277422 L25.3471449,70.4277422 C24.7509517,70.4277422 24.2669492,70.9115625 24.2669492,71.5074609 L24.2669492,88.3204453 C24.2669492,88.9164141 24.7509517,89.4002344 25.3471449,89.4002344 L33.9884297,89.4002344 C34.5846229,89.4002344 35.0686254,88.9164141 35.0686254,88.3204453 L35.0686254,71.5074609 Z" id="Stroke-12"></path>
                <path d="M58.9838797,62.0732109 C58.9838797,61.4773125 58.4998771,60.9934922 57.9036839,60.9934922 L49.2623992,60.9934922 C48.6662059,60.9934922 48.1822034,61.4773125 48.1822034,62.0732109 L48.1822034,88.3204453 C48.1822034,88.9164141 48.6662059,89.4002344 49.2623992,89.4002344 L57.9036839,89.4002344 C58.4998771,89.4002344 58.9838797,88.9164141 58.9838797,88.3204453 L58.9838797,62.0732109 Z" id="Stroke-13"></path>
                <path d="M82.8994153,53.2066641 C82.8994153,52.6107656 82.4154831,52.1269453 81.8190085,52.1269453 L73.1778644,52.1269453 C72.5813898,52.1269453 72.0974576,52.6107656 72.0974576,53.2066641 L72.0974576,88.3204453 C72.0974576,88.9164141 72.5813898,89.4002344 73.1778644,89.4002344 L81.8190085,89.4002344 C82.4154831,89.4002344 82.8994153,88.9164141 82.8994153,88.3204453 L82.8994153,53.2066641 Z" id="Stroke-14"></path>
                <path d="M1.75847458,67.6152422 C1.75847458,67.6152422 49.6504593,65.2563281 78.9048644,29.1213281" id="Stroke-15"></path>
            </g>
        </g>
    </g>
</svg>