<?xml version="1.0" encoding="UTF-8"?>
<svg width="61px" height="86px" viewBox="0 0 61 86" version="1.1" xmlns="http://www.w3.org/2000/svg" xmlns:xlink="http://www.w3.org/1999/xlink">
    <g id="Casy-Study---Marketplace-Strategy-Solutions" stroke="none" stroke-width="1" fill="none" fill-rule="evenodd">
        <g id="Desktop-Copy-10" transform="translate(-805.000000, -2120.000000)">
            <g id="icon_08" transform="translate(806.000000, 2121.000000)" stroke="#E6232C" stroke-linecap="round" stroke-linejoin="round" stroke-width="2.10000014">
                <path d="M37.8947869,14.9618 L45.5608536,3.1696 C47.4219524,0.3073 51.2651,-0.5117 54.1376976,1.3433 C57.010225,3.1983 57.8313786,7.0287 55.9702095,9.891 L29.8068,50.13589 C29.6134345,50.43332 29.3987167,50.7087 29.1658774,50.96112 L15.3229321,72.25442 L4.91350595,65.53295 L37.8212476,14.9142 L37.8947869,14.9618 Z" id="Stroke-1"></path>
                <polygon id="Stroke-2" points="2.44751667 80.69285 4.91350595 65.53295 15.3229321 72.25442"></polygon>
                <path d="M40.8289131,49.22799 L58.3679976,22.8809" id="Stroke-3"></path>
                <path d="M0.394597619,83.49607 L2.84710119,79.8119" id="Stroke-4"></path>
                <path d="M55.4820548,27.00845 L48.800094,22.71724" id="Stroke-5"></path>
                <path d="M45.8590845,25.26314 L35.467569,18.58969" id="Stroke-6"></path>
                <path d="M50.2388512,18.58969 L39.847406,11.9161" id="Stroke-7"></path>
            </g>
        </g>
    </g>
</svg>