<?xml version="1.0" encoding="UTF-8"?>
<svg width="80px" height="80px" viewBox="0 0 80 80" version="1.1" xmlns="http://www.w3.org/2000/svg" xmlns:xlink="http://www.w3.org/1999/xlink">
    <g id="Casy-Study---Marketplace-Strategy-Solutions" stroke="none" stroke-width="1" fill="none" fill-rule="evenodd">
        <g id="Desktop-Copy-10" transform="translate(-579.000000, -1961.000000)">
            <g id="icon_03" transform="translate(580.000000, 1962.000000)" stroke="#E6232C" stroke-linecap="round" stroke-linejoin="round" stroke-width="2.10000014">
                <path d="M58.9566162,33.9068811 L43.8063459,18.3522757 L2.90131892,62.7695514 C-0.479383784,66.2905135 -0.365616216,71.8937946 3.15534595,75.2744973 C6.67623784,78.6552 12.2795189,78.5413622 15.6602216,75.0204703 L58.9566162,33.9068811 Z" id="Stroke-1"></path>
                <path d="M44.1104054,19.0759189 C44.0325459,18.4218432 43.9924919,17.7563135 43.9924919,17.0815081 C43.9924919,7.84778378 51.4889243,0.351351351 60.7223676,0.351351351 C69.9554595,0.351351351 77.4518919,7.84778378 77.4518919,17.0815081 C77.4518919,26.3149514 69.9554595,33.8113135 60.7223676,33.8113135 C60.0033622,33.8113135 59.2949676,33.7658486 58.5997838,33.6777297" id="Stroke-2"></path>
                <path d="M46.7450486,7.88994595 L69.6617297,31.2221351" id="Stroke-3"></path>
                <path d="M46.6142757,21.7368432 L42.1390432,26.7109243" id="Stroke-4"></path>
                <path d="M38.8381676,30.5098757 L13.6224541,58.5366108" id="Stroke-5"></path>
            </g>
        </g>
    </g>
</svg>