<?xml version="1.0" encoding="UTF-8"?>
<svg width="172px" height="231px" viewBox="0 0 172 231" version="1.1" xmlns="http://www.w3.org/2000/svg" xmlns:xlink="http://www.w3.org/1999/xlink">
    <!-- Generator: Sketch 51 (57462) - http://www.bohemiancoding.com/sketch -->
    <title>invisibill</title>
    <desc>Created with Sketch.</desc>
    <defs></defs>
    <g id="Casy-Study---Marketplace-Strategy-Solutions" stroke="none" stroke-width="1" fill="none" fill-rule="evenodd">
        <g id="invisibill">
            <path d="M41.2293846,148.849282 C77.9113641,240.21375 91.0910739,250.089691 108.710891,203.978907 C126.329258,157.868269 137.069301,185.603336 148.312353,191.11193 C159.555405,196.620377 164.701464,178.449578 160.628105,144.971726 C156.554745,111.49402 157.898519,98.4780512 165.897379,111.811518 C173.89479,125.144985 174.094834,111.33964 166.051036,91.4392041 C158.005789,71.5402246 152.755359,67.9865754 149.312573,89.7352002 C145.871236,111.483825 142.67923,98.1794864 135.922672,89.7832618 C129.167563,81.3870372 124.276632,77.4328742 122.567561,85.3208104 C120.858489,93.2102031 114.368657,86.5107004 111.079527,72.2494981 C107.791848,57.9882958 99.0348498,50.0887082 96.4603706,77.470741 C93.887341,104.852774 82.4471441,100.055347 58.3360449,65.3417282 C28.7792554,22.7882347 -1.01555743,25.1869479 9.16784136,66.8330958 C13.5522838,84.7644604 28.9587152,118.285277 41.2293846,148.849282 Z" id="Fill-1" fill="#FFD8DF"></path>
            <path d="M16.4547046,163.953573 C16.8633143,160.655871 24.1930592,161.690853 29.4147071,173.937049 C34.6362454,186.183245 45.2191816,182.599769 56.3299648,166.388551 C67.4407479,150.177332 72.9451867,150.509725 77.1718015,157.919579 C81.3984163,165.329433 84.9857352,164.24629 89.2132275,158.216595 C93.4407199,152.1869 95.9020311,155.939217 101.750031,165.382885 C107.598141,174.826443 113.942286,184.754814 120.964888,164.180054 C127.986393,143.605184 128.610552,162.994416 133.815526,163.802916 L132.039582,143.003327 L21.6383985,130.708969 C21.6383985,130.708969 15.4500184,172.061276 16.4547046,163.953573 Z" id="Fill-3" fill="#C72027"></path>
            <path d="M33.2999531,88.2784168 C33.2999531,88.2784168 15.4354276,88.1064893 13.6678205,96.4725246 C11.900323,104.838119 24.0029583,115.799598 26.751119,112.681759 C29.4992797,109.564031 30.75692,109.511791 26.0858256,103.200069 C24.1006955,100.51778 22.3391215,99.0966229 22.3391215,99.0966229 C22.3391215,99.0966229 27.3329353,98.9555542 30.54192,97.2395857 C33.750795,95.5236172 33.2999531,88.2784168 33.2999531,88.2784168 Z" id="Fill-4" fill="#C72027"></path>
            <path d="M77.9670683,40.0062023 C35.5498719,40.0062023 22.9147826,120.983054 16.8766831,157.031177 C14.0703846,173.7854 25.9145811,170.280614 32.5172749,164.038655 C43.9893897,153.193337 50.3024918,141.714312 58.9214688,169.428581 C67.5404459,197.14296 81.4658642,187.306725 91.5370785,166.677962 C101.608402,146.049199 109.436706,139.390646 120.483867,157.690122 C131.531137,175.989598 135.697311,163.881385 133.038331,149.893872 C130.379351,135.906469 127.277209,40.0062023 77.9670683,40.0062023 Z" id="Fill-5" fill="#E6232C"></path>
            <path d="M61.6613418,54.884542 C66.6936582,54.884542 70.7793163,61.0033969 70.7793163,68.5395515 C70.7793163,76.0757061 66.6936582,82.1945611 61.6613418,82.1945611 C56.6290255,82.1945611 52.5433673,76.0757061 52.5433673,68.5395515 C52.5433673,61.0033969 56.6290255,54.884542 61.6613418,54.884542 Z" id="Fill-6" fill="#C72027"></path>
            <path d="M64.0510863,97.8908679 C65.9148949,93.9321274 76.3001628,104.436345 86.4224944,95.4001236 C89.3413388,92.794761 88.0827113,92.3583297 88.0827113,92.3583297 C88.0827113,92.3583297 87.1765302,89.5578956 86.016298,91.0104623 C81.524224,96.6333727 76.6036858,95.6315644 65.1247699,94.1745893 C64.0905761,94.0434394 65.9333235,91.8249137 64.8895863,91.373053 C62.8871245,90.506803 62.1872776,101.849168 64.0510863,97.8908679 Z" id="Fill-7" fill="#C72027"></path>
            <path d="M61.585324,65.6851145 C65.8492347,65.6851145 69.3109541,69.1622376 69.3109541,73.4460973 C69.3109541,77.7310592 65.8492347,81.2081823 61.585324,81.2081823 C57.3214133,81.2081823 53.8596939,77.7310592 53.8596939,73.4460973 C53.8596939,69.1622376 57.3214133,65.6851145 61.585324,65.6851145 Z" id="Fill-8" fill="#EFE5FF"></path>
            <path d="M54.8322885,77.1594678 C55.4003931,77.0217054 56.2924237,76.9610899 57.6614033,77.1881223 C60.4315028,77.6476977 65.5974263,79.4330985 67.6258854,78.4136567 C68.4169977,81.8213475 65.458115,82.3228027 61.6463625,81.2625832 C59.6331508,80.7027168 55.9545666,81.3474449 54.5634288,79.9918628 C53.9915946,79.4353027 55.2116099,77.8714239 54.8322885,77.1594678 Z" id="Fill-9" fill="#C72027"></path>
            <path d="M60.2268003,80.0185439 C65.3305273,80.1331622 69.4376855,81.8535392 69.3929304,83.8582577 C69.3481753,85.8629762 65.1681804,87.3970983 60.0644534,87.28248 C54.9607263,87.1667596 50.8534585,85.4463827 50.8983233,83.4416642 C50.9430784,81.4369456 55.1230733,79.9028235 60.2268003,80.0185439 Z" id="Fill-10" fill="#E6232C"></path>
            <path d="M91.196199,57.1989504 C95.8802372,57.1989504 99.6831046,63.1084065 99.6831046,70.3877719 C99.6831046,77.6660353 95.8802372,83.5754914 91.196199,83.5754914 C86.512051,83.5754914 82.7091837,77.6660353 82.7091837,70.3877719 C82.7091837,63.1084065 86.512051,57.1989504 91.196199,57.1989504 Z" id="Fill-11" fill="#C72027"></path>
            <path d="M91.2027806,66.1259542 C95.4666913,66.1259542 98.9284107,69.6030773 98.9284107,73.886937 C98.9284107,78.1718989 95.4666913,81.6490219 91.2027806,81.6490219 C86.9388699,81.6490219 83.4770408,78.1718989 83.4770408,73.886937 C83.4770408,69.6030773 86.9388699,66.1259542 91.2027806,66.1259542 Z" id="Fill-12" fill="#EFE5FF"></path>
            <path d="M87.0163138,62.1275382 C87.0163138,62.1275382 89.4598546,64.2788359 92.491574,64.1058063 C95.3294643,63.9448998 99.5558597,64.1091126 102.328372,65.8923092 L102.741809,58.927042 L86.6581633,56.317271 L87.0163138,62.1275382 Z" id="Fill-13" fill="#E6232C"></path>
            <path d="M52.5433673,57.6089313 C52.5433673,57.6089313 54.2995663,59.8583158 58.0186276,60.9097185 C60.7546122,61.6844943 65.0829133,60.9130248 67.8553163,62.6962214 L68.2688622,55.7309542 L61.8938929,51.7986641 L52.5433673,57.6089313 Z" id="Fill-14" fill="#E6232C"></path>
            <path d="M84.0902374,77.0535762 C84.5255027,76.8144207 85.5071532,76.5223644 87.5260691,76.8574025 C90.5154466,77.3533472 96.2946685,79.3933329 97.9105691,77.7864722 C99.0146379,82.1320495 95.5988803,82.6180752 91.1820563,81.7330895 C85.5569543,80.6067441 81.6951813,80.9175361 84.0902374,77.0535762 Z" id="Fill-15" fill="#C72027"></path>
            <path d="M90.6611622,79.8526556 C95.753152,80.2185526 99.7716775,82.1395116 99.6292949,84.1398217 C99.4869122,86.1390297 95.237152,87.4659572 90.1451622,87.1000602 C85.0531724,86.7341633 81.0347566,84.8132043 81.1771393,82.8128942 C81.3195219,80.8136862 85.5691724,79.4867587 90.6611622,79.8526556 Z" id="Fill-16" fill="#E6232C"></path>
            <path d="M125.878869,101.17271 C130.601191,122.594323 131.872543,142.960125 132.983742,149.482348 C127.126089,146.722912 123.559941,123.821621 123.559941,123.821621 C123.559941,123.821621 114.905094,121.086982 123.43489,113.299108 C125.478487,111.432703 121.078665,101.62942 121.078665,101.62942 L125.106624,103.3725 L125.878869,101.17271 Z" id="Fill-17" fill="#C72027"></path>
            <path d="M122.430121,93.5682252 C122.430121,93.5682252 139.941652,97.1269036 139.941652,105.679635 C139.941652,114.232035 125.837213,122.42978 123.793616,118.806628 C121.748922,115.183477 120.809943,115.172897 126.403234,109.670446 C129.503183,106.621489 130.257876,105.921104 130.257876,105.921104 C130.257876,105.921104 126.05331,104.448479 125.027672,103.46684 C122.395019,100.947771 122.430121,93.5682252 122.430121,93.5682252 Z" id="Fill-18" fill="#E6232C"></path>
            <path d="M89.6292219,69.1016221 C91.087273,69.1016221 92.2710893,70.5740267 92.2710893,72.38698 C92.2710893,74.2010353 91.087273,75.6734399 89.6292219,75.6734399 C88.1710612,75.6734399 86.9872449,74.2010353 86.9872449,72.38698 C86.9872449,70.5740267 88.1710612,69.1016221 89.6292219,69.1016221 Z" id="Fill-19" fill="#1C1C1C"></path>
            <path d="M89.6246148,67.6688931 C90.3536403,67.6688931 90.9455485,68.4050954 90.9455485,69.3121231 C90.9455485,70.2180487 90.3536403,70.954251 89.6246148,70.954251 C88.8954796,70.954251 88.3035714,70.2180487 88.3035714,69.3121231 C88.3035714,68.4050954 88.8954796,67.6688931 89.6246148,67.6688931 Z" id="Fill-20" fill="#EFE5FF"></path>
            <path d="M59.9020714,68.2199427 C61.3601224,68.2199427 62.5439388,69.6923473 62.5439388,71.5064027 C62.5439388,73.3193559 61.3601224,74.7917605 59.9020714,74.7917605 C58.4440204,74.7917605 57.2602041,73.3193559 57.2602041,71.5064027 C57.2602041,69.6923473 58.4440204,68.2199427 59.9020714,68.2199427 Z" id="Fill-21" fill="#1C1C1C"></path>
            <path d="M60.0071582,66.7872137 C60.7361837,66.7872137 61.3280918,67.523416 61.3280918,68.4293416 C61.3280918,69.3363693 60.7361837,70.0725716 60.0071582,70.0725716 C59.2781327,70.0725716 58.6862245,69.3363693 58.6862245,68.4293416 C58.6862245,67.523416 59.2781327,66.7872137 60.0071582,66.7872137 Z" id="Fill-22" fill="#EFE5FF"></path>
            <path d="M54.8712232,64.4210067 C54.8712232,64.4210067 53.9848967,66.6891269 62.9214375,68.2684351 C71.858088,69.8477433 69.4109273,69.2482013 69.4109273,69.2482013 L66.030162,64.3625954 L54.8712232,64.4210067 Z" id="Fill-23" fill="#C72027"></path>
            <path d="M84.3713439,65.5175954 C84.3713439,65.5175954 83.5958082,67.8264933 92.5982751,68.967166 C101.600742,70.1078387 99.127474,69.6284256 99.127474,69.6284256 L95.5142674,64.913645 L84.3713439,65.5175954 Z" id="Fill-24" fill="#C72027"></path>
            <polygon id="Fill-25" fill="#FFACB0" points="38.4637194 16.2008588 36.3086735 23.2741317 44.167801 30.2107443 48.4854617 21.6959256"></polygon>
            <polygon id="Fill-26" fill="#FFACB0" points="84.6379311 0 82.5994898 6.75697042 90.7426148 10.906374 93.5946556 2.40588263"></polygon>
            <polygon id="Fill-27" fill="#C72027" points="64.0924872 135.227576 62.0867347 141.162601 64.7542704 142.743232 66.8428418 136.019435"></polygon>
            <polygon id="Fill-28" fill="#C72027" points="112.655612 87.7116698 118.721684 80.1226145 120.997832 83.3098855 122.139745 86.3847424 118.139209 93.909876"></polygon>
            <polygon id="Fill-29" fill="#FFACB0" points="113.862245 79.6861832 121.608827 73.8406489 124.353367 79.6861832 117.648878 87.0548187"></polygon>
            <polygon id="Fill-30" fill="#FFACB0" points="56.8094719 123.545324 50.8979592 133.20302 54.9703444 137.067862 61.343449 126.0526"></polygon>
            <polygon id="Fill-31" fill="#FFACB0" points="118.147985 30.1975191 112.655612 37.2112786 116.438954 40.0172233 122.359133 32.018187"></polygon>
            <polygon id="Fill-32" fill="#FFACB0" points="103.365967 190.311268 103.331633 194.66456 115.861196 196.206396 115.499207 186.254771"></polygon>
            <polygon id="Fill-33" fill="#FFACB0" points="152.255102 199.145585 160.57648 191.324427 164.438801 196.300295 156.581429 203.702104"></polygon>
            <polygon id="Fill-34" fill="#FFACB0" points="0 80.449938 8.32188214 72.6283397 12.1834796 77.6043177 4.3266227 85.0060162"></polygon>
            <polygon id="Fill-35" fill="#FFACB0" points="48.2487423 203.667939 47.3877551 209.863235 59.5517092 210.291445 58.9878827 203.667939"></polygon>
            <polygon id="Fill-36" fill="#FFACB0" points="6.58676633 176.556298 5.04591837 181.270858 14.9681026 184.446116 15.6456816 179.557314"></polygon>
        </g>
    </g>
</svg>