<?xml version="1.0" encoding="UTF-8"?>
<svg width="207px" height="203px" viewBox="0 0 207 203" version="1.1" xmlns="http://www.w3.org/2000/svg" xmlns:xlink="http://www.w3.org/1999/xlink">
    <!-- Generator: Sketch 51 (57462) - http://www.bohemiancoding.com/sketch -->
    <title>olivia</title>
    <desc>Created with Sketch.</desc>
    <defs></defs>
    <g id="Casy-Study---Marketplace-Strategy-Solutions" stroke="none" stroke-width="1" fill="none" fill-rule="evenodd">
        <g id="olivia">
            <path d="M37.5854806,34.9265749 C29.0013751,46.3355684 17.9755652,64.1275051 35.589331,54.5150079 C53.203039,44.9025107 68.2454075,65.6657033 32.9035664,112.294304 C16.1553341,134.391043 22.6005483,134.63684 32.7483223,133.519204 C42.8961542,132.401568 41.4445596,136.531026 35.3926885,147.690414 C29.3407346,158.84972 34.4961641,171.089655 55.2587195,154.578529 C76.0213577,138.067403 100.045364,132.862862 93.7385617,159.719323 C87.431759,186.575867 90.6841854,195.628213 129.539511,182.025102 C168.394423,168.422065 157.965331,176.024307 151.113062,188.173424 C144.261622,200.322541 154.7702,202.221487 180.287365,181.349884 C205.80453,160.478322 166.20693,172.168629 189.194651,147.690414 C212.182373,123.212117 212.433247,107.390779 188.18039,121.037611 C163.926705,134.684691 172.8017,120.246822 178.036118,112.294304 C183.270536,104.341703 185.592988,93.9195405 171.250915,87.8139366 C156.908843,81.7083327 196.448485,23.0763221 160.079962,42.7102884 C123.71144,62.3434269 126.322025,42.3749977 129.664535,22.2807309 C133.007872,2.18646411 125.487433,-11.0893954 96.28589,16.7769947 C67.0844299,44.6425569 52.601437,33.2592276 58.0065818,25.3778243 C63.4116438,17.4955932 51.0903942,16.9773413 37.5854806,34.9265749 Z" id="Fill-1" fill="#FFD8DF"></path>
            <path d="M105.091923,39.7018947 C105.091923,39.7018947 91.7660507,-2.6315188 40.4066607,6.23935338 C-10.9528061,15.1113233 -10.6706222,100.80015 26.4980427,104.444662 C63.6667735,108.088075 64.3442653,79.1833684 64.3442653,79.1833684 L105.091923,39.7018947 Z" id="Fill-2" fill="#E6232C"></path>
            <path d="M26.5464585,104.213038 C54.6287188,54.7014737 12.5301401,46.2005414 40.1494312,30.4753534 C48.416456,25.7671278 56.5663388,23.1775489 60.6227263,23.6781203 C98.6090363,28.3589023 54.2615931,74.4345263 57.5780204,75.1469624 C57.5780204,75.1469624 57.1849851,77.7178797 55.1604143,80.3085564 C52.803081,88.7271579 46.2397213,103.172376 43.8541729,105.168075 C43.3835186,105.562165 49.142693,105.490812 39.6432062,104.74215 C38.5322777,104.654331 26.3223845,104.608226 26.5464585,104.213038 Z" id="Fill-3" fill="#C72027"></path>
            <path d="M79.8630104,132.689734 C79.8630104,132.689734 87.3722896,134.327678 94.3699642,126.267271 C101.367968,118.206863 103.024645,114.831299 105.708922,116.002812 C108.393199,117.174325 106.457665,126.296032 99.4478043,132.689734 C92.4372846,139.083436 86.8366418,142.597426 78.7089359,142.597426 C70.58123,142.597426 79.8630104,132.689734 79.8630104,132.689734 Z" id="Fill-4" fill="#C72027"></path>
            <path d="M84.4381386,31.0363008 C61.3705912,26.2435489 37.4964431,23.8021654 38.9327784,75.5289774 C40.3692235,127.25557 45.4611162,148.797376 33.1796423,166.741983 C20.8980586,184.686701 14.7029225,188.573374 18.8293537,192.573335 C22.9557849,196.573186 33.5090015,184.693617 40.1158366,174.071183 C46.7227814,163.44875 53.9549598,149.617171 64.5725112,149.617171 C75.1900626,149.617171 73.867466,166.333842 85.3709935,178.858337 C96.8744113,191.382941 102.970849,195.699272 105.939473,192.552698 C108.908097,189.406123 96.6010432,183.724418 90.2771277,170.89025 C83.9532121,158.056081 80.6712578,143.970814 85.0836826,123.322791 C94.2654476,80.3568571 139.177303,42.4067368 84.4381386,31.0363008 Z" id="Fill-5" fill="#E6232C"></path>
            <path d="M20.8795047,193.367005 C19.501466,192.282323 26.8741709,188.547358 36.6898425,173.757338 C47.116695,158.046531 43.4062444,154.378089 45.8038693,154.003648 C47.4917253,153.73997 48.6422866,157.646623 49.1755191,159.982623 C45.8956508,164.37349 42.9483254,169.517301 40.1158366,174.071183 C34.4214362,183.226481 25.7955196,193.31574 20.8795047,193.367005 Z" id="Fill-6" fill="#C72027"></path>
            <path d="M24.6696602,190.491024 C25.2050884,190.491024 25.6397327,190.925731 25.6397327,191.460991 C25.6397327,191.996361 25.2050884,192.430958 24.6696602,192.430958 C24.134232,192.430958 23.6995877,191.996361 23.6995877,191.460991 C23.6995877,190.925731 24.134232,190.491024 24.6696602,190.491024 Z" id="Fill-7" fill="#B31A21"></path>
            <path d="M27.5241063,188.295535 C28.0595345,188.295535 28.4941788,188.730242 28.4941788,189.265502 C28.4941788,189.800872 28.0595345,190.235469 27.5241063,190.235469 C26.9886781,190.235469 26.5540338,189.800872 26.5540338,189.265502 C26.5540338,188.730242 26.9886781,188.295535 27.5241063,188.295535 Z" id="Fill-8" fill="#B31A21"></path>
            <path d="M30.268766,185.551174 C30.8041942,185.551174 31.2388385,185.985881 31.2388385,186.521141 C31.2388385,187.056511 30.8041942,187.491108 30.268766,187.491108 C29.7333378,187.491108 29.2986935,187.056511 29.2986935,186.521141 C29.2986935,185.985881 29.7333378,185.551174 30.268766,185.551174 Z" id="Fill-9" fill="#B31A21"></path>
            <path d="M35.5385127,179.51358 C36.0739409,179.51358 36.5085852,179.948287 36.5085852,180.483547 C36.5085852,181.018917 36.0739409,181.453514 35.5385127,181.453514 C35.0030845,181.453514 34.5684401,181.018917 34.5684401,180.483547 C34.5684401,179.948287 35.0030845,179.51358 35.5385127,179.51358 Z" id="Fill-10" fill="#B31A21"></path>
            <path d="M38.0635996,176.220347 C38.5990278,176.220347 39.0336721,176.655054 39.0336721,177.190314 C39.0336721,177.725684 38.5990278,178.160281 38.0635996,178.160281 C37.5281714,178.160281 37.0935271,177.725684 37.0935271,177.190314 C37.0935271,176.655054 37.5281714,176.220347 38.0635996,176.220347 Z" id="Fill-11" fill="#B31A21"></path>
            <path d="M40.0397546,172.597791 C40.5751828,172.597791 41.0098271,173.032498 41.0098271,173.567758 C41.0098271,174.103128 40.5751828,174.537725 40.0397546,174.537725 C39.5043264,174.537725 39.0696821,174.103128 39.0696821,173.567758 C39.0696821,173.032498 39.5043264,172.597791 40.0397546,172.597791 Z" id="Fill-12" fill="#B31A21"></path>
            <path d="M44.1756274,165.785189 C44.7110556,165.785189 45.1457,166.219896 45.1457,166.755156 C45.1457,167.290526 44.7110556,167.725123 44.1756274,167.725123 C43.6401992,167.725123 43.2055549,167.290526 43.2055549,166.755156 C43.2055549,166.219896 43.6401992,165.785189 44.1756274,165.785189 Z" id="Fill-13" fill="#B31A21"></path>
            <path d="M45.4750591,161.851971 C46.0103775,161.851971 46.4451316,162.286568 46.4451316,162.821938 C46.4451316,163.357198 46.0103775,163.791905 45.4750591,163.791905 C44.9396309,163.791905 44.5049866,163.357198 44.5049866,162.821938 C44.5049866,162.286568 44.9396309,161.851971 45.4750591,161.851971 Z" id="Fill-14" fill="#B31A21"></path>
            <path d="M46.4451316,157.807771 C46.9804501,157.807771 47.4152042,158.242368 47.4152042,158.777629 C47.4152042,159.312998 46.9804501,159.747595 46.4451316,159.747595 C45.9097034,159.747595 45.4750591,159.312998 45.4750591,158.777629 C45.4750591,158.242368 45.9097034,157.807771 46.4451316,157.807771 Z" id="Fill-15" fill="#B31A21"></path>
            <path d="M42.2354824,168.975235 C42.7709106,168.975235 43.2055549,169.409941 43.2055549,169.945202 C43.2055549,170.480571 42.7709106,170.915168 42.2354824,170.915168 C41.7000541,170.915168 41.2654098,170.480571 41.2654098,169.945202 C41.2654098,169.409941 41.7000541,168.975235 42.2354824,168.975235 Z" id="Fill-16" fill="#B31A21"></path>
            <path d="M33.0134257,182.587265 C33.5488539,182.587265 33.9834983,183.021971 33.9834983,183.557232 C33.9834983,184.092602 33.5488539,184.527198 33.0134257,184.527198 C32.4779975,184.527198 32.0433532,184.092602 32.0433532,183.557232 C32.0433532,183.021971 32.4779975,182.587265 33.0134257,182.587265 Z" id="Fill-17" fill="#B31A21"></path>
            <path d="M74.3974049,158.974564 C74.8828803,157.478229 78.2503582,151.410117 79.1582916,153.554671 C82.5772593,161.630227 81.3251456,167.739723 89.0185365,179.320048 C97.8240636,192.574982 105.817611,192.252794 104.91846,193.287418 C101.655609,194.721511 95.6876205,190.091006 85.3709935,178.858337 C79.4283661,172.388341 76.9086587,164.799525 74.3974049,158.974564 Z" id="Fill-18" fill="#C72027"></path>
            <path d="M100.462231,191.600953 C100.997988,191.600953 101.432742,192.03555 101.432742,192.57092 C101.432742,193.10629 100.997988,193.540887 100.462231,193.540887 C99.9264729,193.540887 99.4917188,193.10629 99.4917188,192.57092 C99.4917188,192.03555 99.9264729,191.600953 100.462231,191.600953 Z" id="Fill-19" fill="#B31A21"></path>
            <path d="M96.9885892,189.66102 C97.5243467,189.66102 97.9591008,190.095617 97.9591008,190.630986 C97.9591008,191.166356 97.5243467,191.600953 96.9885892,191.600953 C96.4539295,191.600953 96.0191754,191.166356 96.0191754,190.630986 C96.0191754,190.095617 96.4539295,189.66102 96.9885892,189.66102 Z" id="Fill-20" fill="#B31A21"></path>
            <path d="M93.6935703,186.770659 C94.2289985,186.770659 94.6636428,187.205256 94.6636428,187.740626 C94.6636428,188.275995 94.2289985,188.710592 93.6935703,188.710592 C93.1581421,188.710592 92.7234978,188.275995 92.7234978,187.740626 C92.7234978,187.205256 93.1581421,186.770659 93.6935703,186.770659 Z" id="Fill-21" fill="#B31A21"></path>
            <path d="M90.6626975,183.719039 C91.1981257,183.719039 91.63277,184.153636 91.63277,184.689006 C91.63277,185.224376 91.1981257,185.658973 90.6626975,185.658973 C90.127379,185.658973 89.6927347,185.224376 89.6927347,184.689006 C89.6927347,184.153636 90.127379,183.719039 90.6626975,183.719039 Z" id="Fill-22" fill="#B31A21"></path>
            <path d="M87.7722414,180.635914 C88.3076696,180.635914 88.742314,181.070511 88.742314,181.605881 C88.742314,182.141251 88.3076696,182.575848 87.7722414,182.575848 C87.236923,182.575848 86.8021689,182.141251 86.8021689,181.605881 C86.8021689,181.070511 87.236923,180.635914 87.7722414,180.635914 Z" id="Fill-23" fill="#B31A21"></path>
            <path d="M84.6982226,176.65231 C85.2336508,176.65231 85.6682951,177.086907 85.6682951,177.622277 C85.6682951,178.157647 85.2336508,178.592244 84.6982226,178.592244 C84.1629041,178.592244 83.72815,178.157647 83.72815,177.622277 C83.72815,177.086907 84.1629041,176.65231 84.6982226,176.65231 Z" id="Fill-24" fill="#B31A21"></path>
            <path d="M81.4919111,172.877167 C82.0273393,172.877167 82.4619836,173.311764 82.4619836,173.847024 C82.4619836,174.382394 82.0273393,174.816991 81.4919111,174.816991 C80.9565926,174.816991 80.5218385,174.382394 80.5218385,173.847024 C80.5218385,173.311764 80.9565926,172.877167 81.4919111,172.877167 Z" id="Fill-25" fill="#B31A21"></path>
            <path d="M79.1002146,168.6514 C79.6356428,168.6514 80.0702871,169.086107 80.0702871,169.621367 C80.0702871,170.156737 79.6356428,170.591334 79.1002146,170.591334 C78.5647864,170.591334 78.1301421,170.156737 78.1301421,169.621367 C78.1301421,169.086107 78.5647864,168.6514 79.1002146,168.6514 Z" id="Fill-26" fill="#B31A21"></path>
            <path d="M77.1600695,164.399177 C77.6954978,164.399177 78.1301421,164.833774 78.1301421,165.369144 C78.1301421,165.904514 77.6954978,166.339111 77.1600695,166.339111 C76.6247511,166.339111 76.189997,165.904514 76.189997,165.369144 C76.189997,164.833774 76.6247511,164.399177 77.1600695,164.399177 Z" id="Fill-27" fill="#B31A21"></path>
            <path d="M75.3674774,160.188559 C75.9029056,160.188559 76.3375499,160.623156 76.3375499,161.158526 C76.3375499,161.693786 75.9029056,162.128493 75.3674774,162.128493 C74.832159,162.128493 74.3974049,161.693786 74.3974049,161.158526 C74.3974049,160.623156 74.832159,160.188559 75.3674774,160.188559 Z" id="Fill-28" fill="#B31A21"></path>
            <path d="M88.1869046,130.206307 C88.7223328,130.206307 89.1569771,130.640904 89.1569771,131.176274 C89.1569771,131.711644 88.7223328,132.146241 88.1869046,132.146241 C87.6515862,132.146241 87.2168321,131.711644 87.2168321,131.176274 C87.2168321,130.640904 87.6515862,130.206307 88.1869046,130.206307 Z" id="Fill-29" fill="#B31A21"></path>
            <path d="M91.779225,128.246833 C92.3146533,128.246833 92.7492976,128.68143 92.7492976,129.2168 C92.7492976,129.75206 92.3146533,130.186767 91.779225,130.186767 C91.2437968,130.186767 90.8091525,129.75206 90.8091525,129.2168 C90.8091525,128.68143 91.2437968,128.246833 91.779225,128.246833 Z" id="Fill-30" fill="#B31A21"></path>
            <path d="M94.7875917,125.169636 C95.3230199,125.169636 95.7578838,125.604343 95.7578838,126.139603 C95.7578838,126.674973 95.3230199,127.10957 94.7875917,127.10957 C94.2522732,127.10957 93.8175191,126.674973 93.8175191,126.139603 C93.8175191,125.604343 94.2522732,125.169636 94.7875917,125.169636 Z" id="Fill-31" fill="#B31A21"></path>
            <path d="M97.4958023,121.988373 C98.0315599,121.988373 98.466314,122.42297 98.466314,122.95834 C98.466314,123.49371 98.0315599,123.928307 97.4958023,123.928307 C96.9611426,123.928307 96.5263885,123.49371 96.5263885,122.95834 C96.5263885,122.42297 96.9611426,121.988373 97.4958023,121.988373 Z" id="Fill-32" fill="#B31A21"></path>
            <path d="M100.610442,118.609845 C101.145102,118.609845 101.579856,119.044442 101.579856,119.579812 C101.579856,120.115072 101.145102,120.549669 100.610442,120.549669 C100.074685,120.549669 99.6399305,120.115072 99.6399305,119.579812 C99.6399305,119.044442 100.074685,118.609845 100.610442,118.609845 Z" id="Fill-33" fill="#B31A21"></path>
            <path d="M88.5745604,134.01537 C89.1099886,134.01537 89.5446329,134.449967 89.5446329,134.985337 C89.5446329,135.520707 89.1099886,135.955304 88.5745604,135.955304 C88.0392419,135.955304 87.6045976,135.520707 87.6045976,134.985337 C87.6045976,134.449967 88.0392419,134.01537 88.5745604,134.01537 Z" id="Fill-34" fill="#B31A21"></path>
            <path d="M92.1668808,132.055786 C92.702309,132.055786 93.1369533,132.490493 93.1369533,133.025753 C93.1369533,133.561123 92.702309,133.99572 92.1668808,133.99572 C91.6314526,133.99572 91.1968082,133.561123 91.1968082,133.025753 C91.1968082,132.490493 91.6314526,132.055786 92.1668808,132.055786 Z" id="Fill-35" fill="#B31A21"></path>
            <path d="M95.1752474,128.978699 C95.7106756,128.978699 96.1454297,129.413296 96.1454297,129.948666 C96.1454297,130.484036 95.7106756,130.918633 95.1752474,130.918633 C94.639929,130.918633 94.2052846,130.484036 94.2052846,129.948666 C94.2052846,129.413296 94.639929,128.978699 95.1752474,128.978699 Z" id="Fill-36" fill="#B31A21"></path>
            <path d="M97.8844461,125.797436 C98.4191058,125.797436 98.8538599,126.232033 98.8538599,126.767403 C98.8538599,127.302663 98.4191058,127.73737 97.8844461,127.73737 C97.3486885,127.73737 96.9139344,127.302663 96.9139344,126.767403 C96.9139344,126.232033 97.3486885,125.797436 97.8844461,125.797436 Z" id="Fill-37" fill="#B31A21"></path>
            <path d="M100.997988,122.418798 C101.533746,122.418798 101.967402,122.853505 101.967402,123.388765 C101.967402,123.924135 101.533746,124.358732 100.997988,124.358732 C100.462231,124.358732 100.027476,123.924135 100.027476,123.388765 C100.027476,122.853505 100.462231,122.418798 100.997988,122.418798 Z" id="Fill-38" fill="#B31A21"></path>
            <path d="M78.1301421,156.422308 C78.6655703,156.422308 79.1002146,156.856905 79.1002146,157.392275 C79.1002146,157.927645 78.6655703,158.362242 78.1301421,158.362242 C77.5947139,158.362242 77.1600695,157.927645 77.1600695,157.392275 C77.1600695,156.856905 77.5947139,156.422308 78.1301421,156.422308 Z" id="Fill-39" fill="#B31A21"></path>
            <path d="M79.5879955,161.158526 C80.1234237,161.158526 80.5580681,161.593123 80.5580681,162.128493 C80.5580681,162.663753 80.1234237,163.09835 79.5879955,163.09835 C79.0526771,163.09835 78.6180328,162.663753 78.6180328,162.128493 C78.6180328,161.593123 79.0526771,161.158526 79.5879955,161.158526 Z" id="Fill-40" fill="#B31A21"></path>
            <path d="M81.3281098,166.339111 C81.7530929,166.339111 82.0981515,166.684132 82.0981515,167.109069 C82.0981515,167.534006 81.7530929,167.878917 81.3281098,167.878917 C80.9031267,167.878917 80.5580681,167.534006 80.5580681,167.109069 C80.5580681,166.684132 80.9031267,166.339111 81.3281098,166.339111 Z" id="Fill-41" fill="#B31A21"></path>
            <path d="M82.7816816,170.475851 C83.1590174,170.475851 83.4653214,170.782122 83.4653214,171.159307 C83.4653214,171.536602 83.1590174,171.842872 82.7816816,171.842872 C82.4044555,171.842872 82.0981515,171.536602 82.0981515,171.159307 C82.0981515,170.782122 82.4044555,170.475851 82.7816816,170.475851 Z" id="Fill-42" fill="#B31A21"></path>
            <path d="M81.2237029,101.097639 C80.6584128,102.074632 78.0562558,102.232707 77.208156,103.473158 C75.2785504,106.295459 77.2738082,108.432767 79.8630104,111.113459 C80.1811714,111.237504 66.8626552,113.176559 65.0250507,103.80797 C63.2308117,94.6604662 68.049007,100.482902 71.5807253,101.552105 C75.1124436,102.621308 81.2237029,101.097639 81.2237029,101.097639 Z" id="Fill-43" fill="#C72027"></path>
            <path d="M67.141842,106.754316 C67.141842,106.754316 70.7088018,110.797308 76.7755976,110.469083 L77.4835002,108.818075 C77.4835002,108.818075 72.9467973,108.40203 67.141842,106.754316" id="Fill-44" fill="#EFE5FF"></path>
            <path d="M59.3899349,28.6849323 C70.6892598,28.6849323 79.8630104,43.2157744 79.8630104,61.1133985 C79.8630104,79.0099248 70.6892598,93.5407669 59.3899349,93.5407669 C51.1528818,93.5407669 45.7737879,97.5222857 40.0330576,104.76191 C37.357234,108.136376 38.9169692,65.9632331 38.9169692,61.1133985 C38.9169692,43.2157744 48.09061,28.6849323 59.3899349,28.6849323 Z" id="Fill-45" fill="#C72027"></path>
            <path d="M53.6649041,92.3573985 L40.1494312,117.980069" id="Stroke-46" stroke="#B31A21" stroke-width="3.84999998" stroke-linecap="round" stroke-linejoin="round"></path>
            <path d="M41.0972171,138.570131 L44.2633467,137.05722 L45.6637819,139.14458 C45.6637819,139.14458 41.8291629,151.297598 40.2064103,150.739615 C40.0709339,150.692961 39.9371043,150.639062 39.8054704,150.579235 C40.5261083,146.920892 40.9241937,142.958913 41.0972171,138.570131 Z" id="Fill-47" fill="#C72027"></path>
            <path d="M40.7722494,117.364783 L44.2576379,115.456794 L45.6637819,116.250683 C45.6637819,116.250683 45.5527879,129.028976 41.2819876,128.886269 C41.2434526,128.884952 41.2050273,128.882976 41.1668217,128.880451 C41.1030358,125.313441 40.9598743,121.489558 40.7722494,117.364783 Z" id="Fill-48" fill="#C72027"></path>
            <path d="M41.3825519,131.000744 C35.3421048,134.469507 27.9165926,138.849617 29.8962608,132.500373 C31.8758192,126.151239 45.7055007,118.804914 45.7055007,115.963952 C45.7055007,113.122989 41.68677,107.455774 30.5068927,116.766074 C19.7804332,125.69842 12.3732553,141.690579 24.1964809,145.44695 C34.5292464,148.729755 45.6637819,139.14458 45.6637819,139.14458 C45.6637819,139.14458 47.4231088,127.531982 41.3825519,131.000744 Z" id="Fill-49" fill="#E6232C"></path>
            <path d="M31.817852,134.744821 C32.3532802,134.744821 32.7879245,135.179418 32.7879245,135.714788 C32.7879245,136.250158 32.3532802,136.684755 31.817852,136.684755 C31.2824237,136.684755 30.8477794,136.250158 30.8477794,135.714788 C30.8477794,135.179418 31.2824237,134.744821 31.817852,134.744821 Z" id="Fill-50" fill="#C72027"></path>
            <path d="M35.5527849,133.774854 C36.0881033,133.774854 36.5228574,134.209451 36.5228574,134.744821 C36.5228574,135.280191 36.0881033,135.714788 35.5527849,135.714788 C35.0173567,135.714788 34.5827124,135.280191 34.5827124,134.744821 C34.5827124,134.209451 35.0173567,133.774854 35.5527849,133.774854 Z" id="Fill-51" fill="#C72027"></path>
            <path d="M39.0475052,131.83492 C39.5828236,131.83492 40.0175777,132.269517 40.0175777,132.804887 C40.0175777,133.340257 39.5828236,133.774854 39.0475052,133.774854 C38.512077,133.774854 38.0774327,133.340257 38.0774327,132.804887 C38.0774327,132.269517 38.512077,131.83492 39.0475052,131.83492 Z" id="Fill-52" fill="#C72027"></path>
            <path d="M35.5527849,136.684755 C36.0881033,136.684755 36.5228574,137.119352 36.5228574,137.654722 C36.5228574,138.189982 36.0881033,138.624689 35.5527849,138.624689 C35.0173567,138.624689 34.5827124,138.189982 34.5827124,137.654722 C34.5827124,137.119352 35.0173567,136.684755 35.5527849,136.684755 Z" id="Fill-53" fill="#C72027"></path>
            <path d="M40.0175777,134.744821 C40.5528962,134.744821 40.9876503,135.179418 40.9876503,135.714788 C40.9876503,136.250158 40.5528962,136.684755 40.0175777,136.684755 C39.4821495,136.684755 39.0475052,136.250158 39.0475052,135.714788 C39.0475052,135.179418 39.4821495,134.744821 40.0175777,134.744821 Z" id="Fill-54" fill="#C72027"></path>
            <path d="M43.4783741,132.804887 C44.0138023,132.804887 44.4484466,133.239484 44.4484466,133.774854 C44.4484466,134.310224 44.0138023,134.744821 43.4783741,134.744821 C42.9429459,134.744821 42.5083015,134.310224 42.5083015,133.774854 C42.5083015,133.239484 42.9429459,132.804887 43.4783741,132.804887 Z" id="Fill-55" fill="#C72027"></path>
            <path d="M84.4303438,122.766564 C84.4303438,122.766564 84.9083537,142.896451 93.3486215,143.60252 C107.666413,144.800269 106.032792,127.132952 113.783711,127.36732 C121.533532,127.601689 125.623075,135.145059 117.119021,137.724429 C111.439771,139.447119 110.076225,153.003054 93.0750338,152.530805 C79.621151,152.157132 79.8630104,139.997638 79.8630104,139.997638 L84.4303438,122.766564 Z" id="Fill-56" fill="#E6232C"></path>
            <path d="M108.026513,132.689734 C108.56227,132.689734 108.997024,133.124331 108.997024,133.659701 C108.997024,134.195071 108.56227,134.629668 108.026513,134.629668 C107.490755,134.629668 107.057099,134.195071 107.057099,133.659701 C107.057099,133.124331 107.490755,132.689734 108.026513,132.689734 Z" id="Fill-57" fill="#C72027"></path>
            <path d="M105.536557,136.279138 C106.072315,136.279138 106.507069,136.713735 106.507069,137.249105 C106.507069,137.784365 106.072315,138.219072 105.536557,138.219072 C105.001898,138.219072 104.567144,137.784365 104.567144,137.249105 C104.567144,136.713735 105.001898,136.279138 105.536557,136.279138 Z" id="Fill-58" fill="#C72027"></path>
            <path d="M102.901684,139.62177 C103.437442,139.62177 103.871098,140.056477 103.871098,140.591737 C103.871098,141.127107 103.437442,141.561704 102.901684,141.561704 C102.365926,141.561704 101.931172,141.127107 101.931172,140.591737 C101.931172,140.056477 102.365926,139.62177 102.901684,139.62177 Z" id="Fill-59" fill="#C72027"></path>
            <path d="M98.7506607,142.194883 C99.2864183,142.194883 99.7211724,142.629589 99.7211724,143.16485 C99.7211724,143.70022 99.2864183,144.134817 98.7506607,144.134817 C98.2149031,144.134817 97.7812469,143.70022 97.7812469,143.16485 C97.7812469,142.629589 98.2149031,142.194883 98.7506607,142.194883 Z" id="Fill-60" fill="#C72027"></path>
            <path d="M93.7463775,142.945301 C94.2818058,142.945301 94.7164501,143.380008 94.7164501,143.915268 C94.7164501,144.450638 94.2818058,144.885235 93.7463775,144.885235 C93.2109493,144.885235 92.776305,144.450638 92.776305,143.915268 C92.776305,143.380008 93.2109493,142.945301 93.7463775,142.945301 Z" id="Fill-61" fill="#C72027"></path>
            <path d="M96.8107352,144.885235 C97.3464928,144.885235 97.7812469,145.319941 97.7812469,145.855202 C97.7812469,146.390571 97.3464928,146.825168 96.8107352,146.825168 C96.2749776,146.825168 95.8402235,146.390571 95.8402235,145.855202 C95.8402235,145.319941 96.2749776,144.885235 96.8107352,144.885235 Z" id="Fill-62" fill="#C72027"></path>
            <path d="M101.931172,143.16485 C102.46693,143.16485 102.901684,143.599556 102.901684,144.134817 C102.901684,144.670186 102.46693,145.104783 101.931172,145.104783 C101.396513,145.104783 100.961759,144.670186 100.961759,144.134817 C100.961759,143.599556 101.396513,143.16485 101.931172,143.16485 Z" id="Fill-63" fill="#C72027"></path>
            <path d="M106.186493,139.62177 C106.721153,139.62177 107.155907,140.056477 107.155907,140.591737 C107.155907,141.127107 106.721153,141.561704 106.186493,141.561704 C105.650735,141.561704 105.215981,141.127107 105.215981,140.591737 C105.215981,140.056477 105.650735,139.62177 106.186493,139.62177 Z" id="Fill-64" fill="#C72027"></path>
            <path d="M109.478987,135.714788 C110.013646,135.714788 110.4484,136.149385 110.4484,136.684755 C110.4484,137.220125 110.013646,137.654722 109.478987,137.654722 C108.943229,137.654722 108.508475,137.220125 108.508475,136.684755 C108.508475,136.149385 108.943229,135.714788 109.478987,135.714788 Z" id="Fill-65" fill="#C72027"></path>
            <path d="M113.040457,132.955278 C113.576215,132.955278 114.010969,133.389875 114.010969,133.925245 C114.010969,134.460505 113.576215,134.895212 113.040457,134.895212 C112.505797,134.895212 112.071043,134.460505 112.071043,133.925245 C112.071043,133.389875 112.505797,132.955278 113.040457,132.955278 Z" id="Fill-66" fill="#C72027"></path>
            <path d="M114.010969,130.879224 C114.010969,130.879224 110.10916,131.892332 111.13237,133.279662 C112.155579,134.666991 113.165614,133.410403 116.077149,133.499211 C118.989781,133.588128 119.547496,131.270899 118.54844,130.539911 C117.548286,129.808923 114.010969,130.879224 114.010969,130.879224" id="Fill-67" fill="#C72027"></path>
            <path d="M40.2834804,117.980069 L34.5307834,128.886269" id="Stroke-68" stroke="#B31A21" stroke-width="3.84999998" stroke-linecap="round" stroke-linejoin="round"></path>
            <path d="M69.1170089,28.5202707 C77.5958117,29.626797 82.997302,41.8886015 81.171774,55.8859398 C79.3461361,69.8832782 70.9801937,80.3502707 62.501391,79.2448421 C54.0225882,78.1394135 48.6210979,65.877609 50.4467357,51.8791729 C52.2722638,37.8818346 60.6382062,27.4148421 69.1170089,28.5202707 Z" id="Fill-69" fill="#DB1F28"></path>
            <path d="M67.586916,51.1711278 C77.3029016,54.3589774 80.8384625,65.152 77.4597864,76.5202406 C74.0811103,87.8873835 64.5809647,95.9086015 55.343538,92.363985 C42.9614998,87.6129474 42.0919916,78.382015 45.4705579,67.0148722 C48.849234,55.6466316 57.1788371,47.7549474 67.586916,51.1711278 Z" id="Fill-70" fill="#B31A21"></path>
            <path d="M68.621543,53.3183158 C76.0381624,55.5214887 79.4780994,65.9972632 76.2983562,76.694782 C73.1187228,87.3933985 64.5158614,94.2894286 57.0991321,92.0862556 C49.6825127,89.881985 46.2425758,79.4073083 49.4223189,68.7086917 C52.6019523,58.0100752 61.2048137,51.1140451 68.621543,53.3183158 Z" id="Fill-71" fill="#EFE5FF"></path>
            <path d="M68.0249637,67.1026917 C71.4868579,68.1400602 73.0565837,73.1227218 71.5280278,78.2217444 C69.9994719,83.3218647 65.9479151,86.6194887 62.4859111,85.5821203 C59.0240169,84.5447519 57.4542911,79.5620902 58.982847,74.4630677 C60.5114029,69.3629474 64.5629598,66.0653233 68.0249637,67.1026917 Z" id="Fill-72" fill="#1C1C1C"></path>
            <path d="M69.2062653,63.1606917 C70.9372673,63.6799248 71.7221302,66.1707068 70.9577973,68.7207669 C70.1935743,71.2708271 68.1677958,72.9196391 66.4367938,72.400406 C64.7057919,71.8822707 63.9210387,69.390391 64.6852618,66.8414286 C65.4494848,64.2913684 67.4752633,62.6425564 69.2062653,63.1606917 Z" id="Fill-73" fill="#EFE5FF"></path>
            <path d="M99.8309588,85.5755338 C98.0798659,86.5678947 96.2420417,87.0036992 94.4064133,86.764391 C86.9872688,85.7961805 82.3768992,74.1765564 84.1174526,60.8312782 C85.8578962,47.486 93.2944968,37.4372481 100.713641,38.4043609 C106.153557,39.1135038 110.587829,43.3409173 111.107119,54.1954135 C110.702007,63.0739699 105.564004,73.7539248 99.8309588,85.5755338 Z" id="Fill-74" fill="#DB1F28"></path>
            <path d="M98.7759116,59.9234436 C104.05993,60.6128271 107.620303,66.7634887 106.72225,73.6518346 C105.824198,80.5390827 100.804764,85.5722406 95.5207452,84.8828571 C90.2365067,84.1934737 86.6759146,78.042812 87.5741868,71.1544662 C88.4725688,64.267218 93.4917829,59.2340602 98.7759116,59.9234436 Z" id="Fill-75" fill="#C72027"></path>
            <path d="M87.7976021,76.6157444 C89.1423756,76.7430827 98.4432588,77.7233684 103.728376,81.0198947 C103.149801,81.7564812 102.509747,82.4063459 101.822484,82.9541203 C100.408435,82.5391729 98.8439791,82.1593534 97.1477794,81.8607669 C90.9022514,80.7619248 88.6463607,78.2711429 87.9295653,77.1580301 C87.8823572,76.9790977 87.8383328,76.7979699 87.7976021,76.6157444 Z" id="Fill-76" fill="#B31A21"></path>
            <path d="M87.4355266,76.342406 C87.4355266,76.342406 90.8347327,79.262406 97.1477794,80.0648571 C103.461595,80.8673083 105.271972,83.1934286 105.271972,83.1934286 C105.271972,83.1934286 107.386458,81.9156541 103.17615,78.8397744 C98.965842,75.7649925 87.4355266,76.342406 87.4355266,76.342406 Z" id="Fill-77" fill="#C72027"></path>
            <path d="M87.21277,81.5577895 C87.21277,81.5577895 97.5528912,81.8706466 99.7672827,86.4965414 L94.732918,90.805188 L86.3394193,84.0134436 L87.21277,81.5577895" id="Fill-78" fill="#E6232C"></path>
            <path d="M183.771436,172.503385 C189.569255,172.503385 194.275797,177.209744 194.275797,183.006603 C194.275797,188.803462 189.569255,193.509821 183.771436,193.509821 C177.974714,193.509821 173.267074,188.803462 173.267074,183.006603 C173.267074,177.209744 177.974714,172.503385 183.771436,172.503385 Z" id="Fill-79" fill="#C72027"></path>
            <path d="M116.077149,106.340466 C123.349399,106.340466 129.253711,112.243696 129.253711,119.515045 C129.253711,126.786394 123.349399,132.689734 116.077149,132.689734 C108.805996,132.689734 102.901684,126.786394 102.901684,119.515045 C102.901684,112.243696 108.805996,106.340466 116.077149,106.340466 Z" id="Fill-80" fill="#B31A21"></path>
            <path d="M106.428023,110.540436 C107.299727,109.60406 108.324034,108.778556 109.488867,108.105639 C115.787312,104.46991 123.852221,106.630271 127.488346,112.92792 C129.478773,116.374838 129.73238,120.351307 128.520338,123.841036 C120.919826,125.993493 112.534342,122.819256 108.405276,115.669317 C107.458917,114.028958 106.80459,112.299132 106.428023,110.540436 Z" id="Fill-81" fill="#C72027"></path>
            <path d="M158.160467,171.549555 C164.484163,171.549555 169.618872,176.683266 169.618872,183.006603 C169.618872,189.32983 164.484163,194.463651 158.160467,194.463651 C151.836771,194.463651 146.702062,189.32983 146.702062,183.006603 C146.702062,176.683266 151.836771,171.549555 158.160467,171.549555 Z" id="Fill-82" fill="#C72027"></path>
            <path d="M156.308371,171.698848 C155.729796,173.690705 155.420199,175.796179 155.420199,177.973555 C155.420199,184.15188 157.915643,189.752023 161.953587,193.819824 C160.765698,194.236857 159.48998,194.463651 158.160467,194.463651 C151.836771,194.463651 146.702062,189.32983 146.702062,183.006603 C146.702062,177.313811 150.864064,172.585167 156.308371,171.698848 Z" id="Fill-83" fill="#D52129"></path>
            <path d="M174.772245,177.590223 C182.526458,178.058301 188.855643,183.84506 190.155514,191.346277 C188.385758,192.703089 186.172464,193.509821 183.771436,193.509821 C177.974714,193.509821 173.267074,188.803462 173.267074,183.006603 C173.267074,181.025723 173.817104,179.172182 174.772245,177.590223 Z" id="Fill-84" fill="#B31A21"></path>
            <path d="M48.0996125,156.133931 C48.3420209,160.384836 53.0022335,165.744353 48.9276215,183.316826 C44.8528997,200.889298 44.8432385,201.688565 48.4392916,202.602877 C52.0353448,203.517078 57.9706165,197.025457 59.1846344,175.915065 C60.3985425,154.804672 61.3928778,153.278698 62.7961674,153.462789 C64.1993472,153.646881 62.0019727,164.298405 64.3442653,177.043656 C66.6866677,189.788907 76.9238092,204.936681 81.2237029,201.185469 C85.5235966,197.434257 74.5907387,189.285262 72.9305489,176.781295 C71.2702494,164.277218 75.3732961,156.583896 75.3732961,156.583896 L69.5216816,144.82892 L59.8707993,146.763695 L48.0996125,156.133931" id="Fill-85" fill="#E6232C"></path>
            <path d="M105.027149,39.7644662 C102.842399,38.3900902 100.198743,37.4229774 94.5096125,39.945594 C94.5096125,39.945594 96.7064382,34.8465714 103.276056,35.3317744 C104.552871,37.9927068 105.091923,39.7018947 105.091923,39.7018947 L105.027149,39.7644662 Z" id="Fill-86" fill="#C72027"></path>
            <path d="M56.6935812,35.2527368 C56.6935812,35.2527368 65.4620005,25.3346165 74.9249285,31.0297143 C74.9249285,31.0297143 74.1147049,27.136015 66.4369036,26.7309474 C58.7630546,26.3269774 56.6935812,35.2527368 56.6935812,35.2527368 Z" id="Fill-87" fill="#C72027"></path>
            <path d="M173.267074,177.559705 C179.591868,177.559705 184.725479,182.693417 184.725479,189.016753 C184.725479,195.33998 179.591868,200.473692 173.267074,200.473692 C166.943378,200.473692 161.809767,195.33998 161.809767,189.016753 C161.809767,182.693417 166.943378,177.559705 173.267074,177.559705 Z" id="Fill-88" fill="#E6232C"></path>
            <path d="M171.099891,200.268523 C165.810383,199.253988 161.809767,194.598893 161.809767,189.016753 C161.809767,182.693417 166.943378,177.559705 173.267074,177.559705 C174.084983,177.559705 174.882032,177.645439 175.651634,177.808454 C171.921093,181.594794 169.618872,186.790528 169.618872,192.519656 C169.618872,195.256113 170.143651,197.87094 171.099891,200.268523 Z" id="Fill-89" fill="#F12B34"></path>
        </g>
    </g>
</svg>