<?xml version="1.0" encoding="UTF-8"?>
<svg width="205px" height="235px" viewBox="0 0 205 235" version="1.1" xmlns="http://www.w3.org/2000/svg" xmlns:xlink="http://www.w3.org/1999/xlink">
    <!-- Generator: Sketch 51 (57462) - http://www.bohemiancoding.com/sketch -->
    <title>terry</title>
    <desc>Created with Sketch.</desc>
    <defs></defs>
    <g id="Casy-Study---Marketplace-Strategy-Solutions" stroke="none" stroke-width="1" fill="none" fill-rule="evenodd">
        <g id="terry">
            <path d="M124.858556,42.4037791 C131.079043,25.5928713 124.58471,11.583065 103.810739,44.7034047 C83.0366255,77.8237443 80.9003672,70.1196404 80.4598382,56.6385331 C80.0194522,43.1588586 73.7885201,46.2551146 59.4952912,71.5954126 C45.2020624,96.9342777 30.5185239,102.709848 35.1538796,69.139613 C39.7893783,35.5708106 22.3726712,28.5343861 6.93598401,115.640765 C-8.50070315,202.74743 4.3946794,189.231506 22.8874563,177.28119 C41.3802333,165.330874 43.1364834,171.353457 39.1469699,203.229707 C35.1573134,235.105813 50.2084124,255.430548 67.8315773,201.546323 C85.4548853,147.662012 118.638068,59.2161197 124.858556,42.4037791 Z" id="Fill-1" fill="#FFD8DF"></path>
            <path d="M125.390103,13.3048743 C131.561802,-3.52465978 145.58519,-9.9550147 139.904812,28.7417379 C134.224291,67.4384905 140.845247,62.9681903 149.921805,53.0031461 C158.998506,43.0395346 161.728384,49.4455321 156.165614,78.0110371 C150.602843,106.574966 158.024163,120.516142 176.267702,91.9735613 C194.512673,63.430981 212.319832,69.4071419 167.571582,145.685651 C122.823331,221.964304 121.782028,203.300084 115.468685,182.186225 C109.155484,161.072367 103.914348,164.510057 86.2771614,191.34461 C68.6399751,218.179163 44.0144158,223.846988 65.5556995,171.410223 C87.0969832,118.973315 119.218404,30.1344083 125.390103,13.3048743 Z" id="Fill-2" fill="#FFD8DF"></path>
            <path d="M114.305053,22.2655337 C104.680516,25.5738425 113.618005,46.6558929 117.360284,51.2293539 C121.102563,55.8028148 130.839128,54.1508097 135.960081,44.5052773 C141.081035,34.8597449 132.800548,36.9688096 130.933129,30.4954711 C129.065709,24.0221325 121.282981,19.8670457 114.305053,22.2655337 Z" id="Fill-3" fill="#FFD8DF"></path>
            <path d="M141.669075,22.2655337 C141.669075,22.2655337 143.104264,16.7492979 144.380496,16.7492979 C145.655297,16.7492979 148.615527,23.4576138 148.615527,23.4576138 L141.669075,22.2655337 Z" id="Fill-4" fill="#B31A22"></path>
            <path d="M168.266928,37.9717616 C168.266928,37.9717616 173.75816,36.4659009 174.393415,37.5720136 C175.0301,38.6795591 170.70064,44.595543 170.70064,44.595543 L168.266928,37.9717616 Z" id="Fill-5" fill="#B31A22"></path>
            <path d="M172.092763,72.8487 C172.092763,72.8487 177.727071,72.0449056 178.220681,73.2226578 C178.71286,74.4018427 173.676607,79.7260849 173.676607,79.7260849 L172.092763,72.8487 Z" id="Fill-6" fill="#B31A22"></path>
            <path d="M160.237538,189.617813 C160.237538,189.617813 206.020224,165.829655 193.491115,120.549239 C189.40059,105.766873 193.359485,148.80125 145.430669,160.588944 L160.237538,189.617813 Z" id="Fill-7" fill="#C72027"></path>
            <polyline id="Stroke-8" stroke="#B31A22" stroke-width="1.71599993" stroke-linejoin="round" points="85.6768171 13.1329397 91.7007192 16.2463891 92.1587034 25.9621281 83.9856663 31.2175965"></polyline>
            <path d="M81.5696957,30.3837136 C82.0285384,29.0497874 83.4836149,28.3376915 84.8170773,28.7976166 C86.1503966,29.2575418 86.8604796,30.7146877 86.4016369,32.0500466 C85.9427942,33.3854055 84.4875747,34.0960686 83.1542554,33.6361435 C81.820793,33.1762184 81.110853,31.7190725 81.5696957,30.3837136 Z" id="Fill-9" fill="#B31A22"></path>
            <polyline id="Stroke-10" stroke="#B31A22" stroke-width="1.71599993" stroke-linejoin="round" points="83.9856663 31.2175965 75.3545019 26.755893 74.8965177 17.040154 80.529824 13.4180646"></polyline>
            <path d="M84.2050009,31.2921015 L87.3447897,96.4882779" id="Stroke-11" stroke="#B31A22" stroke-width="1.71599993" stroke-linecap="round" stroke-linejoin="round"></path>
            <path d="M66.7213345,149.951063 C66.7213345,149.951063 56.5704236,228.319566 89.2981977,228.319566 C101.184613,228.319566 101.821727,199.189127 101.821727,199.189127 L66.7213345,149.951063 Z" id="Fill-12" fill="#E6232C"></path>
            <path d="M65.2336368,179.161322 C63.7649682,159.743456 66.7213345,149.951063 66.7213345,149.951063 L101.821727,199.189127 C101.821727,199.189127 101.6632,206.438464 100.028564,213.704278 C79.1823402,211.83019 69.2566299,191.225545 65.2336368,179.161322 Z" id="Fill-13" fill="#C72027"></path>
            <path d="M106.342337,90.7743173 C106.342337,90.7743173 101.566624,105.850835 87.0554913,94.6729349 C83.9780833,94.5998626 82.473789,99.4938384 84.3568038,100.892527 C86.2399618,102.291358 92.2783144,110.077274 104.208081,104.034059 C116.137848,97.9907 112.213291,95.5626965 112.213291,95.5626965 L106.342337,90.7743173 Z" id="Fill-14" fill="#C72027"></path>
            <path d="M88.1249797,100.573015 L89.5644609,109.450143" id="Stroke-15" stroke="#B31A22" stroke-width="2.85999988" stroke-linecap="round" stroke-linejoin="round"></path>
            <path d="M120.310784,37.6522498 C120.310784,37.6522498 124.36368,24.6697529 127.633238,23.4160629 C130.902654,22.1609402 143.78101,22.1852976 146.23046,22.338606 C148.681341,22.4919143 158.160084,23.4848368 160.220369,24.6525594 C162.279224,25.8188493 174.859841,45.5698392 175.134545,50.2564905 C175.407819,54.9431417 175.125961,84.7551727 174.400569,91.7342856 C173.675177,98.714688 171.411724,115.238752 172.716572,122.198379 C174.021419,129.158149 181.454184,152.436378 180.238044,158.65511 C179.020472,164.873698 164.903226,205.726081 109.155771,205.726081 C53.408458,205.726081 67.2744638,147.028747 67.2744638,147.028747 C67.2744638,147.028747 74.5866165,120.926349 93.1205991,101.148279 C111.654582,81.3694934 138.865513,54.7984301 120.310784,37.6522498 Z" id="Fill-16" fill="#E6232C"></path>
            <path d="M104.001194,65.7836197 C104.001194,65.7836197 103.935809,78.5683918 106.979451,80.1258329 C112.158779,82.7779245 117.673762,84.7150546 129.176306,81.3422704 C140.678707,77.9680534 141.005777,80.9683126 141.005777,80.9683126 C141.005777,80.9683126 151.135084,77.6284825 147.50097,55.9403625 L104.001194,65.7836197 Z" id="Fill-17" fill="#E6232C"></path>
            <path d="M121.67372,63.0656199 L117.714539,74.9821221 C112.240189,71.2511408 108.98036,65.2276978 104.199497,70.7410681 C103.989748,68.0230682 104.001194,65.7836197 104.001194,65.7836197 L121.67372,63.0656199 Z" id="Fill-18" fill="#C72027"></path>
            <path d="M117.595643,74.9821221 C117.595643,74.9821221 118.873735,75.9750446 119.684257,75.4420472 C122.007801,73.9118291 124.211877,70.7467992 125.348039,70.450212 C132.008197,68.7065083 136.951594,67.0115195 140.502581,64.8723662 C144.281774,62.5956653 146.485134,59.8160555 147.50097,55.9403625 L119.160601,63.5828566 L117.595643,74.9821221 Z" id="Fill-19" fill="#C72027"></path>
            <path d="M126.062414,26.8361292 C128.977288,27.677176 130.390873,31.674656 129.216796,35.7595361 C128.042863,39.8444162 124.723085,42.4778815 121.808068,41.6382674 C118.893051,40.7986534 117.479609,36.7997406 118.653685,32.7148605 C119.827619,28.6299804 123.147396,25.9965151 126.062414,26.8361292 Z" id="Fill-20" fill="#C72027"></path>
            <path d="M122.564221,30.7275828 C125.077912,30.7275828 127.118596,32.7707392 127.118596,35.2881487 C127.118596,37.8055581 125.077912,39.8487146 122.564221,39.8487146 C120.050673,39.8487146 118.009989,37.8055581 118.009989,35.2881487 C118.009989,32.7707392 120.050673,30.7275828 122.564221,30.7275828 Z" id="Fill-21" fill="#EFE5FF"></path>
            <path d="M121.888619,34.0946358 C123.384043,34.0946358 124.598038,35.5990638 124.598038,37.4530922 C124.598038,39.3071205 123.384043,40.8115485 121.888619,40.8115485 C120.393196,40.8115485 119.179201,39.3071205 119.179201,37.4530922 C119.179201,35.5990638 120.393196,34.0946358 121.888619,34.0946358 Z" id="Fill-22" fill="#1C1C1C"></path>
            <path d="M121.888619,32.6618473 C122.636331,32.6618473 123.2434,33.4140613 123.2434,34.3410755 C123.2434,35.2680896 122.636331,36.0203036 121.888619,36.0203036 C121.140908,36.0203036 120.533982,35.2680896 120.533982,34.3410755 C120.533982,33.4140613 121.140908,32.6618473 121.888619,32.6618473 Z" id="Fill-23" fill="#EFE5FF"></path>
            <path d="M136.012304,43.5882926 C136.012304,43.5882926 118.745254,35.597631 112.292269,35.3039094 C105.839427,35.0116205 99.3339329,38.7784215 96.3706991,46.2948302 C93.4074652,53.8112388 92.4361266,57.7399449 92.9327411,59.8475769 C93.8112239,63.5756926 96.8087958,70.6121171 97.2725031,71.0706094 C99.3555373,73.1338249 99.2991656,64.3651591 108.3225,67.2980772 C114.195457,69.2065515 117.265998,74.3445312 119.160601,73.9390521 C120.398203,73.6739862 121.906361,68.9357545 125.202531,68.2867013 C128.966272,67.5473824 143.132879,65.3122323 146.885745,56.7857078 C150.638612,48.260616 136.012304,43.5882926 136.012304,43.5882926 Z" id="Fill-24" fill="#E6232C"></path>
            <path d="M101.821727,42.6741736 C101.821727,42.6741736 99.9710475,36.1549857 98.1794578,37.0777016 C96.3880112,38.0004174 94.4732336,40.3086397 94.8722708,42.0122253 C95.271308,43.714378 100.650083,44.1972278 100.650083,44.1972278 L101.821727,42.6741736 Z" id="Fill-25" fill="#E6232C"></path>
            <path d="M119.160601,48.8767151 C119.160601,48.8767151 124.643392,45.16436 125.849947,47.284887 C127.056359,49.4054141 128.166766,51.3425442 126.638722,52.8039885 C125.110677,54.2654328 119.342736,51.1949669 119.342736,51.1949669 L119.160601,48.8767151 Z" id="Fill-26" fill="#C72027"></path>
            <path d="M118.986479,48.5715311 C118.986479,48.5715311 124.092695,44.1227228 125.090217,45.8750231 C126.087595,47.6287563 126.432121,50.6089564 125.168765,51.8182299 C123.905553,53.0260707 119.137137,50.4871694 119.137137,50.4871694 L118.986479,48.5715311 Z" id="Fill-27" fill="#E6232C"></path>
            <path d="M127.592462,204.069634 C146.104554,197.280653 148.008887,173.501521 147.50097,179.932163 C147.028821,185.920932 148.880216,193.829925 149.53264,196.374414 C143.414737,199.712668 136.162676,202.439264 127.592462,204.069634 Z" id="Fill-28" fill="#C72027"></path>
            <path d="M166.036383,110.843816 C165.933369,114.062862 166.318241,142.080898 145.590913,123.432869 C138.250289,116.828717 137.627053,114.002971 141.371907,110.390195 C142.101305,109.687126 147.581092,112.613453 152.743251,111.586 C157.251556,110.688645 160.532274,106.636862 160.532274,106.636862 L166.036383,110.843816 Z" id="Fill-29" fill="#C72027"></path>
            <path d="M152.996494,29.3449419 C156.029692,29.3449419 158.49345,32.9770608 158.49345,37.4516594 C158.49345,41.9262579 156.029692,45.5583769 152.996494,45.5583769 C149.963297,45.5583769 147.50097,41.9262579 147.50097,37.4516594 C147.50097,32.9770608 149.963297,29.3449419 152.996494,29.3449419 Z" id="Fill-30" fill="#C72027"></path>
            <path d="M153.8621,36.0203036 C156.375934,36.0203036 158.416189,38.0634601 158.416189,40.5808695 C158.416189,43.098279 156.375934,45.1414354 153.8621,45.1414354 C151.348266,45.1414354 149.308011,43.098279 149.308011,40.5808695 C149.308011,38.0634601 151.348266,36.0203036 153.8621,36.0203036 Z" id="Fill-31" fill="#EFE5FF"></path>
            <path d="M153.970838,39.2755992 C155.465975,39.2755992 156.680685,40.7814599 156.680685,42.6354883 C156.680685,44.4880838 155.465975,45.9939446 153.970838,45.9939446 C152.4757,45.9939446 151.26099,44.4880838 151.26099,42.6354883 C151.26099,40.7814599 152.4757,39.2755992 153.970838,39.2755992 Z" id="Fill-32" fill="#1C1C1C"></path>
            <path d="M153.970838,37.8428106 C154.717691,37.8428106 155.325761,38.5964574 155.325761,39.5220388 C155.325761,40.449053 154.717691,41.2026997 153.970838,41.2026997 C153.222553,41.2026997 152.615914,40.449053 152.615914,39.5220388 C152.615914,38.5964574 153.222553,37.8428106 153.970838,37.8428106 Z" id="Fill-33" fill="#EFE5FF"></path>
            <path d="M180.084953,152.237793 C180.084953,152.237793 201.104155,226.476298 180.371104,226.476298 C152.952141,226.476298 147.50097,189.13525 147.50097,189.13525 L180.084953,152.237793 Z" id="Fill-34" fill="#E6232C"></path>
            <path d="M161.206159,43.4593417 L161.181836,50.286579 L152.996494,50.8296059 L148.2793,44.5024117 C152.302579,43.9909062 157.261571,43.4822663 161.206159,43.4593417 Z" id="Fill-35" fill="#E6232C"></path>
            <path d="M159.460639,25.6598098 L159.436316,32.4870471 L151.250975,33.030074 L146.53378,26.7028798 C150.557059,26.1913743 155.516051,25.6827344 159.460639,25.6598098 Z" id="Fill-36" fill="#E6232C"></path>
            <path d="M126.727714,29.7747784 C126.727714,29.7747784 121.736101,27.880632 122.157029,27.5983726 C123.389337,26.775952 124.765865,26.4621713 126.062414,26.8361292 C126.938751,27.0882999 127.679452,27.6270284 128.254901,28.3677801 L126.727714,29.7747784 Z" id="Fill-37" fill="#E6232C"></path>
            <path d="M110.780105,81.8251201 C115.09812,83.3968891 120.39062,83.9184242 129.176306,81.3422704 C140.678707,77.9680534 141.005777,80.9683126 141.005777,80.9683126 C141.005777,80.9683126 141.574788,80.7806173 142.393179,80.2003379 C141.071449,81.9325793 137.663108,84.6720709 129.181028,85.4128226 C121.838829,86.0547119 114.442834,84.6233561 109.522473,83.3066235 C109.945117,82.8137442 110.364614,82.3194322 110.780105,81.8251201 Z" id="Fill-38" fill="#C72027"></path>
            <polyline id="Stroke-39" stroke="#B31A22" stroke-width="1.71599993" stroke-linejoin="round" points="201.682179 51.1290587 203.932755 57.5321906 197.610254 64.9167827 188.062835 63.125797"></polyline>
            <path d="M186.87531,60.8605584 C188.124358,60.2043412 189.669572,60.6857582 190.326287,61.9365825 C190.981573,63.1874069 190.499409,64.7348185 189.250361,65.3910357 C188.002744,66.0472528 186.456099,65.5658359 185.800814,64.3150115 C185.145529,63.0641871 185.627693,61.5167755 186.87531,60.8605584 Z" id="Fill-40" fill="#B31A22"></path>
            <polyline id="Stroke-41" stroke="#B31A22" stroke-width="1.71599993" stroke-linejoin="round" points="188.062835 63.125797 184.839347 53.9502193 191.161848 46.56706 197.740453 47.8006909"></polyline>
            <path d="M188.171572,63.3306858 L145.795511,112.925371" id="Stroke-42" stroke="#B31A22" stroke-width="1.71599993" stroke-linecap="round" stroke-linejoin="round"></path>
            <path d="M143.423322,115.701256 L137.585131,122.534511" id="Stroke-43" stroke="#B31A22" stroke-width="2.85999988" stroke-linecap="round" stroke-linejoin="round"></path>
            <path d="M160.510812,102.532353 C160.510812,102.532353 159.618022,118.324405 142.792359,111.100715 C139.79307,111.794041 139.547982,116.90881 141.718722,117.796136 C143.889747,118.683318 151.667324,124.726104 161.726953,115.908294 C171.788013,107.090483 167.384153,105.712857 167.384153,105.712857 L160.510812,102.532353 Z" id="Fill-44" fill="#E6232C"></path>
        </g>
    </g>
</svg>