<?xml version="1.0" encoding="UTF-8"?>
<svg width="200px" height="200px" viewBox="0 0 200 200" version="1.1" xmlns="http://www.w3.org/2000/svg" xmlns:xlink="http://www.w3.org/1999/xlink">
    <!-- Generator: Sketch 51 (57462) - http://www.bohemiancoding.com/sketch -->
    <title>marketplace</title>
    <desc>Created with Sketch.</desc>
    <defs></defs>
    <g id="Casy-Study---Chorck" stroke="none" stroke-width="1" fill="none" fill-rule="evenodd">
        <g id="marketplace">
            <path d="M99.9573913,0 C155.126087,0 199.914783,44.7886957 199.914783,99.9573913 C199.914783,155.125304 155.126087,199.914783 99.9573913,199.914783 C44.7894783,199.914783 0,155.125304 0,99.9573913 C0,44.7886957 44.7894783,0 99.9573913,0 Z" id="Fill-1" fill-opacity="0.1004" fill="#01AAB7"></path>
            <path d="M197.205217,48.26 C197.205217,47.1391304 196.295652,46.2295652 195.174783,46.2295652 L140.193043,46.2295652 C139.073043,46.2295652 138.162609,47.1391304 138.162609,48.26 L138.162609,64.5 C138.162609,65.62 139.073043,66.5295652 140.193043,66.5295652 L195.174783,66.5295652 C196.295652,66.5295652 197.205217,65.62 197.205217,64.5 L197.205217,48.26 Z" id="Fill-2" fill="#BEE9ED"></path>
            <polygon id="Fill-3" fill="#94DBE1" points="159.626957 59.9626087 175.740435 59.9626087 175.740435 57.5156435 159.626957 57.5156435"></polygon>
            <polygon id="Fill-4" fill="#94DBE1" points="157.146957 55.2434783 178.221826 55.2434783 178.221826 52.796513 157.146957 52.796513"></polygon>
            <path d="M123.821739,48.26 C123.821739,47.1391304 122.912174,46.2295652 121.791304,46.2295652 L66.8095652,46.2295652 C65.6891304,46.2295652 64.7795652,47.1391304 64.7795652,48.26 L64.7795652,64.5 C64.7795652,65.62 65.6891304,66.5295652 66.8095652,66.5295652 L121.791304,66.5295652 C122.912174,66.5295652 123.821739,65.62 123.821739,64.5 L123.821739,48.26 Z" id="Fill-5" fill="#BEE9ED"></path>
            <polygon id="Fill-6" fill="#94DBE1" points="74.136 59.9626087 114.465217 59.9626087 114.465217 57.5156435 74.136 57.5156435"></polygon>
            <polygon id="Fill-7" fill="#94DBE1" points="83.7631304 55.2434783 104.838 55.2434783 104.838 52.796513 83.7631304 52.796513"></polygon>
            <path d="M197.205217,86.8330435 C197.205217,85.7130435 196.295652,84.8026087 195.174783,84.8026087 L140.193043,84.8026087 C139.073043,84.8026087 138.162609,85.7130435 138.162609,86.8330435 L138.162609,103.073043 C138.162609,104.193913 139.073043,105.103478 140.193043,105.103478 L195.174783,105.103478 C196.295652,105.103478 197.205217,104.193913 197.205217,103.073043 L197.205217,86.8330435 Z" id="Fill-8" fill="#BDE9ED"></path>
            <polygon id="Fill-9" fill="#94DBE1" points="159.626957 98.5365217 175.740435 98.5365217 175.740435 96.0895565 159.626957 96.0895565"></polygon>
            <polygon id="Fill-10" fill="#94DBE1" points="148.413043 93.8165217 186.955913 93.8165217 186.955913 91.3695565 148.413043 91.3695565"></polygon>
            <path d="M123.821739,86.8330435 C123.821739,85.7130435 122.912174,84.8026087 121.791304,84.8026087 L66.8095652,84.8026087 C65.6891304,84.8026087 64.7795652,85.7130435 64.7795652,86.8330435 L64.7795652,103.073043 C64.7795652,104.193913 65.6891304,105.103478 66.8095652,105.103478 L121.791304,105.103478 C122.912174,105.103478 123.821739,104.193913 123.821739,103.073043 L123.821739,86.8330435 Z" id="Fill-11" fill="#BDE9ED"></path>
            <text id="FREE" font-family="Arial-BoldMT, Arial" font-size="10.7198261" font-weight="bold" letter-spacing="-0.00214396514" fill="#A3E1E7">
                <tspan x="79.8775652" y="96.8135095">F</tspan>
                <tspan x="86.4235181" y="96.8135095" letter-spacing="0.00214396514">R</tspan>
                <tspan x="94.1671771" y="96.8135095" letter-spacing="-0.00107198257">E</tspan>
                <tspan x="101.316145" y="96.8135095" letter-spacing="-7.15012393">E</tspan>
            </text>
            <path d="M197.205217,127.849304 C197.205217,126.72887 196.295652,125.819304 195.174783,125.819304 L140.193043,125.819304 C139.073043,125.819304 138.162609,126.72887 138.162609,127.849304 L138.162609,144.089478 C138.162609,145.209913 139.073043,146.119478 140.193043,146.119478 L195.174783,146.119478 C196.295652,146.119478 197.205217,145.209913 197.205217,144.089478 L197.205217,127.849304 Z" id="Fill-12" fill="#BDE9ED"></path>
            <polygon id="Fill-13" fill="#94DBE1" points="155.698261 139.552609 179.670261 139.552609 179.670261 137.105643 155.698261 137.105643"></polygon>
            <polygon id="Fill-14" fill="#94DBE1" points="152.022609 134.83313 162.173913 134.83313 162.173913 132.386165 152.022609 132.386165"></polygon>
            <polygon id="Fill-15" fill="#94DBE1" points="164.926087 134.83313 186.955652 134.83313 186.955652 132.386165 164.926087 132.386165"></polygon>
            <path d="M33.9731304,116.200348 C33.9731304,116.200348 52.5777391,137.865478 47.5809565,171.494348" id="Stroke-16" stroke="#85837B" stroke-width="8.69565217"></path>
            <polygon id="Fill-17" fill="#969387" points="35.1850435 71.2756522 36.202087 71.4443478 37.2108696 71.7182609 38.2036522 72.0991304 38.2053043 72.1 39.1541739 72.58 40.0341739 73.1443478 40.8417391 73.7852174 41.5741739 74.4947826 42.2286957 75.2678261 42.8026957 76.0956522 43.2933913 76.9721739 43.698 77.8895652 44.013913 78.8417391 44.2382609 79.8208696 44.3685217 80.82 44.4018261 81.8321739 44.3354783 82.8495652 44.1667826 83.8669565 43.8930435 84.8756522 43.5203478 85.846087 43.5226957 85.8426087 43.5154783 85.8591304 43.5118261 85.8686957 43.5114783 85.8695652 43.5068696 85.8782609 43.5154783 85.8591304 43.5203478 85.846087 43.517913 85.8504348 43.5107826 85.8608696 43.5073913 85.8643478 43.5 85.8773913 43.4905217 85.8947826 43.4791304 85.9165217 43.4657391 85.9417391 43.4505217 85.9713043 43.4333043 86.0052174 43.4143478 86.0434783 43.3934783 86.086087 43.3709565 86.1321739 43.3466087 86.1826087 43.3205217 86.2373913 43.2928696 86.2956522 43.2634783 86.3582609 43.2326087 86.4243478 43.1988696 86.4973913 43.1832174 86.5313043 43.166 86.5686957 43.1484348 86.6078261 43.1304348 86.6469565 43.1121739 86.6878261 43.0934783 86.7295652 43.0744348 86.7713043 43.0550435 86.8147826 43.0353043 86.8591304 43.0152174 86.9052174 42.9947826 86.9513043 42.974 86.9982609 42.9529565 87.046087 42.9314783 87.0956522 42.9097391 87.1452174 42.8877391 87.1965217 42.8653913 87.2486957 42.8426957 87.3017391 42.8196522 87.3547826 42.7964348 87.4095652 42.7727826 87.4652174 42.7489565 87.5217391 42.7247826 87.5791304 42.7003478 87.6373913 42.6755652 87.6965217 42.6506087 87.7573913 42.6253043 87.8182609 42.5997391 87.88 42.574 87.9426087 42.547913 88.0069565 42.5215652 88.0713043 42.4950435 88.1365217 42.4682609 88.2034783 42.4412174 88.2704348 42.413913 88.3382609 42.3863478 88.4078261 42.3586087 88.4773913 42.3306957 88.5486957 42.3024348 88.62 42.274087 88.6921739 42.2454783 88.766087 42.2166087 88.84 42.1875652 88.9147826 42.1583478 88.9913043 42.1289565 89.0678261 42.0993913 89.1452174 42.0695652 89.2234783 42.0395652 89.3026087 42.0094783 89.3834783 41.9791304 89.4643478 41.9486087 89.546087 41.918 89.6286957 41.8871304 89.7121739 41.8561739 89.7956522 41.8250435 89.8808696 41.7938261 89.9669565 41.7623478 90.053913 41.7308696 90.1408696 41.6991304 90.2295652 41.6673043 90.3182609 41.6353913 90.4086957 41.6033043 90.4991304 41.5711304 90.5904348 41.5388696 90.6826087 41.5064348 90.7756522 41.474 90.8695652 41.4413913 90.9643478 41.4086087 91.0591304 41.3758261 91.1556522 41.3429565 91.2521739 41.31 91.3504348 41.2769565 91.4486957 41.2438261 91.5478261 41.2106087 91.6478261 41.1773913 91.7486957 41.144087 91.8504348 41.1106957 91.9521739 41.0772174 92.0547826 41.0437391 92.1591304 41.0102609 92.2634783 40.9766087 92.3686957 40.9430435 92.4747826 40.9093913 92.5808696 40.8757391 92.6886957 40.842 92.7965217 40.8083478 92.9052174 40.7746087 93.0147826 40.7407826 93.1252174 40.7070435 93.2356522 40.6733043 93.3478261 40.6395652 93.46 40.6058261 93.5730435 40.572 93.6869565 40.5382609 93.8017391 40.5046087 93.9165217 40.4708696 94.0321739 40.4372174 94.1486957 40.4035652 94.266087 40.369913 94.3843478 40.3363478 94.5026087 40.3028696 94.6217391 40.2693913 94.7417391 40.2353913 94.8643478 40.2192174 94.9226087 40.2025217 94.9834783 40.1858261 95.0443478 40.1692174 95.106087 40.1525217 95.1669565 40.135913 95.2286957 40.1193043 95.2895652 40.1026957 95.3513043 40.0861739 95.4130435 40.0696522 95.4756522 40.0530435 95.5373913 40.0365217 95.6 40.020087 95.6626087 40.0035652 95.7252174 39.9871304 95.7878261 39.9706957 95.8513043 39.9542609 95.913913 39.937913 95.9773913 39.9214783 96.0408696 39.9051304 96.1043478 39.8888696 96.1686957 39.8725217 96.2321739 39.8562609 96.2965217 39.84 96.3608696 39.8238261 96.4252174 39.8075652 96.4895652 39.7914783 96.5547826 39.7753043 96.6191304 39.7592174 96.6843478 39.7431304 96.7495652 39.7270435 96.8147826 39.7110435 96.8808696 39.6950435 96.946087 39.6790435 97.0121739 39.6631304 97.0782609 39.6472174 97.1443478 39.6313043 97.2104348 39.6154783 97.2773913 39.5996522 97.3434783 39.583913 97.4104348 39.5681739 97.4773913 39.5524348 97.5443478 39.5367826 97.6113043 39.5211304 97.6791304 39.5055652 97.746087 39.49 97.813913 39.4744348 97.8817391 39.4589565 97.9495652 39.4434783 98.0182609 39.428087 98.086087 39.4126957 98.1547826 39.3973913 98.2226087 39.382087 98.2913043 39.3668696 98.3608696 39.3516522 98.4295652 39.3364348 98.4982609 39.3213043 98.5678261 39.3062609 98.6373913 39.2912174 98.7069565 39.2761739 98.7765217 39.2612174 98.846087 39.2463478 98.9165217 39.2314783 98.9869565 39.2166087 99.0565217 39.2018261 99.1269565 39.1871304 99.1982609 39.1724348 99.2686957 39.1578261 99.3391304 39.1432174 99.4104348 39.1286957 99.4817391 39.1141739 99.5530435 39.0997391 99.6243478 39.0853913 99.6956522 39.0710435 99.7678261 39.0567826 99.8391304 39.0425217 99.9113043 39.0283478 99.9834783 39.0141739 100.055652 39.000087 100.127826 38.986087 100.20087 38.972087 100.273043 38.9581739 100.346087 38.9443478 100.41913 38.9305217 100.492174 38.9167826 100.565217 38.9030435 100.638261 38.8894783 100.712174 38.8758261 100.785217 38.8623478 100.85913 38.8488696 100.933043 38.8354783 101.006957 38.8221739 101.08087 38.8088696 101.155652 38.7956522 101.229565 38.7824348 101.304348 38.7693913 101.37913 38.7563478 101.453913 38.7433043 101.528696 38.7304348 101.603478 38.7175652 101.67913 38.7047826 101.753913 38.692087 101.829565 38.6793913 101.905217 38.6667826 101.98087 38.6542609 102.056522 38.6418261 102.133043 38.6294783 102.208696 38.6171304 102.285217 38.6048696 102.36087 38.5926957 102.437391 38.5805217 102.513913 38.5685217 102.591304 38.5565217 102.667826 38.5446087 102.744348 38.5327826 102.821739 38.5209565 102.89913 38.5093043 102.976522 38.4976522 103.053913 38.486087 103.131304 38.4746087 103.208696 38.4632174 103.286957 38.451913 103.364348 38.4406957 103.442609 38.4294783 103.52087 38.4183478 103.59913 38.4073043 103.677391 38.3964348 103.756522 38.3854783 103.834783 38.3746957 103.913913 38.364 103.992174 38.3533913 104.071304 38.3427826 104.150435 38.3323478 104.229565 38.321913 104.309565 38.3115652 104.388696 38.3013913 104.468696 38.2912174 104.547826 38.2811304 104.627826 38.2711304 104.707826 38.2612174 104.787826 38.2513913 104.867826 38.2416522 104.948696 38.232 105.028696 38.2224348 105.109565 38.2129565 105.189565 38.2035652 105.270435 38.1942609 105.351304 38.1850435 105.432174 38.1758261 105.513913 38.1667826 105.594783 38.1578261 105.675652 38.1489565 105.757391 38.1401739 105.83913 38.1314783 105.92087 38.1228696 106.002609 38.1143478 106.084348 38.105913 106.166087 38.0976522 106.248696 38.0893913 106.330435 38.0812174 106.413043 38.0732174 106.494783 38.0652174 106.577391 38.0573913 106.66 38.0495652 106.742609 38.041913 106.826087 38.0343478 106.908696 38.0268696 106.992174 38.0194783 107.074783 38.0121739 107.158261 38.0049565 107.241739 37.997913 107.325217 37.9908696 107.408696 37.984 107.492174 37.9772174 107.575652 37.9705217 107.66 37.963913 107.743478 37.9573913 107.827826 37.9510435 107.912174 37.9446957 107.996522 37.9385217 108.08087 37.9324348 108.165217 37.9264348 108.249565 37.9206087 108.334783 37.9147826 108.41913 37.9091304 108.504348 37.9035652 108.588696 37.898087 108.673913 37.8927826 108.75913 37.8875652 108.844348 37.8823478 108.929565 37.8773913 109.015652 37.8724348 109.10087 37.8676522 109.186957 37.8628696 109.272174 37.8583478 109.358261 37.8538261 109.444348 37.8494783 109.530435 37.8452174 109.616522 37.8410435 109.702609 37.8369565 109.788696 37.8330435 109.875652 37.8292174 109.961739 37.8255652 110.048696 37.821913 110.135652 37.8185217 110.221739 37.8151304 110.308696 37.811913 110.395652 37.8087826 110.483478 37.8057391 110.570435 37.8028696 110.657391 37.800087 110.745217 37.7973913 110.832174 37.7948696 110.92 37.7924348 111.007826 37.790087 111.094783 37.787913 111.182609 37.785913 111.271304 37.784087 111.365217 37.784087 111.366087 37.7225217 112.286957 37.5753043 113.186174 37.3470435 114.057043 37.042087 114.895217 36.6650435 115.695913 36.2202609 116.454348 35.7124348 117.165739 35.1458261 117.825304 34.5250435 118.428348 33.8546087 118.97 33.1388696 119.445565 32.3823478 119.850261 31.5896522 120.179304 30.7651304 120.427913 29.9133043 120.591391 29.0394783 120.664783 29.0386087 120.66487 29.0377391 120.66487 28.156087 120.64487 27.2915652 120.533652 26.4497391 120.335826 25.6353913 120.055739 24.8533043 119.697913 24.1082609 119.266783 23.4050435 118.766957 22.7484348 118.20287 22.1431304 117.578957 21.593913 116.899826 21.1055652 116.169826 20.6827826 115.393478 20.3304348 114.575304 20.0533043 113.719739 19.856 112.831304 19.7435652 111.915652 19.7434783 111.914783 19.7355652 111.807826 19.7277391 111.694783 19.72 111.582609 19.7124348 111.469565 19.7050435 111.357391 19.6977391 111.245217 19.6906957 111.133043 19.6837391 111.02087 19.6770435 110.908696 19.6704348 110.796522 19.664 110.685217 19.6577391 110.573043 19.6515652 110.461739 19.6456522 110.350435 19.6398261 110.23913 19.6341739 110.127826 19.6286957 110.016522 19.6233913 109.905217 19.6182609 109.794783 19.6132174 109.684348 19.6083478 109.573043 19.6036522 109.462609 19.5991304 109.352174 19.5946957 109.241739 19.5904348 109.132174 19.5863478 109.021739 19.5824348 108.912174 19.5786087 108.801739 19.5749565 108.692174 19.5714783 108.582609 19.568087 108.473043 19.5649565 108.364348 19.5618261 108.254783 19.5589565 108.146087 19.5561739 108.036522 19.5535652 107.927826 19.5511304 107.81913 19.5487826 107.710435 19.5466087 107.601739 19.5445217 107.493913 19.5426957 107.385217 19.5408696 107.277391 19.5393043 107.169565 19.5378261 107.061739 19.5364348 106.953913 19.5353043 106.846087 19.5342609 106.73913 19.5333043 106.631304 19.5325217 106.524348 19.531913 106.417391 19.5313913 106.310435 19.5310435 106.203478 19.5307826 106.097391 19.5306957 105.990435 19.5306957 105.884348 19.5308696 105.777391 19.5312174 105.671304 19.5316522 105.565217 19.5321739 105.46 19.5328696 105.353913 19.5337391 105.248696 19.5346957 105.142609 19.5357391 105.037391 19.5369565 104.932174 19.5382609 104.826957 19.5397391 104.722609 19.5413913 104.617391 19.5431304 104.513043 19.5449565 104.408696 19.5469565 104.304348 19.5490435 104.2 19.5512174 104.095652 19.5535652 103.991304 19.556087 103.887826 19.5586957 103.784348 19.5613913 103.68087 19.5641739 103.577391 19.5671304 103.473913 19.5702609 103.370435 19.5734783 103.267826 19.5767826 103.165217 19.5801739 103.062609 19.5837391 102.96 19.5873913 102.857391 19.5912174 102.754783 19.5951304 102.653043 19.5991304 102.551304 19.6032174 102.449565 19.6074783 102.347826 19.6118261 102.246087 19.6163478 102.144348 19.6208696 102.043478 19.6255652 101.942609 19.6304348 101.84087 19.6353043 101.74087 19.6403478 101.64 19.6454783 101.53913 19.6506957 101.43913 19.656087 101.33913 19.6615652 101.23913 19.6671304 101.13913 19.6727826 101.03913 19.6785217 100.93913 19.6844348 100.84 19.6904348 100.74087 19.6965217 100.641739 19.7026957 100.542609 19.7090435 100.443478 19.7154783 100.345217 19.721913 100.246087 19.7285217 100.147826 19.7352174 100.049565 19.742087 99.9521739 19.7489565 99.853913 19.756 99.7565217 19.7630435 99.6582609 19.7702609 99.5608696 19.7775652 99.4634783 19.7849565 99.3669565 19.7924348 99.2695652 19.800087 99.1730435 19.8077391 99.0765217 19.8154783 98.98 19.8233913 98.8834783 19.8313913 98.7869565 19.8393913 98.6913043 19.8475652 98.5956522 19.8558261 98.5 19.864087 98.4043478 19.8725217 98.3086957 19.8810435 98.213913 19.8896522 98.1191304 19.8983478 98.0234783 19.9071304 97.9295652 19.916 97.8347826 19.9249565 97.74 19.934 97.646087 19.9431304 97.5521739 19.9522609 97.4582609 19.9615652 97.3643478 19.9709565 97.2704348 19.9804348 97.1773913 19.99 97.0843478 19.9995652 96.9913043 20.0093043 96.8982609 20.0190435 96.8052174 20.0289565 96.7130435 20.0388696 96.6208696 20.0488696 96.5286957 20.0590435 96.4365217 20.0692174 96.3443478 20.0794783 96.2530435 20.0898261 96.1617391 20.1001739 96.0704348 20.1106957 95.9791304 20.1212174 95.8878261 20.131913 95.7973913 20.1426087 95.706087 20.1533913 95.6156522 20.1642609 95.526087 20.1752174 95.4356522 20.1861739 95.3452174 20.1973043 95.2556522 20.2084348 95.166087 20.2196522 95.0765217 20.2309565 94.9878261 20.2422609 94.8982609 20.2537391 94.8095652 20.2652174 94.7208696 20.2767826 94.6321739 20.2883478 94.5434783 20.300087 94.4556522 20.3118261 94.3678261 20.3236522 94.28 20.3355652 94.1921739 20.3474783 94.1043478 20.3594783 94.0173913 20.3715652 93.9304348 20.3837391 93.8434783 20.395913 93.7565217 20.4081739 93.6704348 20.4205217 93.5834783 20.4328696 93.4973913 20.4453043 93.4113043 20.4578261 93.326087 20.4703478 93.24 20.4829565 93.1547826 20.4956522 93.0695652 20.5083478 92.9843478 20.5211304 92.8991304 20.534 92.8147826 20.5468696 92.7304348 20.5598261 92.646087 20.5728696 92.5617391 20.585913 92.4773913 20.5990435 92.393913 20.6121739 92.3104348 20.6253913 92.2269565 20.6386957 92.1434783 20.652 92.0608696 20.6653043 91.9782609 20.6787826 91.8947826 20.6921739 91.8130435 20.7057391 91.7304348 20.7193043 91.6486957 20.7328696 91.5669565 20.7465217 91.4852174 20.7601739 91.4034783 20.773913 91.3217391 20.7877391 91.2408696 20.8015652 91.16 20.8154783 91.0791304 20.8293913 90.9991304 20.8433043 90.9182609 20.8573043 90.8382609 20.8713913 90.7582609 20.8854783 90.6782609 20.9 90.5965217 20.927913 90.4408696 20.9564348 90.2826087 20.9851304 90.126087 21.013913 89.9695652 21.0428696 89.8147826 21.071913 89.66 21.1011304 89.506087 21.1305217 89.353913 21.16 89.2017391 21.1895652 89.0504348 21.2193043 88.9 21.2491304 88.7504348 21.2790435 88.6017391 21.3090435 88.4530435 21.3391304 88.306087 21.3693043 88.16 21.3996522 88.0147826 21.43 87.8695652 21.4604348 87.726087 21.4909565 87.5834783 21.5215652 87.4408696 21.5522609 87.3 21.5829565 87.1591304 21.6137391 87.02 21.6446087 86.8808696 21.6754783 86.7434783 21.7063478 86.606087 21.7373043 86.4704348 21.7683478 86.3356522 21.7993913 86.2008696 21.8304348 86.0678261 21.8614783 85.9347826 21.8926087 85.8034783 21.9236522 85.6721739 21.9547826 85.5426087 21.985913 85.413913 22.0169565 85.2852174 22.048087 85.1582609 22.0792174 85.0321739 22.1102609 84.9069565 22.1413043 84.7826087 22.1723478 84.6591304 22.2033913 84.5365217 22.2343478 84.4147826 22.2653043 84.293913 22.2962609 84.173913 22.3270435 84.0547826 22.357913 83.9365217 22.3886087 83.82 22.4193043 83.7034783 22.45 83.5886957 22.4805217 83.473913 22.5110435 83.3608696 22.5414783 83.2486957 22.5718261 83.1373913 22.602087 83.0269565 22.6322609 82.9173913 22.6623478 82.8086957 22.6923478 82.7008696 22.7221739 82.5947826 22.752 82.4886957 22.7816522 82.3843478 22.8112174 82.2808696 22.8406087 82.1782609 22.87 82.0765217 22.8991304 81.9756522 22.9281739 81.8756522 22.9571304 81.7773913 22.985913 81.68 23.0145217 81.5826087 23.0430435 81.4869565 23.0713913 81.3921739 23.0995652 81.2991304 23.1275652 81.206087 23.1553913 81.1147826 23.1830435 81.0234783 23.2106087 80.933913 23.237913 80.8452174 23.2650435 80.7582609 23.292 80.6713043 23.3187826 80.586087 23.3453043 80.5017391 23.3716522 80.4182609 23.3978261 80.3356522 23.4238261 80.253913 23.4494783 80.173913 23.4750435 80.0947826 23.5003478 80.0165217 23.5253913 79.9391304 23.5502609 79.8634783 23.5748696 79.7878261 23.5992174 79.713913 23.6233913 79.6408696 23.6472174 79.5695652 23.6708696 79.4991304 23.6942609 79.4286957 23.7173043 79.3608696 23.7401739 79.2930435 23.7627826 79.2269565 23.7850435 79.1608696 23.8070435 79.0973913 23.8287826 79.033913 23.8513913 78.9686957 23.8922609 78.8513043 23.9331304 78.7347826 23.9726957 78.6234783 24.0110435 78.5156522 24.048087 78.4130435 24.0838261 78.3147826 24.1181739 78.2208696 24.1511304 78.1321739 24.1826957 78.0478261 24.2126957 77.9678261 24.2412174 77.8921739 24.2682609 77.8217391 24.2936522 77.7565217 24.3175652 77.6956522 24.3397391 77.6391304 24.3622609 77.5826087 24.3954783 77.5008696 24.4231304 77.433913 24.4347826 77.4069565 24.4351304 77.406087 24.9153043 76.4565217 25.4793913 75.5765217 26.1201739 74.7695652 26.8303478 74.0365217 27.6030435 73.3826087 28.4310435 72.8086957 29.3073913 72.3173913 30.2250435 71.9130435 31.1768696 71.5973913 32.1558261 71.3730435 33.1549565 71.2426087 34.1670435 71.2095652"></polygon>
            <path d="M23.6747826,111.64 C23.6747826,111.64 34.8153913,141.112783 12.1132174,167.595826" id="Stroke-18" stroke="#969387" stroke-width="8.69565217"></path>
            <path d="M40.7312174,79.0913043 C38.2013043,96.9356522 58.7006957,108.355652 58.0703478,102.757391" id="Stroke-19" stroke="#169AA4" stroke-width="7.82608696" stroke-linecap="round" stroke-linejoin="round"></path>
            <path d="M19.5367826,107.021739 C19.466087,101.511304 19.936087,95.9982609 20.9,90.5965217 C21.662087,86.3269565 22.6558261,82.1234783 24.1826957,78.0478261 C24.2632174,77.8321739 24.3450435,77.6173913 24.4347826,77.4069565 L24.4351304,77.406087 C24.5952174,77.0895652 24.7394783,76.7643478 24.9153043,76.4565217 C26.4286087,73.8069565 29.161913,71.9095652 32.1558261,71.3730435 C33.0436522,71.213913 33.2674783,71.2391304 34.1670435,71.2095652 C34.5063478,71.2313043 34.8457391,71.2530435 35.1850435,71.2756522 C36.0881739,71.4252174 36.3344348,71.4313043 37.2108696,71.7182609 C37.5478261,71.8278261 37.8727826,71.9721739 38.2036522,72.0991304 L38.2053043,72.1 C38.5215652,72.26 38.8463478,72.4043478 39.1541739,72.58 C42.6738261,74.5895652 44.8067826,78.7686957 44.3354783,82.8495652 C44.2558261,83.54 44.1087826,84.2147826 43.8930435,84.8756522 C43.7854783,85.2052174 43.6446087,85.5226087 43.5203478,85.846087 L43.5171304,85.853913 C43.5151304,85.8556522 43.512,85.8591304 43.5073913,85.8643478 C43.5073913,85.8643478 43.248087,86.3817391 43.0550435,86.8147826 C41.4185217,90.4869565 40.2547826,94.3634783 39.382087,98.2913043 C38.538087,102.091304 38.0006957,105.964348 37.8314783,109.845217 C37.8093913,110.352174 29.240087,110.45913 29.240087,110.45913 C29.2195652,110.766087 24.3951304,109.933913 19.5367826,107.021739 Z M43.5186696,85.8541317 C43.5303696,85.8441317 43.5068696,85.8821317 43.5068696,85.8821317 L43.5186696,85.8541317 Z" id="Fill-20" fill="#01AAB7"></path>
            <path d="M20.7370435,108.431304 C21.3706957,108.497391 25.4603478,110.07913 29.232,110.315652 C36.4545217,110.768696 36.7368696,110.088696 36.7866957,110.091304" id="Stroke-21" stroke="#3F3F3F" stroke-width="2.60869565" stroke-linecap="square"></path>
            <path d="M23.1255652,81.1504348 L39.5869565,97.393913 C39.5168696,97.6930435 39.4486087,97.9921739 39.382087,98.2913043 C38.7902609,100.955652 38.3492174,103.655652 38.0801739,106.369565 C32.265913,105.925217 19.806,98.6452174 20.0838261,96.193913 C20.2964348,94.3182609 20.5691304,92.4513043 20.9,90.5965217 C21.4701739,87.4026087 22.169913,84.2452174 23.1255652,81.1504348 Z" id="Fill-22" fill="#169AA4"></path>
            <path d="M40.7949565,66.5295652 L37.6894783,72.1226087" id="Stroke-23" stroke="#EBAC91" stroke-width="8.69565217" stroke-linecap="round" stroke-linejoin="round"></path>
            <path d="M32.4495652,70.286087 C33.0731304,72.02 32.178,74.9852174 37.6894783,77.6765217" id="Stroke-24" stroke="#25C5D1" stroke-width="2.60869565"></path>
            <polygon id="Fill-25" fill="#25C5D1" points="42.2873913 72.7913043 42.2892174 72.8243478 42.2904348 72.8486957 42.2918261 72.8782609 42.2933043 72.9121739 42.2948696 72.9513043 42.2965217 72.9947826 42.2981739 73.0417391 42.2997391 73.093913 42.3012174 73.1495652 42.3026087 73.2095652 42.3038261 73.2730435 42.3048696 73.34 42.3053043 73.3747826 42.3055652 73.4104348 42.305913 73.4469565 42.306087 73.4843478 42.3061739 73.5226087 42.3061739 73.5608696 42.306087 73.6008696 42.305913 73.6408696 42.3056522 73.6817391 42.3053043 73.7234783 42.3047826 73.766087 42.304087 73.8086957 42.3033913 73.8521739 42.3024348 73.8965217 42.3014783 73.9408696 42.3002609 73.9869565 42.2989565 74.0321739 42.2974783 74.0791304 42.2958261 74.126087 42.294 74.1730435 42.292 74.2208696 42.2898261 74.2695652 42.2874783 74.3182609 42.2848696 74.3678261 42.282087 74.4173913 42.2791304 74.4678261 42.276 74.5182609 42.2726087 74.5686957 42.2689565 74.62 42.2651304 74.6713043 42.2610435 74.7234783 42.2566957 74.7756522 42.252087 74.8278261 42.2472174 74.88 42.242087 74.9330435 42.2366957 74.986087 42.2309565 75.0391304 42.2249565 75.0930435 42.2186957 75.1469565 42.212087 75.2 42.2052174 75.253913 42.197913 75.3086957 42.1905217 75.3626087 42.1864348 75.3895652 42.1824348 75.4165217 42.1783478 75.4443478 42.174087 75.4713043 42.1698261 75.4982609 42.1654783 75.526087 42.1609565 75.5530435 42.1564348 75.58 42.1517391 75.6078261 42.1469565 75.6347826 42.142087 75.6626087 42.1371304 75.6895652 42.132087 75.7165217 42.1268696 75.7443478 42.1216522 75.7713043 42.1162609 75.7991304 42.1106957 75.826087 42.1051304 75.853913 42.0993913 75.8808696 42.0935652 75.9086957 42.0875652 75.9356522 42.0814783 75.9626087 42.0753043 75.9904348 42.0689565 76.0173913 42.0625217 76.0452174 42.055913 76.0721739 42.0492174 76.0991304 42.0423478 76.1269565 42.0353913 76.153913 42.0282609 76.1808696 42.0210435 76.2086957 42.0136522 76.2356522 42.006087 76.2626087 41.9984348 76.2895652 41.9905217 76.3165217 41.9826087 76.3443478 41.9744348 76.3713043 41.966087 76.3982609 41.9576522 76.4252174 41.9490435 76.4521739 41.9402609 76.4791304 41.9312174 76.506087 41.922087 76.5330435 41.9127826 76.56 41.9033043 76.5869565 41.8935652 76.613913 41.8837391 76.64 41.8736522 76.6669565 41.8633043 76.693913 41.8528696 76.7208696 41.8421739 76.7469565 41.8312174 76.773913 41.8201739 76.8008696 41.8087826 76.8269565 41.7972174 76.853913 41.7853913 76.88 41.7733913 76.906087 41.7610435 76.9330435 41.7485217 76.9591304 41.7357391 76.9852174 41.7226957 77.0113043 41.7093043 77.0382609 41.6957391 77.0643478 41.6818261 77.0904348 41.6676522 77.1165217 41.6531304 77.1426087 41.6383478 77.1678261 41.6232174 77.193913 41.6077391 77.22 41.592 77.246087 41.575913 77.2713043 41.5593913 77.2973913 41.5426087 77.3226087 41.5253913 77.3486957 41.5078261 77.373913 41.4898261 77.3991304 41.4714783 77.4243478 41.4526957 77.4495652 41.4334783 77.4747826 41.4138261 77.5 41.3937391 77.5252174 41.3732174 77.5495652 41.3521739 77.5747826 41.3306957 77.5991304 41.3086957 77.6234783 41.2861739 77.6478261 41.2631304 77.6721739 41.2396522 77.6956522 41.2154783 77.72 41.1908696 77.7434783 41.1656522 77.7669565 41.1398261 77.7904348 41.1134783 77.813913 41.0864348 77.8365217 41.0588696 77.8591304 41.0306087 77.8808696 41.0038261 77.9017391 40.9871304 77.913913 40.9722609 77.9252174 40.9573043 77.9356522 40.942087 77.946087 40.9267826 77.9573913 40.9113043 77.9678261 40.8956522 77.9782609 40.8798261 77.9878261 40.8638261 77.9982609 40.8476522 78.0086957 40.8313043 78.0182609 40.8147826 78.0286957 40.7981739 78.0382609 40.7813043 78.0478261 40.7643478 78.0573913 40.7471304 78.0669565 40.7297391 78.0765217 40.7122609 78.0852174 40.6946087 78.0947826 40.6766957 78.1034783 40.6586957 78.1121739 40.6405217 78.1208696 40.6221739 78.1295652 40.6036522 78.1382609 40.5849565 78.146087 40.572 78.1521739 39.846 75.7791304 39.8443478 75.7791304 39.8367826 75.7791304 39.8295652 75.7782609 39.8227826 75.7773913 39.8163478 75.7765217 39.8103478 75.7747826 39.8047826 75.7730435 39.7995652 75.7704348 39.7948696 75.7678261 39.7905217 75.7652174 39.7866957 75.7617391 39.7763478 75.7626087 39.7905217 75.7530435 39.7805217 75.753913 39.7706087 75.7547826 39.7857391 75.7452174 39.7763478 75.746087 39.7669565 75.746087 39.7830435 75.7365217 39.772087 75.7373913 39.7697391 75.7356522 39.7781739 75.7313043 39.773913 75.7313043 39.7696522 75.7304348 39.7783478 75.726087 39.7741739 75.7252174 39.770087 75.7252174 39.7790435 75.72 39.7750435 75.72 39.7710435 75.7191304 39.7803478 75.7147826 39.7764348 75.713913 39.7726087 75.7130435 39.7821739 75.7086957 39.7784348 75.7078261 39.7747826 75.7069565 39.7845217 75.7026087 39.7809565 75.7017391 39.7774783 75.7008696 39.7874783 75.6965217 39.784087 75.6956522 39.7806957 75.6947826 39.7910435 75.6904348 39.7878261 75.6895652 39.7846087 75.6878261 39.7952174 75.6834783 39.792087 75.6826087 39.7890435 75.6817391 39.799913 75.6773913 39.7969565 75.6756522 39.794 75.6747826 39.8051304 75.6704348 39.8023478 75.6695652 39.7995652 75.6678261 39.8109565 75.6643478 39.8109565 75.6643478 39.8083478 75.6626087 39.8057391 75.6608696 39.8096522 75.66 39.8089565 75.6582609 39.8173913 75.6573913 39.8096522 75.66 39.8109565 75.6643478 39.8110435 75.6643478 39.8109565 75.6643478 39.846 75.7791304 39.8521739 75.7791304 39.8604348 75.7782609 39.8690435 75.7773913 39.877913 75.7765217 39.8871304 75.7747826 39.8966087 75.7721739 39.9063478 75.7704348 39.9164348 75.7678261 39.9266957 75.7643478 39.9373043 75.7608696 39.948087 75.7573913 39.9591304 75.7530435 39.9703478 75.7486957 39.981913 75.7443478 39.9935652 75.7391304 40.0054783 75.733913 40.0175652 75.7278261 40.0298261 75.7217391 40.0422609 75.7156522 40.0548696 75.7086957 40.0676522 75.7017391 40.0806087 75.693913 40.0936522 75.686087 40.1068696 75.6782609 40.1202609 75.6704348 40.1337391 75.6617391 40.1473043 75.6530435 40.1610435 75.6434783 40.1748696 75.633913 40.1888696 75.6243478 40.2028696 75.613913 40.2170435 75.6043478 40.2313043 75.5930435 40.2456522 75.5826087 40.26 75.5713043 40.2745217 75.56 40.2891304 75.5486957 40.3037391 75.5365217 40.3184348 75.5243478 40.3332174 75.5121739 40.348087 75.5 40.3629565 75.4869565 40.377913 75.473913 40.3928696 75.4608696 40.407913 75.4478261 40.4229565 75.433913 40.438087 75.42 40.4532174 75.406087 40.4684348 75.3921739 40.4836522 75.3773913 40.4988696 75.3626087 40.5141739 75.3478261 40.5294783 75.3330435 40.5447826 75.3173913 40.560087 75.3026087 40.5754783 75.2869565 40.5908696 75.2713043 40.6061739 75.2556522 40.6215652 75.2391304 40.6369565 75.2226087 40.6523478 75.2069565 40.6677391 75.1904348 40.6831304 75.173913 40.6986087 75.1565217 40.713913 75.14 40.7293043 75.1226087 40.7446957 75.1052174 40.760087 75.0878261 40.7754783 75.0704348 40.7907826 75.0530435 40.806087 75.0356522 40.8213913 75.0173913 40.8366957 75 40.852 74.9817391 40.8673043 74.9634783 40.8825217 74.9452174 40.8977391 74.9269565 40.9128696 74.9086957 40.928087 74.8904348 40.9431304 74.8713043 40.958087 74.8530435 40.9883478 74.8156522 41.0183478 74.7773913 41.0481739 74.7391304 41.0778261 74.7008696 41.1073043 74.6626087 41.1366087 74.6234783 41.1657391 74.5843478 41.1946957 74.5452174 41.2233913 74.506087 41.251913 74.4669565 41.2801739 74.4278261 41.3081739 74.3878261 41.336 74.3486957 41.3635652 74.3086957 41.3908696 74.2695652 41.417913 74.2304348 41.4446957 74.1913043 41.4711304 74.1513043 41.4973043 74.1121739 41.5232174 74.073913 41.5487826 74.0347826 41.574087 73.9965217 41.5990435 73.9573913 41.6236522 73.9191304 41.647913 73.8817391 41.671913 73.8434783 41.6954783 73.806087 41.7186957 73.7695652 41.7415652 73.7330435 41.764087 73.6965217 41.7862609 73.66 41.808 73.6252174 41.8293043 73.5895652 41.8502609 73.5547826 41.8708696 73.5208696 41.8909565 73.4869565 41.9106957 73.453913 41.93 73.4208696 41.9488696 73.3886957 41.9673043 73.3573913 41.9852174 73.3269565 42.0027826 73.2965217 42.0198261 73.2669565 42.0526087 73.2095652 42.0833913 73.1547826 42.1122609 73.1034783 42.1391304 73.0547826 42.163913 73.0104348 42.1865217 72.9686957 42.2070435 72.9304348 42.2253043 72.8965217 42.2413043 72.8669565 42.2549565 72.8408696 42.2662609 72.8191304 42.2815652 72.7904348 42.2866957 72.78"></polygon>
            <path d="M46.3057391,46.6017391 C41.1613043,45.1295652 32.9448696,50.3156522 33.684087,57.2921739 C34.6286957,66.2069565 38.0132174,69.4330435 42.5983478,71.6617391 C47.4109565,74 49.308,73.5643478 52.129913,61.4886957 C53.7263478,54.6573913 51.4501739,48.0730435 46.3057391,46.6017391 Z" id="Fill-26" fill="#FABEA4"></path>
            <polygon id="Fill-27" fill="#7D472E" points="50.782 51.7113043 54.5157391 49.4086957 52.6326957 44.8947826 48.0470435 45.7417391 40.7949565 42.64 32.1168696 46.3504348 29.161913 53.8904348 32.8947826 63.1243478 36.0601739 65.92 37.6129565 60.226087 36.0601739 58.7965217 37.3626957 54.8504348 39.7368696 56.0408696 40.7949565 60.7704348 41.9584348 59.5652174 41.9231304 53.9591304 44.9910435 49.7173913"></polygon>
            <path d="M52.0394783,168.642261 C54.218,171.118 60.4044348,172.238783 60.4044348,172.238783 C60.4044348,172.238783 61.6870435,175.293304 58.2825217,175.178957 C56.0806087,175.104957 52.3152174,175.046435 49.0342609,175.309217 C48.7288696,175.333652 48.2141739,174.641043 47.94,174.693565 C47.5933913,174.759913 47.3886087,175.305478 47.0398261,175.33 C45.6314783,175.42887 43.5346957,175.569739 43.2249565,174.364435 C41.9144348,169.264522 45.9537391,168.860609 45.9537391,168.860609 C45.9537391,168.860609 49.8609565,166.166609 52.0394783,168.642261 Z" id="Fill-28" fill="#85837B"></path>
            <path d="M17.6621739,166.389826 C18.5676522,169.56087 23.6747826,173.227652 23.6747826,173.227652 C23.6747826,173.227652 23.5226087,176.537043 20.4965217,174.972957 C18.5393913,173.961304 15.1633913,172.292783 12.0870435,171.122348 C11.8006087,171.013391 11.6329565,170.166957 11.3627826,170.096696 C11.0211304,170.007913 10.6021739,170.41287 10.2766087,170.285304 C8.962,169.770348 7.00761739,168.997913 7.24502609,167.776261 C8.24954783,162.607391 12.0714783,163.975739 12.0714783,163.975739 C12.0714783,163.975739 16.7566957,163.21887 17.6621739,166.389826 Z" id="Fill-29" fill="#969387"></path>
            <path d="M123.821739,127.849304 C123.821739,126.72887 122.912174,125.819304 121.791304,125.819304 L66.8095652,125.819304 C65.6891304,125.819304 64.7795652,126.72887 64.7795652,127.849304 L64.7795652,144.089478 C64.7795652,145.209913 65.6891304,146.119478 66.8095652,146.119478 L121.791304,146.119478 C122.912174,146.119478 123.821739,145.209913 123.821739,144.089478 L123.821739,127.849304 Z" id="Fill-30" fill="#BDE9ED"></path>
            <polygon id="Fill-31" fill="#94DBE1" points="86.2438261 139.552609 102.357304 139.552609 102.357304 137.105643 86.2438261 137.105643"></polygon>
            <polygon id="Fill-32" fill="#94DBE1" points="83.7631304 134.83313 104.838 134.83313 104.838 132.386165 83.7631304 132.386165"></polygon>
            <path d="M101.565217,103.593043 C102.598261,103.401739 103.730435,104.033913 104.091304,105.004348 L119.52,146.496261 C119.88087,147.467043 119.334783,148.41087 118.30087,148.602609 L103.318261,151.382348 C102.284348,151.574174 101.152174,150.941739 100.791304,149.970957 L85.3631304,108.47913 C85.0021739,107.508696 85.5482609,106.564348 86.581913,106.373043 L101.565217,103.593043 Z" id="Fill-33" fill="#FFFFFF"></path>
            <path d="M112.88,128.639826 L119.52,146.496261 C119.88087,147.467043 119.334783,148.41087 118.30087,148.602609 L103.637391,151.323217 C104.01913,148.740957 105.128696,141.134957 105.128696,141.134957 C105.257391,139.833478 105.714783,138.652 106.462609,137.576087 C106.462609,137.576087 111.215652,130.748348 112.88,128.639826 Z" id="Fill-34" fill="#F6F6F6"></path>
            <path d="M135.053913,98.2791304 C134.291304,97.6695652 133.242609,97.8365217 132.713913,98.6513043 L106.761739,138.642609 C106.233043,139.457565 106.423478,140.613826 107.186087,141.22313 L118.241739,150.054696 C119.004348,150.663913 120.053043,150.497043 120.581739,149.682087 L146.533913,109.691304 C147.062609,108.876522 146.872174,107.72 146.109565,107.110435 L135.053913,98.2791304 Z" id="Fill-35" fill="#FFFFFF"></path>
            <path d="M58.0703478,103.258261 C58.0703478,103.258261 64.9545217,103.85913 69.7965217,114.082696 C73.4953043,121.892261 76.9927826,153.102609 76.9927826,153.102609 L133.951304,150.022783 C136.42087,150.065565 137.858261,148.825739 138.162609,146.17713 L141.425217,121.376348 L70.9574783,116.99513" id="Stroke-36" stroke="#169AA4" stroke-width="1.73913043"></path>
            <path d="M87.053913,167.314348 C89.1947826,167.314348 90.9330435,169.052522 90.9330435,171.193478 C90.9330435,173.334435 89.1947826,175.072609 87.053913,175.072609 C84.9131304,175.072609 83.1750435,173.334435 83.1750435,171.193478 C83.1750435,169.052522 84.9131304,167.314348 87.053913,167.314348 Z" id="Fill-37" fill="#169AA4"></path>
            <path d="M128.784348,167.314348 C130.925217,167.314348 132.663478,169.052522 132.663478,171.193478 C132.663478,173.334435 130.925217,175.072609 128.784348,175.072609 C126.643478,175.072609 124.905217,173.334435 124.905217,171.193478 C124.905217,169.052522 126.643478,167.314348 128.784348,167.314348 Z" id="Fill-38" fill="#169AA4"></path>
            <path d="M76.4312174,148.619739 L78.1361739,159.137826 C78.6011304,161.936261 79.935913,163.539652 82.6216522,163.287304 L124.905217,162.694522 C126.914783,162.765565 128.514783,163.307652 128.784348,165.377826 L128.784348,171.193478" id="Stroke-39" stroke="#169AA4" stroke-width="1.73913043"></path>
            <polygon id="Fill-40" fill="#169AA4" points="88.3617391 171.193478 85.7468696 171.193478 84.4453913 163.234783 89.6626087 163.234783"></polygon>
            <path d="M39.2421739,78.6965217 C39.2421739,78.6965217 36.0553913,92.5173913 33.6373913,109.045217" id="Stroke-41" stroke="#169AA4" stroke-width="0.5"></path>
            <path d="M27.3846087,80.0382609 C26.5089565,91.5286957 34.9365217,104.961739 57.045913,102.451304" id="Stroke-42" stroke="#01AAB7" stroke-width="7.82608696" stroke-linecap="round" stroke-linejoin="round"></path>
            <path d="M51.216087,98.8443478 C53.023913,98.8730435 54.834,98.7634783 56.6073913,98.5634783 L57.1652174,98.54 C57.6572174,98.5904348 57.7886087,98.5773913 58.2622609,98.7321739 C60.1913913,99.3634783 61.430087,101.634783 60.7651304,103.667826 C60.3601739,104.906087 59.3105217,105.905217 58.0333913,106.238261 C57.6945217,106.326087 57.3446957,106.356522 57.0008696,106.393043 C55.116087,106.589565 53.2083478,106.689565 51.3037391,106.666087 L51.216087,98.8443478 Z" id="Fill-43" fill="#FABEA4"></path>
            <path d="M51.216087,99.9573913 L51.4810435,105.831304" id="Stroke-44" stroke="#25C5D1" stroke-width="2.60869565" stroke-linecap="square"></path>
            <polygon id="Fill-45" fill="#EBAC91" points="38.177913 76.0626087 39.0793913 78.7713043 39.42 78.7904348 39.9546957 75.586087 39.3647826 75.453913"></polygon>
            <path d="M49.0947826,65.8686957 C49.3502609,65.9469565 49.3073043,66.8269565 48.9988696,67.8330435 C48.6903478,68.8391304 48.2325217,69.5921739 47.9770435,69.513913 C47.7215652,69.4356522 47.493913,68.5121739 47.8023478,67.5069565 C48.1107826,66.5008696 48.8393043,65.7904348 49.0947826,65.8686957 Z" id="Fill-46" fill="#FFE7DC"></path>
        </g>
    </g>
</svg>