<?xml version="1.0" encoding="UTF-8"?>
<svg width="200px" height="200px" viewBox="0 0 200 200" version="1.1" xmlns="http://www.w3.org/2000/svg" xmlns:xlink="http://www.w3.org/1999/xlink">
    <!-- Generator: Sketch 51 (57462) - http://www.bohemiancoding.com/sketch -->
    <title>qualify</title>
    <desc>Created with Sketch.</desc>
    <defs></defs>
    <g id="Casy-Study---Chorck" stroke="none" stroke-width="1" fill="none" fill-rule="evenodd">
        <g id="qualify">
            <circle id="Oval-3" fill-opacity="0.05" fill="#0C57B3" cx="100" cy="100" r="100"></circle>
            <g id="Group-3" transform="translate(73.458011, 116.403239) scale(-1, 1) rotate(6.000000) translate(-73.458011, -116.403239) translate(63.762359, 108.185847)">
                <polygon id="Fill-42" fill="#A1BFE5" points="11.5894326 6.33959516 9.77305492 10.6111977 9.60687202 10.5430448 11.2674618 6.27626117 11.1702579 0.0275365193 11.6865676 0.0275365193"></polygon>
                <path d="M8.38012009,13.0082517 C7.62444915,12.5773052 0.291680581,5.94306928 0.291680581,5.94306928 C0.291680581,5.94306928 -0.170932944,5.02885684 0.112899729,5.05088606 C1.9536472,5.19545278 10.4133478,6.28452212 11.3358212,6.81184647 C12.2582258,7.3384824 18.1066383,14.4263825 19.3124625,16.0186817 C19.4875947,16.2499885 18.570904,16.364265 18.570904,16.364265 C18.570904,16.364265 9.13585986,13.4391983 8.38012009,13.0082517 Z" id="Fill-43" fill="#C6D6ED"></path>
                <path d="M5.84022038,3.24586722 C5.52155401,4.37279927 4.58861674,5.96027961 4.78033975,7.04108799 C5.08193348,8.74077965 6.99482664,9.87184218 9.51490005,11.2211316 C11.8120653,12.452014 14.004523,13.6264466 15.7711284,12.8568009 C16.6690943,12.4650939 17.2695969,11.0208034 18.1022324,9.95582856 L18.0947287,9.92829204 C18.0947287,9.92829204 17.500766,9.20821206 11.5269247,5.98988137 C5.55308333,2.77223908 5.92131543,3.22796848 5.92131543,3.22796848 L5.84022038,3.24586722 Z" id="Fill-44" fill="#C6D6ED"></path>
                <path d="M6.30916731,3.70710391 C6.39280949,4.04373786 6.14188295,4.37692975 6.6015363,4.84436216 C7.32450762,5.5782104 9.11149004,6.56332938 11.4251084,7.80798005 C13.5341304,8.94248465 15.5469811,10.0253583 16.6710218,10.244962 C17.2424046,10.3564849 17.2815753,9.98129984 17.6076077,9.81745755 L17.5939771,9.80437771 C17.5939771,9.80437771 16.9320681,9.35828609 11.4423876,6.40086392 C5.95270707,3.44344174 6.36575486,3.72362583 6.36575486,3.72362583 L6.30916731,3.70710391 Z" id="Fill-45" fill="#A1BFE5"></path>
            </g>
            <path d="M74.095913,151.968783 C74.095913,151.968783 89.9269565,152.80687 101.709565,152.80687 C113.492174,152.80687 127.521739,151.598348 127.521739,151.598348 L122.221739,112.70087 L81.7082609,111.59913 L74.095913,151.968783 Z" id="Fill-3" fill="#0E4586"></path>
            <path d="M96.84,97.6582609 C104.718261,95.7147826 112.693043,100.533043 114.636522,108.411304 C116.58,116.289652 111.761739,124.263913 103.883478,126.207652 C96.0052174,128.151304 88.0304348,123.333043 86.0870435,115.454696 C84.1433913,107.576522 88.9617391,99.6017391 96.84,97.6582609 Z" id="Fill-5" fill="#32323A"></path>
            <path d="M108.50087,119.76687 C123.112174,134.00087 131.513913,139.222783 127.356522,173.113043" id="Stroke-6" stroke="#32323A" stroke-width="8.69565217" stroke-linejoin="round"></path>
            <path d="M101.085217,114.956174 C84.7291304,118.792261 65.8172174,131.651478 75.7192174,173.113043" id="Stroke-7" stroke="#32323A" stroke-width="8.69565217" stroke-linejoin="round"></path>
            <path d="M131.676522,170.261043 C133.854783,172.736783 140.04087,173.857478 140.04087,173.857478 C140.04087,173.857478 141.323478,176.912087 137.91913,176.797652 C135.717391,176.723739 131.952174,176.66513 128.671304,176.927913 C128.366087,176.952348 127.851304,176.259826 127.576522,176.312261 C127.230435,176.378696 127.025217,176.924174 126.676522,176.948696 C125.268696,177.047565 123.171304,177.188522 122.861739,175.98313 C121.551304,170.883217 125.590435,170.479304 125.590435,170.479304 C125.590435,170.479304 129.497391,167.785304 131.676522,170.261043 Z" id="Fill-8" fill="#32323A"></path>
            <path d="M71.3456522,170.261043 C69.1671304,172.736783 62.9806957,173.857478 62.9806957,173.857478 C62.9806957,173.857478 61.698087,176.912087 65.1026087,176.797652 C67.3045217,176.723739 71.069913,176.66513 74.3508696,176.927913 C74.6562609,176.952348 75.1709565,176.259826 75.4451304,176.312261 C75.7917391,176.378696 75.9965217,176.924174 76.3453043,176.948696 C77.7536522,177.047565 79.8504348,177.188522 80.1601739,175.98313 C81.4707826,170.883217 77.4313913,170.479304 77.4313913,170.479304 C77.4313913,170.479304 73.5241739,167.785304 71.3456522,170.261043 Z" id="Fill-9" fill="#32323A"></path>
            <path d="M57.4628696,57.4547826 C57.4628696,57.4547826 61.3526957,67.2747826 68.874087,73.3191304 C81.6506957,83.5886957 91.6443478,78.8234783 91.6443478,78.8234783" id="Stroke-10" stroke="#FABEA4" stroke-width="7.82608696" stroke-linecap="round" stroke-linejoin="round"></path>
            <path d="M71.7587826,70.6226087 C74.7233043,72.9652174 78.1381739,74.8026087 81.7826957,75.6008696 C84.4171304,76.1773913 87.2547826,76.2556522 89.7608696,75.3643478 C89.8782609,75.3226087 90.0582609,75.2469565 90,75.2730435 C90,75.2730435 90.5069565,75.0791304 90.5069565,75.0791304 L91.0513043,74.9556522 C91.2373913,74.9408696 91.4217391,74.9121739 91.6078261,74.9104348 C93.2782609,74.8947826 94.8878261,76.0373913 95.3886957,77.686087 C95.873913,79.2817391 95.2156522,81.1608696 93.7913043,82.0956522 C93.0991304,82.5495652 92.28,82.7965217 91.4686957,83.0321739 C85.302087,84.82 78.4107826,83.5365217 72.5257391,80.4217391 C70.5714783,79.3878261 68.7088696,78.18 66.9728696,76.8191304 L71.7587826,70.6226087 Z" id="Fill-11" fill="#FFFFFF"></path>
            <path d="M71.465913,70.9704348 L67.4076522,76.4521739" id="Fill-12" fill="#D6D6D6"></path>
            <path d="M71.465913,70.9704348 L67.4076522,76.4521739" id="Stroke-13" stroke="#E6F1FF" stroke-width="2.60869565" stroke-linecap="square"></path>
            <path d="M108.50087,79.9278261 C108.50087,79.9278261 121.54,115.513478 146.611304,79.9278261" id="Stroke-14" stroke="#FABEA4" stroke-width="7.82608696" stroke-linecap="round" stroke-linejoin="round"></path>
            <path d="M128.928696,99.3008696 C127.730435,99.5513043 126.510435,99.6773913 125.282609,99.653913 C121.343478,99.5782609 117.533043,97.9226087 114.458261,95.3713043 C110.26087,91.8886957 107.224348,87.073913 105.150435,82.0904348 C105.04087,81.8252174 104.933043,81.5591304 104.833043,81.2913043 L104.828696,81.2782609 C104.776522,81.0991304 104.712174,80.9234783 104.673043,80.7417391 C104.326087,79.1078261 105.125217,77.3034783 106.64087,76.4843478 C108.426957,75.52 110.926957,76.186087 111.943478,78.0678261 C112.109565,78.3756522 112.22087,78.7078261 112.354783,79.0313043 C113.585217,82.0026087 115.226957,84.826087 117.335652,87.2556522 C119.651304,89.9243478 122.756522,92.1704348 126.462609,91.7843478 C127.055652,91.7226087 127.636522,91.6043478 128.202609,91.4408696 L128.928696,99.3008696 Z" id="Fill-15" fill="#FFFFFF"></path>
            <path d="M85.5905217,111.071304 C85.5905217,111.071304 93.2026087,108.433913 100.121739,108.589565 C107.424348,108.753913 115.184348,112.94 115.184348,112.94 C115.633913,112.717391 112.823478,85.5730435 111.127826,79.2313043 C110.06087,75.2417391 104.953913,74.4147826 104.08087,74.4521739 L96.1921739,74.3391304 C95.3417391,74.373913 90.5756522,75.6504348 89.5252174,79.6721739 C86.8913043,89.753913 85.5905217,111.071304 85.5905217,111.071304 Z" id="Fill-16" fill="#F7FCFF"></path>
            <path d="M85.5905217,111.071304 C85.5905217,111.071304 93.2026087,108.433913 100.121739,108.589565 C107.424348,108.753913 115.184348,112.94 115.184348,112.94 C115.633913,112.717391 112.823478,85.5730435 111.127826,79.2313043 C110.06087,75.2417391 104.953913,74.4147826 104.08087,74.4521739 L96.1921739,74.3391304 C95.3417391,74.373913 90.5756522,75.6504348 89.5252174,79.6721739 C86.8913043,89.753913 85.5905217,111.071304 85.5905217,111.071304 Z" id="Fill-17" fill="#FFFFFF"></path>
            <path d="M76.8115652,106.801739 C74.8134783,86.6747826 80.8107826,75.3904348 81.8306957,75.6113043 C83.1377391,75.893913 84.4764348,76.0373913 85.814,76.0113043 C86.1673043,76.0043478 86.5202609,75.9852174 86.8721739,75.953913 C87.226087,75.9226087 87.5782609,75.8782609 87.9286957,75.82 C88.2365217,75.7686957 88.5434783,75.7069565 88.8478261,75.6330435 C89.0765217,75.5773913 89.3034783,75.513913 89.5278261,75.4426087 C89.6182609,75.413913 89.7086957,75.3834783 89.7982609,75.3504348 C89.866087,75.326087 89.933913,75.3 90.0008696,75.2721739 C90.0043478,75.2704348 90.0078261,75.2695652 90.0113043,75.2678261 C90.0078261,75.2695652 90.0034783,75.2713043 90,75.2730435 C89.9947826,75.2747826 89.9904348,75.2773913 89.986087,75.2791304 L90.5069565,75.0791304 C90.6886957,75.0382609 90.8678261,74.9834783 91.0513043,74.9556522 C91.2356522,74.9278261 91.4217391,74.9121739 91.6078261,74.9104348 C91.9808696,74.9069565 92.3530435,74.9573913 92.7121739,75.0591304 C93.0713043,75.1608696 93.413913,75.3130435 93.7295652,75.5121739 C94.0452174,75.7104348 89.226087,80.3391304 89.1434783,80.7034783 C81.1164348,116.14113 90.7521739,142.365565 89.1095652,142.522087 C86.3026087,142.789478 82.3987826,143.673565 78.5298261,142.396957 C75.5745217,141.421739 72.758,138.899217 69.7628696,135.58087 C68.9806087,134.714174 77.2367826,111.085217 76.8115652,106.801739 Z" id="Fill-18" fill="#0D57B4"></path>
            <path d="M110.395652,75.3182609 C129.986087,86.5408696 121.863478,100.481739 122.767826,107.79913 C124.278261,120.026261 132.918261,139.316696 131.757391,140.329826 C131.757391,140.329826 129.605217,145.854696 121.951304,144.927391 C117.111304,144.341043 111.213043,142.060348 111.213043,142.060348 C116.816522,116.570174 114.553043,99.7234783 111.213043,80.7034783 C110.691304,77.7356522 104.171304,79.4469565 104.163478,79.3321739 C104.149565,79.146087 104.149565,78.9591304 104.162609,78.773913 C104.188696,78.4017391 104.267826,78.0347826 104.398261,77.6852174 C104.527826,77.3356522 104.707826,77.006087 104.930435,76.7069565 C105.153913,76.4078261 105.41913,76.1426087 105.717391,75.9182609 C106.015652,75.6947826 106.345217,75.5147826 106.694783,75.3834783 C106.868696,75.3182609 107.047826,75.266087 107.230435,75.226087 C107.594783,75.146087 107.968696,75.1191304 108.34087,75.1452174 C108.526087,75.1582609 108.709565,75.1982609 108.893913,75.2243478 C108.889565,75.2234783 108.886087,75.2226087 108.881739,75.2217391 C108.87913,75.2208696 108.876522,75.2208696 108.873043,75.22 C108.872174,75.22 108.869565,75.2191304 108.870435,75.2191304 C108.872174,75.22 108.873913,75.22 108.874783,75.22 C108.898261,75.2243478 108.92087,75.2278261 108.944348,75.2321739 C108.971304,75.2356522 108.998261,75.24 109.026087,75.2434783 C109.226087,75.2713043 109.427826,75.2886957 109.629565,75.3008696 C109.884348,75.3156522 110.173913,75.1913043 110.395652,75.3182609 Z" id="Fill-19" fill="#0D57B4"></path>
            <path d="M88.9243478,80.9026087 C89.0226087,80.4765217 89.1234783,80.066087 89.2269565,79.6721739 C90.2773913,75.6504348 95.0434783,74.373913 95.893913,74.3391304 L103.782609,74.4521739 C104.654783,74.4147826 109.762609,75.2417391 110.828696,79.2313043 C110.948696,79.6782609 111.073913,80.2278261 111.202609,80.8652174 C107.353913,83.9478261 102.314783,87.5982609 100.04,87.5982609 C97.773913,87.5982609 92.7669565,83.9773913 88.9243478,80.9026087 Z" id="Fill-20" fill="#ACC5E5"></path>
            <path d="M94.8530435,73.5678261 C94.8530435,73.5678261 97.4573913,72.3104348 105.342609,73.5591304" id="Stroke-21" stroke="#89A2C2" stroke-width="2.60869565"></path>
            <polygon id="Fill-22" fill="#EBAC91" points="99.6895652 78.8208696 100.522609 81.5852174 101.110435 78.7843478"></polygon>
            <path d="M100.507826,68.2269565 L100.542826,74.7217391" id="Stroke-23" stroke="#EBAC91" stroke-width="8.69565217" stroke-linecap="round" stroke-linejoin="round"></path>
            <polygon id="Fill-24" fill="#0E4586" points="101.689565 78.9434783 102.446957 80.5504348 101.356522 81.36 101.387826 82.0182609 101.477391 82.9130435 101.771304 85.1791304 102.113043 87.6965217 102.374783 90.0052174 103.013913 96.4026087 103.149565 98.0817391 103.237391 99.6530435 103.258261 101.047826 103.193043 102.193913 103.052174 102.644348 102.752174 103.190435 101.885217 104.391304 100.538261 105.996522 99.1904348 104.391304 98.3234783 103.190435 98.0243478 102.644348 97.8826087 102.193913 97.8173913 101.047826 97.8382609 99.6530435 97.926087 98.0817391 98.0617391 96.4026087 98.7008696 90.0052174 98.9626087 87.6965217 99.3043478 85.1791304 99.5982609 82.9130435 99.6878261 82.0182609 99.7191304 81.36 98.6295652 80.5504348 99.386087 78.9434783 100.538261 78.8869565"></polygon>
            <path d="M111.386087,55.6130435 C110.173913,54.98 108.675652,55.4513043 108.042609,56.6634783 C107.410435,57.8756522 107.88087,59.373913 109.093913,60.0069565 C110.306087,60.6391304 111.804348,60.1686957 112.436522,58.9565217 C113.069565,57.7434783 112.59913,56.2452174 111.386087,55.6130435 Z" id="Fill-25" fill="#EBAC91"></path>
            <path d="M92.2556522,55.6130435 C91.0434783,54.98 89.5452174,55.4513043 88.9121739,56.6634783 C88.28,57.8756522 88.7504348,59.373913 89.9634783,60.0069565 C91.1756522,60.6391304 92.673913,60.1686957 93.306087,58.9565217 C93.9391304,57.7434783 93.4686957,56.2452174 92.2556522,55.6130435 Z" id="Fill-26" fill="#EBAC91"></path>
            <path d="M106.132174,73.406087 C105.171304,73.8791304 104.377391,77.4765217 103.764348,78.2730435 C103.346957,78.8147826 101.818261,79.8034783 101.818261,79.8034783" id="Fill-27" fill="#D6D6D6"></path>
            <path d="M106.132174,73.406087 C105.171304,73.8791304 104.377391,77.4765217 103.764348,78.2730435 C103.346957,78.8147826 101.818261,79.8034783 101.818261,79.8034783" id="Stroke-28" stroke="#E6F1FF" stroke-width="2.60869565"></path>
            <polygon id="Fill-29" fill="#F2F2F2" points="73.655913 54.8791304 73.6330435 54.8886957 73.6018261 54.9034783 73.578 54.9130435 73.5626957 54.92 73.5149565 54.94 73.4586087 54.9634783 73.3937391 54.9895652 73.3203478 55.0182609 73.2386957 55.0504348 73.15 55.0834783 73.1008696 55.1026087 73.0508696 55.1208696 72.9988696 55.14 72.9447826 55.16 72.8887826 55.1808696 72.8307826 55.2017391 72.7707826 55.2234783 72.7088696 55.2452174 72.6450435 55.2686957 72.5793043 55.2913043 72.5115652 55.3156522 72.442 55.34 72.3705217 55.3643478 72.2971304 55.3895652 72.221913 55.4156522 72.1447826 55.4417391 72.065913 55.4686957 71.9851304 55.4956522 71.9315652 55.5130435 71.9029565 55.5234783 71.8196522 55.5530435 71.7346087 55.5834783 71.6478261 55.613913 71.5593043 55.6452174 71.4690435 55.6765217 71.3769565 55.7086957 71.2833043 55.7408696 71.1878261 55.7730435 71.0906957 55.806087 70.991913 55.84 70.8913913 55.8730435 70.7893043 55.9078261 70.6854783 55.9417391 70.580087 55.9765217 70.4730435 56.0113043 70.3644348 56.0469565 70.2541739 56.0826087 70.1423478 56.1182609 70.0289565 56.153913 69.914 56.1904348 69.7974783 56.2269565 69.6794783 56.2643478 69.559913 56.3008696 69.4387826 56.3382609 69.3161739 56.3756522 69.192087 56.4130435 69.0666087 56.4513043 68.9395652 56.4886957 68.8110435 56.5269565 68.6811304 56.5652174 68.5498261 56.6034783 68.4170435 56.6417391 68.2834783 56.68 68.2153043 56.7 68.1473043 56.7191304 68.0790435 56.7382609 68.0104348 56.7573913 67.9531304 56.773913 67.9415652 56.7773913 67.8733043 56.7982609 67.8046957 56.82 67.7357391 56.8408696 67.6664348 56.8626087 67.5968696 56.8834783 67.5268696 56.9052174 67.4566087 56.926087 67.386 56.9478261 67.3150435 56.9695652 67.2438261 56.9904348 67.1721739 57.0121739 67.1002609 57.0330435 67.028087 57.0547826 66.9554783 57.0765217 66.8826087 57.0973913 66.8094783 57.1191304 66.735913 57.1408696 66.6621739 57.1617391 66.588 57.1834783 66.5135652 57.2052174 66.4387826 57.226087 66.3637391 57.2478261 66.2883478 57.2695652 66.2126957 57.2904348 66.1366957 57.3121739 66.0604348 57.3330435 65.983913 57.3547826 65.9070435 57.3765217 65.8298261 57.3973913 65.7523478 57.4191304 65.6746087 57.44 65.5965217 57.4617391 65.562 57.4713043 65.5188696 57.4843478 65.4413913 57.5078261 65.3635652 57.5313043 65.2855652 57.5547826 65.2072174 57.5782609 65.1286087 57.6017391 65.0496522 57.6252174 64.9704348 57.6486957 64.8910435 57.6721739 64.8112174 57.6956522 64.7312174 57.7182609 64.6508696 57.7417391 64.5703478 57.7652174 64.4894783 57.7886957 64.4083478 57.8121739 64.3269565 57.8347826 64.2453043 57.8582609 64.1633043 57.8817391 64.0811304 57.9043478 63.9986087 57.9278261 63.915913 57.9504348 63.8328696 57.973913 63.7496522 57.9965217 63.666087 58.0191304 63.5823478 58.0426087 63.4982609 58.0652174 63.414 58.0878261 63.3294783 58.1104348 63.2446957 58.1330435 63.1596522 58.1556522 63.1421739 58.16 63.0757391 58.1817391 62.991913 58.2078261 62.907913 58.233913 62.8236522 58.26 62.7391304 58.286087 62.6543478 58.3121739 62.5693043 58.3382609 62.484 58.3643478 62.3985217 58.3904348 62.3127826 58.4156522 62.2267826 58.4417391 62.1405217 58.4678261 62.054087 58.4930435 61.9673043 58.5191304 61.8804348 58.5443478 61.7932174 58.5704348 61.7058261 58.5956522 61.6181739 58.6208696 61.5302609 58.646087 61.4421739 58.6713043 61.3538261 58.6965217 61.2653043 58.7217391 61.1765217 58.7469565 61.0874783 58.7721739 60.9982609 58.7965217 60.9087826 58.8217391 60.874 58.8313043 60.8203478 58.8495652 60.7324348 58.8782609 60.6442609 58.9078261 60.5558261 58.9365217 60.4672174 58.966087 60.3784348 58.9947826 60.2893913 59.0234783 60.200087 59.0521739 60.1106087 59.0808696 60.0208696 59.1095652 59.9309565 59.1382609 59.8527826 59.1634783 59.8410435 59.1678261 59.7526087 59.2008696 59.663913 59.2330435 59.5749565 59.266087 59.4857391 59.2991304 59.3964348 59.3313043 59.3067826 59.3643478 59.2169565 59.3965217 59.1270435 59.4295652 59.0373043 59.4617391 58.9475652 59.493913 58.9366957 59.4973913 58.8596522 59.5295652 58.772 59.566087 58.6844348 59.6026087 58.5970435 59.6391304 58.5096522 59.6747826 58.4223478 59.7113043 58.3351304 59.7469565 58.248087 59.7817391 58.1610435 59.8173913 58.074087 59.8521739 58.0694783 59.8547826 57.9885217 59.8913043 57.9031304 59.9295652 57.8178261 59.9678261 57.7326087 60.0052174 57.6474783 60.0434783 57.5625217 60.0808696 57.4775652 60.1182609 57.3926957 60.1556522 57.308 60.1921739 57.2233043 60.2295652 57.1822609 60.2469565 57.1396522 60.2686957 57.0567826 60.3095652 56.974 60.3495652 56.8913043 60.3904348 56.8086957 60.4304348 56.7262609 60.4704348 56.6438261 60.5104348 56.5615652 60.5504348 56.4793913 60.5895652 56.3973913 60.6295652 56.3153913 60.6686957 56.2335652 60.7069565 56.151913 60.746087 56.0702609 60.7843478 55.9887826 60.8226087 55.9074783 60.8608696 55.8262609 60.8991304 55.7451304 60.9373913 55.6641739 60.9747826 55.5833913 61.0121739 55.5026957 61.0495652 55.422087 61.086087 55.3622609 61.113913 55.342 61.1243478 55.2632174 61.1652174 55.1844348 61.206087 55.105913 61.2469565 55.0273913 61.2878261 54.9491304 61.3278261 54.8709565 61.3678261 54.7928696 61.4078261 54.7149565 61.4478261 54.6372174 61.4869565 54.5596522 61.5269565 54.4821739 61.566087 54.4048696 61.6043478 54.3277391 61.6434783 54.2507826 61.6817391 54.173913 61.72 54.0972174 61.7582609 54.0207826 61.7965217 53.9444348 61.833913 53.8682609 61.8721739 53.7922609 61.9095652 53.7164348 61.946087 53.6407826 61.9834783 53.5653043 62.02 53.5102609 62.0469565 53.4903478 62.0573913 53.4161739 62.0973913 53.3421739 62.1365217 53.2683478 62.1756522 53.1946957 62.2147826 53.1212174 62.253913 53.048 62.2921739 52.9748696 62.3304348 52.902 62.3686957 52.8293043 62.4069565 52.7567826 62.4443478 52.6845217 62.4817391 52.6124348 62.5191304 52.5405217 62.5565217 52.4687826 62.5930435 52.3973043 62.6304348 52.326 62.6669565 52.2549565 62.7026087 52.184087 62.7391304 52.1133913 62.7747826 52.0429565 62.8104348 51.9727826 62.846087 51.9027826 62.8808696 51.8330435 62.9165217 51.7634783 62.9513043 51.6941739 62.986087 51.6656522 63 51.6255652 63.0226087 51.5575652 63.0591304 51.4897391 63.0965217 51.4221739 63.133913 51.3548696 63.1704348 51.2877391 63.2069565 51.2208696 63.2426087 51.1542609 63.2791304 51.087913 63.3147826 51.0217391 63.3504348 50.9558261 63.386087 50.8901739 63.4208696 50.8247826 63.4556522 50.7596522 63.4904348 50.6942609 63.5252174 50.5658261 63.5930435 50.4378261 63.6608696 50.3109565 63.7269565 50.1852174 63.7930435 50.0605217 63.8573913 49.9370435 63.9217391 49.8146087 63.9843478 49.6933913 64.0469565 49.5733913 64.1078261 49.4545217 64.1686957 49.3368696 64.2278261 49.2205217 64.286087 49.1054783 64.3434783 48.9916522 64.4008696 48.8790435 64.4565217 48.767913 64.5113043 48.658 64.5652174 48.5494783 64.6182609 48.4423478 64.6704348 48.3366087 64.7217391 48.2322609 64.7721739 48.1798261 64.7973913 48.1297391 64.8234783 48.0289565 64.8756522 47.9297391 64.926087 47.831913 64.9765217 47.7355652 65.026087 47.6407826 65.073913 47.5474783 65.1208696 47.4556522 65.1669565 47.3654783 65.2121739 47.2768696 65.2565217 47.1898261 65.3 47.1044348 65.3426087 47.0206087 65.3834783 46.9385217 65.4243478 46.858087 65.4634783 46.7793043 65.5017391 46.7022609 65.5391304 46.6268696 65.5747826 46.5533043 65.6104348 46.4814783 65.6443478 46.4114783 65.6782609 46.3433043 65.7104348 46.2768696 65.7417391 46.2122609 65.7721739 46.1495652 65.8008696 46.0887826 65.8295652 46.0298261 65.8565217 45.9728696 65.8826087 45.9177391 65.9078261 45.8634783 65.9321739 45.7644348 65.9773913 45.672087 66.0182609 45.588 66.0547826 45.5122609 66.0878261 45.4450435 66.1165217 45.3864348 66.1408696 45.3366087 66.1608696 45.3146087 66.1695652 45.2957391 66.1773913 45.2630435 66.1895652 45.2392174 66.1991304 44.1274783 58.4521739 44.1424348 58.4556522 44.158 58.4608696 44.170087 58.4643478 44.184087 58.4669565 44.2198261 58.4747826 44.2649565 58.4834783 44.3194783 58.4930435 44.3831304 58.5034783 44.456 58.5147826 44.5378261 58.5278261 44.6296522 58.5408696 44.6771304 58.5486957 44.727913 58.5556522 44.7808696 58.5626087 44.835913 58.5704348 44.8931304 58.5782609 44.9524348 58.586087 45.0138261 58.593913 45.0773043 58.6026087 45.1428696 58.6113043 45.2104348 58.6191304 45.28 58.6278261 45.3516522 58.6365217 45.4253043 58.6452174 45.5008696 58.6547826 45.5785217 58.6634783 45.658 58.6721739 45.7394783 58.6817391 45.8228696 58.6904348 45.9081739 58.7 45.9953913 58.7095652 46.0845217 58.7191304 46.1753913 58.7278261 46.2682609 58.7373913 46.3628696 58.7469565 46.4593043 58.7565217 46.5575652 58.766087 46.6575652 58.7747826 46.7593913 58.7843478 46.8629565 58.793913 46.9146087 58.7982609 46.9678261 58.8008696 47.074087 58.8069565 47.182087 58.8121739 47.2916522 58.8173913 47.4029565 58.8226087 47.5158261 58.8278261 47.6303478 58.8330435 47.7465217 58.8373913 47.8642609 58.8426087 47.9835652 58.8469565 48.1045217 58.8513043 48.2269565 58.8556522 48.3509565 58.8591304 48.4764348 58.8634783 48.6034783 58.8669565 48.732 58.8704348 48.862 58.8730435 48.9933913 58.8765217 49.1262609 58.8791304 49.2606087 58.8817391 49.3963478 58.8834783 49.534087 58.8852174 49.6026087 58.886087 49.672 58.8869565 49.7418261 58.8878261 49.811913 58.8886957 49.8824348 58.8895652 49.9532174 58.8895652 50.0243478 58.8904348 50.0958261 58.8904348 50.1675652 58.8913043 50.2397391 58.8913043 50.3121739 58.8913043 50.3849565 58.8913043 50.458087 58.8913043 50.5314783 58.8913043 50.5747826 58.8913043 50.6048696 58.8904348 50.6781739 58.8869565 50.7516522 58.8834783 50.8254783 58.88 50.8996522 58.8765217 50.974087 58.8730435 51.0488696 58.8686957 51.123913 58.8652174 51.1993043 58.8608696 51.2748696 58.8565217 51.3508696 58.8530435 51.4270435 58.8486957 51.5035652 58.8443478 51.5803478 58.84 51.6574783 58.8347826 51.7347826 58.8304348 51.8124348 58.8252174 51.8903478 58.8208696 51.9685217 58.8156522 52.0470435 58.8104348 52.1258261 58.8052174 52.2047826 58.8 52.284087 58.7947826 52.3636522 58.7886957 52.4434783 58.7834783 52.5235652 58.7773913 52.5451304 58.7756522 52.6032174 58.7695652 52.6828696 58.76 52.7627826 58.7504348 52.8428696 58.7408696 52.9233043 58.7313043 53.003913 58.7217391 53.0847826 58.7121739 53.165913 58.7017391 53.2472174 58.6921739 53.3288696 58.6817391 53.4106087 58.6713043 53.4926957 58.6608696 53.5749565 58.6504348 53.6574783 58.64 53.7401739 58.6286957 53.8231304 58.6182609 53.9063478 58.6069565 53.9896522 58.5956522 54.0733043 58.5843478 54.1571304 58.5721739 54.2411304 58.5608696 54.3253913 58.5486957 54.4098261 58.5373913 54.4945217 58.5252174 54.5161739 58.5217391 54.5782609 58.5095652 54.661913 58.4921739 54.7457391 58.4756522 54.8297391 58.4582609 54.913913 58.4408696 54.9982609 58.4234783 55.0827826 58.406087 55.1674783 58.3886957 55.2523478 58.3704348 55.3373913 58.3530435 55.4226087 58.3347826 55.508 58.3165217 55.5935652 58.2973913 55.6793043 58.2791304 55.7652174 58.26 55.8512174 58.2417391 55.9374783 58.2226087 56.0238261 58.2026087 56.1103478 58.1834783 56.1970435 58.1643478 56.2838261 58.1443478 56.3708696 58.1243478 56.4155652 58.113913 56.4572174 58.1017391 56.5428696 58.0773913 56.6286957 58.0530435 56.7146957 58.0278261 56.8006957 58.0026087 56.8868696 57.9773913 56.9732174 57.9521739 57.0596522 57.926087 57.1461739 57.9008696 57.2328696 57.8747826 57.3150435 57.8495652 57.3195652 57.8478261 57.4050435 57.8182609 57.4906957 57.7878261 57.5763478 57.7573913 57.6621739 57.7269565 57.748 57.6965217 57.834 57.666087 57.92 57.6347826 58.0061739 57.6034783 58.0923478 57.5721739 58.1682609 57.5443478 58.1784348 57.54 58.2627826 57.5034783 58.3473043 57.4669565 58.4317391 57.4295652 58.5162609 57.3921739 58.6004348 57.3547826 58.6845217 57.3182609 58.7682609 57.2808696 58.8518261 57.2434783 58.9352174 57.206087 59.0183478 57.1678261 59.0293913 57.1634783 59.0996522 57.1269565 59.1804348 57.0843478 59.2610435 57.0426087 59.3413913 57 59.4214783 56.9582609 59.5013913 56.9156522 59.5810435 56.873913 59.6604348 56.8313043 59.7395652 56.7886957 59.8185217 56.7469565 59.8972174 56.7043478 59.9452174 56.6782609 59.9748696 56.66 60.0511304 56.6130435 60.1271304 56.566087 60.2027826 56.5191304 60.2782609 56.4730435 60.3535652 56.426087 60.4285217 56.3791304 60.5032174 56.3321739 60.5776522 56.2852174 60.651913 56.2382609 60.7258261 56.1913043 60.7995652 56.1443478 60.8730435 56.0982609 60.9461739 56.0513043 61.0191304 56.0043478 61.0918261 55.9573913 61.1642609 55.9113043 61.2363478 55.8643478 61.3082609 55.8173913 61.379913 55.7713043 61.4513043 55.7243478 61.5224348 55.6782609 61.5932174 55.6313043 61.6638261 55.5852174 61.7341739 55.5391304 61.8042609 55.4921739 61.8597391 55.4556522 61.8736522 55.4452174 61.9413913 55.3956522 62.0088696 55.3452174 62.076087 55.2956522 62.1430435 55.246087 62.2096522 55.1956522 62.276087 55.146087 62.3421739 55.0965217 62.408087 55.0469565 62.4736522 54.9973913 62.5389565 54.9486957 62.603913 54.8991304 62.6686957 54.8495652 62.7331304 54.8008696 62.7973913 54.7513043 62.8613043 54.7026087 62.9248696 54.653913 62.9882609 54.6052174 63.0513043 54.5565217 63.1141739 54.5078261 63.1766957 54.4591304 63.2388696 54.4104348 63.3008696 54.3617391 63.3625217 54.313913 63.423913 54.266087 63.4850435 54.2173913 63.545913 54.1695652 63.6064348 54.1217391 63.6666957 54.073913 63.7266957 54.0269565 63.760087 54 63.7858261 53.9782609 63.844087 53.9286957 63.902087 53.8791304 63.9597391 53.8295652 64.0171304 53.78 64.0741739 53.7313043 64.1309565 53.6826087 64.1874783 53.6330435 64.2437391 53.5843478 64.2996522 53.5356522 64.3553043 53.4878261 64.4106087 53.4391304 64.4657391 53.3913043 64.5204348 53.3434783 64.5749565 53.2947826 64.6291304 53.2478261 64.6830435 53.2 64.7366087 53.1521739 64.789913 53.1052174 64.8428696 53.0582609 64.8955652 53.0113043 64.948 52.9643478 65.0001739 52.9173913 65.052 52.8713043 65.1034783 52.8252174 65.1546957 52.7782609 65.2056522 52.7330435 65.2562609 52.6869565 65.3066087 52.6408696 65.3566087 52.5956522 65.4063478 52.5504348 65.4557391 52.5052174 65.5048696 52.46 65.5132174 52.4530435 65.5528696 52.413913 65.6003478 52.3678261 65.6475652 52.3208696 65.6944348 52.2756522 65.7404348 52.2295652 65.8332174 52.1382609 65.9242609 52.0478261 66.014087 51.9582609 66.1026957 51.8695652 66.190087 51.7826087 66.2761739 51.6956522 66.3611304 51.6095652 66.4447826 51.5243478 66.5272174 51.44 66.6084348 51.3565217 66.6884348 51.273913 66.7671304 51.1930435 66.8446087 51.1121739 66.9208696 51.0330435 66.9958261 50.9547826 67.0694783 50.8773913 67.141913 50.8008696 67.2130435 50.7252174 67.2829565 50.6513043 67.3515652 50.5773913 67.4188696 50.5052174 67.4849565 50.4347826 67.5496522 50.3643478 67.6131304 50.2956522 67.6753043 50.2278261 67.7361739 50.1617391 67.7957391 50.0956522 67.854 50.0321739 67.9109565 49.9686957 67.9666087 49.9069565 68.0209565 49.846087 68.074 49.7869565 68.1256522 49.7286957 68.1433043 49.7086957 68.1752174 49.6713043 68.2232174 49.613913 68.2698261 49.5582609 68.3150435 49.5034783 68.3590435 49.4504348 68.4016522 49.3982609 68.4429565 49.3478261 68.4829565 49.2991304 68.5215652 49.2513043 68.5588696 49.2052174 68.5947826 49.1608696 68.6293913 49.1173913 68.6626957 49.0765217 68.6945217 49.0356522 68.7250435 48.9973913 68.7542609 48.96 68.782087 48.9243478 68.8085217 48.8904348 68.8325217 48.8582609 68.8795652 48.7973913 68.92 48.7434783 68.9549565 48.6965217 68.9841739 48.6556522 69.007913 48.6226087 69.025913 48.5956522 69.0307826 48.5878261 69.038087 48.5756522 69.0437391 48.5634783 69.0505217 48.5513043"></polygon>
            <polygon id="Fill-30" fill="#FFFFFF" points="72.7281739 60.9069565 72.7196522 60.9008696 72.7146957 60.893913 72.7046957 60.8878261 72.6993913 60.8843478 72.6755652 60.8721739 72.6410435 60.8573913 72.6237391 60.8495652 72.6023478 60.8408696 72.5788696 60.8313043 72.5533043 60.8208696 72.5256522 60.8104348 72.496 60.7991304 72.4642609 60.7878261 72.4305217 60.7756522 72.3947826 60.7626087 72.3569565 60.7495652 72.3172174 60.7356522 72.2753913 60.7208696 72.2316522 60.706087 72.185913 60.6913043 72.1382609 60.6756522 72.0886087 60.66 72.0370435 60.6434783 71.9834783 60.6269565 71.928087 60.6095652 71.8706957 60.5921739 71.8114783 60.573913 71.7503478 60.5556522 71.6873913 60.5373913 71.6224348 60.5191304 71.5557391 60.5 71.4871304 60.48 71.4166957 60.4608696 71.4023478 60.4565217 71.3445217 60.4426087 71.2705217 60.4243478 71.1946957 60.406087 71.1171304 60.3878261 71.0378261 60.3695652 70.9566957 60.3504348 70.8738261 60.3313043 70.7891304 60.3130435 70.7016522 60.293913 70.6589565 60.2843478 70.6146957 60.2747826 70.57 60.2652174 70.5248696 60.2556522 70.4793913 60.246087 70.4333913 60.2365217 70.3870435 60.2269565 70.3401739 60.2165217 70.2929565 60.2069565 70.2453043 60.1973913 70.1973043 60.1878261 70.1487826 60.1782609 70.099913 60.1686957 70.0506087 60.1591304 70.0008696 60.1495652 69.9506957 60.14 69.9001739 60.1304348 69.8492174 60.12 69.7978261 60.1104348 69.746087 60.1008696 69.693913 60.0913043 69.6413043 60.0817391 69.5882609 60.0721739 69.5348696 60.0626087 69.4811304 60.0530435 69.4269565 60.0434783 69.3723478 60.0347826 69.3173913 60.0252174 69.262 60.0156522 69.2061739 60.006087 69.15 59.9965217 69.0934783 59.9878261 69.0365217 59.9782609 68.9791304 59.9686957 68.9213913 59.96 68.8633043 59.9504348 68.8047826 59.9417391 68.745913 59.9321739 68.6866087 59.9234783 68.6269565 59.913913 68.5669565 59.9052174 68.5065217 59.8965217 68.4457391 59.8878261 68.3846087 59.8782609 68.3230435 59.8695652 68.2611304 59.8608696 68.1987826 59.8521739 68.136087 59.8443478 68.0730435 59.8356522 68.0096522 59.8269565 67.945913 59.8182609 67.8817391 59.8104348 67.8172174 59.8017391 67.7523478 59.793913 67.6871304 59.786087 67.6713913 59.7834783 67.6217391 59.7791304 67.556 59.773913 67.49 59.7678261 67.4236522 59.7617391 67.3568696 59.7565217 67.2898261 59.7513043 67.2223478 59.7452174 67.1546087 59.74 67.0865217 59.7347826 67.018 59.7295652 66.9492174 59.7252174 66.880087 59.72 66.8106087 59.7147826 66.7407826 59.7104348 66.6706087 59.706087 66.600087 59.7008696 66.5293043 59.6965217 66.458087 59.6930435 66.3866087 59.6886957 66.3147826 59.6843478 66.2426087 59.6808696 66.1701739 59.6765217 66.0973913 59.6730435 66.0241739 59.6695652 65.9507826 59.666087 65.8769565 59.6626087 65.8028696 59.66 65.7284348 59.6565217 65.6536522 59.653913 65.5786087 59.6504348 65.5032174 59.6478261 65.4274783 59.646087 65.3514783 59.6434783 65.3172174 59.6426087 65.2754783 59.6426087 65.1993043 59.6426087 65.1228696 59.6434783 65.046087 59.6443478 64.9690435 59.6452174 64.8917391 59.646087 64.814087 59.6469565 64.736087 59.6486957 64.657913 59.6495652 64.5793913 59.6513043 64.5006087 59.6530435 64.4214783 59.6547826 64.342087 59.6573913 64.2624348 59.66 64.1825217 59.6617391 64.1022609 59.6643478 64.0217391 59.6678261 63.9409565 59.6704348 63.8598261 59.673913 63.7785217 59.6773913 63.6968696 59.6808696 63.6149565 59.6843478 63.5327826 59.6886957 63.4503478 59.6921739 63.3675652 59.6965217 63.2846087 59.7008696 63.2013043 59.706087 63.1178261 59.7104348 63.034 59.7156522 62.949913 59.7208696 62.891913 59.7243478 62.865913 59.7278261 62.7823478 59.7373913 62.6986087 59.7469565 62.6145217 59.7573913 62.5302609 59.7678261 62.4457391 59.7782609 62.3610435 59.7886957 62.276 59.7991304 62.1907826 59.8104348 62.1053913 59.8217391 62.0196522 59.833913 61.9337391 59.8452174 61.8476522 59.8573913 61.7613043 59.8695652 61.6746957 59.8817391 61.587913 59.8947826 61.5008696 59.9078261 61.4135652 59.9208696 61.326087 59.933913 61.2384348 59.9478261 61.1505217 59.9617391 61.0623478 59.9756522 60.974087 59.9904348 60.8854783 60.0052174 60.7966957 60.02 60.7077391 60.0347826 60.6186087 60.0504348 60.6027826 60.0530435 60.5304348 60.0695652 60.4423478 60.0904348 60.3541739 60.1113043 60.2657391 60.1321739 60.1772174 60.1530435 60.0884348 60.1747826 59.9994783 60.1965217 59.9103478 60.2191304 59.8211304 60.2417391 59.7316522 60.2643478 59.642087 60.2869565 59.5758261 60.3043478 59.5526957 60.3113043 59.4644348 60.3391304 59.376 60.3678261 59.2874783 60.3965217 59.1989565 60.4252174 59.1106087 60.453913 59.0223478 60.4834783 58.9343478 60.5130435 58.8464348 60.5426087 58.7586087 60.5721739 58.6710435 60.6017391 58.6623478 60.6052174 58.5853043 60.6365217 58.499913 60.6721739 58.4146957 60.7069565 58.3296522 60.7426087 58.2447826 60.7782609 58.160087 60.8147826 58.0756522 60.8504348 57.9913043 60.886087 57.9072174 60.9226087 57.8233043 60.9591304 57.8091304 60.9652174 57.7407826 60.9982609 57.6586957 61.0391304 57.5768696 61.0791304 57.4952174 61.12 57.4137391 61.16 57.3325217 61.2008696 57.2514783 61.2417391 57.1706087 61.2826087 57.09 61.3234783 57.0096522 61.3652174 56.9521739 61.3947826 56.93 61.4078261 56.8518261 61.4530435 56.774 61.4982609 56.6963478 61.5443478 56.6189565 61.5904348 56.5417391 61.6356522 56.4647826 61.6817391 56.388087 61.7278261 56.3116522 61.773913 56.2354783 61.82 56.1594783 61.866087 56.0837391 61.9130435 56.0081739 61.9591304 55.9329565 62.0052174 55.857913 62.0521739 55.7832174 62.0982609 55.7086957 62.1452174 55.6343478 62.1913043 55.5603478 62.2382609 55.4866087 62.2852174 55.4130435 62.3313043 55.3397391 62.3782609 55.2667826 62.4252174 55.2587826 62.4304348 55.1958261 62.4756522 55.1253043 62.5269565 55.0551304 62.5773913 54.9851304 62.6286957 54.9154783 62.68 54.846087 62.7304348 54.7769565 62.7817391 54.708087 62.8330435 54.6394783 62.8834783 54.5711304 62.9347826 54.5031304 62.986087 54.4353043 63.0365217 54.3678261 63.0878261 54.3006087 63.1382609 54.2335652 63.1895652 54.1669565 63.2408696 54.1005217 63.2913043 54.0343478 63.3417391 53.9685217 63.3930435 53.9029565 63.4434783 53.8376522 63.4947826 53.7726087 63.5452174 53.707913 63.5956522 53.6433913 63.646087 53.638 63.6504348 53.5806957 63.7 53.5184348 63.7530435 53.4564348 63.806087 53.3946957 63.86 53.3332174 63.9130435 53.272087 63.966087 53.2113043 64.0191304 53.1506957 64.0721739 53.0904348 64.1252174 53.0305217 64.1773913 52.9707826 64.2304348 52.9113913 64.2834783 52.8523478 64.3356522 52.7935652 64.3878261 52.7350435 64.44 52.6768696 64.4930435 52.6189565 64.5443478 52.5613913 64.5965217 52.504087 64.6486957 52.4470435 64.7008696 52.3903478 64.7521739 52.334 64.8034783 52.277913 64.8556522 52.222087 64.9069565 52.1666087 64.9582609 52.1343478 64.9878261 52.112087 65.0104348 52.0588696 65.0634783 52.005913 65.1173913 51.9533043 65.1704348 51.9010435 65.2243478 51.8490435 65.2773913 51.7973913 65.3304348 51.746 65.3826087 51.6949565 65.4356522 51.6441739 65.4878261 51.5937391 65.5408696 51.5435652 65.5921739 51.4937391 65.6443478 51.4442609 65.6965217 51.3950435 65.7478261 51.3461739 65.7991304 51.2976522 65.8504348 51.2493913 65.9017391 51.2014783 65.9521739 51.1538261 66.0034783 51.1065217 66.053913 51.0595652 66.1034783 51.0128696 66.153913 50.9665217 66.2034783 50.9205217 66.2530435 50.8747826 66.3026087 50.8293913 66.3521739 50.7843478 66.4008696 50.7395652 66.4495652 50.6951304 66.4982609 50.6510435 66.5469565 50.6073043 66.5947826 50.5638261 66.6426087 50.5206957 66.6904348 50.477913 66.7382609 50.4353913 66.7852174 50.3932174 66.8321739 50.3513913 66.8791304 50.309913 66.9252174 50.2686957 66.9713043 50.227913 67.0173913 50.1873913 67.0634783 50.1472174 67.1086957 50.1073913 67.153913 50.0678261 67.1991304 50.0286087 67.2434783 49.9897391 67.2878261 49.9512174 67.3321739 49.9130435 67.3756522 49.8752174 67.4191304 49.8377391 67.4626087 49.8005217 67.506087 49.7643478 67.5478261 49.6909565 67.6330435 49.6196522 67.7165217 49.6118261 67.726087 49.5515652 67.8017391 49.4851304 67.886087 49.42 67.9686957 49.3562609 68.0504348 49.2938261 68.1304348 49.2327826 68.2095652 49.1731304 68.2869565 49.1147826 68.3626087 49.0578261 68.4373913 49.0022609 68.5104348 48.948087 68.5826087 48.8953043 68.6530435 48.843913 68.7217391 48.793913 68.7886957 48.7453043 68.8547826 48.698087 68.9182609 48.6523478 68.9808696 48.608 69.0417391 48.5650435 69.1017391 48.5235652 69.1591304 48.4834783 69.2147826 48.4447826 69.2695652 48.4075652 69.3217391 48.3718261 69.3721739 48.3374783 69.4217391 48.3046087 69.4686957 48.2732174 69.513913 48.2433043 69.5573913 48.2148696 69.5991304 48.1878261 69.6391304 48.1623478 69.6773913 48.1382609 69.7130435 48.1157391 69.7469565 48.0946957 69.7791304 48.0751304 69.8095652 48.0582609 69.8365217 48.0254783 69.8869565 48 69.9286957 47.9806087 69.9626087 47.9717391 69.9782609 47.9673913 69.9869565 47.9613913 70.0017391 47.954 70.0165217 42.9587826 63.9913043 42.9850435 63.9782609 43.0208696 63.9591304 43.036 63.9513043 43.065913 63.9356522 43.1210435 63.9086957 43.186 63.8773913 43.2596522 63.8426087 43.3018261 63.8226087 43.3453043 63.8026087 43.3912174 63.7817391 43.4393913 63.76 43.49 63.7365217 43.5428696 63.7130435 43.598087 63.6886957 43.6555652 63.6634783 43.7153043 63.6373913 43.7773913 63.6104348 43.8416522 63.5826087 43.9081739 63.553913 43.9768696 63.5243478 44.0478261 63.4947826 44.1208696 63.4643478 44.1961739 63.4330435 44.2735652 63.4008696 44.3530435 63.3678261 44.4346957 63.3347826 44.5183478 63.3008696 44.604087 63.266087 44.691913 63.2304348 44.7818261 63.1947826 44.8736522 63.1591304 44.9675652 63.1217391 45.0633913 63.0843478 45.1612174 63.0469565 45.2609565 63.0086957 45.3626087 62.9695652 45.4662609 62.9304348 45.5717391 62.8904348 45.6791304 62.8504348 45.7883478 62.8095652 45.8993913 62.7686957 46.0122609 62.7278261 46.1141739 62.6904348 46.1266957 62.686087 46.2409565 62.6408696 46.3563478 62.5956522 46.4156522 62.5721739 46.4747826 62.5495652 46.5343478 62.526087 46.5942609 62.5034783 46.6546087 62.48 46.7154783 62.4565217 46.7766957 62.4330435 46.8383478 62.4104348 46.9003478 62.3869565 46.9628696 62.3626087 47.0257391 62.3391304 47.0890435 62.3156522 47.1526957 62.2921739 47.2167826 62.2678261 47.2813043 62.2443478 47.3462609 62.22 47.4115652 62.1965217 47.4772174 62.1721739 47.5433043 62.1486957 47.6098261 62.1243478 47.6766957 62.1 47.743913 62.0756522 47.8115652 62.0521739 47.8796522 62.0278261 47.948087 62.0034783 48.0168696 61.9791304 48.086 61.9547826 48.1555652 61.9304348 48.2254783 61.906087 48.2957391 61.8817391 48.3664348 61.8565217 48.4373913 61.8321739 48.5087826 61.8078261 48.5805217 61.7834783 48.6526957 61.7591304 48.7251304 61.7347826 48.797913 61.7095652 48.8711304 61.6852174 48.9446087 61.6608696 49.0185217 61.6365217 49.0926957 61.6121739 49.1673043 61.5869565 49.2421739 61.5626087 49.3173913 61.5382609 49.3929565 61.513913 49.4688696 61.4895652 49.5451304 61.4652174 49.6216522 61.4408696 49.6986087 61.4156522 49.7758261 61.3913043 49.8533913 61.3669565 49.9312174 61.3426087 49.9637391 61.3330435 50.0084348 61.3165217 50.0853043 61.2895652 50.1624348 61.2626087 50.239913 61.2356522 50.3177391 61.2086957 50.3958261 61.1817391 50.4742609 61.1547826 50.5529565 61.1278261 50.632 61.1008696 50.7113043 61.073913 50.7909565 61.0469565 50.8708696 61.02 50.9510435 60.9930435 51.0315652 60.9669565 51.1123478 60.94 51.1934783 60.9130435 51.2748696 60.8869565 51.3565217 60.86 51.4384348 60.833913 51.5206957 60.8069565 51.6031304 60.7808696 51.685913 60.7547826 51.7689565 60.7286957 51.8523478 60.7026087 51.935913 60.6765217 52.0126087 60.6521739 52.0196522 60.6495652 52.1021739 60.6208696 52.1849565 60.5921739 52.268087 60.5634783 52.3513913 60.5347826 52.4349565 60.506087 52.5188696 60.4773913 52.6029565 60.4486957 52.6873043 60.4208696 52.772 60.3921739 52.8568696 60.3643478 52.942 60.3356522 53.0273913 60.3078261 53.1129565 60.28 53.1988696 60.2513043 53.2849565 60.2234783 53.3713043 60.1965217 53.457913 60.1686957 53.5447826 60.1408696 53.6318261 60.113913 53.7191304 60.086087 53.8066087 60.0591304 53.8944348 60.0321739 53.9823478 60.0052174 54.0609565 59.9808696 54.0703478 59.9773913 54.1567826 59.9469565 54.2433913 59.9156522 54.3302609 59.8852174 54.4173913 59.8547826 54.5046957 59.8234783 54.5922609 59.793913 54.68 59.7634783 54.768 59.7330435 54.8561739 59.7026087 54.9446087 59.6730435 55.0332174 59.6434783 55.122087 59.613913 55.2111304 59.5843478 55.3004348 59.5547826 55.389913 59.5252174 55.4795652 59.4956522 55.5694783 59.4669565 55.6595652 59.4382609 55.7498261 59.4095652 55.8403478 59.3808696 55.9309565 59.3521739 56.0218261 59.3243478 56.0477391 59.3156522 56.1116522 59.2930435 56.2010435 59.2608696 56.2906957 59.2286957 56.3806087 59.1965217 56.4706087 59.1643478 56.5608696 59.1330435 56.6513043 59.1017391 56.742 59.0704348 56.8327826 59.0391304 56.9238261 59.0078261 56.9996522 58.9826087 57.0148696 58.9765217 57.1047826 58.9417391 57.1950435 58.9078261 57.2853913 58.873913 57.376 58.84 57.4667826 58.8069565 57.5577391 58.7730435 57.6489565 58.74 57.7402609 58.7069565 57.8318261 58.673913 57.9145217 58.6443478 57.9233913 58.6408696 58.0134783 58.6034783 58.1038261 58.566087 58.1942609 58.5286957 58.2850435 58.4913043 58.375913 58.4547826 58.4670435 58.4182609 58.5583478 58.3817391 58.6496522 58.3452174 58.7408696 58.3095652 58.832 58.273913 58.8557391 58.2643478 58.9217391 58.2347826 59.0110435 58.1956522 59.1001739 58.1556522 59.1892174 58.1173913 59.2782609 58.0782609 59.3670435 58.04 59.4558261 58.0017391 59.5445217 57.9634783 59.6330435 57.926087 59.7214783 57.8886957 59.8098261 57.8521739 59.8824348 57.8217391 59.8977391 57.8147826 59.9843478 57.7730435 60.0708696 57.7321739 60.1573043 57.6921739 60.2435652 57.6521739 60.3298261 57.6121739 60.415913 57.5721739 60.501913 57.5330435 60.5878261 57.493913 60.6736522 57.4547826 60.7593043 57.4165217 60.8448696 57.3782609 60.9303478 57.34 61.0156522 57.3026087 61.1008696 57.2652174 61.186 57.2278261 61.2709565 57.1913043 61.3557391 57.1547826 61.4405217 57.1182609 61.5250435 57.0826087 61.6095652 57.0469565 61.6938261 57.0113043 61.778 56.9756522 61.862087 56.9408696 61.946 56.906087 62.0297391 56.8721739 62.1133043 56.8382609 62.1393913 56.8278261 62.196087 56.8017391 62.2783478 56.7643478 62.3605217 56.7269565 62.4426087 56.6895652 62.5245217 56.6530435 62.6062609 56.6165217 62.687913 56.5808696 62.7693043 56.5443478 62.8506957 56.5086957 62.9318261 56.473913 63.0128696 56.4382609 63.0937391 56.4034783 63.1744348 56.3686957 63.2550435 56.3347826 63.3353913 56.3008696 63.4156522 56.2669565 63.4957391 56.233913 63.5755652 56.2 63.6553043 56.1669565 63.7348696 56.1347826 63.8142609 56.1017391 63.8934783 56.0695652 63.9725217 56.0382609 64.0513043 56.006087 64.13 55.9747826 64.2084348 55.9434783 64.2867826 55.9130435 64.3648696 55.8817391 64.4427826 55.8513043 64.5204348 55.8217391 64.5631304 55.8052174 64.5977391 55.7904348 64.6746087 55.7582609 64.7512174 55.726087 64.8277391 55.6947826 64.904 55.6634783 64.98 55.6321739 65.055913 55.6017391 65.1315652 55.5713043 65.2069565 55.5408696 65.2822609 55.5104348 65.3573043 55.4808696 65.432087 55.4513043 65.5066957 55.4217391 65.5811304 55.3921739 65.6553043 55.3634783 65.7292174 55.3347826 65.8029565 55.3069565 65.8764348 55.2782609 65.9497391 55.2504348 66.0227826 55.2234783 66.0955652 55.1956522 66.168087 55.1686957 66.2404348 55.1417391 66.3125217 55.1147826 66.3844348 55.0886957 66.456 55.0626087 66.5273913 55.0365217 66.5984348 55.0104348 66.6693043 54.9852174 66.739913 54.96 66.8102609 54.9347826 66.8803478 54.9095652 66.9501739 54.8852174 67.0030435 54.8669565 67.0196522 54.8608696 67.0886957 54.833913 67.1574783 54.8086957 67.225913 54.7826087 67.2941739 54.7573913 67.3621739 54.7321739 67.4298261 54.7069565 67.4972174 54.6826087 67.5644348 54.6573913 67.6313043 54.6330435 67.697913 54.6095652 67.7641739 54.5852174 67.8301739 54.5617391 67.895913 54.5382609 67.9613913 54.5156522 68.0265217 54.4921739 68.0913913 54.4695652 68.156 54.4469565 68.2202609 54.4252174 68.2842609 54.4026087 68.347913 54.3808696 68.4113043 54.3591304 68.4743478 54.3382609 68.5371304 54.3173913 68.5995652 54.2965217 68.6616522 54.2756522 68.7234783 54.2547826 68.7849565 54.2347826 68.846087 54.2147826 68.9069565 54.1947826 68.9674783 54.1747826 69.0276522 54.1556522 69.0874783 54.1365217 69.1470435 54.1173913 69.2061739 54.0991304 69.2650435 54.08 69.3235652 54.0617391 69.3817391 54.0434783 69.4395652 54.026087 69.4970435 54.0078261 69.554087 53.9904348 69.6108696 53.9730435 69.6673043 53.9565217 69.7233913 53.9391304 69.7790435 53.9226087 69.8344348 53.906087 69.8893913 53.8904348 69.944 53.873913 69.9982609 53.8582609 70.052087 53.8426087 70.1055652 53.8269565 70.1586957 53.8113043 70.2114783 53.7965217 70.2638261 53.7817391 70.3158261 53.7669565 70.3685217 53.7521739 70.4693913 53.7243478 70.569913 53.6965217 70.6687826 53.6695652 70.766087 53.6434783 70.8617391 53.6182609 70.9557391 53.5930435 71.048087 53.5695652 71.1387826 53.546087 71.210087 53.5278261 71.2278261 53.5234783 71.3150435 53.5 71.4005217 53.4765217 71.4843478 53.4547826 71.5663478 53.4330435 71.6466087 53.4121739 71.7250435 53.3921739 71.8017391 53.3730435 71.8765217 53.353913 71.9494783 53.3365217 72.0206087 53.3191304 72.0898261 53.3026087 72.1571304 53.2869565 72.2225217 53.2713043 72.285913 53.2573913 72.3473913 53.2434783 72.4069565 53.2304348 72.4644348 53.2173913 72.519913 53.206087 72.5733913 53.1947826 72.6247826 53.1843478 72.6741739 53.173913 72.7213913 53.1652174 72.7665217 53.1565217 72.8095652 53.1478261 72.8504348 53.1408696 72.8891304 53.133913 72.9276522 53.1278261 72.991913 53.1165217 73.0494783 53.1078261 73.0661739 53.106087 73.0978261 53.1008696 73.1386087 53.0965217 73.1668696 53.0930435"></polygon>
            <path d="M62.4796522,61.0991304 L62.9412174,57.5582609" id="Stroke-31" stroke="#FABEA4" stroke-width="3.47826087" stroke-linecap="round" stroke-linejoin="round"></path>
            <path d="M93.9608696,73.5678261 C93.9608696,73.5678261 94.826087,73.8382609 95.0026087,74.6982609 C95.5452174,77.3478261 97.6652174,78.2452174 98.3391304,79.1426087 C98.7495652,79.6895652 99.4991304,79.9913043 99.4991304,79.9913043" id="Fill-32" fill="#D6D6D6"></path>
            <path d="M93.9608696,73.5678261 C93.9608696,73.5678261 94.826087,73.8382609 95.0026087,74.6982609 C95.5452174,77.3478261 97.6652174,78.2452174 98.3391304,79.1426087 C98.7495652,79.6895652 99.4991304,79.9913043 99.4991304,79.9913043" id="Stroke-33" stroke="#E6F1FF" stroke-width="2.60869565"></path>
            <g id="Group-4" transform="translate(14.782609, 73.478261)">
                <path d="M21.6386087,33.2678261 C17.0245217,34.7078261 12.4046957,34.2330435 8.68565217,27.7130435 C5.55982609,22.2330435 5.38304348,17.98 10.3498261,13.8808696 L10.3937391,13.8921739 C10.3937391,13.8921739 11.5746087,14.813913 16.9931304,24.2617391 C22.4115652,33.7086957 21.6644348,33.1373913 21.6644348,33.1373913 L21.6386087,33.2678261 Z" id="Fill-34" fill="#76A0D4"></path>
                <path d="M5.86695652,29.6104348 C6.59052174,30.8043478 17.5487826,42.2858261 17.5487826,42.2858261 C17.5487826,42.2858261 19.0354783,42.9890435 18.9875652,42.5345217 C18.6766087,39.5873913 16.5678261,26.0608696 15.6829565,24.6034783 C14.798087,23.1452174 3.17617391,14.0652174 0.570173913,12.1982609 C0.19173913,11.9269565 0.0473913043,13.4026087 0.0473913043,13.4026087 C0.0473913043,13.4026087 5.1433913,28.4156522 5.86695652,29.6104348 Z" id="Fill-35" fill="#ACC5E5"></path>
                <polygon id="Fill-36" fill="#76A0D4" points="3.96078261 14.7921739 9.81443478 27.3556522 9.60965217 27.4530435 3.54643478 14.9252174 0.798695652 0.146956522 1.44069565 0.032173913"></polygon>
            </g>
            <g id="Group-4" transform="translate(172.869565, 56.608696)">
                <path d="M16.798048,25.9052245 C13.1990602,27.0284831 9.5955958,26.6581334 6.69474189,21.5722678 C4.25659754,17.2976446 4.11870711,13.9800974 7.99279754,10.7826087 L8.02704972,10.7914265 C8.02704972,10.7914265 8.94812798,11.5104206 13.1745749,18.8801098 C17.4009541,26.2491207 16.8181923,25.80348 16.8181923,25.80348 L16.798048,25.9052245 Z" id="Fill-34" fill="#9DBBE1"></path>
                <path d="M4.53926087,23.0864406 C5.10364174,24.0177414 13.6510852,32.9737621 13.6510852,32.9737621 C13.6510852,32.9737621 14.8107078,33.5223003 14.7733357,33.1677549 C14.5307896,30.8688731 12.8859391,20.3176352 12.1957409,19.1808106 C11.5055426,18.0433077 2.44045043,10.9605378 0.407770435,9.5042357 C0.112591304,9.29260726 0,10.4436761 0,10.4436761 C0,10.4436761 3.97488,22.1544615 4.53926087,23.0864406 Z" id="Fill-35" fill="#C3D5ED"></path>
                <polygon id="Fill-36" fill="#9DBBE1" points="3.07512348 11.5134012 7.64097217 21.313426 7.48124174 21.3893952 2.75193217 11.6171806 0.608695652 0.0895351102 1.10945565 0"></polygon>
            </g>
            <polygon id="Fill-38" fill="#ACC5E5" points="156.966087 125.593043 155.452174 135.304348 155.428696 141.085391 155.201739 141.087565 155.066957 135.279043 156.32087 125.501304"></polygon>
            <path d="M151.035652,144.278783 C150.336522,143.450522 146.305217,131.633565 146.305217,131.633565 C146.305217,131.633565 146.155652,130.365217 146.478261,130.51313 C148.570435,131.471913 158.002609,136.374174 158.855652,137.386348 C159.709565,138.398522 163.513043,149.200348 164.24087,151.580348 C164.346957,151.926 163.225217,151.666783 163.225217,151.666783 C163.225217,151.666783 151.735652,145.107043 151.035652,144.278783 Z" id="Fill-39" fill="#ACC5E5"></path>
            <path d="M152.774783,131.362 C151.918261,132.543217 150.146087,134.001391 149.906957,135.348087 C149.531304,137.466 151.284348,139.609739 153.653913,142.269913 C155.814783,144.694957 157.876522,147.009478 160.273913,146.866174 C161.492174,146.793391 162.813913,145.360957 164.245217,144.471391 L164.248696,144.436348 C164.248696,144.436348 163.862609,143.33887 158.252174,137.011478 C152.641739,130.684 152.877391,131.375391 152.877391,131.375391 L152.774783,131.362 Z" id="Fill-40" fill="#ACC5E5"></path>
            <path d="M153.125217,132.102783 C153.07913,132.532 152.642609,132.81487 152.98,133.558261 C153.511304,134.727304 155.18,136.646522 157.353043,139.095043 C159.334783,141.327043 161.225217,143.457304 162.446957,144.196087 C163.067826,144.571652 163.273913,144.149217 163.726087,144.097217 L163.715652,144.076696 C163.715652,144.076696 163.132174,143.270609 157.976522,137.455913 C152.821739,131.641304 153.184348,132.146435 153.184348,132.146435 L153.125217,132.102783 Z" id="Fill-41" fill-opacity="0.3412" fill="#0D57B4"></path>
            <g id="Group-3" transform="translate(51.826087, 3.826087)">
                <polygon id="Fill-42" fill="#76A0D4" points="14.6391304 8.00782609 12.3447826 13.4034783 12.1348696 13.3173913 14.2324348 7.92782609 14.1096522 0.0347826087 14.7618261 0.0347826087"></polygon>
                <path d="M10.5853043,16.4313043 C9.63078261,15.8869565 0.368434783,7.50695652 0.368434783,7.50695652 C0.368434783,7.50695652 -0.215913043,6.35217391 0.142608696,6.38 C2.46773913,6.5626087 13.1535652,7.93826087 14.3187826,8.60434783 C15.483913,9.26956522 22.8713043,18.2226087 24.3944348,20.233913 C24.6156522,20.526087 23.4577391,20.6704348 23.4577391,20.6704348 C23.4577391,20.6704348 11.539913,16.9756522 10.5853043,16.4313043 Z" id="Fill-43" fill="#ACC5E5"></path>
                <path d="M7.37704348,4.1 C6.97452174,5.52347826 5.79608696,7.52869565 6.03826087,8.89391304 C6.41921739,11.0408696 8.83547826,12.4695652 12.0186957,14.173913 C14.9203478,15.7286957 17.6897391,17.2121739 19.9212174,16.24 C21.0554783,15.7452174 21.814,13.9208696 22.8657391,12.5756522 L22.8562609,12.5408696 C22.8562609,12.5408696 22.106,11.6313043 14.5601739,7.56608696 C7.01434783,3.50173913 7.47947826,4.0773913 7.47947826,4.0773913 L7.37704348,4.1 Z" id="Fill-44" fill="#ACC5E5"></path>
                <path d="M7.9693913,4.6826087 C8.07504348,5.10782609 7.75808696,5.52869565 8.33869565,6.11913043 C9.25191304,7.04608696 11.5091304,8.29043478 14.4315652,9.8626087 C17.0955652,11.2956522 19.638087,12.6634783 21.057913,12.9408696 C21.7796522,13.0817391 21.8291304,12.6078261 22.2409565,12.4008696 L22.2237391,12.3843478 C22.2237391,12.3843478 21.3876522,11.8208696 14.4533913,8.08521739 C7.51913043,4.34956522 8.04086957,4.70347826 8.04086957,4.70347826 L7.9693913,4.6826087 Z" id="Fill-45" fill-opacity="0.3535" fill="#0D57B4"></path>
            </g>
            <polygon id="Fill-46" fill="#FABEA4" points="101.802609 44.3426087 102.793043 44.4947826 103.749565 44.7426087 104.666957 45.08 105.54087 45.5026087 106.365217 46.0052174 107.135652 46.5817391 107.846957 47.2286957 108.493043 47.94 109.070435 48.7104348 109.572174 49.5347826 109.994783 50.4086957 110.333043 51.326087 110.58 52.2826087 110.732174 53.2721739 110.784348 54.2904348 110.784348 54.2913043 109.661739 62.6730435 109.661739 62.673913 109.486087 63.6913043 109.23913 64.6817391 108.924348 65.6382609 108.546957 66.5556522 108.111304 67.4295652 107.622609 68.253913 107.084348 69.0243478 106.501739 69.7356522 105.87913 70.3817391 105.22087 70.9591304 104.532174 71.4608696 103.816522 71.8834783 103.08 72.2208696 102.326087 72.4686957 101.55913 72.6208696 100.785217 72.6730435 100.783478 72.6730435 100.009565 72.6208696 99.2426087 72.4686957 98.4886957 72.2208696 97.7513043 71.8834783 97.0365217 71.4608696 96.3478261 70.9591304 95.6895652 70.3817391 95.0669565 69.7356522 94.4843478 69.0243478 93.946087 68.253913 93.4573913 67.4295652 93.0217391 66.5556522 92.6443478 65.6382609 92.3295652 64.6817391 92.0826087 63.6913043 91.9069565 62.673913 91.9069565 62.6730435 90.7843478 54.2913043 90.7843478 54.2904348 90.8356522 53.2721739 90.9878261 52.2826087 91.2356522 51.326087 91.5730435 50.4086957 91.9956522 49.5347826 92.4982609 48.7104348 93.0747826 47.94 93.7217391 47.2286957 94.4330435 46.5817391 95.2034783 46.0052174 96.0278261 45.5026087 96.9017391 45.08 97.8191304 44.7426087 98.7756522 44.4947826 99.7652174 44.3426087 100.783478 44.2913043 100.785217 44.2913043"></polygon>
            <path d="M97.613913,63.713913 C97.613913,63.713913 99.773913,66.2582609 103.954783,65.2017391 C103.954783,65.2017391 103.723478,68.3034783 100.853043,68.3034783 C97.9826087,68.3034783 97.613913,63.713913 97.613913,63.713913 Z" id="Fill-47" fill="#FFE7DC"></path>
            <polygon id="Fill-48" fill="#C49A63" points="90.2826087 52.1173913 89.7591304 54.2913043 89.8513043 55.6895652 90.6565217 55.7156522 91.1095652 60.2878261 90.1382609 59.9982609 91.1095652 63.3156522 92.2208696 64.0086957 91.6443478 59.6782609 92.1765217 59.8982609 92.1713043 54.9947826 93.5878261 52.8382609 94.0008696 51.7582609"></polygon>
            <polygon id="Fill-49" fill="#C49A63" points="111.362609 52.1173913 111.886087 54.2913043 111.793913 55.6895652 110.988696 55.7156522 110.535652 60.2878261 111.506957 59.9982609 110.535652 63.3156522 109.424348 64.0086957 110.00087 59.6782609 109.468696 59.8982609 109.473913 54.9947826 108.057391 52.8382609 107.644348 51.7582609"></polygon>
            <polygon id="Fill-50" fill="#DBB247" points="115.046957 57.9886957 114.378261 61.16 113.953043 61.0695652 114.621739 57.8991304"></polygon>
            <polygon id="Fill-51" fill="#DBB247" points="116.427826 61.0695652 116.002609 61.16 115.333913 57.9886957 115.75913 57.8991304"></polygon>
            <polygon id="Fill-52" fill="#DBB247" points="115.386957 58.4295652 115.386087 61.6704348 114.951304 61.6704348 114.952174 58.4286957"></polygon>
            <path d="M89.5852174,52.1426087 C90.6321739,47.4234783 93.3426087,43.6521739 100.848696,43.6704348 C107.157391,43.6852174 110.934783,45.6478261 112.01913,51.9956522 L111.987826,52.0278261 C111.987826,52.0278261 110.60087,52.593913 99.7095652,52.593913 C88.8191304,52.593913 89.686087,52.2295652 89.686087,52.2295652 L89.5852174,52.1426087 Z" id="Fill-53" fill="#0E4586"></path>
            <path d="M100.605217,40.2808696 C99.2095652,40.3147826 83.7978261,44.1078261 83.7978261,44.1078261 C83.7978261,44.1078261 82.4481739,45.0478261 82.8662609,45.2321739 C85.5774783,46.4286957 98.36,51.3295652 100.065217,51.2869565 C101.769565,51.2443478 115.428696,45.6808696 118.344348,44.3495652 C118.767826,44.1556522 117.56,43.2965217 117.56,43.2965217 C117.56,43.2965217 102.00087,40.2478261 100.605217,40.2808696 Z" id="Fill-54" fill="#0D57B4"></path>
            <polygon id="Fill-55" fill="#DBB247" points="114.663478 45.5782609 115.61913 58.4426087 114.967826 58.4852174 114.241739 45.9956522 100.596522 44.8269565 100.613913 44.6008696"></polygon>
            <path d="M115.293043,57.193913 C115.802609,57.193913 116.215652,57.6069565 116.215652,58.1165217 C116.215652,58.6252174 115.802609,59.0382609 115.293043,59.0382609 C114.784348,59.0382609 114.371304,58.6252174 114.371304,58.1165217 C114.371304,57.6069565 114.784348,57.193913 115.293043,57.193913 Z" id="Fill-56" fill="#DBB247"></path>
            <path d="M127.555652,92.0347826 L128.730435,98.6834783" id="Fill-57" fill="#D6D6D6"></path>
            <path d="M127.555652,92.0347826 L128.730435,98.6834783" id="Stroke-58" stroke="#E6F1FF" stroke-width="2.60869565" stroke-linecap="square"></path>
            <polygon id="Fill-59" fill="#76A0D4" points="166.216522 21.4382609 166.110435 28.1652174 165.883478 28.1643478 165.851304 21.4730435 163.005217 7.93913043 163.645217 7.81130435"></polygon>
            <path d="M168.390435,31.8956522 C167.197391,32.6208696 152.177391,37.7495652 152.177391,37.7495652 C152.177391,37.7495652 150.533913,37.6878261 150.786087,37.3069565 C152.421739,34.8356522 160.534783,23.8086957 161.992174,22.9243478 C163.450435,22.0391304 177.951304,19.3469565 181.124348,18.8930435 C181.585217,18.8278261 181.032174,20.2034783 181.032174,20.2034783 C181.032174,20.2034783 169.583478,31.1704348 168.390435,31.8956522 Z" id="Fill-60" fill="#ACC5E5"></path>
            <path d="M152.710435,27.8626087 C154.043478,29.1869565 155.546087,31.7321739 157.212174,32.3043478 C159.832174,33.2034783 162.908696,31.3991304 166.765217,28.9121739 C170.28,26.6452174 173.635652,24.4817391 173.929565,21.4034783 C174.07913,19.8382609 172.51913,17.8713043 171.672174,15.8730435 L171.627826,15.8626087 C171.627826,15.8626087 170.154783,16.1356522 160.987826,22.0165217 C151.82087,27.8965217 152.747826,27.7347826 152.747826,27.7347826 L152.710435,27.8626087 Z" id="Fill-61" fill="#ACC5E5"></path>
            <path d="M153.722609,27.5634783 C154.26,27.7078261 154.533043,28.32 155.546087,28.0373913 C157.13913,27.5947826 159.913043,25.8530435 163.46087,23.573913 C166.694783,21.4965217 169.78087,19.513913 170.964348,18.1069565 C171.565217,17.3921739 171.068696,17.0443478 171.093043,16.4591304 L171.064348,16.4686957 C171.064348,16.4686957 169.922609,17.0504348 161.49913,22.4547826 C153.074783,27.8582609 153.789565,27.4965217 153.789565,27.4965217 L153.722609,27.5634783 Z" id="Fill-62" fill="#76A0D4"></path>
        </g>
    </g>
</svg>